<svg xmlns="http://www.w3.org/2000/svg" xmlns:xlink="http://www.w3.org/1999/xlink" width="113" height="113" viewBox="0 0 113 113">
  <defs>
    <filter id="Trazado_982547" x="0" y="0" width="113" height="113" filterUnits="userSpaceOnUse">
      <feOffset dy="3" input="SourceAlpha"/>
      <feGaussianBlur stdDeviation="3" result="blur"/>
      <feFlood flood-opacity="0.161"/>
      <feComposite operator="in" in2="blur"/>
      <feComposite in="SourceGraphic"/>
    </filter>
  </defs>
  <g id="Grupo_1231953" data-name="Grupo 1231953" transform="translate(-587 -1005.215)">
    <g id="Grupo_1231322" data-name="Grupo 1231322" transform="translate(0 -1603)">
      <g id="Grupo_1230630" data-name="Grupo 1230630" transform="translate(-525 1377.999)">
        <g id="Grupo_1209049" data-name="Grupo 1209049">
          <g id="Grupo_1208493" data-name="Grupo 1208493" transform="translate(0 -4397.209)">
            <g id="Grupo_1202104" data-name="Grupo 1202104" transform="translate(0 -1149.226)">
              <g id="Grupo_1201923" data-name="Grupo 1201923" transform="translate(-4174.49 4856.378)">
                <g id="Grupo_1176928" data-name="Grupo 1176928" transform="translate(5295.49 1926.273)">
                  <g id="Grupo_1172322" data-name="Grupo 1172322" transform="translate(0 0)">
                    <g id="Grupo_1164700" data-name="Grupo 1164700">
                      <g id="Grupo_1160931" data-name="Grupo 1160931">
                        <g id="Grupo_1160749" data-name="Grupo 1160749">
                          <g id="Grupo_1158891" data-name="Grupo 1158891">
                            <g id="Grupo_1157406" data-name="Grupo 1157406">
                              <g id="Grupo_1155793" data-name="Grupo 1155793">
                                <g id="Grupo_1154704" data-name="Grupo 1154704">
                                  <g id="Grupo_1150790" data-name="Grupo 1150790">
                                    <g id="Grupo_1154214" data-name="Grupo 1154214">
                                      <g id="Grupo_1152583" data-name="Grupo 1152583">
                                        <g id="Grupo_1146973" data-name="Grupo 1146973">
                                          <g id="Grupo_1146954" data-name="Grupo 1146954">
                                            <g transform="matrix(1, 0, 0, 1, -9, -6)" filter="url(#Trazado_982547)">
                                              <g id="Trazado_982547-2" data-name="Trazado 982547" transform="translate(9 6)" fill="#dce8fa">
                                                <path d="M 47.5000114440918 93.49987030029297 C 41.28938293457031 93.49987030029297 35.26534652709961 92.28384399414062 29.5951976776123 89.88558959960938 C 24.11773109436035 87.56881713867188 19.19814491271973 84.25183868408203 14.97310447692871 80.02680206298828 C 10.74805164337158 75.80176544189453 7.43107795715332 70.88218688964844 5.114304542541504 65.40472412109375 C 2.716038227081299 59.73458862304688 1.500011444091797 53.71054840087891 1.500011444091797 47.49993515014648 C 1.500011444091797 41.28932189941406 2.716038227081299 35.26528167724609 5.114304542541504 29.59514808654785 C 7.43107795715332 24.1176815032959 10.74805164337158 19.1981086730957 14.97310447692871 14.97306823730469 C 19.19814491271973 10.74802875518799 24.11773109436035 7.431055068969727 29.5951976776123 5.11428165435791 C 35.26534652709961 2.716028451919556 41.28938293457031 1.500001788139343 47.5000114440918 1.500001788139343 C 53.71063995361328 1.500001788139343 59.73467636108398 2.716028451919556 65.40482330322266 5.11428165435791 C 70.88229370117188 7.431055068969727 75.8018798828125 10.74802875518799 80.02691650390625 14.97306823730469 C 84.25196838378906 19.1981086730957 87.56894683837891 24.1176815032959 89.88571929931641 29.59514808654785 C 92.28398132324219 35.26528167724609 93.50001525878906 41.28932189941406 93.50001525878906 47.49993515014648 C 93.50001525878906 53.71054840087891 92.28398132324219 59.73458862304688 89.88571929931641 65.40472412109375 C 87.56894683837891 70.88218688964844 84.25196838378906 75.80176544189453 80.02691650390625 80.02680206298828 C 75.8018798828125 84.25183868408203 70.88229370117188 87.56881713867188 65.40482330322266 89.88558959960938 C 59.73467636108398 92.28384399414062 53.71063995361328 93.49987030029297 47.5000114440918 93.49987030029297 Z" stroke="none"/>
                                                <path d="M 47.5000114440918 3 C 41.49122619628906 3 35.66378021240234 4.1761474609375 30.17951965332031 6.495796203613281 C 24.880859375 8.7369384765625 20.12153625488281 11.94596862792969 16.03376770019531 16.03373718261719 C 11.94598388671875 20.12149047851562 8.736968994140625 24.88081359863281 6.495811462402344 30.17947387695312 C 4.176162719726562 35.66371917724609 3.000007629394531 41.49116516113281 3.000007629394531 47.49993515014648 C 3.000007629394531 53.50870513916016 4.176162719726562 59.33615112304688 6.495811462402344 64.82039642333984 C 8.736968994140625 70.11905670166016 11.94598388671875 74.87837982177734 16.03376770019531 78.96613311767578 C 20.12153625488281 83.05390167236328 24.880859375 86.26293182373047 30.17951965332031 88.50407409667969 C 35.66378021240234 90.82372283935547 41.49122619628906 91.99987030029297 47.5000114440918 91.99987030029297 C 53.50879669189453 91.99987030029297 59.33624267578125 90.82372283935547 64.82050323486328 88.50407409667969 C 70.11916351318359 86.26293182373047 74.87848663330078 83.05390167236328 78.96625518798828 78.96613311767578 C 83.05403900146484 74.87837982177734 86.2630615234375 70.11905670166016 88.50421142578125 64.82039642333984 C 90.82386016845703 59.33615112304688 92.00001525878906 53.50870513916016 92.00001525878906 47.49993515014648 C 92.00001525878906 41.49116516113281 90.82386016845703 35.66371917724609 88.50421142578125 30.17947387695312 C 86.2630615234375 24.88081359863281 83.05403900146484 20.12149047851562 78.96625518798828 16.03373718261719 C 74.87848663330078 11.94596862792969 70.11916351318359 8.7369384765625 64.82050323486328 6.495796203613281 C 59.33624267578125 4.1761474609375 53.50879669189453 3 47.5000114440918 3 M 47.5000114440918 0 C 73.73353576660156 0 95.00001525878906 21.26644134521484 95.00001525878906 47.49993515014648 C 95.00001525878906 73.73342895507812 73.73353576660156 94.99987030029297 47.5000114440918 94.99987030029297 C 21.26648712158203 94.99987030029297 7.62939453125e-06 73.73342895507812 7.62939453125e-06 47.49993515014648 C 7.62939453125e-06 21.26644134521484 21.26648712158203 0 47.5000114440918 0 Z" stroke="none" fill="#5692e8"/>
                                              </g>
                                            </g>
                                          </g>
                                        </g>
                                      </g>
                                    </g>
                                  </g>
                                </g>
                              </g>
                            </g>
                          </g>
                        </g>
                      </g>
                    </g>
                  </g>
                </g>
              </g>
            </g>
          </g>
        </g>
      </g>
    </g>
    <g id="salon-de-clases" transform="translate(615.911 1031.125)">
      <g id="Grupo_1231951" data-name="Grupo 1231951" transform="translate(0.754 0.753)">
        <path id="Trazado_1232677" data-name="Trazado 1232677" d="M10,1.747H56.557V30.655H10Z" transform="translate(-6.444 -1.747)" fill="#68544f"/>
        <path id="Trazado_1232678" data-name="Trazado 1232678" d="M18,9.747H57.66V31.758H18Z" transform="translate(-10.995 -6.298)" fill="#fff5f5"/>
        <path id="Trazado_1232679" data-name="Trazado 1232679" d="M71.5,51.5h8.648v4.012H71.5Z" transform="translate(-41.432 -30.052)" fill="#fd3"/>
        <path id="Trazado_1232680" data-name="Trazado 1232680" d="M10.8,107.83H8V93.875h4.526Z" transform="translate(-5.305 -54.16)" fill="#f73"/>
        <path id="Trazado_1232681" data-name="Trazado 1232681" d="M111.228,107.83h2.8V93.875H109.5Z" transform="translate(-63.052 -54.16)" fill="#f73"/>
        <path id="Trazado_1232682" data-name="Trazado 1232682" d="M30.518,76H36.9a3.018,3.018,0,0,1,3.018,3.018v8.54H27.5v-8.54A3.018,3.018,0,0,1,30.518,76Z" transform="translate(-16.4 -43.991)" fill="#97de3d"/>
        <path id="Trazado_1232683" data-name="Trazado 1232683" d="M37.3,114.576H24.257a1.913,1.913,0,1,1,0-3.826H37.3a1.913,1.913,0,0,1,0,3.826Z" transform="translate(-13.466 -63.761)" fill="#97de3d"/>
        <g id="Grupo_1231949" data-name="Grupo 1231949" transform="translate(12.111 43.567)">
          <path id="Trazado_1232684" data-name="Trazado 1232684" d="M34.657,102.812h6.251v3.422H34.657Z" transform="translate(-32.582 -102.812)" fill="#fd3"/>
          <path id="Trazado_1232685" data-name="Trazado 1232685" d="M29.844,119.625H32.7v2.855H29.844Z" transform="translate(-29.844 -112.377)" fill="#fd3"/>
          <path id="Trazado_1232686" data-name="Trazado 1232686" d="M47.347,119.625H50.2v2.855H47.347Z" transform="translate(-39.802 -112.377)" fill="#fd3"/>
        </g>
        <path id="Trazado_1232687" data-name="Trazado 1232687" d="M0,0H12.421V8.541A3.018,3.018,0,0,1,9.4,11.558H3.018A3.018,3.018,0,0,1,0,8.541Z" transform="translate(42.569 43.568) rotate(180)" fill="#97de3d"/>
        <path id="Trazado_1232688" data-name="Trazado 1232688" d="M68.443,114.576h13.04a1.913,1.913,0,1,0,0-3.826H68.443a1.913,1.913,0,0,0,0,3.826Z" transform="translate(-38.604 -63.761)" fill="#97de3d"/>
        <path id="Trazado_1232689" data-name="Trazado 1232689" d="M0,0H6.251V3.422H0Z" transform="translate(39.484 46.989) rotate(180)" fill="#fd3"/>
        <path id="Trazado_1232690" data-name="Trazado 1232690" d="M0,0H2.855V2.855H0Z" transform="translate(41.559 53.67) rotate(180)" fill="#fd3"/>
        <path id="Trazado_1232691" data-name="Trazado 1232691" d="M0,0H2.855V2.855H0Z" transform="translate(34.014 53.67) rotate(180)" fill="#fd3"/>
        <g id="Grupo_1231950" data-name="Grupo 1231950" transform="translate(0 35.108)">
          <path id="Trazado_1232692" data-name="Trazado 1232692" d="M1.75,83.188h11.1V87.8H1.75Z" transform="translate(-1.75 -83.188)" fill="#68544f"/>
          <path id="Trazado_1232693" data-name="Trazado 1232693" d="M56.313,83.188H62.94V87.8H56.313Z" transform="translate(-32.792 -83.188)" fill="#68544f"/>
          <path id="Trazado_1232694" data-name="Trazado 1232694" d="M100.5,83.188h11.1V87.8H100.5Z" transform="translate(-57.93 -83.188)" fill="#68544f"/>
        </g>
      </g>
      <g id="Grupo_1231952" data-name="Grupo 1231952" transform="translate(0 0)">
        <path id="Trazado_1232695" data-name="Trazado 1232695" d="M9,30.416H55.561a.754.754,0,0,0,.754-.754V.753A.754.754,0,0,0,55.561,0H9A.754.754,0,0,0,8.25.754V29.661A.754.754,0,0,0,9,30.416ZM9.759,1.509H54.807v27.4H9.759Z" transform="translate(-4.694 0)"/>
        <path id="Trazado_1232696" data-name="Trazado 1232696" d="M56.664,8h-24.6a.754.754,0,0,0,0,1.509H55.91v20.5H49.47V26.752A.754.754,0,0,0,48.716,26H40.067a.754.754,0,0,0-.754.754v3.257H17.759V9.509H22.77A.754.754,0,1,0,22.77,8H17a.754.754,0,0,0-.754.754V30.764a.754.754,0,0,0,.754.754h39.66a.754.754,0,0,0,.754-.754V8.753A.754.754,0,0,0,56.664,8ZM40.822,30.009v-2.5h7.14v2.5Z" transform="translate(-9.245 -4.551)"/>
        <path id="Trazado_1232697" data-name="Trazado 1232697" d="M39.941,9.509h1.051a.754.754,0,1,0,0-1.509H39.941a.754.754,0,1,0,0,1.509Z" transform="translate(-22.294 -4.551)"/>
        <path id="Trazado_1232698" data-name="Trazado 1232698" d="M54.424,77.349H44.01a3.775,3.775,0,0,0-1.544-2.419.755.755,0,1,0-.866,1.236,2.268,2.268,0,0,1,.97,1.856v7.785H31.657V78.022a2.266,2.266,0,0,1,2.263-2.263h3.193a.754.754,0,1,0,0-1.509H33.92a3.775,3.775,0,0,0-3.707,3.1H24.967a3.776,3.776,0,0,0-3.707-3.1H14.872a3.775,3.775,0,0,0-3.707,3.1H.754A.754.754,0,0,0,0,78.1V82.71a.754.754,0,0,0,.754.754h1.94v13.2a.754.754,0,0,0,.754.756h2.8A.754.754,0,0,0,7,96.759L8.643,83.466H11.1v3.1a.754.754,0,0,0,.754.754h2.33V89.23H11.545a2.667,2.667,0,1,0,0,5.335h.568v2.1a.754.754,0,0,0,.754.754h2.855a.754.754,0,0,0,.754-.754v-2.1h3.181v2.1a.754.754,0,0,0,.754.754h2.854a.755.755,0,0,0,.754-.754v-2.1h.566a2.667,2.667,0,1,0,0-5.335h-2.64V87.317h2.33a.754.754,0,0,0,.754-.754v-3.1h5.118v3.1a.754.754,0,0,0,.754.754h2.331V89.23h-2.64a2.667,2.667,0,1,0,0,5.335h.566v2.1a.754.754,0,0,0,.754.756h2.855a.754.754,0,0,0,.754-.754v-2.1H38.7v2.1a.754.754,0,0,0,.754.754h2.855a.754.754,0,0,0,.754-.754v-2.1h.566a2.667,2.667,0,1,0,0-5.335h-2.64V87.318h2.331a.754.754,0,0,0,.754-.754v-3.1h2.46l1.644,13.293a.754.754,0,0,0,.748.663h2.8a.754.754,0,0,0,.754-.754v-13.2h1.94a.754.754,0,0,0,.754-.754V78.1a.754.754,0,0,0-.754-.754ZM5.582,95.912H4.2V83.464H7.121ZM1.509,81.956v-3.1H11.1v3.1ZM14.966,95.912H13.622V94.566h1.346Zm7.544,0H21.166V94.566h1.345ZM25.743,91.9a1.16,1.16,0,0,1-1.159,1.158H11.545a1.159,1.159,0,1,1,0-2.317h13.04A1.16,1.16,0,0,1,25.744,91.9ZM20.436,89.23H15.694V87.317h4.742Zm3.085-3.422H12.61V78.022a2.266,2.266,0,0,1,2.263-2.263h6.385a2.266,2.266,0,0,1,2.263,2.263Zm1.509-3.852v-3.1h5.118v3.1Zm8.982,13.956H32.668V94.566h1.345Zm7.544,0H40.213V94.566h1.346ZM44.79,91.9a1.16,1.16,0,0,1-1.158,1.158H30.593a1.159,1.159,0,1,1,0-2.317h13.04A1.16,1.16,0,0,1,44.792,91.9ZM39.484,89.23H34.742V87.317h4.742Zm11.492,6.682H49.6L48.058,83.466h2.919ZM53.67,81.956H44.078v-3.1H53.67Z" transform="translate(0 -42.242)"/>
      </g>
    </g>
  </g>
</svg>
