<svg xmlns="http://www.w3.org/2000/svg" xmlns:xlink="http://www.w3.org/1999/xlink" width="113" height="113" viewBox="0 0 113 113">
  <defs>
    <filter id="Trazado_982547" x="0" y="0" width="113" height="113" filterUnits="userSpaceOnUse">
      <feOffset dy="3" input="SourceAlpha"/>
      <feGaussianBlur stdDeviation="3" result="blur"/>
      <feFlood flood-opacity="0.161"/>
      <feComposite operator="in" in2="blur"/>
      <feComposite in="SourceGraphic"/>
    </filter>
  </defs>
  <g id="Grupo_1231954" data-name="Grupo 1231954" transform="translate(-902 -1005.215)">
    <g id="Grupo_1231336" data-name="Grupo 1231336" transform="translate(0 -1603)">
      <g id="Grupo_1230631" data-name="Grupo 1230631" transform="translate(-210 1377.999)">
        <g id="Grupo_1209049" data-name="Grupo 1209049">
          <g id="Grupo_1208493" data-name="Grupo 1208493" transform="translate(0 -4397.209)">
            <g id="Grupo_1202104" data-name="Grupo 1202104" transform="translate(0 -1149.226)">
              <g id="Grupo_1201923" data-name="Grupo 1201923" transform="translate(-4174.49 4856.378)">
                <g id="Grupo_1176928" data-name="Grupo 1176928" transform="translate(5295.49 1926.273)">
                  <g id="Grupo_1172322" data-name="Grupo 1172322" transform="translate(0 0)">
                    <g id="Grupo_1164700" data-name="Grupo 1164700">
                      <g id="Grupo_1160931" data-name="Grupo 1160931">
                        <g id="Grupo_1160749" data-name="Grupo 1160749">
                          <g id="Grupo_1158891" data-name="Grupo 1158891">
                            <g id="Grupo_1157406" data-name="Grupo 1157406">
                              <g id="Grupo_1155793" data-name="Grupo 1155793">
                                <g id="Grupo_1154704" data-name="Grupo 1154704">
                                  <g id="Grupo_1150790" data-name="Grupo 1150790">
                                    <g id="Grupo_1154214" data-name="Grupo 1154214">
                                      <g id="Grupo_1152583" data-name="Grupo 1152583">
                                        <g id="Grupo_1146973" data-name="Grupo 1146973">
                                          <g id="Grupo_1146954" data-name="Grupo 1146954">
                                            <g transform="matrix(1, 0, 0, 1, -9, -6)" filter="url(#Trazado_982547)">
                                              <g id="Trazado_982547-2" data-name="Trazado 982547" transform="translate(9 6)" fill="#dce8fa">
                                                <path d="M 47.5000114440918 93.49987030029297 C 41.28938293457031 93.49987030029297 35.26534652709961 92.28384399414062 29.5951976776123 89.88558959960938 C 24.11773109436035 87.56881713867188 19.19814491271973 84.25183868408203 14.97310447692871 80.02680206298828 C 10.74805164337158 75.80176544189453 7.43107795715332 70.88218688964844 5.114304542541504 65.40472412109375 C 2.716038227081299 59.73458862304688 1.500011444091797 53.71054840087891 1.500011444091797 47.49993515014648 C 1.500011444091797 41.28932189941406 2.716038227081299 35.26528167724609 5.114304542541504 29.59514808654785 C 7.43107795715332 24.1176815032959 10.74805164337158 19.1981086730957 14.97310447692871 14.97306823730469 C 19.19814491271973 10.74802875518799 24.11773109436035 7.431055068969727 29.5951976776123 5.11428165435791 C 35.26534652709961 2.716028451919556 41.28938293457031 1.500001788139343 47.5000114440918 1.500001788139343 C 53.71063995361328 1.500001788139343 59.73467636108398 2.716028451919556 65.40482330322266 5.11428165435791 C 70.88229370117188 7.431055068969727 75.8018798828125 10.74802875518799 80.02691650390625 14.97306823730469 C 84.25196838378906 19.1981086730957 87.56894683837891 24.1176815032959 89.88571929931641 29.59514808654785 C 92.28398132324219 35.26528167724609 93.50001525878906 41.28932189941406 93.50001525878906 47.49993515014648 C 93.50001525878906 53.71054840087891 92.28398132324219 59.73458862304688 89.88571929931641 65.40472412109375 C 87.56894683837891 70.88218688964844 84.25196838378906 75.80176544189453 80.02691650390625 80.02680206298828 C 75.8018798828125 84.25183868408203 70.88229370117188 87.56881713867188 65.40482330322266 89.88558959960938 C 59.73467636108398 92.28384399414062 53.71063995361328 93.49987030029297 47.5000114440918 93.49987030029297 Z" stroke="none"/>
                                                <path d="M 47.5000114440918 3 C 41.49122619628906 3 35.66378021240234 4.1761474609375 30.17951965332031 6.495796203613281 C 24.880859375 8.7369384765625 20.12153625488281 11.94596862792969 16.03376770019531 16.03373718261719 C 11.94598388671875 20.12149047851562 8.736968994140625 24.88081359863281 6.495811462402344 30.17947387695312 C 4.176162719726562 35.66371917724609 3.000007629394531 41.49116516113281 3.000007629394531 47.49993515014648 C 3.000007629394531 53.50870513916016 4.176162719726562 59.33615112304688 6.495811462402344 64.82039642333984 C 8.736968994140625 70.11905670166016 11.94598388671875 74.87837982177734 16.03376770019531 78.96613311767578 C 20.12153625488281 83.05390167236328 24.880859375 86.26293182373047 30.17951965332031 88.50407409667969 C 35.66378021240234 90.82372283935547 41.49122619628906 91.99987030029297 47.5000114440918 91.99987030029297 C 53.50879669189453 91.99987030029297 59.33624267578125 90.82372283935547 64.82050323486328 88.50407409667969 C 70.11916351318359 86.26293182373047 74.87848663330078 83.05390167236328 78.96625518798828 78.96613311767578 C 83.05403900146484 74.87837982177734 86.2630615234375 70.11905670166016 88.50421142578125 64.82039642333984 C 90.82386016845703 59.33615112304688 92.00001525878906 53.50870513916016 92.00001525878906 47.49993515014648 C 92.00001525878906 41.49116516113281 90.82386016845703 35.66371917724609 88.50421142578125 30.17947387695312 C 86.2630615234375 24.88081359863281 83.05403900146484 20.12149047851562 78.96625518798828 16.03373718261719 C 74.87848663330078 11.94596862792969 70.11916351318359 8.7369384765625 64.82050323486328 6.495796203613281 C 59.33624267578125 4.1761474609375 53.50879669189453 3 47.5000114440918 3 M 47.5000114440918 0 C 73.73353576660156 0 95.00001525878906 21.26644134521484 95.00001525878906 47.49993515014648 C 95.00001525878906 73.73342895507812 73.73353576660156 94.99987030029297 47.5000114440918 94.99987030029297 C 21.26648712158203 94.99987030029297 7.62939453125e-06 73.73342895507812 7.62939453125e-06 47.49993515014648 C 7.62939453125e-06 21.26644134521484 21.26648712158203 0 47.5000114440918 0 Z" stroke="none" fill="#5692e8"/>
                                              </g>
                                            </g>
                                          </g>
                                        </g>
                                      </g>
                                    </g>
                                  </g>
                                </g>
                              </g>
                            </g>
                          </g>
                        </g>
                      </g>
                    </g>
                  </g>
                </g>
              </g>
            </g>
          </g>
        </g>
      </g>
    </g>
    <g id="educacion_18_" data-name="educacion (18)" transform="translate(929.687 1029.393)">
      <path id="Trazado_1232699" data-name="Trazado 1232699" d="M11.7,39.4H48.619V34H11.7a2.7,2.7,0,0,0,0,5.4Z" transform="translate(-0.896 -3.293)" fill="#eceff0"/>
      <path id="Trazado_1232700" data-name="Trazado 1232700" d="M9.864,48a4.952,4.952,0,1,0,0,9.9s45.551-.011,45.551-.025V48.025c0-.014-45.551-.025-45.551-.025Z" transform="translate(-0.489 -4.687)" fill="#dedfdf"/>
      <path id="Trazado_1232701" data-name="Trazado 1232701" d="M4.442,52.554A4.952,4.952,0,0,1,9.394,47.6H55.026a1.8,1.8,0,1,0,0-3.6H9.554a8.554,8.554,0,1,0,0,17.108H55.026a1.8,1.8,0,1,0,0-3.6H9.394a4.952,4.952,0,0,1-4.952-4.952Z" transform="translate(-0.1 -4.289)" fill="#db3a3a"/>
      <path id="Trazado_1232702" data-name="Trazado 1232702" d="M11.305,39H48.223a1.8,1.8,0,0,1,0,3.6h-36.9a6.3,6.3,0,1,1,0-12.606h36.9a1.8,1.8,0,0,1,0,3.6H11.305a2.7,2.7,0,0,0,0,5.4Z" transform="translate(-0.5 -2.895)" fill="#5783e4"/>
      <path id="Trazado_1232703" data-name="Trazado 1232703" d="M17,28.606s3.377,4.5,13.507,4.5,13.506-4.5,13.506-4.5V16H17Z" transform="translate(-1.693 -1.501)" fill="#414141"/>
      <path id="Trazado_1232704" data-name="Trazado 1232704" d="M29.511,2,7,11l22.511,9,22.511-9Z" transform="translate(-0.697 -0.107)" fill="#5a5a5a"/>
      <path id="Trazado_1232705" data-name="Trazado 1232705" d="M50,34.805h5.4L53.6,24H51.8Z" transform="translate(-4.978 -2.298)" fill="#ffdc32"/>
      <circle id="Elipse_11554" data-name="Elipse 11554" cx="2.251" cy="2.251" r="2.251" transform="translate(45.472 19.451)" fill="#facd1e"/>
      <path id="Trazado_1232706" data-name="Trazado 1232706" d="M55.827,52.483V44.047a2.695,2.695,0,0,0-.9-5.237H50.258a2.668,2.668,0,0,0,.166-.9,2.7,2.7,0,0,0-1.8-2.535V33.408h2.864l-1.575-9.447A3.131,3.131,0,0,0,48.623,18.7V14.778l-2.345-.893,7.47-2.988L28.814.923,3.879,10.9l10.528,4.211V26.2h-3.6a7.2,7.2,0,0,0-4.2,13.046A9.454,9.454,0,0,0,9.454,57.72H54.926a2.695,2.695,0,0,0,.9-5.237Zm-1.8-6.469H37.818v1.8H54.026v4.5H9.295a4.052,4.052,0,0,1,0-8.1H54.026Zm-7.2-10.805H10.805a1.8,1.8,0,0,1,0-3.6H21.588a27.117,27.117,0,0,0,7.226.9,27.117,27.117,0,0,0,7.226-.9h8.219l-.3,1.8h2.864Zm-4.1-7.2h2.135l-.3,1.8H40.395a10.938,10.938,0,0,0,2.33-1.8Zm6.636,3.6H46.085l1.134-6.8a2.521,2.521,0,0,0,1.008,0Zm-.287-9.9a1.351,1.351,0,1,1-1.351-1.351A1.351,1.351,0,0,1,49.074,21.7Zm-2.251-5.682V18.7a3.131,3.131,0,0,0-1.289,5.263L45.159,26.2H43.221v-11.1l.59-.236ZM28.814,2.863,48.9,10.9l-5.105,2.042L29.134,7.354l-.641,1.683,12.834,4.889-12.513,5L8.727,10.9Zm0,18.009L41.42,15.829V26.764c-.807.836-4.362,3.943-12.606,3.943s-11.807-3.114-12.606-3.942V15.829ZM5.4,33.408a5.409,5.409,0,0,1,5.4-5.4h4.1a10.938,10.938,0,0,0,2.33,1.8H10.805a3.6,3.6,0,0,0,0,7.2H47.723a.9.9,0,0,1,0,1.8H10.805a5.409,5.409,0,0,1-5.4-5.4ZM54.926,55.919H9.454a7.654,7.654,0,0,1,0-15.307H54.926a.9.9,0,1,1,0,1.8H9.295a5.853,5.853,0,0,0,0,11.706H54.926a.9.9,0,1,1,0,1.8Z" transform="translate(0)"/>
      <path id="Trazado_1232707" data-name="Trazado 1232707" d="M10,54H35.212v1.8H10Z" transform="translate(-0.996 -5.285)"/>
    </g>
  </g>
</svg>
