<svg xmlns="http://www.w3.org/2000/svg" xmlns:xlink="http://www.w3.org/1999/xlink" width="98" height="98" viewBox="0 0 98 98">
  <defs>
    <filter id="Trazado_982547" x="0" y="0" width="98" height="98" filterUnits="userSpaceOnUse">
      <feOffset dy="3" input="SourceAlpha"/>
      <feGaussianBlur stdDeviation="3" result="blur"/>
      <feFlood flood-opacity="0.161"/>
      <feComposite operator="in" in2="blur"/>
      <feComposite in="SourceGraphic"/>
    </filter>
    <clipPath id="clip-path">
      <path id="path8121" d="M0-682.665H48.414v48.414H0Z" transform="translate(0 682.665)"/>
    </clipPath>
  </defs>
  <g id="Grupo_1232237" data-name="Grupo 1232237" transform="translate(-615.151 -6660)">
    <g id="Grupo_1231666" data-name="Grupo 1231666" transform="translate(420 4368)">
      <g id="Grupo_1229590" data-name="Grupo 1229590" transform="translate(204.151 2298)">
        <g id="Grupo_1208936" data-name="Grupo 1208936" transform="translate(0)">
          <g id="Grupo_1208171" data-name="Grupo 1208171">
            <g id="Grupo_1207739" data-name="Grupo 1207739">
              <g id="Grupo_1207712" data-name="Grupo 1207712">
                <g id="Grupo_1207285" data-name="Grupo 1207285">
                  <g id="Grupo_1206883" data-name="Grupo 1206883">
                    <g id="Grupo_1204569" data-name="Grupo 1204569">
                      <g id="Grupo_1203962" data-name="Grupo 1203962">
                        <g id="Grupo_1203498" data-name="Grupo 1203498">
                          <g id="Grupo_1202589" data-name="Grupo 1202589">
                            <g id="Grupo_1172010" data-name="Grupo 1172010">
                              <g id="Grupo_1171046" data-name="Grupo 1171046">
                                <g id="Grupo_1148525" data-name="Grupo 1148525">
                                  <g transform="matrix(1, 0, 0, 1, -9, -6)" filter="url(#Trazado_982547)">
                                    <g id="Trazado_982547-2" data-name="Trazado 982547" transform="translate(9 6)" fill="#fdfbec">
                                      <path d="M 39.99999237060547 78.49998474121094 C 34.8018684387207 78.49998474121094 29.76002502441406 77.48226165771484 25.0145263671875 75.47508239746094 C 20.43014717102051 73.53604888916016 16.31264877319336 70.75984954833984 12.77639198303223 67.22359466552734 C 9.240137100219727 63.68733596801758 6.463936805725098 59.5698356628418 4.524903297424316 54.98546981811523 C 2.517725706100464 50.23995971679688 1.500003457069397 45.19811630249023 1.500003457069397 39.99999237060547 C 1.500003457069397 34.8018684387207 2.517725706100464 29.76002502441406 4.524903297424316 25.0145263671875 C 6.463936805725098 20.43014717102051 9.240137100219727 16.31264877319336 12.77639198303223 12.77639198303223 C 16.31264877319336 9.240137100219727 20.43014717102051 6.463936805725098 25.0145263671875 4.524903297424316 C 29.76002502441406 2.517725706100464 34.8018684387207 1.500003457069397 39.99999237060547 1.500003457069397 C 45.19811630249023 1.500003457069397 50.23995971679688 2.517725706100464 54.98546981811523 4.524903297424316 C 59.5698356628418 6.463936805725098 63.68733596801758 9.240137100219727 67.22359466552734 12.77639198303223 C 70.75984954833984 16.31264877319336 73.53604888916016 20.43014717102051 75.47508239746094 25.0145263671875 C 77.48226165771484 29.76002502441406 78.49998474121094 34.8018684387207 78.49998474121094 39.99999237060547 C 78.49998474121094 45.19812393188477 77.48226165771484 50.23995971679688 75.47508239746094 54.98546981811523 C 73.53604888916016 59.5698356628418 70.75984954833984 63.68733596801758 67.22359466552734 67.22359466552734 C 63.68733596801758 70.75984954833984 59.5698356628418 73.53604888916016 54.98546981811523 75.47508239746094 C 50.23995971679688 77.48226165771484 45.19812393188477 78.49998474121094 39.99999237060547 78.49998474121094 Z" stroke="none"/>
                                      <path d="M 39.99999237060547 2.999992370605469 C 35.00370025634766 2.999992370605469 30.1584587097168 3.97784423828125 25.59884643554688 5.906402587890625 C 21.19327163696289 7.769805908203125 17.23603057861328 10.43805694580078 13.83704376220703 13.83704376220703 C 10.43805694580078 17.23603057861328 7.769805908203125 21.19327163696289 5.906402587890625 25.59884643554688 C 3.97784423828125 30.1584587097168 2.999992370605469 35.00370025634766 2.999992370605469 39.99999237060547 C 2.999992370605469 44.99628448486328 3.97784423828125 49.84152603149414 5.906402587890625 54.40113830566406 C 7.769805908203125 58.80671310424805 10.43805694580078 62.76395416259766 13.83704376220703 66.16294097900391 C 17.23603057861328 69.56191253662109 21.19327163696289 72.23016357421875 25.59884643554688 74.09356689453125 C 30.1584587097168 76.02212524414062 35.00370025634766 76.99997711181641 39.99999237060547 76.99997711181641 C 44.99628448486328 76.99997711181641 49.84152603149414 76.02212524414062 54.40113830566406 74.09356689453125 C 58.80671310424805 72.23016357421875 62.76395416259766 69.56191253662109 66.16294097900391 66.16294097900391 C 69.56191253662109 62.76395416259766 72.23016357421875 58.80671310424805 74.09356689453125 54.40113830566406 C 76.02212524414062 49.84152603149414 76.99997711181641 44.99628448486328 76.99997711181641 39.99999237060547 C 76.99997711181641 35.00370025634766 76.02212524414062 30.1584587097168 74.09356689453125 25.59884643554688 C 72.23016357421875 21.19327163696289 69.56191253662109 17.23603057861328 66.16294097900391 13.83704376220703 C 62.76395416259766 10.43805694580078 58.80671310424805 7.769805908203125 54.40113830566406 5.906402587890625 C 49.84152603149414 3.97784423828125 44.99628448486328 2.999992370605469 39.99999237060547 2.999992370605469 M 39.99999237060547 -7.62939453125e-06 C 62.09137725830078 -7.62939453125e-06 79.99997711181641 17.90860748291016 79.99997711181641 39.99999237060547 C 79.99997711181641 62.09137725830078 62.09137725830078 79.99997711181641 39.99999237060547 79.99997711181641 C 17.90860748291016 79.99997711181641 -7.62939453125e-06 62.09137725830078 -7.62939453125e-06 39.99999237060547 C -7.62939453125e-06 17.90860748291016 17.90860748291016 -7.62939453125e-06 39.99999237060547 -7.62939453125e-06 Z" stroke="none" fill="#83793c"/>
                                    </g>
                                  </g>
                                </g>
                              </g>
                            </g>
                          </g>
                        </g>
                      </g>
                    </g>
                  </g>
                </g>
                <g id="g8115" transform="translate(15.793 15.793)">
                  <g id="g8117">
                    <g id="g8119" clip-path="url(#clip-path)">
                      <g id="g8125" transform="translate(-33.259 0.709)">
                        <path id="path8127" d="M-338.457-377.826h-25.835v-25.108c5.31-7.679,37.755-5.416,25.835,25.108" transform="translate(364.292 406.667)" fill="#fbdf63"/>
                      </g>
                      <g id="g8129" transform="translate(-33.259 0.709)">
                        <path id="path8131" d="M-338.457-377.826h-.619c6.164-24.728-15.887-30.6-25.216-24.374v-.734c5.31-7.679,37.755-5.416,25.835,25.108" transform="translate(364.292 406.667)" fill="#f9d11f"/>
                      </g>
                    </g>
                  </g>
                  <g id="g8265">
                    <g id="g8267" clip-path="url(#clip-path)">
                      <g id="g8273" transform="translate(-33.259 51.036)">
                        <path id="path8275" d="M-338.457-377.654h-25.835v-25.1c5.31-7.676,37.755-5.413,25.835,25.1" transform="translate(364.292 406.481)" fill="#003343"/>
                      </g>
                      <g id="g8277" transform="translate(-33.259 51.036)">
                        <path id="path8279" d="M-338.457-377.654h-.619c6.164-24.717-15.887-30.585-25.216-24.362v-.734c5.31-7.676,37.755-5.413,25.835,25.1" transform="translate(364.292 406.481)" fill="#002439"/>
                      </g>
                    </g>
                  </g>
                  <g id="g8281">
                    <g id="g8283" clip-path="url(#clip-path)">
                      <g id="g8289" transform="translate(17.066 51.014)">
                        <path id="path8291" d="M-338.457-377.826h-25.835v-25.108c5.31-7.679,37.755-5.416,25.835,25.108" transform="translate(364.292 406.667)" fill="#ff7e50"/>
                      </g>
                      <g id="g8293" transform="translate(17.066 51.014)">
                        <path id="path8295" d="M-338.457-377.826h-.619c6.164-24.728-15.887-30.6-25.216-24.374v-.734c5.31-7.679,37.755-5.416,25.835,25.108" transform="translate(364.292 406.667)" fill="#ff6247"/>
                      </g>
                      <g id="g8297" transform="translate(2.941 54.225)">
                        <path id="path8299" d="M-233.028-131.751v15.573h-14.6c-12.2-25.649,14.6-34.273,14.6-15.573" transform="translate(250.816 141.808)" fill="#ffa68a"/>
                      </g>
                      <g id="g8301" transform="translate(2.941 54.225)">
                        <path id="path8303" d="M-233.028-131.751c-.9-16.1-20.23-9.82-14.176,15.573h-.427c-12.2-25.649,14.6-34.273,14.6-15.573" transform="translate(250.816 141.808)" fill="#ff7e50"/>
                      </g>
                    </g>
                  </g>
                </g>
              </g>
            </g>
          </g>
        </g>
      </g>
    </g>
    <g id="Layer_4" transform="translate(631.091 6673.606)">
      <g id="Grupo_1232361" data-name="Grupo 1232361" transform="translate(4 4.996)">
        <g id="Grupo_1232360" data-name="Grupo 1232360">
          <path id="Trazado_1248594" data-name="Trazado 1248594" d="M54.151,66.746v3.643A10.163,10.163,0,0,1,44,80.538H41.685A10.14,10.14,0,0,1,31.562,70.389V66.746h6.376a3.265,3.265,0,0,0,3.409-2.421c.573-1.8,1.691,2.421,4.476,2.421Z" transform="translate(-13.359 -24.99)" fill="#ffddcf"/>
          <g id="Grupo_1232359" data-name="Grupo 1232359" transform="translate(16.841 37.62)">
            <path id="Trazado_1248595" data-name="Trazado 1248595" d="M43.355,81.152H41.039A11.406,11.406,0,0,1,29.658,69.746V66.1a1.256,1.256,0,0,1,1.257-1.256h6.376A2.014,2.014,0,0,0,39.5,63.3a1.689,1.689,0,0,1,1.271-1.291c.964-.147,1.567.537,2.148,1.228.6.719,1.347,1.614,2.253,1.614H53.5A1.256,1.256,0,0,1,54.762,66.1v3.642A11.418,11.418,0,0,1,43.355,81.152ZM32.174,67.36v2.386a8.89,8.89,0,0,0,8.865,8.894h2.316a8.9,8.9,0,0,0,8.892-8.894V67.36H45.177a5.145,5.145,0,0,1-3.827-2.094,4.408,4.408,0,0,1-4.058,2.094Z" transform="translate(-29.554 -61.968)" fill="#231f20"/>
            <circle id="Elipse_11581" data-name="Elipse 11581" cx="1.012" cy="1.012" r="1.012" transform="translate(6.731 6.57)" fill="#231f20"/>
            <circle id="Elipse_11582" data-name="Elipse 11582" cx="1.012" cy="1.012" r="1.012" transform="translate(16.089 6.57)" fill="#231f20"/>
            <path id="Trazado_1248596" data-name="Trazado 1248596" d="M43.3,81.128H40.855a10.6,10.6,0,0,1-2.218-.235,10.308,10.308,0,0,1-2.962-.993,11.388,11.388,0,0,1-5.241-5.6,8.629,8.629,0,0,1-.556-1.853,8.936,8.936,0,0,1-.378-2.625V66.081a1.256,1.256,0,0,1,1.258-1.256h6.48a2.014,2.014,0,0,0,2.213-1.551,1.689,1.689,0,0,1,1.271-1.291c.964-.165,1.567.533,2.148,1.228.6.719,1.347,1.614,2.253,1.614h8.25a1.256,1.256,0,0,1,1.258,1.256v3.747a13.841,13.841,0,0,1-.31,2.691c-.123.442-.238.765-.352,1.08l-.2.589a11.74,11.74,0,0,1-5.508,5.8,10.927,10.927,0,0,1-3.117.975A9.677,9.677,0,0,1,43.3,81.128ZM32.016,67.337v2.491a7.245,7.245,0,0,0,.311,2.084,6.08,6.08,0,0,0,.361,1.238,9.031,9.031,0,0,0,4.141,4.516,8.033,8.033,0,0,0,2.284.761,8.414,8.414,0,0,0,1.743.19H43.3a7.184,7.184,0,0,0,1.4-.133,8.522,8.522,0,0,0,2.45-.754,9.18,9.18,0,0,0,4.27-4.438l.182-.544c.094-.263.193-.533.275-.821a11.568,11.568,0,0,0,.237-2.1V67.337H45.124A5.145,5.145,0,0,1,41.3,65.243a4.408,4.408,0,0,1-4.058,2.094H32.016Z" transform="translate(-29.5 -61.958)" fill="#231f20"/>
            <path id="Trazado_1248597" data-name="Trazado 1248597" d="M46.775,79.636a2.984,2.984,0,0,1-2.981-2.979H46.31c0,.513.933.513.933,0h2.516A2.984,2.984,0,0,1,46.775,79.636Z" transform="translate(-34.353 -66.949)" fill="#231f20"/>
          </g>
          <path id="Trazado_1248598" data-name="Trazado 1248598" d="M29.67,74.459H28.354a3.037,3.037,0,1,1,0-6.074h1.012v3.6A9.935,9.935,0,0,0,29.67,74.459Z" transform="translate(-11.238 -26.52)" fill="#ffcbbe"/>
          <path id="Trazado_1248599" data-name="Trazado 1248599" d="M29.024,75.069H27.708a4.293,4.293,0,1,1,0-8.585h1.012a1.256,1.256,0,0,1,1.258,1.256v3.6a8.683,8.683,0,0,0,.264,2.158,1.255,1.255,0,0,1-1.219,1.568Zm-1.561-6.056a1.78,1.78,0,0,0,.063,3.533,11.686,11.686,0,0,1-.062-1.2v-2.33Z" transform="translate(-10.592 -25.874)" fill="#231f20"/>
          <path id="Trazado_1248600" data-name="Trazado 1248600" d="M69.218,71.42a3.033,3.033,0,0,1-3.037,3.037H65.169a9.967,9.967,0,0,0,.3-2.47v-3.6h.709A3.033,3.033,0,0,1,69.218,71.42Z" transform="translate(-24.77 -26.519)" fill="#ffcbbe"/>
          <path id="Trazado_1248601" data-name="Trazado 1248601" d="M65.535,75.069H64.523A1.255,1.255,0,0,1,63.3,73.5a8.687,8.687,0,0,0,.264-2.158v-3.6a1.256,1.256,0,0,1,1.258-1.256h.709a4.293,4.293,0,1,1,0,8.586Zm.549-5.986v2.259c0,.386-.019.768-.056,1.144a1.78,1.78,0,0,0,.056-3.4Z" transform="translate(-24.124 -25.874)" fill="#231f20"/>
          <path id="Trazado_1248602" data-name="Trazado 1248602" d="M36.141,46.452c-.071.036-.107.036-.178.071a12.051,12.051,0,0,0-6.352,5.959A4.556,4.556,0,0,1,27.4,48.558a4.62,4.62,0,0,1,8.743-2.106Z" transform="translate(-11.945 -18.212)" fill="#af635d"/>
          <path id="Trazado_1248603" data-name="Trazado 1248603" d="M28.963,53.091a1.258,1.258,0,0,1-.641-.176,5.826,5.826,0,0,1-2.829-5,5.879,5.879,0,0,1,11.12-2.681,1.256,1.256,0,0,1-.519,1.677,2.75,2.75,0,0,1-.287.123A10.848,10.848,0,0,0,30.1,52.376a1.265,1.265,0,0,1-.768.663,1.3,1.3,0,0,1-.368.053Zm2.391-8.564a3.378,3.378,0,0,0-2.724,5.329,13.454,13.454,0,0,1,4.916-4.537A3.344,3.344,0,0,0,31.354,44.527Z" transform="translate(-11.298 -17.566)" fill="#231f20"/>
          <path id="Trazado_1248604" data-name="Trazado 1248604" d="M54.873,58.594v2.284H44.952c-2.784,0-3.926-4.211-4.5-2.427a3.26,3.26,0,0,1-3.391,2.427h-8.1V58.594a12,12,0,0,1,1-4.818c.071-.143.107-.25.178-.393a12.053,12.053,0,0,1,6.352-5.959c.071-.036.107-.036.178-.071a11.789,11.789,0,0,1,4.354-.785h1.749a10.99,10.99,0,0,1,4.068.75.321.321,0,0,1,.178.036,12.022,12.022,0,0,1,6.567,5.854l.214.428A12.1,12.1,0,0,1,54.873,58.594Z" transform="translate(-12.477 -19.112)" fill="#c46f66"/>
          <path id="Trazado_1248605" data-name="Trazado 1248605" d="M54.227,61.49H44.305a5.2,5.2,0,0,1-3.85-2.109,4.437,4.437,0,0,1-4.037,2.109h-8.1a1.256,1.256,0,0,1-1.257-1.256V57.95a13.352,13.352,0,0,1,1.106-5.326l1.329.112-1.136-.54A13.206,13.206,0,0,1,40.38,44.667h1.748a12.382,12.382,0,0,1,4.424.793,1.561,1.561,0,0,1,.375.116,13.164,13.164,0,0,1,7.131,6.406l.152.3a13.519,13.519,0,0,1,1.275,5.666v2.284a1.257,1.257,0,0,1-1.258,1.256ZM40.189,56.1c.791,0,1.328.639,1.849,1.256.6.719,1.358,1.617,2.267,1.617h8.664V57.949a10.845,10.845,0,0,0-.958-4.442l-.184-.369a10.958,10.958,0,0,0-9.7-5.961H40.38a10.561,10.561,0,0,0-3.893.7,10.935,10.935,0,0,0-5.856,5.4l-.162.358a10.813,10.813,0,0,0-.894,4.315v1.028h6.844a2,2,0,0,0,2.195-1.558,1.677,1.677,0,0,1,1.268-1.284,1.576,1.576,0,0,1,.308-.032Z" transform="translate(-11.83 -18.467)" fill="#231f20"/>
          <path id="Trazado_1248606" data-name="Trazado 1248606" d="M64.743,48.558a4.549,4.549,0,0,1-1.963,3.747,12.025,12.025,0,0,0-6.567-5.854.322.322,0,0,0-.178-.036,4.61,4.61,0,0,1,8.708,2.142Z" transform="translate(-21.668 -18.212)" fill="#af635d"/>
          <path id="Trazado_1248607" data-name="Trazado 1248607" d="M62.1,52.917a1.247,1.247,0,0,1-1.116-.677,10.789,10.789,0,0,0-5.875-5.253,1.045,1.045,0,0,1-.951-.583,1.223,1.223,0,0,1,.077-1.207,5.869,5.869,0,1,1,8.585,7.494A1.263,1.263,0,0,1,62.1,52.917Zm-4.708-7.684a13.18,13.18,0,0,1,4.945,4.379,3.265,3.265,0,0,0,.467-1.7,3.355,3.355,0,0,0-5.412-2.681Z" transform="translate(-20.987 -17.566)" fill="#231f20"/>
          <path id="Trazado_1248608" data-name="Trazado 1248608" d="M18.8,20.157l3.93-3.979a2.183,2.183,0,0,1,.562-.416c1.551-.8,8.441-4.375,8.853-4.858a2.515,2.515,0,0,0,.017-3.226c-.886-1.07-2.273-.9-3.539-.335-3.759,1.68-14.469,5.291-14.535,5.323-.1.08-1.156,6.1-1.906,7.735a4.524,4.524,0,0,1-.567.924L5.9,26.1l5.056,5.779,10.278-4.24,4.014-7.22a2.38,2.38,0,0,0,.586-1.785,2.5,2.5,0,0,0-.9-1.729,2.441,2.441,0,0,0-2.429-.446l-.067.016" transform="translate(-4.646 -5.642)" fill="#ffddcf"/>
          <path id="Trazado_1248609" data-name="Trazado 1248609" d="M10.313,32.487a1.26,1.26,0,0,1-.946-.428L4.311,26.281a1.257,1.257,0,0,1,.14-1.792l5.712-4.772a4.109,4.109,0,0,1,.23-.484,47.1,47.1,0,0,0,1.487-5.992c.382-1.849.388-1.884.767-2.193a4.1,4.1,0,0,1,.93-.4C22.4,7.62,26,6.206,27.465,5.554c2.061-.937,3.893-.681,5.02.681a3.764,3.764,0,0,1-.027,4.842c-.184.214-.545.635-7.379,4.2l.036.032a3.761,3.761,0,0,1,1.331,2.6,3.621,3.621,0,0,1-.88,2.687l-3.874,7.017a1.259,1.259,0,0,1-.62.551L10.793,32.394a1.244,1.244,0,0,1-.479.093Zm-3.266-6.9,3.619,4.136L19.706,26l3.8-6.834a1.44,1.44,0,0,0,.433-1.067,1.264,1.264,0,0,0-.45-.874,1.168,1.168,0,0,0-.972-.284L19.048,20.4l-1.789-1.768,3.93-3.979A3.364,3.364,0,0,1,22.072,14c4.489-2.316,8.093-4.273,8.568-4.652a1.25,1.25,0,0,0-.093-1.508c-.365-.449-1.056-.439-2.055.011-2.189.975-6.9,2.705-13.99,5.14-.045.211-.1.47-.157.762a41.883,41.883,0,0,1-1.665,6.533,5.776,5.776,0,0,1-.725,1.182Z" transform="translate(-4 -4.996)" fill="#231f20"/>
          <path id="Trazado_1248610" data-name="Trazado 1248610" d="M63.4,20.157l-3.93-3.979a2.183,2.183,0,0,0-.562-.416c-1.551-.8-8.441-4.375-8.853-4.858a2.515,2.515,0,0,1-.017-3.226c.886-1.07,2.273-.9,3.539-.335,3.759,1.68,14.469,5.291,14.535,5.323.1.08,1.156,6.1,1.906,7.735a4.524,4.524,0,0,0,.567.924L76.3,26.1l-5.056,5.779L60.966,27.637l-4.014-7.22a2.38,2.38,0,0,1-.586-1.785,2.5,2.5,0,0,1,.9-1.729,2.441,2.441,0,0,1,2.429-.446l.067.016" transform="translate(-19.437 -5.642)" fill="#ffddcf"/>
          <path id="Trazado_1248611" data-name="Trazado 1248611" d="M70.6,32.489a1.21,1.21,0,0,1-.479-.094L59.838,28.156a1.262,1.262,0,0,1-.62-.551L55.2,20.384a3.381,3.381,0,0,1-.74-2.505A3.76,3.76,0,0,1,55.8,15.3c-6.813-3.6-7.166-4.014-7.344-4.221a3.764,3.764,0,0,1-.03-4.845c1.123-1.361,2.956-1.607,5.023-.681,1.466.653,5.068,2.07,13.9,5.1.415.14.649.232.66.235.633.474.641.509,1.019,2.344a47.126,47.126,0,0,0,1.491,6.007,3.345,3.345,0,0,0,.407.663l5.535,4.589a1.257,1.257,0,0,1,.14,1.792L71.543,32.06a1.26,1.26,0,0,1-.946.429ZM61.2,26l9.041,3.73,3.615-4.133-4.724-3.947a5.5,5.5,0,0,1-.9-1.361,41.66,41.66,0,0,1-1.669-6.547c-.059-.288-.112-.54-.155-.751-7.092-2.431-11.8-4.161-13.988-5.14-1-.446-1.695-.456-2.059-.011a1.252,1.252,0,0,0,.008,1.61c.369.273,3.975,2.232,8.47,4.554a3.336,3.336,0,0,1,.887.656l3.924,3.972L61.86,20.4l-3.393-3.435a1.187,1.187,0,0,0-1.033.249,1.277,1.277,0,0,0-.462.863,1.144,1.144,0,0,0,.292.888Z" transform="translate(-18.79 -4.998)" fill="#231f20"/>
        </g>
      </g>
    </g>
  </g>
</svg>
