<svg xmlns="http://www.w3.org/2000/svg" xmlns:xlink="http://www.w3.org/1999/xlink" width="108" height="108" viewBox="0 0 108 108">
  <defs>
    <filter id="Trazado_904820" x="0" y="0" width="108" height="108" filterUnits="userSpaceOnUse">
      <feOffset dy="3" input="SourceAlpha"/>
      <feGaussianBlur stdDeviation="3" result="blur"/>
      <feFlood flood-opacity="0.161"/>
      <feComposite operator="in" in2="blur"/>
      <feComposite in="SourceGraphic"/>
    </filter>
  </defs>
  <g id="Grupo_1231989" data-name="Grupo 1231989" transform="translate(-200.522 -3911.218)">
    <g id="Grupo_1231339" data-name="Grupo 1231339" transform="translate(0 3577.283)">
      <g id="Grupo_1208347" data-name="Grupo 1208347" transform="translate(209.522 339.935)">
        <g id="Grupo_1207936" data-name="Grupo 1207936" transform="translate(0 0)">
          <g id="Grupo_1201662" data-name="Grupo 1201662">
            <g id="Grupo_1173585" data-name="Grupo 1173585">
              <g id="Grupo_1173428" data-name="Grupo 1173428">
                <g id="Grupo_1171958" data-name="Grupo 1171958">
                  <g id="Grupo_1167341" data-name="Grupo 1167341">
                    <g id="Grupo_1166792" data-name="Grupo 1166792">
                      <g transform="matrix(1, 0, 0, 1, -9, -6)" filter="url(#Trazado_904820)">
                        <g id="Trazado_904820-2" data-name="Trazado 904820" transform="translate(9 6)" fill="#edf3fc">
                          <path d="M 44.99999618530273 88.49999237060547 C 39.12687301635742 88.49999237060547 33.43022155761719 87.35006713867188 28.06829643249512 85.08216857910156 C 22.88852119445801 82.89130401611328 18.23629570007324 79.75457763671875 14.24084663391113 75.75914001464844 C 10.24540901184082 71.76369476318359 7.108683586120605 67.11146545410156 4.917821407318115 61.93169403076172 C 2.649921178817749 56.56976699829102 1.499996185302734 50.87311553955078 1.499996185302734 44.99999237060547 C 1.499996185302734 39.12686920166016 2.649921178817749 33.43021774291992 4.917821407318115 28.06829261779785 C 7.108683586120605 22.88851737976074 10.24540901184082 18.23630523681641 14.24084663391113 14.24085521697998 C 18.23629570007324 10.24540519714355 22.88852119445801 7.108692169189453 28.06829643249512 4.917829990386963 C 33.43022155761719 2.649929761886597 39.12687301635742 1.500004887580872 44.99999618530273 1.500004887580872 C 50.87311935424805 1.500004887580872 56.56977081298828 2.649929761886597 61.93169784545898 4.917829990386963 C 67.11147308349609 7.108692169189453 71.76369476318359 10.24540519714355 75.75914764404297 14.24085521697998 C 79.75458526611328 18.23630523681641 82.89131164550781 22.88851737976074 85.08216857910156 28.06829261779785 C 87.35007476806641 33.43021774291992 88.5 39.12686920166016 88.5 44.99999237060547 C 88.5 50.87311553955078 87.35007476806641 56.56976699829102 85.08216857910156 61.93169403076172 C 82.89131164550781 67.11146545410156 79.75458526611328 71.76369476318359 75.75914764404297 75.75914001464844 C 71.76369476318359 79.75457763671875 67.11147308349609 82.89130401611328 61.93169784545898 85.08216857910156 C 56.56977081298828 87.35006713867188 50.87311935424805 88.49999237060547 44.99999618530273 88.49999237060547 Z" stroke="none"/>
                          <path d="M 44.99999618530273 2.999992370605469 C 39.32870864868164 2.999992370605469 33.82865142822266 4.11004638671875 28.65262603759766 6.299331665039062 C 23.65165710449219 8.414566040039062 19.15968322753906 11.44333648681641 15.301513671875 15.30150604248047 C 11.44333648681641 19.15967559814453 8.414566040039062 23.65164947509766 6.299339294433594 28.65262222290039 C 4.110054016113281 33.82864761352539 2.999992370605469 39.32870483398438 2.999992370605469 44.99999237060547 C 2.999992370605469 50.67127990722656 4.110054016113281 56.17132186889648 6.299339294433594 61.34736633300781 C 8.414566040039062 66.34833526611328 11.44333648681641 70.84029388427734 15.301513671875 74.69846343994141 C 19.15968322753906 78.55663299560547 23.65165710449219 81.58540344238281 28.65262603759766 83.70063781738281 C 33.82865142822266 85.88992309570312 39.32870864868164 86.99997711181641 44.99999618530273 86.99997711181641 C 50.67128372192383 86.99997711181641 56.17134094238281 85.88992309570312 61.34736633300781 83.70063781738281 C 66.34834289550781 81.58540344238281 70.84030914306641 78.55663299560547 74.69847869873047 74.69846343994141 C 78.55665588378906 70.84029388427734 81.58542633056641 66.34833526611328 83.70065307617188 61.34736633300781 C 85.88993835449219 56.17132186889648 87 50.67127990722656 87 44.99999237060547 C 87 39.32870483398438 85.88993835449219 33.82864761352539 83.70065307617188 28.65262222290039 C 81.58542633056641 23.65164947509766 78.55665588378906 19.15967559814453 74.69847869873047 15.30150604248047 C 70.84030914306641 11.44333648681641 66.34834289550781 8.414566040039062 61.34736633300781 6.299331665039062 C 56.17134094238281 4.11004638671875 50.67128372192383 2.999992370605469 44.99999618530273 2.999992370605469 M 44.99999618530273 -7.62939453125e-06 C 69.85281372070312 -7.62939453125e-06 90 20.14717864990234 90 44.99999237060547 C 90 69.85279083251953 69.85281372070312 89.99997711181641 44.99999618530273 89.99997711181641 C 20.14717864990234 89.99997711181641 -7.62939453125e-06 69.85279083251953 -7.62939453125e-06 44.99999237060547 C -7.62939453125e-06 20.14717864990234 20.14717864990234 -7.62939453125e-06 44.99999618530273 -7.62939453125e-06 Z" stroke="none" fill="#5692e8"/>
                        </g>
                      </g>
                    </g>
                  </g>
                </g>
              </g>
            </g>
          </g>
        </g>
      </g>
    </g>
    <g id="pregunta_2_" data-name="pregunta (2)" transform="translate(223.89 3933.854)">
      <g id="Grupo_1231987" data-name="Grupo 1231987" transform="translate(4.554 0.861)">
        <g id="Grupo_1231983" data-name="Grupo 1231983" transform="translate(31.123 18.153)">
          <path id="Trazado_1232788" data-name="Trazado 1232788" d="M305.237,295.089H284.776a2.287,2.287,0,0,1,0-4.574h20.46a2.287,2.287,0,0,1,0,4.574Z" transform="translate(-282.489 -276.2)" fill="#eaac9d"/>
          <path id="Trazado_1232789" data-name="Trazado 1232789" d="M326.36,206.423a8.454,8.454,0,0,0-8.454,8.454v4.864a8.454,8.454,0,0,0,16.909,0v-4.864A8.454,8.454,0,0,0,326.36,206.423Z" transform="translate(-313.843 -201.755)" fill="#ffddce"/>
          <path id="Trazado_1232790" data-name="Trazado 1232790" d="M328.543,227.909a8.458,8.458,0,0,1-10.637-8.168v-4.864a8.458,8.458,0,0,1,10.637-8.168,8.454,8.454,0,0,0-6.271,8.168v4.864A8.454,8.454,0,0,0,328.543,227.909Z" transform="translate(-313.843 -201.754)" fill="#ffcbbe"/>
          <path id="Trazado_1232791" data-name="Trazado 1232791" d="M334.816,165.737h-10.28a2.385,2.385,0,0,0-2.385,2.384v1.934h-.03a2.122,2.122,0,0,0-4.214.354v10.878a2.822,2.822,0,0,0,2.822-2.823v-4.37h11.265v4.37a2.823,2.823,0,0,0,2.822,2.823V170.979a2.621,2.621,0,0,0,0-5.241Z" transform="translate(-313.844 -165.736)" fill="#524798"/>
          <path id="Trazado_1232792" data-name="Trazado 1232792" d="M322.123,189.728h.092v4.039h-1.483v4.37a2.822,2.822,0,0,1-2.822,2.822V190.083a2.122,2.122,0,0,1,4.214-.354Z" transform="translate(-313.845 -185.409)" fill="#453d81"/>
        </g>
        <g id="Grupo_1231984" data-name="Grupo 1231984" transform="translate(6.666 33.372)">
          <path id="Trazado_1232793" data-name="Trazado 1232793" d="M90.989,393.917H71.534a2.226,2.226,0,0,1,0-4.452H90.989a2.226,2.226,0,0,1,0,4.452Z" transform="translate(-69.308 -379.018)" fill="#eaac9d"/>
          <path id="Trazado_1232794" data-name="Trazado 1232794" d="M106.112,352.483a8.733,8.733,0,0,1-8.733-8.733v-2.22a8.733,8.733,0,1,1,17.466,0v2.22A8.733,8.733,0,0,1,106.112,352.483Z" transform="translate(-94.159 -328.851)" fill="#ffddce"/>
          <path id="Trazado_1232795" data-name="Trazado 1232795" d="M108.349,352.2a8.738,8.738,0,0,1-10.971-8.444v-2.22a8.738,8.738,0,0,1,10.971-8.443,8.734,8.734,0,0,0-6.5,8.443v2.22A8.734,8.734,0,0,0,108.349,352.2Z" transform="translate(-94.158 -328.853)" fill="#ffcbbe"/>
          <path id="Trazado_1232796" data-name="Trazado 1232796" d="M124.985,304.237h2.995a1.963,1.963,0,1,0,0-3.925h-.956v-.345a1.566,1.566,0,0,0-3.133,0,1.566,1.566,0,0,0-1.642-1.564,1.6,1.6,0,0,0-1.491,1.609,4.226,4.226,0,0,0,4.226,4.226Z" transform="translate(-114.856 -298.401)" fill="#aa8080"/>
          <path id="Trazado_1232797" data-name="Trazado 1232797" d="M127.233,304.239h-2.246a4.226,4.226,0,0,1-4.226-4.226,1.6,1.6,0,0,1,1.491-1.608,1.558,1.558,0,0,1,1.206.481,1.637,1.637,0,0,0-.451,1.128,4.226,4.226,0,0,0,4.226,4.226Z" transform="translate(-114.857 -298.402)" fill="#9d6b6b"/>
        </g>
        <g id="Grupo_1231986" data-name="Grupo 1231986" transform="translate(0)">
          <path id="Trazado_1232798" data-name="Trazado 1232798" d="M41.473,25.442A10.624,10.624,0,0,0,30.849,36.066V48.828H52.1V36.066A10.624,10.624,0,0,0,41.473,25.442Z" transform="translate(-28.595 -23.384)" fill="#f9ef63"/>
          <path id="Trazado_1232799" data-name="Trazado 1232799" d="M44.4,25.85a10.629,10.629,0,0,0-7.693,10.215V48.826h-5.86V36.065A10.631,10.631,0,0,1,44.4,25.85Z" transform="translate(-28.595 -23.383)" fill="#ffd064"/>
          <path id="Trazado_1232800" data-name="Trazado 1232800" d="M37.1,152.108H16.635a2.287,2.287,0,0,1,0-4.575H37.1a2.287,2.287,0,0,1,0,4.575Z" transform="translate(-13.987 -131.469)" fill="#eaac9d"/>
          <path id="Trazado_1232801" data-name="Trazado 1232801" d="M49.765,99.732h4.188a4.486,4.486,0,0,0,4.267-3.1,4.485,4.485,0,0,0,4.267,3.1h4.187v6.413a8.454,8.454,0,1,1-16.909,0Z" transform="translate(-45.341 -86.409)" fill="#ffddce"/>
          <path id="Trazado_1232802" data-name="Trazado 1232802" d="M60.325,138.232a8.456,8.456,0,0,1-10.56-8.189V123.63h4.213v6.413a8.459,8.459,0,0,0,6.348,8.189Z" transform="translate(-45.341 -110.308)" fill="#ffcbbe"/>
          <g id="Grupo_1231985" data-name="Grupo 1231985">
            <path id="Trazado_1232803" data-name="Trazado 1232803" d="M14.644,53.644,12.118,54.69a1.487,1.487,0,1,0,1.138,2.747A1.487,1.487,0,1,0,16,58.576L17.05,56.05Z" transform="translate(-11.2 -48.351)" fill="#e490d0"/>
            <path id="Trazado_1232804" data-name="Trazado 1232804" d="M57.337,10.951l1.046-2.526a1.487,1.487,0,0,1,2.747,1.138,1.487,1.487,0,1,1,1.138,2.747l-2.526,1.046Z" transform="translate(-52.044 -7.507)" fill="#e490d0"/>
            <path id="Trazado_1232805" data-name="Trazado 1232805" d="M43.749,40.056a1.307,1.307,0,0,1-1.849,0l-2.04-2.04a1.307,1.307,0,1,1,1.849-1.849l2.04,2.04A1.307,1.307,0,0,1,43.749,40.056Z" transform="translate(-36.233 -32.54)" fill="#df73c1"/>
          </g>
        </g>
      </g>
      <g id="Grupo_1231988" data-name="Grupo 1231988" transform="translate(3.693 0)">
        <path id="Trazado_1232806" data-name="Trazado 1232806" d="M298.6,172.549h-.916v-7.473a3.5,3.5,0,0,0,2.571-3.359,3.481,3.481,0,0,0-3.363-3.48l-.069,0h-.05a.86.86,0,1,0,0,1.721h.034a1.76,1.76,0,0,1,1.727,1.761,1.77,1.77,0,0,1-1.727,1.76h-4.217a.86.86,0,0,0,0,1.721h3.373v7.016s0,0,0,0v1.369a1.965,1.965,0,0,1-1.1-1.764v-4.37a.86.86,0,0,0-.86-.86H282.734a.86.86,0,0,0-.86.86v4.37a1.973,1.973,0,0,1-1.1,1.765v-1.371h0v-8.449a1.262,1.262,0,0,1,2.506-.212.86.86,0,0,0,.848.718h.029a.86.86,0,0,0,.86-.86v-1.934a1.526,1.526,0,0,1,1.525-1.524h6.788a.86.86,0,1,0,0-1.721H286.54a3.25,3.25,0,0,0-3.22,2.839,2.988,2.988,0,0,0-1.286-.289,2.983,2.983,0,0,0-2.983,2.983v8.782h-.915a3.148,3.148,0,0,0,0,6.3h1.085a9.313,9.313,0,0,0,18.29,0H298.6a3.148,3.148,0,0,0,0-6.3Zm-20.461,4.575a1.427,1.427,0,0,1,0-2.854h.915v2.811c0,.015,0,.029,0,.043Zm10.23,7.55a7.6,7.6,0,0,1-7.594-7.594V175.4a3.688,3.688,0,0,0,2.822-3.583v-3.509h9.544v3.509a3.689,3.689,0,0,0,2.822,3.581v1.678A7.6,7.6,0,0,1,288.366,184.674Zm11.238-7.968a1.413,1.413,0,0,1-1.007.417h-.917c0-.015,0-.029,0-.043V174.27h.916a1.427,1.427,0,0,1,1.007,2.437Z" transform="translate(-243.864 -140.081)"/>
        <path id="Trazado_1232807" data-name="Trazado 1232807" d="M363.311,332.68a3.57,3.57,0,0,1-5.048,0,.86.86,0,0,0-1.217,1.217,5.291,5.291,0,0,0,7.482,0,.86.86,0,1,0-1.217-1.217Z" transform="translate(-316.284 -294.29)"/>
        <path id="Trazado_1232808" data-name="Trazado 1232808" d="M361.17,283.826a.86.86,0,0,0,.86-.86v-1.7a.86.86,0,1,0-1.721,0v1.7A.86.86,0,0,0,361.17,283.826Z" transform="translate(-319.398 -248.236)"/>
        <path id="Trazado_1232809" data-name="Trazado 1232809" d="M408.747,283.826a.86.86,0,0,0,.86-.86v-1.7a.86.86,0,1,0-1.721,0v1.7A.86.86,0,0,0,408.747,283.826Z" transform="translate(-361.516 -248.236)"/>
        <path id="Trazado_1232810" data-name="Trazado 1232810" d="M84.351,301.349h-.643a9.56,9.56,0,0,0-2.3-3.691,9.687,9.687,0,0,0-2.793-1.942c0-.027,0-.053,0-.08a2.826,2.826,0,0,0-2.823-2.823h-.15a2.426,2.426,0,0,0-3.937-1.337,2.408,2.408,0,0,0-1.683-.571,2.446,2.446,0,0,0-2.311,2.468,5.063,5.063,0,0,0,1.245,3.328,9.62,9.62,0,0,0-3.414,4.648H64.9a3.086,3.086,0,0,0,0,6.172h.172a9.543,9.543,0,0,0,.539,2.425.86.86,0,0,0,1.617-.589,7.853,7.853,0,0,1-.474-2.7v-2.22a7.888,7.888,0,0,1,3.6-6.613,5.054,5.054,0,0,0,2.448.63h3a2.82,2.82,0,0,0,2.243-1.111,7.95,7.95,0,0,1,2.155,1.527,7.825,7.825,0,0,1,2.305,5.567v2.22a7.872,7.872,0,0,1-13.69,5.3.86.86,0,1,0-1.271,1.16,9.591,9.591,0,0,0,16.642-5.6h.174a3.086,3.086,0,1,0,0-6.172Zm-20.82,3.086A1.364,1.364,0,0,1,64.9,303.07h.233a9.568,9.568,0,0,0-.1,1.372V305.8H64.9A1.367,1.367,0,0,1,63.531,304.435Zm12.263-7.7H72.8a3.369,3.369,0,0,1-3.365-3.365.737.737,0,0,1,.671-.749h.035a.706.706,0,0,1,.706.706.86.86,0,0,0,1.721,0,.706.706,0,1,1,1.412,0v.345a.86.86,0,0,0,.86.86h.956a1.1,1.1,0,0,1,0,2.2Zm9.523,8.663a1.356,1.356,0,0,1-.966.4h-.134v-1.359a9.733,9.733,0,0,0-.1-1.372h.232a1.366,1.366,0,0,1,.966,2.331Z" transform="translate(-55.143 -257.529)"/>
        <path id="Trazado_1232811" data-name="Trazado 1232811" d="M138.948,422.92a5.3,5.3,0,0,0,7.482,0,.86.86,0,1,0-1.217-1.217,3.574,3.574,0,0,1-5.049,0,.86.86,0,1,0-1.217,1.217Z" transform="translate(-123.207 -373.101)"/>
        <path id="Trazado_1232812" data-name="Trazado 1232812" d="M143.933,381.989v-1.7a.86.86,0,1,0-1.721,0v1.7a.86.86,0,1,0,1.721,0Z" transform="translate(-126.321 -335.899)"/>
        <path id="Trazado_1232813" data-name="Trazado 1232813" d="M191.511,381.989v-1.7a.86.86,0,1,0-1.721,0v1.7a.86.86,0,1,0,1.721,0Z" transform="translate(-168.44 -335.899)"/>
        <path id="Trazado_1232814" data-name="Trazado 1232814" d="M95.169,189.7a3.574,3.574,0,0,1-5.048,0,.86.86,0,1,0-1.217,1.217,5.3,5.3,0,0,0,7.482,0,.86.86,0,1,0-1.217-1.217Z" transform="translate(-78.905 -167.712)"/>
        <path id="Trazado_1232815" data-name="Trazado 1232815" d="M93.028,140.843a.86.86,0,0,0,.86-.86v-1.7a.86.86,0,0,0-1.721,0v1.7A.86.86,0,0,0,93.028,140.843Z" transform="translate(-82.018 -121.656)"/>
        <path id="Trazado_1232816" data-name="Trazado 1232816" d="M140.606,140.843a.86.86,0,0,0,.86-.86v-1.7a.86.86,0,1,0-1.721,0v1.7A.86.86,0,0,0,140.606,140.843Z" transform="translate(-124.137 -121.656)"/>
        <path id="Trazado_1232817" data-name="Trazado 1232817" d="M5.143,10.743a2.36,2.36,0,0,0,.523.149,2.338,2.338,0,0,0,.4.982,11.524,11.524,0,0,0-.123,1.67v2.782a3.148,3.148,0,0,0,0,5.773v4.207a.86.86,0,0,0,.86.86h4.028a9.3,9.3,0,0,0,13.194,0h4.027a.86.86,0,0,0,.86-.86V22.1a3.147,3.147,0,0,0,0-5.774V13.543a11.49,11.49,0,0,0-13.559-11.3,2.365,2.365,0,0,0-.773-.272,2.361,2.361,0,0,0-.15-.525,2.347,2.347,0,0,0-4.337,0L9.349,3.26a2.2,2.2,0,0,0-.244-.015A2.164,2.164,0,0,0,6.954,5.656l-1.811.75a2.347,2.347,0,0,0,0,4.337ZM6.195,18.2A1.412,1.412,0,0,1,7.2,17.786h.916V20.6c0,.014,0,.029,0,.043H7.2A1.426,1.426,0,0,1,6.195,18.2Zm1.473,7.241V22.36h.619a9.255,9.255,0,0,0,1.195,3.085Zm9.764,2.745A7.6,7.6,0,0,1,9.839,20.6V15.044h3.328a5.333,5.333,0,0,0,4.267-2.119A5.333,5.333,0,0,0,21.7,15.044h3.327V20.6A7.6,7.6,0,0,1,17.433,28.19Zm7.95-2.745a9.253,9.253,0,0,0,1.195-3.085H27.2v3.085Zm3.289-5.223a1.418,1.418,0,0,1-1.009.418h-.917c0-.014,0-.029,0-.043v-2.81h.916a1.426,1.426,0,0,1,1.009,2.435ZM27.2,13.543v2.522h-.449V14.184a.86.86,0,0,0-.86-.86H21.7a3.612,3.612,0,0,1-3.406-2.389V8.425a.86.86,0,0,0-1.721,0v2.509a3.612,3.612,0,0,1-3.406,2.389H8.978a.86.86,0,0,0-.86.86v1.882h-.45V13.544c0-.234.011-.466.027-.7a2.317,2.317,0,0,0,.289.02,2.353,2.353,0,0,0,2.169-1.45L10.9,9.606a2.2,2.2,0,0,0,.244.015,2.153,2.153,0,0,0,1.533-.635h0A2.164,2.164,0,0,0,13.3,7.21l1.811-.75a2.347,2.347,0,0,0,1.4-2.637c.306-.029.613-.044.922-.044A9.775,9.775,0,0,1,27.2,13.543ZM11.688,2.109a.626.626,0,1,1,1.158.479A.86.86,0,0,0,13.97,3.713.626.626,0,1,1,14.45,4.87L12.455,5.7,10.862,4.1ZM8.789,5.1a.447.447,0,0,1,.632,0l2.041,2.041a.447.447,0,0,1,0,.631.457.457,0,0,1-.632,0L8.789,5.728a.447.447,0,0,1,0-.631ZM5.463,8.335A.622.622,0,0,1,5.8,8L7.8,7.169,9.389,8.762l-.826,1.995a.626.626,0,0,1-1.158-.479A.86.86,0,0,0,6.281,9.153a.626.626,0,0,1-.818-.819Z" transform="translate(-3.693 0)"/>
        <path id="Trazado_1232818" data-name="Trazado 1232818" d="M357.862,22.764a.86.86,0,0,0,.86-.86,2.841,2.841,0,0,1,.027-.391,2.8,2.8,0,1,1,4.8,2.317,2.772,2.772,0,0,1-2.029.872.86.86,0,0,0-.86.86v1.833a.86.86,0,1,0,1.721,0V26.341a4.525,4.525,0,0,0,3.652-4.677A4.518,4.518,0,0,0,357,21.9a.86.86,0,0,0,.86.86Z" transform="translate(-316.469 -15.39)"/>
        <path id="Trazado_1232819" data-name="Trazado 1232819" d="M389.746,119.367a.86.86,0,0,0-.86.86v.057a.86.86,0,0,0,1.721,0v-.057A.86.86,0,0,0,389.746,119.367Z" transform="translate(-344.695 -105.673)"/>
        <path id="Trazado_1232820" data-name="Trazado 1232820" d="M11.516,279.276a4.483,4.483,0,0,0,1.236-3.35,4.518,4.518,0,0,0-9.03.239.86.86,0,1,0,1.721,0,2.842,2.842,0,0,1,.027-.391,2.8,2.8,0,1,1,2.77,3.189.86.86,0,0,0-.86.86v1.833a.86.86,0,0,0,1.721,0V280.6a4.475,4.475,0,0,0,2.416-1.327Z" transform="translate(-3.718 -240.483)"/>
        <path id="Trazado_1232821" data-name="Trazado 1232821" d="M36.464,373.63a.86.86,0,0,0-.86.86v.057a.86.86,0,1,0,1.721,0v-.057A.86.86,0,0,0,36.464,373.63Z" transform="translate(-31.943 -330.766)"/>
        <path id="Trazado_1232822" data-name="Trazado 1232822" d="M314.4,411.272a3.919,3.919,0,0,0-3.96,3.371,3.964,3.964,0,0,0-.038.545.86.86,0,1,0,1.721,0,2.227,2.227,0,0,1,.021-.307,2.2,2.2,0,1,1,2.175,2.5.86.86,0,0,0-.86.86v1.532a.86.86,0,0,0,1.721,0v-.768a3.937,3.937,0,0,0,1.98-1.124,3.885,3.885,0,0,0,1.071-2.9,3.928,3.928,0,0,0-3.831-3.709Z" transform="translate(-275.218 -364.089)"/>
        <path id="Trazado_1232823" data-name="Trazado 1232823" d="M337.906,496.481a.86.86,0,0,0-.86.86v.048a.86.86,0,1,0,1.721,0v-.048A.86.86,0,0,0,337.906,496.481Z" transform="translate(-298.803 -439.523)"/>
        <path id="Trazado_1232824" data-name="Trazado 1232824" d="M274.293,74.715a.86.86,0,0,0,.86-.86,1.577,1.577,0,0,1,.015-.218,1.555,1.555,0,1,1,1.54,1.773.86.86,0,0,0-.86.86v1.211a.86.86,0,1,0,1.721,0v-.466a3.29,3.29,0,0,0,1.515-.9,3.25,3.25,0,0,0,.9-2.428,3.276,3.276,0,0,0-6.548.173A.86.86,0,0,0,274.293,74.715Z" transform="translate(-242.487 -62.482)"/>
        <path id="Trazado_1232825" data-name="Trazado 1232825" d="M295.348,143.43a.86.86,0,0,0-.86.86v.038a.86.86,0,1,0,1.721,0v-.038A.86.86,0,0,0,295.348,143.43Z" transform="translate(-261.127 -126.975)"/>
      </g>
    </g>
  </g>
</svg>
