<svg xmlns="http://www.w3.org/2000/svg" xmlns:xlink="http://www.w3.org/1999/xlink" width="98" height="98" viewBox="0 0 98 98">
  <defs>
    <filter id="Trazado_982547" x="0" y="0" width="98" height="98" filterUnits="userSpaceOnUse">
      <feOffset dy="3" input="SourceAlpha"/>
      <feGaussianBlur stdDeviation="3" result="blur"/>
      <feFlood flood-opacity="0.161"/>
      <feComposite operator="in" in2="blur"/>
      <feComposite in="SourceGraphic"/>
    </filter>
    <clipPath id="clip-path">
      <path id="path8121" d="M0-682.665H48.414v48.414H0Z" transform="translate(0 682.665)"/>
    </clipPath>
  </defs>
  <g id="Grupo_1231995" data-name="Grupo 1231995" transform="translate(-195.151 -4827)">
    <g id="Grupo_1230081" data-name="Grupo 1230081" transform="translate(0 2535)">
      <g id="Grupo_1229590" data-name="Grupo 1229590" transform="translate(204.151 2298)">
        <g id="Grupo_1208936" data-name="Grupo 1208936" transform="translate(0)">
          <g id="Grupo_1208171" data-name="Grupo 1208171">
            <g id="Grupo_1207739" data-name="Grupo 1207739">
              <g id="Grupo_1207712" data-name="Grupo 1207712">
                <g id="Grupo_1207285" data-name="Grupo 1207285">
                  <g id="Grupo_1206883" data-name="Grupo 1206883">
                    <g id="Grupo_1204569" data-name="Grupo 1204569">
                      <g id="Grupo_1203962" data-name="Grupo 1203962">
                        <g id="Grupo_1203498" data-name="Grupo 1203498">
                          <g id="Grupo_1202589" data-name="Grupo 1202589">
                            <g id="Grupo_1172010" data-name="Grupo 1172010">
                              <g id="Grupo_1171046" data-name="Grupo 1171046">
                                <g id="Grupo_1148525" data-name="Grupo 1148525">
                                  <g transform="matrix(1, 0, 0, 1, -9, -6)" filter="url(#Trazado_982547)">
                                    <g id="Trazado_982547-2" data-name="Trazado 982547" transform="translate(9 6)" fill="#fdfbec">
                                      <path d="M 39.99999237060547 78.49998474121094 C 34.8018684387207 78.49998474121094 29.76002502441406 77.48226165771484 25.0145263671875 75.47508239746094 C 20.43014717102051 73.53604888916016 16.31264877319336 70.75984954833984 12.77639198303223 67.22359466552734 C 9.240137100219727 63.68733596801758 6.463936805725098 59.5698356628418 4.524903297424316 54.98546981811523 C 2.517725706100464 50.23995971679688 1.500003457069397 45.19811630249023 1.500003457069397 39.99999237060547 C 1.500003457069397 34.8018684387207 2.517725706100464 29.76002502441406 4.524903297424316 25.0145263671875 C 6.463936805725098 20.43014717102051 9.240137100219727 16.31264877319336 12.77639198303223 12.77639198303223 C 16.31264877319336 9.240137100219727 20.43014717102051 6.463936805725098 25.0145263671875 4.524903297424316 C 29.76002502441406 2.517725706100464 34.8018684387207 1.500003457069397 39.99999237060547 1.500003457069397 C 45.19811630249023 1.500003457069397 50.23995971679688 2.517725706100464 54.98546981811523 4.524903297424316 C 59.5698356628418 6.463936805725098 63.68733596801758 9.240137100219727 67.22359466552734 12.77639198303223 C 70.75984954833984 16.31264877319336 73.53604888916016 20.43014717102051 75.47508239746094 25.0145263671875 C 77.48226165771484 29.76002502441406 78.49998474121094 34.8018684387207 78.49998474121094 39.99999237060547 C 78.49998474121094 45.19812393188477 77.48226165771484 50.23995971679688 75.47508239746094 54.98546981811523 C 73.53604888916016 59.5698356628418 70.75984954833984 63.68733596801758 67.22359466552734 67.22359466552734 C 63.68733596801758 70.75984954833984 59.5698356628418 73.53604888916016 54.98546981811523 75.47508239746094 C 50.23995971679688 77.48226165771484 45.19812393188477 78.49998474121094 39.99999237060547 78.49998474121094 Z" stroke="none"/>
                                      <path d="M 39.99999237060547 2.999992370605469 C 35.00370025634766 2.999992370605469 30.1584587097168 3.97784423828125 25.59884643554688 5.906402587890625 C 21.19327163696289 7.769805908203125 17.23603057861328 10.43805694580078 13.83704376220703 13.83704376220703 C 10.43805694580078 17.23603057861328 7.769805908203125 21.19327163696289 5.906402587890625 25.59884643554688 C 3.97784423828125 30.1584587097168 2.999992370605469 35.00370025634766 2.999992370605469 39.99999237060547 C 2.999992370605469 44.99628448486328 3.97784423828125 49.84152603149414 5.906402587890625 54.40113830566406 C 7.769805908203125 58.80671310424805 10.43805694580078 62.76395416259766 13.83704376220703 66.16294097900391 C 17.23603057861328 69.56191253662109 21.19327163696289 72.23016357421875 25.59884643554688 74.09356689453125 C 30.1584587097168 76.02212524414062 35.00370025634766 76.99997711181641 39.99999237060547 76.99997711181641 C 44.99628448486328 76.99997711181641 49.84152603149414 76.02212524414062 54.40113830566406 74.09356689453125 C 58.80671310424805 72.23016357421875 62.76395416259766 69.56191253662109 66.16294097900391 66.16294097900391 C 69.56191253662109 62.76395416259766 72.23016357421875 58.80671310424805 74.09356689453125 54.40113830566406 C 76.02212524414062 49.84152603149414 76.99997711181641 44.99628448486328 76.99997711181641 39.99999237060547 C 76.99997711181641 35.00370025634766 76.02212524414062 30.1584587097168 74.09356689453125 25.59884643554688 C 72.23016357421875 21.19327163696289 69.56191253662109 17.23603057861328 66.16294097900391 13.83704376220703 C 62.76395416259766 10.43805694580078 58.80671310424805 7.769805908203125 54.40113830566406 5.906402587890625 C 49.84152603149414 3.97784423828125 44.99628448486328 2.999992370605469 39.99999237060547 2.999992370605469 M 39.99999237060547 -7.62939453125e-06 C 62.09137725830078 -7.62939453125e-06 79.99997711181641 17.90860748291016 79.99997711181641 39.99999237060547 C 79.99997711181641 62.09137725830078 62.09137725830078 79.99997711181641 39.99999237060547 79.99997711181641 C 17.90860748291016 79.99997711181641 -7.62939453125e-06 62.09137725830078 -7.62939453125e-06 39.99999237060547 C -7.62939453125e-06 17.90860748291016 17.90860748291016 -7.62939453125e-06 39.99999237060547 -7.62939453125e-06 Z" stroke="none" fill="#83793c"/>
                                    </g>
                                  </g>
                                </g>
                              </g>
                            </g>
                          </g>
                        </g>
                      </g>
                    </g>
                  </g>
                </g>
                <g id="g8115" transform="translate(15.793 15.793)">
                  <g id="g8117">
                    <g id="g8119" clip-path="url(#clip-path)">
                      <g id="g8125" transform="translate(-33.259 0.709)">
                        <path id="path8127" d="M-338.457-377.826h-25.835v-25.108c5.31-7.679,37.755-5.416,25.835,25.108" transform="translate(364.292 406.667)" fill="#fbdf63"/>
                      </g>
                      <g id="g8129" transform="translate(-33.259 0.709)">
                        <path id="path8131" d="M-338.457-377.826h-.619c6.164-24.728-15.887-30.6-25.216-24.374v-.734c5.31-7.679,37.755-5.416,25.835,25.108" transform="translate(364.292 406.667)" fill="#f9d11f"/>
                      </g>
                    </g>
                  </g>
                  <g id="g8265">
                    <g id="g8267" clip-path="url(#clip-path)">
                      <g id="g8273" transform="translate(-33.259 51.036)">
                        <path id="path8275" d="M-338.457-377.654h-25.835v-25.1c5.31-7.676,37.755-5.413,25.835,25.1" transform="translate(364.292 406.481)" fill="#003343"/>
                      </g>
                      <g id="g8277" transform="translate(-33.259 51.036)">
                        <path id="path8279" d="M-338.457-377.654h-.619c6.164-24.717-15.887-30.585-25.216-24.362v-.734c5.31-7.676,37.755-5.413,25.835,25.1" transform="translate(364.292 406.481)" fill="#002439"/>
                      </g>
                    </g>
                  </g>
                  <g id="g8281">
                    <g id="g8283" clip-path="url(#clip-path)">
                      <g id="g8289" transform="translate(17.066 51.014)">
                        <path id="path8291" d="M-338.457-377.826h-25.835v-25.108c5.31-7.679,37.755-5.416,25.835,25.108" transform="translate(364.292 406.667)" fill="#ff7e50"/>
                      </g>
                      <g id="g8293" transform="translate(17.066 51.014)">
                        <path id="path8295" d="M-338.457-377.826h-.619c6.164-24.728-15.887-30.6-25.216-24.374v-.734c5.31-7.679,37.755-5.416,25.835,25.108" transform="translate(364.292 406.667)" fill="#ff6247"/>
                      </g>
                      <g id="g8297" transform="translate(2.941 54.225)">
                        <path id="path8299" d="M-233.028-131.751v15.573h-14.6c-12.2-25.649,14.6-34.273,14.6-15.573" transform="translate(250.816 141.808)" fill="#ffa68a"/>
                      </g>
                      <g id="g8301" transform="translate(2.941 54.225)">
                        <path id="path8303" d="M-233.028-131.751c-.9-16.1-20.23-9.82-14.176,15.573h-.427c-12.2-25.649,14.6-34.273,14.6-15.573" transform="translate(250.816 141.808)" fill="#ff7e50"/>
                      </g>
                    </g>
                  </g>
                </g>
              </g>
            </g>
          </g>
        </g>
      </g>
    </g>
    <g id="studying_769647" transform="translate(217.487 4827.457)">
      <g id="Grupo_1232340" data-name="Grupo 1232340" transform="translate(29.552 50.045)">
        <path id="Trazado_1248522" data-name="Trazado 1248522" d="M296.457,311.116h-.867a1.49,1.49,0,0,1-.807-.238v3.363a1.006,1.006,0,0,0,1,1h1.292a5.894,5.894,0,0,1,1.223-1.292A5.717,5.717,0,0,1,296.457,311.116Z" transform="translate(-294.783 -310.878)" fill="#d48748"/>
        <path id="Trazado_1248523" data-name="Trazado 1248523" d="M403.931,311.116h-.867a5.717,5.717,0,0,1-1.843,2.836,5.9,5.9,0,0,1,1.223,1.292h1.292a1,1,0,0,0,1-1v-3.363A1.49,1.49,0,0,1,403.931,311.116Z" transform="translate(-390.551 -310.878)" fill="#d48748"/>
      </g>
      <path id="Trazado_1248524" data-name="Trazado 1248524" d="M28.224,449.189a.5.5,0,0,0-.016.119v2.821a.5.5,0,0,0,.5.5H73.378a.5.5,0,0,0,.5-.5v-2.821a.494.494,0,0,0-.016-.119Z" transform="translate(-25.38 -385.279)" fill="#fcdb80"/>
      <g id="Grupo_1232341" data-name="Grupo 1232341" transform="translate(2.828 63.91)" opacity="0.1">
        <path id="Trazado_1248525" data-name="Trazado 1248525" d="M31.337,452.129v-2.821a.494.494,0,0,1,.016-.119H28.224a.5.5,0,0,0-.016.119v2.821a.5.5,0,0,0,.5.5h3.129A.5.5,0,0,1,31.337,452.129Z" transform="translate(-28.208 -449.189)" fill="#37005e"/>
      </g>
      <circle id="Elipse_11577" data-name="Elipse 11577" cx="7.102" cy="7.102" r="7.102" transform="translate(36.372 21.735)" fill="#89c947"/>
      <circle id="Elipse_11578" data-name="Elipse 11578" cx="4.917" cy="4.917" r="4.917" transform="translate(38.557 23.92)" fill="#fff"/>
      <g id="Grupo_1232342" data-name="Grupo 1232342" transform="translate(38.557 23.92)" opacity="0.1">
        <path id="Trazado_1248526" data-name="Trazado 1248526" d="M386.654,55.2a4.918,4.918,0,0,1,3.895-4.81,4.917,4.917,0,1,0,0,9.619A4.918,4.918,0,0,1,386.654,55.2Z" transform="translate(-384.61 -50.281)" fill="#37005e"/>
      </g>
      <path id="Trazado_1248527" data-name="Trazado 1248527" d="M102.777,144.451a2.937,2.937,0,0,0-1.919.711,3.234,3.234,0,0,0-2.474-1.148H96.345a3.242,3.242,0,0,0-3.242,3.242v4.995c0-3.528,2.826-3.976,6.312-3.976s6.312.448,6.312,3.976V147.4A2.95,2.95,0,0,0,102.777,144.451Z" transform="translate(-83.77 -110.697)" fill="#a75436"/>
      <g id="Grupo_1232343" data-name="Grupo 1232343" transform="translate(9.333 33.317)" opacity="0.1">
        <path id="Trazado_1248528" data-name="Trazado 1248528" d="M95.2,148.831v-1.575a3.242,3.242,0,0,1,3.214-3.241H96.345a3.242,3.242,0,0,0-3.242,3.242v4.995A3.287,3.287,0,0,1,95.2,148.831Z" transform="translate(-93.103 -144.014)" fill="#37005e"/>
      </g>
      <path id="Trazado_1248529" data-name="Trazado 1248529" d="M96.268,313.378a6.253,6.253,0,0,1-8.006,0,6.554,6.554,0,0,0-2.383,3.756l-.578,1.591a2.13,2.13,0,0,0,.222,1.976,2.015,2.015,0,0,0,.2.243v1.023h4.9a3.987,3.987,0,0,1,2.841,1.19,3.988,3.988,0,0,1,2.841-1.19h2.5v-3.422A6.531,6.531,0,0,0,96.268,313.378Z" transform="translate(-76.62 -263.083)" fill="#30a1d0"/>
      <g id="Grupo_1232344" data-name="Grupo 1232344" transform="translate(6.926 42.584)">
        <path id="Trazado_1248530" data-name="Trazado 1248530" d="M71.493,239.228v-2.772h-.9a1.508,1.508,0,0,0-1.5,1.5v.868a1.508,1.508,0,0,0,1.5,1.5h1A6.511,6.511,0,0,1,71.493,239.228Z" transform="translate(-69.085 -236.456)" fill="#ffb98a"/>
        <path id="Trazado_1248531" data-name="Trazado 1248531" d="M219.07,236.456h-.9v2.772a6.489,6.489,0,0,1-.1,1.1h1a1.508,1.508,0,0,0,1.5-1.5v-.868A1.508,1.508,0,0,0,219.07,236.456Z" transform="translate(-203.134 -236.456)" fill="#ffb98a"/>
      </g>
      <path id="Trazado_1248532" data-name="Trazado 1248532" d="M105.726,194.3a6.35,6.35,0,0,1-6.312,6.388h0A6.35,6.35,0,0,1,93.1,194.3v-3.8c0-3.528,2.826-3.976,6.312-3.976h0c3.486,0,6.312.448,6.312,3.976Z" transform="translate(-83.769 -148.942)" fill="#ffd5b3"/>
      <g id="Grupo_1232345" data-name="Grupo 1232345" transform="translate(9.333 37.578)" opacity="0.1">
        <path id="Trazado_1248533" data-name="Trazado 1248533" d="M95.2,194.3v-3.8c0-3.167,2.277-3.851,5.264-3.959-.341-.012-.69-.017-1.048-.017-3.486,0-6.312.448-6.312,3.976v3.8a6.35,6.35,0,0,0,6.312,6.388,6.264,6.264,0,0,0,1.048-.089A6.367,6.367,0,0,1,95.2,194.3Z" transform="translate(-93.102 -186.52)" fill="#37005e"/>
      </g>
      <path id="Trazado_1248534" data-name="Trazado 1248534" d="M307.608,346.251a1.329,1.329,0,0,1,.371,1.161H310.7a3.418,3.418,0,0,1,2.435,1.02,3.418,3.418,0,0,1,2.435-1.02h3.409v-1.258a5.836,5.836,0,0,0-2.267-4.617,5.586,5.586,0,0,1-7.153,0,5.836,5.836,0,0,0-2.263,4.479A1.332,1.332,0,0,1,307.608,346.251Z" transform="translate(-276.485 -288.42)" fill="#ff6a76"/>
      <g id="Grupo_1232346" data-name="Grupo 1232346" transform="translate(30.806 53.118)" opacity="0.1">
        <path id="Trazado_1248535" data-name="Trazado 1248535" d="M307.609,346.251a1.329,1.329,0,0,1,.371,1.161h1.388v-1.258a5.814,5.814,0,0,1,1.437-3.831,5.626,5.626,0,0,1-1.249-.786,5.836,5.836,0,0,0-2.263,4.479A1.333,1.333,0,0,1,307.609,346.251Z" transform="translate(-307.292 -341.538)" fill="#37005e"/>
      </g>
      <g id="Grupo_1232347" data-name="Grupo 1232347" transform="translate(28.855 46.82)">
        <path id="Trazado_1248536" data-name="Trazado 1248536" d="M353.776,353.047a5.58,5.58,0,0,1-1.311-.157v.73a1.311,1.311,0,0,0,2.623,0v-.73A5.578,5.578,0,0,1,353.776,353.047Z" transform="translate(-345.985 -345.453)" fill="#ffb98a"/>
        <path id="Trazado_1248537" data-name="Trazado 1248537" d="M289.982,280.6V278.71h-.647a1.508,1.508,0,0,0-1.5,1.5v.455a1.508,1.508,0,0,0,1.5,1.5h.867A5.767,5.767,0,0,1,289.982,280.6Z" transform="translate(-287.831 -278.71)" fill="#ffb98a"/>
        <path id="Trazado_1248538" data-name="Trazado 1248538" d="M420.474,278.71h-.647V280.6a5.769,5.769,0,0,1-.22,1.577h.867a1.508,1.508,0,0,0,1.5-1.5v-.455A1.508,1.508,0,0,0,420.474,278.71Z" transform="translate(-406.397 -278.71)" fill="#ffb98a"/>
      </g>
      <path id="Trazado_1248539" data-name="Trazado 1248539" d="M318.741,257.787a.239.239,0,0,1-.205-.116l-.887-1.48a.159.159,0,0,0-.274,0l-.874,1.478a.239.239,0,0,1-.206.117h-7.006v2.477a5.64,5.64,0,1,0,11.279,0v-2.477Z" transform="translate(-278.283 -211.558)" fill="#ffd5b3"/>
      <g id="Grupo_1232348" data-name="Grupo 1232348" transform="translate(31.006 46.228)" opacity="0.1">
        <path id="Trazado_1248540" data-name="Trazado 1248540" d="M311.384,275.287V272.81h-2.095v2.477a5.674,5.674,0,0,0,5.639,5.708,5.6,5.6,0,0,0,1.048-.1A5.69,5.69,0,0,1,311.384,275.287Z" transform="translate(-309.289 -272.81)" fill="#37005e"/>
      </g>
      <path id="Trazado_1248541" data-name="Trazado 1248541" d="M305.689,196.265a.239.239,0,0,1-.205-.116l-.887-1.48a.159.159,0,0,0-.274,0l-.874,1.478a.239.239,0,0,1-.206.117h-8.221a.239.239,0,0,1-.239-.239V194.67a6.942,6.942,0,0,1,6.934-6.934h.319a6.942,6.942,0,0,1,6.934,6.934v1.355a.239.239,0,0,1-.239.239h-3.042Z" transform="translate(-265.231 -150.036)" fill="#d48748"/>
      <path id="Trazado_1248542" data-name="Trazado 1248542" d="M308.312,400.143H304.1a3.418,3.418,0,0,0-2.435,1.02,3.417,3.417,0,0,0-2.435-1.02h-2.717a1.324,1.324,0,0,1-.371.722l-.439.439a1.329,1.329,0,0,1-1.156.372v.762H308.78v-1.826A.468.468,0,0,0,308.312,400.143Z" transform="translate(-265.017 -341.15)" fill="#fff"/>
      <path id="Trazado_1248543" data-name="Trazado 1248543" d="M57.324,425.152a.5.5,0,0,1-.5.5H8a.5.5,0,0,1-.5-.5v-1.62a.5.5,0,0,1,.5-.5H56.822a.5.5,0,0,1,.5.5Z" transform="translate(-6.748 -361.743)" fill="#ffc12e"/>
      <g id="Grupo_1232349" data-name="Grupo 1232349" transform="translate(13.235 55.606)">
        <path id="Trazado_1248544" data-name="Trazado 1248544" d="M134.687,368.308a1.332,1.332,0,0,1-1.332,1.332h0a1.332,1.332,0,0,1-1.332-1.332v-.622a1.332,1.332,0,0,1,1.332-1.332h0a1.332,1.332,0,0,1,1.332,1.332Z" transform="translate(-132.023 -366.355)" fill="#ffd5b3"/>
        <path id="Trazado_1248545" data-name="Trazado 1248545" d="M285.668,387.378a1.332,1.332,0,0,1-1.884,0h0a1.332,1.332,0,0,1,0-1.883l.44-.439a1.332,1.332,0,0,1,1.883,0h0a1.332,1.332,0,0,1,0,1.884Z" transform="translate(-268.219 -382.829)" fill="#ffd5b3"/>
      </g>
      <path id="Trazado_1248546" data-name="Trazado 1248546" d="M101.764,401.457V399.6a.546.546,0,0,0-.546-.546H96.3a3.987,3.987,0,0,0-2.841,1.19,3.988,3.988,0,0,0-2.841-1.19H85.7a.546.546,0,0,0-.546.546v1.858Z" transform="translate(-76.619 -340.169)" fill="#fff"/>
      <g id="Grupo_1232350" data-name="Grupo 1232350" transform="translate(0.752 61.288)" opacity="0.1">
        <path id="Trazado_1248547" data-name="Trazado 1248547" d="M10.558,425.152v-1.62a.5.5,0,0,1,.5-.5H8a.5.5,0,0,0-.5.5v1.62a.5.5,0,0,0,.5.5h3.058A.5.5,0,0,1,10.558,425.152Z" transform="translate(-7.5 -423.031)" fill="#37005e"/>
      </g>
      <path id="Trazado_1248548" data-name="Trazado 1248548" d="M363.166,36.691a7.854,7.854,0,1,0-7.854-7.854A7.863,7.863,0,0,0,363.166,36.691Zm0-14.2a6.35,6.35,0,1,1-6.35,6.35A6.357,6.357,0,0,1,363.166,22.487Z" transform="translate(-319.692)"/>
      <path id="Trazado_1248549" data-name="Trazado 1248549" d="M382.779,54.118a5.641,5.641,0,0,0,3.169-.968.752.752,0,0,0-.842-1.246,4.155,4.155,0,1,1,1.591-2.038.752.752,0,1,0,1.414.511,5.669,5.669,0,1,0-5.332,3.741Z" transform="translate(-339.305 -19.613)"/>
      <path id="Trazado_1248550" data-name="Trazado 1248550" d="M415.532,70.053v1.913l-.923.795a.752.752,0,1,0,.982,1.139l.956-.823a1.487,1.487,0,0,0,.489-1.067V70.053a.752.752,0,0,0-1.5,0Z" transform="translate(-372.81 -43.474)"/>
      <path id="Trazado_1248551" data-name="Trazado 1248551" d="M145.491,254.27h.484a.752.752,0,0,0,0-1.5h-.086v-.718a.752.752,0,1,0-1.5,0v1.112A1.109,1.109,0,0,0,145.491,254.27Z" transform="translate(-129.911 -207.224)"/>
      <path id="Trazado_1248552" data-name="Trazado 1248552" d="M120.038,250.221a.752.752,0,0,0,.752-.752v-.836a.752.752,0,1,0-1.5,0v.836A.752.752,0,0,0,120.038,250.221Z" transform="translate(-107.328 -204.153)"/>
      <path id="Trazado_1248553" data-name="Trazado 1248553" d="M178.595,250.221a.752.752,0,0,0,.752-.752v-.836a.752.752,0,1,0-1.5,0v.836A.752.752,0,0,0,178.595,250.221Z" transform="translate(-160.014 -204.153)"/>
      <path id="Trazado_1248554" data-name="Trazado 1248554" d="M136.6,294.2h2.549a.752.752,0,1,0,0-1.5H136.6a.752.752,0,0,0,0,1.5Z" transform="translate(-122.232 -244.475)"/>
      <path id="Trazado_1248555" data-name="Trazado 1248555" d="M355.378,288.088h.432a.752.752,0,0,0,0-1.5v-.562a.752.752,0,1,0-1.5,0v.994A1.071,1.071,0,0,0,355.378,288.088Z" transform="translate(-318.791 -237.793)"/>
      <path id="Trazado_1248556" data-name="Trazado 1248556" d="M332.636,284.47a.752.752,0,0,0,.752-.752v-.747a.752.752,0,1,0-1.5,0v.747A.752.752,0,0,0,332.636,284.47Z" transform="translate(-298.613 -235.048)"/>
      <path id="Trazado_1248557" data-name="Trazado 1248557" d="M384.956,284.47a.752.752,0,0,0,.752-.752v-.747a.752.752,0,1,0-1.5,0v.747A.752.752,0,0,0,384.956,284.47Z" transform="translate(-345.688 -235.048)"/>
      <path id="Trazado_1248558" data-name="Trazado 1248558" d="M347.437,323.766h2.277a.752.752,0,0,0,0-1.5h-2.277a.752.752,0,1,0,0,1.5Z" transform="translate(-311.93 -271.076)"/>
      <path id="Trazado_1248559" data-name="Trazado 1248559" d="M50.074,164.484H44.515V163.41a1.221,1.221,0,0,0-1.22-1.22h-.054v-.506a6.553,6.553,0,0,0-.524-2.573h.019a1.756,1.756,0,0,0,1.754-1.754v-3a2.249,2.249,0,0,0,.7-1.628v-.455a2.249,2.249,0,0,0-.7-1.628v-.576c0-.027,0-.054,0-.081s0-.032,0-.049v-1.355A7.7,7.7,0,0,0,36.8,140.9h-.319a7.7,7.7,0,0,0-7.686,7.686v1.355c0,.017,0,.034,0,.051s0,.053,0,.079v.576a2.249,2.249,0,0,0-.7,1.628v.455a2.249,2.249,0,0,0,.7,1.628v3a1.756,1.756,0,0,0,1.754,1.754h.022a6.538,6.538,0,0,0-.442,1.53,2.069,2.069,0,0,0-1.426.608l-.439.44a2.084,2.084,0,0,0-.137,2.8H25.9v-1.106a1.3,1.3,0,0,0-1.3-1.3H22.938v-2.67a7.267,7.267,0,0,0-2.177-5.19,7.158,7.158,0,0,0,1.705-3.061h.4a2.258,2.258,0,0,0,2.256-2.256v-.868a2.258,2.258,0,0,0-2.256-2.256h-.152v-5.128a3.7,3.7,0,0,0-5.54-3.211,3.976,3.976,0,0,0-2.556-.928H12.576a4,4,0,0,0-3.994,3.994v5.273H8.43a2.258,2.258,0,0,0-2.256,2.256v.868a2.258,2.258,0,0,0,2.256,2.256h.4a7.158,7.158,0,0,0,1.706,3.062,7.3,7.3,0,0,0-1.941,3.346l-.615,1.766A2.871,2.871,0,0,0,8.288,162c.021.03.043.058.065.087v.221a1.3,1.3,0,0,0-.568,1.072v1.106H1.253A1.254,1.254,0,0,0,0,165.737v1.62a1.254,1.254,0,0,0,1.253,1.253h.823V170.8a1.254,1.254,0,0,0,1.253,1.253H40.7a.752.752,0,1,0,0-1.5H3.58V168.61h7.247a.752.752,0,1,0,0-1.5H1.5v-1.119h48.32v1.119H14.636a.752.752,0,1,0,0,1.5H47.748v1.938H44.31a.752.752,0,1,0,0,1.5H48a1.254,1.254,0,0,0,1.253-1.253V168.61h.823a1.254,1.254,0,0,0,1.253-1.253v-1.62A1.254,1.254,0,0,0,50.074,164.484Zm-7.063-.791v.791H37.186a2.683,2.683,0,0,1,1.895-.791Zm-3.931-1.5a4.2,4.2,0,0,0-2.435.786,4.2,4.2,0,0,0-2.435-.786H32.193a2.068,2.068,0,0,0-.539-.941c-.024-.024-.05-.045-.074-.067a5.076,5.076,0,0,1,1.526-3.151,6.344,6.344,0,0,0,1.475.736v.169a2.063,2.063,0,1,0,4.126,0v-.169a6.347,6.347,0,0,0,1.475-.736,5.072,5.072,0,0,1,1.553,3.654v.506Zm-9.474-9.463v-.455a.752.752,0,0,1,.647-.744v1.126a6.55,6.55,0,0,0,.054.823A.752.752,0,0,1,29.607,152.727Zm2.151-1.8h6.254a1,1,0,0,0,.853-.487l.367-.621.375.626a1,1,0,0,0,.851.482h1.075v1.725a4.888,4.888,0,1,1-9.775,0v-1.725Zm11.279,1.725v-1.126a.752.752,0,0,1,.647.744v.455a.752.752,0,0,1-.7.749A6.534,6.534,0,0,0,43.037,152.654Zm-5.854,6.435a.559.559,0,0,1-1.074,0c.177.015.356.025.537.025S37.005,159.1,37.183,159.089Zm5.8-1.733a.254.254,0,0,1-.251.251h-.913a6.671,6.671,0,0,0-.5-.562,6.482,6.482,0,0,0,1.278-2.062h.382v2.375ZM30.3,148.582a6.189,6.189,0,0,1,6.182-6.182H36.8a6.189,6.189,0,0,1,6.182,6.182v.842H40.748l-.737-1.23a.911.911,0,0,0-1.567,0l-.725,1.226H30.3v-.842Zm.251,9.024a.254.254,0,0,1-.251-.251v-2.375h.382a6.481,6.481,0,0,0,1.278,2.062,6.661,6.661,0,0,0-.5.561Zm-1.223,5.145.439-.439a.58.58,0,0,1,.82.82l-.439.439a.58.58,0,1,1-.82-.82Zm2.323,1.444a2.077,2.077,0,0,0,.37-.5H34.21a2.683,2.683,0,0,1,1.895.791H31.366Zm-7.262.289H17.444a3.257,3.257,0,0,1,2.237-.9h4.711Zm-9.826-4.178a.581.581,0,0,1,.58.58v.622a.58.58,0,1,1-1.16,0v-.622A.581.581,0,0,1,14.567,160.306Zm-5.278,3.278H14a3.257,3.257,0,0,1,2.238.9H9.289Zm13.572-16.3a.753.753,0,0,1,.752.752v.868a.753.753,0,0,1-.752.752H22.7c.006-.116.009-.233.009-.351v-2.02Zm-1.656-6.632v1.337a4.276,4.276,0,0,0-.769-.474,6.782,6.782,0,0,0-1.828-.549v-.458a3.969,3.969,0,0,0-.468-1.873,2.194,2.194,0,0,1,3.065,2.018Zm-8.63-2.635h2.038a2.493,2.493,0,0,1,2.49,2.49v.3c-.484-.026-.974-.034-1.459-.034a11.365,11.365,0,0,0-4.791.74,4.272,4.272,0,0,0-.769.474v-1.482A2.493,2.493,0,0,1,12.576,138.017ZM8.43,149.656a.753.753,0,0,1-.752-.752v-.868a.753.753,0,0,1,.752-.752h.152V149.3c0,.118,0,.235.009.351Zm1.656-4.154c0-2.41,1.4-3.224,5.56-3.224s5.56.814,5.56,3.224v3.8a5.561,5.561,0,1,1-11.12,0S10.085,145.5,10.085,145.5Zm-.7,14.345,1.033-2.92a5.828,5.828,0,0,1,1.254-1.721,6.985,6.985,0,0,0,7.941,0,5.768,5.768,0,0,1,1.819,4.2v2.67h-.782v-2.635a.752.752,0,0,0-1.5,0v2.667a4.786,4.786,0,0,0-2.308.916,4.768,4.768,0,0,0-.549-.352,2.072,2.072,0,0,0,.359-1.167v-.622A2.085,2.085,0,0,0,15.437,159l-.5-1.668a.752.752,0,0,0-1.44.432l.352,1.174c-.03.011-.062.021-.091.033H12.615l.278-.764a.752.752,0,1,0-1.413-.514l-.645,1.773a.752.752,0,0,0,.707,1.009h.984a2.084,2.084,0,0,0-.042.416v.622c0,.064,0,.128.01.19H10.684a1.327,1.327,0,0,1-1.3-1.85Z" transform="translate(0 -103.948)"/>
    </g>
  </g>
</svg>
