<svg xmlns="http://www.w3.org/2000/svg" xmlns:xlink="http://www.w3.org/1999/xlink" width="98" height="98" viewBox="0 0 98 98">
  <defs>
    <filter id="Trazado_982547" x="0" y="0" width="98" height="98" filterUnits="userSpaceOnUse">
      <feOffset dy="3" input="SourceAlpha"/>
      <feGaussianBlur stdDeviation="3" result="blur"/>
      <feFlood flood-opacity="0.161"/>
      <feComposite operator="in" in2="blur"/>
      <feComposite in="SourceGraphic"/>
    </filter>
    <clipPath id="clip-path">
      <path id="path8121" d="M0-682.665H48.414v48.414H0Z" transform="translate(0 682.665)"/>
    </clipPath>
  </defs>
  <g id="Grupo_1232339" data-name="Grupo 1232339" transform="translate(-195.151 -4827)">
    <g id="Grupo_1230081" data-name="Grupo 1230081" transform="translate(0 2535)">
      <g id="Grupo_1229590" data-name="Grupo 1229590" transform="translate(204.151 2298)">
        <g id="Grupo_1208936" data-name="Grupo 1208936" transform="translate(0)">
          <g id="Grupo_1208171" data-name="Grupo 1208171">
            <g id="Grupo_1207739" data-name="Grupo 1207739">
              <g id="Grupo_1207712" data-name="Grupo 1207712">
                <g id="Grupo_1207285" data-name="Grupo 1207285">
                  <g id="Grupo_1206883" data-name="Grupo 1206883">
                    <g id="Grupo_1204569" data-name="Grupo 1204569">
                      <g id="Grupo_1203962" data-name="Grupo 1203962">
                        <g id="Grupo_1203498" data-name="Grupo 1203498">
                          <g id="Grupo_1202589" data-name="Grupo 1202589">
                            <g id="Grupo_1172010" data-name="Grupo 1172010">
                              <g id="Grupo_1171046" data-name="Grupo 1171046">
                                <g id="Grupo_1148525" data-name="Grupo 1148525">
                                  <g transform="matrix(1, 0, 0, 1, -9, -6)" filter="url(#Trazado_982547)">
                                    <g id="Trazado_982547-2" data-name="Trazado 982547" transform="translate(9 6)" fill="#fdfbec">
                                      <path d="M 39.99999237060547 78.49998474121094 C 34.8018684387207 78.49998474121094 29.76002502441406 77.48226165771484 25.0145263671875 75.47508239746094 C 20.43014717102051 73.53604888916016 16.31264877319336 70.75984954833984 12.77639198303223 67.22359466552734 C 9.240137100219727 63.68733596801758 6.463936805725098 59.5698356628418 4.524903297424316 54.98546981811523 C 2.517725706100464 50.23995971679688 1.500003457069397 45.19811630249023 1.500003457069397 39.99999237060547 C 1.500003457069397 34.8018684387207 2.517725706100464 29.76002502441406 4.524903297424316 25.0145263671875 C 6.463936805725098 20.43014717102051 9.240137100219727 16.31264877319336 12.77639198303223 12.77639198303223 C 16.31264877319336 9.240137100219727 20.43014717102051 6.463936805725098 25.0145263671875 4.524903297424316 C 29.76002502441406 2.517725706100464 34.8018684387207 1.500003457069397 39.99999237060547 1.500003457069397 C 45.19811630249023 1.500003457069397 50.23995971679688 2.517725706100464 54.98546981811523 4.524903297424316 C 59.5698356628418 6.463936805725098 63.68733596801758 9.240137100219727 67.22359466552734 12.77639198303223 C 70.75984954833984 16.31264877319336 73.53604888916016 20.43014717102051 75.47508239746094 25.0145263671875 C 77.48226165771484 29.76002502441406 78.49998474121094 34.8018684387207 78.49998474121094 39.99999237060547 C 78.49998474121094 45.19812393188477 77.48226165771484 50.23995971679688 75.47508239746094 54.98546981811523 C 73.53604888916016 59.5698356628418 70.75984954833984 63.68733596801758 67.22359466552734 67.22359466552734 C 63.68733596801758 70.75984954833984 59.5698356628418 73.53604888916016 54.98546981811523 75.47508239746094 C 50.23995971679688 77.48226165771484 45.19812393188477 78.49998474121094 39.99999237060547 78.49998474121094 Z" stroke="none"/>
                                      <path d="M 39.99999237060547 2.999992370605469 C 35.00370025634766 2.999992370605469 30.1584587097168 3.97784423828125 25.59884643554688 5.906402587890625 C 21.19327163696289 7.769805908203125 17.23603057861328 10.43805694580078 13.83704376220703 13.83704376220703 C 10.43805694580078 17.23603057861328 7.769805908203125 21.19327163696289 5.906402587890625 25.59884643554688 C 3.97784423828125 30.1584587097168 2.999992370605469 35.00370025634766 2.999992370605469 39.99999237060547 C 2.999992370605469 44.99628448486328 3.97784423828125 49.84152603149414 5.906402587890625 54.40113830566406 C 7.769805908203125 58.80671310424805 10.43805694580078 62.76395416259766 13.83704376220703 66.16294097900391 C 17.23603057861328 69.56191253662109 21.19327163696289 72.23016357421875 25.59884643554688 74.09356689453125 C 30.1584587097168 76.02212524414062 35.00370025634766 76.99997711181641 39.99999237060547 76.99997711181641 C 44.99628448486328 76.99997711181641 49.84152603149414 76.02212524414062 54.40113830566406 74.09356689453125 C 58.80671310424805 72.23016357421875 62.76395416259766 69.56191253662109 66.16294097900391 66.16294097900391 C 69.56191253662109 62.76395416259766 72.23016357421875 58.80671310424805 74.09356689453125 54.40113830566406 C 76.02212524414062 49.84152603149414 76.99997711181641 44.99628448486328 76.99997711181641 39.99999237060547 C 76.99997711181641 35.00370025634766 76.02212524414062 30.1584587097168 74.09356689453125 25.59884643554688 C 72.23016357421875 21.19327163696289 69.56191253662109 17.23603057861328 66.16294097900391 13.83704376220703 C 62.76395416259766 10.43805694580078 58.80671310424805 7.769805908203125 54.40113830566406 5.906402587890625 C 49.84152603149414 3.97784423828125 44.99628448486328 2.999992370605469 39.99999237060547 2.999992370605469 M 39.99999237060547 -7.62939453125e-06 C 62.09137725830078 -7.62939453125e-06 79.99997711181641 17.90860748291016 79.99997711181641 39.99999237060547 C 79.99997711181641 62.09137725830078 62.09137725830078 79.99997711181641 39.99999237060547 79.99997711181641 C 17.90860748291016 79.99997711181641 -7.62939453125e-06 62.09137725830078 -7.62939453125e-06 39.99999237060547 C -7.62939453125e-06 17.90860748291016 17.90860748291016 -7.62939453125e-06 39.99999237060547 -7.62939453125e-06 Z" stroke="none" fill="#83793c"/>
                                    </g>
                                  </g>
                                </g>
                              </g>
                            </g>
                          </g>
                        </g>
                      </g>
                    </g>
                  </g>
                </g>
                <g id="g8115" transform="translate(15.793 15.793)">
                  <g id="g8117">
                    <g id="g8119" clip-path="url(#clip-path)">
                      <g id="g8125" transform="translate(-33.259 0.709)">
                        <path id="path8127" d="M-338.457-377.826h-25.835v-25.108c5.31-7.679,37.755-5.416,25.835,25.108" transform="translate(364.292 406.667)" fill="#fbdf63"/>
                      </g>
                      <g id="g8129" transform="translate(-33.259 0.709)">
                        <path id="path8131" d="M-338.457-377.826h-.619c6.164-24.728-15.887-30.6-25.216-24.374v-.734c5.31-7.679,37.755-5.416,25.835,25.108" transform="translate(364.292 406.667)" fill="#f9d11f"/>
                      </g>
                    </g>
                  </g>
                  <g id="g8265">
                    <g id="g8267" clip-path="url(#clip-path)">
                      <g id="g8273" transform="translate(-33.259 51.036)">
                        <path id="path8275" d="M-338.457-377.654h-25.835v-25.1c5.31-7.676,37.755-5.413,25.835,25.1" transform="translate(364.292 406.481)" fill="#003343"/>
                      </g>
                      <g id="g8277" transform="translate(-33.259 51.036)">
                        <path id="path8279" d="M-338.457-377.654h-.619c6.164-24.717-15.887-30.585-25.216-24.362v-.734c5.31-7.676,37.755-5.413,25.835,25.1" transform="translate(364.292 406.481)" fill="#002439"/>
                      </g>
                    </g>
                  </g>
                  <g id="g8281">
                    <g id="g8283" clip-path="url(#clip-path)">
                      <g id="g8289" transform="translate(17.066 51.014)">
                        <path id="path8291" d="M-338.457-377.826h-25.835v-25.108c5.31-7.679,37.755-5.416,25.835,25.108" transform="translate(364.292 406.667)" fill="#ff7e50"/>
                      </g>
                      <g id="g8293" transform="translate(17.066 51.014)">
                        <path id="path8295" d="M-338.457-377.826h-.619c6.164-24.728-15.887-30.6-25.216-24.374v-.734c5.31-7.679,37.755-5.416,25.835,25.108" transform="translate(364.292 406.667)" fill="#ff6247"/>
                      </g>
                      <g id="g8297" transform="translate(2.941 54.225)">
                        <path id="path8299" d="M-233.028-131.751v15.573h-14.6c-12.2-25.649,14.6-34.273,14.6-15.573" transform="translate(250.816 141.808)" fill="#ffa68a"/>
                      </g>
                      <g id="g8301" transform="translate(2.941 54.225)">
                        <path id="path8303" d="M-233.028-131.751c-.9-16.1-20.23-9.82-14.176,15.573h-.427c-12.2-25.649,14.6-34.273,14.6-15.573" transform="translate(250.816 141.808)" fill="#ff7e50"/>
                      </g>
                    </g>
                  </g>
                </g>
              </g>
            </g>
          </g>
        </g>
      </g>
    </g>
    <g id="assign_14701719" transform="translate(212.886 4843.735)">
      <g id="Grupo_1232351" data-name="Grupo 1232351" transform="translate(7.5 7.5)">
        <path id="Trazado_1248560" data-name="Trazado 1248560" d="M33.425,13.261V39.186H10.369A2.869,2.869,0,0,1,7.5,36.317V10.369A2.869,2.869,0,0,1,10.369,7.5H27.664Z" transform="translate(-7.5 -7.5)" fill="#f3f5fc"/>
        <path id="Trazado_1248561" data-name="Trazado 1248561" d="M19.128,39.186H10.369A2.869,2.869,0,0,1,7.5,36.317V10.369A2.869,2.869,0,0,1,10.369,7.5h8.758a4.549,4.549,0,0,0-1.967,3.78V35.406A4.547,4.547,0,0,0,19.128,39.186Z" transform="translate(-7.5 -7.5)" fill="#e8ecf9"/>
        <path id="Trazado_1248562" data-name="Trazado 1248562" d="M109.863,264.94a1.44,1.44,0,0,1-1.44,1.44h-10.5l-1.119-1.12,1.119-1.761h10.5A1.44,1.44,0,0,1,109.863,264.94Z" transform="translate(-88.259 -239.015)" fill="#fd7a6e"/>
        <path id="Trazado_1248563" data-name="Trazado 1248563" d="M54.119,263.5h3.9v2.881h-3.9a1.44,1.44,0,0,1,0-2.881Z" transform="translate(-48.359 -239.015)" fill="#f85647"/>
        <path id="Trazado_1248564" data-name="Trazado 1248564" d="M84.08,61.322a8.645,8.645,0,0,1-11.944,7.987L68.29,61.363l3.846-8.028A8.645,8.645,0,0,1,84.08,61.322Z" transform="translate(-62.476 -48.359)" fill="#00c9df"/>
        <path id="Trazado_1248565" data-name="Trazado 1248565" d="M58.019,59.52V75.495a8.644,8.644,0,0,1,0-15.975Z" transform="translate(-48.359 -54.545)" fill="#00bad5"/>
        <path id="Trazado_1248566" data-name="Trazado 1248566" d="M108.954,100.358l-4.105,5.139a2.87,2.87,0,0,1-4.238.271l-.078-.076-.843-2.741.843-1.373c.278.127.23.115,2.025,1.725l4-4.887a1.544,1.544,0,0,1,2.4,1.941Z" transform="translate(-90.873 -89.209)" fill="#f3f5fc"/>
        <path id="Trazado_1248567" data-name="Trazado 1248567" d="M88.134,135.527v4.114L86.443,138a1.521,1.521,0,0,1,1.691-2.475Z" transform="translate(-78.474 -123.158)" fill="#e8ecf9"/>
        <path id="Trazado_1248568" data-name="Trazado 1248568" d="M210.926,128.033v12.254a2.869,2.869,0,0,1-2.869,2.869H183.549a2.869,2.869,0,0,1-2.869-2.869v-5.773l9.362-20.468a15,15,0,0,1,3.714-1,15.125,15.125,0,0,1,17.17,14.986Z" transform="translate(-164.116 -102.828)" fill="#fad989"/>
        <path id="Trazado_1248569" data-name="Trazado 1248569" d="M197.395,144.459H183.549a2.869,2.869,0,0,1-2.869-2.869V129.336a15.125,15.125,0,0,1,13.076-14.986c-2.74,3.95-10.829,17.831,2.047,28.651C196.419,143.519,196.948,144,197.395,144.459Z" transform="translate(-164.116 -104.13)" fill="#fdc072"/>
        <circle id="Elipse_11579" data-name="Elipse 11579" cx="2.881" cy="2.881" r="2.881" transform="translate(41.769 24.485)" fill="#c8866a"/>
        <path id="Trazado_1248570" data-name="Trazado 1248570" d="M265.724,385.082v2.166a1.435,1.435,0,0,1-1.435,1.435H249.875a1.435,1.435,0,0,1-1.435-1.435v-2.166a8.609,8.609,0,0,1,.783-3.6h0l2.636-1.645.03-1.663a8.642,8.642,0,0,1,13.834,6.908Z" transform="translate(-225.395 -341.153)" fill="#ace094"/>
        <path id="Trazado_1248571" data-name="Trazado 1248571" d="M253.684,389.052v2.328a1.647,1.647,0,0,0,.613,1.146h-4.423a1.435,1.435,0,0,1-1.435-1.435v-2.166a8.644,8.644,0,0,1,6.017-8.235c1,1.363,1.79,2.446,1.79,2.446S253.684,384.819,253.684,389.052Z" transform="translate(-225.395 -344.996)" fill="#8dd470"/>
        <path id="Trazado_1248572" data-name="Trazado 1248572" d="M308.713,372.511a3.6,3.6,0,0,1-6.3,2.387l-.867-2.911a3.6,3.6,0,0,1,7.163.524Z" transform="translate(-273.426 -334.343)" fill="#c8866a"/>
        <path id="Trazado_1248573" data-name="Trazado 1248573" d="M303.916,383.181a5.9,5.9,0,0,0-1.861,2.416,3.6,3.6,0,0,1,.076-4.857C303.13,382.1,303.916,383.181,303.916,383.181Z" transform="translate(-273.064 -345.041)" fill="#b07058"/>
        <circle id="Elipse_11580" data-name="Elipse 11580" cx="2.881" cy="2.881" r="2.881" transform="translate(15.843 24.485)" fill="#b07058"/>
        <path id="Trazado_1248574" data-name="Trazado 1248574" d="M262.415,218.6a12.242,12.242,0,0,1-12.242,12.243q-.422,0-.835-.029l-3.312-1.149-5.226-9.625,2.39-4.554a9.3,9.3,0,0,0,6.046-2.825,1.29,1.29,0,0,1,1.874,0c2.989,3.147,7.086,3.1,9.623,2.668a1.286,1.286,0,0,1,1.48,1.038A12.279,12.279,0,0,1,262.415,218.6Z" transform="translate(-218.486 -192.671)" fill="#db9e82"/>
        <path id="Trazado_1248575" data-name="Trazado 1248575" d="M222.2,259.672a12.256,12.256,0,0,1-11.2-14.45,1.285,1.285,0,0,1,1.479-1.035,13.9,13.9,0,0,0,3.578.158C215.565,249.221,216.809,254.729,222.2,259.672Z" transform="translate(-191.35 -221.532)" fill="#c8866a"/>
        <path id="Trazado_1248576" data-name="Trazado 1248576" d="M224.082,13.135v.125h-2.892a2.869,2.869,0,0,1-2.869-2.869V7.5h.126a1.435,1.435,0,0,1,1.014.42l4.2,4.2A1.433,1.433,0,0,1,224.082,13.135Z" transform="translate(-198.156 -7.5)" fill="#e8ecf9"/>
      </g>
      <g id="Grupo_1232353" data-name="Grupo 1232353" transform="translate(7.5 7.5)">
        <path id="Trazado_1248577" data-name="Trazado 1248577" d="M33.425,18.353V13.135a1.433,1.433,0,0,0-.42-1.014l-4.2-4.2A1.435,1.435,0,0,0,27.79,7.5H10.369A2.869,2.869,0,0,0,7.5,10.369V36.317a2.869,2.869,0,0,0,2.869,2.869h13.5" transform="translate(-7.5 -7.5)" fill="none" stroke="#000" stroke-linecap="round" stroke-linejoin="round" stroke-miterlimit="10" stroke-width="1.3"/>
        <path id="Trazado_1248578" data-name="Trazado 1248578" d="M64.011,266.381H54.119a1.44,1.44,0,0,1,0-2.881H64.748" transform="translate(-48.359 -239.015)" fill="none" stroke="#000" stroke-linecap="round" stroke-linejoin="round" stroke-miterlimit="10" stroke-width="1.3"/>
        <path id="Trazado_1248579" data-name="Trazado 1248579" d="M69.922,62.159a8.635,8.635,0,1,0-4.461,6.75" transform="translate(-48.359 -48.359)" fill="none" stroke="#000" stroke-linecap="round" stroke-linejoin="round" stroke-miterlimit="10" stroke-width="1.3"/>
        <path id="Trazado_1248580" data-name="Trazado 1248580" d="M95.852,101.238l.7-.88a1.544,1.544,0,0,0-2.4-1.941l-4,4.886-1.642-1.474a1.521,1.521,0,0,0-2.074,2.224l1.769,1.714a2.87,2.87,0,0,0,4.238-.271l1.313-1.644" transform="translate(-78.474 -89.208)" fill="none" stroke="#000" stroke-linecap="round" stroke-linejoin="round" stroke-miterlimit="10" stroke-width="1.3"/>
        <path id="Trazado_1248581" data-name="Trazado 1248581" d="M180.68,128.007a15.123,15.123,0,0,1,30.246,0" transform="translate(-164.116 -102.828)" fill="none" stroke="#000" stroke-linecap="round" stroke-linejoin="round" stroke-miterlimit="10" stroke-width="1.3"/>
        <path id="Trazado_1248582" data-name="Trazado 1248582" d="M180.68,316.48v7.907a2.869,2.869,0,0,0,2.869,2.869h4.271" transform="translate(-164.116 -286.928)" fill="none" stroke="#000" stroke-linecap="round" stroke-linejoin="round" stroke-miterlimit="10" stroke-width="1.3"/>
        <path id="Trazado_1248583" data-name="Trazado 1248583" d="M429.409,316.48v7.907a2.869,2.869,0,0,1-2.869,2.869h-4.27" transform="translate(-382.599 -286.928)" fill="none" stroke="#000" stroke-linecap="round" stroke-linejoin="round" stroke-miterlimit="10" stroke-width="1.3"/>
        <path id="Trazado_1248584" data-name="Trazado 1248584" d="M462.119,263.547a2.88,2.88,0,1,1-.619,5.421" transform="translate(-418.077 -238.997)" fill="none" stroke="#000" stroke-linecap="round" stroke-linejoin="round" stroke-miterlimit="10" stroke-width="1.3"/>
        <path id="Trazado_1248585" data-name="Trazado 1248585" d="M251.736,395.8a8.623,8.623,0,0,0-3.3,6.79v2.166a1.435,1.435,0,0,0,1.435,1.435H259.3" transform="translate(-225.395 -358.661)" fill="none" stroke="#000" stroke-linecap="round" stroke-linejoin="round" stroke-miterlimit="10" stroke-width="1.3"/>
        <path id="Trazado_1248586" data-name="Trazado 1248586" d="M394.64,395.76a8.627,8.627,0,0,1,3.3,6.794v2.166a1.435,1.435,0,0,1-1.435,1.435h-1.645" transform="translate(-357.612 -358.625)" fill="none" stroke="#000" stroke-linecap="round" stroke-linejoin="round" stroke-miterlimit="10" stroke-width="1.3"/>
        <path id="Trazado_1248587" data-name="Trazado 1248587" d="M308.346,402.98a3.6,3.6,0,1,1-7.17,0" transform="translate(-273.075 -365.154)" fill="none" stroke="#000" stroke-linecap="round" stroke-linejoin="round" stroke-miterlimit="10" stroke-width="1.3"/>
        <path id="Trazado_1248588" data-name="Trazado 1248588" d="M177.252,268.966a2.88,2.88,0,1,1-.615-5.423" transform="translate(-157.306 -238.993)" fill="none" stroke="#000" stroke-linecap="round" stroke-linejoin="round" stroke-miterlimit="10" stroke-width="1.3"/>
        <path id="Trazado_1248589" data-name="Trazado 1248589" d="M214.5,227.391a12.251,12.251,0,0,0,20.567-11.028,1.286,1.286,0,0,0-1.48-1.038c-2.536.431-6.634.479-9.623-2.668a1.29,1.29,0,0,0-1.874,0c-2.989,3.147-7.086,3.1-9.624,2.668a1.285,1.285,0,0,0-1.479,1.035,12.288,12.288,0,0,0,1.445,8.388" transform="translate(-191.341 -192.671)" fill="none" stroke="#000" stroke-linecap="round" stroke-linejoin="round" stroke-miterlimit="10" stroke-width="1.3"/>
        <path id="Trazado_1248590" data-name="Trazado 1248590" d="M223.893,15.069h-2.7a2.869,2.869,0,0,1-2.869-2.869V9.5" transform="translate(-198.159 -9.308)" fill="none" stroke="#000" stroke-linecap="round" stroke-linejoin="round" stroke-miterlimit="10" stroke-width="1.3"/>
        <g id="Grupo_1232352" data-name="Grupo 1232352" transform="translate(24.486 26.724)">
          <path id="Trazado_1248591" data-name="Trazado 1248591" d="M266.139,288.22a1.317,1.317,0,0,0-2.633,0" transform="translate(-263.506 -286.904)" fill="none" stroke="#000" stroke-linecap="round" stroke-linejoin="round" stroke-miterlimit="10" stroke-width="1.3"/>
          <path id="Trazado_1248592" data-name="Trazado 1248592" d="M386.551,288.22a1.317,1.317,0,0,1,2.633,0" transform="translate(-374.782 -286.904)" fill="none" stroke="#000" stroke-linecap="round" stroke-linejoin="round" stroke-miterlimit="10" stroke-width="1.3"/>
          <path id="Trazado_1248593" data-name="Trazado 1248593" d="M324.192,316.758a1.851,1.851,0,0,0,2.793,0" transform="translate(-318.388 -313.903)" fill="none" stroke="#000" stroke-linecap="round" stroke-linejoin="round" stroke-miterlimit="10" stroke-width="1.3"/>
        </g>
      </g>
    </g>
  </g>
</svg>
