<svg xmlns="http://www.w3.org/2000/svg" xmlns:xlink="http://www.w3.org/1999/xlink" width="113" height="113" viewBox="0 0 113 113">
  <defs>
    <filter id="Trazado_982547" x="0" y="0" width="113" height="113" filterUnits="userSpaceOnUse">
      <feOffset dy="3" input="SourceAlpha"/>
      <feGaussianBlur stdDeviation="3" result="blur"/>
      <feFlood flood-opacity="0.161"/>
      <feComposite operator="in" in2="blur"/>
      <feComposite in="SourceGraphic"/>
    </filter>
    <clipPath id="clip-path">
      <path id="path9255" d="M0-682.665H64.353v64.352H0Z" transform="translate(0 682.665)"/>
    </clipPath>
  </defs>
  <g id="Grupo_1232016" data-name="Grupo 1232016" transform="translate(-127 -8121.411)">
    <g id="Grupo_1231435" data-name="Grupo 1231435" transform="translate(136 8127.411)">
      <g id="Grupo_1230841" data-name="Grupo 1230841">
        <g id="Grupo_1208492" data-name="Grupo 1208492">
          <g id="Grupo_1177675" data-name="Grupo 1177675" transform="translate(0 0)">
            <g id="Grupo_1176928" data-name="Grupo 1176928" transform="translate(0)">
              <g id="Grupo_1172322" data-name="Grupo 1172322" transform="translate(0 0)">
                <g id="Grupo_1164700" data-name="Grupo 1164700">
                  <g id="Grupo_1160931" data-name="Grupo 1160931">
                    <g id="Grupo_1160749" data-name="Grupo 1160749">
                      <g id="Grupo_1158891" data-name="Grupo 1158891">
                        <g id="Grupo_1157406" data-name="Grupo 1157406">
                          <g id="Grupo_1155793" data-name="Grupo 1155793">
                            <g id="Grupo_1154704" data-name="Grupo 1154704">
                              <g id="Grupo_1150790" data-name="Grupo 1150790">
                                <g id="Grupo_1154214" data-name="Grupo 1154214">
                                  <g id="Grupo_1152583" data-name="Grupo 1152583">
                                    <g id="Grupo_1146973" data-name="Grupo 1146973">
                                      <g id="Grupo_1146954" data-name="Grupo 1146954">
                                        <g transform="matrix(1, 0, 0, 1, -9, -6)" filter="url(#Trazado_982547)">
                                          <g id="Trazado_982547-2" data-name="Trazado 982547" transform="translate(9 6)" fill="#fcf8db">
                                            <path d="M 47.5000114440918 93.49987030029297 C 41.28938293457031 93.49987030029297 35.26534652709961 92.28384399414062 29.5951976776123 89.88558959960938 C 24.11773109436035 87.56881713867188 19.19814491271973 84.25183868408203 14.97310447692871 80.02680206298828 C 10.74805164337158 75.80176544189453 7.43107795715332 70.88218688964844 5.114304542541504 65.40472412109375 C 2.716038227081299 59.73458862304688 1.500011444091797 53.71054840087891 1.500011444091797 47.49993515014648 C 1.500011444091797 41.28932189941406 2.716038227081299 35.26528167724609 5.114304542541504 29.59514808654785 C 7.43107795715332 24.1176815032959 10.74805164337158 19.1981086730957 14.97310447692871 14.97306823730469 C 19.19814491271973 10.74802875518799 24.11773109436035 7.431055068969727 29.5951976776123 5.11428165435791 C 35.26534652709961 2.716028451919556 41.28938293457031 1.500001788139343 47.5000114440918 1.500001788139343 C 53.71063995361328 1.500001788139343 59.73467636108398 2.716028451919556 65.40482330322266 5.11428165435791 C 70.88229370117188 7.431055068969727 75.8018798828125 10.74802875518799 80.02691650390625 14.97306823730469 C 84.25196838378906 19.1981086730957 87.56894683837891 24.1176815032959 89.88571929931641 29.59514808654785 C 92.28398132324219 35.26528167724609 93.50001525878906 41.28932189941406 93.50001525878906 47.49993515014648 C 93.50001525878906 53.71054840087891 92.28398132324219 59.73458862304688 89.88571929931641 65.40472412109375 C 87.56894683837891 70.88218688964844 84.25196838378906 75.80176544189453 80.02691650390625 80.02680206298828 C 75.8018798828125 84.25183868408203 70.88229370117188 87.56881713867188 65.40482330322266 89.88558959960938 C 59.73467636108398 92.28384399414062 53.71063995361328 93.49987030029297 47.5000114440918 93.49987030029297 Z" stroke="none"/>
                                            <path d="M 47.5000114440918 3 C 41.49122619628906 3 35.66378021240234 4.1761474609375 30.17951965332031 6.495796203613281 C 24.880859375 8.7369384765625 20.12153625488281 11.94596862792969 16.03376770019531 16.03373718261719 C 11.94598388671875 20.12149047851562 8.736968994140625 24.88081359863281 6.495811462402344 30.17947387695312 C 4.176162719726562 35.66371917724609 3.000007629394531 41.49116516113281 3.000007629394531 47.49993515014648 C 3.000007629394531 53.50870513916016 4.176162719726562 59.33615112304688 6.495811462402344 64.82039642333984 C 8.736968994140625 70.11905670166016 11.94598388671875 74.87837982177734 16.03376770019531 78.96613311767578 C 20.12153625488281 83.05390167236328 24.880859375 86.26293182373047 30.17951965332031 88.50407409667969 C 35.66378021240234 90.82372283935547 41.49122619628906 91.99987030029297 47.5000114440918 91.99987030029297 C 53.50879669189453 91.99987030029297 59.33624267578125 90.82372283935547 64.82050323486328 88.50407409667969 C 70.11916351318359 86.26293182373047 74.87848663330078 83.05390167236328 78.96625518798828 78.96613311767578 C 83.05403900146484 74.87837982177734 86.2630615234375 70.11905670166016 88.50421142578125 64.82039642333984 C 90.82386016845703 59.33615112304688 92.00001525878906 53.50870513916016 92.00001525878906 47.49993515014648 C 92.00001525878906 41.49116516113281 90.82386016845703 35.66371917724609 88.50421142578125 30.17947387695312 C 86.2630615234375 24.88081359863281 83.05403900146484 20.12149047851562 78.96625518798828 16.03373718261719 C 74.87848663330078 11.94596862792969 70.11916351318359 8.7369384765625 64.82050323486328 6.495796203613281 C 59.33624267578125 4.1761474609375 53.50879669189453 3 47.5000114440918 3 M 47.5000114440918 0 C 73.73353576660156 0 95.00001525878906 21.26644134521484 95.00001525878906 47.49993515014648 C 95.00001525878906 73.73342895507812 73.73353576660156 94.99987030029297 47.5000114440918 94.99987030029297 C 21.26648712158203 94.99987030029297 7.62939453125e-06 73.73342895507812 7.62939453125e-06 47.49993515014648 C 7.62939453125e-06 21.26644134521484 21.26648712158203 0 47.5000114440918 0 Z" stroke="none" fill="#83793c"/>
                                          </g>
                                        </g>
                                      </g>
                                    </g>
                                  </g>
                                </g>
                              </g>
                            </g>
                          </g>
                        </g>
                      </g>
                    </g>
                  </g>
                </g>
              </g>
            </g>
          </g>
        </g>
      </g>
    </g>
    <g id="g9249" transform="translate(151.324 8825.4)">
      <g id="g9251" transform="translate(0 -682.665)">
        <g id="g9253" transform="translate(0 0)" clip-path="url(#clip-path)">
          <g id="g9259" transform="translate(24.449 16.875)">
            <path id="path9261" d="M-130.006-110.069h-11.6L-143.537-112v-6.719l2.8-2.8h9.853l2.8,2.8V-112l-1.932,1.932" transform="translate(143.537 121.525)" fill="#fff5cc"/>
          </g>
          <g id="g9263" transform="translate(29.014 20.902)">
            <path id="path9265" d="M-30.406-43l-3.165-3.165a4.475,4.475,0,0,1,6.329,0h0Z" transform="translate(33.571 47.476)" fill="#f072ae"/>
          </g>
          <g id="g9267" transform="translate(39.341 0.958)">
            <path id="path9269" d="M-47.371-78.715l3.262-3.262v-2.5l-2.434-2.434h-2.5L-52.3-83.646Z" transform="translate(52.301 86.908)" fill="#fff5cc"/>
          </g>
          <g id="g9271" transform="translate(16.827 0.958)">
            <path id="path9273" d="M-31.346-78.715l4.93-4.93-3.262-3.262h-2.5l-2.434,2.434v2.5Z" transform="translate(34.608 86.908)" fill="#fff5cc"/>
          </g>
          <g id="g9275" transform="translate(20.09 4.22)">
            <path id="path9277" d="M-184.968,0h-14.321l-4.93,4.93V17.3l4.359,4.359v-6.2l2.8-2.8h9.853l2.8,2.8v6.2l4.359-4.359V4.93Z" transform="translate(204.22)" fill="#ffb655"/>
          </g>
          <g id="g9279" transform="translate(10.872 21.892)">
            <path id="path9281" d="M-93.434-38.578l-4.015-4.015-5.709,5.709,10.067,10.042L-93.477-13.6h23.258l-.389-13.241,10.06-10.046-5.71-5.709-4.011,4.011-3.849-.021v.516l-1.932,1.932h-11.6l-1.932-1.932V-38.6Z" transform="translate(103.158 42.593)" fill="#ffb655"/>
          </g>
          <g id="g9283" transform="translate(28.783 31.146)">
            <path id="path9285" d="M-137.67-77.308c0,4.444-3.208,8.046-7.164,8.046S-152-72.865-152-77.308s3.208-8.046,7.164-8.046,7.164,3.6,7.164,8.046" transform="translate(151.998 85.354)" fill="#ff7956"/>
          </g>
          <g id="g9287" transform="translate(47.771 19.652)">
            <path id="path9289" d="M-54.858-76.382l-5.71-5.71,2.24-2.24H-55.8l3.18,3.18v2.529Z" transform="translate(60.568 84.332)" fill="#fff5cc"/>
          </g>
          <g id="g9291" transform="translate(8.632 19.652)">
            <path id="path9293" d="M-21.521-76.382l5.71-5.71-2.24-2.24h-2.529l-3.18,3.18v2.529Z" transform="translate(23.761 84.332)" fill="#fff5cc"/>
          </g>
          <g id="g9295" transform="translate(17.674 43.559)">
            <path id="path9297" d="M-29.714,0h-3.093V4.427h2.964Z" transform="translate(32.807)" fill="#44ffe8"/>
          </g>
          <path id="path9299" d="M281.3-130.324H267.351V-142.83H281.3Z" transform="translate(-242.149 193.719)" fill="#ffdaaa"/>
          <g id="g9301" transform="translate(25.012 31.146)">
            <path id="path9303" d="M-137.67-77.308c0,4.444-3.208,8.046-7.164,8.046S-152-72.865-152-77.308s3.208-8.046,7.164-8.046,7.164,3.6,7.164,8.046" transform="translate(151.998 85.354)" fill="#fff5cc"/>
          </g>
          <g id="g9305" transform="translate(24.449 16.875)">
            <path id="path9307" d="M-36.229-91.5v-6.719l2.8-2.8H-37.2l-2.8,2.8V-91.5l1.932,1.932H-34.3L-36.229-91.5" transform="translate(40 101.028)" fill="#ffc477"/>
          </g>
          <g id="g9309" transform="translate(29.014 20.902)">
            <path id="path9311" d="M-24.153-12.593a4.456,4.456,0,0,1,1.908-1.131,4.475,4.475,0,0,0-4.421,1.131L-23.5-9.428l1.257-1.257Z" transform="translate(26.667 13.904)" fill="#ff3f62"/>
          </g>
          <g id="g9313" transform="translate(39.341 0.958)">
            <path id="path9315" d="M-36.229-31.344l2.625-2.625-.637-.637h-2.5L-40-31.344l4.93,4.93,1.885-1.885Z" transform="translate(40 34.607)" fill="#ffc477"/>
          </g>
          <g id="g9317" transform="translate(16.827 0.958)">
            <path id="path9319" d="M-36.229-47.37v-2.5l1.8-1.8-.637-.637h-2.5L-40-49.866v2.5l3.262,3.262,1.885-1.885Z" transform="translate(40 52.3)" fill="#ffc477"/>
          </g>
          <g id="g9321" transform="translate(20.09 4.22)">
            <path id="path9323" d="M-36.229-166.254v-12.373l4.93-4.93H-35.07l-4.93,4.93v12.373l4.359,4.359v-3.771Z" transform="translate(40 183.557)" fill="#ff7956"/>
          </g>
          <g id="g9325" transform="translate(37.107 16.875)">
            <path id="path9327" d="M-63.179-50.315v-2.432l-2.8-2.8h-3.771l2.8,2.8v6.2Z" transform="translate(69.754 55.552)" fill="#ff7956"/>
          </g>
          <g id="g9329" transform="translate(37.979 25.883)">
            <path id="path9331" d="M-54.8-4.959v-.5l-3.771-.02v.516L-60.5-3.026h3.771L-54.8-4.959" transform="translate(60.499 5.475)" fill="#ff7956"/>
          </g>
          <g id="g9333" transform="translate(43.781 21.892)">
            <path id="path9335" d="M-36.035-38.541l2.126-2.126-1.885-1.885-3.991,3.991Z" transform="translate(39.785 42.552)" fill="#ff7956"/>
          </g>
          <g id="g9337" transform="translate(24.343 25.883)">
            <path id="path9339" d="M-.232-.238H-.15V-.263H-.256Z" transform="translate(0.256 0.263)" fill="#ff7956"/>
          </g>
          <g id="g9341" transform="translate(10.872 21.892)">
            <path id="path9343" d="M-36.229-54.855l3.824-3.824-1.885-1.885L-40-54.855l10.067,10.042-.386,13.244h3.771l.386-13.244Z" transform="translate(40 60.564)" fill="#ff7956"/>
          </g>
          <g id="g9345" transform="translate(47.771 19.652)">
            <path id="path9347" d="M-36.229-21.524l1.62-1.62-.621-.621H-37.76L-40-21.524l5.71,5.71,1.885-1.886Z" transform="translate(40 23.764)" fill="#ffc477"/>
          </g>
          <g id="g9349" transform="translate(8.632 19.652)">
            <path id="path9351" d="M-36.229-54.855v-2.529l2.559-2.559-.621-.621H-36.82L-40-57.384v2.529l2.24,2.241,1.886-1.886Z" transform="translate(40 60.564)" fill="#ffc477"/>
          </g>
          <path id="path9353" d="M267.353-130.324h3.771V-142.83h-3.771Z" transform="translate(-242.15 193.719)" fill="#ff9478"/>
          <g id="g9355" transform="translate(25.012 31.146)">
            <path id="path9357" d="M-36.229-77.308a7.955,7.955,0,0,1,5.279-7.764,6.436,6.436,0,0,0-1.885-.282c-3.957,0-7.164,3.6-7.164,8.046s3.208,8.046,7.164,8.046a6.44,6.44,0,0,0,1.885-.282,7.955,7.955,0,0,1-5.279-7.764" transform="translate(40 85.354)" fill="#ffc477"/>
          </g>
          <g id="g9359" transform="translate(24.449 16.875)">
            <path id="path9361" d="M-130.006-110.069h-11.6L-143.537-112v-6.719l2.8-2.8h9.853l2.8,2.8V-112Z" transform="translate(143.537 121.525)" fill="none" stroke="#000" stroke-miterlimit="10" stroke-width="2"/>
          </g>
          <g id="g9363" transform="translate(26.191 7.742)">
            <path id="path9365" d="M0,0H12" fill="none" stroke="#fff" stroke-miterlimit="10" stroke-width="2" stroke-dasharray="15 10 15 10 650"/>
          </g>
          <g id="g9367" transform="translate(29.014 20.902)">
            <path id="path9369" d="M-30.406-43l-3.165-3.165a4.475,4.475,0,0,1,6.329,0h0Z" transform="translate(33.571 47.476)" fill="none" stroke="#000" stroke-miterlimit="10" stroke-width="2"/>
          </g>
          <g id="g9371" transform="translate(32.178 25.378)">
            <path id="path9373" d="M0,0V2.954" fill="none" stroke="#000" stroke-miterlimit="10" stroke-width="2"/>
          </g>
          <g id="g9375" transform="translate(39.341 0.958)">
            <path id="path9377" d="M-47.371-78.715l3.262-3.262v-2.5l-2.434-2.434h-2.5L-52.3-83.646Z" transform="translate(52.301 86.908)" fill="none" stroke="#000" stroke-miterlimit="10" stroke-width="2"/>
          </g>
          <g id="g9379" transform="translate(16.827 0.958)">
            <path id="path9381" d="M-31.346-78.715l4.93-4.93-3.262-3.262h-2.5l-2.434,2.434v2.5Z" transform="translate(34.608 86.908)" fill="none" stroke="#000" stroke-miterlimit="10" stroke-width="2"/>
          </g>
          <g id="g9383" transform="translate(20.09 4.22)">
            <path id="path9385" d="M-184.968,0h-14.321l-4.93,4.93V17.3l4.359,4.359v-6.2l2.8-2.8h9.853l2.8,2.8v6.2l4.359-4.359V4.93Z" transform="translate(204.22)" fill="none" stroke="#000" stroke-miterlimit="10" stroke-width="2"/>
          </g>
          <g id="g9387" transform="translate(20.939 30.261)">
            <path id="path9389" d="M-2.069,0l-.215,7.383" transform="translate(2.284)" fill="none" stroke="#000" stroke-miterlimit="10" stroke-width="2"/>
          </g>
          <g id="g9391" transform="translate(43.202 30.261)">
            <path id="path9393" d="M0,0,.215,7.383" fill="none" stroke="#000" stroke-miterlimit="10" stroke-width="2"/>
          </g>
          <g id="g9395" transform="translate(47.771 19.652)">
            <path id="path9397" d="M-54.858-76.382l-5.71-5.71,2.24-2.24H-55.8l3.18,3.18v2.529Z" transform="translate(60.568 84.332)" fill="none" stroke="#000" stroke-miterlimit="10" stroke-width="2"/>
          </g>
          <g id="g9399" transform="translate(8.632 19.652)">
            <path id="path9401" d="M-21.521-76.382l5.71-5.71-2.24-2.24h-2.529l-3.18,3.18v2.529Z" transform="translate(23.761 84.332)" fill="none" stroke="#000" stroke-miterlimit="10" stroke-width="2"/>
          </g>
          <g id="g9403" transform="translate(17.674 43.559)">
            <path id="path9405" d="M-29.714,0h-3.093V4.427h2.964Z" transform="translate(32.807)" fill="none" stroke="#000" stroke-miterlimit="10" stroke-width="2"/>
          </g>
          <g id="g9407" transform="translate(25.202 53.402)">
            <path id="path9409" d="M-134.017,0V9.992h-13.948V0" transform="translate(147.965)" fill="none" stroke="#000" stroke-miterlimit="10" stroke-width="2"/>
          </g>
          <g id="g9411" transform="translate(25.012 31.146)">
            <path id="path9413" d="M-137.67-77.308c0,4.444-3.208,8.046-7.164,8.046S-152-72.865-152-77.308s3.208-8.046,7.164-8.046S-137.67-81.752-137.67-77.308Z" transform="translate(151.998 85.354)" fill="none" stroke="#000" stroke-miterlimit="10" stroke-width="2"/>
          </g>
          <g id="g9415" transform="translate(32.177 34.289)">
            <path id="path9417" d="M0,0C2.218,0,4.022,2.2,4.022,4.9s-1.8,4.9-4.022,4.9" fill="none" stroke="#fff" stroke-miterlimit="10" stroke-width="2" stroke-dasharray="15 10 15 10 650"/>
          </g>
          <g id="g9419" transform="translate(10.872 21.892)">
            <path id="path9421" d="M-93.434-38.578l-4.015-4.015-5.709,5.709,10.067,10.042L-93.477-13.6h23.258l-.389-13.241,10.06-10.046-5.71-5.709-4.011,4.011" transform="translate(103.158 42.593)" fill="none" stroke="#000" stroke-miterlimit="10" stroke-width="2"/>
          </g>
        </g>
      </g>
    </g>
  </g>
</svg>
