<svg xmlns="http://www.w3.org/2000/svg" xmlns:xlink="http://www.w3.org/1999/xlink" width="400" height="318" viewBox="0 0 400 318">
  <defs>
    <clipPath id="clip-path">
      <rect id="Rect치ngulo_424308" data-name="Rect치ngulo 424308" width="400" height="318" transform="translate(1044 8743)" fill="#fff" stroke="#707070" stroke-width="1"/>
    </clipPath>
    <clipPath id="clip-path-2">
      <path id="Trazado_1234557" data-name="Trazado 1234557" d="M675.675,226.383c-.6,5.168,29.314,12.914,66.825,17.3s68.41,3.755,69.014-1.412c24.135-4.735,53.59-49.109,38.681-75.239-11.581-20.3-154.412-33.19-170.153-26.631C645.18,154.928,660.688,212.41,675.675,226.383Z" transform="translate(-658.94 -138.681)"/>
    </clipPath>
  </defs>
  <g id="Grupo_1232115" data-name="Grupo 1232115" transform="translate(-1020 -8743)">
    <rect id="Rect치ngulo_424311" data-name="Rect치ngulo 424311" width="328" height="160" rx="21" transform="translate(1051 8864)" fill="#f3de50"/>
    <g id="Enmascarar_grupo_1098773" data-name="Enmascarar grupo 1098773" transform="translate(-24)" clip-path="url(#clip-path)">
      <g id="Grupo_1232114" data-name="Grupo 1232114" transform="translate(1016.163 8621.907)">
        <g id="Grupo_1232039" data-name="Grupo 1232039" transform="translate(198.602 347.364)">
          <g id="Grupo_1232038" data-name="Grupo 1232038">
            <g id="Grupo_1232037" data-name="Grupo 1232037">
              <g id="Grupo_1232036" data-name="Grupo 1232036">
                <path id="Trazado_1234268" data-name="Trazado 1234268" d="M1048.91,1594.073s-9.242-.2-17.079-3.851a96.939,96.939,0,0,1,2.418-16.729l-13.208-2.906s-2.941,14.564-4.764,19.223a157.82,157.82,0,0,1-21.354-.3s-6.618,43.982,27.44,46.558C1031.334,1636.741,1048.837,1608.095,1048.91,1594.073Z" transform="translate(-994.405 -1570.587)" fill="#fcc7a5"/>
              </g>
            </g>
          </g>
          <path id="Trazado_1234269" data-name="Trazado 1234269" d="M1162.318,1607.52l11.188,3.01a50.651,50.651,0,0,0-2.81,11.573c-2.873-2.939-8.543-5.261-11.881-1.577A102.508,102.508,0,0,1,1162.318,1607.52Z" transform="translate(-1134.854 -1602.137)" fill="#ebad86"/>
        </g>
        <g id="Grupo_1232047" data-name="Grupo 1232047" transform="translate(149.27 226.397)">
          <g id="Grupo_1232046" data-name="Grupo 1232046">
            <path id="Trazado_1234270" data-name="Trazado 1234270" d="M765.353,919.444c-1.241,37.177,26.942,62.89,62.739,64.085s65.633-22.583,66.872-59.76c.414-12.388-1.17-31.622-6.466-41.581-25.284-3.015-85.606-14.271-101-15.986C779.171,882.434,766.016,899.568,765.353,919.444Z" transform="translate(-749.369 -847.89)" fill="#fcc7a5"/>
            <path id="Trazado_1234271" data-name="Trazado 1234271" d="M1168.787,1271.2a.336.336,0,0,0,.131-.651c-3.8-1.429-5.959-3.8-5.925-6.5a4.54,4.54,0,0,1,2.766-4.216,2.923,2.923,0,0,1,3.342,1.131.335.335,0,1,0,.517-.425,3.584,3.584,0,0,0-4.082-1.346,5.226,5.226,0,0,0-3.214,4.843c-.017,1.419.562,4.955,6.362,7.142A.288.288,0,0,0,1168.787,1271.2Z" transform="translate(-1088.517 -1183.436)" fill="#ce7755"/>
            <g id="Grupo_1232040" data-name="Grupo 1232040" transform="translate(60.526 97.704)">
              <path id="Trazado_1234272" data-name="Trazado 1234272" d="M1108.862,1411.487s-15.9,3.372-37.5-.526c-.534,2.018-.709,23.484,18.476,23.884C1109.176,1435.238,1108.862,1411.487,1108.862,1411.487Z" transform="translate(-1071.214 -1410.961)" fill="#321614"/>
              <path id="Trazado_1234273" data-name="Trazado 1234273" d="M1129.873,1415.807a120.3,120.3,0,0,1-14.844.519.165.165,0,0,1-.042,0,128.549,128.549,0,0,1-13.5-1.045c-.109,2.227.161,7.082,14.012,7.278C1129.223,1422.751,1129.717,1417.731,1129.873,1415.807Z" transform="translate(-1097.064 -1414.651)" fill="#fff"/>
              <path id="Trazado_1234274" data-name="Trazado 1234274" d="M1123.353,1517.836c6.423-2.553,11.228.156,12.21,3.24a16.352,16.352,0,0,1-11.9,4.152c-5.969-.126-10.065-2.291-12.857-5.27C1111.466,1517.668,1118.324,1515.344,1123.353,1517.836Z" transform="translate(-1105.038 -1501.343)" fill="#ed756d"/>
              <path id="Trazado_1234275" data-name="Trazado 1234275" d="M1146.828,1523.353c4.339-1.724,7.589.107,8.254,2.19a11.053,11.053,0,0,1-8.042,2.808,11.711,11.711,0,0,1-8.7-3.561C1138.789,1523.241,1143.428,1521.667,1146.828,1523.353Z" transform="translate(-1128.561 -1506.353)" fill="#f58f88"/>
            </g>
            <path id="Trazado_1234276" data-name="Trazado 1234276" d="M820.539,1310.411c.483,6.3,6.645,10.489,14.869,10.641,7.937.146,15.79-6.06,14.19-11.881-1.522-5.534-5.79-3.447-15.054-6.508C825.58,1299.7,820.056,1304.121,820.539,1310.411Z" transform="translate(-796.521 -1219.937)" fill="#f9b09b"/>
            <path id="Trazado_1234277" data-name="Trazado 1234277" d="M858.39,1331.149a1.224,1.224,0,0,0,1.425.935c.743-.06,1.309-.567,1.269-1.14a1.4,1.4,0,0,0-2.694.205Z" transform="translate(-828.879 -1244.098)" fill="#fcd3c5"/>
            <path id="Trazado_1234278" data-name="Trazado 1234278" d="M1416.7,1329.671c-.9,6.249-7.329,10.021-15.546,9.626-7.928-.385-15.35-7.1-13.367-12.8,1.888-5.421,6.005-3.053,15.454-5.491C1412.388,1318.646,1417.605,1323.426,1416.7,1329.671Z" transform="translate(-1280.851 -1235.888)" fill="#f9b09b"/>
            <path id="Trazado_1234279" data-name="Trazado 1234279" d="M1536.332,1350.836a1.225,1.225,0,0,1-1.487.837c-.734-.108-1.268-.651-1.186-1.22a1.231,1.231,0,0,1,1.484-.84C1535.879,1349.723,1536.408,1350.269,1536.332,1350.836Z" transform="translate(-1405.73 -1260.835)" fill="#fcd3c5"/>
            <g id="Grupo_1232041" data-name="Grupo 1232041" transform="translate(1.486)">
              <path id="Trazado_1234280" data-name="Trazado 1234280" d="M676.43,740.555c33.972,4,91.438,10.008,146.789,16.911,5.711,20.115,7.872,43.274-13.675,60.275-3.4-6.288-8.724-16.685-7.267-33.023-40.825-6.1-64.471-13.989-77.469-19.837,9.195,6.718,10.654,13.8,36.691,20.16-33.76-3.215-45.716-11.8-53.749-21.708-6.435,13.864-22.154,45-35.044,48.566C665.13,793.035,661.446,765.244,676.43,740.555Z" transform="translate(-666.108 -740.555)" fill="#393840"/>
              <path id="Trazado_1234281" data-name="Trazado 1234281" d="M685.369,757.8a69.935,69.935,0,0,1,7.515-17.246l2.266.266a2.087,2.087,0,0,1,.326,1.59C695.468,746.271,691.389,753.124,685.369,757.8Z" transform="translate(-682.562 -740.555)" fill="#27272e"/>
              <path id="Trazado_1234282" data-name="Trazado 1234282" d="M695.054,953.759s-2.888,16.4,1.273,31.482c4.553,3.166,4.829.636,4.829.636s19.871-19.669,20.12-32.927C714.228,970.413,699.059,973.611,695.054,953.759Z" transform="translate(-690.002 -921.997)" fill="#27272e"/>
              <path id="Trazado_1234283" data-name="Trazado 1234283" d="M1637.911,994.795s.889,16.627-5.062,31.1a18.5,18.5,0,0,1-10.562,1.614s-5-17.1-3.645-30.3C1623.528,1015.4,1631.541,1014.017,1637.911,994.795Z" transform="translate(-1479.622 -957.742)" fill="#27272e"/>
            </g>
            <g id="Grupo_1232042" data-name="Grupo 1232042" transform="translate(0 58.418)">
              <path id="Trazado_1234284" data-name="Trazado 1234284" d="M676.89,1152.3s-.578-8.868-9.637-10.71c-9.555-1.935-14.174,11.249-9.51,20.413,4.669,9.146,15.335,11.359,19.059,4.664Z" transform="translate(-655.91 -1141.397)" fill="#fcc7a5"/>
              <path id="Trazado_1234285" data-name="Trazado 1234285" d="M707.469,1168.1c6.342-.818,10.564,12.458,1.648,18.514,4.175-8.835,1.1-12.211-3.673-8.2.241-2.97,1.923-4.724,5.674-4.113C711.079,1170.343,707.469,1168.1,707.469,1168.1Z" transform="translate(-698.226 -1164.176)" fill="#d5956a"/>
            </g>
            <g id="Grupo_1232043" data-name="Grupo 1232043" transform="translate(141.872 63.251)">
              <path id="Trazado_1234286" data-name="Trazado 1234286" d="M1630.252,1184.688s1.165-8.809,10.328-10.044c9.663-1.293,13.393,12.17,8.13,21s-16.059,10.313-19.329,3.385Z" transform="translate(-1629.381 -1174.557)" fill="#fcc7a5"/>
              <path id="Trazado_1234287" data-name="Trazado 1234287" d="M1675.786,1201.183c-6.272-1.241-11.371,11.726-2.879,18.361-3.577-9.094-.284-12.256,4.212-7.94-.043-2.979-1.6-4.84-5.384-4.482C1672.035,1203.182,1675.786,1201.183,1675.786,1201.183Z" transform="translate(-1662.741 -1197.232)" fill="#d5956a"/>
            </g>
            <path id="Trazado_1234288" data-name="Trazado 1234288" d="M1434.541,1034.618c-6.673-3.273-9.552,4.2-4.889,5.068,5.009.917,8.863,3.516,9.573,3.149C1440.8,1042.017,1438.3,1036.454,1434.541,1034.618Z" transform="translate(-1314.934 -991.058)" fill="#27272e"/>
            <path id="Trazado_1234289" data-name="Trazado 1234289" d="M910.478,1022.618c6.673-3.273,9.552,4.2,4.889,5.068-5.009.917-8.863,3.516-9.573,3.149C904.216,1030.017,906.723,1024.454,910.478,1022.618Z" transform="translate(-868.966 -980.806)" fill="#27272e"/>
            <g id="Grupo_1232044" data-name="Grupo 1232044" transform="translate(98.368 56.494)">
              <path id="Trazado_1234290" data-name="Trazado 1234290" d="M1336.372,1135.345c-4.7,5.8-4.071,14.086,1.4,18.526s13.712,3.333,18.412-2.464,4.067-14.09-1.4-18.52S1341.069,1129.55,1336.372,1135.345Z" transform="translate(-1332.88 -1129.875)" fill="#ebad86"/>
              <path id="Trazado_1234291" data-name="Trazado 1234291" d="M1383.194,1271.032c4.2.534,5.12,2.473,2.061,4.335s-8.965,2.93-13.155,2.4c-4.208-.541-5.126-2.484-2.071-4.348S1378.983,1270.495,1383.194,1271.032Z" transform="translate(-1362.782 -1250.096)" fill="#ebad86"/>
              <path id="Trazado_1234292" data-name="Trazado 1234292" d="M1333.947,1133.24c-4.578,5.647-3.968,13.731,1.363,18.056s13.361,3.244,17.942-2.4,3.967-13.73-1.363-18.048S1338.526,1127.6,1333.947,1133.24Z" transform="translate(-1330.875 -1128.192)" fill="#fff"/>
              <path id="Trazado_1234293" data-name="Trazado 1234293" d="M1363.731,1186.29a11.869,11.869,0,0,1-2.44,10.02c-4.059,5-11.176,5.959-15.9,2.126a10.42,10.42,0,0,1-2.964-3.9,10.552,10.552,0,0,0,3.646,5.971c4.722,3.831,11.839,2.877,15.9-2.123A11.726,11.726,0,0,0,1363.731,1186.29Z" transform="translate(-1340.744 -1177.823)" fill="#dadbdc"/>
              <path id="Trazado_1234294" data-name="Trazado 1234294" d="M1355.856,1143.142a6.743,6.743,0,1,0,7.1-6.765A6.941,6.941,0,0,0,1355.856,1143.142Z" transform="translate(-1352.206 -1135.176)" fill="#9795a1"/>
              <path id="Trazado_1234295" data-name="Trazado 1234295" d="M1367.262,1147.514a4.178,4.178,0,1,0,4.4-4.183A4.309,4.309,0,0,0,1367.262,1147.514Z" transform="translate(-1361.953 -1141.119)"/>
              <path id="Trazado_1234296" data-name="Trazado 1234296" d="M1402.786,1145.355a1.713,1.713,0,1,0,1.805-1.72A1.765,1.765,0,0,0,1402.786,1145.355Z" transform="translate(-1392.304 -1141.382)" fill="#fff"/>
              <path id="Trazado_1234297" data-name="Trazado 1234297" d="M1372.432,1187.969a1.035,1.035,0,1,0,1.089-1.034A1.053,1.053,0,0,0,1372.432,1187.969Z" transform="translate(-1366.374 -1178.373)" fill="#fff"/>
            </g>
            <g id="Grupo_1232045" data-name="Grupo 1232045" transform="translate(37.153 55.369)">
              <path id="Trazado_1234298" data-name="Trazado 1234298" d="M940.78,1129.087c2.231,6.523-.949,13.527-7.109,15.641s-12.974-1.466-15.211-7.991.944-13.533,7.1-15.652S938.535,1122.557,940.78,1129.087Z" transform="translate(-916.737 -1120.478)" fill="#ebad86"/>
              <path id="Trazado_1234299" data-name="Trazado 1234299" d="M966.874,1260.368c3.859.491,4.7,2.274,1.9,3.989-2.825,1.7-8.243,2.69-12.094,2.2-3.869-.5-4.71-2.282-1.9-3.994S963,1259.874,966.874,1260.368Z" transform="translate(-946.956 -1239.871)" fill="#ebad86"/>
              <path id="Trazado_1234300" data-name="Trazado 1234300" d="M933.608,1131.313c2.209,6.451-.934,13.373-7.023,15.466s-12.826-1.447-15.036-7.9.935-13.377,7.019-15.469S931.4,1124.861,933.608,1131.313Z" transform="translate(-910.841 -1122.471)" fill="#fff"/>
              <path id="Trazado_1234301" data-name="Trazado 1234301" d="M962.112,1169.391a11.182,11.182,0,0,0-1.9-3.395,11.893,11.893,0,0,1,.889,1.956c1.94,5.672-.825,11.762-6.182,13.6a10.05,10.05,0,0,1-9.18-1.5,9.977,9.977,0,0,0,10.331,2.648C961.309,1180.9,964.015,1174.943,962.112,1169.391Z" transform="translate(-940.65 -1159.362)" fill="#dadbdc"/>
              <path id="Trazado_1234302" data-name="Trazado 1234302" d="M972.644,1135.8a6.329,6.329,0,1,1-5.96-7.018A6.516,6.516,0,0,1,972.644,1135.8Z" transform="translate(-952.849 -1127.565)" fill="#9795a1"/>
              <path id="Trazado_1234303" data-name="Trazado 1234303" d="M990.923,1142.925a3.787,3.787,0,1,1-3.562-4.2A3.9,3.9,0,0,1,990.923,1142.925Z" transform="translate(-972.797 -1136.057)"/>
              <path id="Trazado_1234304" data-name="Trazado 1234304" d="M987.912,1139.427a1.6,1.6,0,1,1-1.511-1.78A1.65,1.65,0,0,1,987.912,1139.427Z" transform="translate(-973.95 -1135.144)" fill="#fff"/>
              <path id="Trazado_1234305" data-name="Trazado 1234305" d="M1022.681,1178.452a.971.971,0,1,1-.91-1.076A1,1,0,0,1,1022.681,1178.452Z" transform="translate(-1004.726 -1169.083)" fill="#fff"/>
            </g>
          </g>
        </g>
        <path id="Trazado_1234306" data-name="Trazado 1234306" d="M736.446,705.543c-.807,6.893,31.531,18.132,72.128,22.881s74.079,1.208,74.886-5.685-31.45-16.331-72.047-21.079S737.253,698.65,736.446,705.543Z" transform="translate(-575.427 -478.645)" fill="#9491a1"/>
        <path id="Trazado_1234307" data-name="Trazado 1234307" d="M736.446,705.543c-.807,6.893,31.45,16.331,72.047,21.079s74.161,3.01,74.967-3.883-31.45-16.331-72.047-21.079S737.253,698.65,736.446,705.543Z" transform="translate(-575.426 -478.645)" fill="#6a6773"/>
        <path id="Trazado_1234308" data-name="Trazado 1234308" d="M773.714,715.079c-.605,5.168,29.314,12.914,66.825,17.3s68.41,3.755,69.014-1.412-29.315-12.913-66.826-17.3S774.319,709.912,773.714,715.079Z" transform="translate(-607.268 -488.696)" fill="#27272e"/>
        <g id="Grupo_1232048" data-name="Grupo 1232048" transform="translate(62.837 198.575)">
          <path id="Trazado_1234309" data-name="Trazado 1234309" d="M160.839,580.356c1.221-4.579-19.65-14.121-46.617-21.313s-49.818-9.31-51.04-4.732-.032,22.579,17.656,36.466c11.384,8.938,36.824,13.981,48.054,7.247C144.464,607.84,160.823,588.091,160.839,580.356Z" transform="translate(-62.837 -551.568)" fill="#393840"/>
          <path id="Trazado_1234310" data-name="Trazado 1234310" d="M334.695,871.562c-3.227,7.356-2.37,12.607,1.18,12.313s2.212-9.662,2.212-9.662,2.433,9.257,7.458,8.1-2.958-11.222-6.844-12.326C334.312,868.739,334.695,871.562,334.695,871.562Z" transform="translate(-293.359 -823.03)" fill="#393840"/>
          <path id="Trazado_1234311" data-name="Trazado 1234311" d="M156.231,705.407c-8.442.167-25.679-6.548-34.064-14.2s-7.684-13.03-1.448-10A158.243,158.243,0,0,1,135.9,690.3s-14.14-13.523-5.395-12.366c10.587,1.4,22.727,11.346,26.866,16.671C161.772,700.271,165.231,705.229,156.231,705.407Z" transform="translate(-108.215 -659.18)" fill="#494851"/>
          <path id="Trazado_1234312" data-name="Trazado 1234312" d="M539.953,784.655c3,.888,10.973-.331,17.084-5.465,4.241-3.564,4.576-5.87,1.256-4.7a84.091,84.091,0,0,0-8.172,3.665s6.97-6.665,2.475-6.5c-5.442.2-9.524,3.59-11.9,5.945C538.167,780.107,535.728,783.406,539.953,784.655Z" transform="translate(-468.46 -739.301)" fill="#494851"/>
          <path id="Trazado_1234313" data-name="Trazado 1234313" d="M66.875,552.072c-1.221,4.579,19.137,14.983,46.1,22.175s50.332,8.448,51.553,3.869S144.882,564,117.915,556.8,68.1,547.493,66.875,552.072Z" transform="translate(-66.242 -549.655)" fill="#9491a1"/>
          <path id="Trazado_1234314" data-name="Trazado 1234314" d="M66.882,552.072c-1.221,4.579,19.65,14.121,46.617,21.313s49.819,9.31,51.04,4.732S144.889,564,117.922,556.8,68.1,547.493,66.882,552.072Z" transform="translate(-66.249 -549.655)" fill="#6a6773"/>
          <path id="Trazado_1234315" data-name="Trazado 1234315" d="M92.505,558.638c-.916,3.433,18.542,11.6,43.46,18.248s45.859,9.25,46.775,5.817-18.542-11.6-43.46-18.248S93.421,555.206,92.505,558.638Z" transform="translate(-88.155 -556.036)" fill="#27272e"/>
        </g>
        <g id="Grupo_1232111" data-name="Grupo 1232111" transform="translate(149.712 138.681)">
          <g id="Grupo_1232110" data-name="Grupo 1232110" transform="translate(0 0)" clip-path="url(#clip-path-2)">
            <g id="Grupo_1232055" data-name="Grupo 1232055" transform="translate(96.638 17.033)">
              <g id="Grupo_1232049" data-name="Grupo 1232049">
                <path id="Trazado_1234316" data-name="Trazado 1234316" d="M1542.749,268.917a1.114,1.114,0,0,0-1.485.52l-2.792,5.788a1.114,1.114,0,1,0,2.006.967l2.792-5.788A1.116,1.116,0,0,0,1542.749,268.917Z" transform="translate(-1506.835 -266.875)" fill="#ffcd05"/>
                <path id="Trazado_1234317" data-name="Trazado 1234317" d="M1611.321,373.673a1.11,1.11,0,0,0,.85.049l6.068-2.12a1.114,1.114,0,0,0-.734-2.1l-6.068,2.121a1.118,1.118,0,0,0-.683,1.421A1.1,1.1,0,0,0,1611.321,373.673Z" transform="translate(-1568.623 -352.839)" fill="#ffcd05"/>
                <path id="Trazado_1234318" data-name="Trazado 1234318" d="M1614.6,481.788a1.109,1.109,0,0,0,.662.536l6.167,1.811a1.114,1.114,0,0,0,.629-2.138l-6.168-1.811a1.118,1.118,0,0,0-1.383.756A1.1,1.1,0,0,0,1614.6,481.788Z" transform="translate(-1571.846 -447.411)" fill="#ffcd05"/>
                <path id="Trazado_1234319" data-name="Trazado 1234319" d="M1322.958,331.128a1.11,1.11,0,0,1,.831.185l5.257,3.7a1.114,1.114,0,0,1-1.281,1.823l-5.257-3.7a1.113,1.113,0,0,1,.45-2.008Z" transform="translate(-1322.037 -320.1)" fill="#ffcd05"/>
                <path id="Trazado_1234320" data-name="Trazado 1234320" d="M1421.077,256.3a1.114,1.114,0,0,0-2.1.735l2.194,6.282a1.114,1.114,0,0,0,2.1-.736Z" transform="translate(-1404.793 -255.556)" fill="#ffcd05"/>
              </g>
              <g id="Grupo_1232054" data-name="Grupo 1232054" transform="translate(3.633 10.16)">
                <g id="Grupo_1232050" data-name="Grupo 1232050" transform="translate(3.099)">
                  <path id="Trazado_1234321" data-name="Trazado 1234321" d="M1400.626,350.03a17.256,17.256,0,1,0-31.086-14.993c-4.1,8.5,2.895,16.61,1,20.537l-.415.862a7.434,7.434,0,0,0,13.391,6.458l.415-.862C1385.587,358.6,1396.7,358.161,1400.626,350.03Z" transform="translate(-1368.228 -325.271)" fill="#ffcd05"/>
                  <path id="Trazado_1234322" data-name="Trazado 1234322" d="M1509.024,377.985c-3.627.659-7.412-3.457-8.455-9.193s1.053-10.921,4.679-11.58,7.412,3.457,8.454,9.194S1512.65,377.326,1509.024,377.985Z" transform="translate(-1481.054 -352.497)" fill="#ffdb52"/>
                  <path id="Trazado_1234323" data-name="Trazado 1234323" d="M1376.854,412.7c-.962-.106-1.579-1.661-1.379-3.474s1.142-3.2,2.1-3.09,1.58,1.662,1.38,3.474S1377.816,412.807,1376.854,412.7Z" transform="translate(-1374.386 -394.347)" fill="#ffdb52"/>
                  <path id="Trazado_1234324" data-name="Trazado 1234324" d="M1386.688,379.992c-.507-.153-.685-1.054-.4-2.011s.936-1.607,1.445-1.454.684,1.054.4,2.011S1387.2,380.146,1386.688,379.992Z" transform="translate(-1383.542 -369.038)" fill="#ffface"/>
                  <path id="Trazado_1234325" data-name="Trazado 1234325" d="M1569.788,400.81a.654.654,0,0,1-.21-.646,11.005,11.005,0,0,0-.969-7.63.655.655,0,0,1,1.16-.609,12.317,12.317,0,0,1,1.085,8.538.656.656,0,0,1-1.065.348Z" transform="translate(-1539.341 -381.91)" fill="#ffface"/>
                </g>
                <g id="Grupo_1232052" data-name="Grupo 1232052" transform="translate(7.86 21.475)">
                  <path id="Trazado_1234326" data-name="Trazado 1234326" d="M1402.827,543.5l-.345-.166a2.468,2.468,0,0,1-1.4-3.171l1.727-3.58a2.467,2.467,0,0,1,3.349-.882l.345.166a2.467,2.467,0,0,1,1.4,3.17l-1.727,3.581A2.468,2.468,0,0,1,1402.827,543.5Zm3.008-7.117a1.637,1.637,0,0,0-2.222.585l-1.727,3.581a1.637,1.637,0,0,0,.926,2.1l.345.166a1.638,1.638,0,0,0,2.223-.585l1.727-3.581a1.637,1.637,0,0,0-.926-2.1Z" transform="translate(-1400.894 -526.25)" fill="#d97a23"/>
                  <g id="Grupo_1232051" data-name="Grupo 1232051" transform="translate(2.725 0.558)">
                    <path id="Trazado_1234327" data-name="Trazado 1234327" d="M1419.759,485.556a.271.271,0,0,1-.163-.263l.969-8.65a.229.229,0,0,1,.291-.182.283.283,0,0,1,.239.288l-.969,8.65a.23.23,0,0,1-.291.182A.353.353,0,0,1,1419.759,485.556Z" transform="translate(-1419.594 -476.455)" fill="#d97a23"/>
                    <path id="Trazado_1234328" data-name="Trazado 1234328" d="M1431.416,494.27a.261.261,0,0,1-.154-.305l2.381-7.068a.245.245,0,0,1,.33-.126.265.265,0,0,1,.181.317l-2.381,7.069a.244.244,0,0,1-.329.126Z" transform="translate(-1429.553 -485.25)" fill="#d97a23"/>
                    <path id="Trazado_1234329" data-name="Trazado 1234329" d="M1447.5,513.621a.314.314,0,0,1-.066-.043.229.229,0,0,1-.038-.341l6.165-6.144a.283.283,0,0,1,.374.007.23.23,0,0,1,.039.341l-6.166,6.144A.271.271,0,0,1,1447.5,513.621Z" transform="translate(-1443.288 -502.571)" fill="#d97a23"/>
                    <path id="Trazado_1234330" data-name="Trazado 1234330" d="M1440.662,503.442l-.026-.014a.245.245,0,0,1-.107-.336l4.049-6.264a.265.265,0,0,1,.361-.056.245.245,0,0,1,.106.336L1441,503.372A.261.261,0,0,1,1440.662,503.442Z" transform="translate(-1437.45 -493.772)" fill="#d97a23"/>
                  </g>
                  <path id="Trazado_1234331" data-name="Trazado 1234331" d="M1437.406,515.68a.766.766,0,0,1-1.041.274l-1.935-.933a.766.766,0,0,1-.433-.985h0a.766.766,0,0,1,1.041-.274l1.935.933a.766.766,0,0,1,.433.985Z" transform="translate(-1429.121 -507.687)" fill="#d97a23"/>
                  <path id="Trazado_1234332" data-name="Trazado 1234332" d="M1426.691,474.682l-.115-.058a2.86,2.86,0,0,1-1.417-1.533.342.342,0,0,1,.281-.457.5.5,0,0,1,.543.314,1.915,1.915,0,0,0,.954,1.01,2.384,2.384,0,0,0,1.675.233.5.5,0,0,1,.542.223,2.815,2.815,0,0,0,2.805,1.342.5.5,0,0,1,.51.333,1.641,1.641,0,0,0,.748.79,2.392,2.392,0,0,0,1.651.308.5.5,0,0,1,.548.3.341.341,0,0,1-.269.463,3.4,3.4,0,0,1-2.333-.433,2.875,2.875,0,0,1-1.021-.968,3.831,3.831,0,0,1-3.188-1.539A3.408,3.408,0,0,1,1426.691,474.682Z" transform="translate(-1421.605 -472.628)" fill="#d97a23"/>
                </g>
                <g id="Grupo_1232053" data-name="Grupo 1232053" transform="translate(0 30.164)">
                  <path id="Trazado_1234333" data-name="Trazado 1234333" d="M1367.925,591.831c-1.125,2.331-4.749,2.913-8.1,1.3s-5.147-4.812-4.023-7.143,4.748-2.913,8.094-1.3S1369.049,589.5,1367.925,591.831Z" transform="translate(-1354.232 -576.264)" fill="#636b76"/>
                  <path id="Trazado_1234334" data-name="Trazado 1234334" d="M1360.562,537.408l-2.958,6.133a7.409,7.409,0,0,0-.711,2.592c2.463,1.188,9.112,4.681,12.312,6.224A7.406,7.406,0,0,0,1371,550l2.958-6.133Z" transform="translate(-1355.446 -536.655)" fill="#b4b4b5"/>
                  <path id="Trazado_1234335" data-name="Trazado 1234335" d="M1389.186,540.254a1.233,1.233,0,0,1-1.645.575l-12.947-6.245a1.232,1.232,0,0,1-.575-1.645h0a1.232,1.232,0,0,1,1.645-.574l12.947,6.244a1.232,1.232,0,0,1,.575,1.645Z" transform="translate(-1369.971 -532.242)" fill="#e8e8e8"/>
                  <path id="Trazado_1234336" data-name="Trazado 1234336" d="M1375.725,568.174a1.233,1.233,0,0,1-1.645.574l-12.947-6.244a1.233,1.233,0,0,1-.575-1.646h0a1.232,1.232,0,0,1,1.646-.574l12.947,6.245a1.233,1.233,0,0,1,.575,1.645Z" transform="translate(-1358.472 -556.093)" fill="#e8e8e8"/>
                  <path id="Trazado_1234337" data-name="Trazado 1234337" d="M1362.255,596.1a1.232,1.232,0,0,1-1.646.575l-12.947-6.245a1.232,1.232,0,0,1-.575-1.645h0a1.232,1.232,0,0,1,1.645-.574l12.948,6.244a1.233,1.233,0,0,1,.575,1.645Z" transform="translate(-1346.965 -579.946)" fill="#e8e8e8"/>
                </g>
              </g>
            </g>
            <g id="Grupo_1232056" data-name="Grupo 1232056" transform="translate(56.117 33.977)">
              <path id="Trazado_1234338" data-name="Trazado 1234338" d="M1166.19,553.277s4.358,13.391,5.381,16.334c1.446,3.026,3.657,1.874,3.015-.867-.491-2.1-5.291-16.95-5.291-16.95Z" transform="translate(-1148.381 -525.565)" fill="#4f504d"/>
              <path id="Trazado_1234339" data-name="Trazado 1234339" d="M1170.37,560.708l.587,1.7s.1-1.339.955-1.762,1.617.83,1.617.83l-.508-1.938Z" transform="translate(-1151.952 -532.182)" fill="#2e302e"/>
              <path id="Trazado_1234340" data-name="Trazado 1234340" d="M1052.294,373.35a14.575,14.575,0,1,0,19.431,6.878A14.574,14.574,0,0,0,1052.294,373.35Zm13.661,24.885a13.338,13.338,0,1,1,6.3-17.782A13.338,13.338,0,0,1,1065.955,398.235Z" transform="translate(-1043.993 -371.91)" fill="#0087b9"/>
              <path id="Trazado_1234341" data-name="Trazado 1234341" d="M1125.49,387.271a12.147,12.147,0,0,1,7.049,22.974c-.29.138-.588.253-.884.367a12.142,12.142,0,1,0-6.165-23.34Z" transform="translate(-1113.613 -384.327)" fill="#0077a4"/>
              <path id="Trazado_1234342" data-name="Trazado 1234342" d="M1092.319,398.19a9.919,9.919,0,0,0-13.885-6.165,11.824,11.824,0,0,0,9.334,21.709A12.145,12.145,0,0,0,1092.319,398.19Z" transform="translate(-1067.659 -388.467)" fill="#9cd5ef" opacity="0.3"/>
              <path id="Trazado_1234343" data-name="Trazado 1234343" d="M1065.964,373.193a14.09,14.09,0,1,0,18.783,6.65A14.086,14.086,0,0,0,1065.964,373.193Zm11.509,24.124a12.639,12.639,0,1,1,5.963-16.848A12.636,12.636,0,0,1,1077.473,397.317Z" transform="translate(-1055.904 -371.816)" fill="#49c8f5"/>
              <path id="Trazado_1234344" data-name="Trazado 1234344" d="M1069.376,374.207a13.423,13.423,0,0,0-6.494,18.246,13.766,13.766,0,1,0,6.494-18.246Zm10.514,22.652a11.194,11.194,0,1,1,5.282-14.923A11.192,11.192,0,0,1,1079.89,396.859Z" transform="translate(-1058.927 -372.652)" fill="#00a3d5"/>
              <path id="Trazado_1234345" data-name="Trazado 1234345" d="M1132.338,404.694c-1.306.275-1.475,1.754-.312,1.579s5.273-1.061,8.354,2.279c1.145.953,1.863-.241.929-1.209S1136.324,403.861,1132.338,404.694Z" transform="translate(-1118.531 -399.76)" fill="#fff" opacity="0.7"/>
            </g>
            <g id="Grupo_1232063" data-name="Grupo 1232063" transform="translate(75.133 30.694)">
              <g id="Grupo_1232062" data-name="Grupo 1232062">
                <g id="Grupo_1232061" data-name="Grupo 1232061">
                  <g id="Grupo_1232057" data-name="Grupo 1232057" transform="translate(0.149 34.483)">
                    <path id="Trazado_1234346" data-name="Trazado 1234346" d="M1188.666,588.2s1.822,4.377-.545,7.29c-2.863,3.525-10.459,1.577-12.113-1.586-1.424-2.723.591-7.75.547-8.01C1181.981,588.813,1188.666,588.2,1188.666,588.2Z" transform="translate(-1175.498 -585.899)" fill="#f8c1d9"/>
                    <path id="Trazado_1234347" data-name="Trazado 1234347" d="M1178.728,585.9c.02.116-.374,1.191-.686,2.586,2.236,2.551,9.376,3.979,12.841,2.48a3.715,3.715,0,0,0,.561-.294,10.237,10.237,0,0,0-.6-2.465S1184.154,588.813,1178.728,585.9Z" transform="translate(-1177.671 -585.898)" fill="#f6afce"/>
                    <path id="Trazado_1234348" data-name="Trazado 1234348" d="M1179.958,618.625a2.806,2.806,0,0,0,.421,2.994c.825,1.148,5.356,3.605,6.1,1.937C1186.79,622.872,1181.089,616.846,1179.958,618.625Z" transform="translate(-1179.082 -613.576)" fill="#fbd9e8"/>
                  </g>
                  <g id="Grupo_1232058" data-name="Grupo 1232058" transform="translate(1.514 6.884)">
                    <path id="Trazado_1234349" data-name="Trazado 1234349" d="M1197.8,424.625a76.84,76.84,0,0,1,5.319-23.673c-2.283.167-7.92-1.126-10.359-4.424-6.059,12.216-8.036,22.4-7.892,27.042A14.9,14.9,0,0,0,1197.8,424.625Z" transform="translate(-1184.863 -396.529)" fill="#f6afce"/>
                    <path id="Trazado_1234350" data-name="Trazado 1234350" d="M1185.272,547.615a27.885,27.885,0,0,0-.405,5.023,14.9,14.9,0,0,0,12.932,1.054s.054-1.4.316-3.7C1194.643,551.1,1187.8,549.827,1185.272,547.615Z" transform="translate(-1184.86 -525.596)" fill="#f391bc"/>
                    <path id="Trazado_1234351" data-name="Trazado 1234351" d="M1255.074,448.947a76.924,76.924,0,0,1,5.313-23.542,10.8,10.8,0,0,1-2.75-.252c-4.375,10.114-5.856,18.344-5.732,22.385A14.816,14.816,0,0,0,1255.074,448.947Z" transform="translate(-1242.128 -420.981)" fill="#f06fa9"/>
                    <path id="Trazado_1234352" data-name="Trazado 1234352" d="M1255.38,563.935a11.065,11.065,0,0,1-3.444.4c-.039.652-.05,1.24-.034,1.758a14.826,14.826,0,0,0,3.169,1.409C1255.09,567.107,1255.164,565.826,1255.38,563.935Z" transform="translate(-1242.125 -539.538)" fill="#ee4d99"/>
                    <path id="Trazado_1234353" data-name="Trazado 1234353" d="M1187.334,423.163a103.649,103.649,0,0,1,7.413-24.756,8.424,8.424,0,0,1-1.983-1.877c-6.059,12.216-8.036,22.4-7.892,27.042.205.122.41.236.615.345A9.485,9.485,0,0,0,1187.334,423.163Z" transform="translate(-1184.864 -396.53)" fill="#f391bc"/>
                    <path id="Trazado_1234354" data-name="Trazado 1234354" d="M1185.485,552.983a9.457,9.457,0,0,0,1.848-.755s.153-1.143.556-3.142a8.98,8.98,0,0,1-2.613-1.471q-.03.191-.058.378s0,0,0,0q-.027.185-.053.367a.024.024,0,0,0,0,0c-.1.732-.177,1.414-.226,2.043,0,.006,0,.012,0,.017-.007.095-.014.187-.02.28,0,.02,0,.038,0,.058-.005.078-.01.154-.014.231,0,.026,0,.052,0,.077q-.005.1-.01.2c0,.03,0,.059,0,.088,0,.062,0,.124-.007.184,0,.031,0,.062,0,.093q0,.087,0,.172c0,.031,0,.062,0,.093,0,.056,0,.111,0,.166,0,.03,0,.06,0,.088,0,.058,0,.114,0,.17,0,.025,0,.05,0,.075,0,.08,0,.158.005.235q.155.091.308.177T1185.485,552.983Z" transform="translate(-1184.863 -525.596)" fill="#f179af"/>
                    <path id="Trazado_1234355" data-name="Trazado 1234355" d="M1205.78,443.622c.39-4.068,2.961-12.929,5.968-19.381C1208.345,433.736,1205.78,443.622,1205.78,443.622Z" transform="translate(-1202.731 -420.202)" fill="#fbd7e7"/>
                    <path id="Trazado_1234356" data-name="Trazado 1234356" d="M1252.19,453.757a53.3,53.3,0,0,1,5.029-18.635A103.345,103.345,0,0,0,1252.19,453.757Z" transform="translate(-1242.377 -429.498)" fill="#fbd7e7"/>
                  </g>
                  <g id="Grupo_1232059" data-name="Grupo 1232059" transform="translate(0 29.517)">
                    <path id="Trazado_1234357" data-name="Trazado 1234357" d="M1188.077,561.106a3.313,3.313,0,0,0,2.031-3c.237-1.783.292-3.6-.889-3.851-3.488,1.146-10.5-.162-12.974-2.427-1.18-.25-2.392,4.455-1.412,6.231C1176.432,560.958,1184.365,562.712,1188.077,561.106Z" transform="translate(-1174.474 -551.822)" fill="#59c8e3"/>
                    <path id="Trazado_1234358" data-name="Trazado 1234358" d="M1177.76,582.78c1.649,1.656,6.726,3.055,8.771,2.475,1.891-.536,1.9-2.179-.129-2.32a17.575,17.575,0,0,1-8.338-2.192C1177.065,580.116,1176.859,581.875,1177.76,582.78Z" transform="translate(-1176.792 -576.415)" fill="#9fdcf4"/>
                    <path id="Trazado_1234359" data-name="Trazado 1234359" d="M1197.16,565.986c.887-2.249.754-3.522-2.631-4.051s-8.371-1.777-9.189-3.529c3.08,1.647,8.821,3.278,13.107,2.048C1199.721,562.742,1198.3,565.954,1197.16,565.986Z" transform="translate(-1183.757 -557.446)" fill="#28a0bc"/>
                  </g>
                  <g id="Grupo_1232060" data-name="Grupo 1232060" transform="translate(9.398)">
                    <path id="Trazado_1234360" data-name="Trazado 1234360" d="M1238.976,356.176c-.155.825.926,2.293,4.1,3.822,2.908,1.4,5.893,1.467,6.253.6-.3-3.624-.758-8.935-.922-10.8-.036-.412-.308-.671-.7-.383C1245.764,350.854,1239.864,355.239,1238.976,356.176Z" transform="translate(-1238.962 -349.291)" fill="#ffda94"/>
                    <path id="Trazado_1234361" data-name="Trazado 1234361" d="M1243.243,399.2c-2.946-1.417-4.088-2.78-4.117-3.63-.056.052-.1.1-.142.139-.155.825.926,2.293,4.1,3.822,2.908,1.4,5.893,1.467,6.253.6,0-.039-.006-.078-.009-.118C1248.587,400.644,1245.882,400.471,1243.243,399.2Z" transform="translate(-1238.968 -388.827)" fill="#ef58a0"/>
                    <path id="Trazado_1234362" data-name="Trazado 1234362" d="M1282.229,352.931a3.761,3.761,0,0,0,2.082.489c-.013-.152-.026-.3-.037-.451-.117-1.35-.216-2.491-.276-3.174-.036-.412-.308-.671-.7-.383-.6.443-1.572,1.164-2.658,1.979l-.023.017A2.7,2.7,0,0,0,1282.229,352.931Z" transform="translate(-1274.548 -349.29)" fill="#383b40"/>
                    <path id="Trazado_1234363" data-name="Trazado 1234363" d="M1285.839,353.026c-.05-.441-2.39,1.465-2.284,1.834S1285.848,353.111,1285.839,353.026Z" transform="translate(-1277.053 -352.425)" fill="#adb7c7"/>
                    <path id="Trazado_1234364" data-name="Trazado 1234364" d="M1248.6,368.747c.022-.487-5.224,3.627-5.1,4.758C1243.549,373.925,1248.553,369.865,1248.6,368.747Z" transform="translate(-1242.839 -365.877)" fill="#ffefce"/>
                    <path id="Trazado_1234365" data-name="Trazado 1234365" d="M1257.251,375.149c.142-.467-4.381,4.335-4.289,4.72A36.264,36.264,0,0,0,1257.251,375.149Z" transform="translate(-1250.92 -371.354)" fill="#fbb25b"/>
                    <path id="Trazado_1234366" data-name="Trazado 1234366" d="M1297.456,382.356a40.84,40.84,0,0,1-.185,6.169A26.2,26.2,0,0,1,1297.456,382.356Z" transform="translate(-1288.684 -377.516)" fill="#fbb25b"/>
                    <path id="Trazado_1234367" data-name="Trazado 1234367" d="M1274.818,378.764a37.675,37.675,0,0,0-2.46,5.392A58.125,58.125,0,0,0,1274.818,378.764Z" transform="translate(-1267.489 -374.445)" fill="#e2843f"/>
                  </g>
                </g>
              </g>
            </g>
            <g id="Grupo_1232066" data-name="Grupo 1232066" transform="translate(62.543 55.223)">
              <path id="Trazado_1234368" data-name="Trazado 1234368" d="M1259.95,947.845l.11-1.568.36.176c1.17-1.786,4.411-3.642,8.472-4.652s7.79-.891,9.66.139l.249-.277.886,1.436h0a1.493,1.493,0,0,1,.071.22c.549,2.2-3.431,5.083-8.885,6.439s-10.325.68-10.874-1.521A1.712,1.712,0,0,1,1259.95,947.845Z" transform="translate(-1234.903 -879.381)" fill="#0d5880"/>
              <path id="Trazado_1234369" data-name="Trazado 1234369" d="M1279.565,935.33c.5,2.006-3.308,4.675-8.5,5.966s-9.809.72-10.309-1.284,3.31-4.669,8.5-5.962S1279.068,933.333,1279.565,935.33Z" transform="translate(-1235.556 -872.767)" fill="#2d7eaa"/>
              <path id="Trazado_1234370" data-name="Trazado 1234370" d="M1286.433,941.605c4.556-1.134,7.893-3.477,7.457-5.23a2.068,2.068,0,0,0-1.437-1.291c2.119.09,3.622.69,3.877,1.718.437,1.756-2.9,4.1-7.458,5.233-3.093.77-5.95.781-7.6.163A18.558,18.558,0,0,0,1286.433,941.605Z" transform="translate(-1253.114 -874.24)" fill="#4594bf"/>
              <path id="Trazado_1234371" data-name="Trazado 1234371" d="M1308.386,935.159c-.819.2-1.544.114-1.747-.7l-.545-2.674a1.526,1.526,0,0,1,2.961-.736l.545,2.674C1309.8,934.535,1309.2,934.955,1308.386,935.159Z" transform="translate(-1274.283 -869.803)" fill="#0d5880"/>
              <path id="Trazado_1234372" data-name="Trazado 1234372" d="M1213.449,595.933a29.8,29.8,0,0,1-16.667-.641.914.914,0,1,1,.577-1.736A28.071,28.071,0,1,0,1213,539.681a.918.918,0,0,1,.444-1.781,29.9,29.9,0,0,1,0,58.034Z" transform="translate(-1180.406 -534.919)" fill="#2d7eaa"/>
              <path id="Trazado_1234373" data-name="Trazado 1234373" d="M1188.205,581.339a1.527,1.527,0,0,1-1.83-1.911l17.62-60.73a1.525,1.525,0,1,1,2.928.85l-17.62,60.734A1.527,1.527,0,0,1,1188.205,581.339Z" transform="translate(-1171.999 -517.597)" fill="#0d5880"/>
              <path id="Trazado_1234374" data-name="Trazado 1234374" d="M1138.96,579.6a25.816,25.816,0,1,1-31.287-18.815A25.815,25.815,0,0,1,1138.96,579.6Z" transform="translate(-1088.087 -553.837)" fill="#d4effc"/>
              <path id="Trazado_1234375" data-name="Trazado 1234375" d="M1155.242,629a23.662,23.662,0,0,0,12.512-38.041,23.655,23.655,0,1,1-28.372,36.453A23.554,23.554,0,0,0,1155.242,629Z" transform="translate(-1131.906 -580.266)" fill="#a5dff9"/>
              <path id="Trazado_1234376" data-name="Trazado 1234376" d="M1130.088,569.643c1.4,3.89,6.974,5.859,10.032,4.466s5.531,1.669,6.63,2.595-4.281,5.089-2.516,6.937-5.158,9.008-10.155,13.409-2.211,8.164-4.31,8.475-6.494-8.617-6.153-10.335.736-3.12-1.836-3.568-.495-5.751-1.556-6.249-2.576,1.181-2.368-1.044.59-3.3-2.48-3.408-2.992-4.587-.094-8.682,5.156-4.965,7.688-5.4C1124.546,566.576,1128.683,565.748,1130.088,569.643Zm.743-9.2c-1.686,1.007-2.962,3.337-1.687,5.408s5.884,5.283,10.417,3.827,3.349,1.282,3.661,2.9,2.327,3.228,5.679,3.156-1.695,4.775-.8,6.072,7.249,2.336,8.7,3.82-1.756,6.935-1.244,8.128a27.249,27.249,0,0,0,2.406,4.413,25.811,25.811,0,0,0-27.137-37.721Zm4.687,47.016c-1.576,1.809,8.612.688,9.9-1.591s-2.378-4.739-3.5-6.2,1.282-3.584-.59-2.37a6.692,6.692,0,0,0-2.906,6.5C1138.94,606.173,1137.092,605.656,1135.518,607.459Z" transform="translate(-1109.447 -553.867)" fill="#00a8be"/>
              <g id="Grupo_1232065" data-name="Grupo 1232065" transform="translate(17.676 10.691)">
                <g id="Grupo_1232064" data-name="Grupo 1232064">
                  <path id="Trazado_1234377" data-name="Trazado 1234377" d="M1339.24,609.455a23.677,23.677,0,0,0-5.183-18.5,23.641,23.641,0,0,1,11.307,31.311c-.422-.812-.831-1.645-1.039-2.118-.513-1.193,2.7-6.639,1.244-8.128C1344.6,611.039,1341.491,610.25,1339.24,609.455Z" transform="translate(-1315.885 -590.957)" fill="#0094ab"/>
                  <path id="Trazado_1234378" data-name="Trazado 1234378" d="M1266.012,831.481c1.573-1.8,3.421-1.285,2.9-3.659a5.788,5.788,0,0,1,.528-3.7,22.526,22.526,0,0,0,2.7-1.828,1.676,1.676,0,0,0,.269,1.393c1.125,1.463,4.785,3.924,3.5,6.2S1264.437,833.29,1266.012,831.481Z" transform="translate(-1257.617 -788.58)" fill="#0094ab"/>
                  <path id="Trazado_1234379" data-name="Trazado 1234379" d="M1213.065,854.74c-.156,1.425-.038,2.373-1.047,2.523-.711.1-1.682-.854-2.646-2.225A23.178,23.178,0,0,0,1213.065,854.74Z" transform="translate(-1209.372 -816.297)" fill="#0094ab"/>
                </g>
              </g>
            </g>
            <path id="Trazado_1234380" data-name="Trazado 1234380" d="M1112.205,191.446l2.579-4.069,4.815-.181-3.072-3.711,1.316-4.633-4.48,1.775-4-2.683.3,4.808-3.788,2.977,4.665,1.2Z" transform="translate(-1040.744 -172.221)" fill="#ffdb00"/>
            <path id="Trazado_1234381" data-name="Trazado 1234381" d="M1666.442,255a3.258,3.258,0,0,1-2.886-2.886c-.095-1.209-.9-6.534-.9-6.534s-.692,5.342-.908,6.534a3.208,3.208,0,0,1-2.883,2.886c-1.2.164-6.531.909-6.531.909s5.329.75,6.531.908a3.093,3.093,0,0,1,2.881,2.886c.161,1.2.909,6.535.909,6.535s.786-5.33.909-6.535a3.161,3.161,0,0,1,2.88-2.889c1.2-.133,6.531-.908,6.531-.9S1667.646,255.144,1666.442,255Z" transform="translate(-1507.557 -230.003)" fill="#0077c0"/>
            <path id="Trazado_1234382" data-name="Trazado 1234382" d="M963,563.474a1.8,1.8,0,1,1-1.8-1.8A1.8,1.8,0,0,1,963,563.474Z" transform="translate(-915.607 -500.024)" fill="#00b588"/>
            <path id="Trazado_1234383" data-name="Trazado 1234383" d="M1320.055,209.982a2.732,2.732,0,1,1-2.732-2.732A2.732,2.732,0,0,1,1320.055,209.982Z" transform="translate(-1219.038 -197.257)" fill="#00b588"/>
            <path id="Trazado_1234384" data-name="Trazado 1234384" d="M1707.945,717.667a2.732,2.732,0,1,1-2.731-2.732A2.731,2.731,0,0,1,1707.945,717.667Z" transform="translate(-1550.398 -630.953)" fill="#f05123"/>
            <path id="Trazado_1234385" data-name="Trazado 1234385" d="M1739.465,408.753a1.8,1.8,0,1,1-1.8-1.8A1.8,1.8,0,0,1,1739.465,408.753Z" transform="translate(-1578.91 -367.852)" fill="#7a74b6"/>
            <path id="Trazado_1234386" data-name="Trazado 1234386" d="M1078.7,290.759a1.8,1.8,0,1,1-1.8-1.8A1.8,1.8,0,0,1,1078.7,290.759Z" transform="translate(-1014.439 -267.054)" fill="#f05123"/>
            <path id="Trazado_1234387" data-name="Trazado 1234387" d="M724.907,617.586a1.8,1.8,0,1,1-1.8-1.8A1.8,1.8,0,0,1,724.907,617.586Z" transform="translate(-712.212 -546.25)" fill="#f05123"/>
            <g id="Grupo_1232068" data-name="Grupo 1232068" transform="translate(100.542 85.275)">
              <g id="Grupo_1232067" data-name="Grupo 1232067">
                <path id="Trazado_1234388" data-name="Trazado 1234388" d="M1385.724,729.712c.4-.281-14.144-5.258-16.754-5.907-6.466.679-18.669,3.917-18.214,4.449,4.535,2.02,13.082,6.073,14.2,6.144S1385.153,730.114,1385.724,729.712Z" transform="translate(-1350.463 -723.805)" fill="#9fcc3b"/>
                <path id="Trazado_1234389" data-name="Trazado 1234389" d="M1468.99,764.337s.822,21.48.427,22c-1.057,1.115-19.639,5.665-20.589,5.623-.352-8.273-.678-21.98-.6-22.932C1452.291,767.423,1468.99,764.337,1468.99,764.337Z" transform="translate(-1433.729 -758.43)" fill="#50b248"/>
                <path id="Trazado_1234390" data-name="Trazado 1234390" d="M1349.112,754.329c-.365.281-.4,22.414-.043,22.948s14.279,6.218,14.849,6.128-.419-22.462-.6-22.932S1349.112,754.329,1349.112,754.329Z" transform="translate(-1348.82 -749.88)" fill="#0e9448"/>
                <path id="Trazado_1234391" data-name="Trazado 1234391" d="M1447.485,796.242c-.408-1.176.183,22.534.6,22.932S1448.257,798.462,1447.485,796.242Z" transform="translate(-1432.988 -785.649)" fill="#abd06d"/>
                <path id="Trazado_1234392" data-name="Trazado 1234392" d="M1469.056,764.337s-11.928,1.2-20.765,4.686C1452.788,768.43,1469.056,764.337,1469.056,764.337Z" transform="translate(-1433.794 -758.43)" fill="#c6de8b"/>
                <path id="Trazado_1234393" data-name="Trazado 1234393" d="M1350.82,754.329c.527.666,13.078,5.9,14.2,6.144C1363.253,758.891,1350.82,754.329,1350.82,754.329Z" transform="translate(-1350.529 -749.88)" fill="#c6de8b"/>
              </g>
              <path id="Trazado_1234394" data-name="Trazado 1234394" d="M1498.92,808.031a4.191,4.191,0,0,1,1.019,1.443,5,5,0,0,1,.411,1.905,5.7,5.7,0,0,1-.61,2.712,6.581,6.581,0,0,1-1.833,2.251,7.061,7.061,0,0,1-2.685,1.328,4.178,4.178,0,0,1-2.474,0,3.563,3.563,0,0,1-1.765-1.539l1.679-3.282a2.735,2.735,0,0,0,1.085,1,1.878,1.878,0,0,0,1.3.109,2.041,2.041,0,0,0,1.166-.787,2.149,2.149,0,0,0,.424-1.364,1.441,1.441,0,0,0-.453-1.091,1.069,1.069,0,0,0-1.037-.232,2.791,2.791,0,0,0-.8.337,4.717,4.717,0,0,0-.789.663l-.919-2.274,2.4-2.911-3.954,1.068-.083-3.29,8.633-2.229.149,3.158-2.246,2.338A2.662,2.662,0,0,1,1498.92,808.031Z" transform="translate(-1470.265 -790.48)" fill="#f05123"/>
            </g>
            <g id="Grupo_1232072" data-name="Grupo 1232072" transform="translate(13.102 69.184)">
              <g id="Grupo_1232071" data-name="Grupo 1232071">
                <g id="Grupo_1232069" data-name="Grupo 1232069" transform="translate(0 2.348)">
                  <path id="Trazado_1234395" data-name="Trazado 1234395" d="M782.337,631.559c-.524-2.417-8.442-2.747-17.684-.737s-16.308,5.6-15.782,8.014,8.442,2.747,17.685.738S782.864,633.976,782.337,631.559Z" transform="translate(-748.844 -629.506)" fill="#be742b"/>
                  <path id="Trazado_1234396" data-name="Trazado 1234396" d="M775.892,639.589c-6.75,1.467-12.791,1.686-15.764.756l-.356-.76a82.879,82.879,0,0,0,19.868-4.322c9.868-3.6,5.37-4.953-.312-5.352,6.775-.865,11.927-.271,12.345,1.662C792.2,633.991,785.134,637.581,775.892,639.589Z" transform="translate(-758.179 -629.521)" fill="#9b5326"/>
                </g>
                <g id="Grupo_1232070" data-name="Grupo 1232070" transform="translate(0 2.348)">
                  <path id="Trazado_1234397" data-name="Trazado 1234397" d="M782.337,631.559c-.524-2.417-8.442-2.747-17.684-.737s-16.308,5.6-15.782,8.014,8.442,2.747,17.685.738S782.864,633.976,782.337,631.559Z" transform="translate(-748.844 -629.506)" fill="#be742b"/>
                  <path id="Trazado_1234398" data-name="Trazado 1234398" d="M769.936,644.488c-6.462,1.4-12.245,1.613-15.09.723l-1.229-1.984a60.657,60.657,0,0,0,18.44-3.471c9.447-3.448.739-2.921-4.7-3.3,8.2-1.82,17.284-1.488,17.684.363C785.547,639.13,778.783,642.566,769.936,644.488Z" transform="translate(-752.922 -634.409)" fill="#9b5326"/>
                </g>
                <path id="Trazado_1234399" data-name="Trazado 1234399" d="M893.792,827.082a1.268,1.268,0,0,0-1.509-.969h0a1.266,1.266,0,0,0-.971,1.508l1.332,6.124a1.27,1.27,0,0,0,1.51.971h0a1.27,1.27,0,0,0,.971-1.51Z" transform="translate(-870.523 -795.086)" fill="#febc18"/>
                <path id="Trazado_1234400" data-name="Trazado 1234400" d="M896.712,842.129a1,1,0,0,0-1.19-.764.985.985,0,0,0-.26.1l-.627-2.879a1,1,0,0,1,1.957-.425l1.051,4.829a1,1,0,0,1-.505,1.09Z" transform="translate(-873.367 -804.732)" fill="#f09624"/>
                <path id="Trazado_1234401" data-name="Trazado 1234401" d="M780.948,664.427c-.162,9.991-6.978,11.547-8.509,11.77-1.485.432-8.332,1.848-12.625-7.173-4.842-10.162-6.5-10.928-9.352-13.3l-.44-2.349s3.141,1.9,17.2-1.158,16.131-6.09,16.131-6.09l.575,2.321C782.326,651.786,781.132,653.173,780.948,664.427Z" transform="translate(-749.851 -641.354)" fill="#ffcf01"/>
                <path id="Trazado_1234402" data-name="Trazado 1234402" d="M752.109,664.361a62.921,62.921,0,0,0,33.469-7.277l-.184-.847a64.168,64.168,0,0,1-33.443,7.273Z" transform="translate(-751.498 -649.993)" fill="#e59725"/>
                <path id="Trazado_1234403" data-name="Trazado 1234403" d="M814.932,772.171a18.876,18.876,0,0,1-1.26-2.26c-.21-.434-.407-.846-.6-1.245a65.643,65.643,0,0,0,21.76-4.443c-.009.354-.016.716-.023,1.092a18.14,18.14,0,0,1-.317,3.177A51.734,51.734,0,0,1,814.932,772.171Z" transform="translate(-803.709 -742.241)" fill="#e38926"/>
                <path id="Trazado_1234404" data-name="Trazado 1234404" d="M774.873,723.981a15.421,15.421,0,0,1,5.9,8.081S781.321,725.455,774.873,723.981Z" transform="translate(-771.079 -707.864)" fill="#f7f5f2" opacity="0.5"/>
                <path id="Trazado_1234405" data-name="Trazado 1234405" d="M884.673,660.734c-1.468,3.056-2.56,4.325-2.728,14.617-.148,9.138-6.382,10.56-7.783,10.764a8.774,8.774,0,0,1-5.088-.126c10.52-.109,11.674-7.488,11.461-12.234A28.594,28.594,0,0,1,881.6,663.62a7.173,7.173,0,0,0,.371-3.465,6.509,6.509,0,0,0,2.18-1.544Z" transform="translate(-851.552 -652.021)" fill="#b47921" opacity="0.2"/>
                <path id="Trazado_1234406" data-name="Trazado 1234406" d="M749.476,638.466c.246-.461,1.133-1.451,3.693-2.75a50.724,50.724,0,0,1,11.7-3.9c6.382-1.389,12.489-1.731,15.556-.871a3.586,3.586,0,0,1,1.2.525c-1.114.868-4.892,3.178-15.634,5.512-10.857,2.362-15.233,1.79-16.515,1.48Zm.106.921c1.4.394,5.746,1,16.635-1.369,14.061-3.056,16.131-6.09,16.131-6.09l.005.021a1.246,1.246,0,0,0-.017-.39c-.15-.694-.912-1.216-2.138-1.56-3.044-.853-8.959-.61-15.546.824-9.241,2.009-16.308,5.6-15.782,8.014a1.214,1.214,0,0,0,.149.365l0-.025a2.588,2.588,0,0,0,.568.211Zm32.774-7.438h0Z" transform="translate(-748.843 -627.157)" fill="#ffe47c"/>
                <path id="Trazado_1234407" data-name="Trazado 1234407" d="M839.319,620.173l.639,2.672-3.017.662-.684-2.669a3.766,3.766,0,1,1,3.062-.665Z" transform="translate(-820.984 -613.392)" fill="#ffcd55"/>
                <path id="Trazado_1234408" data-name="Trazado 1234408" d="M859.527,671.671l-3,.658-.325-1.114c.357-.075,2.515-.523,3.129-.667Z" transform="translate(-840.553 -662.218)" fill="#eab63a"/>
                <path id="Trazado_1234409" data-name="Trazado 1234409" d="M853.534,617.967c.176-.628-.548-1.379-1.618-1.678s-2.081-.036-2.257.592.549,1.379,1.62,1.679S853.358,618.593,853.534,617.967Z" transform="translate(-834.943 -615.761)" fill="#fff1b9"/>
                <path id="Trazado_1234410" data-name="Trazado 1234410" d="M848.551,656.43c.044-.156-.134-.341-.4-.415s-.515-.009-.559.146.136.339.4.414S848.508,656.584,848.551,656.43Z" transform="translate(-833.196 -649.777)" fill="#fff1b9"/>
              </g>
            </g>
            <g id="Grupo_1232075" data-name="Grupo 1232075" transform="translate(45.824 54.578)">
              <path id="Trazado_1234411" data-name="Trazado 1234411" d="M975.885,566.828l-2.515-26.974s10.892-23.033,13.1-26.679c.032,6.936,1.08,31.714,1.08,31.714Z" transform="translate(-973.37 -513.175)" fill="#7a74b6"/>
              <path id="Trazado_1234412" data-name="Trazado 1234412" d="M990.63,750c.849,3.324,9.9,4.991,13.076,1.84s12.8-22.836,12.8-22.836a12.355,12.355,0,0,1-14.364-1.408C996.86,737.463,993.325,744.415,990.63,750Z" transform="translate(-988.115 -696.345)" fill="#645faa"/>
              <path id="Trazado_1234413" data-name="Trazado 1234413" d="M1033.6,745.44c-2.82,6.029-8.623,18.21-11.705,22.928a13.491,13.491,0,0,0,4.462.335c2.7-3.567,8.722-16.106,11.916-22.906A11.333,11.333,0,0,1,1033.6,745.44Z" transform="translate(-1014.821 -711.59)" fill="#7a74b6"/>
              <path id="Trazado_1234414" data-name="Trazado 1234414" d="M1056.05,790.864c-1.216,2.968.385,2.977,1.543.3s4.233-8.578,5.035-10.637-.735-1.975-1.836.409S1056.05,790.864,1056.05,790.864Z" transform="translate(-1043.629 -740.314)" fill="#a99fce"/>
              <path id="Trazado_1234415" data-name="Trazado 1234415" d="M1120.62,526.156s1.884-2.3,2.582-3.391,2.481-2.877,2.813-.9c.436,2.578.61,30.451.61,30.451l-2.75,1.832Z" transform="translate(-1099.16 -519.84)" fill="#7a74b6"/>
              <path id="Trazado_1234416" data-name="Trazado 1234416" d="M1063.29,529.625c1.39,1.11,6.494,4.014,11.443,1.622.526,10.8,1.054,29.387,1.054,29.387s-5.829,4.06-11.421-1.692C1064.106,552.087,1063.29,529.625,1063.29,529.625Z" transform="translate(-1050.185 -527.228)" fill="#faeecd"/>
              <path id="Trazado_1234417" data-name="Trazado 1234417" d="M1066.305,556.031c-.2-5-.674-18.316-.929-25.151a11.9,11.9,0,0,1-2.081-1.254s.815,22.462,1.076,29.317c5.592,5.752,11.421,1.692,11.421,1.692s-.016-.729-.049-1.976C1073.554,559.376,1069.883,559.712,1066.305,556.031Z" transform="translate(-1050.189 -527.228)" fill="#ddd0a8"/>
              <path id="Trazado_1234418" data-name="Trazado 1234418" d="M1074.332,545.866a.881.881,0,0,1-.238.441c-3.035,3.072-7.788,2.891-10.923,1.806-2.465-.85-4.006-2.189-4.139-3.593-.233-2.591-.695-29.269-.714-30.4a.909.909,0,0,1,.929-.9.946.946,0,0,1,.952.9c0,.281.476,27.748.705,30.274.044.448.965,1.368,2.867,2.024,2.527.872,6.247,1.074,8.676-1.106-.365-10.629-1.092-29.735-1.1-29.931a.893.893,0,0,1,.9-.921.942.942,0,0,1,.976.887c.006.195.753,19.775,1.115,30.319A.729.729,0,0,1,1074.332,545.866Z" transform="translate(-1045.938 -513.209)" fill="#3c386b"/>
              <path id="Trazado_1234419" data-name="Trazado 1234419" d="M1084.843,581.894s-1.086-15.189-.427-22.387C1085.021,566.241,1084.843,581.894,1084.843,581.894Z" transform="translate(-1068.051 -552.755)" fill="#bdb085"/>
              <path id="Trazado_1234420" data-name="Trazado 1234420" d="M1112.7,612.287s-1.254-6.657-.243-21.946C1113.059,597.078,1112.7,612.287,1112.7,612.287Z" transform="translate(-1091.848 -579.095)" fill="#bdb085"/>
              <path id="Trazado_1234421" data-name="Trazado 1234421" d="M1130.022,575.321s-1.09-15.186-.424-22.389C1130.2,559.673,1130.022,575.321,1130.022,575.321Z" transform="translate(-1106.646 -547.138)" fill="#bdb085"/>
              <g id="Grupo_1232074" data-name="Grupo 1232074" transform="translate(20.526 21.149)">
                <path id="Trazado_1234422" data-name="Trazado 1234422" d="M1123.851,658.616a5.135,5.135,0,0,1,.684.266,39.18,39.18,0,0,0-4.281,2.2s2.839,1,4.655,1.807a2.241,2.241,0,0,1,.587.452,38.065,38.065,0,0,0-9.36,1.124,2.037,2.037,0,0,0-.745-.248C1115.872,661.711,1123.851,658.616,1123.851,658.616Z" transform="translate(-1115.219 -658.568)" fill="#d87625"/>
                <path id="Trazado_1234423" data-name="Trazado 1234423" d="M1114.666,659.393a20.9,20.9,0,0,1,8.181-1.056,46.418,46.418,0,0,0-4.279,2.33,36.587,36.587,0,0,1,5.336,1.945,32.4,32.4,0,0,0-9.519,1.329A8.647,8.647,0,0,1,1114.666,659.393Z" transform="translate(-1114.215 -658.289)" fill="#fabf17"/>
                <g id="Grupo_1232073" data-name="Grupo 1232073" transform="translate(1.004 0.003)">
                  <path id="Trazado_1234424" data-name="Trazado 1234424" d="M1139.027,663.778l-1.828-4.256c.416-.079.881-.146,1.38-.2l1.122,1.35c-.439.249-.923.538-1.5.877,0,0,1.539.441,3.06.985l.827.989C1141.033,663.567,1139.991,663.659,1139.027,663.778Z" transform="translate(-1134.854 -659.175)" fill="#ffd660"/>
                  <path id="Trazado_1234425" data-name="Trazado 1234425" d="M1122.332,661.127c.282-.068.6-.132.932-.2l-.111,4.542c-.829.156-1.525.313-2.048.451Z" transform="translate(-1121.106 -660.549)" fill="#ffd660"/>
                  <path id="Trazado_1234426" data-name="Trazado 1234426" d="M1158.535,659.238c-.142-.252-.358-.633-.506-.913.277-.009.56-.01.856-.013l.344.565C1158.993,658.993,1158.764,659.109,1158.535,659.238Z" transform="translate(-1152.648 -658.312)" fill="#ffd660"/>
                </g>
              </g>
            </g>
            <g id="Grupo_1232098" data-name="Grupo 1232098" transform="translate(3.545 13.516)">
              <path id="Trazado_1234427" data-name="Trazado 1234427" d="M704.642,321.011l-11.017-8.134,8.666-25.625,18.594,2.053Z" transform="translate(-692.115 -279.116)" fill="#00bdd7"/>
              <path id="Trazado_1234428" data-name="Trazado 1234428" d="M722.938,305.547l-11.659-2.22.033-.441,11.887,2.148,14-13.733-1.841,20.054-15.442,13.787Z" transform="translate(-707.196 -282.574)" fill="#642212"/>
              <g id="Grupo_1232076" data-name="Grupo 1232076" transform="translate(19.236 14.928)">
                <path id="Trazado_1234429" data-name="Trazado 1234429" d="M851.231,340.8c-1.233,1.443-4.843,3.428-6.07,2.421-.516-.423-.058-5.311,1.52-6.511,1.8-1.367,4.5-3.281,4.681-2.781S851.231,340.8,851.231,340.8Z" transform="translate(-840.63 -333.852)" fill="#a17256"/>
                <path id="Trazado_1234430" data-name="Trazado 1234430" d="M820.675,352.086c-.183.706-4.45-.535-5.088-1.565-.552-.891-.517-5.977.925-6.482,1.313-.46,4.547,1.17,4.547,1.17Z" transform="translate(-815.257 -342.484)" fill="#bc8664"/>
              </g>
              <g id="Grupo_1232082" data-name="Grupo 1232082" transform="translate(22.169 11.082)">
                <g id="Grupo_1232081" data-name="Grupo 1232081">
                  <g id="Grupo_1232078" data-name="Grupo 1232078">
                    <g id="Grupo_1232077" data-name="Grupo 1232077">
                      <path id="Trazado_1234431" data-name="Trazado 1234431" d="M835.653,310.264A4.781,4.781,0,1,0,841.7,307.8,4.624,4.624,0,0,0,835.653,310.264Zm7.922,2.758a3.581,3.581,0,1,1-2.147-4.4A3.463,3.463,0,0,1,843.575,313.023Z" transform="translate(-835.377 -307.463)" fill="#4494a5"/>
                    </g>
                  </g>
                  <path id="Trazado_1234432" data-name="Trazado 1234432" d="M844.691,336.773l2.736-1.609.571.7-2.747,1.869Z" transform="translate(-843.333 -331.127)" fill="#4494a5"/>
                  <path id="Trazado_1234433" data-name="Trazado 1234433" d="M852.277,311.346,854,313.9l.794-.228-1.439-2.715Z" transform="translate(-849.814 -310.451)" fill="#4494a5"/>
                  <path id="Trazado_1234434" data-name="Trazado 1234434" d="M872.995,332.8l3.271,1.16.17-.908-3.226-1.276Z" transform="translate(-867.512 -328.234)" fill="#4494a5"/>
                  <g id="Grupo_1232079" data-name="Grupo 1232079" transform="translate(3.324 2.569)">
                    <path id="Trazado_1234435" data-name="Trazado 1234435" d="M860.427,325.375a1.39,1.39,0,1,1-1.991.279A1.422,1.422,0,0,1,860.427,325.375Z" transform="translate(-858.185 -325.092)" fill="#4494a5"/>
                  </g>
                  <g id="Grupo_1232080" data-name="Grupo 1232080" transform="translate(3.907 2.909)">
                    <path id="Trazado_1234436" data-name="Trazado 1234436" d="M863.729,327.616a.957.957,0,1,1-1.371.192A.978.978,0,0,1,863.729,327.616Z" transform="translate(-862.185 -327.42)" fill="#3d8595"/>
                  </g>
                </g>
              </g>
              <path id="Trazado_1234437" data-name="Trazado 1234437" d="M752.1,290.1l17.592,10.3.287-1.765-14.865-10.844-2.31-.041Z" transform="translate(-742.071 -279.534)" fill="#fff" opacity="0.4"/>
              <path id="Trazado_1234438" data-name="Trazado 1234438" d="M747.33,339.234l17.644,7.963-.161,2.766-17.605-8.4Z" transform="translate(-737.889 -323.522)" fill="#fff" opacity="0.4"/>
              <path id="Trazado_1234439" data-name="Trazado 1234439" d="M703.845,439.969l16.238,4.661-1.8,2.043-15.937-4.39Z" transform="translate(-699.561 -409.576)" fill="#fff" opacity="0.4"/>
              <g id="Grupo_1232083" data-name="Grupo 1232083" transform="translate(17.635 25.289)">
                <path id="Trazado_1234440" data-name="Trazado 1234440" d="M841.207,412.749c-1.455,2.351-4.843,3.428-6.07,2.421-.516-.423.316-5.693,1.718-7.1,1.906-1.909,4.138-3.533,4.319-3.033S841.207,412.749,841.207,412.749Z" transform="translate(-830.506 -404.949)" fill="#a17256"/>
                <path id="Trazado_1234441" data-name="Trazado 1234441" d="M809.883,428.467c.3,1.273-4.353.226-5.186-1.062-.57-.88-.837-5.927.924-6.482,1.328-.419,4.778.8,4.778.8Z" transform="translate(-804.268 -418.52)" fill="#bc8664"/>
              </g>
              <path id="Trazado_1234442" data-name="Trazado 1234442" d="M727.7,418.185l16.238,4.661-.846.873L726.65,419.15Z" transform="translate(-720.327 -390.967)" fill="#fff" opacity="0.4"/>
              <g id="Grupo_1232084" data-name="Grupo 1232084" transform="translate(0.495 6.861)">
                <path id="Trazado_1234443" data-name="Trazado 1234443" d="M693.37,397.783s-5.933,7.754-6.706,9.269c0,0,3.925,4.278,12.565,8.739,7.019-3.655,14.264-13.494,14.264-13.494Zm-4.7,9.26a68.586,68.586,0,0,1,5.691-7.459s1.248.455,16.87,3.9a90.773,90.773,0,0,1-11.943,10.912C691.861,410.652,688.671,407.043,688.671,407.043Z" transform="translate(-686.664 -380.399)" fill="#e5e0d5"/>
                <path id="Trazado_1234444" data-name="Trazado 1234444" d="M736.726,278.5l-2.687,17.2,20.522,4.148,2.527-18.814Zm-1.074,15.684a78.809,78.809,0,0,1,2.144-13.918s4.571.387,17.473,2.145c-.5,1.813-2.048,15.214-2.048,15.214Z" transform="translate(-727.135 -278.503)" fill="#e5e0d5"/>
              </g>
              <g id="Grupo_1232085" data-name="Grupo 1232085" transform="translate(21.454 38.646)">
                <path id="Trazado_1234445" data-name="Trazado 1234445" d="M842.7,506.8a7.489,7.489,0,0,0,.929-5.689c-.444-1.476-2.634-3.278-7.5-4.4s-7.285,6.441-4.419,8.87S841.12,509.566,842.7,506.8Z" transform="translate(-830.473 -496.597)" fill="#303230"/>
                <path id="Trazado_1234446" data-name="Trazado 1234446" d="M839.835,517.69c3.265,1.245,5.192,4.141,4.3,6.467s-4.254,3.2-7.519,1.955-5.192-4.142-4.3-6.467S836.571,516.444,839.835,517.69Z" transform="translate(-831.864 -514.131)" fill="#494b49"/>
                <path id="Trazado_1234447" data-name="Trazado 1234447" d="M837.591,541.853c-.305-1.31.8-1.252.883-.685a7.046,7.046,0,0,0,2.465,4.447A6.008,6.008,0,0,1,837.591,541.853Z" transform="translate(-836.508 -534.347)" fill="#6a6b69"/>
                <path id="Trazado_1234448" data-name="Trazado 1234448" d="M859.547,540.533c1.221.465,1.94,1.548,1.608,2.417s-1.589,1.2-2.809.73-1.94-1.547-1.608-2.416S858.327,540.068,859.547,540.533Z" transform="translate(-852.841 -533.949)" fill="#dfe3de"/>
                <path id="Trazado_1234449" data-name="Trazado 1234449" d="M858.744,545.554c-1.2-.458-1.915-1.511-1.624-2.372a1.277,1.277,0,0,0-.383.526c-.331.869.389,1.951,1.608,2.416s2.477.139,2.809-.73c.006-.015.011-.029.016-.044A2.5,2.5,0,0,1,858.744,545.554Z" transform="translate(-852.84 -536.393)" fill="#bcbfbc"/>
              </g>
              <g id="Grupo_1232086" data-name="Grupo 1232086" transform="translate(33.142 29.959)">
                <path id="Trazado_1234450" data-name="Trazado 1234450" d="M922.9,447.2a7.494,7.494,0,0,0,.93-5.689c-.445-1.476-2.635-3.278-7.505-4.4s-7.284,6.441-4.42,8.87S921.321,449.962,922.9,447.2Z" transform="translate(-910.675 -436.992)" fill="#303230"/>
                <path id="Trazado_1234451" data-name="Trazado 1234451" d="M920.037,458.086c3.265,1.246,5.192,4.141,4.3,6.467s-4.253,3.2-7.519,1.955-5.192-4.141-4.3-6.467S916.772,456.84,920.037,458.086Z" transform="translate(-912.065 -454.527)" fill="#494b49"/>
                <path id="Trazado_1234452" data-name="Trazado 1234452" d="M917.8,482.249c-.3-1.309.8-1.252.883-.686a7.049,7.049,0,0,0,2.465,4.447A6.005,6.005,0,0,1,917.8,482.249Z" transform="translate(-916.712 -474.742)" fill="#6a6b69"/>
                <path id="Trazado_1234453" data-name="Trazado 1234453" d="M939.753,480.929c1.22.466,1.94,1.547,1.608,2.417s-1.59,1.2-2.809.731-1.941-1.548-1.608-2.417S938.533,480.464,939.753,480.929Z" transform="translate(-933.046 -474.345)" fill="#dfe3de"/>
                <path id="Trazado_1234454" data-name="Trazado 1234454" d="M938.949,485.95c-1.2-.457-1.915-1.511-1.624-2.371a1.279,1.279,0,0,0-.383.525c-.332.869.388,1.951,1.608,2.417s2.478.138,2.809-.731l.015-.044A2.5,2.5,0,0,1,938.949,485.95Z" transform="translate(-933.046 -476.789)" fill="#bcbfbc"/>
              </g>
              <path id="Trazado_1234455" data-name="Trazado 1234455" d="M766.024,420.806a16.47,16.47,0,0,0,9.2,9.185c1.107-.87,2.739-2.159,2.739-2.159s-3.738-2.789-1.388-5.9,8.3-1.174,9.6.487c1.37-1.2,2.675-2.493,2.675-2.493s-5.652-4.132-2.5-7.794c2.79-3.245,9.96-1.76,12.021.967,1.8-1.337,4.248-5.144,4.248-5.144s-14.116-9.38-21.57-1.366C776.527,413.315,766.024,420.806,766.024,420.806Z" transform="translate(-753.963 -378.294)" fill="#d5371f"/>
              <g id="Grupo_1232087" data-name="Grupo 1232087" transform="translate(17.949 34.639)">
                <path id="Trazado_1234456" data-name="Trazado 1234456" d="M811.084,478.1a3.786,3.786,0,0,1,.931-.874L810,469.105c-1.2,1.152-2.426,2.243-3.58,3.227l3.018,13.706.293.125c1.107-.87,2.74-2.159,2.74-2.159S808.734,481.214,811.084,478.1Z" transform="translate(-806.421 -469.105)" fill="#f05123"/>
              </g>
              <path id="Trazado_1234457" data-name="Trazado 1234457" d="M869.112,265.286s1.5-14.513,2.774-19.526c3.049-7.373,10.915-10.979,20.3-4.3.758,8.125.907,15.55-2.435,24.918C881.258,262.729,876.375,260.047,869.112,265.286Z" transform="translate(-842.027 -236.99)" fill="#d5371f"/>
              <path id="Trazado_1234458" data-name="Trazado 1234458" d="M873.673,269.61s1.549-13.777,2.674-18.222c2.7-6.54,9.853-9.884,18.172-3.96a52.3,52.3,0,0,1-2.547,23.151C884.444,267.343,880.113,264.964,873.673,269.61Z" transform="translate(-845.923 -242.466)" fill="#f05123"/>
              <path id="Trazado_1234459" data-name="Trazado 1234459" d="M789.376,555.165c2.263.389,3.911,1.7,4.073,2.824-1.288,1.141-3,2.33-4.962,1.091a4.772,4.772,0,0,1-2.362-4.666l.347-.194,1.569,1.542A5.572,5.572,0,0,0,789.376,555.165Z" transform="translate(-771.105 -507.176)" fill="#b22816"/>
              <path id="Trazado_1234460" data-name="Trazado 1234460" d="M787.945,556.575c2.466.425,3.806,1.878,3.982,3.108a3.706,3.706,0,0,1-5.281,1.093,4.577,4.577,0,0,1-1.908-5.351l1.883,1.84A9.768,9.768,0,0,0,787.945,556.575Z" transform="translate(-769.749 -508.205)" fill="#dad2c6"/>
              <path id="Trazado_1234461" data-name="Trazado 1234461" d="M713.384,275.571s-11.835-1.639-19.653-2.491c-2.6,1.889-7.492,10.477-8.616,13.926-.679,3.813-2.341,13.724-1.71,14.377,1.987,2.479,6.809,5.935,11.921,8.138a2.944,2.944,0,0,0,1.278-.735s-8.67-4.237-11.983-8.321c.621-1.12,4.92-7.559,6.24-8.219,2.023.287,18.751,4.239,18.751,4.239l.78-1.192.094-1.1s-16.412-3.34-19.027-3.853a67,67,0,0,1,2.359-15.534s17.345,1.757,18.985,2.287A9.576,9.576,0,0,0,713.384,275.571Z" transform="translate(-683.264 -267.009)" fill="#d5371f"/>
              <path id="Trazado_1234462" data-name="Trazado 1234462" d="M822.17,516.855l1.061-.744s-3.972-2.993-1.53-5.551,7.5-.887,9.322.45c.677-.621,1.551-1.429,1.551-1.429s-2.09-2.057-6.7-2.734c-3.687-.542-6.69,1.548-7.059,4.538C818.436,514.495,822.17,516.855,822.17,516.855Z" transform="translate(-799.039 -466.635)" fill="#b22816"/>
              <path id="Trazado_1234463" data-name="Trazado 1234463" d="M822.094,519.219l1.061-.744s-3.972-2.993-1.53-5.551,7.5-.887,9.322.45c.677-.621,1.233-1.085,1.233-1.085s-1.85-1.989-6.457-2.666c-3.687-.541-6.553,1.325-6.981,4.127C818.269,516.847,822.094,519.219,822.094,519.219Z" transform="translate(-798.963 -468.999)" fill="#e5e0d5"/>
              <path id="Trazado_1234464" data-name="Trazado 1234464" d="M901.081,456.7l1.168-1.119s-3.972-2.992-1.53-5.55,7.5-.888,9.322.45c.675-.621,1.622-1.487,1.622-1.487a13,13,0,0,0-6.8-2.65c-4.037-.542-6.878,1.388-7.252,4.549C897.241,454,901.081,456.7,901.081,456.7Z" transform="translate(-866.35 -414.943)" fill="#b22816"/>
              <path id="Trazado_1234465" data-name="Trazado 1234465" d="M900.975,459.017l1.231-1.171s-4.015-3.011-1.574-5.57,7.5-.888,9.322.45c.675-.621,1.232-1.086,1.232-1.086s-1.85-1.989-6.456-2.666c-3.688-.542-6.78,1.363-7.207,4.164C897.052,456.236,900.975,459.017,900.975,459.017Z" transform="translate(-866.264 -417.19)" fill="#e5e0d5"/>
              <g id="Grupo_1232088" data-name="Grupo 1232088" transform="translate(41.576 1.396)">
                <path id="Trazado_1234466" data-name="Trazado 1234466" d="M973.012,241.927l.951.454a34.766,34.766,0,0,1-3.881,24.167,11.449,11.449,0,0,1-1.363,1.907c-.328.4-.3,1.77,1.106,3.041a3.578,3.578,0,0,0,4.844.238c1.645-1.244,5.007-6.728,6.221-15.271s-.194-12.819-1.775-13.939C975.553,240,973.012,241.927,973.012,241.927Z" transform="translate(-968.545 -241.192)" fill="#dad2c6"/>
                <path id="Trazado_1234467" data-name="Trazado 1234467" d="M986.367,241.543l1.2.473a35.2,35.2,0,0,1-3.815,24.419c.67.08,3.971,1,4.735,2.754,2.494-3.395,7.621-17.981,3.173-27.15C988.442,240.043,986.367,241.543,986.367,241.543Z" transform="translate(-981.539 -241.002)" fill="#e5e0d5"/>
              </g>
              <g id="Grupo_1232091" data-name="Grupo 1232091" transform="translate(46.768 2.44)">
                <g id="Grupo_1232089" data-name="Grupo 1232089" transform="translate(0 18.858)">
                  <path id="Trazado_1234468" data-name="Trazado 1234468" d="M1006.774,378.014a1.86,1.86,0,1,1-2.489,1.038A1.909,1.909,0,0,1,1006.774,378.014Z" transform="translate(-1004.168 -377.832)" fill="#d4cdc0"/>
                  <path id="Trazado_1234469" data-name="Trazado 1234469" d="M1007.733,378.264a1.655,1.655,0,1,1-2.342.861A1.773,1.773,0,0,1,1007.733,378.264Z" transform="translate(-1005.131 -378.041)" fill="#838a8e"/>
                  <path id="Trazado_1234470" data-name="Trazado 1234470" d="M1008.389,377.7a1.552,1.552,0,1,1-2.276.76A1.713,1.713,0,0,1,1008.389,377.7Z" transform="translate(-1005.758 -377.558)" fill="#aaabab"/>
                  <path id="Trazado_1234471" data-name="Trazado 1234471" d="M1010.864,378.923a1.229,1.229,0,1,1-1.8.6A1.358,1.358,0,0,1,1010.864,378.923Z" transform="translate(-1008.291 -378.625)" fill="#84d2e1"/>
                  <path id="Trazado_1234472" data-name="Trazado 1234472" d="M1009.09,379.525a1,1,0,0,0-.061.264,1.363,1.363,0,0,1,1.794-.581,1.437,1.437,0,0,1,1,1.386l.009-.02a1.5,1.5,0,0,0-2.746-1.049Z" transform="translate(-1008.32 -378.625)" fill="#838a8e"/>
                  <path id="Trazado_1234473" data-name="Trazado 1234473" d="M1011.455,383.388c.323.123.512.413.422.648a.56.56,0,0,1-.746.2c-.322-.123-.511-.413-.422-.648A.562.562,0,0,1,1011.455,383.388Z" transform="translate(-1009.737 -382.491)" fill="#eff8fa"/>
                  <path id="Trazado_1234474" data-name="Trazado 1234474" d="M1023.3,388.576c.161.061.254.2.21.322a.279.279,0,0,1-.371.1c-.161-.061-.254-.205-.21-.322A.279.279,0,0,1,1023.3,388.576Z" transform="translate(-1020.187 -386.946)" fill="#eff8fa"/>
                </g>
                <g id="Grupo_1232090" data-name="Grupo 1232090" transform="translate(1.51)">
                  <path id="Trazado_1234475" data-name="Trazado 1234475" d="M1017.138,248.621a1.86,1.86,0,1,1-2.49,1.038A1.909,1.909,0,0,1,1017.138,248.621Z" transform="translate(-1014.531 -248.438)" fill="#d4cdc0"/>
                  <path id="Trazado_1234476" data-name="Trazado 1234476" d="M1018.093,248.868a1.655,1.655,0,1,1-2.342.862A1.773,1.773,0,0,1,1018.093,248.868Z" transform="translate(-1015.491 -248.645)" fill="#838a8e"/>
                  <path id="Trazado_1234477" data-name="Trazado 1234477" d="M1018.741,248.309a1.552,1.552,0,1,1-2.276.76A1.713,1.713,0,0,1,1018.741,248.309Z" transform="translate(-1016.112 -248.162)" fill="#aaabab"/>
                  <path id="Trazado_1234478" data-name="Trazado 1234478" d="M1021.227,249.526a1.229,1.229,0,1,1-1.8.6A1.357,1.357,0,0,1,1021.227,249.526Z" transform="translate(-1018.655 -249.228)" fill="#84d2e1"/>
                  <path id="Trazado_1234479" data-name="Trazado 1234479" d="M1019.452,250.129a.979.979,0,0,0-.061.264,1.363,1.363,0,0,1,1.794-.582,1.437,1.437,0,0,1,1,1.386l.009-.02a1.5,1.5,0,0,0-2.746-1.049Z" transform="translate(-1018.683 -249.228)" fill="#838a8e"/>
                  <path id="Trazado_1234480" data-name="Trazado 1234480" d="M1021.815,254c.323.123.512.413.422.647a.56.56,0,0,1-.747.2c-.322-.123-.511-.413-.421-.648A.561.561,0,0,1,1021.815,254Z" transform="translate(-1020.097 -253.1)" fill="#eff8fa"/>
                  <path id="Trazado_1234481" data-name="Trazado 1234481" d="M1033.662,259.185c.159.061.253.2.209.322a.28.28,0,0,1-.371.1c-.16-.062-.254-.206-.21-.323A.279.279,0,0,1,1033.662,259.185Z" transform="translate(-1030.548 -257.555)" fill="#eff8fa"/>
                </g>
              </g>
              <g id="Grupo_1232095" data-name="Grupo 1232095" transform="translate(36.397)">
                <g id="Grupo_1232092" data-name="Grupo 1232092" transform="translate(2.667 7.174)">
                  <path id="Trazado_1234482" data-name="Trazado 1234482" d="M951.3,290.11A37.5,37.5,0,0,1,957.021,292c.218-.117.321-.193.354-.325a28.733,28.733,0,0,0,.588-9.147,41.178,41.178,0,0,0-5.293-1.886c-.116-.017-.157.122-.354.325A59.047,59.047,0,0,1,951.3,290.11Z" transform="translate(-951.304 -280.645)" fill="#c12a1b"/>
                  <path id="Trazado_1234483" data-name="Trazado 1234483" d="M953.731,289.794a37.558,37.558,0,0,1,5.717,1.894,29.41,29.41,0,0,0,.942-9.472,34.282,34.282,0,0,0-5.647-1.561A59.025,59.025,0,0,1,953.731,289.794Z" transform="translate(-953.377 -280.653)" fill="#e5e0d5"/>
                  <path id="Trazado_1234484" data-name="Trazado 1234484" d="M958.061,293.379a28.728,28.728,0,0,1,4.725,1.554,25.467,25.467,0,0,0,.816-8.205,35.363,35.363,0,0,0-4.665-1.265A51.178,51.178,0,0,1,958.061,293.379Z" transform="translate(-957.076 -284.761)" fill="#303230"/>
                  <path id="Trazado_1234485" data-name="Trazado 1234485" d="M962.985,332.748a33.429,33.429,0,0,0-5.021-1.637c-.068.376-.11.59-.11.59a30.359,30.359,0,0,1,4.981,1.638C962.887,333.144,962.937,332.947,962.985,332.748Z" transform="translate(-956.899 -323.756)" fill="#e5e0d5"/>
                  <path id="Trazado_1234486" data-name="Trazado 1234486" d="M964.565,324.473a33.47,33.47,0,0,0-5.023-1.637c-.066.376-.109.59-.109.59a30.363,30.363,0,0,1,4.98,1.638Q964.492,324.771,964.565,324.473Z" transform="translate(-958.248 -316.687)" fill="#e5e0d5"/>
                  <path id="Trazado_1234487" data-name="Trazado 1234487" d="M966.144,316.2a33.513,33.513,0,0,0-5.023-1.638c-.067.376-.109.59-.109.59a30.345,30.345,0,0,1,4.98,1.639C966.046,316.6,966.1,316.4,966.144,316.2Z" transform="translate(-959.597 -309.619)" fill="#e5e0d5"/>
                  <path id="Trazado_1234488" data-name="Trazado 1234488" d="M966.914,307.845a33.486,33.486,0,0,0-5.051-1.545c-.06.378-.1.593-.1.593a30.337,30.337,0,0,1,5.008,1.546Q966.847,308.144,966.914,307.845Z" transform="translate(-960.24 -302.561)" fill="#e5e0d5"/>
                  <path id="Trazado_1234489" data-name="Trazado 1234489" d="M967.716,299.271a33.452,33.452,0,0,0-5.05-1.547c-.06.377-.1.592-.1.592a30.381,30.381,0,0,1,5.008,1.55Q967.649,299.571,967.716,299.271Z" transform="translate(-960.925 -295.235)" fill="#e5e0d5"/>
                  <path id="Trazado_1234490" data-name="Trazado 1234490" d="M967.711,290.625a33.529,33.529,0,0,0-5.077-1.454c-.053.379-.088.594-.088.594a30.367,30.367,0,0,1,5.036,1.457C967.627,291.024,967.671,290.825,967.711,290.625Z" transform="translate(-960.908 -287.928)" fill="#e5e0d5"/>
                </g>
                <g id="Grupo_1232093" data-name="Grupo 1232093" transform="translate(0 18.432)">
                  <path id="Trazado_1234491" data-name="Trazado 1234491" d="M937.577,358.7a3.261,3.261,0,1,1-4.367,1.819A3.346,3.346,0,0,1,937.577,358.7Z" transform="translate(-933.006 -358.379)" fill="#c12a1b"/>
                  <path id="Trazado_1234492" data-name="Trazado 1234492" d="M939.254,359.134a2.9,2.9,0,1,1-4.107,1.511A3.109,3.109,0,0,1,939.254,359.134Z" transform="translate(-934.692 -358.743)" fill="#838a8e"/>
                  <path id="Trazado_1234493" data-name="Trazado 1234493" d="M940.408,358.154a2.721,2.721,0,1,1-3.991,1.333A3.005,3.005,0,0,1,940.408,358.154Z" transform="translate(-935.794 -357.897)" fill="#aaabab"/>
                  <path id="Trazado_1234494" data-name="Trazado 1234494" d="M944.75,360.29a2.155,2.155,0,1,1-3.162,1.056A2.38,2.38,0,0,1,944.75,360.29Z" transform="translate(-940.239 -359.767)" fill="#84d2e1"/>
                  <path id="Trazado_1234495" data-name="Trazado 1234495" d="M941.64,361.346a1.77,1.77,0,0,0-.107.463,2.391,2.391,0,0,1,3.146-1.019,2.521,2.521,0,0,1,1.762,2.431c0-.012.01-.024.015-.036a2.628,2.628,0,0,0-4.816-1.838Z" transform="translate(-940.29 -359.767)" fill="#838a8e"/>
                  <path id="Trazado_1234496" data-name="Trazado 1234496" d="M945.794,368.124c.566.215.9.725.74,1.136a.984.984,0,0,1-1.309.354c-.565-.216-.9-.724-.74-1.136A.983.983,0,0,1,945.794,368.124Z" transform="translate(-942.779 -366.551)" fill="#eff8fa"/>
                  <path id="Trazado_1234497" data-name="Trazado 1234497" d="M966.564,377.221c.28.107.445.36.367.564a.489.489,0,0,1-.65.176c-.281-.107-.445-.36-.367-.564A.489.489,0,0,1,966.564,377.221Z" transform="translate(-961.102 -374.364)" fill="#eff8fa"/>
                </g>
                <g id="Grupo_1232094" data-name="Grupo 1232094" transform="translate(2.511)">
                  <path id="Trazado_1234498" data-name="Trazado 1234498" d="M954.8,232.225a3.261,3.261,0,1,1-4.366,1.819A3.346,3.346,0,0,1,954.8,232.225Z" transform="translate(-950.234 -231.905)" fill="#c12a1b"/>
                  <path id="Trazado_1234499" data-name="Trazado 1234499" d="M956.485,232.661a2.9,2.9,0,1,1-4.107,1.51A3.107,3.107,0,0,1,956.485,232.661Z" transform="translate(-951.924 -232.269)" fill="#838a8e"/>
                  <path id="Trazado_1234500" data-name="Trazado 1234500" d="M957.635,231.68a2.721,2.721,0,1,1-3.991,1.333A3,3,0,0,1,957.635,231.68Z" transform="translate(-953.022 -231.423)" fill="#aaabab"/>
                  <path id="Trazado_1234501" data-name="Trazado 1234501" d="M961.977,233.816a2.156,2.156,0,1,1-3.162,1.056A2.381,2.381,0,0,1,961.977,233.816Z" transform="translate(-957.465 -233.293)" fill="#84d2e1"/>
                  <path id="Trazado_1234502" data-name="Trazado 1234502" d="M958.868,234.872a1.77,1.77,0,0,0-.107.463,2.391,2.391,0,0,1,3.147-1.019,2.52,2.52,0,0,1,1.761,2.43c.005-.012.011-.024.016-.036a2.629,2.629,0,0,0-4.816-1.838Z" transform="translate(-957.518 -233.293)" fill="#838a8e"/>
                  <path id="Trazado_1234503" data-name="Trazado 1234503" d="M963.026,241.648c.566.216.9.724.74,1.136a.984.984,0,0,1-1.309.355c-.566-.216-.9-.725-.739-1.137A.983.983,0,0,1,963.026,241.648Z" transform="translate(-960.011 -240.076)" fill="#eff8fa"/>
                  <path id="Trazado_1234504" data-name="Trazado 1234504" d="M983.79,250.746c.281.107.446.359.368.564a.489.489,0,0,1-.65.176c-.28-.107-.445-.36-.367-.564A.488.488,0,0,1,983.79,250.746Z" transform="translate(-978.328 -247.889)" fill="#eff8fa"/>
                </g>
              </g>
              <g id="Grupo_1232096" data-name="Grupo 1232096" transform="translate(20.815 36.678)">
                <path id="Trazado_1234505" data-name="Trazado 1234505" d="M826.264,484.581c-.514.625.206,1.348.773.86.523-.45,1.845-1.919,1.506-2.294C828.262,482.836,826.77,483.964,826.264,484.581Z" transform="translate(-826.088 -483.093)" fill="#c12a1b"/>
                <path id="Trazado_1234506" data-name="Trazado 1234506" d="M826.947,487.3a.517.517,0,0,0,.693.767c.457-.39,1.607-1.672,1.3-2.006C828.692,485.779,827.387,486.756,826.947,487.3Z" transform="translate(-826.694 -485.583)" fill="#ded9cf"/>
                <path id="Trazado_1234507" data-name="Trazado 1234507" d="M828.373,492.171a.291.291,0,0,0,.39.432c.257-.22.9-.941.733-1.128C829.354,491.319,828.62,491.868,828.373,492.171Z" transform="translate(-827.968 -490.23)" fill="#faf4e9"/>
              </g>
              <path id="Trazado_1234508" data-name="Trazado 1234508" d="M686.608,311.325c-.082-1.319,1.518-10.478,1.873-12.344,1.293-2.721,4.107-8.935,6.908-11.838a108.247,108.247,0,0,0-2.759,15.738C690.238,305.771,686.608,311.325,686.608,311.325Z" transform="translate(-686.118 -279.022)" fill="#f05123"/>
              <g id="Grupo_1232097" data-name="Grupo 1232097" transform="translate(2.765 10.733)">
                <path id="Trazado_1234509" data-name="Trazado 1234509" d="M703.081,323.6c.8-1.181,1.762-2.556,2.757-3.868a119.64,119.64,0,0,1,2.224-13.03,38.659,38.659,0,0,0-3.53,6.4C704.072,316.207,703.278,321.412,703.081,323.6Z" transform="translate(-702.958 -306.468)" fill="#84d2e1"/>
                <path id="Trazado_1234510" data-name="Trazado 1234510" d="M709.877,328.479l-3.425,8.181-.438,3.969,2.457-3.4c.146-1.187.338-2.535.556-3.917l-2.556,3.8,3.068-6.838C709.649,329.664,709.763,329.059,709.877,328.479Z" transform="translate(-705.463 -325.067)" fill="#fff" opacity="0.4"/>
                <path id="Trazado_1234511" data-name="Trazado 1234511" d="M704.12,311.807a50.565,50.565,0,0,1,2.966-5.411c.114-.476.228-.924.343-1.332a42.055,42.055,0,0,0-3.8,6.6c-.46,3.1-1.2,8.524-1.393,10.717.185-.271.384-.563.593-.866C703.109,318.962,703.719,314.509,704.12,311.807Z" transform="translate(-702.235 -305.065)" fill="#c5303d"/>
              </g>
              <path id="Trazado_1234512" data-name="Trazado 1234512" d="M787.842,560.645a6.605,6.605,0,0,0,3.121,3.577c-2.5.4-5.378-2.1-4.543-5.036A14.7,14.7,0,0,0,787.842,560.645Z" transform="translate(-771.26 -511.418)" fill="#e5e0d5"/>
              <path id="Trazado_1234513" data-name="Trazado 1234513" d="M932.788,282.136c-.628.077,1.09-13.4,1.773-13.336C935.382,268.88,933.177,282.089,932.788,282.136Z" transform="translate(-896.307 -263.352)" fill="#f19a95"/>
              <path id="Trazado_1234514" data-name="Trazado 1234514" d="M1013.629,290.866c-.269.236.669-3.454,1-7.136.253-2.821-.041-5.635.244-5.549C1016.191,278.578,1015,289.666,1013.629,290.866Z" transform="translate(-965.441 -271.365)" fill="#fdf7eb"/>
              <path id="Trazado_1234515" data-name="Trazado 1234515" d="M728.258,311.8a49.7,49.7,0,0,1,.8-6.518,28.838,28.838,0,0,1,1.432-5.984c.078-.047-.573,2.766-1.1,5.776C728.823,308.355,728.366,311.858,728.258,311.8Z" transform="translate(-721.687 -289.403)" fill="#f19a95"/>
            </g>
            <g id="Grupo_1232109" data-name="Grupo 1232109" transform="translate(123.248 26.212)">
              <g id="Grupo_1232108" data-name="Grupo 1232108">
                <g id="Grupo_1232099" data-name="Grupo 1232099" transform="translate(15.295 58.95)">
                  <path id="Trazado_1234516" data-name="Trazado 1234516" d="M1613.755,735.279a1.139,1.139,0,0,1-.933,1.314l-.012,0a1.141,1.141,0,0,1-1.314-.933l-1.911-11.3a1.14,1.14,0,0,1,.933-1.314h.012a1.139,1.139,0,0,1,1.314.933Z" transform="translate(-1609.568 -723.032)" fill="#6d6e6e"/>
                  <path id="Trazado_1234517" data-name="Trazado 1234517" d="M1623.822,758.3a.257.257,0,0,1-.209.295h0a.256.256,0,0,1-.295-.21l-1.179-6.97a.255.255,0,0,1,.209-.294h0a.256.256,0,0,1,.295.209Z" transform="translate(-1620.304 -747.02)" fill="#616161"/>
                </g>
                <g id="Grupo_1232100" data-name="Grupo 1232100" transform="translate(13.708 73.118)">
                  <path id="Trazado_1234518" data-name="Trazado 1234518" d="M1599.788,820.746l-1.108,39.01,2.529-.429.526-39.08Z" transform="translate(-1598.68 -820.248)" fill="#4b4c4c"/>
                  <path id="Trazado_1234519" data-name="Trazado 1234519" d="M1606.74,915.162c-.008.141-.161.06-.3.052h0c-.141-.007-.2.174-.19.033l.616-29.582a.256.256,0,0,1,.27-.241h0a.256.256,0,0,1,.241.269Z" transform="translate(-1605.146 -875.924)" fill="#616161"/>
                </g>
                <g id="Grupo_1232101" data-name="Grupo 1232101" transform="translate(17.593 73.235)">
                  <path id="Trazado_1234520" data-name="Trazado 1234520" d="M1625.34,821.464l7.468,46.237,2.457-.417-7.468-46.236Z" transform="translate(-1625.34 -821.049)" fill="#4b4c4c"/>
                  <path id="Trazado_1234521" data-name="Trazado 1234521" d="M1651.207,918.13c.021.14-.117.022-.256.043h0c-.14.023-.227.182-.248.042l-6.159-37.443a.255.255,0,0,1,.214-.291h0a.256.256,0,0,1,.291.214Z" transform="translate(-1641.743 -871.817)" fill="#616161"/>
                </g>
                <g id="Grupo_1232102" data-name="Grupo 1232102" transform="translate(9.768 47.84)">
                  <path id="Trazado_1234522" data-name="Trazado 1234522" d="M1572.737,661.861a1.125,1.125,0,0,1-.329-2.19l9.988-3.4-.947-8.376a1.125,1.125,0,0,1,2.25.068l.924,9.157a1.126,1.126,0,0,1-.762,1.031l-10.727,3.654A1.124,1.124,0,0,1,1572.737,661.861Z" transform="translate(-1571.645 -646.801)" fill="#6d6e6e"/>
                  <path id="Trazado_1234523" data-name="Trazado 1234523" d="M1590.04,714.688l6.827-2.325s1.542,4.39-2.093,5.364C1591.01,718.735,1590.04,714.688,1590.04,714.688Z" transform="translate(-1587.359 -702.808)" fill="#b2b2b0"/>
                  <path id="Trazado_1234524" data-name="Trazado 1234524" d="M1613.257,726.868a1.016,1.016,0,1,1-.985-1.046A1.016,1.016,0,0,1,1613.257,726.868Z" transform="translate(-1605.456 -714.305)" fill="#4b4c4c"/>
                </g>
                <path id="Trazado_1234525" data-name="Trazado 1234525" d="M1534.87,598.082l4.677,4.359,2.925-2.485-4.608-4.49Z" transform="translate(-1530.462 -555.106)" fill="#4b4c4c"/>
                <g id="Grupo_1232103" data-name="Grupo 1232103" transform="translate(1.055)">
                  <path id="Trazado_1234526" data-name="Trazado 1234526" d="M1512.076,680.4c-.953,1.695,1.517,4.044,2.753,3.721,3.617-2.668,5.021-3.746,5.021-3.746l-3.132-3.971S1514.359,678.415,1512.076,680.4Z" transform="translate(-1511.862 -624.247)" fill="#4b4c4c"/>
                  <path id="Trazado_1234527" data-name="Trazado 1234527" d="M1517.977,672.713c-1.015,1.8,1.617,4.31,2.935,3.966,3.856-2.843,5.352-3.993,5.352-3.993l-3.338-4.233S1520.409,670.6,1517.977,672.713Z" transform="translate(-1516.891 -617.457)" fill="#cccdc8"/>
                  <path id="Trazado_1234528" data-name="Trazado 1234528" d="M1532.951,384.753c-1.757,3.124,2.8,7.46,5.08,6.862,19.664-14.565,57.8-42.627,57.8-42.627l-9.758-12.652S1544.86,374.07,1532.951,384.753Z" transform="translate(-1529.541 -333.742)" fill="#cccdc8"/>
                  <path id="Trazado_1234529" data-name="Trazado 1234529" d="M1599.061,629.6l-5.275,4.671a5.346,5.346,0,0,0,4.591,2.181c2.042-1.433,4.154-2.941,6.221-4.469C1602.083,632.589,1599.061,629.6,1599.061,629.6Z" transform="translate(-1581.846 -584.27)" fill="#5c5c5c"/>
                  <path id="Trazado_1234530" data-name="Trazado 1234530" d="M1603.13,658.1a.622.622,0,0,1-.4.784l-.145.046a.623.623,0,0,1-.784-.4h0a.623.623,0,0,1,.4-.784l.145-.046a.623.623,0,0,1,.783.4Z" transform="translate(-1588.666 -608.24)" fill="#cccdc8"/>
                  <path id="Trazado_1234531" data-name="Trazado 1234531" d="M1626.99,637.513a.624.624,0,0,1-.4.784l-.146.047a.623.623,0,0,1-.783-.4h0a.624.624,0,0,1,.4-.784l.145-.046a.622.622,0,0,1,.784.4Z" transform="translate(-1609.048 -590.657)" fill="#cccdc8"/>
                  <path id="Trazado_1234532" data-name="Trazado 1234532" d="M1588.345,353.957c-11.992,10.443-42.149,36.59-55.448,47.965a5.02,5.02,0,0,0,.627,1.669c15.21-12.888,41.614-35.457,56.146-47.915Z" transform="translate(-1529.831 -348.795)" fill="#eaeaea"/>
                  <path id="Trazado_1234533" data-name="Trazado 1234533" d="M1534.946,656.213c-.734.661-1.4,1.264-2,1.8-1.757,3.124,2.8,7.46,5.08,6.862l2.45-1.815C1538,662.576,1534.706,659.255,1534.946,656.213Z" transform="translate(-1529.538 -607.001)" fill="#f05123"/>
                  <path id="Trazado_1234534" data-name="Trazado 1234534" d="M1534.966,661.434q-1.253,1.081-2.361,2.029a3.812,3.812,0,0,0,.248,2q1.258-1.066,2.634-2.238A5.482,5.482,0,0,1,1534.966,661.434Z" transform="translate(-1529.544 -611.461)" fill="#f69383"/>
                  <path id="Trazado_1234535" data-name="Trazado 1234535" d="M1679.055,505.06c-2.059,1.879-4.127,3.766-6.16,5.619-.118,3.9,4.089,8.068,7.24,8.654l6.619-4.88C1683.337,513.525,1679.093,509.195,1679.055,505.06Z" transform="translate(-1649.424 -477.877)" fill="#f05123"/>
                  <path id="Trazado_1234536" data-name="Trazado 1234536" d="M1853.529,320.287c-1.43,1.359-3.872,3.679-6.974,6.616-2.575,6.756,6.251,15.325,11.411,14.927,3.583-2.515,6.391-4.476,8.077-5.652C1860.443,336.1,1851.626,327.485,1853.529,320.287Z" transform="translate(-1797.384 -320.032)" fill="#f05123"/>
                  <path id="Trazado_1234537" data-name="Trazado 1234537" d="M1856.266,357.216l-7.343,6.41a11.912,11.912,0,0,0,.809,1.971l7.409-6.381A13.963,13.963,0,0,1,1856.266,357.216Z" transform="translate(-1799.801 -351.579)" fill="#f69383"/>
                  <path id="Trazado_1234538" data-name="Trazado 1234538" d="M1901.038,324.3c3.45,4.363,4.812,9.034,3.043,10.433s-6-1-9.451-5.366-4.812-9.033-3.043-10.433S1897.588,319.941,1901.038,324.3Z" transform="translate(-1835.584 -318.539)" fill="#dddeda"/>
                  <path id="Trazado_1234539" data-name="Trazado 1234539" d="M1908.142,332.023c2.962,3.745,4.386,7.552,3.183,8.5s-4.58-1.312-7.541-5.057-4.387-7.552-3.184-8.5S1905.18,328.278,1908.142,332.023Z" transform="translate(-1843.582 -325.552)" fill="#616161"/>
                  <path id="Trazado_1234540" data-name="Trazado 1234540" d="M1900.18,336.106c.033,1.648,1.389,4.49,3.61,7.3,2.763,3.495,5.889,5.7,7.271,5.2-.033-1.648-1.389-4.491-3.609-7.3C1904.688,337.815,1901.562,335.61,1900.18,336.106Z" transform="translate(-1843.587 -333.486)" fill="#29c0ea"/>
                  <path id="Trazado_1234541" data-name="Trazado 1234541" d="M1909.759,347.508c-1.262-.741-.5-2.159.984-1.036a22.473,22.473,0,0,1,4.4,4.734S1911.73,348.664,1909.759,347.508Z" transform="translate(-1851.225 -342.045)" fill="#8dcadb"/>
                  <path id="Trazado_1234542" data-name="Trazado 1234542" d="M1629.35,628.414l.324-.306s2.281,2.769,5.192,2.284c.074-.055.442-.315.484-.348a.652.652,0,0,1-.372.664c-.338.179-1.314.5-3.04-.324A7.019,7.019,0,0,1,1629.35,628.414Z" transform="translate(-1612.228 -582.992)" fill="#4b4c4c"/>
                </g>
                <g id="Grupo_1232105" data-name="Grupo 1232105" transform="translate(0 27.892)">
                  <path id="Trazado_1234543" data-name="Trazado 1234543" d="M1680.049,516.751c-2.005,1.747-3.987,3.47-5.917,5.148a7.113,7.113,0,0,0,.63,1.936c1.956-1.679,3.953-3.4,5.972-5.133A8.372,8.372,0,0,1,1680.049,516.751Z" transform="translate(-1649.429 -515.755)" fill="#f69383"/>
                  <g id="Grupo_1232104" data-name="Grupo 1232104">
                    <path id="Trazado_1234544" data-name="Trazado 1234544" d="M1504.721,534.052c-.587,1.46,1.644,3.09,2.6,2.7,7.735-7.465,14.932-13.754,14.932-13.754l-4.971-4.955S1509.3,528.72,1504.721,534.052Z" transform="translate(-1504.624 -516.858)" fill="#cccdc8"/>
                    <path id="Trazado_1234545" data-name="Trazado 1234545" d="M1507.322,625.285q.484-.468.967-.93a3.351,3.351,0,0,1-2.8-2.676q-.4.473-.768.906C1504.132,624.046,1506.361,625.675,1507.322,625.285Z" transform="translate(-1504.622 -605.392)" fill="#4b4c4c"/>
                    <path id="Trazado_1234546" data-name="Trazado 1234546" d="M1550.385,555.295l-.113.135c-.649.846-1.341,1.74-2.052,2.652-.362,1.882,2.178,3.812,3.593,3.639.878-.809,1.708-1.566,2.474-2.264C1552.661,559.528,1549.924,557.374,1550.385,555.295Z" transform="translate(-1541.836 -548.682)" fill="#4b4c4c"/>
                    <path id="Trazado_1234547" data-name="Trazado 1234547" d="M1573.342,511.2c-.546.674-1.478,1.823-2.661,3.28-.737,3.09,3.6,6.319,5.822,5.851,1.417-1.3,2.527-2.313,3.2-2.921C1577.255,517.7,1572.922,514.445,1573.342,511.2Z" transform="translate(-1560.982 -511.014)" fill="#4b4c4c"/>
                    <path id="Trazado_1234548" data-name="Trazado 1234548" d="M1592.078,511.977c1.751,1.7,2.611,3.66,1.92,4.371s-2.671-.1-4.423-1.8-2.611-3.661-1.92-4.372S1590.328,510.273,1592.078,511.977Z" transform="translate(-1575.35 -509.92)" fill="#7d7d7e"/>
                    <path id="Trazado_1234549" data-name="Trazado 1234549" d="M1595.438,516.034c1.481,1.439,2.285,3.013,1.8,3.516s-2.084-.258-3.563-1.7-2.283-3.013-1.795-3.515S1593.959,514.595,1595.438,516.034Z" transform="translate(-1579.037 -513.561)" fill="#bfbfbf"/>
                  </g>
                  <path id="Trazado_1234550" data-name="Trazado 1234550" d="M1535.021,601.639l-2.469,2.735c1.146.863,1.756.715,1.968.608.969-.914,1.913-1.795,2.815-2.632C1536.4,602.654,1535.021,601.639,1535.021,601.639Z" transform="translate(-1528.482 -588.272)" fill="#6d6e6e"/>
                </g>
                <path id="Trazado_1234551" data-name="Trazado 1234551" d="M1603.223,815.737l-.273,6.142,2.587-.437.045-6.215Z" transform="translate(-1588.62 -742.841)" fill="#6d6e6e"/>
                <g id="Grupo_1232106" data-name="Grupo 1232106" transform="translate(20.658 72.289)">
                  <path id="Trazado_1234552" data-name="Trazado 1234552" d="M1648.374,814.561l15.352,41.445-2.529.427-14.828-41.7Z" transform="translate(-1646.37 -814.561)" fill="#4b4c4c"/>
                  <path id="Trazado_1234553" data-name="Trazado 1234553" d="M1685.037,907.736c.053.13.171,0,.3-.051h0c.13-.053.243.1.19-.032l-11.405-32.769a.256.256,0,0,0-.334-.139h0a.257.257,0,0,0-.138.335Z" transform="translate(-1669.659 -865.957)" fill="#616161"/>
                </g>
                <path id="Trazado_1234554" data-name="Trazado 1234554" d="M1645.816,809.413l2.279,5.71-2.588.438-2.087-5.853Z" transform="translate(-1623.192 -737.874)" fill="#6d6e6e"/>
                <path id="Trazado_1234555" data-name="Trazado 1234555" d="M1622.76,817.02l.96,5.68,2.913-.493-.953-5.635Z" transform="translate(-1605.543 -743.99)" fill="#6d6e6e"/>
                <g id="Grupo_1232107" data-name="Grupo 1232107" transform="translate(13.222 70.328)">
                  <rect id="Rect치ngulo_424310" data-name="Rect치ngulo 424310" width="10.539" height="2.106" transform="translate(0 1.759) rotate(-9.607)" fill="#4b4c4c"/>
                  <path id="Trazado_1234556" data-name="Trazado 1234556" d="M1611.858,805.491c.042.248-.227.5-.6.564l-7.38,1.248c-.374.064-.71-.086-.753-.334l-.01-.061c-.042-.249.227-.5.6-.563l7.38-1.249c.375-.063.712.085.754.334Z" transform="translate(-1601.976 -804.502)" fill="#616161"/>
                </g>
              </g>
            </g>
          </g>
        </g>
        <path id="Trazado_1234558" data-name="Trazado 1234558" d="M451.79,443.5c3.5-57.421,24.231-81.474,24.231-81.474a35.95,35.95,0,0,1,4.855-4.481c1.261-8.444,6.645-10.786,6.645-10.786l.464,4.409s17.049-8.611,19.592-4.293c1.733,2.942-8.455,5.218-8.218,6.164,1.893-.651,12.374-2.759,13.025,1.027.52,3.024-10.507,2.951-11.043,3.6,2.07-.118,14.241.6,12.108,4.329-1.42,2.484-7.412-.326-11.2.916,9.109.946,9.446,5.224,8.281,5.265-2.327.082-4.5-1.088-11.061-.651-4.734.316-9.485,3.932-12.584,6.824a6.448,6.448,0,0,1-1.877,2.134C468.4,396.869,448,494.222,506.587,536.777a73.437,73.437,0,0,1-5.538,14.282S447.15,519.678,451.79,443.5Z" transform="translate(-332.026 -176.821)" fill="#fcc7a5"/>
        <path id="Trazado_1234559" data-name="Trazado 1234559" d="M728.051,1627.679s6.414,5.766,8.644,7.371c3.739-7.737,5.415-11.947,5.415-11.947s-6.977-5.359-8.926-7.168C736.916,1622.887,736.954,1630.362,728.051,1627.679Z" transform="translate(-568.267 -1261.962)" fill="#ebad86"/>
        <path id="Trazado_1234560" data-name="Trazado 1234560" d="M1639.121,586.362c8.44-56.9-11.767-89.375-11.767-89.375a35.944,35.944,0,0,0-4.368-4.957c-.386-8.529-3.689-9.506-3.689-9.506l-2.853,2.085s-15.03-12.114-18-8.08c-2.026,2.748,6.957,8.2,6.624,9.119-1.816-.842-8.352-2.823-8.575.353-.215,3.061,5.661,3.345,6.128,4.042-2.047-.331-7.744-.086-6.8,2.867.578,1.8,3.789,1.393,5.353,2.257-7.08.251-6.452,4.1-5.3,4.262,2.306.32,1.11-.5,7.588.613,4.676.8,9.03,4.886,11.816,8.082a6.447,6.447,0,0,0,1.647,2.315c14.42,21.986,19.861,106.529-33.479,140.049,1.111,7.557,2.04,14.865,2.04,14.865S1630.085,647.281,1639.121,586.362Z" transform="translate(-1299.001 -287.907)" fill="#fcc7a5"/>
        <path id="Trazado_1234561" data-name="Trazado 1234561" d="M1589.113,1654.854s-7.251,4.67-9.708,5.9c-2.458-8.234-3.441-12.658-3.441-12.658s7.742-4.178,9.954-5.653C1581.125,1648.71,1579.9,1656.083,1589.113,1654.854Z" transform="translate(-1292.607 -1284.606)" fill="#ebad86"/>
        <g id="Grupo_1232113" data-name="Grupo 1232113" transform="translate(163.684 354.885)">
          <g id="Grupo_1232112" data-name="Grupo 1232112" transform="translate(2.179 0.998)">
            <path id="Trazado_1234562" data-name="Trazado 1234562" d="M814.3,1639.212c-11.837,31.335,39.548,34.852,40,4.345,4.529.044,20.326-2.589,33.086-8.26,2.37,11.38,4.226,20.521,6.076,28.152-5.192,1.9-13.115,5.892-24.507,8.506,2.572,20.272,3.987,23.691,8.208,40.292h-95.69c-.015-.005-.029,0-.044,0,4.191-20.1,6.973-28.531,9.349-48.394.081-.679-11.961-1.117-20.958-7.955-.72-12.955,5.472-22.93,8.478-26.861C790.891,1638.154,809.171,1638.978,814.3,1639.212Z" transform="translate(-769.761 -1629.038)" fill="#f05123"/>
            <path id="Trazado_1234563" data-name="Trazado 1234563" d="M869.953,2018.392l6.839-30.981s3.076,27.9,39.472,28.056,35.757-25.733,35.757-25.733l7.572,28.659h-89.64Z" transform="translate(-855.351 -1935.183)" fill="#db4020"/>
            <path id="Trazado_1234564" data-name="Trazado 1234564" d="M1044.241,1695.393c-1.826,8.956-.734,21.791,12.979,21.968,12.08.158,18.5-6.67,18.66-18.669,2.733.117,7.365.589,7.365.589s-.94,26.073-27.107,24.213c-24.863-1.77-19.732-28.691-19.732-28.691Z" transform="translate(-997.171 -1685.218)" fill="#fff"/>
          </g>
          <path id="Trazado_1234565" data-name="Trazado 1234565" d="M764.477,1622.19s-10.462,17.441-9.617,28.356a34.127,34.127,0,0,0,6.068,2.965s3.057-16.816,8.967-28.071A18.337,18.337,0,0,1,764.477,1622.19Z" transform="translate(-754.811 -1622.19)" fill="#fff"/>
          <path id="Trazado_1234566" data-name="Trazado 1234566" d="M1537.06,1660.579s4.522,18.366,10.307,27.661c2.916-.581,6.853-3.7,6.853-3.7-2.913-4.022-7.756-14.271-9.889-27.5A45.743,45.743,0,0,1,1537.06,1660.579Z" transform="translate(-1423.056 -1651.96)" fill="#fff"/>
        </g>
      </g>
    </g>
  </g>
</svg>
