<svg xmlns="http://www.w3.org/2000/svg" xmlns:xlink="http://www.w3.org/1999/xlink" width="98" height="98" viewBox="0 0 98 98">
  <defs>
    <filter id="Trazado_982547" x="0" y="0" width="98" height="98" filterUnits="userSpaceOnUse">
      <feOffset dy="3" input="SourceAlpha"/>
      <feGaussianBlur stdDeviation="3" result="blur"/>
      <feFlood flood-opacity="0.161"/>
      <feComposite operator="in" in2="blur"/>
      <feComposite in="SourceGraphic"/>
    </filter>
    <clipPath id="clip-path">
      <path id="path8121" d="M0-682.665H48.414v48.414H0Z" transform="translate(0 682.665)"/>
    </clipPath>
  </defs>
  <g id="Grupo_1231982" data-name="Grupo 1231982" transform="translate(-195.151 -1804)">
    <g id="Grupo_1230147" data-name="Grupo 1230147" transform="translate(204.151 1810)">
      <g id="Grupo_1229777" data-name="Grupo 1229777" transform="translate(0)">
        <g id="Grupo_1208936" data-name="Grupo 1208936">
          <g id="Grupo_1208171" data-name="Grupo 1208171">
            <g id="Grupo_1207739" data-name="Grupo 1207739">
              <g id="Grupo_1207712" data-name="Grupo 1207712">
                <g id="Grupo_1207285" data-name="Grupo 1207285">
                  <g id="Grupo_1206883" data-name="Grupo 1206883">
                    <g id="Grupo_1204569" data-name="Grupo 1204569">
                      <g id="Grupo_1203962" data-name="Grupo 1203962">
                        <g id="Grupo_1203498" data-name="Grupo 1203498">
                          <g id="Grupo_1202589" data-name="Grupo 1202589">
                            <g id="Grupo_1172010" data-name="Grupo 1172010">
                              <g id="Grupo_1171046" data-name="Grupo 1171046">
                                <g id="Grupo_1148525" data-name="Grupo 1148525">
                                  <g transform="matrix(1, 0, 0, 1, -9, -6)" filter="url(#Trazado_982547)">
                                    <g id="Trazado_982547-2" data-name="Trazado 982547" transform="translate(9 6)" fill="#fdfbec">
                                      <path d="M 39.99999237060547 78.49998474121094 C 34.80186080932617 78.49998474121094 29.76002502441406 77.48226165771484 25.0145149230957 75.47508239746094 C 20.43014717102051 73.53604888916016 16.31264877319336 70.75984954833984 12.77639198303223 67.22359466552734 C 9.240137100219727 63.68733596801758 6.463936805725098 59.5698356628418 4.524903297424316 54.98546981811523 C 2.517725706100464 50.23995971679688 1.500003457069397 45.19812393188477 1.500003457069397 39.99999237060547 C 1.500003457069397 34.8018684387207 2.517725706100464 29.76002502441406 4.524903297424316 25.0145263671875 C 6.463936805725098 20.43014717102051 9.240137100219727 16.31264877319336 12.77639198303223 12.77639198303223 C 16.31264877319336 9.240137100219727 20.43014717102051 6.463936805725098 25.0145149230957 4.524903297424316 C 29.76002502441406 2.517725706100464 34.8018684387207 1.500003457069397 39.99999237060547 1.500003457069397 C 45.19811630249023 1.500003457069397 50.23995971679688 2.517725706100464 54.98546981811523 4.524903297424316 C 59.5698356628418 6.463936805725098 63.68733596801758 9.240137100219727 67.22359466552734 12.77639198303223 C 70.75984954833984 16.31264877319336 73.53604888916016 20.43014717102051 75.47508239746094 25.0145263671875 C 77.48226165771484 29.76002502441406 78.49998474121094 34.8018684387207 78.49998474121094 39.99999237060547 C 78.49998474121094 45.19812393188477 77.48226165771484 50.23995971679688 75.47508239746094 54.98546981811523 C 73.53604888916016 59.5698356628418 70.75984954833984 63.68733596801758 67.22359466552734 67.22359466552734 C 63.68733596801758 70.75984954833984 59.5698356628418 73.53604888916016 54.98546981811523 75.47508239746094 C 50.23995971679688 77.48226165771484 45.19812393188477 78.49998474121094 39.99999237060547 78.49998474121094 Z" stroke="none"/>
                                      <path d="M 39.99999237060547 2.999992370605469 C 35.00370025634766 2.999992370605469 30.1584587097168 3.97784423828125 25.59884643554688 5.906402587890625 C 21.19327163696289 7.769805908203125 17.23603057861328 10.43805694580078 13.83704376220703 13.83704376220703 C 10.43805694580078 17.23603057861328 7.769805908203125 21.19327163696289 5.906402587890625 25.59884643554688 C 3.97784423828125 30.1584587097168 2.999992370605469 35.00370025634766 2.999992370605469 39.99999237060547 C 2.999992370605469 44.99628448486328 3.97784423828125 49.84152603149414 5.906402587890625 54.40113830566406 C 7.769805908203125 58.80671310424805 10.43805694580078 62.76395416259766 13.83704376220703 66.16294097900391 C 17.23603057861328 69.56191253662109 21.19327163696289 72.23016357421875 25.59884643554688 74.09356689453125 C 30.1584587097168 76.02212524414062 35.00370025634766 76.99997711181641 39.99999237060547 76.99997711181641 C 44.99628448486328 76.99997711181641 49.84152603149414 76.02212524414062 54.40113830566406 74.09356689453125 C 58.80671310424805 72.23016357421875 62.76395416259766 69.56191253662109 66.16294097900391 66.16294097900391 C 69.56191253662109 62.76395416259766 72.23016357421875 58.80671310424805 74.09356689453125 54.40113830566406 C 76.02212524414062 49.84152603149414 76.99997711181641 44.99628448486328 76.99997711181641 39.99999237060547 C 76.99997711181641 35.00370025634766 76.02212524414062 30.1584587097168 74.09356689453125 25.59884643554688 C 72.23016357421875 21.19327163696289 69.56191253662109 17.23603057861328 66.16294097900391 13.83704376220703 C 62.76395416259766 10.43805694580078 58.80671310424805 7.769805908203125 54.40113830566406 5.906402587890625 C 49.84152603149414 3.97784423828125 44.99628448486328 2.999992370605469 39.99999237060547 2.999992370605469 M 39.99999237060547 -7.62939453125e-06 C 62.09137725830078 -7.62939453125e-06 79.99997711181641 17.90860748291016 79.99997711181641 39.99999237060547 C 79.99997711181641 62.09137725830078 62.09137725830078 79.99997711181641 39.99999237060547 79.99997711181641 C 17.90860748291016 79.99997711181641 -7.62939453125e-06 62.09137725830078 -7.62939453125e-06 39.99999237060547 C -7.62939453125e-06 17.90860748291016 17.90860748291016 -7.62939453125e-06 39.99999237060547 -7.62939453125e-06 Z" stroke="none" fill="#83793c"/>
                                    </g>
                                  </g>
                                </g>
                              </g>
                            </g>
                          </g>
                        </g>
                      </g>
                    </g>
                  </g>
                </g>
                <g id="g8115" transform="translate(15.793 15.793)">
                  <g id="g8117">
                    <g id="g8119" clip-path="url(#clip-path)">
                      <g id="g8125" transform="translate(-33.259 0.709)">
                        <path id="path8127" d="M-338.457-377.826h-25.835v-25.108c5.31-7.679,37.755-5.416,25.835,25.108" transform="translate(364.292 406.667)" fill="#fbdf63"/>
                      </g>
                      <g id="g8129" transform="translate(-33.259 0.709)">
                        <path id="path8131" d="M-338.457-377.826h-.619c6.164-24.728-15.887-30.6-25.216-24.374v-.734c5.31-7.679,37.755-5.416,25.835,25.108" transform="translate(364.292 406.667)" fill="#f9d11f"/>
                      </g>
                    </g>
                  </g>
                  <g id="g8265">
                    <g id="g8267" clip-path="url(#clip-path)">
                      <g id="g8273" transform="translate(-33.259 51.036)">
                        <path id="path8275" d="M-338.457-377.654h-25.835v-25.1c5.31-7.676,37.755-5.413,25.835,25.1" transform="translate(364.292 406.481)" fill="#003343"/>
                      </g>
                      <g id="g8277" transform="translate(-33.259 51.036)">
                        <path id="path8279" d="M-338.457-377.654h-.619c6.164-24.717-15.887-30.585-25.216-24.362v-.734c5.31-7.676,37.755-5.413,25.835,25.1" transform="translate(364.292 406.481)" fill="#002439"/>
                      </g>
                    </g>
                  </g>
                  <g id="g8281">
                    <g id="g8283" clip-path="url(#clip-path)">
                      <g id="g8289" transform="translate(17.066 51.014)">
                        <path id="path8291" d="M-338.457-377.826h-25.835v-25.108c5.31-7.679,37.755-5.416,25.835,25.108" transform="translate(364.292 406.667)" fill="#ff7e50"/>
                      </g>
                      <g id="g8293" transform="translate(17.066 51.014)">
                        <path id="path8295" d="M-338.457-377.826h-.619c6.164-24.728-15.887-30.6-25.216-24.374v-.734c5.31-7.679,37.755-5.416,25.835,25.108" transform="translate(364.292 406.667)" fill="#ff6247"/>
                      </g>
                      <g id="g8297" transform="translate(2.941 54.225)">
                        <path id="path8299" d="M-233.028-131.751v15.573h-14.6c-12.2-25.649,14.6-34.273,14.6-15.573" transform="translate(250.816 141.808)" fill="#ffa68a"/>
                      </g>
                      <g id="g8301" transform="translate(2.941 54.225)">
                        <path id="path8303" d="M-233.028-131.751c-.9-16.1-20.23-9.82-14.176,15.573h-.427c-12.2-25.649,14.6-34.273,14.6-15.573" transform="translate(250.816 141.808)" fill="#ff7e50"/>
                      </g>
                    </g>
                  </g>
                </g>
              </g>
            </g>
          </g>
        </g>
      </g>
    </g>
    <g id="aprendizaje_5_" data-name="aprendizaje (5)" transform="translate(197.289 1824.833)">
      <g id="Grupo_1231980" data-name="Grupo 1231980" transform="translate(24.802 0.738)">
        <path id="Trazado_1232760" data-name="Trazado 1232760" d="M74.764,194.154a.919.919,0,0,1,.919.919v25.76a3.8,3.8,0,0,1-3.8,3.8H35.367a3.8,3.8,0,0,1-3.8-3.8v-25.76a.919.919,0,0,1,.919-.919Z" transform="translate(-31.564 -175.778)" fill="#b3e5ee"/>
        <path id="Trazado_1232761" data-name="Trazado 1232761" d="M59.879,194.154v25.991A3.123,3.123,0,0,0,63,223.265H95.4a3.123,3.123,0,0,0,3.119-3.12V194.154Z" transform="translate(-57.091 -175.778)" fill="#86d7e5"/>
        <path id="Trazado_1232762" data-name="Trazado 1232762" d="M113.8,175.283H80.661a.782.782,0,0,0-.782.783v23.516l10.68,3.9,6.672.767,15.992-2.887,1.36-1.782V176.066A.782.782,0,0,0,113.8,175.283Z" transform="translate(-75.122 -158.765)" fill="#f9f7f7"/>
        <path id="Trazado_1232763" data-name="Trazado 1232763" d="M248.639,175.283h1.477v29h-1.477Z" transform="translate(-227.268 -158.765)" fill="#f8f3f2"/>
        <path id="Trazado_1232764" data-name="Trazado 1232764" d="M163.57,175.283l4.331,6.742v.523a2.565,2.565,0,0,0,1.09,2.1v.822a3.125,3.125,0,0,0,3.121,3.121h1.142a3.125,3.125,0,0,0,3.121-3.121v-.822a2.565,2.565,0,0,0,1.09-2.1v-.523l4.331-6.742Z" transform="translate(-150.574 -158.765)" fill="#f8f3f2"/>
        <g id="Grupo_1231978" data-name="Grupo 1231978" transform="translate(4.757)">
          <g id="Grupo_1231977" data-name="Grupo 1231977" transform="translate(0 16.518)">
            <g id="XMLID_248_">
              <g id="Grupo_1231976" data-name="Grupo 1231976">
                <g id="Grupo_1231974" data-name="Grupo 1231974">
                  <path id="Trazado_1232765" data-name="Trazado 1232765" d="M83.978,200.412V175.283H80.661a.782.782,0,0,0-.782.783v23.516l4.232,1.546A2.01,2.01,0,0,1,83.978,200.412Z" transform="translate(-79.879 -175.283)" fill="#f8f3f2"/>
                </g>
                <g id="Grupo_1231975" data-name="Grupo 1231975" transform="translate(0 24.299)">
                  <path id="Trazado_1232766" data-name="Trazado 1232766" d="M97.232,426.771v.032h-16.2a1.15,1.15,0,0,1-1.15-1.151V422.1H92.563A4.668,4.668,0,0,1,97.232,426.771Z" transform="translate(-79.879 -422.103)" fill="#f2eae7"/>
                  <path id="Trazado_1232767" data-name="Trazado 1232767" d="M273.492,422.1v3.55a1.15,1.15,0,0,1-1.15,1.151h-16.2v-.032a4.668,4.668,0,0,1,4.668-4.668Z" transform="translate(-238.786 -422.103)" fill="#f2eae7"/>
                </g>
              </g>
            </g>
          </g>
          <path id="Trazado_1232768" data-name="Trazado 1232768" d="M238.066,248.154h-4.431v3.011a1.644,1.644,0,0,0,1.644,1.644h1.142a1.644,1.644,0,0,0,1.644-1.644Z" transform="translate(-218.498 -224.462)" fill="#a59ca6"/>
          <path id="Trazado_1232769" data-name="Trazado 1232769" d="M238.066,248.154h-4.431v3.011a1.644,1.644,0,0,0,1.644,1.644h1.142a1.643,1.643,0,0,0,1.461-.891,1.657,1.657,0,0,1-.193.012h-1.142a1.643,1.643,0,0,1-1.556-1.114.376.376,0,0,1,.355-.5h2.72v-2.166Z" transform="translate(-218.498 -224.462)" fill="#8f8390"/>
          <path id="Trazado_1232770" data-name="Trazado 1232770" d="M176.034,17.319a9.82,9.82,0,1,0-17.85,5.651l4.725,7.356v.957a1.09,1.09,0,0,0,1.09,1.09h4.431a1.09,1.09,0,0,0,1.09-1.09v-.957l4.725-7.356a9.773,9.773,0,0,0,1.789-5.651Z" transform="translate(-148.862 -7.499)" fill="#fbe88c"/>
          <path id="Trazado_1232771" data-name="Trazado 1232771" d="M162.326,24.224a10.813,10.813,0,0,1-1.87-6.109,10.546,10.546,0,0,1,8.006-10.356,9.821,9.821,0,0,0-10.277,15.212l4.725,7.356v.957a1.09,1.09,0,0,0,1.09,1.09h2.806Z" transform="translate(-148.863 -7.5)" fill="#fbe372"/>
        </g>
        <g id="Grupo_1231979" data-name="Grupo 1231979" transform="translate(4.757 40.817)">
          <path id="Trazado_1232772" data-name="Trazado 1232772" d="M256.506,451.046a4.655,4.655,0,0,0-.368,1.819v.032h16.2a1.15,1.15,0,0,0,1.15-1.151v-.7H256.506Z" transform="translate(-238.786 -448.197)" fill="#ede2dd"/>
          <path id="Trazado_1232773" data-name="Trazado 1232773" d="M86,424.952a2.02,2.02,0,0,1-2.02-2.02v-.83h-4.1v3.55a1.15,1.15,0,0,0,1.15,1.151h16.2v-.032a4.653,4.653,0,0,0-.368-1.819Z" transform="translate(-79.879 -422.103)" fill="#ede2dd"/>
        </g>
      </g>
      <g id="Grupo_1231981" data-name="Grupo 1231981" transform="translate(24.064 0)">
        <path id="Trazado_1232774" data-name="Trazado 1232774" d="M68,169.643H65v-.337a1.522,1.522,0,0,0-1.521-1.521H57.565a.738.738,0,1,0,0,1.477h5.916a.044.044,0,0,1,.044.044v9a.738.738,0,0,0,1.477,0v-7.189h3a.181.181,0,0,1,.181.181v25.76a3.068,3.068,0,0,1-3.064,3.064H28.605a3.068,3.068,0,0,1-3.064-3.064V171.3a.181.181,0,0,1,.181-.181h3.1v25.253a1.89,1.89,0,0,0,1.888,1.888H63.114A1.89,1.89,0,0,0,65,196.373V181.458a.738.738,0,0,0-1.477,0v10.626H51.58a5.391,5.391,0,0,0-3.93,1.7v-9.551a.738.738,0,0,0-1.477,0v9.551a5.391,5.391,0,0,0-3.93-1.7H38.888a.738.738,0,0,0,0,1.477h3.355a3.936,3.936,0,0,1,3.865,3.224h-15.4a.412.412,0,0,1-.412-.412V193.56h5.442a.738.738,0,0,0,0-1.477H30.3V169.306a.044.044,0,0,1,.044-.044h5.916a.738.738,0,0,0,0-1.477H30.341a1.523,1.523,0,0,0-1.521,1.521v.337h-3.1a1.66,1.66,0,0,0-1.658,1.658v25.76a4.546,4.546,0,0,0,4.541,4.541H65.119a4.546,4.546,0,0,0,4.541-4.541V171.3A1.659,1.659,0,0,0,68,169.643ZM51.58,193.56H63.526v2.812a.412.412,0,0,1-.412.412h-15.4A3.936,3.936,0,0,1,51.58,193.56Z" transform="translate(-24.064 -151.267)"/>
        <path id="Trazado_1232775" data-name="Trazado 1232775" d="M150.016,10.36a.739.739,0,0,0,.8-.666,9.081,9.081,0,1,1,16.467,6.09l-.018.026-4.725,7.356a.738.738,0,0,0-.117.4v.957a.352.352,0,0,1-.352.352h-.048l.47-7.982h.841a2.185,2.185,0,0,0,2.183-2.183v-.09a2.183,2.183,0,0,0-4.362-.128l-.054.924h-2.589l-.054-.924a2.183,2.183,0,0,0-4.362.128v.09a2.185,2.185,0,0,0,2.183,2.183h.841l.47,7.977a.352.352,0,0,1-.3-.347v-.957a.739.739,0,0,0-.117-.4l-4.725-7.356-.018-.026a9,9,0,0,1-1.422-3.183.738.738,0,1,0-1.439.331,10.466,10.466,0,0,0,1.645,3.69l4.6,7.16v.74a1.83,1.83,0,0,0,1.09,1.672v1.249a2.385,2.385,0,0,0,2.383,2.383h1.142a2.385,2.385,0,0,0,2.383-2.383V26.193a1.83,1.83,0,0,0,1.09-1.672v-.74l4.6-7.16a10.558,10.558,0,1,0-19.154-7.066A.738.738,0,0,0,150.016,10.36Zm12.618,4.218a.706.706,0,0,1,1.411.041v.09a.707.707,0,0,1-.706.706h-.754Zm-6.351.837a.707.707,0,0,1-.706-.706v-.09a.706.706,0,0,1,1.411-.041l.049.837Zm4.736,1.477-.47,7.982h-1.475l-.47-7.982Zm.319,10.55a.907.907,0,0,1-.906.906h-1.142a.907.907,0,0,1-.906-.906V26.35h2.954v1.092Z" transform="translate(-137.013 0)"/>
        <path id="Trazado_1232776" data-name="Trazado 1232776" d="M380.749,30.475a.735.735,0,0,0,.487-.184l1.611-1.415a.738.738,0,0,0-.974-1.11l-1.611,1.415a.738.738,0,0,0,.487,1.293Z" transform="translate(-344.968 -24.868)"/>
        <path id="Trazado_1232777" data-name="Trazado 1232777" d="M380.262,90.341l1.611,1.415a.738.738,0,0,0,.974-1.11l-1.611-1.415a.738.738,0,0,0-.974,1.11Z" transform="translate(-344.968 -80.281)"/>
        <path id="Trazado_1232778" data-name="Trazado 1232778" d="M101.154,28.876l1.611,1.415a.738.738,0,0,0,.974-1.11l-1.611-1.415a.738.738,0,1,0-.974,1.11Z" transform="translate(-93.338 -24.867)"/>
        <path id="Trazado_1232779" data-name="Trazado 1232779" d="M101.642,91.94a.736.736,0,0,0,.487-.184l1.611-1.415a.738.738,0,0,0-.974-1.11l-1.611,1.415a.738.738,0,0,0,.487,1.293Z" transform="translate(-93.339 -80.282)"/>
        <path id="Trazado_1232780" data-name="Trazado 1232780" d="M109.653,253.392a.738.738,0,0,0-.738-.738h-7.273a.738.738,0,1,0,0,1.477h7.273A.738.738,0,0,0,109.653,253.392Z" transform="translate(-93.338 -227.781)"/>
        <path id="Trazado_1232781" data-name="Trazado 1232781" d="M123.378,290.8h-8.189a.738.738,0,1,0,0,1.477h8.189a.738.738,0,0,0,0-1.477Z" transform="translate(-105.553 -262.176)"/>
        <path id="Trazado_1232782" data-name="Trazado 1232782" d="M123.378,327.346h-8.189a.738.738,0,1,0,0,1.477h8.189a.738.738,0,0,0,0-1.477Z" transform="translate(-105.553 -295.119)"/>
        <path id="Trazado_1232783" data-name="Trazado 1232783" d="M123.378,363.887h-8.189a.738.738,0,1,0,0,1.477h8.189a.738.738,0,0,0,0-1.477Z" transform="translate(-105.553 -328.063)"/>
        <path id="Trazado_1232784" data-name="Trazado 1232784" d="M331.246,253.392a.738.738,0,0,0-.738-.738h-7.273a.738.738,0,1,0,0,1.477h7.273A.738.738,0,0,0,331.246,253.392Z" transform="translate(-293.116 -227.781)"/>
        <path id="Trazado_1232785" data-name="Trazado 1232785" d="M308.574,290.8h-8.189a.738.738,0,1,0,0,1.477h8.189a.738.738,0,0,0,0-1.477Z" transform="translate(-272.516 -262.176)"/>
        <path id="Trazado_1232786" data-name="Trazado 1232786" d="M308.574,327.346h-8.189a.738.738,0,1,0,0,1.477h8.189a.738.738,0,0,0,0-1.477Z" transform="translate(-272.516 -295.119)"/>
        <path id="Trazado_1232787" data-name="Trazado 1232787" d="M308.574,363.887h-8.189a.738.738,0,1,0,0,1.477h8.189a.738.738,0,0,0,0-1.477Z" transform="translate(-272.516 -328.063)"/>
      </g>
    </g>
  </g>
</svg>
