<svg xmlns="http://www.w3.org/2000/svg" width="85" height="78" viewBox="0 0 85 78">
  <g id="Grupo_1232355" data-name="Grupo 1232355" transform="translate(-181 -2156)">
    <g id="Grupo_1229423" data-name="Grupo 1229423" transform="translate(1 -495)">
      <rect id="Rectángulo_423244" data-name="Rectángulo 423244" width="85" height="78" rx="15" transform="translate(180 2651)" fill="#453179"/>
    </g>
    <g id="thought_1984538" transform="translate(161.43 2170.056)">
      <path id="Trazado_1055263" data-name="Trazado 1055263" d="M207.547,120.375H194.636a.89.89,0,0,0-.889.889v7.04a.89.89,0,0,0,.889.889h10.125a1.462,1.462,0,0,1,.725.193l2.949,1.686v-9.807A.89.89,0,0,0,207.547,120.375ZM196.8,126.246a1.462,1.462,0,1,1,1.462-1.462A1.487,1.487,0,0,1,196.8,126.246Zm4.287,0a1.462,1.462,0,1,1,1.462-1.462A1.487,1.487,0,0,1,201.091,126.246Zm4.287,0a1.462,1.462,0,1,1,1.462-1.462A1.487,1.487,0,0,1,205.379,126.246Z" transform="translate(-137.598 -108.646)" fill="#d9d5e3"/>
      <path id="Trazado_1055264" data-name="Trazado 1055264" d="M63.7,0A19.46,19.46,0,0,0,44.259,19.438v2.553l-2.9,9.6a1.462,1.462,0,0,0,.921,1.8l4.945,1.713v6.871a1.462,1.462,0,0,0,1.462,1.462h7.431v4.989a1.462,1.462,0,0,0,1.462,1.462H75.363a1.462,1.462,0,0,0,1.462-1.462V33.773A19.437,19.437,0,0,0,63.7,0ZM73.761,24.944a1.462,1.462,0,0,1-2.187,1.269l-4.8-2.743H57.038a3.817,3.817,0,0,1-3.812-3.812v-7.04a3.817,3.817,0,0,1,3.812-3.812H69.949a3.817,3.817,0,0,1,3.812,3.812Z" fill="#d9d5e3"/>
    </g>
  </g>
</svg>
