<svg xmlns="http://www.w3.org/2000/svg" xmlns:xlink="http://www.w3.org/1999/xlink" width="98" height="98" viewBox="0 0 98 98">
  <defs>
    <filter id="Trazado_982547" x="0" y="0" width="98" height="98" filterUnits="userSpaceOnUse">
      <feOffset dy="3" input="SourceAlpha"/>
      <feGaussianBlur stdDeviation="3" result="blur"/>
      <feFlood flood-opacity="0.161"/>
      <feComposite operator="in" in2="blur"/>
      <feComposite in="SourceGraphic"/>
    </filter>
    <clipPath id="clip-path">
      <path id="path8121" d="M0-682.665H48.414v48.414H0Z" transform="translate(0 682.665)"/>
    </clipPath>
  </defs>
  <g id="Grupo_1232151" data-name="Grupo 1232151" transform="translate(-615.151 -3322)">
    <g id="Grupo_1231550" data-name="Grupo 1231550" transform="translate(420 1030)">
      <g id="Grupo_1229590" data-name="Grupo 1229590" transform="translate(204.151 2298)">
        <g id="Grupo_1208936" data-name="Grupo 1208936" transform="translate(0)">
          <g id="Grupo_1208171" data-name="Grupo 1208171">
            <g id="Grupo_1207739" data-name="Grupo 1207739">
              <g id="Grupo_1207712" data-name="Grupo 1207712">
                <g id="Grupo_1207285" data-name="Grupo 1207285">
                  <g id="Grupo_1206883" data-name="Grupo 1206883">
                    <g id="Grupo_1204569" data-name="Grupo 1204569">
                      <g id="Grupo_1203962" data-name="Grupo 1203962">
                        <g id="Grupo_1203498" data-name="Grupo 1203498">
                          <g id="Grupo_1202589" data-name="Grupo 1202589">
                            <g id="Grupo_1172010" data-name="Grupo 1172010">
                              <g id="Grupo_1171046" data-name="Grupo 1171046">
                                <g id="Grupo_1148525" data-name="Grupo 1148525">
                                  <g transform="matrix(1, 0, 0, 1, -9, -6)" filter="url(#Trazado_982547)">
                                    <g id="Trazado_982547-2" data-name="Trazado 982547" transform="translate(9 6)" fill="#fdfbec">
                                      <path d="M 39.99999237060547 78.49998474121094 C 34.8018684387207 78.49998474121094 29.76002502441406 77.48226165771484 25.0145263671875 75.47508239746094 C 20.43014717102051 73.53604888916016 16.31264877319336 70.75984954833984 12.77639198303223 67.22359466552734 C 9.240137100219727 63.68733596801758 6.463936805725098 59.5698356628418 4.524903297424316 54.98546981811523 C 2.517725706100464 50.23995971679688 1.500003457069397 45.19811630249023 1.500003457069397 39.99999237060547 C 1.500003457069397 34.8018684387207 2.517725706100464 29.76002502441406 4.524903297424316 25.0145263671875 C 6.463936805725098 20.43014717102051 9.240137100219727 16.31264877319336 12.77639198303223 12.77639198303223 C 16.31264877319336 9.240137100219727 20.43014717102051 6.463936805725098 25.0145263671875 4.524903297424316 C 29.76002502441406 2.517725706100464 34.8018684387207 1.500003457069397 39.99999237060547 1.500003457069397 C 45.19811630249023 1.500003457069397 50.23995971679688 2.517725706100464 54.98546981811523 4.524903297424316 C 59.5698356628418 6.463936805725098 63.68733596801758 9.240137100219727 67.22359466552734 12.77639198303223 C 70.75984954833984 16.31264877319336 73.53604888916016 20.43014717102051 75.47508239746094 25.0145263671875 C 77.48226165771484 29.76002502441406 78.49998474121094 34.8018684387207 78.49998474121094 39.99999237060547 C 78.49998474121094 45.19812393188477 77.48226165771484 50.23995971679688 75.47508239746094 54.98546981811523 C 73.53604888916016 59.5698356628418 70.75984954833984 63.68733596801758 67.22359466552734 67.22359466552734 C 63.68733596801758 70.75984954833984 59.5698356628418 73.53604888916016 54.98546981811523 75.47508239746094 C 50.23995971679688 77.48226165771484 45.19812393188477 78.49998474121094 39.99999237060547 78.49998474121094 Z" stroke="none"/>
                                      <path d="M 39.99999237060547 2.999992370605469 C 35.00370025634766 2.999992370605469 30.1584587097168 3.97784423828125 25.59884643554688 5.906402587890625 C 21.19327163696289 7.769805908203125 17.23603057861328 10.43805694580078 13.83704376220703 13.83704376220703 C 10.43805694580078 17.23603057861328 7.769805908203125 21.19327163696289 5.906402587890625 25.59884643554688 C 3.97784423828125 30.1584587097168 2.999992370605469 35.00370025634766 2.999992370605469 39.99999237060547 C 2.999992370605469 44.99628448486328 3.97784423828125 49.84152603149414 5.906402587890625 54.40113830566406 C 7.769805908203125 58.80671310424805 10.43805694580078 62.76395416259766 13.83704376220703 66.16294097900391 C 17.23603057861328 69.56191253662109 21.19327163696289 72.23016357421875 25.59884643554688 74.09356689453125 C 30.1584587097168 76.02212524414062 35.00370025634766 76.99997711181641 39.99999237060547 76.99997711181641 C 44.99628448486328 76.99997711181641 49.84152603149414 76.02212524414062 54.40113830566406 74.09356689453125 C 58.80671310424805 72.23016357421875 62.76395416259766 69.56191253662109 66.16294097900391 66.16294097900391 C 69.56191253662109 62.76395416259766 72.23016357421875 58.80671310424805 74.09356689453125 54.40113830566406 C 76.02212524414062 49.84152603149414 76.99997711181641 44.99628448486328 76.99997711181641 39.99999237060547 C 76.99997711181641 35.00370025634766 76.02212524414062 30.1584587097168 74.09356689453125 25.59884643554688 C 72.23016357421875 21.19327163696289 69.56191253662109 17.23603057861328 66.16294097900391 13.83704376220703 C 62.76395416259766 10.43805694580078 58.80671310424805 7.769805908203125 54.40113830566406 5.906402587890625 C 49.84152603149414 3.97784423828125 44.99628448486328 2.999992370605469 39.99999237060547 2.999992370605469 M 39.99999237060547 -7.62939453125e-06 C 62.09137725830078 -7.62939453125e-06 79.99997711181641 17.90860748291016 79.99997711181641 39.99999237060547 C 79.99997711181641 62.09137725830078 62.09137725830078 79.99997711181641 39.99999237060547 79.99997711181641 C 17.90860748291016 79.99997711181641 -7.62939453125e-06 62.09137725830078 -7.62939453125e-06 39.99999237060547 C -7.62939453125e-06 17.90860748291016 17.90860748291016 -7.62939453125e-06 39.99999237060547 -7.62939453125e-06 Z" stroke="none" fill="#83793c"/>
                                    </g>
                                  </g>
                                </g>
                              </g>
                            </g>
                          </g>
                        </g>
                      </g>
                    </g>
                  </g>
                </g>
                <g id="g8115" transform="translate(15.793 15.793)">
                  <g id="g8117">
                    <g id="g8119" clip-path="url(#clip-path)">
                      <g id="g8125" transform="translate(-33.259 0.709)">
                        <path id="path8127" d="M-338.457-377.826h-25.835v-25.108c5.31-7.679,37.755-5.416,25.835,25.108" transform="translate(364.292 406.667)" fill="#fbdf63"/>
                      </g>
                      <g id="g8129" transform="translate(-33.259 0.709)">
                        <path id="path8131" d="M-338.457-377.826h-.619c6.164-24.728-15.887-30.6-25.216-24.374v-.734c5.31-7.679,37.755-5.416,25.835,25.108" transform="translate(364.292 406.667)" fill="#f9d11f"/>
                      </g>
                    </g>
                  </g>
                  <g id="g8265">
                    <g id="g8267" clip-path="url(#clip-path)">
                      <g id="g8273" transform="translate(-33.259 51.036)">
                        <path id="path8275" d="M-338.457-377.654h-25.835v-25.1c5.31-7.676,37.755-5.413,25.835,25.1" transform="translate(364.292 406.481)" fill="#003343"/>
                      </g>
                      <g id="g8277" transform="translate(-33.259 51.036)">
                        <path id="path8279" d="M-338.457-377.654h-.619c6.164-24.717-15.887-30.585-25.216-24.362v-.734c5.31-7.676,37.755-5.413,25.835,25.1" transform="translate(364.292 406.481)" fill="#002439"/>
                      </g>
                    </g>
                  </g>
                  <g id="g8281">
                    <g id="g8283" clip-path="url(#clip-path)">
                      <g id="g8289" transform="translate(17.066 51.014)">
                        <path id="path8291" d="M-338.457-377.826h-25.835v-25.108c5.31-7.679,37.755-5.416,25.835,25.108" transform="translate(364.292 406.667)" fill="#ff7e50"/>
                      </g>
                      <g id="g8293" transform="translate(17.066 51.014)">
                        <path id="path8295" d="M-338.457-377.826h-.619c6.164-24.728-15.887-30.6-25.216-24.374v-.734c5.31-7.679,37.755-5.416,25.835,25.108" transform="translate(364.292 406.667)" fill="#ff6247"/>
                      </g>
                      <g id="g8297" transform="translate(2.941 54.225)">
                        <path id="path8299" d="M-233.028-131.751v15.573h-14.6c-12.2-25.649,14.6-34.273,14.6-15.573" transform="translate(250.816 141.808)" fill="#ffa68a"/>
                      </g>
                      <g id="g8301" transform="translate(2.941 54.225)">
                        <path id="path8303" d="M-233.028-131.751c-.9-16.1-20.23-9.82-14.176,15.573h-.427c-12.2-25.649,14.6-34.273,14.6-15.573" transform="translate(250.816 141.808)" fill="#ff7e50"/>
                      </g>
                    </g>
                  </g>
                </g>
              </g>
            </g>
          </g>
        </g>
      </g>
    </g>
    <g id="collaborate_12841771" transform="translate(629.733 3326.78)">
      <g id="Grupo_1232400" data-name="Grupo 1232400" transform="translate(7.884 16.656)">
        <g id="Grupo_1232396" data-name="Grupo 1232396" transform="translate(6.55 9.554)">
          <path id="Trazado_1248686" data-name="Trazado 1248686" d="M112.377,110.188a1.833,1.833,0,1,1-1.833,1.833,1.834,1.834,0,0,1,1.833-1.833Zm-36.3,0a1.833,1.833,0,1,1-1.833,1.833,1.834,1.834,0,0,1,1.833-1.833Z" transform="translate(-74.243 -110.188)" fill="#8ac9fe" fill-rule="evenodd"/>
          <path id="Trazado_1248687" data-name="Trazado 1248687" d="M123.977,110.221a1.833,1.833,0,1,1,0,3.6,1.834,1.834,0,0,0,0-3.6Zm-36.3,0a1.833,1.833,0,1,1,0,3.6,1.834,1.834,0,0,0,0-3.6Z" transform="translate(-86.191 -110.188)" fill="#60b7ff" fill-rule="evenodd"/>
        </g>
        <g id="Grupo_1232397" data-name="Grupo 1232397" transform="translate(15.146 0)">
          <path id="Trazado_1248688" data-name="Trazado 1248688" d="M165.654,25.658a9.709,9.709,0,0,1,2.846,1.18l1.849-.82,2.179,2.179-.82,1.849a9.708,9.708,0,0,1,1.18,2.846l1.887.726V36.7l-1.887.726a9.715,9.715,0,0,1-1.18,2.845l.82,1.849-2.179,2.18-1.849-.822a9.713,9.713,0,0,1-2.846,1.181l-.726,1.886h-3.083l-.726-1.887a9.713,9.713,0,0,1-2.845-1.18l-1.849.822-2.18-2.18.822-1.848a9.742,9.742,0,0,1-1.181-2.846L152,36.7V33.618l1.886-.726a9.712,9.712,0,0,1,1.181-2.846l-.822-1.849,2.18-2.179,1.848.82a9.739,9.739,0,0,1,2.846-1.18l.726-1.887h3.083Z" transform="translate(-152 -23.771)" fill="#ffe177" fill-rule="evenodd"/>
          <path id="Trazado_1248689" data-name="Trazado 1248689" d="M203.11,26.293l.621-.276L205.91,28.2l-.82,1.849a9.708,9.708,0,0,1,1.18,2.846l1.887.726V36.7l-1.887.726a9.715,9.715,0,0,1-1.18,2.845l.82,1.849-2.179,2.18-.621-.276,1.9-1.9-.822-1.849a9.712,9.712,0,0,0,1.18-2.845l1.887-.726V33.618l-1.887-.726a9.705,9.705,0,0,0-1.18-2.846l.822-1.849Zm-13.579,0,.276-.276,1.848.82c-.13.073-.26.148-.386.227Zm9.5-.635a9.71,9.71,0,0,1,2.846,1.18l-.51.227a12.7,12.7,0,0,0-3.233-1.407l-.726-1.887h.9Zm-7.38,17.821-1.849.822-.276-.276,1.738-.772Q191.458,43.37,191.656,43.479Zm10.226,0a9.713,9.713,0,0,1-2.846,1.181l-.726,1.886h-.9l.726-1.886a12.731,12.731,0,0,0,3.235-1.407Z" transform="translate(-185.382 -23.771)" fill="#ffd064" fill-rule="evenodd"/>
          <path id="Trazado_1248690" data-name="Trazado 1248690" d="M202.656,67.921a6.506,6.506,0,1,1-6.506,6.507A6.507,6.507,0,0,1,202.656,67.921Z" transform="translate(-191.269 -63.04)" fill="#eceff1" fill-rule="evenodd"/>
          <path id="Trazado_1248691" data-name="Trazado 1248691" d="M202.656,67.921c.148,0,.295.005.441.016a6.506,6.506,0,0,0,0,12.982c-.147.009-.293.015-.441.015a6.506,6.506,0,0,1,0-13.012Z" transform="translate(-191.269 -63.04)" fill="#d1d1d6" fill-rule="evenodd"/>
        </g>
        <g id="Grupo_1232398" data-name="Grupo 1232398" transform="translate(0 19.237)">
          <path id="Trazado_1248692" data-name="Trazado 1248692" d="M27.219,212.765H37.537a4,4,0,0,1,4,4v12.9h-18.2V217.078a1.307,1.307,0,0,0-.459-.995l-7.187-6.125A1.96,1.96,0,0,1,15,208.466V200.21a2.437,2.437,0,0,1,2.437-2.437h0a2.437,2.437,0,0,1,2.437,2.437v6.006a1.96,1.96,0,0,0,.689,1.492l5.384,4.589A1.96,1.96,0,0,0,27.219,212.765Z" transform="translate(-15 -197.773)" fill="#ffe177" fill-rule="evenodd"/>
          <ellipse id="Elipse_11591" data-name="Elipse 11591" cx="4.703" cy="4.853" rx="4.703" ry="4.853" transform="translate(10.871 2.63)" fill="#f6dccd"/>
          <path id="Trazado_1248693" data-name="Trazado 1248693" d="M118.59,231.236a4.6,4.6,0,0,1-.553.033,4.855,4.855,0,0,1,0-9.706,4.588,4.588,0,0,1,.553.033,4.874,4.874,0,0,0,0,9.639Z" transform="translate(-102.463 -218.933)" fill="#f1cbbc" fill-rule="evenodd"/>
        </g>
        <g id="Grupo_1232399" data-name="Grupo 1232399" transform="translate(26.533 19.237)">
          <path id="Trazado_1248694" data-name="Trazado 1248694" d="M269.315,212.765H259a4,4,0,0,0-4,4v12.9h18.2V217.078a1.307,1.307,0,0,1,.459-.995l7.187-6.125a1.96,1.96,0,0,0,.689-1.492V200.21a2.437,2.437,0,0,0-2.437-2.437h0a2.437,2.437,0,0,0-2.437,2.437v6.006a1.96,1.96,0,0,1-.689,1.492l-5.384,4.589A1.96,1.96,0,0,1,269.315,212.765Z" transform="translate(-255 -197.773)" fill="#8ac9fe" fill-rule="evenodd"/>
          <ellipse id="Elipse_11592" data-name="Elipse 11592" cx="4.703" cy="4.853" rx="4.703" ry="4.853" transform="translate(6.256 2.63)" fill="#f6dccd"/>
          <path id="Trazado_1248695" data-name="Trazado 1248695" d="M349.126,231.236a4.874,4.874,0,0,0,0-9.639,4.587,4.587,0,0,1,.553-.033,4.855,4.855,0,0,1,0,9.706A4.6,4.6,0,0,1,349.126,231.236Z" transform="translate(-338.72 -218.933)" fill="#f1cbbc" fill-rule="evenodd"/>
        </g>
      </g>
      <path id="Trazado_1248696" data-name="Trazado 1248696" d="M52.617,68.668h-36.4a.884.884,0,0,1-.884-.884V55.2a.422.422,0,0,0-.148-.321L8,48.751a2.845,2.845,0,0,1-1-2.165V38.33a3.321,3.321,0,0,1,3.322-3.322h0a3.321,3.321,0,0,1,3.322,3.322v6.006a1.076,1.076,0,0,0,.378.819l5.384,4.589a1.076,1.076,0,0,0,.7.257H30.422a4.881,4.881,0,0,1,4,2.079,4.881,4.881,0,0,1,4-2.079H48.733a1.076,1.076,0,0,0,.7-.257l5.384-4.589a1.076,1.076,0,0,0,.378-.819V38.33a3.321,3.321,0,0,1,3.322-3.322h0a3.321,3.321,0,0,1,3.322,3.322v8.256a2.845,2.845,0,0,1-1,2.165L53.65,54.876a.422.422,0,0,0-.148.321V67.784a.884.884,0,0,1-.884.884ZM33.533,54.881a3.112,3.112,0,0,0-3.112-3.112H20.1a2.845,2.845,0,0,1-1.845-.68L12.874,46.5a2.845,2.845,0,0,1-1-2.165V38.33a1.553,1.553,0,0,0-1.553-1.553h0A1.553,1.553,0,0,0,8.769,38.33v8.256a1.076,1.076,0,0,0,.378.819l7.187,6.125A2.192,2.192,0,0,1,17.1,55.2V66.9H28.659v-10.6a.884.884,0,0,1,1.769,0V66.9h3.106ZM40.177,66.9H51.732V55.2a2.192,2.192,0,0,1,.77-1.668L59.689,47.4a1.076,1.076,0,0,0,.378-.819V38.33a1.553,1.553,0,0,0-1.553-1.553h0a1.553,1.553,0,0,0-1.553,1.553v6.006a2.845,2.845,0,0,1-1,2.165l-5.384,4.589a2.845,2.845,0,0,1-1.845.68H38.414A3.112,3.112,0,0,0,35.3,54.881V66.9h3.106v-10.6a.884.884,0,0,1,1.769,0ZM18.838,28.928a2.718,2.718,0,1,1,0-1.769h3.309V26.5a.885.885,0,0,1,.567-.825l1.464-.564a10.643,10.643,0,0,1,.93-2.241l-.638-1.435a.885.885,0,0,1,.183-.985l2.178-2.178a.885.885,0,0,1,.985-.183l1.435.638a10.572,10.572,0,0,1,2.238-.927l.566-1.467a.885.885,0,0,1,.825-.566H35.96a.885.885,0,0,1,.826.567l.563,1.466a10.568,10.568,0,0,1,2.237.927l1.435-.638a.885.885,0,0,1,.985.183l2.178,2.178a.885.885,0,0,1,.183.984l-.636,1.435a10.547,10.547,0,0,1,.928,2.242l1.463.563a.885.885,0,0,1,.567.825v.654H50a2.718,2.718,0,1,1,0,1.769H46.689v.658a.884.884,0,0,1-.567.825l-1.464.563a10.66,10.66,0,0,1-.928,2.237l.636,1.436a.885.885,0,0,1-.183.984l-2.178,2.178a.885.885,0,0,1-.984.183l-1.435-.635a10.54,10.54,0,0,1-2.239.927l-.563,1.463a.884.884,0,0,1-.825.567H32.879a.884.884,0,0,1-.825-.567l-.563-1.463a10.635,10.635,0,0,1-2.241-.928l-1.436.636a.885.885,0,0,1-.984-.183l-2.178-2.178a.884.884,0,0,1-.183-.985l.638-1.434a10.639,10.639,0,0,1-.929-2.238l-1.465-.564a.884.884,0,0,1-.567-.825v-.658Zm-2.57-1.833a.949.949,0,1,0,.949.949A.949.949,0,0,0,16.267,27.094ZM35.86,18.863l-.508-1.322H33.486l-.511,1.324a.885.885,0,0,1-.621.542,8.806,8.806,0,0,0-2.586,1.072.885.885,0,0,1-.823.055l-1.294-.575-1.319,1.319.575,1.294a.884.884,0,0,1-.055.823,8.879,8.879,0,0,0-1.075,2.591.884.884,0,0,1-.542.619l-1.32.508v1.866l1.32.508a.884.884,0,0,1,.542.618,8.864,8.864,0,0,0,1.074,2.587.884.884,0,0,1,.056.825l-.575,1.294,1.319,1.319,1.295-.573a.884.884,0,0,1,.82.055,8.874,8.874,0,0,0,2.59,1.073.884.884,0,0,1,.622.543l.508,1.32h1.866l.508-1.32a.884.884,0,0,1,.621-.543,8.771,8.771,0,0,0,2.585-1.071.884.884,0,0,1,.823-.056l1.295.573,1.32-1.32-.573-1.295a.885.885,0,0,1,.055-.82,8.885,8.885,0,0,0,1.073-2.588.884.884,0,0,1,.543-.621l1.32-.508V27.112L43.6,26.6a.884.884,0,0,1-.543-.622,8.789,8.789,0,0,0-1.071-2.588.885.885,0,0,1-.056-.822l.573-1.295-1.319-1.319-1.294.575a.885.885,0,0,1-.823-.055,8.806,8.806,0,0,0-2.586-1.072.885.885,0,0,1-.621-.543Zm-1.443,1.791a7.391,7.391,0,1,1-7.389,7.389A7.39,7.39,0,0,1,34.417,20.654Zm0,1.769a5.622,5.622,0,1,0,5.624,5.62A5.618,5.618,0,0,0,34.417,22.423Zm-3.477,6.415a.884.884,0,0,1,1.251-1.251l1.068,1.068,3.418-3.1a.884.884,0,0,1,1.188,1.31l-4.042,3.667a.884.884,0,0,1-1.22-.03Zm21.627-1.744a.949.949,0,1,0,.949.949A.949.949,0,0,0,52.568,27.094ZM23.459,37.639a5.739,5.739,0,1,1-5.587,5.737A5.667,5.667,0,0,1,23.459,37.639Zm0,1.769a3.971,3.971,0,1,0,3.818,3.969A3.9,3.9,0,0,0,23.459,39.408Zm21.918-1.769a5.739,5.739,0,1,1-5.587,5.737A5.667,5.667,0,0,1,45.377,37.639Zm0,1.769A3.971,3.971,0,1,0,49.2,43.376,3.9,3.9,0,0,0,45.377,39.408Z" transform="translate(0 0)" fill-rule="evenodd"/>
    </g>
  </g>
</svg>
