<svg xmlns="http://www.w3.org/2000/svg" xmlns:xlink="http://www.w3.org/1999/xlink" width="108" height="108" viewBox="0 0 108 108">
  <defs>
    <filter id="Trazado_904820" x="0" y="0" width="108" height="108" filterUnits="userSpaceOnUse">
      <feOffset dy="3" input="SourceAlpha"/>
      <feGaussianBlur stdDeviation="3" result="blur"/>
      <feFlood flood-opacity="0.161"/>
      <feComposite operator="in" in2="blur"/>
      <feComposite in="SourceGraphic"/>
    </filter>
  </defs>
  <g id="Grupo_1232160" data-name="Grupo 1232160" transform="translate(-619.477 -479)">
    <g id="Grupo_1231560" data-name="Grupo 1231560" transform="translate(0 -55)">
      <g id="Grupo_1229404" data-name="Grupo 1229404" transform="translate(0 61.321)">
        <g id="Grupo_1208347" data-name="Grupo 1208347" transform="translate(628.477 478.679)">
          <g id="Grupo_1207936" data-name="Grupo 1207936" transform="translate(0 0)">
            <g id="Grupo_1201662" data-name="Grupo 1201662">
              <g id="Grupo_1173585" data-name="Grupo 1173585">
                <g id="Grupo_1173428" data-name="Grupo 1173428">
                  <g id="Grupo_1171958" data-name="Grupo 1171958">
                    <g id="Grupo_1167341" data-name="Grupo 1167341">
                      <g id="Grupo_1166792" data-name="Grupo 1166792">
                        <g transform="matrix(1, 0, 0, 1, -9, -6)" filter="url(#Trazado_904820)">
                          <g id="Trazado_904820-2" data-name="Trazado 904820" transform="translate(9 6)" fill="#ebe9f0">
                            <path d="M 44.99999618530273 88.49999237060547 C 39.12687301635742 88.49999237060547 33.43022155761719 87.35006713867188 28.06829643249512 85.08216857910156 C 22.88852119445801 82.89130401611328 18.23629570007324 79.75457763671875 14.24084663391113 75.75914001464844 C 10.24540901184082 71.76369476318359 7.108683586120605 67.11146545410156 4.917821407318115 61.93169403076172 C 2.649921178817749 56.56976699829102 1.499996185302734 50.87311553955078 1.499996185302734 44.99999237060547 C 1.499996185302734 39.12686920166016 2.649921178817749 33.43021774291992 4.917821407318115 28.06829261779785 C 7.108683586120605 22.88851737976074 10.24540901184082 18.23630523681641 14.24084663391113 14.24085521697998 C 18.23629570007324 10.24540519714355 22.88852119445801 7.108692169189453 28.06829643249512 4.917829990386963 C 33.43022155761719 2.649929761886597 39.12687301635742 1.500004887580872 44.99999618530273 1.500004887580872 C 50.87311935424805 1.500004887580872 56.56977081298828 2.649929761886597 61.93169784545898 4.917829990386963 C 67.11147308349609 7.108692169189453 71.76369476318359 10.24540519714355 75.75914764404297 14.24085521697998 C 79.75458526611328 18.23630523681641 82.89131164550781 22.88851737976074 85.08216857910156 28.06829261779785 C 87.35007476806641 33.43021774291992 88.5 39.12686920166016 88.5 44.99999237060547 C 88.5 50.87311553955078 87.35007476806641 56.56976699829102 85.08216857910156 61.93169403076172 C 82.89131164550781 67.11146545410156 79.75458526611328 71.76369476318359 75.75914764404297 75.75914001464844 C 71.76369476318359 79.75457763671875 67.11147308349609 82.89130401611328 61.93169784545898 85.08216857910156 C 56.56977081298828 87.35006713867188 50.87311935424805 88.49999237060547 44.99999618530273 88.49999237060547 Z" stroke="none"/>
                            <path d="M 44.99999618530273 2.999992370605469 C 39.32870864868164 2.999992370605469 33.82865142822266 4.11004638671875 28.65262603759766 6.299331665039062 C 23.65165710449219 8.414566040039062 19.15968322753906 11.44333648681641 15.301513671875 15.30150604248047 C 11.44333648681641 19.15967559814453 8.414566040039062 23.65164947509766 6.299339294433594 28.65262222290039 C 4.110054016113281 33.82864761352539 2.999992370605469 39.32870483398438 2.999992370605469 44.99999237060547 C 2.999992370605469 50.67127990722656 4.110054016113281 56.17132186889648 6.299339294433594 61.34736633300781 C 8.414566040039062 66.34833526611328 11.44333648681641 70.84029388427734 15.301513671875 74.69846343994141 C 19.15968322753906 78.55663299560547 23.65165710449219 81.58540344238281 28.65262603759766 83.70063781738281 C 33.82865142822266 85.88992309570312 39.32870864868164 86.99997711181641 44.99999618530273 86.99997711181641 C 50.67128372192383 86.99997711181641 56.17134094238281 85.88992309570312 61.34736633300781 83.70063781738281 C 66.34834289550781 81.58540344238281 70.84030914306641 78.55663299560547 74.69847869873047 74.69846343994141 C 78.55665588378906 70.84029388427734 81.58542633056641 66.34833526611328 83.70065307617188 61.34736633300781 C 85.88993835449219 56.17132186889648 87 50.67127990722656 87 44.99999237060547 C 87 39.32870483398438 85.88993835449219 33.82864761352539 83.70065307617188 28.65262222290039 C 81.58542633056641 23.65164947509766 78.55665588378906 19.15967559814453 74.69847869873047 15.30150604248047 C 70.84030914306641 11.44333648681641 66.34834289550781 8.414566040039062 61.34736633300781 6.299331665039062 C 56.17134094238281 4.11004638671875 50.67128372192383 2.999992370605469 44.99999618530273 2.999992370605469 M 44.99999618530273 -7.62939453125e-06 C 69.85281372070312 -7.62939453125e-06 90 20.14717864990234 90 44.99999237060547 C 90 69.85279083251953 69.85281372070312 89.99997711181641 44.99999618530273 89.99997711181641 C 20.14717864990234 89.99997711181641 -7.62939453125e-06 69.85279083251953 -7.62939453125e-06 44.99999237060547 C -7.62939453125e-06 20.14717864990234 20.14717864990234 -7.62939453125e-06 44.99999618530273 -7.62939453125e-06 Z" stroke="none" fill="#453179"/>
                          </g>
                        </g>
                      </g>
                    </g>
                  </g>
                </g>
              </g>
            </g>
          </g>
        </g>
      </g>
    </g>
    <g id="pnl_1_" data-name="pnl (1)" transform="translate(643 495.37)">
      <g id="Grupo_1232356" data-name="Grupo 1232356" transform="translate(2 2)">
        <g id="Grupo_1232158" data-name="Grupo 1232158" transform="translate(0.827 8.011)">
          <path id="Trazado_1234641" data-name="Trazado 1234641" d="M133.056,49.854c-1.591-1.838-.863-5.681-.863-5.681.989-6.617-3.585-12.617-4.366-13.3h0c-.011-.013-6.252-7.758-16.4-7.758A21.209,21.209,0,0,0,97.147,60h0a4.6,4.6,0,0,1,1.4,3.9l-2.138,11.52h24.175V70.954a1.99,1.99,0,0,1,2.579-1.9l1.2.373a11.824,11.824,0,0,0,5.375.534c3.808-1.281,1.657-4.518,1.657-4.518-.483-.759.345-1.381.345-1.381,2.14-1.035.345-2.72.345-2.72a1.736,1.736,0,0,0,1.611-1.905l-.354-1.3a1.329,1.329,0,0,1,.686-1.538l1.093-.548c2.623-1.242-2.067-6.2-2.067-6.2Z" transform="translate(-81.096 -22.184)" fill="#eaf6ff"/>
          <g id="Grupo_1232154" data-name="Grupo 1232154" transform="translate(28.64 0.93)">
            <path id="Trazado_1234642" data-name="Trazado 1234642" d="M290.465,49.854c-1.591-1.838-.863-5.681-.863-5.681.989-6.617-3.585-12.617-4.366-13.3h0c-.011-.013-6.252-7.758-16.4-7.758q-.855,0-1.693.067c9.187.752,14.771,7.678,14.781,7.691h0c.781.684,5.355,6.684,4.366,13.3,0,0-.728,3.844.863,5.681,0,0,4.69,4.959,2.067,6.2l-1.093.548a1.328,1.328,0,0,0-.686,1.538l.354,1.3a1.736,1.736,0,0,1-1.611,1.905s1.795,1.684-.345,2.72c0,0-.828.621-.345,1.381,0,0,2.136,3.213-1.616,4.5a12.2,12.2,0,0,0,3.269.014c3.808-1.281,1.657-4.518,1.657-4.518-.483-.759.345-1.381.345-1.381,2.14-1.035.345-2.72.345-2.72a1.736,1.736,0,0,0,1.611-1.905l-.354-1.3a1.329,1.329,0,0,1,.686-1.538l1.093-.548C295.154,54.812,290.465,49.854,290.465,49.854Z" transform="translate(-267.145 -23.114)" fill="#d7ecfe"/>
            <path id="Trazado_1234643" data-name="Trazado 1234643" d="M339.249,439.223l-1.2-.373a1.99,1.99,0,0,0-2.579,1.9v4.468h3.309v-4.468a1.974,1.974,0,0,1,.645-1.467C339.364,439.264,339.306,439.244,339.249,439.223Z" transform="translate(-327.931 -392.911)" fill="#d7ecfe"/>
          </g>
          <g id="Grupo_1232155" data-name="Grupo 1232155" transform="translate(0 0)">
            <path id="Trazado_1234644" data-name="Trazado 1234644" d="M21.019,14.684H8.6a1.1,1.1,0,0,0-1.1,1.1V23.86a1.1,1.1,0,0,0,1.1,1.1H19.061a3.06,3.06,0,0,0,3.06-3.06V15.787A1.1,1.1,0,0,0,21.019,14.684Z" transform="translate(-7.501 -14.684)" fill="#cef49d"/>
          </g>
          <path id="Trazado_1234645" data-name="Trazado 1234645" d="M109.37,14.684H106.06a1.1,1.1,0,0,1,1.1,1.1v6a3.18,3.18,0,0,1-3.18,3.18l3.063,3.426V24.963h2.323a1.1,1.1,0,0,0,1.1-1.1V15.787a1.1,1.1,0,0,0-1.1-1.1Z" transform="translate(-93.34 -14.684)" fill="#94d77b"/>
          <g id="Grupo_1232156" data-name="Grupo 1232156" transform="translate(3.426 27.412)">
            <path id="Trazado_1234646" data-name="Trazado 1234646" d="M51.922,273.472H39.667a1.1,1.1,0,0,1-1.1-1.1V264.3a1.1,1.1,0,0,1,1.1-1.1H50.206a2.819,2.819,0,0,1,2.819,2.819v6.357a1.1,1.1,0,0,1-1.1,1.1Z" transform="translate(-38.564 -263.193)" fill="#ffbd63"/>
          </g>
          <path id="Trazado_1234647" data-name="Trazado 1234647" d="M140.433,235.555h-2.323v-3.426l-3.063,3.426a3.18,3.18,0,0,1,3.18,3.18v6a1.1,1.1,0,0,1-1.1,1.1h3.309a1.1,1.1,0,0,0,1.1-1.1v-8.073A1.1,1.1,0,0,0,140.433,235.555Z" transform="translate(-120.977 -208.143)" fill="#ff9343"/>
          <path id="Trazado_1234648" data-name="Trazado 1234648" d="M194.478,74.082a2.139,2.139,0,0,0-1.593-.809h-.01q-.138,0-.276,0a8.837,8.837,0,0,0-1.279.093l-1.778-2.633-.015-.006a11.642,11.642,0,0,0-2.756,1.144L187.377,75a8.8,8.8,0,0,0-1.808,1.808L182.44,76.2a11.637,11.637,0,0,0-1.147,2.766l2.642,1.784a8.867,8.867,0,0,0,0,2.557l-2.642,1.784a11.639,11.639,0,0,0,1.147,2.766l3.129-.607a8.807,8.807,0,0,0,1.808,1.808l-.607,3.129a11.637,11.637,0,0,0,2.766,1.147l1.784-2.642a8.823,8.823,0,0,0,1.279.093q.353,0,.7-.028h.006a1.425,1.425,0,0,0,.953-.483c1.1-1.247,3.246-5.036,3.246-8.019a15.784,15.784,0,0,0-3.025-8.168Zm2.5,7.943a4.378,4.378,0,1,1-4.378-4.378A4.378,4.378,0,0,1,196.976,82.025Z" transform="translate(-162.123 -64.542)" fill="#4f6d8f"/>
          <g id="Grupo_1232157" data-name="Grupo 1232157" transform="translate(30.752 6.179)">
            <path id="Trazado_1234649" data-name="Trazado 1234649" d="M294.762,82a8.838,8.838,0,0,0-.093-1.279l2.642-1.784a11.644,11.644,0,0,0-1.147-2.766l-3.129.607a8.808,8.808,0,0,0-1.808-1.808l.607-3.129a11.638,11.638,0,0,0-2.766-1.147l-1.784,2.642a8.816,8.816,0,0,0-1-.088,11.747,11.747,0,0,1,4.093,8.472q.009.138.009.279,0,.034,0,.068,0,.056,0,.111a11.74,11.74,0,0,1-3.678,8.549q.292-.023.579-.065l1.784,2.642a11.636,11.636,0,0,0,2.766-1.147l-.607-3.129a8.8,8.8,0,0,0,1.808-1.808l3.129.607a11.637,11.637,0,0,0,1.147-2.766l-2.642-1.784A8.835,8.835,0,0,0,294.762,82Z" transform="translate(-286.283 -70.699)" fill="#334f6d"/>
          </g>
        </g>
        <g id="Grupo_1232159" data-name="Grupo 1232159" transform="translate(0 7.184)">
          <path id="Trazado_1234650" data-name="Trazado 1234650" d="M17.463,49.578l-.518,2.793a.827.827,0,1,0,1.627.3l.518-2.793a5.273,5.273,0,0,0-.627-3.35h1.821a1.933,1.933,0,0,0,1.93-1.93V36.526a1.933,1.933,0,0,0-1.93-1.93h-1.5V32a.8.8,0,0,0-1.444-.551L14.526,34.6H11.266a20.469,20.469,0,0,1,1.621-13.48l1.03,1.152a.832.832,0,0,0,1.444-.551v-2.6h1.5a1.933,1.933,0,0,0,1.93-1.93V13.953A20.155,20.155,0,0,1,31.16,9.768a21.333,21.333,0,0,1,13.758,5.456.827.827,0,1,0,1.089-1.246A22.986,22.986,0,0,0,31.16,8.114a21.778,21.778,0,0,0-12.373,3.8v-2.8a1.933,1.933,0,0,0-1.93-1.93H1.93A1.933,1.933,0,0,0,0,9.114v8.073a1.933,1.933,0,0,0,1.93,1.93H11.1l.605.677A22.116,22.116,0,0,0,9.574,34.6H5.357a1.933,1.933,0,0,0-1.93,1.93V44.6a1.933,1.933,0,0,0,1.93,1.93H16.419a3.8,3.8,0,0,1,1.044,3.048ZM1.93,17.464a.276.276,0,0,1-.276-.276V9.114a.276.276,0,0,1,.276-.276H16.857a.276.276,0,0,1,.276.276v8.073a.276.276,0,0,1-.276.276H14.533a.827.827,0,0,0-.827.827v1.26L12.087,17.74a.827.827,0,0,0-.617-.276ZM5.081,44.6V36.526a.276.276,0,0,1,.276-.276H14.9a.827.827,0,0,0,.617-.276l1.619-1.811v1.26a.827.827,0,0,0,.827.827h2.323a.276.276,0,0,1,.276.276V44.6a.276.276,0,0,1-.276.276H5.357A.276.276,0,0,1,5.081,44.6Z" transform="translate(0 -7.184)"/>
          <path id="Trazado_1234651" data-name="Trazado 1234651" d="M176.878,109.268c-1.073-1.259-.845-4.015-.666-4.973,0-.01,0-.021.005-.031,1.036-6.923-3.557-12.794-4.084-13.441a.827.827,0,0,0-1.283,1.045c1.739,2.134,4.481,7.09,3.732,12.137-.062.338-.736,4.29,1.054,6.359l.024.027c1.169,1.236,2.812,3.531,2.624,4.531.017.349-1.183.737-1.421.91a2.159,2.159,0,0,0-1.114,2.5l.328,1.2a.847.847,0,0,1-.833.958.835.835,0,0,0-.524,1.426c.583.6.636,1.065-.272,1.457a1.859,1.859,0,0,0-.547,2.487,1.99,1.99,0,0,1-1.153,3.265,13.089,13.089,0,0,1-6.137-.889,2.832,2.832,0,0,0-3.651,2.691v3.64H140.608l.78-4.2a.827.827,0,0,0-1.627-.3l-.962,5.181a.833.833,0,0,0,.813.978h24.176a.827.827,0,0,0,.827-.827v-4.468a1.169,1.169,0,0,1,1.507-1.11,14.559,14.559,0,0,0,6.954.933,3.653,3.653,0,0,0,2.2-5.822c1.384-1.128,1.906-1.672,1.323-3.171,1.574-1.171,1.129-2.642.746-3.863a.5.5,0,0,1,.259-.579c.914-.44,2.184-.95,2.306-2.085.406-2.167-2.424-5.31-3.035-5.958Z" transform="translate(-123.475 -81.325)"/>
          <path id="Trazado_1234652" data-name="Trazado 1234652" d="M198.028,72.052A12.471,12.471,0,0,0,196.8,69.09a.827.827,0,0,0-.875-.4l-2.634.511a9.623,9.623,0,0,0-1.237-1.237l.511-2.634a.827.827,0,0,0-.4-.875,12.476,12.476,0,0,0-2.962-1.228.827.827,0,0,0-.9.336l-1.5,2.224a9.74,9.74,0,0,0-1.75,0l-1.5-2.224a.827.827,0,0,0-.9-.336,12.472,12.472,0,0,0-2.962,1.228.827.827,0,0,0-.4.875l.511,2.634a9.615,9.615,0,0,0-1.237,1.237l-2.634-.511a.826.826,0,0,0-.875.4,12.478,12.478,0,0,0-1.228,2.962.828.828,0,0,0,.336.9l2.224,1.5a9.7,9.7,0,0,0,0,1.75l-2.224,1.5a.828.828,0,0,0-.336.9,12.477,12.477,0,0,0,1.228,2.962.827.827,0,0,0,.875.4l2.634-.511A9.629,9.629,0,0,0,179.8,82.7l-.511,2.634a.827.827,0,0,0,.4.875,10.79,10.79,0,0,0,3.178,1.257.828.828,0,0,0,.686-.364l1.5-2.224a9.72,9.72,0,0,0,1.75,0l1.5,2.224a.828.828,0,0,0,.9.336,12.471,12.471,0,0,0,2.962-1.228.827.827,0,0,0,.4-.875l-.511-2.634a9.624,9.624,0,0,0,1.237-1.237l2.634.511a.827.827,0,0,0,.875-.4,12.471,12.471,0,0,0,1.228-2.962.828.828,0,0,0-.336-.9l-2.224-1.5a9.7,9.7,0,0,0,0-1.75l2.224-1.5A.827.827,0,0,0,198.028,72.052Zm-3.9,1.314a.828.828,0,0,0-.356.805,8.054,8.054,0,0,1,0,2.318.828.828,0,0,0,.356.805l2.138,1.443a10.827,10.827,0,0,1-.619,1.492l-2.532-.491a.828.828,0,0,0-.821.318,7.97,7.97,0,0,1-1.638,1.638.827.827,0,0,0-.318.821l.491,2.532a10.814,10.814,0,0,1-1.492.619l-1.443-2.138a.827.827,0,0,0-.685-.364,8.7,8.7,0,0,1-2.438.009.828.828,0,0,0-.805.356l-1.443,2.138a10.814,10.814,0,0,1-1.492-.619l.491-2.532a.827.827,0,0,0-.318-.821,7.971,7.971,0,0,1-1.638-1.638.827.827,0,0,0-.821-.318l-2.532.491a10.817,10.817,0,0,1-.619-1.492l2.138-1.443a.828.828,0,0,0,.356-.805,8.038,8.038,0,0,1,0-2.318.828.828,0,0,0-.356-.805l-2.138-1.443a10.8,10.8,0,0,1,.619-1.492l2.532.491a.827.827,0,0,0,.821-.318,7.974,7.974,0,0,1,1.638-1.638.827.827,0,0,0,.318-.821l-.491-2.532a10.822,10.822,0,0,1,1.492-.619l1.443,2.138a.827.827,0,0,0,.805.356,8.078,8.078,0,0,1,2.318,0,.828.828,0,0,0,.805-.356l1.443-2.138a10.841,10.841,0,0,1,1.492.619l-.491,2.532a.827.827,0,0,0,.318.821A7.965,7.965,0,0,1,192.29,70.6a.828.828,0,0,0,.821.318l2.532-.491a10.853,10.853,0,0,1,.619,1.492Z" transform="translate(-154.622 -57.019)"/>
          <path id="Trazado_1234653" data-name="Trazado 1234653" d="M241.794,127.65a3.535,3.535,0,0,1,3.3,2.234.827.827,0,1,0,1.536-.614,5.205,5.205,0,1,0-.193,4.289.827.827,0,0,0-1.475-.75,3.551,3.551,0,1,1-3.167-5.158Z" transform="translate(-210.492 -112.889)"/>
          <path id="Trazado_1234654" data-name="Trazado 1234654" d="M31.891,39.9h1.967a.827.827,0,0,0,0-1.655H31.891a.827.827,0,0,0,0,1.655Z" transform="translate(-27.637 -34.821)"/>
          <path id="Trazado_1234655" data-name="Trazado 1234655" d="M84.453,39.075a.827.827,0,0,0-.827-.827h-5.14a.827.827,0,0,0,0,1.655h5.14A.827.827,0,0,0,84.453,39.075Z" transform="translate(-69.093 -34.821)"/>
          <path id="Trazado_1234656" data-name="Trazado 1234656" d="M36.174,69.311H31.891a.827.827,0,0,0,0,1.655h4.283a.827.827,0,0,0,0-1.655Z" transform="translate(-27.637 -62.458)"/>
          <path id="Trazado_1234657" data-name="Trazado 1234657" d="M105.181,70.138a.827.827,0,0,0-.827-.827h-2.57a.827.827,0,1,0,0,1.655h2.57A.827.827,0,0,0,105.181,70.138Z" transform="translate(-89.82 -62.458)"/>
          <path id="Trazado_1234658" data-name="Trazado 1234658" d="M65.651,317.818h-2.7a.827.827,0,1,0,0,1.655h2.7a.827.827,0,0,0,0-1.655Z" transform="translate(-55.274 -283.553)"/>
          <path id="Trazado_1234659" data-name="Trazado 1234659" d="M120.576,319.473a.827.827,0,1,0,0-1.655h-4.41a.827.827,0,0,0,0,1.655Z" transform="translate(-102.616 -283.553)"/>
          <path id="Trazado_1234660" data-name="Trazado 1234660" d="M68.668,287.582a.827.827,0,0,0-.827-.827H62.954a.827.827,0,1,0,0,1.655h4.886A.827.827,0,0,0,68.668,287.582Z" transform="translate(-55.274 -255.916)"/>
          <path id="Trazado_1234661" data-name="Trazado 1234661" d="M138.316,288.41h1.967a.827.827,0,1,0,0-1.655h-1.967a.827.827,0,0,0,0,1.655Z" transform="translate(-122.323 -255.916)"/>
        </g>
      </g>
    </g>
  </g>
</svg>
