<svg xmlns="http://www.w3.org/2000/svg" xmlns:xlink="http://www.w3.org/1999/xlink" width="98" height="98" viewBox="0 0 98 98">
  <defs>
    <filter id="Trazado_982547" x="0" y="0" width="98" height="98" filterUnits="userSpaceOnUse">
      <feOffset dy="3" input="SourceAlpha"/>
      <feGaussianBlur stdDeviation="3" result="blur"/>
      <feFlood flood-opacity="0.161"/>
      <feComposite operator="in" in2="blur"/>
      <feComposite in="SourceGraphic"/>
    </filter>
    <clipPath id="clip-path">
      <path id="path8121" d="M0-682.665H48.414v48.414H0Z" transform="translate(0 682.665)"/>
    </clipPath>
  </defs>
  <g id="Grupo_1232338" data-name="Grupo 1232338" transform="translate(-195.778 -307)">
    <g id="Grupo_1231972" data-name="Grupo 1231972">
      <g id="Grupo_1231282" data-name="Grupo 1231282" transform="translate(0.627 -471)">
        <g id="Grupo_1230081" data-name="Grupo 1230081" transform="translate(0 -1514)">
          <g id="Grupo_1229590" data-name="Grupo 1229590" transform="translate(204.151 2298)">
            <g id="Grupo_1208936" data-name="Grupo 1208936" transform="translate(0)">
              <g id="Grupo_1208171" data-name="Grupo 1208171">
                <g id="Grupo_1207739" data-name="Grupo 1207739">
                  <g id="Grupo_1207712" data-name="Grupo 1207712">
                    <g id="Grupo_1207285" data-name="Grupo 1207285">
                      <g id="Grupo_1206883" data-name="Grupo 1206883">
                        <g id="Grupo_1204569" data-name="Grupo 1204569">
                          <g id="Grupo_1203962" data-name="Grupo 1203962">
                            <g id="Grupo_1203498" data-name="Grupo 1203498">
                              <g id="Grupo_1202589" data-name="Grupo 1202589">
                                <g id="Grupo_1172010" data-name="Grupo 1172010">
                                  <g id="Grupo_1171046" data-name="Grupo 1171046">
                                    <g id="Grupo_1148525" data-name="Grupo 1148525">
                                      <g transform="matrix(1, 0, 0, 1, -9, -6)" filter="url(#Trazado_982547)">
                                        <g id="Trazado_982547-2" data-name="Trazado 982547" transform="translate(9 6)" fill="#fdfbec">
                                          <path d="M 39.99999237060547 78.49998474121094 C 34.8018684387207 78.49998474121094 29.76002502441406 77.48226165771484 25.0145263671875 75.47508239746094 C 20.43014717102051 73.53604888916016 16.31264877319336 70.75984954833984 12.77639198303223 67.22359466552734 C 9.240137100219727 63.68733596801758 6.463936805725098 59.5698356628418 4.524903297424316 54.98546981811523 C 2.517725706100464 50.23995971679688 1.500003457069397 45.19811630249023 1.500003457069397 39.99999237060547 C 1.500003457069397 34.8018684387207 2.517725706100464 29.76002502441406 4.524903297424316 25.0145263671875 C 6.463936805725098 20.43014717102051 9.240137100219727 16.31264877319336 12.77639198303223 12.77639198303223 C 16.31264877319336 9.240137100219727 20.43014717102051 6.463936805725098 25.0145263671875 4.524903297424316 C 29.76002502441406 2.517725706100464 34.8018684387207 1.500003457069397 39.99999237060547 1.500003457069397 C 45.19811630249023 1.500003457069397 50.23995971679688 2.517725706100464 54.98546981811523 4.524903297424316 C 59.5698356628418 6.463936805725098 63.68733596801758 9.240137100219727 67.22359466552734 12.77639198303223 C 70.75984954833984 16.31264877319336 73.53604888916016 20.43014717102051 75.47508239746094 25.0145263671875 C 77.48226165771484 29.76002502441406 78.49998474121094 34.8018684387207 78.49998474121094 39.99999237060547 C 78.49998474121094 45.19812393188477 77.48226165771484 50.23995971679688 75.47508239746094 54.98546981811523 C 73.53604888916016 59.5698356628418 70.75984954833984 63.68733596801758 67.22359466552734 67.22359466552734 C 63.68733596801758 70.75984954833984 59.5698356628418 73.53604888916016 54.98546981811523 75.47508239746094 C 50.23995971679688 77.48226165771484 45.19812393188477 78.49998474121094 39.99999237060547 78.49998474121094 Z" stroke="none"/>
                                          <path d="M 39.99999237060547 2.999992370605469 C 35.00370025634766 2.999992370605469 30.1584587097168 3.97784423828125 25.59884643554688 5.906402587890625 C 21.19327163696289 7.769805908203125 17.23603057861328 10.43805694580078 13.83704376220703 13.83704376220703 C 10.43805694580078 17.23603057861328 7.769805908203125 21.19327163696289 5.906402587890625 25.59884643554688 C 3.97784423828125 30.1584587097168 2.999992370605469 35.00370025634766 2.999992370605469 39.99999237060547 C 2.999992370605469 44.99628448486328 3.97784423828125 49.84152603149414 5.906402587890625 54.40113830566406 C 7.769805908203125 58.80671310424805 10.43805694580078 62.76395416259766 13.83704376220703 66.16294097900391 C 17.23603057861328 69.56191253662109 21.19327163696289 72.23016357421875 25.59884643554688 74.09356689453125 C 30.1584587097168 76.02212524414062 35.00370025634766 76.99997711181641 39.99999237060547 76.99997711181641 C 44.99628448486328 76.99997711181641 49.84152603149414 76.02212524414062 54.40113830566406 74.09356689453125 C 58.80671310424805 72.23016357421875 62.76395416259766 69.56191253662109 66.16294097900391 66.16294097900391 C 69.56191253662109 62.76395416259766 72.23016357421875 58.80671310424805 74.09356689453125 54.40113830566406 C 76.02212524414062 49.84152603149414 76.99997711181641 44.99628448486328 76.99997711181641 39.99999237060547 C 76.99997711181641 35.00370025634766 76.02212524414062 30.1584587097168 74.09356689453125 25.59884643554688 C 72.23016357421875 21.19327163696289 69.56191253662109 17.23603057861328 66.16294097900391 13.83704376220703 C 62.76395416259766 10.43805694580078 58.80671310424805 7.769805908203125 54.40113830566406 5.906402587890625 C 49.84152603149414 3.97784423828125 44.99628448486328 2.999992370605469 39.99999237060547 2.999992370605469 M 39.99999237060547 -7.62939453125e-06 C 62.09137725830078 -7.62939453125e-06 79.99997711181641 17.90860748291016 79.99997711181641 39.99999237060547 C 79.99997711181641 62.09137725830078 62.09137725830078 79.99997711181641 39.99999237060547 79.99997711181641 C 17.90860748291016 79.99997711181641 -7.62939453125e-06 62.09137725830078 -7.62939453125e-06 39.99999237060547 C -7.62939453125e-06 17.90860748291016 17.90860748291016 -7.62939453125e-06 39.99999237060547 -7.62939453125e-06 Z" stroke="none" fill="#83793c"/>
                                        </g>
                                      </g>
                                    </g>
                                  </g>
                                </g>
                              </g>
                            </g>
                          </g>
                        </g>
                      </g>
                    </g>
                    <g id="g8115" transform="translate(15.793 15.793)">
                      <g id="g8117">
                        <g id="g8119" clip-path="url(#clip-path)">
                          <g id="g8125" transform="translate(-33.259 0.709)">
                            <path id="path8127" d="M-338.457-377.826h-25.835v-25.108c5.31-7.679,37.755-5.416,25.835,25.108" transform="translate(364.292 406.667)" fill="#fbdf63"/>
                          </g>
                          <g id="g8129" transform="translate(-33.259 0.709)">
                            <path id="path8131" d="M-338.457-377.826h-.619c6.164-24.728-15.887-30.6-25.216-24.374v-.734c5.31-7.679,37.755-5.416,25.835,25.108" transform="translate(364.292 406.667)" fill="#f9d11f"/>
                          </g>
                        </g>
                      </g>
                      <g id="g8265">
                        <g id="g8267" clip-path="url(#clip-path)">
                          <g id="g8273" transform="translate(-33.259 51.036)">
                            <path id="path8275" d="M-338.457-377.654h-25.835v-25.1c5.31-7.676,37.755-5.413,25.835,25.1" transform="translate(364.292 406.481)" fill="#003343"/>
                          </g>
                          <g id="g8277" transform="translate(-33.259 51.036)">
                            <path id="path8279" d="M-338.457-377.654h-.619c6.164-24.717-15.887-30.585-25.216-24.362v-.734c5.31-7.676,37.755-5.413,25.835,25.1" transform="translate(364.292 406.481)" fill="#002439"/>
                          </g>
                        </g>
                      </g>
                      <g id="g8281">
                        <g id="g8283" clip-path="url(#clip-path)">
                          <g id="g8289" transform="translate(17.066 51.014)">
                            <path id="path8291" d="M-338.457-377.826h-25.835v-25.108c5.31-7.679,37.755-5.416,25.835,25.108" transform="translate(364.292 406.667)" fill="#ff7e50"/>
                          </g>
                          <g id="g8293" transform="translate(17.066 51.014)">
                            <path id="path8295" d="M-338.457-377.826h-.619c6.164-24.728-15.887-30.6-25.216-24.374v-.734c5.31-7.679,37.755-5.416,25.835,25.108" transform="translate(364.292 406.667)" fill="#ff6247"/>
                          </g>
                          <g id="g8297" transform="translate(2.941 54.225)">
                            <path id="path8299" d="M-233.028-131.751v15.573h-14.6c-12.2-25.649,14.6-34.273,14.6-15.573" transform="translate(250.816 141.808)" fill="#ffa68a"/>
                          </g>
                          <g id="g8301" transform="translate(2.941 54.225)">
                            <path id="path8303" d="M-233.028-131.751c-.9-16.1-20.23-9.82-14.176,15.573h-.427c-12.2-25.649,14.6-34.273,14.6-15.573" transform="translate(250.816 141.808)" fill="#ff7e50"/>
                          </g>
                        </g>
                      </g>
                    </g>
                  </g>
                </g>
              </g>
            </g>
          </g>
        </g>
      </g>
    </g>
    <g id="Layer_1" transform="translate(211.238 307.247)">
      <path id="Trazado_1248483" data-name="Trazado 1248483" d="M38.961,77.54H38.7V76.4H26.091V77.54h-.258a2.074,2.074,0,0,0,0,4.147h.272v-.026a6.306,6.306,0,0,0,3.7,5.369v3.053a2.649,2.649,0,0,0,2.55,2.681,2.587,2.587,0,0,0,2.626-2.587V87.028h0a6.306,6.306,0,0,0,3.7-5.369v.027h.272a2.074,2.074,0,0,0,0-4.147Z" transform="translate(-12.903 -43.144)" fill="#feb69f"/>
      <g id="Grupo_1232299" data-name="Grupo 1232299" transform="translate(13.189 33.253)">
        <path id="Trazado_1248484" data-name="Trazado 1248484" d="M34.47,76.4H47.082v1.253H34.47Z" transform="translate(-34.47 -76.4)" fill="#ea8f7c"/>
      </g>
      <g id="Grupo_1232300" data-name="Grupo 1232300" transform="translate(12.201 25.904)">
        <path id="Trazado_1248485" data-name="Trazado 1248485" d="M44.518,48v1.084a.894.894,0,0,1-.894.894h-12.8a.894.894,0,0,1-.894-.894V48a5.37,5.37,0,0,1,5.37-5.37h3.847A5.37,5.37,0,0,1,44.518,48Z" transform="translate(-29.93 -42.63)" fill="#f0c020"/>
      </g>
      <g id="Grupo_1232301" data-name="Grupo 1232301" transform="translate(16.906 43.884)">
        <path id="Trazado_1248486" data-name="Trazado 1248486" d="M56.732,125.258v1.353a7.556,7.556,0,0,1-5.176,0V125.26a6.323,6.323,0,0,0,5.176,0Z" transform="translate(-51.556 -125.258)" fill="#ea8f7c"/>
      </g>
      <g id="Grupo_1232302" data-name="Grupo 1232302" transform="translate(7.815 45.85)">
        <path id="Trazado_1248487" data-name="Trazado 1248487" d="M33.133,139.665v16.487H9.774V139.665a5.37,5.37,0,0,1,5.37-5.37h3.721v1.088a2.649,2.649,0,0,0,2.55,2.681,2.587,2.587,0,0,0,2.626-2.587V134.3h3.721a5.37,5.37,0,0,1,5.37,5.37Z" transform="translate(-9.774 -134.295)" fill="#72c2e9"/>
      </g>
      <g id="Grupo_1232303" data-name="Grupo 1232303" transform="translate(26.54 55.925)">
        <path id="Trazado_1248488" data-name="Trazado 1248488" d="M95.828,180.593h4.633v11.784H95.828Z" transform="translate(-95.828 -180.593)" fill="#feb69f"/>
      </g>
      <g id="Grupo_1232304" data-name="Grupo 1232304" transform="translate(7.816 55.925)">
        <path id="Trazado_1248489" data-name="Trazado 1248489" d="M9.777,180.593H14.41v11.784H9.777Z" transform="translate(-9.777 -180.593)" fill="#feb69f"/>
      </g>
      <g id="Grupo_1232315" data-name="Grupo 1232315" transform="translate(31.908 26.039)">
        <g id="Grupo_1232305" data-name="Grupo 1232305" transform="translate(2.168 20.331)">
          <path id="Trazado_1248490" data-name="Trazado 1248490" d="M153.484,142.805v15.219H130.463V142.805a6.118,6.118,0,0,1,6.118-6.118h2.386v.722a3.007,3.007,0,1,0,6.013,0v-.722h2.386a6.118,6.118,0,0,1,6.118,6.118Z" transform="translate(-130.463 -136.687)" fill="#fc5d3d"/>
        </g>
        <g id="Grupo_1232306" data-name="Grupo 1232306" transform="translate(0 3.801)">
          <path id="Trazado_1248491" data-name="Trazado 1248491" d="M125.472,62.019c-2.035,3.312-3.941,4.245-3.941,4.245l-.57-.9a2.925,2.925,0,0,1,1.969-4.456,13.767,13.767,0,0,1,1.808-.191A1.446,1.446,0,0,0,125.472,62.019Z" transform="translate(-120.501 -60.72)" fill="#7c7b7a"/>
        </g>
        <g id="Grupo_1232307" data-name="Grupo 1232307" transform="translate(10.671 17.774)">
          <path id="Trazado_1248492" data-name="Trazado 1248492" d="M175.554,124.932v3.281a3.007,3.007,0,1,1-6.014,0v-3.281A7.04,7.04,0,0,0,175.554,124.932Z" transform="translate(-169.54 -124.932)" fill="#ffb69f"/>
        </g>
        <g id="Grupo_1232308" data-name="Grupo 1232308" transform="translate(4.233 2.394)">
          <path id="Trazado_1248493" data-name="Trazado 1248493" d="M142.641,54.944a4.6,4.6,0,0,0-.263,1.534v.289a1.446,1.446,0,1,1,.263-1.823Z" transform="translate(-139.952 -54.25)" fill="#f0c020"/>
        </g>
        <g id="Grupo_1232309" data-name="Grupo 1232309" transform="translate(6.658)">
          <path id="Trazado_1248494" data-name="Trazado 1248494" d="M155.763,43.25v2.837a4.673,4.673,0,0,1-4.663,4.661V47.872a4.626,4.626,0,0,1,4.663-4.622Z" transform="translate(-151.1 -43.25)" fill="#7c7b7a"/>
        </g>
        <g id="Grupo_1232310" data-name="Grupo 1232310" transform="translate(20.436 2.394)">
          <path id="Trazado_1248495" data-name="Trazado 1248495" d="M216.37,56.957a1.44,1.44,0,0,1-1.691-.191v-.287a4.616,4.616,0,0,0-.259-1.53v0a1.446,1.446,0,1,1,1.95,2.011Z" transform="translate(-214.42 -54.25)" fill="#f0c020"/>
          <path id="Trazado_1248496" data-name="Trazado 1248496" d="M227.891,65.368l-.574.9s-1.9-.933-3.936-4.245a1.443,1.443,0,0,0,.731-1.3,13.777,13.777,0,0,1,1.806.191A2.927,2.927,0,0,1,227.891,65.368Z" transform="translate(-221.43 -59.312)" fill="#7c7b7a"/>
        </g>
        <g id="Grupo_1232311" data-name="Grupo 1232311" transform="translate(3.884)">
          <path id="Trazado_1248497" data-name="Trazado 1248497" d="M157.938,59.289a1.847,1.847,0,0,1-1.85,1.85h-1.034a7.018,7.018,0,0,1-13.819,0H140.2a1.848,1.848,0,1,1,0-3.7h.925V55.975a4.673,4.673,0,0,0,4.663-4.661V49.93c.346,4.4,4.926,6.308,9.374,6.036v1.475h.927A1.848,1.848,0,0,1,157.938,59.289Z" transform="translate(-138.35 -48.476)" fill="#ffb69f"/>
          <path id="Trazado_1248498" data-name="Trazado 1248498" d="M181.9,47.872V50.74c-4.448.272-9.028-1.638-9.374-6.036V43.25h4.757a4.625,4.625,0,0,1,4.358,3.09v0A4.616,4.616,0,0,1,181.9,47.872Z" transform="translate(-165.093 -43.25)" fill="#7c7b7a"/>
        </g>
        <g id="Grupo_1232312" data-name="Grupo 1232312" transform="translate(2.168 29.134)">
          <path id="Trazado_1248499" data-name="Trazado 1248499" d="M130.463,177.143h4.491v12.534h-4.491Z" transform="translate(-130.463 -177.143)" fill="#feb69f"/>
        </g>
        <g id="Grupo_1232313" data-name="Grupo 1232313" transform="translate(20.698 29.134)">
          <path id="Trazado_1248500" data-name="Trazado 1248500" d="M215.62,177.143h4.491v12.534H215.62Z" transform="translate(-215.62 -177.143)" fill="#feb69f"/>
        </g>
        <g id="Grupo_1232314" data-name="Grupo 1232314" transform="translate(10.671 17.774)">
          <path id="Trazado_1248501" data-name="Trazado 1248501" d="M175.556,124.932v1.328a8.234,8.234,0,0,1-6.013.005v-1.333A7.043,7.043,0,0,0,175.556,124.932Z" transform="translate(-169.542 -124.932)" fill="#ea8f7c"/>
        </g>
      </g>
      <g id="Grupo_1232318" data-name="Grupo 1232318" transform="translate(27.737 21.253)">
        <g id="Grupo_1232316" data-name="Grupo 1232316" transform="translate(0 0)">
          <path id="Trazado_1248502" data-name="Trazado 1248502" d="M106.593,23.967c-.811-.267-1.445-.44-1.869-2.268a.579.579,0,0,0-1.127,0c-.415,1.787-.994,1.978-1.869,2.268a.579.579,0,0,0,0,1.1c1.455.481,1.62,1.192,1.869,2.268a.579.579,0,0,0,1.128,0c.415-1.787,1.025-1.989,1.869-2.268A.579.579,0,0,0,106.593,23.967Z" transform="translate(-101.331 -21.253)"/>
        </g>
        <g id="Grupo_1232317" data-name="Grupo 1232317" transform="translate(1.935 2.268)">
          <path id="Trazado_1248503" data-name="Trazado 1248503" d="M111.987,32.675a2.83,2.83,0,0,0-.857.966,2.991,2.991,0,0,0-.905-.957,2.9,2.9,0,0,0,.9-1.01A2.935,2.935,0,0,0,111.987,32.675Z" transform="translate(-110.224 -31.674)" fill="#f0c020"/>
        </g>
      </g>
      <g id="Grupo_1232319" data-name="Grupo 1232319" transform="translate(9.446 47.481)">
        <path id="Trazado_1248504" data-name="Trazado 1248504" d="M17.814,150.777a.544.544,0,0,1-.544-.544v-4.7a3.743,3.743,0,0,1,3.739-3.738h1.667a.544.544,0,1,1,0,1.088H21.009a2.653,2.653,0,0,0-2.651,2.65v4.7A.544.544,0,0,1,17.814,150.777Z" transform="translate(-17.27 -141.79)" fill="#c5e5fe"/>
      </g>
      <g id="Grupo_1232320" data-name="Grupo 1232320" transform="translate(9.446 55.38)">
        <path id="Trazado_1248505" data-name="Trazado 1248505" d="M17.814,188.785a.544.544,0,0,1-.544-.544v-.653a.544.544,0,1,1,1.088,0v.653A.544.544,0,0,1,17.814,188.785Zm0-2.829a.544.544,0,0,1-.544-.544v-6.778a.544.544,0,0,1,1.088,0v6.778A.544.544,0,0,1,17.814,185.956Z" transform="translate(-17.27 -178.09)" fill="#fae0e1"/>
      </g>
      <g id="Grupo_1232321" data-name="Grupo 1232321" transform="translate(49.685 47.575)">
        <path id="Trazado_1248506" data-name="Trazado 1248506" d="M207.862,150.364a.544.544,0,0,1-.544-.544v-2.685a3.818,3.818,0,0,0-2.075-3.4.544.544,0,0,1,.5-.967,4.9,4.9,0,0,1,2.664,4.368v2.685A.544.544,0,0,1,207.862,150.364Zm-4.467-7.055h-.653a.544.544,0,0,1,0-1.088h.653a.544.544,0,1,1,0,1.088Z" transform="translate(-202.198 -142.221)" fill="#ffcbc3"/>
      </g>
      <g id="Grupo_1232322" data-name="Grupo 1232322" transform="translate(54.806 54.63)">
        <path id="Trazado_1248507" data-name="Trazado 1248507" d="M226.273,186.088a.544.544,0,0,1-.544-.544v-.653a.544.544,0,1,1,1.088,0v.653A.544.544,0,0,1,226.273,186.088Zm0-2.829a.544.544,0,0,1-.544-.544v-7.528a.544.544,0,0,1,1.088,0v7.528A.544.544,0,0,1,226.273,183.259Z" transform="translate(-225.729 -174.643)" fill="#fae0e1"/>
      </g>
      <g id="Grupo_1232323" data-name="Grupo 1232323" transform="translate(16.389 38.471)">
        <path id="Trazado_1248508" data-name="Trazado 1248508" d="M54.846,100.381a.544.544,0,0,0-.544.544,2.018,2.018,0,0,1-4.036,0,.544.544,0,1,0-1.088,0,3.106,3.106,0,0,0,6.212,0A.544.544,0,0,0,54.846,100.381Z" transform="translate(-49.178 -100.381)"/>
      </g>
      <g id="Grupo_1232324" data-name="Grupo 1232324" transform="translate(15.938 35.059)">
        <path id="Trazado_1248509" data-name="Trazado 1248509" d="M48.192,85.558v-.313a.544.544,0,1,0-1.088,0v.313a.544.544,0,1,0,1.088,0Z" transform="translate(-47.104 -84.701)"/>
      </g>
      <g id="Grupo_1232325" data-name="Grupo 1232325" transform="translate(21.964 35.059)">
        <path id="Trazado_1248510" data-name="Trazado 1248510" d="M75.342,84.7a.544.544,0,0,0-.544.544v.313a.544.544,0,1,0,1.088,0v-.313A.544.544,0,0,0,75.342,84.7Z" transform="translate(-74.798 -84.701)"/>
      </g>
      <g id="Grupo_1232326" data-name="Grupo 1232326" transform="translate(18.951 35.372)">
        <path id="Trazado_1248511" data-name="Trazado 1248511" d="M61.495,89.466a.544.544,0,0,0,.544-.544V86.685a.544.544,0,1,0-1.088,0v2.237A.544.544,0,0,0,61.495,89.466Z" transform="translate(-60.951 -86.141)"/>
      </g>
      <g id="Grupo_1232327" data-name="Grupo 1232327" transform="translate(10.314 25.362)">
        <path id="Trazado_1248512" data-name="Trazado 1248512" d="M21.261,51.243a2.609,2.609,0,0,0,2.4,2.6A6.866,6.866,0,0,0,27.309,59v1.085H24.131a5.66,5.66,0,0,0-.609.03.543.543,0,0,0,.109,1.081h0a4.717,4.717,0,0,1,.5-.024h3.177v.544a3.194,3.194,0,0,0,3.115,3.224,3.131,3.131,0,0,0,3.151-3.131V61.17h3.176A4.843,4.843,0,0,1,41.575,66v4.159H38.031V69.2a.544.544,0,1,0-1.088,0v1.489s0,.006,0,.008,0,.006,0,.008V82.483a.544.544,0,0,0,1.088,0V71.244h3.544V82.482a.545.545,0,1,0,1.09,0l0-16.485a5.908,5.908,0,0,0-5.914-5.914H33.573V59a6.865,6.865,0,0,0,3.651-5.148,2.614,2.614,0,0,0,.067-5.2V48.5a1.441,1.441,0,0,0,.988-1.365V46.051a5.92,5.92,0,0,0-5.914-5.914H28.517A5.92,5.92,0,0,0,22.6,46.051v1.083a1.441,1.441,0,0,0,.988,1.365v.146a2.611,2.611,0,0,0-2.33,2.6Zm1.088,0a1.529,1.529,0,0,1,1.242-1.5v3A1.528,1.528,0,0,1,22.349,51.243Zm8.092,8.515a7,7,0,0,0,2.044-.311v2.36a2.051,2.051,0,0,1-2.079,2.042A2.111,2.111,0,0,1,28.4,61.713V59.447a7.065,7.065,0,0,0,2.045.31Zm0-1.089A5.758,5.758,0,0,1,24.694,53.3l-.014-4.131v-.6H36.2v.6L36.189,53.3A5.764,5.764,0,0,1,30.442,58.669Zm8.092-7.426a1.531,1.531,0,0,1-1.242,1.5v-3A1.529,1.529,0,0,1,38.534,51.243ZM23.692,46.05a4.831,4.831,0,0,1,4.826-4.826h3.848a4.831,4.831,0,0,1,4.826,4.826v1.083a.351.351,0,0,1-.351.351s.035,0-1.425,0V45.81a.544.544,0,1,0-1.088,0v1.673H32.462V45.81a.544.544,0,1,0-1.088,0v1.673H29.509V45.81a.544.544,0,1,0-1.088,0v1.673H26.556V45.81a.544.544,0,1,0-1.088,0v1.673c-1.466,0-1.421,0-1.425,0a.351.351,0,0,1-.351-.351V46.05Z" transform="translate(-21.261 -40.137)"/>
      </g>
      <g id="Grupo_1232328" data-name="Grupo 1232328" transform="translate(42.725 38.895)">
        <path id="Trazado_1248513" data-name="Trazado 1248513" d="M175.526,102.348a.544.544,0,0,0-.665.386,1.855,1.855,0,0,1-3.581,0,.544.544,0,0,0-1.052.279,2.943,2.943,0,0,0,5.684,0A.544.544,0,0,0,175.526,102.348Z" transform="translate(-170.21 -102.329)"/>
      </g>
      <g id="Grupo_1232329" data-name="Grupo 1232329" transform="translate(41.763 35.055)">
        <path id="Trazado_1248514" data-name="Trazado 1248514" d="M166.877,85.225a.544.544,0,1,0-1.088,0v.423a.544.544,0,1,0,1.088,0Z" transform="translate(-165.789 -84.681)"/>
      </g>
      <g id="Grupo_1232330" data-name="Grupo 1232330" transform="translate(48.675 35.055)">
        <path id="Trazado_1248515" data-name="Trazado 1248515" d="M198.1,84.681a.544.544,0,0,0-.544.544v.423a.544.544,0,1,0,1.088,0v-.423A.544.544,0,0,0,198.1,84.681Z" transform="translate(-197.553 -84.681)"/>
      </g>
      <g id="Grupo_1232331" data-name="Grupo 1232331" transform="translate(45.041 34.843)">
        <path id="Trazado_1248516" data-name="Trazado 1248516" d="M181.4,87.252a.544.544,0,0,0,.544-.544V84.252a.544.544,0,0,0-1.088,0v2.456A.544.544,0,0,0,181.4,87.252Z" transform="translate(-180.855 -83.708)"/>
      </g>
      <g id="Grupo_1232332" data-name="Grupo 1232332" transform="translate(31.364 25.495)">
        <path id="Trazado_1248517" data-name="Trazado 1248517" d="M143.559,44.75c-.48-.082-.96-.14-1.434-.174a1.986,1.986,0,0,0-2.971-1.124,5.2,5.2,0,0,0-1.918-1.991.56.56,0,0,0-.744.194.541.541,0,0,0,.191.744,4.127,4.127,0,0,1,2.01,3.806v2.056c-4.005.063-7.959-1.637-8.286-5.54v-.883h2.313a.544.544,0,1,0,0-1.088h-2.857a5.174,5.174,0,0,0-4.579,2.7,1.985,1.985,0,0,0-2.967,1.125c-.475.034-.956.092-1.437.174a3.472,3.472,0,0,0-2.336,5.285l.571.9a.544.544,0,0,0,.7.2,11.412,11.412,0,0,0,3.919-4.063,1.927,1.927,0,0,0,.926.015v2.634h-.383a2.392,2.392,0,1,0,0,4.785h.593a7.576,7.576,0,0,0,3.8,4.9v1.682h-1.842a6.659,6.659,0,0,0-6.663,6.661v7.766a.544.544,0,0,0,1.088,0V70.972h3.4v11.99a.544.544,0,1,0,1.088,0V68.331a.544.544,0,1,0-1.088,0v1.554h-3.4V67.743a5.594,5.594,0,0,1,5.575-5.573h1.842v.177a3.551,3.551,0,1,0,7.1,0h0V62.17h1.843a5.593,5.593,0,0,1,5.573,5.573v2.142h-3.4V68.331a.544.544,0,0,0-1.088,0V82.963a.544.544,0,1,0,1.088,0V70.972h3.4V82.963a.544.544,0,1,0,1.088,0V67.743a6.658,6.658,0,0,0-6.661-6.661h-1.843V59.4a7.6,7.6,0,0,0,3.8-4.9h.6a2.392,2.392,0,0,0,0-4.785h-.386c0-.212,0-1.385,0-2.639a1.96,1.96,0,0,0,.926-.012,11.419,11.419,0,0,0,3.918,4.065.544.544,0,0,0,.7-.2l.574-.9h0a3.473,3.473,0,0,0-2.34-5.286Zm-14.239-2.877v2.259a4.131,4.131,0,0,1-3.575,4.08v-2s0-.008,0-.012A4.088,4.088,0,0,1,129.321,41.873Zm-9.577,8.019-.281-.442a2.381,2.381,0,0,1,1.6-3.629c.416-.071.831-.123,1.242-.155a2.2,2.2,0,0,0,.488.848A12.338,12.338,0,0,1,119.744,49.892Zm4.915-3.963a.9.9,0,1,1,.2-1.44A5.466,5.466,0,0,0,124.659,45.929Zm-1.687,6.177a1.309,1.309,0,0,1,1.306-1.3h.381v1.924c0,.236.013.477.032.685h-.413A1.312,1.312,0,0,1,122.971,52.106Zm9.229,8.178a7.808,7.808,0,0,0,2.484-.414v2.477a2.463,2.463,0,1,1-4.925,0V59.878a7.473,7.473,0,0,0,2.441.406Zm0-1.087a6.476,6.476,0,0,1-6.453-6.472V49.307a5.218,5.218,0,0,0,4.459-3.735c1.683,2.783,5.213,3.836,8.49,3.775v3.377A6.473,6.473,0,0,1,132.2,59.2Zm7.584-8.394h.385a1.3,1.3,0,0,1,0,2.609h-.416c.02-.226.03-.457.03-.685V50.8Zm0-4.873a5.475,5.475,0,0,0-.2-1.44.891.891,0,0,1,.631-.258.9.9,0,1,1-.432,1.7Zm5.2,3.52-.283.442a12.352,12.352,0,0,1-3.05-3.377,2.224,2.224,0,0,0,.486-.848c.41.032.825.084,1.24.155A2.382,2.382,0,0,1,144.982,49.45Z" transform="translate(-117.999 -40.75)"/>
      </g>
      <g id="Grupo_1232333" data-name="Grupo 1232333" transform="translate(47.72 25.505)">
        <path id="Trazado_1248518" data-name="Trazado 1248518" d="M194.251,41.37a.544.544,0,1,0-.575.511A.542.542,0,0,0,194.251,41.37Z" transform="translate(-193.164 -40.795)"/>
      </g>
      <g id="Grupo_1232334" data-name="Grupo 1232334" transform="translate(33.532 64.062)">
        <path id="Trazado_1248519" data-name="Trazado 1248519" d="M127.96,221.637a.544.544,0,0,0,1.088,0v-3.1a.544.544,0,0,0-1.088,0Z" transform="translate(-127.96 -217.99)"/>
      </g>
      <g id="Grupo_1232335" data-name="Grupo 1232335" transform="translate(33.532 61.886)">
        <circle id="Elipse_11576" data-name="Elipse 11576" cx="0.544" cy="0.544" r="0.544"/>
      </g>
      <g id="Grupo_1232336" data-name="Grupo 1232336" transform="translate(7.27 47.4)">
        <path id="Trazado_1248520" data-name="Trazado 1248520" d="M9.363,142.289a.539.539,0,0,0-.1-.762.554.554,0,0,0-.762.1A5.849,5.849,0,0,0,7.27,145.24v16.485a.544.544,0,1,0,1.088,0V150.487H11.9v11.24a.544.544,0,0,0,1.088,0V148.445a.544.544,0,1,0-1.088,0v.954H8.358V145.24A4.79,4.79,0,0,1,9.363,142.289Z" transform="translate(-7.27 -141.418)"/>
      </g>
      <g id="Grupo_1232337" data-name="Grupo 1232337" transform="translate(10.026 45.988)">
        <path id="Trazado_1248521" data-name="Trazado 1248521" d="M20.216,135a.545.545,0,1,0,.531.951,0,0,0,0,1,0,0,.547.547,0,0,0,.207-.74.56.56,0,0,0-.738-.211A0,0,0,0,1,20.216,135Z" transform="translate(-19.936 -134.93)"/>
      </g>
    </g>
  </g>
</svg>
