<svg xmlns="http://www.w3.org/2000/svg" xmlns:xlink="http://www.w3.org/1999/xlink" width="108" height="108" viewBox="0 0 108 108">
  <defs>
    <filter id="Trazado_904820" x="0" y="0" width="108" height="108" filterUnits="userSpaceOnUse">
      <feOffset dy="3" input="SourceAlpha"/>
      <feGaussianBlur stdDeviation="3" result="blur"/>
      <feFlood flood-opacity="0.161"/>
      <feComposite operator="in" in2="blur"/>
      <feComposite in="SourceGraphic"/>
    </filter>
  </defs>
  <g id="Grupo_1232257" data-name="Grupo 1232257" transform="translate(-200.523 -3717.143)">
    <g id="Grupo_1231761" data-name="Grupo 1231761" transform="translate(209.523 3723.143)">
      <g id="Grupo_1229404" data-name="Grupo 1229404" transform="translate(0 0)">
        <g id="Grupo_1208347" data-name="Grupo 1208347" transform="translate(0)">
          <g id="Grupo_1207936" data-name="Grupo 1207936">
            <g id="Grupo_1201662" data-name="Grupo 1201662">
              <g id="Grupo_1173585" data-name="Grupo 1173585">
                <g id="Grupo_1173428" data-name="Grupo 1173428">
                  <g id="Grupo_1171958" data-name="Grupo 1171958">
                    <g id="Grupo_1167341" data-name="Grupo 1167341">
                      <g id="Grupo_1166792" data-name="Grupo 1166792">
                        <g transform="matrix(1, 0, 0, 1, -9, -6)" filter="url(#Trazado_904820)">
                          <g id="Trazado_904820-2" data-name="Trazado 904820" transform="translate(9 6)" fill="#effbfe">
                            <path d="M 44.99999618530273 88.49999237060547 C 39.12687301635742 88.49999237060547 33.43022155761719 87.35006713867188 28.06829643249512 85.08216857910156 C 22.88852119445801 82.89130401611328 18.23629570007324 79.75457763671875 14.24084663391113 75.75914001464844 C 10.24540901184082 71.76369476318359 7.108683586120605 67.11146545410156 4.917821407318115 61.93169403076172 C 2.649921178817749 56.56976699829102 1.499996185302734 50.87311553955078 1.499996185302734 44.99999237060547 C 1.499996185302734 39.12686920166016 2.649921178817749 33.43021774291992 4.917821407318115 28.06829261779785 C 7.108683586120605 22.88851737976074 10.24540901184082 18.23630523681641 14.24084663391113 14.24085521697998 C 18.23629570007324 10.24540519714355 22.88852119445801 7.108692169189453 28.06829643249512 4.917829990386963 C 33.43022155761719 2.649929761886597 39.12687301635742 1.500004887580872 44.99999618530273 1.500004887580872 C 50.87311935424805 1.500004887580872 56.56977081298828 2.649929761886597 61.93169784545898 4.917829990386963 C 67.11147308349609 7.108692169189453 71.76369476318359 10.24540519714355 75.75914764404297 14.24085521697998 C 79.75458526611328 18.23630523681641 82.89131164550781 22.88851737976074 85.08216857910156 28.06829261779785 C 87.35007476806641 33.43021774291992 88.5 39.12686920166016 88.5 44.99999237060547 C 88.5 50.87311553955078 87.35007476806641 56.56976699829102 85.08216857910156 61.93169403076172 C 82.89131164550781 67.11146545410156 79.75458526611328 71.76369476318359 75.75914764404297 75.75914001464844 C 71.76369476318359 79.75457763671875 67.11147308349609 82.89130401611328 61.93169784545898 85.08216857910156 C 56.56977081298828 87.35006713867188 50.87311935424805 88.49999237060547 44.99999618530273 88.49999237060547 Z" stroke="none"/>
                            <path d="M 44.99999618530273 2.999992370605469 C 39.32870864868164 2.999992370605469 33.82865142822266 4.11004638671875 28.65262603759766 6.299331665039062 C 23.65165710449219 8.414566040039062 19.15968322753906 11.44333648681641 15.301513671875 15.30150604248047 C 11.44333648681641 19.15967559814453 8.414566040039062 23.65164947509766 6.299339294433594 28.65262222290039 C 4.110054016113281 33.82864761352539 2.999992370605469 39.32870483398438 2.999992370605469 44.99999237060547 C 2.999992370605469 50.67127990722656 4.110054016113281 56.17132186889648 6.299339294433594 61.34736633300781 C 8.414566040039062 66.34833526611328 11.44333648681641 70.84029388427734 15.301513671875 74.69846343994141 C 19.15968322753906 78.55663299560547 23.65165710449219 81.58540344238281 28.65262603759766 83.70063781738281 C 33.82865142822266 85.88992309570312 39.32870864868164 86.99997711181641 44.99999618530273 86.99997711181641 C 50.67128372192383 86.99997711181641 56.17134094238281 85.88992309570312 61.34736633300781 83.70063781738281 C 66.34834289550781 81.58540344238281 70.84030914306641 78.55663299560547 74.69847869873047 74.69846343994141 C 78.55665588378906 70.84029388427734 81.58542633056641 66.34833526611328 83.70065307617188 61.34736633300781 C 85.88993835449219 56.17132186889648 87 50.67127990722656 87 44.99999237060547 C 87 39.32870483398438 85.88993835449219 33.82864761352539 83.70065307617188 28.65262222290039 C 81.58542633056641 23.65164947509766 78.55665588378906 19.15967559814453 74.69847869873047 15.30150604248047 C 70.84030914306641 11.44333648681641 66.34834289550781 8.414566040039062 61.34736633300781 6.299331665039062 C 56.17134094238281 4.11004638671875 50.67128372192383 2.999992370605469 44.99999618530273 2.999992370605469 M 44.99999618530273 -7.62939453125e-06 C 69.85281372070312 -7.62939453125e-06 90 20.14717864990234 90 44.99999237060547 C 90 69.85279083251953 69.85281372070312 89.99997711181641 44.99999618530273 89.99997711181641 C 20.14717864990234 89.99997711181641 -7.62939453125e-06 69.85279083251953 -7.62939453125e-06 44.99999237060547 C -7.62939453125e-06 20.14717864990234 20.14717864990234 -7.62939453125e-06 44.99999618530273 -7.62939453125e-06 Z" stroke="none" fill="#497f88"/>
                          </g>
                        </g>
                      </g>
                    </g>
                  </g>
                </g>
              </g>
            </g>
          </g>
        </g>
      </g>
    </g>
    <g id="_x31__1_" transform="translate(223 3736)">
      <g id="Grupo_1232256" data-name="Grupo 1232256">
        <path id="Trazado_1234923" data-name="Trazado 1234923" d="M59,54a20.359,20.359,0,0,0-6-14,18.282,18.282,0,0,0-14-6l-7,4-7-4a18.282,18.282,0,0,0-14,6A20.359,20.359,0,0,0,5,54Z" fill="#c8a9f1"/>
        <path id="Trazado_1234924" data-name="Trazado 1234924" d="M27.6,35.49A2.983,2.983,0,0,1,25,37a15.517,15.517,0,0,0-11.98,5.23A17.331,17.331,0,0,0,8.03,53.15l-.02.6a2.008,2.008,0,0,0,1.34,2.14,7.324,7.324,0,0,0,1.88.11H17a1.5,1.5,0,0,1,0,3H11.23c-4.75.44-6.95-3.05-6.06-7.45C6.51,42.03,15.17,33.68,25,34Z" fill="#b18ae3"/>
        <path id="Trazado_1234925" data-name="Trazado 1234925" d="M18,24h4V17H18a2,2,0,0,0-2,2v3A2,2,0,0,0,18,24Z" fill="#c8a9f1"/>
        <path id="Trazado_1234926" data-name="Trazado 1234926" d="M46,24H42V17h4a2,2,0,0,1,2,2v3A2,2,0,0,1,46,24Z" fill="#c8a9f1"/>
        <path id="Trazado_1234927" data-name="Trazado 1234927" d="M32,7A10,10,0,0,0,22,17v6a8.985,8.985,0,0,0,4.187,7.6c-.015-.01-.032-.016-.047-.026L25,34l7,4,7-4-1.14-3.43c-.015.01-.032.016-.047.026A8.985,8.985,0,0,0,42,23V17A10,10,0,0,0,32,7Z" fill="#ffdbce"/>
        <path id="Trazado_1234928" data-name="Trazado 1234928" d="M33.5,8.5A1.5,1.5,0,0,1,32,10a7.1,7.1,0,0,0-7,7.61v.96c.03,1.47-.07,4.21.07,5.31a6.013,6.013,0,0,0,2.69,4.17,3.006,3.006,0,0,1,1.22,3.47s-1.13,3.42-1.13,3.43a2.649,2.649,0,0,1-.25.54L25,34c0-.01,1.13-3.4,1.13-3.43C22.6,28.43,21.69,24.34,22,20.48c-.17-3.79.01-7.96,3.06-10.67,1.28-1.62,8.15-4.72,8.44-1.31Z" fill="#fecabd"/>
        <path id="Trazado_1234929" data-name="Trazado 1234929" d="M42,17H33a4,4,0,0,1-4-4,4,4,0,0,1-4,4H22a10,10,0,0,1,20,0Z" fill="#696eb1"/>
        <path id="Trazado_1234930" data-name="Trazado 1234930" d="M33.5,8.5A1.5,1.5,0,0,1,32,10a7.1,7.1,0,0,0-7.02,7H22.01c.19-2.69.92-5.3,3.05-7.19C26.34,8.19,33.21,5.09,33.5,8.5Z" fill="#4c5698"/>
        <path id="Trazado_1234931" data-name="Trazado 1234931" d="M45,61H19a2,2,0,0,1-2-2V44a2,2,0,0,1,2-2H45a2,2,0,0,1,2,2V59A2,2,0,0,1,45,61Z" fill="#696eb1"/>
        <path id="Trazado_1234932" data-name="Trazado 1234932" d="M20,58V42H19a2,2,0,0,0-2,2V59a2,2,0,0,0,2,2H45a2,2,0,0,0,2-2V58Z" fill="#4c5698"/>
        <path id="Trazado_1234933" data-name="Trazado 1234933" d="M47,59h7a5,5,0,0,0,0-10H47Z" fill="#ffdbce"/>
        <path id="Trazado_1234934" data-name="Trazado 1234934" d="M17,59H10a5,5,0,0,1,0-10h7Z" fill="#ffdbce"/>
        <path id="Trazado_1234935" data-name="Trazado 1234935" d="M10,59h7V56H11.23a7.324,7.324,0,0,1-1.88-.11,2.008,2.008,0,0,1-1.34-2.14l.02-.6A15.334,15.334,0,0,1,8.8,49.16,4.992,4.992,0,0,0,10,59Z" fill="#fecabd"/>
        <circle id="Elipse_11574" data-name="Elipse 11574" cx="3.5" cy="3.5" r="3.5" transform="translate(28.5 48)" fill="#fbe29f"/>
        <circle id="Elipse_11575" data-name="Elipse 11575" cx="3.5" cy="3.5" r="3.5" transform="translate(28.5 48)" fill="#fbe29f"/>
        <path id="Trazado_1234936" data-name="Trazado 1234936" d="M29.525,53.975a3.5,3.5,0,0,1,0-4.95l.041-.04a1.5,1.5,0,0,1,2.115,2.129l-.034.033a.5.5,0,0,0,0,.707A1.5,1.5,0,0,1,29.6,54.049l-.029-.028Z" fill="#ffcd71"/>
        <path id="Trazado_1234937" data-name="Trazado 1234937" d="M46,17H42a10,10,0,0,0-20,0H18a14,14,0,0,1,28,0Z" fill="#c8a9f1"/>
      </g>
      <path id="_x31_" d="M34,22V21a1,1,0,0,1,2,0v1a1,1,0,0,1-2,0ZM60,54a6.006,6.006,0,0,1-6,6H47.816A3,3,0,0,1,45,62H19a3,3,0,0,1-2.816-2H10a6.006,6.006,0,0,1-6-6,21.279,21.279,0,0,1,6.293-14.707,19.256,19.256,0,0,1,13.979-6.27l.69-2.071A10.02,10.02,0,0,1,21.217,25H18a3,3,0,0,1-3-3V19a3,3,0,0,1,2.042-2.829,14.98,14.98,0,0,1,29.916,0A3,3,0,0,1,49,19v3a3,3,0,0,1-3,3H42.783a10.008,10.008,0,0,1-3.745,5.952l.69,2.071a19.256,19.256,0,0,1,13.979,6.27A21.279,21.279,0,0,1,60,54ZM46,18H43v5h3a1,1,0,0,0,1-1V19A1,1,0,0,0,46,18ZM19.051,16h2a10.994,10.994,0,0,1,21.9,0h2a12.987,12.987,0,0,0-25.9,0ZM32,8a9.011,9.011,0,0,0-8.941,8H25a3,3,0,0,0,3-3,1,1,0,0,1,2,0,3,3,0,0,0,3,3h7.941A9.011,9.011,0,0,0,32,8ZM21,23V18H18a1,1,0,0,0-1,1v3a1,1,0,0,0,1,1Zm10,8h2a8.009,8.009,0,0,0,8-8V18H33a5,5,0,0,1-4-2,5,5,0,0,1-4,2H23v5A8.009,8.009,0,0,0,31,31Zm6.286,1.021A9.92,9.92,0,0,1,33,33H31a9.92,9.92,0,0,1-4.286-.979l-.506,1.517L32,36.848l5.792-3.31ZM6.748,48.965A5.958,5.958,0,0,1,10,48h6V44a3,3,0,0,1,3-3H45a3,3,0,0,1,3,3v4h6a5.958,5.958,0,0,1,3.252.965,20.234,20.234,0,0,0-4.959-8.258A17.206,17.206,0,0,0,39.263,35L32.5,38.868a1,1,0,0,1-.992,0L24.737,35a17.2,17.2,0,0,0-13.03,5.706,20.234,20.234,0,0,0-4.959,8.258ZM10,58h6V50H10a4,4,0,0,0,0,8Zm36,1V44a1,1,0,0,0-1-1H19a1,1,0,0,0-1,1V59a1,1,0,0,0,1,1H45A1,1,0,0,0,46,59Zm12-5a4,4,0,0,0-4-4H48v8h6A4,4,0,0,0,58,54ZM36.5,51.5A4.5,4.5,0,1,1,32,47,4.505,4.505,0,0,1,36.5,51.5Zm-2,0A2.5,2.5,0,1,0,32,54,2.5,2.5,0,0,0,34.5,51.5ZM29,23a1,1,0,0,0,1-1V21a1,1,0,0,0-2,0v1A1,1,0,0,0,29,23Z"/>
    </g>
  </g>
</svg>
