<svg xmlns="http://www.w3.org/2000/svg" xmlns:xlink="http://www.w3.org/1999/xlink" width="98" height="98" viewBox="0 0 98 98">
  <defs>
    <filter id="Trazado_982547" x="0" y="0" width="98" height="98" filterUnits="userSpaceOnUse">
      <feOffset dy="3" input="SourceAlpha"/>
      <feGaussianBlur stdDeviation="3" result="blur"/>
      <feFlood flood-opacity="0.161"/>
      <feComposite operator="in" in2="blur"/>
      <feComposite in="SourceGraphic"/>
    </filter>
    <clipPath id="clip-path">
      <path id="path8121" d="M0-682.665H48.414v48.414H0Z" transform="translate(0 682.665)"/>
    </clipPath>
  </defs>
  <g id="Grupo_1232218" data-name="Grupo 1232218" transform="translate(-195.151 -3829)">
    <g id="Grupo_1231659" data-name="Grupo 1231659" transform="translate(0 1537)">
      <g id="Grupo_1229590" data-name="Grupo 1229590" transform="translate(204.151 2298)">
        <g id="Grupo_1208936" data-name="Grupo 1208936" transform="translate(0)">
          <g id="Grupo_1208171" data-name="Grupo 1208171">
            <g id="Grupo_1207739" data-name="Grupo 1207739">
              <g id="Grupo_1207712" data-name="Grupo 1207712">
                <g id="Grupo_1207285" data-name="Grupo 1207285">
                  <g id="Grupo_1206883" data-name="Grupo 1206883">
                    <g id="Grupo_1204569" data-name="Grupo 1204569">
                      <g id="Grupo_1203962" data-name="Grupo 1203962">
                        <g id="Grupo_1203498" data-name="Grupo 1203498">
                          <g id="Grupo_1202589" data-name="Grupo 1202589">
                            <g id="Grupo_1172010" data-name="Grupo 1172010">
                              <g id="Grupo_1171046" data-name="Grupo 1171046">
                                <g id="Grupo_1148525" data-name="Grupo 1148525">
                                  <g transform="matrix(1, 0, 0, 1, -9, -6)" filter="url(#Trazado_982547)">
                                    <g id="Trazado_982547-2" data-name="Trazado 982547" transform="translate(9 6)" fill="#fdfbec">
                                      <path d="M 39.99999237060547 78.49998474121094 C 34.8018684387207 78.49998474121094 29.76002502441406 77.48226165771484 25.0145263671875 75.47508239746094 C 20.43014717102051 73.53604888916016 16.31264877319336 70.75984954833984 12.77639198303223 67.22359466552734 C 9.240137100219727 63.68733596801758 6.463936805725098 59.5698356628418 4.524903297424316 54.98546981811523 C 2.517725706100464 50.23995971679688 1.500003457069397 45.19811630249023 1.500003457069397 39.99999237060547 C 1.500003457069397 34.8018684387207 2.517725706100464 29.76002502441406 4.524903297424316 25.0145263671875 C 6.463936805725098 20.43014717102051 9.240137100219727 16.31264877319336 12.77639198303223 12.77639198303223 C 16.31264877319336 9.240137100219727 20.43014717102051 6.463936805725098 25.0145263671875 4.524903297424316 C 29.76002502441406 2.517725706100464 34.8018684387207 1.500003457069397 39.99999237060547 1.500003457069397 C 45.19811630249023 1.500003457069397 50.23995971679688 2.517725706100464 54.98546981811523 4.524903297424316 C 59.5698356628418 6.463936805725098 63.68733596801758 9.240137100219727 67.22359466552734 12.77639198303223 C 70.75984954833984 16.31264877319336 73.53604888916016 20.43014717102051 75.47508239746094 25.0145263671875 C 77.48226165771484 29.76002502441406 78.49998474121094 34.8018684387207 78.49998474121094 39.99999237060547 C 78.49998474121094 45.19812393188477 77.48226165771484 50.23995971679688 75.47508239746094 54.98546981811523 C 73.53604888916016 59.5698356628418 70.75984954833984 63.68733596801758 67.22359466552734 67.22359466552734 C 63.68733596801758 70.75984954833984 59.5698356628418 73.53604888916016 54.98546981811523 75.47508239746094 C 50.23995971679688 77.48226165771484 45.19812393188477 78.49998474121094 39.99999237060547 78.49998474121094 Z" stroke="none"/>
                                      <path d="M 39.99999237060547 2.999992370605469 C 35.00370025634766 2.999992370605469 30.1584587097168 3.97784423828125 25.59884643554688 5.906402587890625 C 21.19327163696289 7.769805908203125 17.23603057861328 10.43805694580078 13.83704376220703 13.83704376220703 C 10.43805694580078 17.23603057861328 7.769805908203125 21.19327163696289 5.906402587890625 25.59884643554688 C 3.97784423828125 30.1584587097168 2.999992370605469 35.00370025634766 2.999992370605469 39.99999237060547 C 2.999992370605469 44.99628448486328 3.97784423828125 49.84152603149414 5.906402587890625 54.40113830566406 C 7.769805908203125 58.80671310424805 10.43805694580078 62.76395416259766 13.83704376220703 66.16294097900391 C 17.23603057861328 69.56191253662109 21.19327163696289 72.23016357421875 25.59884643554688 74.09356689453125 C 30.1584587097168 76.02212524414062 35.00370025634766 76.99997711181641 39.99999237060547 76.99997711181641 C 44.99628448486328 76.99997711181641 49.84152603149414 76.02212524414062 54.40113830566406 74.09356689453125 C 58.80671310424805 72.23016357421875 62.76395416259766 69.56191253662109 66.16294097900391 66.16294097900391 C 69.56191253662109 62.76395416259766 72.23016357421875 58.80671310424805 74.09356689453125 54.40113830566406 C 76.02212524414062 49.84152603149414 76.99997711181641 44.99628448486328 76.99997711181641 39.99999237060547 C 76.99997711181641 35.00370025634766 76.02212524414062 30.1584587097168 74.09356689453125 25.59884643554688 C 72.23016357421875 21.19327163696289 69.56191253662109 17.23603057861328 66.16294097900391 13.83704376220703 C 62.76395416259766 10.43805694580078 58.80671310424805 7.769805908203125 54.40113830566406 5.906402587890625 C 49.84152603149414 3.97784423828125 44.99628448486328 2.999992370605469 39.99999237060547 2.999992370605469 M 39.99999237060547 -7.62939453125e-06 C 62.09137725830078 -7.62939453125e-06 79.99997711181641 17.90860748291016 79.99997711181641 39.99999237060547 C 79.99997711181641 62.09137725830078 62.09137725830078 79.99997711181641 39.99999237060547 79.99997711181641 C 17.90860748291016 79.99997711181641 -7.62939453125e-06 62.09137725830078 -7.62939453125e-06 39.99999237060547 C -7.62939453125e-06 17.90860748291016 17.90860748291016 -7.62939453125e-06 39.99999237060547 -7.62939453125e-06 Z" stroke="none" fill="#83793c"/>
                                    </g>
                                  </g>
                                </g>
                              </g>
                            </g>
                          </g>
                        </g>
                      </g>
                    </g>
                  </g>
                </g>
                <g id="g8115" transform="translate(15.793 15.793)">
                  <g id="g8117">
                    <g id="g8119" clip-path="url(#clip-path)">
                      <g id="g8125" transform="translate(-33.259 0.709)">
                        <path id="path8127" d="M-338.457-377.826h-25.835v-25.108c5.31-7.679,37.755-5.416,25.835,25.108" transform="translate(364.292 406.667)" fill="#fbdf63"/>
                      </g>
                      <g id="g8129" transform="translate(-33.259 0.709)">
                        <path id="path8131" d="M-338.457-377.826h-.619c6.164-24.728-15.887-30.6-25.216-24.374v-.734c5.31-7.679,37.755-5.416,25.835,25.108" transform="translate(364.292 406.667)" fill="#f9d11f"/>
                      </g>
                    </g>
                  </g>
                  <g id="g8265">
                    <g id="g8267" clip-path="url(#clip-path)">
                      <g id="g8273" transform="translate(-33.259 51.036)">
                        <path id="path8275" d="M-338.457-377.654h-25.835v-25.1c5.31-7.676,37.755-5.413,25.835,25.1" transform="translate(364.292 406.481)" fill="#003343"/>
                      </g>
                      <g id="g8277" transform="translate(-33.259 51.036)">
                        <path id="path8279" d="M-338.457-377.654h-.619c6.164-24.717-15.887-30.585-25.216-24.362v-.734c5.31-7.676,37.755-5.413,25.835,25.1" transform="translate(364.292 406.481)" fill="#002439"/>
                      </g>
                    </g>
                  </g>
                  <g id="g8281">
                    <g id="g8283" clip-path="url(#clip-path)">
                      <g id="g8289" transform="translate(17.066 51.014)">
                        <path id="path8291" d="M-338.457-377.826h-25.835v-25.108c5.31-7.679,37.755-5.416,25.835,25.108" transform="translate(364.292 406.667)" fill="#ff7e50"/>
                      </g>
                      <g id="g8293" transform="translate(17.066 51.014)">
                        <path id="path8295" d="M-338.457-377.826h-.619c6.164-24.728-15.887-30.6-25.216-24.374v-.734c5.31-7.679,37.755-5.416,25.835,25.108" transform="translate(364.292 406.667)" fill="#ff6247"/>
                      </g>
                      <g id="g8297" transform="translate(2.941 54.225)">
                        <path id="path8299" d="M-233.028-131.751v15.573h-14.6c-12.2-25.649,14.6-34.273,14.6-15.573" transform="translate(250.816 141.808)" fill="#ffa68a"/>
                      </g>
                      <g id="g8301" transform="translate(2.941 54.225)">
                        <path id="path8303" d="M-233.028-131.751c-.9-16.1-20.23-9.82-14.176,15.573h-.427c-12.2-25.649,14.6-34.273,14.6-15.573" transform="translate(250.816 141.808)" fill="#ff7e50"/>
                      </g>
                    </g>
                  </g>
                </g>
              </g>
            </g>
          </g>
        </g>
      </g>
    </g>
    <g id="contract_12270236" transform="translate(217.424 3846.429)">
      <path id="Trazado_1248622" data-name="Trazado 1248622" d="M32.3,21H30.65A1.65,1.65,0,0,0,29,22.65V44.1l2.475,4.949L33.949,44.1V22.65A1.65,1.65,0,0,0,32.3,21Z" transform="translate(-4.748 -3.503)" fill="#dae6f2"/>
      <path id="Trazado_1248623" data-name="Trazado 1248623" d="M33.949,49H29l2.475,4.949Z" transform="translate(-4.748 -8.406)" fill="#72a6e4"/>
      <path id="Trazado_1248624" data-name="Trazado 1248624" d="M32.3,21H30.65A1.65,1.65,0,0,0,29,22.65v2.475h4.949V22.65A1.65,1.65,0,0,0,32.3,21Z" transform="translate(-4.748 -3.503)" fill="#72a6e4"/>
      <circle id="Elipse_11584" data-name="Elipse 11584" cx="2.887" cy="2.887" r="2.887" transform="translate(38.688 15.848)" fill="#72a6e4"/>
      <path id="Trazado_1248625" data-name="Trazado 1248625" d="M52.322,36.723h-1.65v9.083a34.11,34.11,0,0,0-6.6,1.288V29.3l-4.124,2.475L35,32.6V30.124l4.124-.825,3.91-2.607A4.125,4.125,0,0,1,45.322,26h4.525a3.3,3.3,0,0,1,3.3,3.3v6.6A.825.825,0,0,1,52.322,36.723Z" transform="translate(-5.799 -4.378)" fill="#72a6e4"/>
      <circle id="Elipse_11585" data-name="Elipse 11585" cx="2.887" cy="2.887" r="2.887" transform="translate(8.992 15.848)" fill="#72a6e4"/>
      <path id="Trazado_1248626" data-name="Trazado 1248626" d="M7.825,36.723h1.65v9.083a34.11,34.11,0,0,1,6.6,1.288V29.3L20.2,31.774l4.949.825V30.124L21.023,29.3l-3.91-2.607A4.124,4.124,0,0,0,14.825,26H10.3A3.3,3.3,0,0,0,7,29.3v6.6A.825.825,0,0,0,7.825,36.723Z" transform="translate(-0.895 -4.378)" fill="#72a6e4"/>
      <path id="Trazado_1248627" data-name="Trazado 1248627" d="M35,52.442a33.792,33.792,0,0,0-8.249,4.949A33.792,33.792,0,0,0,18.5,52.442,34.558,34.558,0,0,0,2,49.967v7.424a59.347,59.347,0,0,1,24.746,2.475,59.347,59.347,0,0,1,24.746-2.475V49.967A34.558,34.558,0,0,0,35,52.442Z" transform="translate(-0.02 -8.548)" fill="#7d8db3"/>
      <path id="Trazado_1248628" data-name="Trazado 1248628" d="M35.962,9.562a4.93,4.93,0,0,0,0-1.926l1.235-.69A6.538,6.538,0,0,0,35.383,3.9l-.716.4a.909.909,0,0,1-.944-.022,5.5,5.5,0,0,0-.811-.452.852.852,0,0,1-.492-.78v-.8a6.9,6.9,0,0,0-3.639,0v.8a.852.852,0,0,1-.492.78,5.494,5.494,0,0,0-.811.452.909.909,0,0,1-.945.022l-.713-.4A6.539,6.539,0,0,0,24,6.946l1.236.69a4.93,4.93,0,0,0,0,1.926L24,10.252a6.538,6.538,0,0,0,1.815,3.05l.716-.4a.91.91,0,0,1,.945.022,5.49,5.49,0,0,0,.811.452.852.852,0,0,1,.492.78v.8a6.9,6.9,0,0,0,3.639,0v-.8a.852.852,0,0,1,.492-.78,5.49,5.49,0,0,0,.811-.452.91.91,0,0,1,.944-.022l.713.4A6.539,6.539,0,0,0,37.2,10.252ZM30.6,11.532A2.933,2.933,0,1,1,33.532,8.6,2.933,2.933,0,0,1,30.6,11.532Z" transform="translate(-3.872 -0.175)" fill="#d97777"/>
      <path id="Trazado_1248629" data-name="Trazado 1248629" d="M2.072,52.635a58.519,58.519,0,0,1,24.4,2.44.825.825,0,0,0,.5,0,58.519,58.519,0,0,1,24.4-2.44L51.565,51a59.762,59.762,0,0,0-24.013,2.19v-.96a32.952,32.952,0,0,1,7.743-4.6,33.8,33.8,0,0,1,16.1-2.414l.151-1.643a36.167,36.167,0,0,0-5.85-.052V36.143h.825a1.652,1.652,0,0,0,1.65-1.65v-6.6a4.118,4.118,0,0,0-3.559-4.067,3.715,3.715,0,1,0-6.041.046,4.923,4.923,0,0,0-1.795.728L33,27.117l-2.978.6V22.12a2.477,2.477,0,0,0-2.475-2.475H25.9a2.477,2.477,0,0,0-2.475,2.475v5.593l-2.978-.6L16.675,24.6a4.923,4.923,0,0,0-1.795-.728,3.709,3.709,0,1,0-6.041-.046A4.118,4.118,0,0,0,5.28,27.894v6.6a1.652,1.652,0,0,0,1.65,1.65h.825v7.375a36.1,36.1,0,0,0-5.85.052l.151,1.643a33.8,33.8,0,0,1,16.1,2.414,32.952,32.952,0,0,1,7.743,4.6v.96A60.3,60.3,0,0,0,15.27,51,60.283,60.283,0,0,0,1.889,51Zm39.5-32.99a2.062,2.062,0,1,1-2.062,2.062,2.062,2.062,0,0,1,2.062-2.062Zm-11.548,9.75,3.461-.692a.823.823,0,0,0,.3-.122l3.91-2.607a3.288,3.288,0,0,1,1.83-.554h4.526a2.477,2.477,0,0,1,2.475,2.475v6.6H45.7V27.206h-1.65V43.674c-.578.067-1.154.145-1.726.241V34.493h-1.65V44.22c-.529.114-1.052.248-1.573.386V27.894a.825.825,0,0,0-1.249-.707l-3.99,2.394-3.834.639ZM25.077,22.12a.826.826,0,0,1,.825-.825h1.65a.826.826,0,0,1,.825.825v1.65h-3.3Zm0,3.3h3.3V42.742h-3.3Zm2.79,18.972-1.14,2.28-1.14-2.28ZM11.879,19.645a2.062,2.062,0,1,1-2.062,2.062,2.062,2.062,0,0,1,2.062-2.062Zm2.893,7.531a.824.824,0,0,0-.418.718V44.607c-.521-.138-1.044-.272-1.573-.386V34.493h-1.65v9.422c-.572-.1-1.148-.173-1.726-.241V27.206H7.755v7.287H6.93v-6.6A2.477,2.477,0,0,1,9.4,25.419H13.93a3.288,3.288,0,0,1,1.83.554l3.91,2.607a.823.823,0,0,0,.3.122l3.461.692v.825l-3.834-.639L15.6,27.187a.825.825,0,0,0-.831-.01ZM18.8,46.105c-.912-.382-1.848-.71-2.794-1.011V29.351l2.875,1.725a.824.824,0,0,0,.289.106l4.26.71V43.567a.826.826,0,0,0,.087.369l2.475,4.949a.825.825,0,0,0,1.476,0l2.475-4.949a.825.825,0,0,0,.087-.369V31.892l4.26-.71a.824.824,0,0,0,.289-.106l2.875-1.725V45.094c-.946.3-1.881.629-2.794,1.012a34.59,34.59,0,0,0-7.93,4.655,34.59,34.59,0,0,0-7.93-4.655Z" transform="translate(0 -2.973)"/>
      <path id="Trazado_1248630" data-name="Trazado 1248630" d="M45.885,53.968a39.234,39.234,0,0,0-4.213,1.205l.541,1.558a37.769,37.769,0,0,1,4.036-1.154,43.325,43.325,0,0,1,12.126-.807l.13-1.645a45.056,45.056,0,0,0-12.62.843Z" transform="translate(-6.967 -9.107)"/>
      <path id="Trazado_1248631" data-name="Trazado 1248631" d="M14.177,55.576c1.084.246,2.17.543,3.229.884l.506-1.57c-1.1-.356-2.239-.667-3.37-.923a45.085,45.085,0,0,0-12.62-.843l.13,1.645a43.279,43.279,0,0,1,12.126.807Z" transform="translate(-0.006 -9.107)"/>
      <path id="Trazado_1248632" data-name="Trazado 1248632" d="M32.456,1.27a7.724,7.724,0,0,0-4.065,0,.825.825,0,0,0-.612.8l-.007.824a6.281,6.281,0,0,0-.931.52L26.046,3a.825.825,0,0,0-.971.122,7.377,7.377,0,0,0-2.047,3.433.824.824,0,0,0,.395.933l.742.414c-.016.174-.024.346-.024.518s.008.344.024.518l-.742.414a.825.825,0,0,0-.395.933,7.364,7.364,0,0,0,2.043,3.435.827.827,0,0,0,.971.123l.8-.415a10.035,10.035,0,0,0,.94.549v.8a.826.826,0,0,0,.612.8,7.887,7.887,0,0,0,2.037.27h.093a7.9,7.9,0,0,0,1.935-.273.825.825,0,0,0,.612-.8l.006-.824a6.232,6.232,0,0,0,.933-.52l.8.412a.824.824,0,0,0,.971-.123A7.37,7.37,0,0,0,37.82,10.29a.824.824,0,0,0-.395-.933l-.742-.414c.016-.174.024-.346.024-.518s-.008-.344-.024-.518l.742-.414a.825.825,0,0,0,.395-.933,7.358,7.358,0,0,0-2.045-3.435A.824.824,0,0,0,34.805,3l-.8.414a9.991,9.991,0,0,0-.94-.549v-.8A.826.826,0,0,0,32.456,1.27Zm.629,3.512a1.741,1.741,0,0,0,1.808.058l.158-.088a5.687,5.687,0,0,1,.977,1.628l-.643.359a.826.826,0,0,0-.408.874,4.1,4.1,0,0,1,0,1.617.825.825,0,0,0,.408.875l.643.359a5.722,5.722,0,0,1-.98,1.627l-.154-.086a1.738,1.738,0,0,0-1.808.059,4.638,4.638,0,0,1-.69.384,1.678,1.678,0,0,0-.977,1.532v.132a5.937,5.937,0,0,1-.918.084,5.7,5.7,0,0,1-1.072-.082v-.134a1.677,1.677,0,0,0-.977-1.532,4.716,4.716,0,0,1-.69-.385,1.743,1.743,0,0,0-1.808-.059L25.8,12.1a5.694,5.694,0,0,1-.977-1.629l.643-.359a.825.825,0,0,0,.408-.875,4.1,4.1,0,0,1,0-1.617.826.826,0,0,0-.408-.874l-.643-.359a5.74,5.74,0,0,1,.98-1.627l.154.086a1.743,1.743,0,0,0,1.808-.059,4.745,4.745,0,0,1,.689-.384,1.678,1.678,0,0,0,.978-1.532V2.734a5.927,5.927,0,0,1,.917-.084,6.075,6.075,0,0,1,1.073.082v.134A1.678,1.678,0,0,0,32.4,4.4a4.6,4.6,0,0,1,.69.384Z" transform="translate(-3.697)"/>
      <path id="Trazado_1248633" data-name="Trazado 1248633" d="M27.444,9.2A3.758,3.758,0,1,0,31.2,5.444,3.758,3.758,0,0,0,27.444,9.2Zm5.866,0A2.108,2.108,0,1,1,31.2,7.094,2.108,2.108,0,0,1,33.31,9.2Z" transform="translate(-4.475 -0.778)"/>
    </g>
  </g>
</svg>
