<svg xmlns="http://www.w3.org/2000/svg" xmlns:xlink="http://www.w3.org/1999/xlink" width="98" height="98" viewBox="0 0 98 98">
  <defs>
    <filter id="Trazado_982547" x="0" y="0" width="98" height="98" filterUnits="userSpaceOnUse">
      <feOffset dy="3" input="SourceAlpha"/>
      <feGaussianBlur stdDeviation="3" result="blur"/>
      <feFlood flood-opacity="0.161"/>
      <feComposite operator="in" in2="blur"/>
      <feComposite in="SourceGraphic"/>
    </filter>
    <clipPath id="clip-path">
      <path id="path8121" d="M0-682.665H48.414v48.414H0Z" transform="translate(0 682.665)"/>
    </clipPath>
  </defs>
  <g id="Grupo_1232219" data-name="Grupo 1232219" transform="translate(-825.151 -3829)">
    <g id="Grupo_1231660" data-name="Grupo 1231660" transform="translate(0 1537)">
      <g id="Grupo_1229591" data-name="Grupo 1229591" transform="translate(834.151 2298)">
        <g id="Grupo_1208936" data-name="Grupo 1208936" transform="translate(0)">
          <g id="Grupo_1208171" data-name="Grupo 1208171">
            <g id="Grupo_1207739" data-name="Grupo 1207739">
              <g id="Grupo_1207712" data-name="Grupo 1207712">
                <g id="Grupo_1207285" data-name="Grupo 1207285">
                  <g id="Grupo_1206883" data-name="Grupo 1206883">
                    <g id="Grupo_1204569" data-name="Grupo 1204569">
                      <g id="Grupo_1203962" data-name="Grupo 1203962">
                        <g id="Grupo_1203498" data-name="Grupo 1203498">
                          <g id="Grupo_1202589" data-name="Grupo 1202589">
                            <g id="Grupo_1172010" data-name="Grupo 1172010">
                              <g id="Grupo_1171046" data-name="Grupo 1171046">
                                <g id="Grupo_1148525" data-name="Grupo 1148525">
                                  <g transform="matrix(1, 0, 0, 1, -9, -6)" filter="url(#Trazado_982547)">
                                    <g id="Trazado_982547-2" data-name="Trazado 982547" transform="translate(9 6)" fill="#fdfbec">
                                      <path d="M 39.99999237060547 78.49998474121094 C 34.8018684387207 78.49998474121094 29.76002502441406 77.48226165771484 25.0145263671875 75.47508239746094 C 20.43014717102051 73.53604888916016 16.31264877319336 70.75984954833984 12.77639198303223 67.22359466552734 C 9.240137100219727 63.68733596801758 6.463936805725098 59.5698356628418 4.524903297424316 54.98546981811523 C 2.517725706100464 50.23995971679688 1.500003457069397 45.19811630249023 1.500003457069397 39.99999237060547 C 1.500003457069397 34.8018684387207 2.517725706100464 29.76002502441406 4.524903297424316 25.0145263671875 C 6.463936805725098 20.43014717102051 9.240137100219727 16.31264877319336 12.77639198303223 12.77639198303223 C 16.31264877319336 9.240137100219727 20.43014717102051 6.463936805725098 25.0145263671875 4.524903297424316 C 29.76002502441406 2.517725706100464 34.8018684387207 1.500003457069397 39.99999237060547 1.500003457069397 C 45.19811630249023 1.500003457069397 50.23995971679688 2.517725706100464 54.98546981811523 4.524903297424316 C 59.5698356628418 6.463936805725098 63.68733596801758 9.240137100219727 67.22359466552734 12.77639198303223 C 70.75984954833984 16.31264877319336 73.53604888916016 20.43014717102051 75.47508239746094 25.0145263671875 C 77.48226165771484 29.76002502441406 78.49998474121094 34.8018684387207 78.49998474121094 39.99999237060547 C 78.49998474121094 45.19812393188477 77.48226165771484 50.23995971679688 75.47508239746094 54.98546981811523 C 73.53604888916016 59.5698356628418 70.75984954833984 63.68733596801758 67.22359466552734 67.22359466552734 C 63.68733596801758 70.75984954833984 59.5698356628418 73.53604888916016 54.98546981811523 75.47508239746094 C 50.23995971679688 77.48226165771484 45.19812393188477 78.49998474121094 39.99999237060547 78.49998474121094 Z" stroke="none"/>
                                      <path d="M 39.99999237060547 2.999992370605469 C 35.00370025634766 2.999992370605469 30.1584587097168 3.97784423828125 25.59884643554688 5.906402587890625 C 21.19327163696289 7.769805908203125 17.23603057861328 10.43805694580078 13.83704376220703 13.83704376220703 C 10.43805694580078 17.23603057861328 7.769805908203125 21.19327163696289 5.906402587890625 25.59884643554688 C 3.97784423828125 30.1584587097168 2.999992370605469 35.00370025634766 2.999992370605469 39.99999237060547 C 2.999992370605469 44.99628448486328 3.97784423828125 49.84152603149414 5.906402587890625 54.40113830566406 C 7.769805908203125 58.80671310424805 10.43805694580078 62.76395416259766 13.83704376220703 66.16294097900391 C 17.23603057861328 69.56191253662109 21.19327163696289 72.23016357421875 25.59884643554688 74.09356689453125 C 30.1584587097168 76.02212524414062 35.00370025634766 76.99997711181641 39.99999237060547 76.99997711181641 C 44.99628448486328 76.99997711181641 49.84152603149414 76.02212524414062 54.40113830566406 74.09356689453125 C 58.80671310424805 72.23016357421875 62.76395416259766 69.56191253662109 66.16294097900391 66.16294097900391 C 69.56191253662109 62.76395416259766 72.23016357421875 58.80671310424805 74.09356689453125 54.40113830566406 C 76.02212524414062 49.84152603149414 76.99997711181641 44.99628448486328 76.99997711181641 39.99999237060547 C 76.99997711181641 35.00370025634766 76.02212524414062 30.1584587097168 74.09356689453125 25.59884643554688 C 72.23016357421875 21.19327163696289 69.56191253662109 17.23603057861328 66.16294097900391 13.83704376220703 C 62.76395416259766 10.43805694580078 58.80671310424805 7.769805908203125 54.40113830566406 5.906402587890625 C 49.84152603149414 3.97784423828125 44.99628448486328 2.999992370605469 39.99999237060547 2.999992370605469 M 39.99999237060547 -7.62939453125e-06 C 62.09137725830078 -7.62939453125e-06 79.99997711181641 17.90860748291016 79.99997711181641 39.99999237060547 C 79.99997711181641 62.09137725830078 62.09137725830078 79.99997711181641 39.99999237060547 79.99997711181641 C 17.90860748291016 79.99997711181641 -7.62939453125e-06 62.09137725830078 -7.62939453125e-06 39.99999237060547 C -7.62939453125e-06 17.90860748291016 17.90860748291016 -7.62939453125e-06 39.99999237060547 -7.62939453125e-06 Z" stroke="none" fill="#83793c"/>
                                    </g>
                                  </g>
                                </g>
                              </g>
                            </g>
                          </g>
                        </g>
                      </g>
                    </g>
                  </g>
                </g>
                <g id="g8115" transform="translate(15.793 15.793)">
                  <g id="g8117">
                    <g id="g8119" clip-path="url(#clip-path)">
                      <g id="g8125" transform="translate(-33.259 0.709)">
                        <path id="path8127" d="M-338.457-377.826h-25.835v-25.108c5.31-7.679,37.755-5.416,25.835,25.108" transform="translate(364.292 406.667)" fill="#fbdf63"/>
                      </g>
                      <g id="g8129" transform="translate(-33.259 0.709)">
                        <path id="path8131" d="M-338.457-377.826h-.619c6.164-24.728-15.887-30.6-25.216-24.374v-.734c5.31-7.679,37.755-5.416,25.835,25.108" transform="translate(364.292 406.667)" fill="#f9d11f"/>
                      </g>
                    </g>
                  </g>
                  <g id="g8265">
                    <g id="g8267" clip-path="url(#clip-path)">
                      <g id="g8273" transform="translate(-33.259 51.036)">
                        <path id="path8275" d="M-338.457-377.654h-25.835v-25.1c5.31-7.676,37.755-5.413,25.835,25.1" transform="translate(364.292 406.481)" fill="#003343"/>
                      </g>
                      <g id="g8277" transform="translate(-33.259 51.036)">
                        <path id="path8279" d="M-338.457-377.654h-.619c6.164-24.717-15.887-30.585-25.216-24.362v-.734c5.31-7.676,37.755-5.413,25.835,25.1" transform="translate(364.292 406.481)" fill="#002439"/>
                      </g>
                    </g>
                  </g>
                  <g id="g8281">
                    <g id="g8283" clip-path="url(#clip-path)">
                      <g id="g8289" transform="translate(17.066 51.014)">
                        <path id="path8291" d="M-338.457-377.826h-25.835v-25.108c5.31-7.679,37.755-5.416,25.835,25.108" transform="translate(364.292 406.667)" fill="#ff7e50"/>
                      </g>
                      <g id="g8293" transform="translate(17.066 51.014)">
                        <path id="path8295" d="M-338.457-377.826h-.619c6.164-24.728-15.887-30.6-25.216-24.374v-.734c5.31-7.679,37.755-5.416,25.835,25.108" transform="translate(364.292 406.667)" fill="#ff6247"/>
                      </g>
                      <g id="g8297" transform="translate(2.941 54.225)">
                        <path id="path8299" d="M-233.028-131.751v15.573h-14.6c-12.2-25.649,14.6-34.273,14.6-15.573" transform="translate(250.816 141.808)" fill="#ffa68a"/>
                      </g>
                      <g id="g8301" transform="translate(2.941 54.225)">
                        <path id="path8303" d="M-233.028-131.751c-.9-16.1-20.23-9.82-14.176,15.573h-.427c-12.2-25.649,14.6-34.273,14.6-15.573" transform="translate(250.816 141.808)" fill="#ff7e50"/>
                      </g>
                    </g>
                  </g>
                </g>
              </g>
            </g>
          </g>
        </g>
      </g>
    </g>
    <g id="diversidad_3_" data-name="diversidad (3)" transform="translate(873.774 3874.72)">
      <circle id="Elipse_11564" data-name="Elipse 11564" cx="3.489" cy="3.489" r="3.489" transform="matrix(0.16, -0.987, 0.987, 0.16, 1.274, -12.991)" fill="#f5c956"/>
      <path id="Trazado_1234820" data-name="Trazado 1234820" d="M98.123,104.657a15.466,15.466,0,0,0-4.533,10.334,2.761,2.761,0,0,0,5.517.219,41.1,41.1,0,0,1,3.637-5.932c1.755-1.755,5.71-2.633,8.01-2.633l-1.654-1.851a3.981,3.981,0,0,0-5.355-3.736A15.466,15.466,0,0,0,98.123,104.657Z" transform="translate(-108.87 -115.355)" fill="#ff6e80"/>
      <ellipse id="Elipse_11565" data-name="Elipse 11565" cx="9.236" cy="7.571" rx="9.236" ry="7.571" transform="translate(-26.771 -13.66) rotate(-45)" fill="#fdd1a3"/>
      <path id="Trazado_1234821" data-name="Trazado 1234821" d="M246.119,98.122a15.466,15.466,0,0,0-10.334-4.533,2.761,2.761,0,0,0-.219,5.517,41.1,41.1,0,0,1,5.932,3.637c1.755,1.755,2.633,5.71,2.633,8.01l1.851-1.654a3.981,3.981,0,0,0,3.736-5.355A15.466,15.466,0,0,0,246.119,98.122Z" transform="translate(-234.912 -108.82)" fill="#ffb25a"/>
      <ellipse id="Elipse_11566" data-name="Elipse 11566" cx="7.571" cy="9.236" rx="7.571" ry="9.236" transform="translate(3.46 -16.012) rotate(-45)" fill="#ffd3bc"/>
      <path id="Trazado_1234822" data-name="Trazado 1234822" d="M232.979,96.829a2.753,2.753,0,0,0,2.588,2.278,19.114,19.114,0,0,1,2.062,1.08,8.148,8.148,0,0,0,1.457-6.1,15.577,15.577,0,0,0-3.3-.494A2.755,2.755,0,0,0,232.979,96.829Z" transform="translate(-234.912 -108.82)" fill="#ffd3bc"/>
      <path id="Trazado_1234823" data-name="Trazado 1234823" d="M104.658,251.35a15.466,15.466,0,0,0,10.334,4.533,2.761,2.761,0,0,0,.219-5.517,41.1,41.1,0,0,1-5.932-3.637c-1.755-1.755-2.633-5.71-2.633-8.01l-1.851,1.654a3.981,3.981,0,0,0-3.736,5.355A15.467,15.467,0,0,0,104.658,251.35Z" transform="translate(-115.404 -240.094)" fill="#f7e969"/>
      <ellipse id="Elipse_11567" data-name="Elipse 11567" cx="7.571" cy="9.236" rx="7.571" ry="9.236" transform="translate(-26.774 14.216) rotate(-45)" fill="#da9d81"/>
      <path id="Trazado_1234824" data-name="Trazado 1234824" d="M19.877,387.415a8.547,8.547,0,0,0-1.237-1.556,8.194,8.194,0,0,0-2.2-1.594,1.428,1.428,0,0,1-.681-.7,8.111,8.111,0,0,0-1.669-2.365,8.111,8.111,0,0,0-2.365-1.669,1.428,1.428,0,0,1-.7-.681,8.2,8.2,0,0,0-1.594-2.2,8.546,8.546,0,0,0-1.556-1.237c-.957,2.958.24,6.381,2.931,9.072S16.919,388.372,19.877,387.415Z" transform="translate(-31.045 -363.734)" fill="#4677d4"/>
      <path id="Trazado_1234825" data-name="Trazado 1234825" d="M96.83,220.238a2.753,2.753,0,0,0,2.278-2.588,19.117,19.117,0,0,1,1.08-2.062,8.149,8.149,0,0,0-6.1-1.457,15.577,15.577,0,0,0-.494,3.3A2.754,2.754,0,0,0,96.83,220.238Z" transform="translate(-108.87 -217.795)" fill="#fdd1a3"/>
      <path id="Trazado_1234826" data-name="Trazado 1234826" d="M251.351,246.118a15.466,15.466,0,0,0,4.533-10.334,2.761,2.761,0,0,0-5.517-.219,41.1,41.1,0,0,1-3.636,5.932c-1.755,1.755-5.71,2.633-8.01,2.633l1.654,1.851a3.981,3.981,0,0,0,5.355,3.736A15.466,15.466,0,0,0,251.351,246.118Z" transform="translate(-240.143 -234.862)" fill="#4677d4"/>
      <path id="Trazado_1234827" data-name="Trazado 1234827" d="M220.24,352.739a2.753,2.753,0,0,0-2.588-2.278,19.1,19.1,0,0,1-2.061-1.08,8.148,8.148,0,0,0-1.457,6.1,15.576,15.576,0,0,0,3.3.494A2.754,2.754,0,0,0,220.24,352.739Z" transform="translate(-217.845 -340.189)" fill="#da9d81"/>
      <ellipse id="Elipse_11568" data-name="Elipse 11568" cx="9.236" cy="7.571" rx="9.236" ry="7.571" transform="translate(3.457 16.574) rotate(-45)" fill="#ffdcce"/>
      <path id="Trazado_1234828" data-name="Trazado 1234828" d="M352.74,232.978a2.753,2.753,0,0,0-2.278,2.588,19.11,19.11,0,0,1-1.08,2.062,8.149,8.149,0,0,0,6.1,1.457,15.578,15.578,0,0,0,.494-3.3A2.755,2.755,0,0,0,352.74,232.978Z" transform="translate(-340.238 -234.862)" fill="#ffdcce"/>
      <circle id="Elipse_11569" data-name="Elipse 11569" cx="10.002" cy="10.002" r="10.002" transform="translate(-9.771 -9.722)" fill="#59d5ff"/>
      <path id="Trazado_1234829" data-name="Trazado 1234829" d="M170.1,178.071c-10.411.583-15.554-9.081-13.678-13.49a10,10,0,1,0,13.678,13.49Z" transform="translate(-161.067 -173.035)" fill="#00c4fc"/>
      <path id="Trazado_1234830" data-name="Trazado 1234830" d="M275.612,261.482H270.1a3.468,3.468,0,0,0-3.468,3.468,1.869,1.869,0,0,0,1.869,1.869.677.677,0,0,1,.677.677,3.655,3.655,0,0,0,.91,2.417A10,10,0,0,0,275.612,261.482Z" transform="translate(-265.393 -260.683)" fill="#00cd8d"/>
      <path id="Trazado_1234831" data-name="Trazado 1234831" d="M270.091,294.065a10.046,10.046,0,0,0,4.332-4.194,13.879,13.879,0,0,1-7.664-1.687,3.468,3.468,0,0,0-.124.919,1.869,1.869,0,0,0,1.869,1.869.677.677,0,0,1,.677.677A3.656,3.656,0,0,0,270.091,294.065Z" transform="translate(-265.394 -284.834)" fill="#00b662"/>
      <path id="Trazado_1234832" data-name="Trazado 1234832" d="M388.4,7.6c.913,3.222,2.329,5.285,4.647,5.694a.856.856,0,0,1,.7.7c.409,2.318,2.471,3.734,5.694,4.647.327-2.643-.883-5.511-3.2-7.832S391.041,7.272,388.4,7.6Z" transform="translate(-375.529 -30.994)" fill="#f5c956"/>
      <path id="Trazado_1234833" data-name="Trazado 1234833" d="M13.043,16.83a2.679,2.679,0,0,0,3.789-3.789C15.786,12,12.973,11.2,12.089,12.087S12,15.784,13.043,16.83Z" transform="translate(-34.807 -34.757)" fill="#ff6e80"/>
      <path id="Trazado_1234834" data-name="Trazado 1234834" d="M157.168,195.712h-4.047a9.956,9.956,0,0,0-1.825,5.761c0,.13,0,.26.008.389h4.253a3.88,3.88,0,0,0,3.88-3.88A2.269,2.269,0,0,0,157.168,195.712Z" transform="translate(-161.067 -201.193)" fill="#00cd8d"/>
      <path id="Trazado_1234835" data-name="Trazado 1234835" d="M156.1,195.712h-2.979a9.956,9.956,0,0,0-1.825,5.761c0,.13,0,.26.008.389h4.253a3.866,3.866,0,0,0,2.666-1.062A11.233,11.233,0,0,1,156.1,195.712Z" transform="translate(-161.067 -201.193)" fill="#00b662"/>
      <path id="Trazado_1234836" data-name="Trazado 1234836" d="M39.652,12.244a.716.716,0,0,0-.1-1.429,1.367,1.367,0,0,1-1.46-1.46.716.716,0,1,0-1.429-.1,2.8,2.8,0,0,0,2.987,2.987Zm-5.4-5.3a.714.714,0,0,0,.506-.21l.81-.81a.716.716,0,1,0-1.013-1.013l-.81.81a.716.716,0,0,0,.506,1.223Zm-19.792-.9a.716.716,0,0,0,0-1.013l-.81-.81a.716.716,0,1,0-1.013,1.013l.81.81A.716.716,0,0,0,14.459,6.039Zm-5.81,4.083a.716.716,0,1,0-.1,1.429,2.8,2.8,0,0,0,2.987-2.987.716.716,0,0,0-1.429.1,1.367,1.367,0,0,1-1.46,1.46ZM43.784,34.351a.716.716,0,0,0-1.013,1.013l.81.81a.716.716,0,0,0,1.013-1.013Zm-.593-19.186.81-.81a.716.716,0,0,0-1.013-1.013l-.81.81a.716.716,0,0,0,1.013,1.013ZM9.156,36.767a.716.716,0,1,0,.1,1.429,1.367,1.367,0,0,1,1.46,1.46.716.716,0,0,0,.665.764l.05,0a.716.716,0,0,0,.714-.667,2.8,2.8,0,0,0-2.987-2.987ZM6.026,14.472a.716.716,0,0,0,0-1.013l-.81-.81A.716.716,0,1,0,4.2,13.662l.81.81A.716.716,0,0,0,6.026,14.472Zm8.025,27.807-.81.81A.716.716,0,0,0,14.254,44.1l.81-.81a.716.716,0,0,0-1.013-1.013ZM5.618,33.846l-.81.81a.716.716,0,1,0,1.013,1.013l.81-.81a.716.716,0,0,0-1.013-1.013Zm28.72,8.938a.716.716,0,0,0,0,1.013l.81.81a.716.716,0,1,0,1.013-1.013l-.81-.81A.716.716,0,0,0,34.338,42.784Zm5.22-12.371a16.366,16.366,0,0,0,1.116-5.28,3.424,3.424,0,0,0-1.126-2.684,4.65,4.65,0,0,0,.148-3.59c-.043-.117-.088-.233-.134-.35A7.553,7.553,0,0,0,46.6,16.382c3.732-3.732,2.6-9.121-1.178-12.9s-9.167-4.908-12.9-1.178a8.016,8.016,0,0,0-1.515,2.079A4.2,4.2,0,0,0,25.3,8.245l-.176-.009a3.428,3.428,0,0,0-2.683,1.125,4.652,4.652,0,0,0-3.59-.147c-.117.043-.233.088-.35.134a7.553,7.553,0,0,0-2.128-7.041C13.654-.408,9.751-.723,6.089,1.44,4.732.568,2.129-.131.993,1.006s-.438,3.739.435,5.1A10.825,10.825,0,0,0,.453,8.238a.716.716,0,0,0,1.362.444,9.2,9.2,0,0,1,.647-1.5A3.395,3.395,0,0,0,7.171,2.475c2.838-1.526,5.907-1.434,8.185.844C18.517,6.48,17.369,11,14.178,14.191s-7.71,4.34-10.872,1.178a6.115,6.115,0,0,1-1.825-3.652.716.716,0,0,0-1.422.171,7.616,7.616,0,0,0,2.234,4.494A7.554,7.554,0,0,0,9.339,18.51a16.366,16.366,0,0,0-1.116,5.28,3.424,3.424,0,0,0,1.125,2.683,4.652,4.652,0,0,0-.147,3.59q.064.175.134.35a7.554,7.554,0,0,0-7.041,2.129c-7.827,7.827,6.257,21.893,14.075,14.075A7.553,7.553,0,0,0,18.5,39.571a16.361,16.361,0,0,0,5.28,1.116,3.423,3.423,0,0,0,2.682-1.124,4.652,4.652,0,0,0,3.591.146q.175-.064.35-.133a7.553,7.553,0,0,0,2.129,7.041c3.049,3.048,7.349,2.915,10.989.416a.716.716,0,1,0-.811-1.181c-3,2.061-6.57,2.347-9.165-.248-3.161-3.161-2.013-7.681,1.178-10.872s7.712-4.338,10.872-1.178c2.918,2.918,2.168,7.028-.519,10.161a.716.716,0,1,0,1.087.933c3.466-4.041,3.645-8.906.444-12.106a7.553,7.553,0,0,0-7.046-2.128ZM5.735,5.749a1.965,1.965,0,0,1-2.776,0A4.729,4.729,0,0,1,1.95,3.661c-.219-.946-.087-1.5.055-1.643s.7-.274,1.643-.055a4.731,4.731,0,0,1,2.087,1.01A1.965,1.965,0,0,1,5.735,5.749ZM44.412,4.5a9.566,9.566,0,0,1,3.047,6.37c-2.642-.891-4.024-2.115-4.324-3.816a1.58,1.58,0,0,0-1.277-1.277c-1.7-.3-2.925-1.682-3.816-4.324A9.569,9.569,0,0,1,44.412,4.5ZM33.541,3.319A6.219,6.219,0,0,1,36.585,1.6c1.07,3.347,2.717,5.177,5.024,5.584a.139.139,0,0,1,.116.116c.407,2.307,2.237,3.955,5.585,5.025a6.22,6.22,0,0,1-1.719,3.044c-3.161,3.161-7.681,2.013-10.872-1.178S30.381,6.479,33.541,3.319Zm4.214,14.641a14.7,14.7,0,0,1,.6,1.392,3.235,3.235,0,0,1-.044,2.365,3.467,3.467,0,0,0-3.347.644A10.757,10.757,0,0,0,28.413,14.5a9.767,9.767,0,0,0,.755-4.077,14.7,14.7,0,0,1,1.78.727,13.117,13.117,0,0,0,6.806,6.807ZM30.5,5.72a7.911,7.911,0,0,0-.1,3.63,16.418,16.418,0,0,0-3.671-.967A2.773,2.773,0,0,1,30.5,5.72ZM25.061,9.667a14.834,14.834,0,0,1,2.658.355,8.553,8.553,0,0,1-.677,4.04,10.708,10.708,0,0,0-2.14-.308,2.045,2.045,0,0,1,.159-4.086Zm-13.92,8.294a13.117,13.117,0,0,0,6.807-6.806,14.716,14.716,0,0,1,1.392-.6,3.235,3.235,0,0,1,2.365.044,3.472,3.472,0,0,0,.643,3.347A10.757,10.757,0,0,0,14.491,20.5a9.77,9.77,0,0,0-4.077-.755A14.687,14.687,0,0,1,11.141,17.961Zm9.177,1.456a1.555,1.555,0,0,1,1.553,1.553,3.168,3.168,0,0,1-3.164,3.164H15.169a9.227,9.227,0,0,1,1.487-4.718ZM9.654,23.848a14.827,14.827,0,0,1,.355-2.658,8.553,8.553,0,0,1,4.04.677,10.705,10.705,0,0,0-.308,2.14,2.045,2.045,0,0,1-4.086-.159ZM1.5,37.064a7.746,7.746,0,0,1,2.051,2.549A2.151,2.151,0,0,0,4.6,40.635a7.781,7.781,0,0,1,3.677,3.677A2.151,2.151,0,0,0,9.3,45.358a7.743,7.743,0,0,1,2.549,2.051C6.723,48.149.764,42.164,1.5,37.064ZM15.356,45.6a6.445,6.445,0,0,1-2.026,1.389A9.455,9.455,0,0,0,12.319,45.8a8.877,8.877,0,0,0-2.4-1.732.715.715,0,0,1-.341-.347A9.207,9.207,0,0,0,5.188,39.33a.716.716,0,0,1-.347-.341,8.877,8.877,0,0,0-1.732-2.4A9.462,9.462,0,0,0,1.917,35.58a6.444,6.444,0,0,1,1.389-2.026c3.161-3.161,7.682-2.012,10.872,1.178S18.516,42.444,15.356,45.6ZM19.729,38.5a14.69,14.69,0,0,1-1.781-.728,13.117,13.117,0,0,0-6.806-6.807,14.726,14.726,0,0,1-.6-1.392A3.235,3.235,0,0,1,10.59,27.2a3.467,3.467,0,0,0,3.347-.644,10.757,10.757,0,0,0,6.546,7.859A9.768,9.768,0,0,0,19.729,38.5Zm4.106.76a14.834,14.834,0,0,1-2.658-.355,8.552,8.552,0,0,1,.677-4.04,10.7,10.7,0,0,0,2.14.308,2.045,2.045,0,0,1-.159,4.086ZM15.229,25.567h3.479a4.6,4.6,0,0,0,4.6-4.6,2.989,2.989,0,0,0-2.986-2.986H17.8a9.281,9.281,0,0,1,15.93,6.28h-4.8a4.189,4.189,0,0,0-4.184,4.185,2.588,2.588,0,0,0,2.546,2.585,4.377,4.377,0,0,0,.545,2.074,9.3,9.3,0,0,1-12.606-7.541Zm18.423.13a9.3,9.3,0,0,1-4.527,6.784,2.949,2.949,0,0,1-.4-1.486A1.394,1.394,0,0,0,27.329,29.6a1.154,1.154,0,0,1-1.153-1.153A2.755,2.755,0,0,1,28.928,25.7Zm4.1,5.264a13.116,13.116,0,0,0-6.807,6.806,14.691,14.691,0,0,1-1.392.6,3.235,3.235,0,0,1-2.365-.044,3.466,3.466,0,0,0-.645-3.347,10.757,10.757,0,0,0,7.859-6.546,9.774,9.774,0,0,0,4.077.755,14.718,14.718,0,0,1-.727,1.779Zm1.487-5.887a14.835,14.835,0,0,1-.355,2.658,8.552,8.552,0,0,1-4.04-.677,10.7,10.7,0,0,0,.308-2.14,2.045,2.045,0,0,1,4.086.159Zm.9,13.626a.716.716,0,0,0,.1-1.429,2.8,2.8,0,0,0-2.987,2.987.716.716,0,0,0,.714.667l.05,0a.716.716,0,0,0,.665-.764,1.367,1.367,0,0,1,1.46-1.46Z" transform="translate(-24.217 -24.182)"/>
    </g>
  </g>
</svg>
