<svg xmlns="http://www.w3.org/2000/svg" xmlns:xlink="http://www.w3.org/1999/xlink" width="98" height="98" viewBox="0 0 98 98">
  <defs>
    <filter id="Trazado_982547" x="0" y="0" width="98" height="98" filterUnits="userSpaceOnUse">
      <feOffset dy="3" input="SourceAlpha"/>
      <feGaussianBlur stdDeviation="3" result="blur"/>
      <feFlood flood-opacity="0.161"/>
      <feComposite operator="in" in2="blur"/>
      <feComposite in="SourceGraphic"/>
    </filter>
    <clipPath id="clip-path">
      <path id="path8121" d="M0-682.665H48.414v48.414H0Z" transform="translate(0 682.665)"/>
    </clipPath>
  </defs>
  <g id="Grupo_1232150" data-name="Grupo 1232150" transform="translate(-195.151 -3322)">
    <g id="Grupo_1231551" data-name="Grupo 1231551" transform="translate(0 1030)">
      <g id="Grupo_1229590" data-name="Grupo 1229590" transform="translate(204.151 2298)">
        <g id="Grupo_1208936" data-name="Grupo 1208936" transform="translate(0)">
          <g id="Grupo_1208171" data-name="Grupo 1208171">
            <g id="Grupo_1207739" data-name="Grupo 1207739">
              <g id="Grupo_1207712" data-name="Grupo 1207712">
                <g id="Grupo_1207285" data-name="Grupo 1207285">
                  <g id="Grupo_1206883" data-name="Grupo 1206883">
                    <g id="Grupo_1204569" data-name="Grupo 1204569">
                      <g id="Grupo_1203962" data-name="Grupo 1203962">
                        <g id="Grupo_1203498" data-name="Grupo 1203498">
                          <g id="Grupo_1202589" data-name="Grupo 1202589">
                            <g id="Grupo_1172010" data-name="Grupo 1172010">
                              <g id="Grupo_1171046" data-name="Grupo 1171046">
                                <g id="Grupo_1148525" data-name="Grupo 1148525">
                                  <g transform="matrix(1, 0, 0, 1, -9, -6)" filter="url(#Trazado_982547)">
                                    <g id="Trazado_982547-2" data-name="Trazado 982547" transform="translate(9 6)" fill="#fdfbec">
                                      <path d="M 39.99999237060547 78.49998474121094 C 34.8018684387207 78.49998474121094 29.76002502441406 77.48226165771484 25.0145263671875 75.47508239746094 C 20.43014717102051 73.53604888916016 16.31264877319336 70.75984954833984 12.77639198303223 67.22359466552734 C 9.240137100219727 63.68733596801758 6.463936805725098 59.5698356628418 4.524903297424316 54.98546981811523 C 2.517725706100464 50.23995971679688 1.500003457069397 45.19811630249023 1.500003457069397 39.99999237060547 C 1.500003457069397 34.8018684387207 2.517725706100464 29.76002502441406 4.524903297424316 25.0145263671875 C 6.463936805725098 20.43014717102051 9.240137100219727 16.31264877319336 12.77639198303223 12.77639198303223 C 16.31264877319336 9.240137100219727 20.43014717102051 6.463936805725098 25.0145263671875 4.524903297424316 C 29.76002502441406 2.517725706100464 34.8018684387207 1.500003457069397 39.99999237060547 1.500003457069397 C 45.19811630249023 1.500003457069397 50.23995971679688 2.517725706100464 54.98546981811523 4.524903297424316 C 59.5698356628418 6.463936805725098 63.68733596801758 9.240137100219727 67.22359466552734 12.77639198303223 C 70.75984954833984 16.31264877319336 73.53604888916016 20.43014717102051 75.47508239746094 25.0145263671875 C 77.48226165771484 29.76002502441406 78.49998474121094 34.8018684387207 78.49998474121094 39.99999237060547 C 78.49998474121094 45.19812393188477 77.48226165771484 50.23995971679688 75.47508239746094 54.98546981811523 C 73.53604888916016 59.5698356628418 70.75984954833984 63.68733596801758 67.22359466552734 67.22359466552734 C 63.68733596801758 70.75984954833984 59.5698356628418 73.53604888916016 54.98546981811523 75.47508239746094 C 50.23995971679688 77.48226165771484 45.19812393188477 78.49998474121094 39.99999237060547 78.49998474121094 Z" stroke="none"/>
                                      <path d="M 39.99999237060547 2.999992370605469 C 35.00370025634766 2.999992370605469 30.1584587097168 3.97784423828125 25.59884643554688 5.906402587890625 C 21.19327163696289 7.769805908203125 17.23603057861328 10.43805694580078 13.83704376220703 13.83704376220703 C 10.43805694580078 17.23603057861328 7.769805908203125 21.19327163696289 5.906402587890625 25.59884643554688 C 3.97784423828125 30.1584587097168 2.999992370605469 35.00370025634766 2.999992370605469 39.99999237060547 C 2.999992370605469 44.99628448486328 3.97784423828125 49.84152603149414 5.906402587890625 54.40113830566406 C 7.769805908203125 58.80671310424805 10.43805694580078 62.76395416259766 13.83704376220703 66.16294097900391 C 17.23603057861328 69.56191253662109 21.19327163696289 72.23016357421875 25.59884643554688 74.09356689453125 C 30.1584587097168 76.02212524414062 35.00370025634766 76.99997711181641 39.99999237060547 76.99997711181641 C 44.99628448486328 76.99997711181641 49.84152603149414 76.02212524414062 54.40113830566406 74.09356689453125 C 58.80671310424805 72.23016357421875 62.76395416259766 69.56191253662109 66.16294097900391 66.16294097900391 C 69.56191253662109 62.76395416259766 72.23016357421875 58.80671310424805 74.09356689453125 54.40113830566406 C 76.02212524414062 49.84152603149414 76.99997711181641 44.99628448486328 76.99997711181641 39.99999237060547 C 76.99997711181641 35.00370025634766 76.02212524414062 30.1584587097168 74.09356689453125 25.59884643554688 C 72.23016357421875 21.19327163696289 69.56191253662109 17.23603057861328 66.16294097900391 13.83704376220703 C 62.76395416259766 10.43805694580078 58.80671310424805 7.769805908203125 54.40113830566406 5.906402587890625 C 49.84152603149414 3.97784423828125 44.99628448486328 2.999992370605469 39.99999237060547 2.999992370605469 M 39.99999237060547 -7.62939453125e-06 C 62.09137725830078 -7.62939453125e-06 79.99997711181641 17.90860748291016 79.99997711181641 39.99999237060547 C 79.99997711181641 62.09137725830078 62.09137725830078 79.99997711181641 39.99999237060547 79.99997711181641 C 17.90860748291016 79.99997711181641 -7.62939453125e-06 62.09137725830078 -7.62939453125e-06 39.99999237060547 C -7.62939453125e-06 17.90860748291016 17.90860748291016 -7.62939453125e-06 39.99999237060547 -7.62939453125e-06 Z" stroke="none" fill="#83793c"/>
                                    </g>
                                  </g>
                                </g>
                              </g>
                            </g>
                          </g>
                        </g>
                      </g>
                    </g>
                  </g>
                </g>
                <g id="g8115" transform="translate(15.793 15.793)">
                  <g id="g8117">
                    <g id="g8119" clip-path="url(#clip-path)">
                      <g id="g8125" transform="translate(-33.259 0.709)">
                        <path id="path8127" d="M-338.457-377.826h-25.835v-25.108c5.31-7.679,37.755-5.416,25.835,25.108" transform="translate(364.292 406.667)" fill="#fbdf63"/>
                      </g>
                      <g id="g8129" transform="translate(-33.259 0.709)">
                        <path id="path8131" d="M-338.457-377.826h-.619c6.164-24.728-15.887-30.6-25.216-24.374v-.734c5.31-7.679,37.755-5.416,25.835,25.108" transform="translate(364.292 406.667)" fill="#f9d11f"/>
                      </g>
                    </g>
                  </g>
                  <g id="g8265">
                    <g id="g8267" clip-path="url(#clip-path)">
                      <g id="g8273" transform="translate(-33.259 51.036)">
                        <path id="path8275" d="M-338.457-377.654h-25.835v-25.1c5.31-7.676,37.755-5.413,25.835,25.1" transform="translate(364.292 406.481)" fill="#003343"/>
                      </g>
                      <g id="g8277" transform="translate(-33.259 51.036)">
                        <path id="path8279" d="M-338.457-377.654h-.619c6.164-24.717-15.887-30.585-25.216-24.362v-.734c5.31-7.676,37.755-5.413,25.835,25.1" transform="translate(364.292 406.481)" fill="#002439"/>
                      </g>
                    </g>
                  </g>
                  <g id="g8281">
                    <g id="g8283" clip-path="url(#clip-path)">
                      <g id="g8289" transform="translate(17.066 51.014)">
                        <path id="path8291" d="M-338.457-377.826h-25.835v-25.108c5.31-7.679,37.755-5.416,25.835,25.108" transform="translate(364.292 406.667)" fill="#ff7e50"/>
                      </g>
                      <g id="g8293" transform="translate(17.066 51.014)">
                        <path id="path8295" d="M-338.457-377.826h-.619c6.164-24.728-15.887-30.6-25.216-24.374v-.734c5.31-7.679,37.755-5.416,25.835,25.108" transform="translate(364.292 406.667)" fill="#ff6247"/>
                      </g>
                      <g id="g8297" transform="translate(2.941 54.225)">
                        <path id="path8299" d="M-233.028-131.751v15.573h-14.6c-12.2-25.649,14.6-34.273,14.6-15.573" transform="translate(250.816 141.808)" fill="#ffa68a"/>
                      </g>
                      <g id="g8301" transform="translate(2.941 54.225)">
                        <path id="path8303" d="M-233.028-131.751c-.9-16.1-20.23-9.82-14.176,15.573h-.427c-12.2-25.649,14.6-34.273,14.6-15.573" transform="translate(250.816 141.808)" fill="#ff7e50"/>
                      </g>
                    </g>
                  </g>
                </g>
              </g>
            </g>
          </g>
        </g>
      </g>
    </g>
    <g id="teamwork_5863207" transform="translate(216.495 3342.495)">
      <g id="Grupo_1232395" data-name="Grupo 1232395" transform="translate(0.823 0.823)">
        <g id="Grupo_1232380" data-name="Grupo 1232380" transform="translate(9.873)">
          <path id="Trazado_1248670" data-name="Trazado 1248670" d="M115.1,25.792l-2.055-.514V24.072a.823.823,0,0,1,.366-.684l.27-.181a4.111,4.111,0,0,0,1.832-3.423V15.4h-.141a5.619,5.619,0,0,1-3.973-1.645,5.619,5.619,0,0,1-3.973,1.645h-.141v4.38a4.111,4.111,0,0,0,1.832,3.423l.27.181a.823.823,0,0,1,.366.684v1.205l-2.055.514-.788.2a4.919,4.919,0,0,0-2.069,1.088A7.382,7.382,0,0,1,104,23.632V15.4a7.4,7.4,0,1,1,14.809,0v8.227a7.381,7.381,0,0,1-.847,3.444,4.919,4.919,0,0,0-2.069-1.088Z" transform="translate(-104 -8)" fill="#656d78"/>
        </g>
        <g id="Grupo_1232381" data-name="Grupo 1232381" transform="translate(31.264 4.114)">
          <path id="Trazado_1248671" data-name="Trazado 1248671" d="M316.049,55.4h-2.4A1.645,1.645,0,0,1,312,53.759,5.758,5.758,0,0,1,317.759,48h4.032a5.117,5.117,0,0,1,5.018,4.114l.462.231a5.117,5.117,0,0,1,2.829,4.576,7.31,7.31,0,0,1-4.742,6.843l-1.84.69V60.341a1.645,1.645,0,1,0,0-3.291V55.756a2,2,0,0,0-2.89-1.786l-2.522,1.261a1.646,1.646,0,0,1-.736.174h-.434a1.621,1.621,0,0,1-.706-.159A2.245,2.245,0,0,0,316.049,55.4Z" transform="translate(-312 -48)" fill="#b27946"/>
        </g>
        <g id="Grupo_1232382" data-name="Grupo 1232382" transform="translate(9.05 17.792)">
          <path id="Trazado_1248672" data-name="Trazado 1248672" d="M109.164,189.536H96v-3.55a4.937,4.937,0,0,1,3.739-4.789l.788-.2a7.225,7.225,0,0,0,3.7,4.422,7.228,7.228,0,0,0,3.7-4.422l.788.2a4.937,4.937,0,0,1,3.739,4.789v3.55Z" transform="translate(-96 -181)" fill="#b4dd7f"/>
        </g>
        <g id="Grupo_1232383" data-name="Grupo 1232383" transform="translate(10.696 36.2)">
          <path id="Trazado_1248673" data-name="Trazado 1248673" d="M119.4,366.582h-1.645l-.823,6.582H112l.823-9.873h.823a1.645,1.645,0,0,0,1.645-1.645v-.823a.823.823,0,0,0-.823-.823H122.7a.823.823,0,0,0-.823.823v.823a1.645,1.645,0,0,0,1.645,1.645h.823l.823,9.873h-4.936Z" transform="translate(-112 -360)" fill="#d3a06c"/>
        </g>
        <g id="Grupo_1232384" data-name="Grupo 1232384" transform="translate(7.405 26.327)">
          <path id="Trazado_1248674" data-name="Trazado 1248674" d="M98.1,264h7.01a6.558,6.558,0,0,0-.865,2.822l-.033.469H80V264H98.1Z" transform="translate(-80 -264)" fill="#75b1f2"/>
        </g>
        <g id="Grupo_1232385" data-name="Grupo 1232385" transform="translate(7.405 32.909)">
          <path id="Trazado_1248675" data-name="Trazado 1248675" d="M104.252,331.291H80V328h23.976l-.109,1.532c-.005.075-.008.151-.008.226a3.166,3.166,0,0,0,.393,1.532Z" transform="translate(-80 -328)" fill="#75b1f2"/>
        </g>
        <g id="Grupo_1232386" data-name="Grupo 1232386" transform="translate(0 26.327)">
          <path id="Trazado_1248676" data-name="Trazado 1248676" d="M15.4,270.582v3.291l-6.686-3.714a1.4,1.4,0,0,1,0-2.446L15.4,264v6.582Z" transform="translate(-8 -264)" fill="#ccd1d9"/>
        </g>
        <g id="Grupo_1232387" data-name="Grupo 1232387" transform="translate(7.405 29.618)">
          <path id="Trazado_1248677" data-name="Trazado 1248677" d="M104.211,296l-.234,3.291H80V296Z" transform="translate(-80 -296)" fill="#ff826e"/>
        </g>
        <g id="Grupo_1232388" data-name="Grupo 1232388" transform="translate(33.732 36.2)">
          <path id="Trazado_1248678" data-name="Trazado 1248678" d="M343.541,365.614h0a3.279,3.279,0,0,1-.96-2.322,3.279,3.279,0,0,1-.959,2.322h0l-.686,7.55H336l1.44-11.518.206-1.645h9.873l.206,1.645,1.44,11.518h-4.936Z" transform="translate(-336 -360)" fill="#969faa"/>
        </g>
        <g id="Grupo_1232389" data-name="Grupo 1232389" transform="translate(31.264 23.284)">
          <path id="Trazado_1248679" data-name="Trazado 1248679" d="M330.092,245.567l-.377-5.292a6.585,6.585,0,0,0-4.773-5.865,3.892,3.892,0,0,1-7.783,0,6.583,6.583,0,0,0-4.773,5.865l-.033.469h0l-.234,3.291-.109,1.532c-.005.075-.008.151-.008.226a3.166,3.166,0,0,0,.393,1.532h0a3.173,3.173,0,0,0,2.784,1.645h.73l.206-1.645h9.873l.206,1.645h.73a3.178,3.178,0,0,0,3.178-3.178C330.1,245.718,330.1,245.642,330.092,245.567Z" transform="translate(-312 -234.41)" fill="#fcd770"/>
        </g>
        <g id="Grupo_1232390" data-name="Grupo 1232390" transform="translate(36.422 23.037)">
          <path id="Trazado_1248680" data-name="Trazado 1248680" d="M369.943,232.248a3.892,3.892,0,0,1-7.783,0,6.444,6.444,0,0,1,1.423-.237c.122-.008.245-.011.369-.011h4.2c.124,0,.247,0,.369.011A6.445,6.445,0,0,1,369.943,232.248Z" transform="translate(-362.16 -232)" fill="#ffc729"/>
        </g>
        <g id="Grupo_1232391" data-name="Grupo 1232391" transform="translate(34.555 9.873)">
          <path id="Trazado_1248681" data-name="Trazado 1248681" d="M347.291,113.867c-.064,0-.13.006-.194.006h-.12A2.977,2.977,0,0,1,344,110.9v-3.472a2.465,2.465,0,0,1,.758-1.779,2.242,2.242,0,0,1,.182-.159,1.621,1.621,0,0,0,.706.159h.434a1.646,1.646,0,0,0,.736-.174l2.522-1.261a2,2,0,0,1,2.89,1.786v1.294a1.645,1.645,0,1,1,0,3.291v6.592h0c-.122-.008-.245-.011-.369-.011h-4.2c-.124,0-.247,0-.369.011h0v-3.3Z" transform="translate(-344 -104)" fill="#f0d0b4"/>
        </g>
        <g id="Grupo_1232392" data-name="Grupo 1232392" transform="translate(20.568 36.2)">
          <path id="Trazado_1248682" data-name="Trazado 1248682" d="M212.936,360.823v.823a1.645,1.645,0,0,1-1.645,1.645h-1.645A1.645,1.645,0,0,1,208,361.645v-.823a.823.823,0,0,1,.823-.823h3.291A.823.823,0,0,1,212.936,360.823Z" transform="translate(-208 -360)" fill="#f0d0b4"/>
        </g>
        <g id="Grupo_1232393" data-name="Grupo 1232393" transform="translate(9.05 36.2)">
          <path id="Trazado_1248683" data-name="Trazado 1248683" d="M100.936,360.823v.823a1.645,1.645,0,0,1-1.645,1.645H97.645A1.645,1.645,0,0,1,96,361.645v-.823a.823.823,0,0,1,.823-.823h3.291A.823.823,0,0,1,100.936,360.823Z" transform="translate(-96 -360)" fill="#f0d0b4"/>
        </g>
        <g id="Grupo_1232394" data-name="Grupo 1232394" transform="translate(13.164 5.759)">
          <path id="Trazado_1248684" data-name="Trazado 1248684" d="M144.227,65.645v4.38a4.111,4.111,0,0,1-1.832,3.423l-.27.181a.823.823,0,0,0-.366.684v1.205l2.055.514a7.228,7.228,0,0,1-3.7,4.422,7.225,7.225,0,0,1-3.7-4.422l2.055-.514V74.313a.823.823,0,0,0-.366-.684l-.27-.181A4.111,4.111,0,0,1,136,70.026v-4.38h.141A5.619,5.619,0,0,0,140.114,64a5.619,5.619,0,0,0,3.973,1.645Z" transform="translate(-136 -64)" fill="#f0d0b4"/>
        </g>
      </g>
      <path id="Trazado_1248685" data-name="Trazado 1248685" d="M50.621,29.914a7.436,7.436,0,0,0-6.194-6.778V21.961l1.306-.49a8.169,8.169,0,0,0,5.276-7.613,5.908,5.908,0,0,0-3.284-5.313l-.119-.059a5.958,5.958,0,0,0-5.729-4.372H37.846A6.589,6.589,0,0,0,31.264,10.7a2.471,2.471,0,0,0,2.468,2.468H34.7a3.307,3.307,0,0,0-.141.956v3.472a3.8,3.8,0,0,0,3.291,3.764v1.779a7.448,7.448,0,0,0-4.956,3.192H27.15V23.6a5.749,5.749,0,0,0-1.5-3.878,8.263,8.263,0,0,0,.676-3.267V8.227a8.227,8.227,0,1,0-16.455,0v8.227a8.261,8.261,0,0,0,.676,3.267A5.749,5.749,0,0,0,9.05,23.6v2.728H8.014L1.142,30.145a2.221,2.221,0,0,0,0,3.883l6.872,3.818H9.05v.823a2.471,2.471,0,0,0,2.4,2.466l-.823,9.875h6.557L18,44.428H18.2l.823,6.582h6.557l-.823-9.875a2.471,2.471,0,0,0,2.4-2.466v-.823h4.883a4,4,0,0,0,3.03,1.64l-1.44,11.523h6.62l.73-8.027c.057-.066.112-.134.164-.2.052.07.108.137.164.2l.73,8.027h6.62L47.21,39.486a4.005,4.005,0,0,0,3.8-4c0-.094,0-.19-.01-.285ZM41.137,27.12a4.532,4.532,0,0,1-2.8-2.394,5.719,5.719,0,0,1,.7-.044h4.2a5.72,5.72,0,0,1,.7.044,4.532,4.532,0,0,1-2.8,2.394ZM32.909,10.7a4.942,4.942,0,0,1,4.936-4.936h4.032a4.306,4.306,0,0,1,4.211,3.452l.079.395.822.411a4.271,4.271,0,0,1,2.374,3.841,6.516,6.516,0,0,1-4.208,6.073l-.728.273V17.959a2.468,2.468,0,0,0,0-4.654v-.612a2.82,2.82,0,0,0-4.081-2.522l-2.522,1.261a.827.827,0,0,1-.368.087h-.434a.823.823,0,1,1,0-1.645h.823V8.227h-.823A2.467,2.467,0,0,0,34.7,11.518h-.964A.824.824,0,0,1,32.909,10.7Zm3.291,6.9V14.12a1.635,1.635,0,0,1,.342-1,2.473,2.473,0,0,0,.48.047h.434a2.48,2.48,0,0,0,1.1-.261l2.522-1.261a1.174,1.174,0,0,1,1.7,1.05v2.117H43.6a.823.823,0,1,1,0,1.645h-.823v6.582H39.491V21.253a3.776,3.776,0,0,0,2.381-1.963L40.4,18.555a2.142,2.142,0,0,1-1.926,1.191h-.12A2.156,2.156,0,0,1,36.2,17.592ZM9.05,31.264H31.556l-.118,1.645H9.05Zm22.63-1.645H9.05V27.973h23.01A7.321,7.321,0,0,0,31.68,29.618ZM11.518,8.227a6.582,6.582,0,1,1,13.164,0v8.227a6.62,6.62,0,0,1-.371,2.18,5.77,5.77,0,0,0-1.523-.622l-2.22-.555V16.9l.27-.18a4.926,4.926,0,0,0,2.2-4.107V7.4h-.964A4.764,4.764,0,0,1,18.682,6L18.1,5.418,17.518,6a4.764,4.764,0,0,1-3.391,1.4h-.964v5.2a4.926,4.926,0,0,0,2.2,4.107l.27.18v.563l-2.22.555a5.774,5.774,0,0,0-1.523.622,6.617,6.617,0,0,1-.371-2.18Zm5.026,7.3-.27-.18a3.284,3.284,0,0,1-1.465-2.738V9.015A6.376,6.376,0,0,0,18.1,7.68a6.376,6.376,0,0,0,3.291,1.334v3.593a3.284,3.284,0,0,1-1.465,2.738l-.27.18a1.642,1.642,0,0,0-.733,1.369v1.848l1.789.447A6.43,6.43,0,0,1,18.1,22.1a6.431,6.431,0,0,1-2.611-2.912l1.789-.447V16.895a1.642,1.642,0,0,0-.733-1.369ZM10.7,23.6a4.108,4.108,0,0,1,3.116-3.991l.061-.015a8.078,8.078,0,0,0,3.86,4.179l.368.184.368-.184a8.076,8.076,0,0,0,3.86-4.179l.061.015A4.108,4.108,0,0,1,25.5,23.6v2.728H23.859V23.037H22.214v3.291H13.986V23.037H12.341v3.291H10.7Zm-9.05,8.487a.576.576,0,0,1,.3-.5L7.4,28.548v7.076L1.941,32.59a.576.576,0,0,1-.3-.5Zm9.05,6.582v-.823h3.291v.823a.824.824,0,0,1-.823.823H11.518A.824.824,0,0,1,10.7,38.668Zm9.776,10.7-.714-5.709.785-3.142-1.6-.4-.667,2.668h-.41l-.635-1.906-1.561.52.764,2.291-.71,5.676H12.412l.686-8.227h.066a2.471,2.471,0,0,0,2.468-2.468v-.823h4.936v.823a2.471,2.471,0,0,0,2.468,2.468H23.1l.686,8.227Zm5.033-10.7a.824.824,0,0,1-.823.823H23.037a.824.824,0,0,1-.823-.823v-.823H25.5Zm0-2.468H9.05V34.555H31.32l-.047.652c-.007.095-.01.19-.01.284a4,4,0,0,0,.064.709Zm9.759,1.645a2.357,2.357,0,0,1-2.355-2.355c0-.056,0-.112.006-.168l.378-5.292a5.78,5.78,0,0,1,3.443-4.864,6.174,6.174,0,0,0,3.578,3.413V36.2H37.023V28.8H35.378v8.176l-.109.874Zm8.269,11.518-.47-5.17a4.093,4.093,0,0,0,1.364.233h.823V42.782h-.823a2.471,2.471,0,0,1-2.468-2.468v-.823H40.314v.823a2.471,2.471,0,0,1-2.468,2.468h-.823v1.645h.823a4.1,4.1,0,0,0,1.364-.233l-.47,5.17H35.487l1.44-11.518h8.42l1.44,11.518Zm3.476-11.518h0l-.109-.874V28.8H45.25v7.4H41.959V28.58a6.175,6.175,0,0,0,3.578-3.413,5.78,5.78,0,0,1,3.443,4.864l.378,5.292c0,.056.006.113.006.169a2.358,2.358,0,0,1-2.355,2.355Z" transform="translate(0)"/>
    </g>
  </g>
</svg>
