<svg xmlns="http://www.w3.org/2000/svg" xmlns:xlink="http://www.w3.org/1999/xlink" width="108" height="108" viewBox="0 0 108 108">
  <defs>
    <filter id="Trazado_904820" x="0" y="0" width="108" height="108" filterUnits="userSpaceOnUse">
      <feOffset dy="3" input="SourceAlpha"/>
      <feGaussianBlur stdDeviation="3" result="blur"/>
      <feFlood flood-opacity="0.161"/>
      <feComposite operator="in" in2="blur"/>
      <feComposite in="SourceGraphic"/>
    </filter>
  </defs>
  <g id="Grupo_1232222" data-name="Grupo 1232222" transform="translate(-200.94 -4960)">
    <g id="Grupo_1231661" data-name="Grupo 1231661" transform="translate(-418.537 4426)">
      <g id="Grupo_1229404" data-name="Grupo 1229404" transform="translate(0 61.321)">
        <g id="Grupo_1208347" data-name="Grupo 1208347" transform="translate(628.477 478.679)">
          <g id="Grupo_1207936" data-name="Grupo 1207936" transform="translate(0 0)">
            <g id="Grupo_1201662" data-name="Grupo 1201662">
              <g id="Grupo_1173585" data-name="Grupo 1173585">
                <g id="Grupo_1173428" data-name="Grupo 1173428">
                  <g id="Grupo_1171958" data-name="Grupo 1171958">
                    <g id="Grupo_1167341" data-name="Grupo 1167341">
                      <g id="Grupo_1166792" data-name="Grupo 1166792">
                        <g transform="matrix(1, 0, 0, 1, -9, -6)" filter="url(#Trazado_904820)">
                          <g id="Trazado_904820-2" data-name="Trazado 904820" transform="translate(9 6)" fill="#effbfe">
                            <path d="M 44.99999618530273 88.49999237060547 C 39.12687301635742 88.49999237060547 33.43022155761719 87.35006713867188 28.06829643249512 85.08216857910156 C 22.88852119445801 82.89130401611328 18.23629570007324 79.75457763671875 14.24084663391113 75.75914001464844 C 10.24540901184082 71.76369476318359 7.108683586120605 67.11146545410156 4.917821407318115 61.93169403076172 C 2.649921178817749 56.56976699829102 1.499996185302734 50.87311553955078 1.499996185302734 44.99999237060547 C 1.499996185302734 39.12686920166016 2.649921178817749 33.43021774291992 4.917821407318115 28.06829261779785 C 7.108683586120605 22.88851737976074 10.24540901184082 18.23630523681641 14.24084663391113 14.24085521697998 C 18.23629570007324 10.24540519714355 22.88852119445801 7.108692169189453 28.06829643249512 4.917829990386963 C 33.43022155761719 2.649929761886597 39.12687301635742 1.500004887580872 44.99999618530273 1.500004887580872 C 50.87311935424805 1.500004887580872 56.56977081298828 2.649929761886597 61.93169784545898 4.917829990386963 C 67.11147308349609 7.108692169189453 71.76369476318359 10.24540519714355 75.75914764404297 14.24085521697998 C 79.75458526611328 18.23630523681641 82.89131164550781 22.88851737976074 85.08216857910156 28.06829261779785 C 87.35007476806641 33.43021774291992 88.5 39.12686920166016 88.5 44.99999237060547 C 88.5 50.87311553955078 87.35007476806641 56.56976699829102 85.08216857910156 61.93169403076172 C 82.89131164550781 67.11146545410156 79.75458526611328 71.76369476318359 75.75914764404297 75.75914001464844 C 71.76369476318359 79.75457763671875 67.11147308349609 82.89130401611328 61.93169784545898 85.08216857910156 C 56.56977081298828 87.35006713867188 50.87311935424805 88.49999237060547 44.99999618530273 88.49999237060547 Z" stroke="none"/>
                            <path d="M 44.99999618530273 2.999992370605469 C 39.32870864868164 2.999992370605469 33.82865142822266 4.11004638671875 28.65262603759766 6.299331665039062 C 23.65165710449219 8.414566040039062 19.15968322753906 11.44333648681641 15.301513671875 15.30150604248047 C 11.44333648681641 19.15967559814453 8.414566040039062 23.65164947509766 6.299339294433594 28.65262222290039 C 4.110054016113281 33.82864761352539 2.999992370605469 39.32870483398438 2.999992370605469 44.99999237060547 C 2.999992370605469 50.67127990722656 4.110054016113281 56.17132186889648 6.299339294433594 61.34736633300781 C 8.414566040039062 66.34833526611328 11.44333648681641 70.84029388427734 15.301513671875 74.69846343994141 C 19.15968322753906 78.55663299560547 23.65165710449219 81.58540344238281 28.65262603759766 83.70063781738281 C 33.82865142822266 85.88992309570312 39.32870864868164 86.99997711181641 44.99999618530273 86.99997711181641 C 50.67128372192383 86.99997711181641 56.17134094238281 85.88992309570312 61.34736633300781 83.70063781738281 C 66.34834289550781 81.58540344238281 70.84030914306641 78.55663299560547 74.69847869873047 74.69846343994141 C 78.55665588378906 70.84029388427734 81.58542633056641 66.34833526611328 83.70065307617188 61.34736633300781 C 85.88993835449219 56.17132186889648 87 50.67127990722656 87 44.99999237060547 C 87 39.32870483398438 85.88993835449219 33.82864761352539 83.70065307617188 28.65262222290039 C 81.58542633056641 23.65164947509766 78.55665588378906 19.15967559814453 74.69847869873047 15.30150604248047 C 70.84030914306641 11.44333648681641 66.34834289550781 8.414566040039062 61.34736633300781 6.299331665039062 C 56.17134094238281 4.11004638671875 50.67128372192383 2.999992370605469 44.99999618530273 2.999992370605469 M 44.99999618530273 -7.62939453125e-06 C 69.85281372070312 -7.62939453125e-06 90 20.14717864990234 90 44.99999237060547 C 90 69.85279083251953 69.85281372070312 89.99997711181641 44.99999618530273 89.99997711181641 C 20.14717864990234 89.99997711181641 -7.62939453125e-06 69.85279083251953 -7.62939453125e-06 44.99999237060547 C -7.62939453125e-06 20.14717864990234 20.14717864990234 -7.62939453125e-06 44.99999618530273 -7.62939453125e-06 Z" stroke="none" fill="#497f88"/>
                          </g>
                        </g>
                      </g>
                    </g>
                  </g>
                </g>
              </g>
            </g>
          </g>
        </g>
      </g>
    </g>
    <g id="comunidad" transform="translate(225.522 4980.909)">
      <g id="Grupo_1232220" data-name="Grupo 1232220" transform="translate(3.21 1.068)">
        <path id="Trazado_1234837" data-name="Trazado 1234837" d="M227.861,204.333a4.1,4.1,0,1,0-8.2,0v2.05a4.1,4.1,0,0,0,8.2,0v-2.05Z" transform="translate(-197.553 -179.97)" fill="#bb6b57" fill-rule="evenodd"/>
        <path id="Trazado_1234838" data-name="Trazado 1234838" d="M201.02,283.625a4.085,4.085,0,0,1-6.1,0,7.2,7.2,0,0,0-4.127,6.49v12.73h14.35v-12.73A7.2,7.2,0,0,0,201.02,283.625Z" transform="translate(-171.764 -254.478)" fill="#ff5a58" fill-rule="evenodd"/>
        <path id="Trazado_1234839" data-name="Trazado 1234839" d="M108.759,204.333a4.1,4.1,0,1,0-8.2,0v2.05a4.1,4.1,0,0,0,8.2,0v-2.05Z" transform="translate(-91.14 -179.97)" fill="#cc9081" fill-rule="evenodd"/>
        <path id="Trazado_1234840" data-name="Trazado 1234840" d="M81.918,283.625a4.085,4.085,0,0,1-6.1,0,7.2,7.2,0,0,0-4.127,6.49v12.73h14.35v-12.73A7.2,7.2,0,0,0,81.918,283.625Z" transform="translate(-65.351 -254.478)" fill="#66e0f7" fill-rule="evenodd"/>
        <path id="Trazado_1234841" data-name="Trazado 1234841" d="M346.963,204.333a4.1,4.1,0,1,0-8.2,0v2.05a4.1,4.1,0,0,0,8.2,0v-2.05Z" transform="translate(-303.967 -179.97)" fill="#cc9081" fill-rule="evenodd"/>
        <path id="Trazado_1234842" data-name="Trazado 1234842" d="M320.121,283.625a4.085,4.085,0,0,1-6.1,0,7.2,7.2,0,0,0-4.127,6.49v12.73h14.35v-12.73A7.2,7.2,0,0,0,320.121,283.625Z" transform="translate(-278.177 -254.478)" fill="#ff9346" fill-rule="evenodd"/>
        <path id="Trazado_1234843" data-name="Trazado 1234843" d="M178.1,11.41a4.783,4.783,0,0,0-6.729,0c-5.028,5.012,4.651,13.77,7.975,14.658,3.324-.888,13-9.646,7.975-14.658a4.783,4.783,0,0,0-6.729,0A1.739,1.739,0,0,1,178.1,11.41Z" transform="translate(-153.139 -10.027)" fill="#ff5a58" fill-rule="evenodd"/>
        <path id="Trazado_1234844" data-name="Trazado 1234844" d="M49.209,341.866a4.1,4.1,0,0,0-8.2,0v2.05a4.1,4.1,0,0,0,8.2,0v-2.05Z" transform="translate(-37.934 -302.851)" fill="#bb6b57" fill-rule="evenodd"/>
        <path id="Trazado_1234845" data-name="Trazado 1234845" d="M22.367,421.158a4.085,4.085,0,0,1-6.1,0,7.2,7.2,0,0,0-4.127,6.491v2.579h14.35v-2.579A7.2,7.2,0,0,0,22.367,421.158Z" transform="translate(-12.144 -377.359)" fill="#ffc144" fill-rule="evenodd"/>
        <path id="Trazado_1234846" data-name="Trazado 1234846" d="M168.31,341.866a4.1,4.1,0,0,0-8.2,0v2.05a4.1,4.1,0,0,0,8.2,0Z" transform="translate(-144.347 -302.851)" fill="#e5ae8c" fill-rule="evenodd"/>
        <path id="Trazado_1234847" data-name="Trazado 1234847" d="M141.47,421.158a4.085,4.085,0,0,1-6.1,0,7.2,7.2,0,0,0-4.127,6.491v2.579H145.6v-2.579A7.2,7.2,0,0,0,141.47,421.158Z" transform="translate(-118.559 -377.359)" fill="#8481e2" fill-rule="evenodd"/>
        <path id="Trazado_1234848" data-name="Trazado 1234848" d="M287.412,341.866a4.1,4.1,0,0,0-8.2,0v2.05a4.1,4.1,0,0,0,8.2,0v-2.05Z" transform="translate(-250.76 -302.851)" fill="#cc9081" fill-rule="evenodd"/>
        <path id="Trazado_1234849" data-name="Trazado 1234849" d="M260.571,421.158a4.085,4.085,0,0,1-6.1,0,7.2,7.2,0,0,0-4.127,6.491v2.579H264.7v-2.579A7.2,7.2,0,0,0,260.571,421.158Z" transform="translate(-224.971 -377.359)" fill="#fff" fill-rule="evenodd"/>
        <path id="Trazado_1234850" data-name="Trazado 1234850" d="M406.514,341.866a4.1,4.1,0,0,0-8.2,0v2.05a4.1,4.1,0,0,0,8.2,0Z" transform="translate(-357.174 -302.851)" fill="#e5ae8c" fill-rule="evenodd"/>
        <path id="Trazado_1234851" data-name="Trazado 1234851" d="M379.673,421.158a4.085,4.085,0,0,1-6.1,0,7.2,7.2,0,0,0-4.127,6.491v2.579H383.8v-2.579A7.2,7.2,0,0,0,379.673,421.158Z" transform="translate(-331.385 -377.359)" fill="#cbe558" fill-rule="evenodd"/>
      </g>
      <g id="Grupo_1232221" data-name="Grupo 1232221" transform="translate(2.145 -0.001)">
        <path id="Trazado_1234852" data-name="Trazado 1234852" d="M53.031,214.484a5.131,5.131,0,0,0,.585-2.383v-2.05a5.174,5.174,0,0,0-3.4-4.856,8.2,8.2,0,0,0-3.525-5.364,5.132,5.132,0,0,0,.584-2.382V195.4a5.165,5.165,0,1,0-10.33,0v2.05a5.132,5.132,0,0,0,.584,2.382,8.272,8.272,0,0,0-1.767,1.592A8.25,8.25,0,0,0,34,199.833a5.132,5.132,0,0,0,.585-2.384V195.4a5.165,5.165,0,1,0-10.33,0v2.05a5.131,5.131,0,0,0,.585,2.384,8.249,8.249,0,0,0-1.769,1.6,8.332,8.332,0,0,0-1.759-1.6,5.132,5.132,0,0,0,.586-2.384V195.4a5.165,5.165,0,0,0-10.33,0v2.05a5.132,5.132,0,0,0,.584,2.382A8.206,8.206,0,0,0,8.623,205.2a5.174,5.174,0,0,0-3.4,4.855v2.05a5.132,5.132,0,0,0,.585,2.383,8.193,8.193,0,0,0-3.66,6.842V223.9A1.065,1.065,0,0,0,3.21,224.97H55.625A1.065,1.065,0,0,0,56.69,223.9v-2.579a8.193,8.193,0,0,0-3.66-6.842Zm-1.546-4.433v2.05a3.035,3.035,0,0,1-6.069,0v-2.05a3.035,3.035,0,0,1,6.069,0Zm-3.533-5.141a5.172,5.172,0,0,0-4.667,5.141v2.05a5.132,5.132,0,0,0,.585,2.384,8.264,8.264,0,0,0-1.759,1.589,8.276,8.276,0,0,0-1.769-1.591,5.132,5.132,0,0,0,.585-2.383v-2.05a5.172,5.172,0,0,0-4.666-5.141,6.22,6.22,0,0,1,2.63-3.423,5.15,5.15,0,0,0,6.43,0A6.217,6.217,0,0,1,47.952,204.91ZM32.727,212.1v-2.05a3.035,3.035,0,0,1,6.069,0v2.05a3.035,3.035,0,0,1-6.069,0Zm6.344-16.7a3.035,3.035,0,0,1,6.069,0v2.05a3.035,3.035,0,1,1-6.069,0Zm-12.688,0a3.035,3.035,0,0,1,6.069,0v2.05a3.035,3.035,0,0,1-6.069,0V195.4Zm-.181,6.088a5.149,5.149,0,0,0,6.43,0,6.143,6.143,0,0,1,1.921,1.891A8.214,8.214,0,0,0,34,205.2a5.174,5.174,0,0,0-3.4,4.855v2.05a5.131,5.131,0,0,0,.585,2.383,8.272,8.272,0,0,0-1.769,1.589,8.248,8.248,0,0,0-1.759-1.588,5.131,5.131,0,0,0,.585-2.384v-2.05a5.174,5.174,0,0,0-3.4-4.856,8.156,8.156,0,0,0-.558-1.806A6.142,6.142,0,0,1,26.2,201.487ZM20.039,212.1v-2.05a3.035,3.035,0,0,1,6.069,0v2.05a3.035,3.035,0,0,1-6.069,0Zm-6.344-16.7a3.035,3.035,0,0,1,6.069,0v2.05a3.035,3.035,0,0,1-6.069,0Zm-.181,6.088a5.149,5.149,0,0,0,6.43,0,6.215,6.215,0,0,1,2.63,3.423,5.172,5.172,0,0,0-4.667,5.141v2.05a5.132,5.132,0,0,0,.585,2.383,8.276,8.276,0,0,0-1.768,1.589,8.241,8.241,0,0,0-1.759-1.588,5.132,5.132,0,0,0,.585-2.384v-2.05a5.172,5.172,0,0,0-4.666-5.141A6.221,6.221,0,0,1,13.514,201.487Zm-6.163,8.564a3.035,3.035,0,0,1,6.069,0v2.05a3.035,3.035,0,0,1-6.069,0ZM4.276,221.326a6.079,6.079,0,0,1,2.894-5.187,5.149,5.149,0,0,0,6.431,0,6.136,6.136,0,0,1,1.919,1.888,8.228,8.228,0,0,0-.686,3.3v1.514H4.276Zm12.688,0a6.079,6.079,0,0,1,2.894-5.187,5.149,5.149,0,0,0,6.431,0,6.141,6.141,0,0,1,1.919,1.889,8.228,8.228,0,0,0-.686,3.3v1.514H16.964v-1.514Zm12.688,0a6.079,6.079,0,0,1,2.894-5.187,5.149,5.149,0,0,0,6.431,0,6.081,6.081,0,0,1,2.894,5.187v1.514H29.652Zm24.907,1.514H44v-1.514a8.227,8.227,0,0,0-.686-3.3,6.152,6.152,0,0,1,1.919-1.889,5.149,5.149,0,0,0,6.431,0,6.079,6.079,0,0,1,2.894,5.187v1.514Z" transform="translate(-2.145 -169.968)"/>
        <path id="Trazado_1234853" data-name="Trazado 1234853" d="M161.8,9.056a1.065,1.065,0,0,0,.64-1.364,3.929,3.929,0,0,1,.74-4.487,3.707,3.707,0,0,1,5.225,0,2.8,2.8,0,0,0,4,0,3.707,3.707,0,0,1,5.225,0,3.749,3.749,0,0,1,.921,3.916c-1.067,3.99-6.019,8.065-8.144,8.868a10.7,10.7,0,0,1-2.341-1.4,1.065,1.065,0,1,0-1.28,1.7,10.883,10.883,0,0,0,3.346,1.849,1.065,1.065,0,0,0,.55,0,15.23,15.23,0,0,0,5.5-3.7c1.321-1.282,3.652-3.867,4.428-6.769A5.871,5.871,0,0,0,170.9,1.7a.678.678,0,0,1-.988,0,5.842,5.842,0,0,0-8.233,0,6.02,6.02,0,0,0-1.24,6.719,1.066,1.066,0,0,0,1.364.64Z" transform="translate(-143.133 0.001)"/>
        <path id="Trazado_1234854" data-name="Trazado 1234854" d="M188.528,104a1.065,1.065,0,1,0,1.066,1.065A1.065,1.065,0,0,0,188.528,104Z" transform="translate(-167.72 -92.925)"/>
      </g>
    </g>
  </g>
</svg>
