<svg xmlns="http://www.w3.org/2000/svg" xmlns:xlink="http://www.w3.org/1999/xlink" width="98" height="98" viewBox="0 0 98 98">
  <defs>
    <filter id="Trazado_982547" x="0" y="0" width="98" height="98" filterUnits="userSpaceOnUse">
      <feOffset dy="3" input="SourceAlpha"/>
      <feGaussianBlur stdDeviation="3" result="blur"/>
      <feFlood flood-opacity="0.161"/>
      <feComposite operator="in" in2="blur"/>
      <feComposite in="SourceGraphic"/>
    </filter>
    <clipPath id="clip-path">
      <path id="path8121" d="M0-682.665H48.414v48.414H0Z" transform="translate(0 682.665)"/>
    </clipPath>
  </defs>
  <g id="Grupo_1232152" data-name="Grupo 1232152" transform="translate(-1025.151 -3322)">
    <g id="Grupo_1231549" data-name="Grupo 1231549" transform="translate(830 1030)">
      <g id="Grupo_1229590" data-name="Grupo 1229590" transform="translate(204.151 2298)">
        <g id="Grupo_1208936" data-name="Grupo 1208936" transform="translate(0)">
          <g id="Grupo_1208171" data-name="Grupo 1208171">
            <g id="Grupo_1207739" data-name="Grupo 1207739">
              <g id="Grupo_1207712" data-name="Grupo 1207712">
                <g id="Grupo_1207285" data-name="Grupo 1207285">
                  <g id="Grupo_1206883" data-name="Grupo 1206883">
                    <g id="Grupo_1204569" data-name="Grupo 1204569">
                      <g id="Grupo_1203962" data-name="Grupo 1203962">
                        <g id="Grupo_1203498" data-name="Grupo 1203498">
                          <g id="Grupo_1202589" data-name="Grupo 1202589">
                            <g id="Grupo_1172010" data-name="Grupo 1172010">
                              <g id="Grupo_1171046" data-name="Grupo 1171046">
                                <g id="Grupo_1148525" data-name="Grupo 1148525">
                                  <g transform="matrix(1, 0, 0, 1, -9, -6)" filter="url(#Trazado_982547)">
                                    <g id="Trazado_982547-2" data-name="Trazado 982547" transform="translate(9 6)" fill="#fdfbec">
                                      <path d="M 39.99999237060547 78.49998474121094 C 34.8018684387207 78.49998474121094 29.76002502441406 77.48226165771484 25.0145263671875 75.47508239746094 C 20.43014717102051 73.53604888916016 16.31264877319336 70.75984954833984 12.77639198303223 67.22359466552734 C 9.240137100219727 63.68733596801758 6.463936805725098 59.5698356628418 4.524903297424316 54.98546981811523 C 2.517725706100464 50.23995971679688 1.500003457069397 45.19811630249023 1.500003457069397 39.99999237060547 C 1.500003457069397 34.8018684387207 2.517725706100464 29.76002502441406 4.524903297424316 25.0145263671875 C 6.463936805725098 20.43014717102051 9.240137100219727 16.31264877319336 12.77639198303223 12.77639198303223 C 16.31264877319336 9.240137100219727 20.43014717102051 6.463936805725098 25.0145263671875 4.524903297424316 C 29.76002502441406 2.517725706100464 34.8018684387207 1.500003457069397 39.99999237060547 1.500003457069397 C 45.19811630249023 1.500003457069397 50.23995971679688 2.517725706100464 54.98546981811523 4.524903297424316 C 59.5698356628418 6.463936805725098 63.68733596801758 9.240137100219727 67.22359466552734 12.77639198303223 C 70.75984954833984 16.31264877319336 73.53604888916016 20.43014717102051 75.47508239746094 25.0145263671875 C 77.48226165771484 29.76002502441406 78.49998474121094 34.8018684387207 78.49998474121094 39.99999237060547 C 78.49998474121094 45.19812393188477 77.48226165771484 50.23995971679688 75.47508239746094 54.98546981811523 C 73.53604888916016 59.5698356628418 70.75984954833984 63.68733596801758 67.22359466552734 67.22359466552734 C 63.68733596801758 70.75984954833984 59.5698356628418 73.53604888916016 54.98546981811523 75.47508239746094 C 50.23995971679688 77.48226165771484 45.19812393188477 78.49998474121094 39.99999237060547 78.49998474121094 Z" stroke="none"/>
                                      <path d="M 39.99999237060547 2.999992370605469 C 35.00370025634766 2.999992370605469 30.1584587097168 3.97784423828125 25.59884643554688 5.906402587890625 C 21.19327163696289 7.769805908203125 17.23603057861328 10.43805694580078 13.83704376220703 13.83704376220703 C 10.43805694580078 17.23603057861328 7.769805908203125 21.19327163696289 5.906402587890625 25.59884643554688 C 3.97784423828125 30.1584587097168 2.999992370605469 35.00370025634766 2.999992370605469 39.99999237060547 C 2.999992370605469 44.99628448486328 3.97784423828125 49.84152603149414 5.906402587890625 54.40113830566406 C 7.769805908203125 58.80671310424805 10.43805694580078 62.76395416259766 13.83704376220703 66.16294097900391 C 17.23603057861328 69.56191253662109 21.19327163696289 72.23016357421875 25.59884643554688 74.09356689453125 C 30.1584587097168 76.02212524414062 35.00370025634766 76.99997711181641 39.99999237060547 76.99997711181641 C 44.99628448486328 76.99997711181641 49.84152603149414 76.02212524414062 54.40113830566406 74.09356689453125 C 58.80671310424805 72.23016357421875 62.76395416259766 69.56191253662109 66.16294097900391 66.16294097900391 C 69.56191253662109 62.76395416259766 72.23016357421875 58.80671310424805 74.09356689453125 54.40113830566406 C 76.02212524414062 49.84152603149414 76.99997711181641 44.99628448486328 76.99997711181641 39.99999237060547 C 76.99997711181641 35.00370025634766 76.02212524414062 30.1584587097168 74.09356689453125 25.59884643554688 C 72.23016357421875 21.19327163696289 69.56191253662109 17.23603057861328 66.16294097900391 13.83704376220703 C 62.76395416259766 10.43805694580078 58.80671310424805 7.769805908203125 54.40113830566406 5.906402587890625 C 49.84152603149414 3.97784423828125 44.99628448486328 2.999992370605469 39.99999237060547 2.999992370605469 M 39.99999237060547 -7.62939453125e-06 C 62.09137725830078 -7.62939453125e-06 79.99997711181641 17.90860748291016 79.99997711181641 39.99999237060547 C 79.99997711181641 62.09137725830078 62.09137725830078 79.99997711181641 39.99999237060547 79.99997711181641 C 17.90860748291016 79.99997711181641 -7.62939453125e-06 62.09137725830078 -7.62939453125e-06 39.99999237060547 C -7.62939453125e-06 17.90860748291016 17.90860748291016 -7.62939453125e-06 39.99999237060547 -7.62939453125e-06 Z" stroke="none" fill="#83793c"/>
                                    </g>
                                  </g>
                                </g>
                              </g>
                            </g>
                          </g>
                        </g>
                      </g>
                    </g>
                  </g>
                </g>
                <g id="g8115" transform="translate(15.793 15.793)">
                  <g id="g8117">
                    <g id="g8119" clip-path="url(#clip-path)">
                      <g id="g8125" transform="translate(-33.259 0.709)">
                        <path id="path8127" d="M-338.457-377.826h-25.835v-25.108c5.31-7.679,37.755-5.416,25.835,25.108" transform="translate(364.292 406.667)" fill="#fbdf63"/>
                      </g>
                      <g id="g8129" transform="translate(-33.259 0.709)">
                        <path id="path8131" d="M-338.457-377.826h-.619c6.164-24.728-15.887-30.6-25.216-24.374v-.734c5.31-7.679,37.755-5.416,25.835,25.108" transform="translate(364.292 406.667)" fill="#f9d11f"/>
                      </g>
                    </g>
                  </g>
                  <g id="g8265">
                    <g id="g8267" clip-path="url(#clip-path)">
                      <g id="g8273" transform="translate(-33.259 51.036)">
                        <path id="path8275" d="M-338.457-377.654h-25.835v-25.1c5.31-7.676,37.755-5.413,25.835,25.1" transform="translate(364.292 406.481)" fill="#003343"/>
                      </g>
                      <g id="g8277" transform="translate(-33.259 51.036)">
                        <path id="path8279" d="M-338.457-377.654h-.619c6.164-24.717-15.887-30.585-25.216-24.362v-.734c5.31-7.676,37.755-5.413,25.835,25.1" transform="translate(364.292 406.481)" fill="#002439"/>
                      </g>
                    </g>
                  </g>
                  <g id="g8281">
                    <g id="g8283" clip-path="url(#clip-path)">
                      <g id="g8289" transform="translate(17.066 51.014)">
                        <path id="path8291" d="M-338.457-377.826h-25.835v-25.108c5.31-7.679,37.755-5.416,25.835,25.108" transform="translate(364.292 406.667)" fill="#ff7e50"/>
                      </g>
                      <g id="g8293" transform="translate(17.066 51.014)">
                        <path id="path8295" d="M-338.457-377.826h-.619c6.164-24.728-15.887-30.6-25.216-24.374v-.734c5.31-7.679,37.755-5.416,25.835,25.108" transform="translate(364.292 406.667)" fill="#ff6247"/>
                      </g>
                      <g id="g8297" transform="translate(2.941 54.225)">
                        <path id="path8299" d="M-233.028-131.751v15.573h-14.6c-12.2-25.649,14.6-34.273,14.6-15.573" transform="translate(250.816 141.808)" fill="#ffa68a"/>
                      </g>
                      <g id="g8301" transform="translate(2.941 54.225)">
                        <path id="path8303" d="M-233.028-131.751c-.9-16.1-20.23-9.82-14.176,15.573h-.427c-12.2-25.649,14.6-34.273,14.6-15.573" transform="translate(250.816 141.808)" fill="#ff7e50"/>
                      </g>
                    </g>
                  </g>
                </g>
              </g>
            </g>
          </g>
        </g>
      </g>
    </g>
    <g id="Filled_outline" data-name="Filled outline" transform="translate(1030.923 3323)">
      <path id="Trazado_1234620" data-name="Trazado 1234620" d="M173.329,52.168l-.3,2.694-.2,1.815H147.415l-.2-1.815-.3-2.694a13.965,13.965,0,0,1,1.044-7.042,13.978,13.978,0,0,0,1.112-6.2l-.158-3.14a11.224,11.224,0,1,1,22.42,0l-.158,3.14a13.978,13.978,0,0,0,1.112,6.2,13.958,13.958,0,0,1,1.044,7.042Z" transform="translate(-115.986 -7.097)" fill="#8f4d2e"/>
      <path id="Trazado_1234621" data-name="Trazado 1234621" d="M255.275,52.163l-.3,2.694H244.79V44.874l1.815-3.63V33.983a9.993,9.993,0,0,0-7.345-9.631,11.236,11.236,0,0,1,14.017,11.431l-.158,3.14a13.978,13.978,0,0,0,1.112,6.2A13.957,13.957,0,0,1,255.275,52.163Z" transform="translate(-197.931 -7.091)" fill="#82462a"/>
      <path id="Trazado_1234622" data-name="Trazado 1234622" d="M219.254,223.261a1.27,1.27,0,0,1-1.271-1.271V216h-7.261v5.99a1.27,1.27,0,0,1-1.271,1.271H208v5.446h12.706v-5.446Z" transform="translate(-170.218 -177.31)" fill="#fec9a3"/>
      <path id="Trazado_1234623" data-name="Trazado 1234623" d="M236.178,220.538a4.98,4.98,0,0,0,3.083-1.113V216H232v3.425a4.98,4.98,0,0,0,3.083,1.113Z" transform="translate(-191.495 -177.31)" fill="#feb784"/>
      <path id="Trazado_1234624" data-name="Trazado 1234624" d="M208.337,85.446v4.538a8.168,8.168,0,0,1-16.337,0V85.446a12.313,12.313,0,0,0,4.186-4.742l.352-.7.515.43a22.661,22.661,0,0,0,11.284,5.016Z" transform="translate(-156.033 -56.739)" fill="#fec9a3"/>
      <path id="Trazado_1234625" data-name="Trazado 1234625" d="M284.363,121.519v4.538a8.172,8.172,0,0,1-6.608,8.019,9.948,9.948,0,0,0,2.977-7.112V120.69A22.636,22.636,0,0,0,284.363,121.519Z" transform="translate(-232.059 -92.813)" fill="#fec093"/>
      <path id="Trazado_1234626" data-name="Trazado 1234626" d="M224,312h9.076v6.353H224Z" transform="translate(-184.403 -262.419)" fill="#e0e0de"/>
      <path id="Trazado_1234627" data-name="Trazado 1234627" d="M119.306,303.56a2.755,2.755,0,0,1-3.06-1.828l-5.995-11.246a7.068,7.068,0,0,1-1.266,6.758v7.261H92.649v-7.261A7.079,7.079,0,0,1,91.4,290.4L85.3,301.732A2.754,2.754,0,1,1,80.075,300l6.664-16.587A5.444,5.444,0,0,1,91.793,280h3.579l5.446,9.984L106.263,280h3.566a5.45,5.45,0,0,1,5.06,3.434L121.477,300a2.755,2.755,0,0,1-2.17,3.557Z" transform="translate(-56.682 -234.049)" fill="#ec8c8c"/>
      <path id="Trazado_1234628" data-name="Trazado 1234628" d="M74.16,392.51l.655-8.51H80.26v8.744a3.055,3.055,0,1,1-6.1-.234Z" transform="translate(-51.553 -326.25)" fill="#f59898"/>
      <path id="Trazado_1234629" data-name="Trazado 1234629" d="M32.488,266.886a1.766,1.766,0,0,0-1.151,2.5l.831,1.661H28.916a5.445,5.445,0,0,1-2.435-.575l-.9-.452A1.089,1.089,0,0,0,24,271v2.561a1.815,1.815,0,0,0,1,1.624l1.477.739a5.445,5.445,0,0,0,2.435.575H35.8v-5.446l-1.243-3.107A1.766,1.766,0,0,0,32.488,266.886Z" transform="translate(-7.092 -222.376)" fill="#fec9a3"/>
      <path id="Trazado_1234630" data-name="Trazado 1234630" d="M80,352h5.446v3.63H80Z" transform="translate(-56.739 -297.881)" fill="#e0e0de"/>
      <path id="Trazado_1234631" data-name="Trazado 1234631" d="M220.989,307.319a2.755,2.755,0,0,1-3.06-1.828l-5.995-11.246A7.068,7.068,0,0,1,210.668,301v7.261H194.63c7.491-4.892,13.811-11.1,19.116-24.024a5.437,5.437,0,0,1,2.825,2.953l6.588,16.569a2.755,2.755,0,0,1-2.17,3.557Z" transform="translate(-158.365 -237.808)" fill="#e07f7f"/>
      <path id="Trazado_1234632" data-name="Trazado 1234632" d="M305.076,350.522,296,348.706V336l9.076,1.815Z" transform="translate(-248.234 -283.696)" fill="#a36548"/>
      <path id="Trazado_1234633" data-name="Trazado 1234633" d="M408,350.522l9.076-1.815V336L408,337.815Z" transform="translate(-347.528 -283.696)" fill="#8f4d2e"/>
      <path id="Trazado_1234634" data-name="Trazado 1234634" d="M376,352h3.63v12.706H376Z" transform="translate(-319.158 -297.881)" fill="#95573a"/>
      <path id="Trazado_1234635" data-name="Trazado 1234635" d="M306.891,316.538a3.214,3.214,0,0,0-2.686-3.17L296,312v2.723l9.076,1.815h1.815a3.214,3.214,0,0,1,2.686-3.17L317.782,312v2.723l-9.076,1.815Z" transform="translate(-248.234 -262.419)" fill="#d4bd81"/>
      <path id="Trazado_1234636" data-name="Trazado 1234636" d="M436.687,421.361l-3.63.605a.908.908,0,0,1-1.057-.9V417.7a1.181,1.181,0,0,1,.987-1.165l3.083-.514a1.181,1.181,0,0,1,1.376,1.165v3.282A.908.908,0,0,1,436.687,421.361Z" transform="translate(-368.805 -354.622)" fill="#fec9a3"/>
      <path id="Trazado_1234637" data-name="Trazado 1234637" d="M217.361,136a1.361,1.361,0,1,0,1.361,1.361A1.361,1.361,0,0,0,217.361,136Z" transform="translate(-177.31 -106.386)"/>
      <path id="Trazado_1234638" data-name="Trazado 1234638" d="M289.361,136a1.361,1.361,0,1,0,1.361,1.361A1.361,1.361,0,0,0,289.361,136Z" transform="translate(-241.142 -106.386)"/>
      <path id="Trazado_1234639" data-name="Trazado 1234639" d="M242.723,176.908a.909.909,0,0,1-.908-.908H240a2.723,2.723,0,1,0,5.446,0H243.63A.909.909,0,0,1,242.723,176.908Z" transform="translate(-198.587 -141.848)"/>
      <path id="Trazado_1234640" data-name="Trazado 1234640" d="M70.135,48.889a.909.909,0,0,0-.736-.2l-8.205,1.368a4.13,4.13,0,0,0-1.52.576l-.625-1.579a6.045,6.045,0,0,0-1.041-1.739l.237-2.146a15.722,15.722,0,0,0,.1-1.647,14.812,14.812,0,0,0-1.208-5.848,13.109,13.109,0,0,1-1.035-5.8l.154-3.142c.009-.2.019-.4.019-.606a12.132,12.132,0,1,0-24.249.607l.154,3.131c.009.234.017.455.017.673a12.938,12.938,0,0,1-1.052,5.133,14.831,14.831,0,0,0-1.112,7.5l.236,2.117a6.162,6.162,0,0,0-.719,1.039l-1.239-3.1a2.673,2.673,0,1,0-4.873,2.188l.174.347H21.823a4.561,4.561,0,0,1-2.029-.479l-.9-.452A2,2,0,0,0,16,48.621v2.561a2.708,2.708,0,0,0,1.505,2.435l1.477.739a6.385,6.385,0,0,0,2.841.671h.53v2.688L21.7,66.19a3.962,3.962,0,0,0,3.951,4.266q.1,0,.2-.005c.058,0,.116,0,.173,0a3.653,3.653,0,0,0,3.432-2.4l4.143-7.7a7.939,7.939,0,0,0,1.459,3.16v6.943h1.815V63.2a.908.908,0,0,0-.21-.581,6.188,6.188,0,0,1,.791-8.705l-1.162-1.395a8,8,0,0,0-1.128,1.151.933.933,0,0,0-.094.113h0l-.016.028-.011.02a7.947,7.947,0,0,0-1.18,2.206l-4.249,7.9V52.906l1.29-3.211a4.35,4.35,0,0,1,.955-1.465,4.593,4.593,0,0,1,3.255-1.371h3.037l5.188,9.511a.908.908,0,0,0,1.594,0l1.926-3.531V65.01a.908.908,0,0,0,.73.89l3.808.762v3.794h1.815V67.025l3.472.694c.023,0,.128.015.158.015h1.717l.174.325a3.677,3.677,0,0,0,3.445,2.4,3.417,3.417,0,0,0,.6-.049,3.678,3.678,0,0,0,2.841-2.37l2.414-.4a1.808,1.808,0,0,0,1.513-1.7l.182-.036a.908.908,0,0,0,.73-.89V49.581a.908.908,0,0,0-.321-.692ZM40.116,46.671a2.18,2.18,0,0,0,1.3-1.99V41.9a9.08,9.08,0,0,0,5.446,0V44.68a2.18,2.18,0,0,0,1.3,1.99l-1.092,2H41.208Zm4.019-6.165a7.269,7.269,0,0,1-7.261-7.261V29.181a13.259,13.259,0,0,0,3.928-4.5A23.509,23.509,0,0,0,51.4,29.48v3.764a7.269,7.269,0,0,1-7.261,7.261ZM56.4,48.245l.017.017a4.206,4.206,0,0,1,.942,1.453l.39.984a4.128,4.128,0,0,0-1.629-.647l-7.1-1.183,1.1-2.012h3.028A4.5,4.5,0,0,1,56.4,48.245Zm.531,4.966-4.13-.826-4.13-.826v-.908l7.149,1.191a2.3,2.3,0,0,1,1.744,1.368Zm4.561-1.368,7.148-1.192v.908l-4.269.854-3.989.8h-.634a2.3,2.3,0,0,1,1.743-1.368Zm-41.7.888-1.477-.739a.9.9,0,0,1-.5-.812V48.621a.181.181,0,0,1,.263-.162l.9.452a6.385,6.385,0,0,0,2.841.671h3.252a.908.908,0,0,0,.812-1.314l-.831-1.662a.858.858,0,1,1,1.564-.7L27.8,48.848v4.363H21.823a4.561,4.561,0,0,1-2.029-.479Zm8,2.294v1.815h-3.63V55.027Zm-4.288,11.3.59-7.672h3.7v7.837a2.148,2.148,0,0,1-1.992,2.139.928.928,0,0,0-.1.005l-.053,0a2.147,2.147,0,0,1-2.141-2.312ZM35.074,53.78q.027-.036.058-.07l-.055.072ZM31.936,45.9l-.1-.933a13.013,13.013,0,0,1,.976-6.582,14.743,14.743,0,0,0,1.2-5.849c0-.254-.01-.5-.019-.753l-.154-3.141a10.317,10.317,0,1,1,20.622-.518c0,.16-.008.335-.017.518l-.154,3.138a14.931,14.931,0,0,0,1.179,6.6,13.008,13.008,0,0,1,1.062,5.135,13.9,13.9,0,0,1-.085,1.452l-.1.935a6.348,6.348,0,0,0-3.188-.863H49.036a.368.368,0,0,1-.363-.363V41.1a9.079,9.079,0,0,0,4.538-7.855V28.706a.908.908,0,0,0-.779-.9A21.7,21.7,0,0,1,41.6,22.993l-.515-.43a.908.908,0,0,0-1.393.291l-.352.7a11.434,11.434,0,0,1-3.878,4.393.908.908,0,0,0-.4.755v4.538A9.079,9.079,0,0,0,39.6,41.1V44.68a.368.368,0,0,1-.363.363h-4.12a6.394,6.394,0,0,0-3.178.857Zm12.2,8.138L42.2,50.489h3.873Zm4.538-.628,7.261,1.452V65.718l-7.261-1.452Zm9.076,1.616h1.815V65.918H57.749Zm4.716,13.591a1.621,1.621,0,0,1-.287.023,1.859,1.859,0,0,1-1.6-.915l.051-.008.02,0h.008l1.866-.373a1.791,1.791,0,0,0,.914.8A1.892,1.892,0,0,1,62.465,68.618Zm5.268-2.774-3.63.605V63.075a.273.273,0,0,1,.229-.27l3.083-.514a.3.3,0,0,1,.047,0,.274.274,0,0,1,.272.274v3.282ZM67.116,60.5l-3.083.514a2.083,2.083,0,0,0-1.746,2.061v2.462l-.908.182V54.863l7.261-1.452V60.84a2.083,2.083,0,0,0-1.525-.339Z" transform="translate(0 0)"/>
    </g>
  </g>
</svg>
