<svg xmlns="http://www.w3.org/2000/svg" xmlns:xlink="http://www.w3.org/1999/xlink" width="400" height="302" viewBox="0 0 400 302">
  <defs>
    <clipPath id="clip-path">
      <rect id="Rectángulo_423968" data-name="Rectángulo 423968" width="400" height="302" transform="translate(1020 5688)" fill="#fff" stroke="#707070" stroke-width="1"/>
    </clipPath>
    <clipPath id="clip-path-2">
      <rect id="Rectángulo_423988" data-name="Rectángulo 423988" width="306.52" height="279.625" fill="none"/>
    </clipPath>
    <clipPath id="clip-path-3">
      <rect id="Rectángulo_423987" data-name="Rectángulo 423987" width="306.52" height="264.37" fill="none"/>
    </clipPath>
    <clipPath id="clip-path-4">
      <rect id="Rectángulo_423969" data-name="Rectángulo 423969" width="118.676" height="128.736" fill="none"/>
    </clipPath>
    <clipPath id="clip-path-5">
      <rect id="Rectángulo_423970" data-name="Rectángulo 423970" width="23.701" height="26.047" fill="none"/>
    </clipPath>
    <clipPath id="clip-path-6">
      <rect id="Rectángulo_423971" data-name="Rectángulo 423971" width="13.007" height="27.688" fill="none"/>
    </clipPath>
    <clipPath id="clip-path-7">
      <rect id="Rectángulo_423972" data-name="Rectángulo 423972" width="18.273" height="40.157" fill="none"/>
    </clipPath>
    <clipPath id="clip-path-8">
      <rect id="Rectángulo_423973" data-name="Rectángulo 423973" width="92.065" height="46.941" fill="none"/>
    </clipPath>
    <clipPath id="clip-path-9">
      <rect id="Rectángulo_423974" data-name="Rectángulo 423974" width="35.967" height="46.815" fill="none"/>
    </clipPath>
    <clipPath id="clip-path-10">
      <rect id="Rectángulo_423975" data-name="Rectángulo 423975" width="17.644" height="31.048" fill="none"/>
    </clipPath>
    <clipPath id="clip-path-11">
      <rect id="Rectángulo_423976" data-name="Rectángulo 423976" width="23.771" height="9.21" fill="none"/>
    </clipPath>
    <clipPath id="clip-path-12">
      <rect id="Rectángulo_423977" data-name="Rectángulo 423977" width="95.078" height="30.471" fill="none"/>
    </clipPath>
    <clipPath id="clip-path-13">
      <rect id="Rectángulo_423978" data-name="Rectángulo 423978" width="82.201" height="34.232" fill="none"/>
    </clipPath>
    <clipPath id="clip-path-14">
      <rect id="Rectángulo_423979" data-name="Rectángulo 423979" width="65.94" height="100.949" fill="none"/>
    </clipPath>
    <clipPath id="clip-path-15">
      <rect id="Rectángulo_423980" data-name="Rectángulo 423980" width="16.458" height="15.807" fill="none"/>
    </clipPath>
    <clipPath id="clip-path-16">
      <rect id="Rectángulo_423981" data-name="Rectángulo 423981" width="30.266" height="27.162" fill="none"/>
    </clipPath>
    <clipPath id="clip-path-17">
      <rect id="Rectángulo_423982" data-name="Rectángulo 423982" width="22.655" height="36.578" fill="none"/>
    </clipPath>
    <clipPath id="clip-path-18">
      <rect id="Rectángulo_423983" data-name="Rectángulo 423983" width="16.888" height="22.814" fill="none"/>
    </clipPath>
    <clipPath id="clip-path-19">
      <rect id="Rectángulo_423985" data-name="Rectángulo 423985" width="167.878" height="43.766" fill="none"/>
    </clipPath>
    <clipPath id="clip-path-20">
      <rect id="Rectángulo_423986" data-name="Rectángulo 423986" width="72.222" height="20.739" fill="none"/>
    </clipPath>
  </defs>
  <g id="Grupo_1232223" data-name="Grupo 1232223" transform="translate(-1020 -5688)">
    <rect id="Rectángulo_423989" data-name="Rectángulo 423989" width="263" height="224" rx="13" transform="translate(1076 5766)" fill="#f3de50"/>
    <g id="Enmascarar_grupo_1098775" data-name="Enmascarar grupo 1098775" clip-path="url(#clip-path)">
      <g id="Grupo_1230203" data-name="Grupo 1230203" transform="translate(1066.74 5725.375)">
        <g id="Grupo_1230202" data-name="Grupo 1230202" transform="translate(0)" clip-path="url(#clip-path-2)">
          <g id="Grupo_1230201" data-name="Grupo 1230201">
            <g id="Grupo_1230200" data-name="Grupo 1230200" clip-path="url(#clip-path-3)">
              <path id="Trazado_1055396" data-name="Trazado 1055396" d="M257.746,332.542c1.087,26.046,116.8,12.159,116.8,12.159a317.257,317.257,0,0,1,1.836-33.75c.712-6.661,1.691-13.843,3.045-21.089.382-2.027.833-4.163,1.341-6.381,6.515-28.22,22.488-69.578,16.85-79.632-2.383-4.258-7.239-7.945-12.254-10.837-.3-.178-.61-.349-.915-.521-2.021-1.138-4.049-2.142-5.93-3a92.551,92.551,0,0,0-9.076-3.61c-8.034-3.451-18.61-5.4-28.6-6.3-3.763-.343-7.443-.54-10.869-.616-8.771-.185-15.9.426-18.578,1.411-6.515,2.39-15.413,7.163-23.657,27.343-3.254,7.97-8.778,25.023-14.212,44.351-8.332,29.669-16.449,64.7-15.788,80.472" transform="translate(-249.934 -69.472)" fill="#ad77e0"/>
              <g id="Grupo_1230151" data-name="Grupo 1230151" transform="translate(7.774 150.89)" opacity="0.3" style="mix-blend-mode: overlay;isolation: isolate">
                <g id="Grupo_1230150" data-name="Grupo 1230150">
                  <g id="Grupo_1230149" data-name="Grupo 1230149" clip-path="url(#clip-path-4)">
                    <path id="Trazado_1055397" data-name="Trazado 1055397" d="M294.395,359.535c1.087,26.046,116.8,12.159,116.8,12.159a317.247,317.247,0,0,1,1.836-33.75c-35.078-28.061-61.194-92.256-66.075-91.277-6.229,1.246-21.47,20.18-21.47,20.18l-15.305,12.216c-8.332,29.669-16.449,64.7-15.788,80.472" transform="translate(-294.357 -246.657)" fill="#272525"/>
                  </g>
                </g>
              </g>
              <path id="Trazado_1055398" data-name="Trazado 1055398" d="M287.9,213.6c13.309,4.627,19.245-7.061,19.245-7.061,1.558,8.11,13.214,19.157,21.89,14.288,6.375-3.578,8.5-19.83,8.873-27.794-.3-.178-.61-.35-.915-.521-2.021-1.138-4.049-2.142-5.93-3a92.476,92.476,0,0,0-9.076-3.611c-8.034-3.451-18.61-5.4-28.6-6.3-3.763-.343-7.443-.54-10.869-.617-2.485,7.468-6.87,30.362,5.377,34.614" transform="translate(-202.472 -69.493)" fill="#d6aefc"/>
              <path id="Trazado_1055399" data-name="Trazado 1055399" d="M304.907,206.612c17.529,4.144,24.267-13.1,25.474-16.71a92.554,92.554,0,0,0-9.076-3.61c-8.034-3.451-18.61-5.4-28.6-6.3-3.349,7.335-3.623,22.875,12.2,26.619" transform="translate(-201.795 -69.884)" fill="#a163db"/>
              <path id="Trazado_1055400" data-name="Trazado 1055400" d="M302.682,188.639c4.348,4.843,12.661,5.777,16.2,4.265,1.271-.547,3.343-3.14,5.479-6.242,1.525-2.218,3.083-4.684,4.4-6.858a33.86,33.86,0,0,1-13.671-10.532,24.506,24.506,0,0,1-3.223-5.631c-.394-1-.775-2.008-1.137-3.026-1.6,2.727-3.826,6.432-5.67,9.489-1.735,2.867-3.127,5.167-3.362,5.574-.839,1.449-3.356,8.1.985,12.96" transform="translate(-205.888 -62.361)" fill="#edb3a8"/>
              <g id="Grupo_1230154" data-name="Grupo 1230154" transform="translate(99.171 98.255)" opacity="0.3" style="mix-blend-mode: overlay;isolation: isolate">
                <g id="Grupo_1230153" data-name="Grupo 1230153" transform="translate(0)">
                  <g id="Grupo_1230152" data-name="Grupo 1230152" clip-path="url(#clip-path-5)">
                    <path id="Trazado_1055401" data-name="Trazado 1055401" d="M300.206,170.105c4.481,9.705,13.449,14.421,19.3,16.557,1.525-2.218,3.083-4.684,4.4-6.858a33.867,33.867,0,0,1-13.672-10.532,24.5,24.5,0,0,1-3.222-5.631c-.395-1-.776-2.009-1.138-3.026-1.6,2.727-3.826,6.432-5.67,9.489" transform="translate(-300.206 -160.616)" fill="#272525"/>
                  </g>
                </g>
              </g>
              <path id="Trazado_1055402" data-name="Trazado 1055402" d="M205.549,124.471a61.456,61.456,0,0,0,2.237,7.8c.362,1.011.737,2,1.125,3,.007.007.007.02.013.026a24.5,24.5,0,0,0,3.223,5.631,34.46,34.46,0,0,0,22.213,12.935,32.371,32.371,0,0,0,14.313-1.151,34.707,34.707,0,0,0,3.655-1.36c7.17-3.146,13.506-9.877,18.629-17.1a133.125,133.125,0,0,0,13.423-24.635c-2.39-3.617-11.86-12.292-13.817-15.349-.826-1.278-1.119-3.909-1.157-6.661a8.571,8.571,0,0,1-2.778,4.144c-3.934,2.72-9.845-2.358-24.5-1.277-11.86.883-22.868,3.324-30.2,1.62a13.522,13.522,0,0,1-2.269-.705c-.076.191-.159.381-.229.572a63.039,63.039,0,0,0-4.627,17.021c-.025.184-.044.369-.064.547h-.006a47.024,47.024,0,0,0,.814,14.942" transform="translate(-102.946 -34.014)" fill="#f6cfc6"/>
              <path id="Trazado_1055403" data-name="Trazado 1055403" d="M226.417,176.118a15.287,15.287,0,0,0,.814,4.939,34.573,34.573,0,0,0,3.655-1.361c7.17-3.146,13.506-9.877,18.629-17.1a15.509,15.509,0,0,0-23.1,13.519" transform="translate(-81.503 -62.361)" fill="#ffa8be"/>
              <path id="Trazado_1055404" data-name="Trazado 1055404" d="M294.081,135.762a61.453,61.453,0,0,0,2.237,7.8c.362,1.011.737,2,1.125,3a15.5,15.5,0,1,0-4.106-26.288c-.025.184-.044.369-.064.547h-.006a47.026,47.026,0,0,0,.814,14.942" transform="translate(-191.478 -45.305)" fill="#ffa8be"/>
              <path id="Trazado_1055405" data-name="Trazado 1055405" d="M323.842,103.04a10.752,10.752,0,0,0,2.7,2.942,5.927,5.927,0,0,0,1.347.719,4.963,4.963,0,0,0,2.092.33,6.494,6.494,0,0,0,2.58-.712h.006c1.3-.661,5.161-8.618,6.9-12.305a.309.309,0,0,0,.032-.07,6.4,6.4,0,0,0,.5-3.947c-.07-.337-.146-.712-.236-1.112-.921-4.011-3.159-10.214-8.123-9.483a4.768,4.768,0,0,0-.75.159,6.762,6.762,0,0,0-1.131.426,8.7,8.7,0,0,0-2.651,1.989c-4.881,5.225-6.108,16.735-3.261,21.063" transform="translate(-230.773 -30.806)" fill="#edb3a8"/>
              <g id="Grupo_1230157" data-name="Grupo 1230157" transform="translate(96.33 48.538)" opacity="0.3" style="mix-blend-mode: overlay;isolation: isolate">
                <g id="Grupo_1230156" data-name="Grupo 1230156" transform="translate(0)">
                  <g id="Grupo_1230155" data-name="Grupo 1230155" clip-path="url(#clip-path-6)">
                    <path id="Trazado_1055406" data-name="Trazado 1055406" d="M325.212,107.032a6.491,6.491,0,0,0,2.58-.712h.007c1.3-.661,5.161-8.618,6.9-12.3a.356.356,0,0,0,.031-.07,6.4,6.4,0,0,0,.5-3.947c-.07-.336-.146-.711-.235-1.112-.922-4.011-3.159-10.214-8.123-9.483a4.8,4.8,0,0,0-.75.159,6.8,6.8,0,0,0-1.131.426,8.7,8.7,0,0,0-2.651,1.989c1.659,4.824,4.666,15.451,2.879,25.055" transform="translate(-322.333 -79.344)" fill="#272525"/>
                  </g>
                </g>
              </g>
              <path id="Trazado_1055407" data-name="Trazado 1055407" d="M339.273,80.149c0,.33.013.667.019,1,.254,8.263,2,15.476,5.994,18.4.324.235.655.451,1,.655a11.027,11.027,0,0,0,1.011.534,7.391,7.391,0,0,0,.833.362,13.707,13.707,0,0,0,9.223.273c.241-.076.483-.166.718-.254a12.17,12.17,0,0,0,3.28-1.913,10.773,10.773,0,0,1-2.7-2.943,8.43,8.43,0,0,1-1.1-2.758,13.171,13.171,0,0,1-.273-1.6c-.776-6.451,1.761-16.106,7.284-18.7a16.76,16.76,0,0,1-.655-1.8c-.083-.248-.153-.5-.223-.75a18.63,18.63,0,0,1-.547-3.509c-.025-.254-.032-.514-.032-.775a19.186,19.186,0,0,1,.407-4.487,76.966,76.966,0,0,0-8.339.82c-7.367,1.17-15.21,3.833-15.661,9.858-.2,2.555-.28,5.116-.235,7.589" transform="translate(-265.576 -24.026)" fill="#4b3d75"/>
              <path id="Trazado_1055408" data-name="Trazado 1055408" d="M341.009,83.606a.388.388,0,0,0,.381.388h.007a.367.367,0,0,0,.324-.2,30.289,30.289,0,0,1,8.834-7.97,42.931,42.931,0,0,1,6.769-3.133c1.748-.655,3.508-1.239,5.256-1.818l2.657-.883.1-.032a.39.39,0,0,0,.242-.483.4.4,0,0,0-.369-.261.357.357,0,0,0-.114.02l-2.752.915c-1.652.54-3.324,1.1-4.989,1.716a44.105,44.105,0,0,0-7.176,3.3,30.984,30.984,0,0,0-8.8,7.831c-.1.127-.2.254-.292.381a.381.381,0,0,0-.076.229" transform="translate(-267.681 -26.874)" fill="#6a5a99"/>
              <path id="Trazado_1055409" data-name="Trazado 1055409" d="M340.646,105a13.211,13.211,0,0,0,.426,1.291c.039.121.083.242.127.362a.387.387,0,0,0,.356.242.36.36,0,0,0,.139-.025.4.4,0,0,0,.217-.5,16.72,16.72,0,0,1-.686-2.193,19.053,19.053,0,0,1,2.339-14.707,26.273,26.273,0,0,1,4.7-5.276c1.112-.992,2.269-1.92,3.413-2.822,2.358-1.856,4.22-3.223,6.007-4.418.032-.018.064-.045.1-.064a.38.38,0,0,0,.108-.527.384.384,0,0,0-.426-.158.562.562,0,0,0-.1.05c-1.837,1.221-3.731,2.613-6.152,4.52-.928.73-1.869,1.481-2.791,2.276a27.894,27.894,0,0,0-5.485,6.006A19.8,19.8,0,0,0,340.646,105" transform="translate(-259.354 -29.584)" fill="#6a5a99"/>
              <path id="Trazado_1055410" data-name="Trazado 1055410" d="M350.415,120.376c.006.02.006.039.019.051a.367.367,0,0,0,.356.26.3.3,0,0,0,.07-.006.384.384,0,0,0,.305-.445c-.006-.019-.006-.045-.013-.063a34.386,34.386,0,0,1-.521-7.616c.026-.514.058-1.035.108-1.55l-.381-.044-.382.012a34.86,34.86,0,0,0,.439,9.4" transform="translate(-258.662 -43.083)" fill="#6a5a99"/>
              <g id="Grupo_1230160" data-name="Grupo 1230160" transform="translate(80.707 37.856)" opacity="0.3" style="mix-blend-mode: overlay;isolation: isolate">
                <g id="Grupo_1230159" data-name="Grupo 1230159">
                  <g id="Grupo_1230158" data-name="Grupo 1230158" clip-path="url(#clip-path-7)">
                    <path id="Trazado_1055411" data-name="Trazado 1055411" d="M339.262,100.2a11.037,11.037,0,0,0,1.011.534c.038.121.083.242.127.362a.385.385,0,0,0,.356.242.365.365,0,0,0,.139-.026.35.35,0,0,0,.209-.216,13.709,13.709,0,0,0,9.223.273.368.368,0,0,0,.355.261.246.246,0,0,0,.07-.007.383.383,0,0,0,.305-.445c-.006-.019-.006-.045-.013-.064a12.174,12.174,0,0,0,3.28-1.913,10.754,10.754,0,0,1-2.7-2.943,8.418,8.418,0,0,1-1.1-2.758c.025-.514.057-1.036.107-1.551l-.381-.045c-.776-6.451,1.761-16.106,7.283-18.7a16.854,16.854,0,0,1-.654-1.8c.031-.02.063-.045.095-.064a.383.383,0,0,0-.318-.686,18.678,18.678,0,0,1-.547-3.508l.1-.032a.39.39,0,0,0,.242-.483.4.4,0,0,0-.369-.261,19.188,19.188,0,0,1,.406-4.487,76.956,76.956,0,0,0-8.338.82c.082,1.824.121,3.966.076,6.318-.013.273-.02.546-.026.826-.076,2.4-.254,4.983-.584,7.653q-.077.572-.152,1.144c-.967,6.851-3.007,14.123-7.037,19.982-.184.28-.38.547-.577.82-.191.254-.382.508-.585.756" transform="translate(-339.263 -61.882)" fill="#272525"/>
                  </g>
                </g>
              </g>
              <path id="Trazado_1055412" data-name="Trazado 1055412" d="M193.4,53.948a16.927,16.927,0,0,0,1.379,2.574,16.329,16.329,0,0,0,4.1,4.379,10.461,10.461,0,0,0,2.256,1.239,13.529,13.529,0,0,0,2.27.706c7.328,1.7,18.336-.737,30.2-1.621,14.657-1.08,20.078,3.725,24.5,1.278a5.83,5.83,0,0,0,2.879-2.924c.057-.139.114-.286.165-.445,0,.159.007.318.007.477.038,2.5.108,4.208.883,5.409,1.958,3.057,11.428,11.733,13.817,15.349a3.627,3.627,0,0,1,.5.935c.839,2.638,6.839-2.955,7.157-15.769.006-.311.013-.629.013-.954v-.1c0-8.726-1.023-17.669-4.113-25.277-.2-.489-.406-.979-.623-1.456-.133-.3-.273-.6-.426-.9a31.592,31.592,0,0,0-6.171-8.822,53.223,53.223,0,0,0-9.985-7.729c-.349-.21-.711-.42-1.074-.623a55.105,55.105,0,0,0-9.985-4.487c-.5-.172-1-.337-1.506-.483a55.164,55.164,0,0,0-18.311-2.383c-.172.012-.331.019-.5.025a35.124,35.124,0,0,0-12.712,3.229c-.317.14-.642.292-.959.445a55.852,55.852,0,0,0-15.852,11.663c-.216.229-.438.464-.648.692A45.554,45.554,0,0,0,195.526,35c-.158.242-.305.483-.445.718-.286.489-.559.979-.8,1.468-.172.337-.337.674-.483,1.011a21.387,21.387,0,0,0-1.443,4.423A18.942,18.942,0,0,0,193.4,53.948" transform="translate(-94.423 -4.767)" fill="#4b3d75"/>
              <path id="Trazado_1055413" data-name="Trazado 1055413" d="M335.017,134.786a7.78,7.78,0,0,0,3.973,3.6c-.2-.922-.369-1.856-.515-2.81a46.622,46.622,0,0,1-.3-12.133,5.72,5.72,0,0,1-4.672.382c-.3,2.873-.394,7.544,1.513,10.964" transform="translate(-236.387 -47.927)" fill="#4b3d75"/>
              <path id="Trazado_1055414" data-name="Trazado 1055414" d="M227.021,16.52a25.509,25.509,0,0,1,3.617,4.024c.248.33.483.667.705,1a33.384,33.384,0,0,1,3.146,5.962.3.3,0,0,1,.019.045c.076.19.159.388.236.584.032.089.07.172.1.261a53.793,53.793,0,0,1,2.949,12.038c.045.375.1.744.133,1.119.14,1.169.248,2.32.317,3.438a83.3,83.3,0,0,1-.324,15.407.468.468,0,0,0,.3.5.609.609,0,0,0,.108.026.18.18,0,0,0,.057.006h.007a.473.473,0,0,0,.464-.42,84.93,84.93,0,0,0,.331-15.642c-.076-1.029-.172-2.084-.292-3.152-.039-.35-.083-.706-.127-1.062v-.012c-.007-.045-.013-.089-.019-.133,0-.007-.007-.013-.007-.02-.012-.1-.025-.2-.038-.312a56.085,56.085,0,0,0-2.568-10.995c-.19-.54-.394-1.074-.61-1.608,0-.006-.006-.013-.006-.019l-.007-.006a.163.163,0,0,0-.025-.07,35.037,35.037,0,0,0-2.968-5.866c-.236-.369-.477-.738-.725-1.093a26.648,26.648,0,0,0-3.407-4.017c-.242-.248-.489-.477-.737-.7a.474.474,0,0,0-.674.039.352.352,0,0,0-.1.178.459.459,0,0,0,.133.495" transform="translate(-71.664 -6.09)" fill="#6a5a99"/>
              <path id="Trazado_1055415" data-name="Trazado 1055415" d="M227.926,53.56c.057.14.114.273.171.413a27.089,27.089,0,0,0,12.7,13.176A35.833,35.833,0,0,0,257,70.778q2.193,0,4.455-.223a66.558,66.558,0,0,0,20.205-5.8,43.172,43.172,0,0,0,6.076-3.178c.789-.515,1.557-1.074,2.289-1.64.6-.458,1.176-.915,1.722-1.347l3.242-2.587.464-.369.2-.165a.523.523,0,0,0,.178-.362V55.1c-.007-.044-.013-.089-.019-.133,0-.006-.007-.013-.007-.019a.637.637,0,0,0-.076-.146.489.489,0,0,0-.674-.076l-.083.064v.007l-.121.095-3.705,2.956c-.877.705-1.85,1.481-2.861,2.205-.349.248-.712.5-1.074.731a40.8,40.8,0,0,1-5.936,3.1,65.35,65.35,0,0,1-19.919,5.72A36.4,36.4,0,0,1,241.229,66.3,26,26,0,0,1,228.816,53.2a.464.464,0,0,0-.236-.242.458.458,0,0,0-.388-.025.488.488,0,0,0-.267.623" transform="translate(-128.723 -20.541)" fill="#6a5a99"/>
              <path id="Trazado_1055416" data-name="Trazado 1055416" d="M256.14,46.765c6.47,0,12.782-1.78,18.7-3.76a57.152,57.152,0,0,0,8.678-3.527c.943-.5,1.891-1.052,2.808-1.587a47.618,47.618,0,0,1,4.334-2.339.477.477,0,0,0-.393-.869,48.561,48.561,0,0,0-4.422,2.385c-.908.53-1.848,1.08-2.773,1.569a56.434,56.434,0,0,1-8.535,3.465c-6.759,2.26-14.028,4.256-21.4,3.575a30.927,30.927,0,0,1-19.187-9.3.477.477,0,1,0-.689.659,31.9,31.9,0,0,0,19.787,9.59c1.033.1,2.064.14,3.09.14" transform="translate(-127.037 -13.45)" fill="#6a5a99"/>
              <path id="Trazado_1055417" data-name="Trazado 1055417" d="M256.326,22.892c2.723,0,5.454-.212,8.143-.419a73.841,73.841,0,0,1,11.572-.29.477.477,0,0,0,.078-.951,74.464,74.464,0,0,0-11.723.29c-5.659.438-11.512.891-16.97-.68a37.374,37.374,0,0,1-7.881-3.5.477.477,0,0,0-.469.83,38.257,38.257,0,0,0,8.086,3.59,32.977,32.977,0,0,0,9.164,1.133" transform="translate(-116.139 -6.708)" fill="#6a5a99"/>
              <path id="Trazado_1055418" data-name="Trazado 1055418" d="M191.324,56.313c.114.1.236.21.35.325.171.165.343.343.508.534.184.2.362.419.54.642a19.643,19.643,0,0,1,1.5,2.262c.3.515.591,1.03.871,1.539l.362.667a86.882,86.882,0,0,0,10.8,15.254c2.059,2.313,4.6,4.69,7.78,4.773h.013a.477.477,0,0,0,.013-.953h-.007c-2.822-.076-5.161-2.295-7.087-4.455a85.132,85.132,0,0,1-10.671-15.082l-.369-.667c-.229-.414-.458-.826-.692-1.239a22.539,22.539,0,0,0-1.761-2.689,12.829,12.829,0,0,0-1.481-1.59c-.013-.012-.019-.024-.032-.031a.474.474,0,0,0-.674.039.42.42,0,0,0-.089.146v.007a.468.468,0,0,0,.127.521" transform="translate(-24.946 -21.54)" fill="#6a5a99"/>
              <g id="Grupo_1230163" data-name="Grupo 1230163" transform="translate(97.511 30.235)" opacity="0.3" style="mix-blend-mode: overlay;isolation: isolate">
                <g id="Grupo_1230162" data-name="Grupo 1230162">
                  <g id="Grupo_1230161" data-name="Grupo 1230161" clip-path="url(#clip-path-8)">
                    <path id="Trazado_1055419" data-name="Trazado 1055419" d="M194.013,70.945a16.341,16.341,0,0,0,4.1,4.379,10.518,10.518,0,0,0,2.257,1.239,13.505,13.505,0,0,0,2.269.705c7.328,1.7,18.337-.737,30.2-1.62,14.657-1.081,20.078,3.724,24.5,1.277A5.825,5.825,0,0,0,260.215,74a.519.519,0,0,0,.108.026.183.183,0,0,0,.057.006h.006c.038,2.5.108,4.208.883,5.409,1.958,3.057,11.428,11.733,13.818,15.35a3.591,3.591,0,0,1,.5.934c.839,2.638,6.839-2.955,7.157-15.769h.007a.477.477,0,0,0,.013-.954h-.007v-.1c0-8.726-1.023-17.669-4.112-25.277A73.874,73.874,0,0,1,263.94,57.56c-.337.058-.674.114-1.011.165-.585.089-1.164.172-1.748.248-.318.045-.629.083-.947.121-1.754.216-3.521.381-5.282.5-.579.045-1.157.076-1.735.108-23.116,1.176-46.34-5.225-58.461-9.273-.159.242-.305.483-.445.718-.286.489-.559.979-.8,1.468a.458.458,0,0,0-.388-.025.488.488,0,0,0-.267.623c.058.139.114.273.172.413a21.354,21.354,0,0,0-1.443,4.423,18.942,18.942,0,0,0,1.049,11.326,16.921,16.921,0,0,0,1.379,2.574" transform="translate(-191.165 -49.424)" fill="#272525"/>
                  </g>
                </g>
              </g>
              <path id="Trazado_1055420" data-name="Trazado 1055420" d="M220.2,46.45q.2,0,.389,0a.477.477,0,1,0-.023-.953,19.467,19.467,0,0,1-9.483-2.467,48.419,48.419,0,0,1-9.609-7.254,9.3,9.3,0,0,0-1.546-1.142.477.477,0,1,0-.472.828,8.3,8.3,0,0,1,1.375,1.017,49.224,49.224,0,0,0,9.8,7.392A20.6,20.6,0,0,0,220.2,46.45" transform="translate(-36.405 -13.421)" fill="#6a5a99"/>
              <path id="Trazado_1055421" data-name="Trazado 1055421" d="M232.738,25.059a10.2,10.2,0,0,0,1.951-.164.477.477,0,1,0-.181-.936,10.433,10.433,0,0,1-2.31.138,30.122,30.122,0,0,1-4.964-.545.477.477,0,0,0-.182.937,31.085,31.085,0,0,0,5.118.561q.295.01.567.01" transform="translate(-67.217 -9.141)" fill="#6a5a99"/>
              <path id="Trazado_1055422" data-name="Trazado 1055422" d="M217.265,160.8a15.726,15.726,0,1,0-15.726-15.726A15.744,15.744,0,0,0,217.265,160.8m0-28.91a13.184,13.184,0,1,1-13.184,13.184,13.2,13.2,0,0,1,13.184-13.184" transform="translate(-49.76 -50.22)" fill="#ff7270"/>
              <path id="Trazado_1055423" data-name="Trazado 1055423" d="M274.687,131.9a15.726,15.726,0,1,0-15.726-15.725A15.743,15.743,0,0,0,274.687,131.9m0-28.909A13.184,13.184,0,1,1,261.5,116.175a13.2,13.2,0,0,1,13.184-13.184" transform="translate(-142.31 -39)" fill="#ff7270"/>
              <path id="Trazado_1055424" data-name="Trazado 1055424" d="M255.387,138.984a1.271,1.271,0,0,0,1.013-2.038,14.314,14.314,0,0,0-10.274-5.711,1.271,1.271,0,1,0-.216,2.533,11.8,11.8,0,0,1,8.462,4.711,1.269,1.269,0,0,0,1.015.5" transform="translate(-99.859 -50.952)" fill="#ff7270"/>
              <path id="Trazado_1055425" data-name="Trazado 1055425" d="M314.363,105.375a1.271,1.271,0,0,0,.589-2.4l-6.024-3.144a1,1,0,0,1-.289-.229l-5.5-6.3a1.271,1.271,0,0,0-1.916,1.671l5.5,6.3a3.523,3.523,0,0,0,1.029.811l6.024,3.144a1.268,1.268,0,0,0,.587.144" transform="translate(-193.196 -36.056)" fill="#ff7270"/>
              <path id="Trazado_1055426" data-name="Trazado 1055426" d="M265.753,143c3.678,1.086-.08,14.938-1.49,16.023s-9.332-3.8-9.549-5.1,6.265-12.333,11.039-10.923" transform="translate(-116.617 -55.474)" fill="#d48181"/>
              <path id="Trazado_1055427" data-name="Trazado 1055427" d="M290.919,169.18c.134-1.559-11.09-7.849-13.33-8.189s-1.387,9.514,3.676,10.438,9.531-.807,9.654-2.249" transform="translate(-153.497 -62.503)" fill="#fff"/>
              <path id="Trazado_1055428" data-name="Trazado 1055428" d="M234.549,151.335a1.078,1.078,0,0,0,1.038-.787c.047-.166,1.119-4.11-1.361-6.591-2.134-2.134-5.467-.762-7.1.387a1.081,1.081,0,0,0,1.242,1.769c.054-.037,2.967-1.99,4.33-.627,1.58,1.58.816,4.452.808,4.481a1.082,1.082,0,0,0,1.043,1.368" transform="translate(-67.999 -55.459)" fill="#4b3d75"/>
              <path id="Trazado_1055429" data-name="Trazado 1055429" d="M284.137,124.96a1.079,1.079,0,0,0,1.039-.787c.046-.166,1.119-4.11-1.362-6.591-2.554-2.553-7.227-.176-7.751.1a1.08,1.08,0,0,0,1.016,1.907c.966-.511,3.993-1.7,5.207-.483,1.58,1.58.816,4.452.808,4.481a1.082,1.082,0,0,0,1.043,1.368" transform="translate(-147.454 -45.198)" fill="#4b3d75"/>
              <path id="Trazado_1055430" data-name="Trazado 1055430" d="M234.451,299.294l32.259-6.928s-1.088-20.834-3.477-42.433-11.934-30.27-11.934-30.27c5.635,10.056-10.337,51.41-16.848,79.631" transform="translate(-103.613 -85.287)" fill="#a163db"/>
              <path id="Trazado_1055431" data-name="Trazado 1055431" d="M378.208,293.238c13.926-.6,37.709-9.464,51.444-15.139,4.462-1.844,7.869-3.35,9.528-4.132.61-.292.985-.483,1.093-.553,1.067-.705-1.443-15.8-3.191-22.042a2.782,2.782,0,0,0-3.47-1.919c-2.37.705-5.021,1.583-7.735,2.536-8.574,3.019-17.848,6.788-21.4,8.257l-.006.006c-.96.394-1.5.623-1.5.623,1.163-6.1,11.37-27.247,15.089-36.915.305-.8.6-1.659.883-2.574,4.341-13.926,6.007-40.074,1.342-40.093-15.547-.045-32.517,27.457-44.415,58.817-4.189,11.04-17.778,53.993,2.339,53.128" transform="translate(-358.816 -70.389)" fill="#a163db"/>
              <g id="Grupo_1230166" data-name="Grupo 1230166" transform="translate(24.16 150.996)" opacity="0.3" style="mix-blend-mode: overlay;isolation: isolate">
                <g id="Grupo_1230165" data-name="Grupo 1230165">
                  <g id="Grupo_1230164" data-name="Grupo 1230164" clip-path="url(#clip-path-9)">
                    <path id="Trazado_1055432" data-name="Trazado 1055432" d="M407.732,292.682c5.136-2.136,14.447-5.809,16.538-6.985-.96.394-1.5.623-1.5.623,1.164-6.1,11.371-27.247,15.089-36.915.3-.8.6-1.659.883-2.574-3.114,1.583-20.415,21.87-34.747,41.554-2.352,5.028-1.4,6.432,3.737,4.3" transform="translate(-402.775 -246.831)" fill="#272525"/>
                  </g>
                </g>
              </g>
              <path id="Trazado_1055433" data-name="Trazado 1055433" d="M371.264,321.282c4.462-1.843,7.869-3.349,9.527-4.131.611-.292.986-.483,1.093-.553,1.068-.706-1.442-15.8-3.19-22.042a2.782,2.782,0,0,0-3.47-1.92c-2.371.705-5.021,1.583-7.735,2.536,1.539,6.216,3.967,17.479,3.776,26.11" transform="translate(-300.428 -113.573)" fill="#d6aefc"/>
              <path id="Trazado_1055434" data-name="Trazado 1055434" d="M428.583,319.685a.476.476,0,0,0,.182-.036c.123-.051,12.377-5.122,19.744-8.127a.477.477,0,0,0-.36-.883c-7.371,3.005-19.626,8.078-19.749,8.129a.477.477,0,0,0,.182.917" transform="translate(-404.175 -120.595)" fill="#d6aefc"/>
              <path id="Trazado_1055435" data-name="Trazado 1055435" d="M300.474,289.575a2.759,2.759,0,0,1,1.22,1.621c1.748,6.242,4.258,21.337,3.191,22.042-.108.07-.483.261-1.093.553a73.153,73.153,0,0,0,10.493,1.119c3.788.083,7.322-.318,9.5-1.672,6.744-4.189,5.548-9.476,5.548-9.476s8.949,7.093,11.867,7.989,6.483-2.994,4.214-5.981-11.307-16.112-16.373-18.126a54.952,54.952,0,0,0-10.926-3.464,15.348,15.348,0,0,0-9.184.845c-4.074,1.945-6.845,3.654-8.46,4.551" transform="translate(-223.428 -110.212)" fill="#f6cfc6"/>
              <g id="Grupo_1230169" data-name="Grupo 1230169" transform="translate(77.046 173.649)" opacity="0.3" style="mix-blend-mode: overlay;isolation: isolate">
                <g id="Grupo_1230168" data-name="Grupo 1230168" transform="translate(0)">
                  <g id="Grupo_1230167" data-name="Grupo 1230167" clip-path="url(#clip-path-10)">
                    <path id="Trazado_1055436" data-name="Trazado 1055436" d="M346.275,289.575a2.759,2.759,0,0,1,1.22,1.621c1.748,6.242,4.258,21.337,3.191,22.042-.108.07-.483.261-1.093.553a73.152,73.152,0,0,0,10.493,1.119c-3.47-7.576,1.125-23.008,3.833-30.731a15.348,15.348,0,0,0-9.184.845c-4.074,1.945-6.845,3.654-8.46,4.551" transform="translate(-346.275 -283.861)" fill="#272525"/>
                  </g>
                </g>
              </g>
              <path id="Trazado_1055437" data-name="Trazado 1055437" d="M331.485,314.487a.477.477,0,0,0,.294-.853c-1.009-.787-3.8-3.229-3.829-3.253a.477.477,0,1,0-.628.718c.116.1,2.84,2.484,3.87,3.288a.477.477,0,0,0,.293.1" transform="translate(-225.578 -120.463)" fill="#ffa8be"/>
              <path id="Trazado_1055438" data-name="Trazado 1055438" d="M336.28,324.637a.471.471,0,0,0,.251-.072.476.476,0,0,0,.153-.656,57.669,57.669,0,0,0-4.277-5.916.477.477,0,1,0-.728.615,56.649,56.649,0,0,1,4.2,5.8.477.477,0,0,0,.4.225" transform="translate(-233.07 -123.399)" fill="#ffa8be"/>
              <path id="Trazado_1055439" data-name="Trazado 1055439" d="M343.635,330.89a.477.477,0,0,0,.41-.718l-2.68-4.553a.477.477,0,0,0-.822.484l2.68,4.552a.476.476,0,0,0,.411.235" transform="translate(-245.876 -126.334)" fill="#ffa8be"/>
              <path id="Trazado_1055440" data-name="Trazado 1055440" d="M99.332,283.386a60.215,60.215,0,0,0,.7,7.367c.68,4.093,1.977,8.275,4.481,9.311,5.256,2.167,16.982.642,18.6-1.792.979-1.468.508-5.473-.013-8.428-.058-.305-.114-.6-.165-.871a5.246,5.246,0,0,1-3.1-3.477,5.614,5.614,0,0,1,.795-3.953,10.423,10.423,0,0,1-2.975,1.023c-8.536,1.461-12.832,2.205-18.33.82" transform="translate(122.068 -109.312)" fill="#edb3a8"/>
              <g id="Grupo_1230172" data-name="Grupo 1230172" transform="translate(221.401 172.231)" opacity="0.3" style="mix-blend-mode: overlay;isolation: isolate">
                <g id="Grupo_1230171" data-name="Grupo 1230171" transform="translate(0)">
                  <g id="Grupo_1230170" data-name="Grupo 1230170" clip-path="url(#clip-path-11)">
                    <path id="Trazado_1055441" data-name="Trazado 1055441" d="M100.285,283.386a60.213,60.213,0,0,0,.7,7.367c5.733-1.157,14.625-2.345,23.072-.909-.058-.305-.114-.6-.165-.871a5.246,5.246,0,0,1-3.1-3.477,5.614,5.614,0,0,1,.795-3.953,10.423,10.423,0,0,1-2.975,1.023c-8.536,1.461-12.832,2.205-18.33.82" transform="translate(-100.285 -281.543)" fill="#272525"/>
                  </g>
                </g>
              </g>
              <path id="Trazado_1055442" data-name="Trazado 1055442" d="M64.52,325.015c1.951,5.93,5.93,11,14.1,12.006s79.976,0,79.976,0c.07-1.633.108-3.3.108-4.958.019-9.533-1.195-19.163-6.185-25.163-5.536-6.654-12.044-7.875-20.4-6.629-7.087,1.062-32.58,4.958-48.406,6.731-2.835.318-5.351.572-7.4.725-13.525,1.011-13.748,11.358-11.79,17.288" transform="translate(108.888 -116.416)" fill="#f8e679"/>
              <g id="Grupo_1230175" data-name="Grupo 1230175" transform="translate(172.517 190.587)" opacity="0.4" style="mix-blend-mode: overlay;isolation: isolate">
                <g id="Grupo_1230174" data-name="Grupo 1230174" transform="translate(0)">
                  <g id="Grupo_1230173" data-name="Grupo 1230173" clip-path="url(#clip-path-12)">
                    <path id="Trazado_1055443" data-name="Trazado 1055443" d="M64.52,329.562c1.951,5.93,5.93,11,14.1,12.006s79.976,0,79.976,0c.07-1.633.108-3.3.108-4.958-30.445-.241-64.608-18.934-74.993-25.061-2.835.318-5.351.572-7.4.725-13.525,1.011-13.748,11.358-11.79,17.288" transform="translate(-63.63 -311.549)" fill="#272525"/>
                  </g>
                </g>
              </g>
              <path id="Trazado_1055444" data-name="Trazado 1055444" d="M138.384,308.212a90.524,90.524,0,0,1,29.18-1.386c.87-4.436,4.176-8.53,12.419-9.14,8.473-.636,24.966-2.917,38.161-4.83-1.487-4.023-1.862-9.705-1.958-12.407a34.486,34.486,0,0,1-3.394-1.074,35.959,35.959,0,0,1-9.686-5.326c-2.746-.032-6.1-.064-9.744-.07-10.182-.012-22.6.166-30.266.954a51.169,51.169,0,0,0-12.757,2.86c-6.915,2.6-11.173,6.375-13.29,9.839-1.856,3.019-1.354,14.638,1.335,20.58" transform="translate(5.214 -106.375)" fill="#ebd75e"/>
              <g id="Grupo_1230178" data-name="Grupo 1230178" transform="translate(141.158 167.604)" opacity="0.3" style="mix-blend-mode: overlay;isolation: isolate">
                <g id="Grupo_1230177" data-name="Grupo 1230177" transform="translate(0)">
                  <g id="Grupo_1230176" data-name="Grupo 1230176" clip-path="url(#clip-path-13)">
                    <path id="Trazado_1055445" data-name="Trazado 1055445" d="M138.384,308.212a90.523,90.523,0,0,1,29.18-1.386c.87-4.436,4.176-8.53,12.419-9.14,8.473-.636,24.966-2.917,38.161-4.83-1.487-4.023-1.862-9.705-1.958-12.407a34.493,34.493,0,0,1-3.394-1.074,35.959,35.959,0,0,1-9.686-5.326c-2.746-.032-6.1-.064-9.744-.07-2.53,3.331-8.46,9.394-19.462,12.07-8.517,2.072-17.326-3.121-23.561-8.257-6.915,2.6-11.173,6.375-13.29,9.839-1.856,3.019-1.354,14.638,1.335,20.58" transform="translate(-135.943 -273.98)" fill="#272525"/>
                  </g>
                </g>
              </g>
              <path id="Trazado_1055446" data-name="Trazado 1055446" d="M10.546,164.94a7.628,7.628,0,0,0,1.061.922,9.082,9.082,0,0,0,1.869,1.03,2.233,2.233,0,0,0,.368.152,14.7,14.7,0,0,0,2.765.724,1.845,1.845,0,0,0,.317.051c.153.025.3.051.451.07s.3.038.458.057c.21.026.413.051.617.07.127.006.248.025.375.032.28.025.566.044.858.07.083.006.166.006.242.013.133.012.248.019.369.019.2.019.407.025.61.032a8.172,8.172,0,0,0,7.068,12.159,10.4,10.4,0,0,0,3.3,11,11.755,11.755,0,0,0-4.576,9.966,10.149,10.149,0,0,0,6.47,8.663,19.939,19.939,0,0,0,6.9,1.252c-2.136.858-2.167,3.381-2.092,5.682a33.392,33.392,0,0,0,.667,5.676,13.621,13.621,0,0,0-6.54,2.587c-.242.171-.47.362-.692.546q-.429.373-.839.763c-.229.223-.445.464-.655.7s-.426.5-.623.763c-.127.184-.261.362-.382.546a1,1,0,0,0-.076.121,5.076,5.076,0,0,0-.261.451,5.614,5.614,0,0,0-.795,3.953,5.249,5.249,0,0,0,3.1,3.477,7.748,7.748,0,0,0,2.186.667c2.352.375,4.748-.045,7.131-.025a11.163,11.163,0,0,0,8.714,10.182,15.442,15.442,0,0,1,.286-4.462,5.341,5.341,0,0,1,2.568-3.514A13.472,13.472,0,0,1,54.1,238.6c2.542-.756,4.811-2.867,5.085-5.5,5.606.146,11.593-2.453,14.021-7.512a13.467,13.467,0,0,0,1.151-4.507,54.326,54.326,0,0,0,.083-5.917c.1.5.68.706,1.182.795a12.113,12.113,0,0,0,11.619-4.684c-1.729,0-2.879-1.792-3.439-3.439a18.214,18.214,0,0,1-.909-4.545c-.064-.985-.044-1.983-.178-2.955-.343-2.428-1.989-4.316-3.915-5.829a15.15,15.15,0,0,0,3.4-15.2,15.529,15.529,0,0,0-12.267-9.9,4.032,4.032,0,0,0,1.329-2.453,10.787,10.787,0,0,0-1.2-6.814,14.718,14.718,0,0,0-7.888-7.3,11.612,11.612,0,0,0-10.519,1.195,18.56,18.56,0,0,0-5.383-5.816,11.389,11.389,0,0,0-1.614-.883,9.9,9.9,0,0,0-5.987-.807,13.547,13.547,0,0,0-6.559,3.979,9.717,9.717,0,0,0-.967,1.086,11.084,11.084,0,0,0-4.729-.4c-5.046.432-5.288,1.29-7.614-.382-.013-.006-.013-.006-.019-.019a2.261,2.261,0,0,1-.4-3.133c-3.553,1.233-6.928,3.451-8.739,6.75s-1.7,7.8.9,10.532" transform="translate(214.128 -56.827)" fill="#4b3d75"/>
              <g id="Grupo_1230181" data-name="Grupo 1230181" transform="translate(222.546 89.536)" opacity="0.3" style="mix-blend-mode: overlay;isolation: isolate">
                <g id="Grupo_1230180" data-name="Grupo 1230180" transform="translate(0)">
                  <g id="Grupo_1230179" data-name="Grupo 1230179" clip-path="url(#clip-path-14)">
                    <path id="Trazado_1055447" data-name="Trazado 1055447" d="M31.606,164.94a7.628,7.628,0,0,0,1.061.922,9.082,9.082,0,0,0,1.869,1.03,2.233,2.233,0,0,0,.368.152,14.7,14.7,0,0,0,2.765.724,1.845,1.845,0,0,0,.317.051c.153.025.3.051.451.07s.3.038.458.057c.21.026.413.051.617.07.127.006.248.025.375.032.28.025.566.044.858.07.083.006.166.006.242.013.133.012.248.019.369.019.2.019.407.025.61.032a8.172,8.172,0,0,0,7.068,12.159,10.4,10.4,0,0,0,3.3,11,11.755,11.755,0,0,0-4.576,9.966,10.149,10.149,0,0,0,6.47,8.663,19.939,19.939,0,0,0,6.9,1.252c-2.136.858-2.167,3.381-2.092,5.682a33.393,33.393,0,0,0,.667,5.676,13.621,13.621,0,0,0-6.54,2.587c-.242.171-.47.362-.692.546q-.429.373-.839.763c-.229.223-.445.464-.655.7s-.426.5-.623.763c-.127.184-.261.362-.382.546a1,1,0,0,0-.076.121,5.074,5.074,0,0,0-.261.451,5.614,5.614,0,0,0-.795,3.953,5.249,5.249,0,0,0,3.1,3.477,7.748,7.748,0,0,0,2.186.667c2.352.375,4.748-.045,7.131-.025a11.163,11.163,0,0,0,8.714,10.182,15.442,15.442,0,0,1,.286-4.462,5.341,5.341,0,0,1,2.568-3.514,13.472,13.472,0,0,1,2.339-.731c2.542-.756,4.811-2.867,5.085-5.5,5.606.146,11.593-2.453,14.021-7.512a13.468,13.468,0,0,0,1.151-4.507A17.491,17.491,0,0,1,76,204.035c-5.079.426-10.01-3.229-11.771-8.015s-.655-10.335,2.186-14.567a1.161,1.161,0,0,0,.292-.864,1.191,1.191,0,0,0-.458-.592A8.185,8.185,0,0,1,65.2,169.186,13.728,13.728,0,0,1,58.859,156.4a11.6,11.6,0,0,1,6.858-9.07,9.9,9.9,0,0,0-5.987-.807,13.547,13.547,0,0,0-6.559,3.979,9.716,9.716,0,0,0-.967,1.086,11.084,11.084,0,0,0-4.729-.4c-5.046.432-5.288,1.29-7.614-.382-.013-.006-.013-.006-.019-.019a2.261,2.261,0,0,1-.4-3.133c-3.553,1.233-6.928,3.451-8.739,6.75s-1.7,7.8.9,10.532" transform="translate(-29.478 -146.363)" fill="#272525"/>
                  </g>
                </g>
              </g>
              <path id="Trazado_1055448" data-name="Trazado 1055448" d="M157.714,216.933a100.8,100.8,0,0,1,9.5-14.57c-4.658,1.165-13.685,3.655-14.612,5.7s2.983,6.6,5.109,8.874" transform="translate(46.032 -78.57)" fill="#d48181"/>
              <path id="Trazado_1055449" data-name="Trazado 1055449" d="M72.1,266.214a7.464,7.464,0,0,0,3.718,1.951h.007c5.53,1.163,12.68-2.981,12.769-8.791a6.464,6.464,0,0,0-.35-2.275c-1.131-3.242-4.8-4.335-7.208-4.7a3.388,3.388,0,0,0-3.336,1.474c-2.307,3.445-7.2,11.167-5.6,12.343" transform="translate(174.013 -97.981)" fill="#edb3a8"/>
              <g id="Grupo_1230184" data-name="Grupo 1230184" transform="translate(245.798 154.377)" opacity="0.3" style="mix-blend-mode: overlay;isolation: isolate">
                <g id="Grupo_1230183" data-name="Grupo 1230183" transform="translate(0)">
                  <g id="Grupo_1230182" data-name="Grupo 1230182" clip-path="url(#clip-path-15)">
                    <path id="Trazado_1055450" data-name="Trazado 1055450" d="M72.672,266.214a7.464,7.464,0,0,0,3.718,1.951H76.4c2.333-4.513,8.091-8.529,12.419-11.066-1.131-3.242-4.8-4.335-7.208-4.7a3.388,3.388,0,0,0-3.336,1.474c-2.307,3.445-7.2,11.167-5.6,12.343" transform="translate(-72.358 -252.358)" fill="#272525"/>
                  </g>
                </g>
              </g>
              <path id="Trazado_1055451" data-name="Trazado 1055451" d="M103.608,242.206A34.733,34.733,0,0,0,107,243.277c5.5,1.386,9.793.646,18.327-.816a10.44,10.44,0,0,0,2.975-1.028c.085-.154.17-.306.264-.451a1.392,1.392,0,0,1,.076-.119c.119-.187.255-.365.382-.544.2-.264.408-.518.62-.765s.425-.477.655-.7q.408-.4.842-.765c.221-.187.45-.374.688-.544a1.392,1.392,0,0,1-.119-.11c-1.6-1.173,3.3-8.9,5.6-12.342a3.365,3.365,0,0,1,2.482-1.5,19.819,19.819,0,0,1-6.9-1.25,10.148,10.148,0,0,1-6.469-8.662A11.773,11.773,0,0,1,131,203.717a10.407,10.407,0,0,1-3.3-11,8.169,8.169,0,0,1-7.064-12.155c-.2-.009-.408-.017-.612-.034-.119,0-.238-.009-.366-.017-.076-.008-.161-.008-.247-.017-.28-.017-.57-.043-.858-.069-.128-.008-.247-.025-.374-.034-.2-.017-.408-.043-.612-.068-.161-.017-.306-.034-.459-.06a3.955,3.955,0,0,1-.451-.068,2.124,2.124,0,0,1-.323-.051,14.815,14.815,0,0,1-2.763-.722,2.823,2.823,0,0,1-.365-.153,9.1,9.1,0,0,1-1.87-1.029c-3.162,3.409-7.923,8.772-12.487,14.757-.374.493-.748.986-1.122,1.487-.2.272-.417.561-.62.842-.748,1.012-1.471,2.04-2.185,3.068l-.229.332c-.332.484-.663.978-.986,1.471-1.241,1.879-2.4,3.757-3.426,5.61-.281.51-.544,1.012-.807,1.513-.043.085-.085.162-.128.247-.544,1.054-1.037,2.092-1.47,3.1a31.628,31.628,0,0,0-1.632,4.735,25.826,25.826,0,0,0-.544,2.924c-1.751,14.213,10.983,21.336,17.91,23.877" transform="translate(114.402 -69.204)" fill="#f6cfc6"/>
              <path id="Trazado_1055452" data-name="Trazado 1055452" d="M143.1,238.911c2.465,1.683,8.109,5.109,12.733,5,4.742-.112,5.871-4.209,6.139-6.041a.9.9,0,0,0-.737-1.016c-10.2-1.868-14.345-4.266-15.96-5.6a31.763,31.763,0,0,0-1.632,4.735,25.682,25.682,0,0,0-.544,2.924" transform="translate(57.002 -89.786)" fill="#fff"/>
              <path id="Trazado_1055453" data-name="Trazado 1055453" d="M135.251,216.508a.953.953,0,0,0,.916-.694c.062-.22,1.472-5.405-1.753-8.63-3.395-3.4-8.937.433-9.172.6a.954.954,0,0,0,1.1,1.561c.07-.049,4.47-3.068,6.728-.811,2.43,2.43,1.277,6.724,1.265,6.767a.954.954,0,0,0,.919,1.209" transform="translate(93.625 -79.898)" fill="#4b3d75"/>
              <path id="Trazado_1055454" data-name="Trazado 1055454" d="M237.653,306.33c1.653,4.856,5.886,9.375,9.051,9.33,2.422-.032,5.542-1.926,8-4.4a13.928,13.928,0,0,0,3.916-6.388c.965-4.678-.439-9.921,1.576-11.453,1.525-1.164,2.536-1.068,2.936-.954a.9.9,0,0,1,.2.076s-1.468,7.226,1.31,7.792,4.157.483,5.822-5.39,2.46-7.989-.534-9.788a7.941,7.941,0,0,0-2.823-.82c-4.372-.617-11.44.064-13.658.858-10.57,3.814-15.375,9.623-16.392,15.832a11.091,11.091,0,0,0,.6,5.307" transform="translate(-110.364 -110.302)" fill="#f6cfc6"/>
              <g id="Grupo_1230187" data-name="Grupo 1230187" transform="translate(126.577 173.791)" opacity="0.3" style="mix-blend-mode: overlay;isolation: isolate">
                <g id="Grupo_1230186" data-name="Grupo 1230186" transform="translate(0)">
                  <g id="Grupo_1230185" data-name="Grupo 1230185" clip-path="url(#clip-path-16)">
                    <path id="Trazado_1055455" data-name="Trazado 1055455" d="M245.384,306.33c4.774,1.03,14.6,2.37,16.786,4.691a2.264,2.264,0,0,0,.261.235,13.928,13.928,0,0,0,3.916-6.388c.965-4.678-.439-9.921,1.576-11.453,1.525-1.164,2.536-1.068,2.936-.954l.115-.267a42.551,42.551,0,0,1,3.5-5.9,2.086,2.086,0,0,0,.362-1.964c-4.372-.617-11.44.064-13.658.858C250.6,289,245.8,294.813,244.78,301.022a11.091,11.091,0,0,0,.6,5.307" transform="translate(-244.672 -284.093)" fill="#272525"/>
                  </g>
                </g>
              </g>
              <path id="Trazado_1055456" data-name="Trazado 1055456" d="M259.923,291.66c2.429-.412,7.51,2.134,11.916,5.694s6.924,7.838,4.69,10.664-11.594-3.185-16.083-5.974-6.229-9.416-.523-10.384" transform="translate(-127.637 -113.223)" fill="#f6cfc6"/>
              <path id="Trazado_1055457" data-name="Trazado 1055457" d="M271.073,302.56a.476.476,0,0,0,.411-.718,19.4,19.4,0,0,0-4.555-5.01,34.171,34.171,0,0,0-9-5.577.49.49,0,0,0-.637.451.474.474,0,0,0,.36.462,33.444,33.444,0,0,1,8.674,5.407,18.436,18.436,0,0,1,4.331,4.751.477.477,0,0,0,.412.235" transform="translate(-122.428 -113.073)" fill="#ffa8be"/>
              <path id="Trazado_1055458" data-name="Trazado 1055458" d="M276.891,313.032a3.545,3.545,0,0,0,1.144-.169.477.477,0,0,0-.308-.9c-2.823.965-10.253-3.669-14.246-6.157l-.571-.356a9.585,9.585,0,0,1-3.7-3.744.477.477,0,0,0-.864.4,10.517,10.517,0,0,0,4.058,4.15l.57.355c3.956,2.467,10.3,6.42,13.914,6.42" transform="translate(-129.852 -117.033)" fill="#ffa8be"/>
              <path id="Trazado_1055459" data-name="Trazado 1055459" d="M241.378,264.682l.572.96.833,1.4.648,1.1L249.87,279,261.78,299.08l3.414,2.148.814.508a.486.486,0,0,0,.743-.5l-.152-.953-.629-3.839-6.648-11.205L247.53,265.374l-.6-1.017-.826-1.392-.56-.935c-.165.064-.336.134-.508.21-.292.121-.585.267-.883.426a1.428,1.428,0,0,0-.216.114c-.076.039-.146.083-.217.121-.114.064-.229.127-.336.2-.007.006-.013.006-.019.013-.146.089-.292.19-.439.286q-.248.172-.5.362a11.849,11.849,0,0,0-1.049.922" transform="translate(-107.899 -101.736)" fill="#68cecf"/>
              <path id="Trazado_1055460" data-name="Trazado 1055460" d="M276.408,261.706l.833,1.4a11.869,11.869,0,0,1,4.163-2.651l-.75-1.271a2.483,2.483,0,0,0-2.091-1.214,2.661,2.661,0,0,0-.388.025,2.459,2.459,0,0,0-.953.356,2.4,2.4,0,0,0-.763.75,2.468,2.468,0,0,0-.051,2.606" transform="translate(-143.761 -100.159)" fill="#d48181"/>
              <g id="Grupo_1230190" data-name="Grupo 1230190" transform="translate(134.529 160.93)" opacity="0.5" style="mix-blend-mode: overlay;isolation: isolate">
                <g id="Grupo_1230189" data-name="Grupo 1230189" transform="translate(0)">
                  <g id="Grupo_1230188" data-name="Grupo 1230188" clip-path="url(#clip-path-17)">
                    <path id="Trazado_1055461" data-name="Trazado 1055461" d="M244.118,264.163l1.977,3.337,18.788,31.652a1.019,1.019,0,0,0,.877.5,1,1,0,0,0,.515-.139,1.016,1.016,0,0,0,.356-1.392l-18.845-31.76-1.945-3.286a10.664,10.664,0,0,0-1.723,1.093" transform="translate(-244.118 -263.07)" fill="#272525"/>
                  </g>
                </g>
              </g>
              <path id="Trazado_1055462" data-name="Trazado 1055462" d="M241.377,320.924l3.413,2.148.814.508a.487.487,0,0,0,.744-.5l-.153-.954-.629-3.839a5.339,5.339,0,0,0-1.557.375,5.275,5.275,0,0,0-1.716,1.086,4.813,4.813,0,0,0-.915,1.17" transform="translate(-87.495 -123.581)" fill="#f6ded8"/>
              <path id="Trazado_1055463" data-name="Trazado 1055463" d="M241.377,325.508l.814.508a.487.487,0,0,0,.744-.5l-.153-.954a5.183,5.183,0,0,0-1.4.941" transform="translate(-84.082 -126.017)" fill="#4b3d75"/>
              <path id="Trazado_1055464" data-name="Trazado 1055464" d="M272.809,264.682l.572.96.833,1.4.648,1.1a7,7,0,0,1,.973-1.049,7.722,7.722,0,0,1,1.69-1.144,9.441,9.441,0,0,1,1.436-.579l-.6-1.017-.826-1.392-.56-.935c-.165.064-.336.134-.508.21-.292.121-.585.267-.883.426a1.426,1.426,0,0,0-.216.114c-.076.039-.146.083-.217.121-.114.064-.229.127-.336.2-.153.1-.305.2-.458.3s-.331.236-.5.362a11.849,11.849,0,0,0-1.049.922" transform="translate(-139.329 -101.736)" fill="#dbf7ff"/>
              <path id="Trazado_1055465" data-name="Trazado 1055465" d="M273.8,266.235l.833,1.4a16.876,16.876,0,0,1,2.04-1.646,10.487,10.487,0,0,1,2.1-1.042l-.826-1.392a11.193,11.193,0,0,0-2.18,1.118,19.992,19.992,0,0,0-1.97,1.557" transform="translate(-139.744 -102.33)" fill="#a8dded"/>
              <g id="Grupo_1230193" data-name="Grupo 1230193" transform="translate(141.971 177.265)" opacity="0.3" style="mix-blend-mode: overlay;isolation: isolate">
                <g id="Grupo_1230192" data-name="Grupo 1230192" transform="translate(0)">
                  <g id="Grupo_1230191" data-name="Grupo 1230191" clip-path="url(#clip-path-18)">
                    <path id="Trazado_1055466" data-name="Trazado 1055466" d="M241.378,289.772l11.911,20.078L256.7,312l.814.509a.487.487,0,0,0,.743-.5l-.152-.953-.629-3.839-6.648-11.205c-.909-.464-1.786-.947-2.644-1.455q-2.041-1.211-3.871-2.536c-1.03-.731-2.008-1.487-2.936-2.25" transform="translate(-241.378 -289.772)" fill="#272525"/>
                  </g>
                </g>
              </g>
              <path id="Trazado_1055467" data-name="Trazado 1055467" d="M103.913,250.732a11.4,11.4,0,1,0,11.4-11.4,11.4,11.4,0,0,0-11.4,11.4" transform="translate(116.234 -92.922)" fill="#ffa8be"/>
              <path id="Trazado_1055468" data-name="Trazado 1055468" d="M36.284,362.171v16.366a1.547,1.547,0,0,0,1.545,1.545H319.063a1.547,1.547,0,0,0,1.545-1.545V362.171a1.548,1.548,0,0,0-1.545-1.551H37.829a1.548,1.548,0,0,0-1.545,1.551" transform="translate(-36.284 -140.015)" fill="#4b3d75"/>
              <rect id="Rectángulo_423984" data-name="Rectángulo 423984" width="266.126" height="24.305" transform="translate(7.767 240.067)" fill="#6a5a99"/>
              <g id="Grupo_1230196" data-name="Grupo 1230196" transform="translate(0 220.605)" opacity="0.3" style="mix-blend-mode: overlay;isolation: isolate">
                <g id="Grupo_1230195" data-name="Grupo 1230195">
                  <g id="Grupo_1230194" data-name="Grupo 1230194" clip-path="url(#clip-path-19)">
                    <path id="Trazado_1055469" data-name="Trazado 1055469" d="M226.636,362.171v16.366a1.547,1.547,0,0,0,1.545,1.545H234.4v24.3H394.514a139.376,139.376,0,0,1-31.811-24.3,117.717,117.717,0,0,1-15.28-19.462H228.181a1.548,1.548,0,0,0-1.545,1.551" transform="translate(-226.636 -360.62)" fill="#272525"/>
                  </g>
                </g>
              </g>
              <path id="Trazado_1055470" data-name="Trazado 1055470" d="M292.7,332.979v9.133h62.79v-8.745c-1.411,0-6.718-2.574-15.413-4.519-10.456-2.345-25.811-3.769-45.184,1.309a2.929,2.929,0,0,0-2.192,2.822" transform="translate(-228.034 -126.852)" fill="#fff"/>
              <path id="Trazado_1055471" data-name="Trazado 1055471" d="M252.847,332.978v9.133H190.055v-8.747c3.116,0,25.128-12.506,60.6-3.207a2.923,2.923,0,0,1,2.192,2.821" transform="translate(-62.591 -126.852)" fill="#fff"/>
              <path id="Trazado_1055472" data-name="Trazado 1055472" d="M184.62,353.256v2.6a1.37,1.37,0,0,0,1.367,1.373H315.481a1.375,1.375,0,0,0,1.373-1.373v-2.6a1.371,1.371,0,0,0-1.373-1.373H185.987a1.365,1.365,0,0,0-1.367,1.373" transform="translate(-123.273 -136.622)" fill="#ff7270"/>
              <g id="Grupo_1230199" data-name="Grupo 1230199" transform="translate(61.347 199.866)" opacity="0.3" style="mix-blend-mode: overlay;isolation: isolate">
                <g id="Grupo_1230198" data-name="Grupo 1230198">
                  <g id="Grupo_1230197" data-name="Grupo 1230197" clip-path="url(#clip-path-20)">
                    <path id="Trazado_1055473" data-name="Trazado 1055473" d="M282.72,343.485v2.6a1.37,1.37,0,0,0,1.367,1.373h70.855a57.364,57.364,0,0,1-9.019-5.345,46.739,46.739,0,0,1-12.5-13.265c-10.456-2.345-25.812-3.769-45.184,1.309a2.929,2.929,0,0,0-2.192,2.823v9.133h-1.958a1.365,1.365,0,0,0-1.367,1.373" transform="translate(-282.72 -326.718)" fill="#272525"/>
                  </g>
                </g>
              </g>
            </g>
          </g>
        </g>
      </g>
    </g>
  </g>
</svg>
