<svg xmlns="http://www.w3.org/2000/svg" xmlns:xlink="http://www.w3.org/1999/xlink" width="108" height="108" viewBox="0 0 108 108">
  <defs>
    <filter id="Trazado_904820" x="0" y="0" width="108" height="108" filterUnits="userSpaceOnUse">
      <feOffset dy="3" input="SourceAlpha"/>
      <feGaussianBlur stdDeviation="3" result="blur"/>
      <feFlood flood-opacity="0.161"/>
      <feComposite operator="in" in2="blur"/>
      <feComposite in="SourceGraphic"/>
    </filter>
  </defs>
  <g id="Grupo_1231946" data-name="Grupo 1231946" transform="translate(-619.477 -505.075)">
    <g id="Grupo_1230043" data-name="Grupo 1230043" transform="translate(0 -28.925)">
      <g id="Grupo_1229404" data-name="Grupo 1229404" transform="translate(0 61.321)">
        <g id="Grupo_1208347" data-name="Grupo 1208347" transform="translate(628.477 478.679)">
          <g id="Grupo_1207936" data-name="Grupo 1207936" transform="translate(0 0)">
            <g id="Grupo_1201662" data-name="Grupo 1201662">
              <g id="Grupo_1173585" data-name="Grupo 1173585">
                <g id="Grupo_1173428" data-name="Grupo 1173428">
                  <g id="Grupo_1171958" data-name="Grupo 1171958">
                    <g id="Grupo_1167341" data-name="Grupo 1167341">
                      <g id="Grupo_1166792" data-name="Grupo 1166792">
                        <g transform="matrix(1, 0, 0, 1, -9, -6)" filter="url(#Trazado_904820)">
                          <g id="Trazado_904820-2" data-name="Trazado 904820" transform="translate(9 6)" fill="#effbfe">
                            <path d="M 44.99999618530273 88.49999237060547 C 39.12687301635742 88.49999237060547 33.43022155761719 87.35006713867188 28.06829643249512 85.08216857910156 C 22.88852119445801 82.89130401611328 18.23629570007324 79.75457763671875 14.24084663391113 75.75914001464844 C 10.24540901184082 71.76369476318359 7.108683586120605 67.11146545410156 4.917821407318115 61.93169403076172 C 2.649921178817749 56.56976699829102 1.499996185302734 50.87311553955078 1.499996185302734 44.99999237060547 C 1.499996185302734 39.12686920166016 2.649921178817749 33.43021774291992 4.917821407318115 28.06829261779785 C 7.108683586120605 22.88851737976074 10.24540901184082 18.23630523681641 14.24084663391113 14.24085521697998 C 18.23629570007324 10.24540519714355 22.88852119445801 7.108692169189453 28.06829643249512 4.917829990386963 C 33.43022155761719 2.649929761886597 39.12687301635742 1.500004887580872 44.99999618530273 1.500004887580872 C 50.87311935424805 1.500004887580872 56.56977081298828 2.649929761886597 61.93169784545898 4.917829990386963 C 67.11147308349609 7.108692169189453 71.76369476318359 10.24540519714355 75.75914764404297 14.24085521697998 C 79.75458526611328 18.23630523681641 82.89131164550781 22.88851737976074 85.08216857910156 28.06829261779785 C 87.35007476806641 33.43021774291992 88.5 39.12686920166016 88.5 44.99999237060547 C 88.5 50.87311553955078 87.35007476806641 56.56976699829102 85.08216857910156 61.93169403076172 C 82.89131164550781 67.11146545410156 79.75458526611328 71.76369476318359 75.75914764404297 75.75914001464844 C 71.76369476318359 79.75457763671875 67.11147308349609 82.89130401611328 61.93169784545898 85.08216857910156 C 56.56977081298828 87.35006713867188 50.87311935424805 88.49999237060547 44.99999618530273 88.49999237060547 Z" stroke="none"/>
                            <path d="M 44.99999618530273 2.999992370605469 C 39.32870864868164 2.999992370605469 33.82865142822266 4.11004638671875 28.65262603759766 6.299331665039062 C 23.65165710449219 8.414566040039062 19.15968322753906 11.44333648681641 15.301513671875 15.30150604248047 C 11.44333648681641 19.15967559814453 8.414566040039062 23.65164947509766 6.299339294433594 28.65262222290039 C 4.110054016113281 33.82864761352539 2.999992370605469 39.32870483398438 2.999992370605469 44.99999237060547 C 2.999992370605469 50.67127990722656 4.110054016113281 56.17132186889648 6.299339294433594 61.34736633300781 C 8.414566040039062 66.34833526611328 11.44333648681641 70.84029388427734 15.301513671875 74.69846343994141 C 19.15968322753906 78.55663299560547 23.65165710449219 81.58540344238281 28.65262603759766 83.70063781738281 C 33.82865142822266 85.88992309570312 39.32870864868164 86.99997711181641 44.99999618530273 86.99997711181641 C 50.67128372192383 86.99997711181641 56.17134094238281 85.88992309570312 61.34736633300781 83.70063781738281 C 66.34834289550781 81.58540344238281 70.84030914306641 78.55663299560547 74.69847869873047 74.69846343994141 C 78.55665588378906 70.84029388427734 81.58542633056641 66.34833526611328 83.70065307617188 61.34736633300781 C 85.88993835449219 56.17132186889648 87 50.67127990722656 87 44.99999237060547 C 87 39.32870483398438 85.88993835449219 33.82864761352539 83.70065307617188 28.65262222290039 C 81.58542633056641 23.65164947509766 78.55665588378906 19.15967559814453 74.69847869873047 15.30150604248047 C 70.84030914306641 11.44333648681641 66.34834289550781 8.414566040039062 61.34736633300781 6.299331665039062 C 56.17134094238281 4.11004638671875 50.67128372192383 2.999992370605469 44.99999618530273 2.999992370605469 M 44.99999618530273 -7.62939453125e-06 C 69.85281372070312 -7.62939453125e-06 90 20.14717864990234 90 44.99999237060547 C 90 69.85279083251953 69.85281372070312 89.99997711181641 44.99999618530273 89.99997711181641 C 20.14717864990234 89.99997711181641 -7.62939453125e-06 69.85279083251953 -7.62939453125e-06 44.99999237060547 C -7.62939453125e-06 20.14717864990234 20.14717864990234 -7.62939453125e-06 44.99999618530273 -7.62939453125e-06 Z" stroke="none" fill="#497f88"/>
                          </g>
                        </g>
                      </g>
                    </g>
                  </g>
                </g>
              </g>
            </g>
          </g>
        </g>
      </g>
    </g>
    <g id="profesor_7_" data-name="profesor (7)" transform="translate(641.662 522.075)">
      <path id="Trazado_1232611" data-name="Trazado 1232611" d="M46,12v4.77A2.965,2.965,0,0,0,44,16c-13,0-13-5-13-5,0,5-5,5-5,5a2.965,2.965,0,0,0-2,.77V12a11,11,0,0,1,22,0Z" fill="#555a66"/>
      <path id="Trazado_1232612" data-name="Trazado 1232612" d="M35,1A10.994,10.994,0,0,0,24,12v4a11,11,0,0,1,22,0V12A10.994,10.994,0,0,0,35,1Z" fill="#414952"/>
      <path id="Trazado_1232613" data-name="Trazado 1232613" d="M37,59h1v4H36a2.006,2.006,0,0,1-2-2V56a3,3,0,0,0,3,3Z" fill="#cfa388"/>
      <path id="Trazado_1232614" data-name="Trazado 1232614" d="M37,59a3,3,0,0,1-3-3v2a3,3,0,0,0,3,3h1V59Z" fill="#b2876d"/>
      <path id="Trazado_1232615" data-name="Trazado 1232615" d="M38,47v6H37a3,3,0,0,0-3,3V49a2.006,2.006,0,0,1,2-2Z" fill="#cfa388"/>
      <path id="Trazado_1232616" data-name="Trazado 1232616" d="M48,59v4H38V59H48Z" fill="#966857"/>
      <path id="Trazado_1232617" data-name="Trazado 1232617" d="M48,59v2H38V59H48Z" fill="#8d5c4d"/>
      <path id="Trazado_1232618" data-name="Trazado 1232618" d="M48,47v6H38V47Z" fill="#966857"/>
      <path id="Trazado_1232619" data-name="Trazado 1232619" d="M35,36l-3,3-4-4V34l4-1Z" fill="#bec3d2"/>
      <path id="Trazado_1232620" data-name="Trazado 1232620" d="M42,34.07V35l-4,4-3-3,3-3Z" fill="#bec3d2"/>
      <path id="Trazado_1232621" data-name="Trazado 1232621" d="M38,39l-2,2H34l-2-2,3-3Z" fill="#4ab8f7"/>
      <path id="Trazado_1232622" data-name="Trazado 1232622" d="M36,41l1.38,6H36a2.006,2.006,0,0,0-2,2v7l-3-2,3-13Z" fill="#19cffc"/>
      <path id="Trazado_1232623" data-name="Trazado 1232623" d="M12,51a37.463,37.463,0,0,1-1,8s-7,0-7-8a4,4,0,0,0,8,0Z" fill="#bec3d2"/>
      <path id="Trazado_1232624" data-name="Trazado 1232624" d="M53,51h6.41c.06.39.12.79.17,1.2a5.963,5.963,0,0,1-1.64,4.96C57.42,53,53,53,53,53Z" fill="#bec3d2"/>
      <path id="Trazado_1232625" data-name="Trazado 1232625" d="M48,59h5v4H48Z" fill="#f2f6fc"/>
      <path id="Trazado_1232626" data-name="Trazado 1232626" d="M36,63H20V48L11,59a37.463,37.463,0,0,0,1-8l2-12,2-2,12-3v1l4,4,2,2L31,54l3,2v5A2.006,2.006,0,0,0,36,63Z" fill="#dce1eb"/>
      <path id="Trazado_1232627" data-name="Trazado 1232627" d="M53,51v2H48V47H37.38L36,41l2-2,4-4v-.93L53,37s4.73,3.38,6.41,14Z" fill="#dce1eb"/>
      <path id="Trazado_1232628" data-name="Trazado 1232628" d="M15,26v7H12V26Z" fill="#faa68e"/>
      <path id="Trazado_1232629" data-name="Trazado 1232629" d="M6,30h6v3H6Z" fill="#ffcdbe"/>
      <path id="Trazado_1232630" data-name="Trazado 1232630" d="M14,36a2.938,2.938,0,0,0-3,3H8L6,37V33h5a2.938,2.938,0,0,0,3,3Z" fill="#faa68e"/>
      <path id="Trazado_1232631" data-name="Trazado 1232631" d="M16,33v4l-2,2H11a2.938,2.938,0,0,1,3-3,2.938,2.938,0,0,1-3-3Z" fill="#ffbeaa"/>
      <path id="Trazado_1232632" data-name="Trazado 1232632" d="M14,39,12,51a4,4,0,0,1-8,0L8,39Z" fill="#ffcdbe"/>
      <path id="Trazado_1232633" data-name="Trazado 1232633" d="M10,54a4,4,0,0,1-4-4L9.667,39H8L4,51a3.988,3.988,0,0,0,6.708,2.929A4.036,4.036,0,0,1,10,54Z" fill="#ffbeaa"/>
      <path id="Trazado_1232634" data-name="Trazado 1232634" d="M53,53s4.42,0,4.94,4.16A5.929,5.929,0,0,1,53.63,59H37a3,3,0,1,1,0-6Z" fill="#ffcdbe"/>
      <path id="Trazado_1232635" data-name="Trazado 1232635" d="M53.63,57H37a2.963,2.963,0,0,1-2.816-2A2.991,2.991,0,0,0,37,59H53.63a5.929,5.929,0,0,0,4.31-1.84,4.884,4.884,0,0,0-.462-1.568A5.92,5.92,0,0,1,53.63,57Z" fill="#ffbeaa"/>
      <g id="Grupo_1231945" data-name="Grupo 1231945">
        <path id="Trazado_1232636" data-name="Trazado 1232636" d="M38,30.48V33l-3,3-3-3V30.48a8.914,8.914,0,0,0,6,0Z" fill="#faa68e"/>
        <path id="Trazado_1232637" data-name="Trazado 1232637" d="M24,16.77A2.965,2.965,0,0,1,26,16v6a3,3,0,0,1-3-3A2.94,2.94,0,0,1,24,16.77Z" fill="#faa68e"/>
        <path id="Trazado_1232638" data-name="Trazado 1232638" d="M44,16a3,3,0,0,1,0,6Z" fill="#faa68e"/>
      </g>
      <path id="Trazado_1232639" data-name="Trazado 1232639" d="M44,16v6a9,9,0,0,1-18,0V16s5,0,5-5C31,11,31,16,44,16Z" fill="#ffcdbe"/>
      <path id="Trazado_1232640" data-name="Trazado 1232640" d="M31,11c0,5-5,5-5,5v2s5,0,5-5c0,0,0,5,13,5V16C31,16,31,11,31,11Z" fill="#ffbeaa"/>
      <path id="Trazado_1232641" data-name="Trazado 1232641" d="M35,32A10.011,10.011,0,0,1,25,22V16a1,1,0,0,1,1-1,3.85,3.85,0,0,0,4-4,1,1,0,1,1,2,0c0,.008.411,4,12,4a1,1,0,0,1,1,1v6A10.011,10.011,0,0,1,35,32ZM27,16.915V22a8,8,0,0,0,16,0V16.99c-6.784-.138-10.03-1.684-11.583-3.178A5.821,5.821,0,0,1,27,16.915Z"/>
      <path id="Trazado_1232642" data-name="Trazado 1232642" d="M44,23V21a2,2,0,0,0,0-4V15a4,4,0,0,1,0,8Z"/>
      <path id="Trazado_1232643" data-name="Trazado 1232643" d="M26,23a4,4,0,0,1,0-8v2a2,2,0,0,0,0,4Z"/>
      <path id="Trazado_1232644" data-name="Trazado 1232644" d="M47,17H45V12a10,10,0,0,0-20,0v5H23V12a12,12,0,1,1,24,0Z"/>
      <path id="Trazado_1232645" data-name="Trazado 1232645" d="M35,27a4,4,0,0,1-4-4h2a2,2,0,0,0,4,0h2A4,4,0,0,1,35,27Z"/>
      <path id="Trazado_1232646" data-name="Trazado 1232646" d="M31,18h2v2H31Z"/>
      <path id="Trazado_1232647" data-name="Trazado 1232647" d="M37,18h2v2H37Z"/>
      <path id="Trazado_1232648" data-name="Trazado 1232648" d="M35,37a1,1,0,0,1-.707-.293l-3-3A1,1,0,0,1,31,33V30h2v2.586l2,2,2-2V30h2v3a1,1,0,0,1-.293.707l-3,3A1,1,0,0,1,35,37Z"/>
      <path id="Trazado_1232649" data-name="Trazado 1232649" d="M53.633,60H37a4,4,0,0,1,0-8H52V46h2v7a1,1,0,0,1-1,1H37a2,2,0,0,0,0,4H53.633a4.987,4.987,0,0,0,3.749-1.7,5.038,5.038,0,0,0,1.209-3.975C57.3,42.416,53.3,38.562,52.538,37.912l-14.8-3.946.516-1.932,15,4a1,1,0,0,1,.323.152c.222.159,5.447,4.015,6.993,15.881A7.014,7.014,0,0,1,53.633,60Z"/>
      <path id="Trazado_1232650" data-name="Trazado 1232650" d="M48,64H36a3,3,0,0,1-3-3V49a3,3,0,0,1,3-3H48a1,1,0,0,1,1,1v6H47V48H36a1,1,0,0,0-1,1V61a1,1,0,0,0,1,1H47V59h2v4A1,1,0,0,1,48,64Z"/>
      <path id="Trazado_1232651" data-name="Trazado 1232651" d="M37,47h2v6H37Z"/>
      <path id="Trazado_1232652" data-name="Trazado 1232652" d="M37,59h2v4H37Z"/>
      <path id="Trazado_1232653" data-name="Trazado 1232653" d="M53,64H48V62h4V59h2v4A1,1,0,0,1,53,64Z"/>
      <path id="Trazado_1232654" data-name="Trazado 1232654" d="M8,56a5.006,5.006,0,0,1-5-5,1,1,0,0,1,.051-.316l4-12A1,1,0,0,1,8,38h6a1,1,0,0,1,.986,1.165L13,51.087A5,5,0,0,1,8,56ZM5,51.151A3,3,0,1,0,11,51a.919.919,0,0,1,.014-.165L12.819,40h-4.1Z"/>
      <path id="Trazado_1232655" data-name="Trazado 1232655" d="M14.707,39.707l-1.414-1.414L15,36.586V36a1,1,0,0,1-1,1,1.882,1.882,0,0,0-2,2H10a3.791,3.791,0,0,1,1.27-2.995A4.226,4.226,0,0,1,10,33a1,1,0,0,1,1-1h5a1,1,0,0,1,1,1v4a1,1,0,0,1-.293.707ZM12.224,34A1.787,1.787,0,0,0,14,35a1,1,0,0,1,1,1V34Z"/>
      <path id="Trazado_1232656" data-name="Trazado 1232656" d="M16,33H14V27H13v6H11V26a1,1,0,0,1,1-1h3a1,1,0,0,1,1,1Z"/>
      <path id="Trazado_1232657" data-name="Trazado 1232657" d="M11,34H6a1,1,0,0,1-1-1V30a1,1,0,0,1,1-1h6v2H7v1h4Z"/>
      <path id="Trazado_1232658" data-name="Trazado 1232658" d="M7.293,39.707l-2-2A1,1,0,0,1,5,37V33H7v3.586l1.707,1.707Z"/>
      <path id="Trazado_1232659" data-name="Trazado 1232659" d="M56.948,57.284C56.553,54.123,53.358,54,53,54V52a5.818,5.818,0,0,1,5.932,5.036Z"/>
      <path id="Trazado_1232660" data-name="Trazado 1232660" d="M53,50h7v2H53Z"/>
      <path id="Trazado_1232661" data-name="Trazado 1232661" d="M15.754,34H32.246v2H15.754Z" transform="translate(-7.775 6.87) rotate(-14.064)"/>
      <path id="Trazado_1232662" data-name="Trazado 1232662" d="M36,64H20a1,1,0,0,1-1-1V50.8l-7.226,8.832A1,1,0,0,1,11,60c-.08,0-8-.1-8-9H5c0,5.831,4.147,6.805,5.553,6.968l8.673-10.6A1,1,0,0,1,21,48V62H36Z"/>
      <path id="Trazado_1232663" data-name="Trazado 1232663" d="M11.97,59.243l-1.94-.486A36.786,36.786,0,0,0,11,51h2a38.156,38.156,0,0,1-1.03,8.243Z"/>
      <path id="Trazado_1232664" data-name="Trazado 1232664" d="M38,40a1,1,0,0,1-.707-.293L35,37.414l-2.293,2.293a1,1,0,0,1-1.414,0l-4-4A1,1,0,0,1,27,35V34h2v.586l3,3,2.293-2.293a1,1,0,0,1,1.414,0L38,37.586l3-3V34h2v1a1,1,0,0,1-.293.707l-4,4A1,1,0,0,1,38,40Z"/>
      <path id="Trazado_1232665" data-name="Trazado 1232665" d="M36,42H34a1,1,0,0,1-.707-.293l-2-2,1.414-1.414L34.414,40h1.172l1.707-1.707,1.414,1.414-2,2A1,1,0,0,1,36,42Z"/>
      <path id="Trazado_1232666" data-name="Trazado 1232666" d="M33.445,56.832l-3-2a1,1,0,0,1-.42-1.057l3-13,1.95.45L32.13,53.551l2.425,1.617Z"/>
      <path id="Trazado_1232667" data-name="Trazado 1232667" d="M35.69,40.922h2v6.157h-2Z" transform="translate(-8.928 9.343) rotate(-12.939)"/>
      <path id="Trazado_1232668" data-name="Trazado 1232668" d="M13,17h2v6H13Z"/>
      <path id="Trazado_1232669" data-name="Trazado 1232669" d="M15.172,20h5.657v2H15.172Z" transform="translate(-9.577 18.879) rotate(-45)"/>
      <path id="Trazado_1232670" data-name="Trazado 1232670" d="M9,18.172h2v5.657H9Z" transform="translate(-11.92 13.222) rotate(-45)"/>
    </g>
  </g>
</svg>
