<svg xmlns="http://www.w3.org/2000/svg" xmlns:xlink="http://www.w3.org/1999/xlink" width="98" height="98" viewBox="0 0 98 98">
  <defs>
    <filter id="Trazado_982547" x="0" y="0" width="98" height="98" filterUnits="userSpaceOnUse">
      <feOffset dy="3" input="SourceAlpha"/>
      <feGaussianBlur stdDeviation="3" result="blur"/>
      <feFlood flood-opacity="0.161"/>
      <feComposite operator="in" in2="blur"/>
      <feComposite in="SourceGraphic"/>
    </filter>
    <clipPath id="clip-path">
      <path id="path8121" d="M0-682.665H48.414v48.414H0Z" transform="translate(0 682.665)"/>
    </clipPath>
  </defs>
  <g id="Grupo_1231973" data-name="Grupo 1231973" transform="translate(-825.778 -307)">
    <g id="Grupo_1231283" data-name="Grupo 1231283" transform="translate(0.627 -471)">
      <g id="Grupo_1230080" data-name="Grupo 1230080" transform="translate(0 -1514)">
        <g id="Grupo_1229591" data-name="Grupo 1229591" transform="translate(834.151 2298)">
          <g id="Grupo_1208936" data-name="Grupo 1208936" transform="translate(0)">
            <g id="Grupo_1208171" data-name="Grupo 1208171">
              <g id="Grupo_1207739" data-name="Grupo 1207739">
                <g id="Grupo_1207712" data-name="Grupo 1207712">
                  <g id="Grupo_1207285" data-name="Grupo 1207285">
                    <g id="Grupo_1206883" data-name="Grupo 1206883">
                      <g id="Grupo_1204569" data-name="Grupo 1204569">
                        <g id="Grupo_1203962" data-name="Grupo 1203962">
                          <g id="Grupo_1203498" data-name="Grupo 1203498">
                            <g id="Grupo_1202589" data-name="Grupo 1202589">
                              <g id="Grupo_1172010" data-name="Grupo 1172010">
                                <g id="Grupo_1171046" data-name="Grupo 1171046">
                                  <g id="Grupo_1148525" data-name="Grupo 1148525">
                                    <g transform="matrix(1, 0, 0, 1, -9, -6)" filter="url(#Trazado_982547)">
                                      <g id="Trazado_982547-2" data-name="Trazado 982547" transform="translate(9 6)" fill="#fdfbec">
                                        <path d="M 39.99999237060547 78.49998474121094 C 34.8018684387207 78.49998474121094 29.76002502441406 77.48226165771484 25.0145263671875 75.47508239746094 C 20.43014717102051 73.53604888916016 16.31264877319336 70.75984954833984 12.77639198303223 67.22359466552734 C 9.240137100219727 63.68733596801758 6.463936805725098 59.5698356628418 4.524903297424316 54.98546981811523 C 2.517725706100464 50.23995971679688 1.500003457069397 45.19811630249023 1.500003457069397 39.99999237060547 C 1.500003457069397 34.8018684387207 2.517725706100464 29.76002502441406 4.524903297424316 25.0145263671875 C 6.463936805725098 20.43014717102051 9.240137100219727 16.31264877319336 12.77639198303223 12.77639198303223 C 16.31264877319336 9.240137100219727 20.43014717102051 6.463936805725098 25.0145263671875 4.524903297424316 C 29.76002502441406 2.517725706100464 34.8018684387207 1.500003457069397 39.99999237060547 1.500003457069397 C 45.19811630249023 1.500003457069397 50.23995971679688 2.517725706100464 54.98546981811523 4.524903297424316 C 59.5698356628418 6.463936805725098 63.68733596801758 9.240137100219727 67.22359466552734 12.77639198303223 C 70.75984954833984 16.31264877319336 73.53604888916016 20.43014717102051 75.47508239746094 25.0145263671875 C 77.48226165771484 29.76002502441406 78.49998474121094 34.8018684387207 78.49998474121094 39.99999237060547 C 78.49998474121094 45.19812393188477 77.48226165771484 50.23995971679688 75.47508239746094 54.98546981811523 C 73.53604888916016 59.5698356628418 70.75984954833984 63.68733596801758 67.22359466552734 67.22359466552734 C 63.68733596801758 70.75984954833984 59.5698356628418 73.53604888916016 54.98546981811523 75.47508239746094 C 50.23995971679688 77.48226165771484 45.19812393188477 78.49998474121094 39.99999237060547 78.49998474121094 Z" stroke="none"/>
                                        <path d="M 39.99999237060547 2.999992370605469 C 35.00370025634766 2.999992370605469 30.1584587097168 3.97784423828125 25.59884643554688 5.906402587890625 C 21.19327163696289 7.769805908203125 17.23603057861328 10.43805694580078 13.83704376220703 13.83704376220703 C 10.43805694580078 17.23603057861328 7.769805908203125 21.19327163696289 5.906402587890625 25.59884643554688 C 3.97784423828125 30.1584587097168 2.999992370605469 35.00370025634766 2.999992370605469 39.99999237060547 C 2.999992370605469 44.99628448486328 3.97784423828125 49.84152603149414 5.906402587890625 54.40113830566406 C 7.769805908203125 58.80671310424805 10.43805694580078 62.76395416259766 13.83704376220703 66.16294097900391 C 17.23603057861328 69.56191253662109 21.19327163696289 72.23016357421875 25.59884643554688 74.09356689453125 C 30.1584587097168 76.02212524414062 35.00370025634766 76.99997711181641 39.99999237060547 76.99997711181641 C 44.99628448486328 76.99997711181641 49.84152603149414 76.02212524414062 54.40113830566406 74.09356689453125 C 58.80671310424805 72.23016357421875 62.76395416259766 69.56191253662109 66.16294097900391 66.16294097900391 C 69.56191253662109 62.76395416259766 72.23016357421875 58.80671310424805 74.09356689453125 54.40113830566406 C 76.02212524414062 49.84152603149414 76.99997711181641 44.99628448486328 76.99997711181641 39.99999237060547 C 76.99997711181641 35.00370025634766 76.02212524414062 30.1584587097168 74.09356689453125 25.59884643554688 C 72.23016357421875 21.19327163696289 69.56191253662109 17.23603057861328 66.16294097900391 13.83704376220703 C 62.76395416259766 10.43805694580078 58.80671310424805 7.769805908203125 54.40113830566406 5.906402587890625 C 49.84152603149414 3.97784423828125 44.99628448486328 2.999992370605469 39.99999237060547 2.999992370605469 M 39.99999237060547 -7.62939453125e-06 C 62.09137725830078 -7.62939453125e-06 79.99997711181641 17.90860748291016 79.99997711181641 39.99999237060547 C 79.99997711181641 62.09137725830078 62.09137725830078 79.99997711181641 39.99999237060547 79.99997711181641 C 17.90860748291016 79.99997711181641 -7.62939453125e-06 62.09137725830078 -7.62939453125e-06 39.99999237060547 C -7.62939453125e-06 17.90860748291016 17.90860748291016 -7.62939453125e-06 39.99999237060547 -7.62939453125e-06 Z" stroke="none" fill="#83793c"/>
                                      </g>
                                    </g>
                                  </g>
                                </g>
                              </g>
                            </g>
                          </g>
                        </g>
                      </g>
                    </g>
                  </g>
                  <g id="g8115" transform="translate(15.793 15.793)">
                    <g id="g8117">
                      <g id="g8119" clip-path="url(#clip-path)">
                        <g id="g8125" transform="translate(-33.259 0.709)">
                          <path id="path8127" d="M-338.457-377.826h-25.835v-25.108c5.31-7.679,37.755-5.416,25.835,25.108" transform="translate(364.292 406.667)" fill="#fbdf63"/>
                        </g>
                        <g id="g8129" transform="translate(-33.259 0.709)">
                          <path id="path8131" d="M-338.457-377.826h-.619c6.164-24.728-15.887-30.6-25.216-24.374v-.734c5.31-7.679,37.755-5.416,25.835,25.108" transform="translate(364.292 406.667)" fill="#f9d11f"/>
                        </g>
                      </g>
                    </g>
                    <g id="g8265">
                      <g id="g8267" clip-path="url(#clip-path)">
                        <g id="g8273" transform="translate(-33.259 51.036)">
                          <path id="path8275" d="M-338.457-377.654h-25.835v-25.1c5.31-7.676,37.755-5.413,25.835,25.1" transform="translate(364.292 406.481)" fill="#003343"/>
                        </g>
                        <g id="g8277" transform="translate(-33.259 51.036)">
                          <path id="path8279" d="M-338.457-377.654h-.619c6.164-24.717-15.887-30.585-25.216-24.362v-.734c5.31-7.676,37.755-5.413,25.835,25.1" transform="translate(364.292 406.481)" fill="#002439"/>
                        </g>
                      </g>
                    </g>
                    <g id="g8281">
                      <g id="g8283" clip-path="url(#clip-path)">
                        <g id="g8289" transform="translate(17.066 51.014)">
                          <path id="path8291" d="M-338.457-377.826h-25.835v-25.108c5.31-7.679,37.755-5.416,25.835,25.108" transform="translate(364.292 406.667)" fill="#ff7e50"/>
                        </g>
                        <g id="g8293" transform="translate(17.066 51.014)">
                          <path id="path8295" d="M-338.457-377.826h-.619c6.164-24.728-15.887-30.6-25.216-24.374v-.734c5.31-7.679,37.755-5.416,25.835,25.108" transform="translate(364.292 406.667)" fill="#ff6247"/>
                        </g>
                        <g id="g8297" transform="translate(2.941 54.225)">
                          <path id="path8299" d="M-233.028-131.751v15.573h-14.6c-12.2-25.649,14.6-34.273,14.6-15.573" transform="translate(250.816 141.808)" fill="#ffa68a"/>
                        </g>
                        <g id="g8301" transform="translate(2.941 54.225)">
                          <path id="path8303" d="M-233.028-131.751c-.9-16.1-20.23-9.82-14.176,15.573h-.427c-12.2-25.649,14.6-34.273,14.6-15.573" transform="translate(250.816 141.808)" fill="#ff7e50"/>
                        </g>
                      </g>
                    </g>
                  </g>
                </g>
              </g>
            </g>
          </g>
        </g>
      </g>
    </g>
    <g id="schedules_6192788" transform="translate(847.549 323.539)">
      <path id="Trazado_1248448" data-name="Trazado 1248448" d="M20.726,182.341H15.449a8.118,8.118,0,0,0-8.118,8.118v5.334H28.844v-5.334A8.118,8.118,0,0,0,20.726,182.341Z" transform="translate(-1.993 -141.45)" fill="#13bf6d"/>
      <path id="Trazado_1248449" data-name="Trazado 1248449" d="M93.076,227.313h4.111v4.325H93.076Z" transform="translate(-70.336 -177.295)" fill="#ffb69f"/>
      <path id="Trazado_1248450" data-name="Trazado 1248450" d="M45.235,110.8l-.674.684H33.786v-1.561a2.446,2.446,0,0,1,2.446-2.444h5.81a1.85,1.85,0,0,0,1.817-1.5l.976.667A2.724,2.724,0,0,1,45.235,110.8Z" transform="translate(-23.079 -80.583)" fill="#7c7b7a"/>
      <path id="Trazado_1248451" data-name="Trazado 1248451" d="M36.879,135.455h-.547v-2.331H25.556v2.334h-.541a1.55,1.55,0,1,0,0,3.1h.628a5.391,5.391,0,0,0,10.606,0h.63a1.551,1.551,0,0,0,0-3.1Z" transform="translate(-14.851 -102.222)" fill="#ffb69f"/>
      <path id="Trazado_1248452" data-name="Trazado 1248452" d="M7.333,227.313h4.13v4.325H7.333Z" transform="translate(-1.995 -177.295)" fill="#ffb69f"/>
      <path id="Trazado_1248453" data-name="Trazado 1248453" d="M117.966,7.374A14.758,14.758,0,0,0,106.25,31.109l-1.5,4.245,4-1.693a14.76,14.76,0,1,0,9.216-26.287Z" transform="translate(-78.409 -1.993)" fill="#72c2e9"/>
      <path id="Trazado_1248454" data-name="Trazado 1248454" d="M150.217,25.941l-6.5-6.5a1.421,1.421,0,0,0-2.009,0l-6.5,6.5a1.421,1.421,0,0,0-.176,1.794L141.29,37.1V40.23a.476.476,0,1,1-.951,0V38.347a3.044,3.044,0,0,0-6.088,0v.913a1.421,1.421,0,0,0,2.841,0v-.913a.2.2,0,1,1,.406,0V40.23a3.317,3.317,0,1,0,6.634,0V37.1l6.262-9.365A1.421,1.421,0,0,0,150.217,25.941Z" transform="translate(-103.155 -11.278)" fill="#4ba5c8"/>
      <path id="Trazado_1248455" data-name="Trazado 1248455" d="M149.6,166.473a7.431,7.431,0,0,0-7.3,6.06l-2.849,1.37,2.849,1.37a7.43,7.43,0,1,0,7.3-8.8Z" transform="translate(-107.3 -128.803)" fill="#fc5d3d"/>
      <path id="Trazado_1248456" data-name="Trazado 1248456" d="M174.073,171.4a3.925,3.925,0,0,0-2.678,6.793l.342,4.473a1.631,1.631,0,0,0,1.619,1.5h1.434a1.631,1.631,0,0,0,1.619-1.5l.344-4.477a3.925,3.925,0,0,0-2.68-6.791Z" transform="translate(-131.768 -132.73)" fill="#b25035"/>
      <path id="Trazado_1248457" data-name="Trazado 1248457" d="M14.571,20.939a7.431,7.431,0,0,0,6.06,7.3L22,30.557l1.37-2.316a7.43,7.43,0,1,0-8.8-7.3Z" transform="translate(-7.764 -6.883)" fill="#efefef"/>
      <g id="Grupo_1232294" data-name="Grupo 1232294" transform="translate(9.079 8.708)">
        <path id="Trazado_1248458" data-name="Trazado 1248458" d="M32.562,24.375l-3.153,2.981h0a3.3,3.3,0,0,0-2.35.973c-.983.983-1.231,3.242-1.292,4.5a1.421,1.421,0,0,0,1.487,1.487c1.259-.061,3.519-.309,4.5-1.292a3.334,3.334,0,0,0,.973-2.352l2.984-3.156a2.226,2.226,0,0,0-3.149-3.144Z" transform="translate(-25.764 -23.768)" fill="#afafaf"/>
      </g>
      <path id="Trazado_1248459" data-name="Trazado 1248459" d="M150.4,42.249l-6.5-9.724,6.5-6.5,6.5,6.5Z" transform="translate(-110.845 -16.857)" fill="#f0c020"/>
      <path id="Trazado_1248460" data-name="Trazado 1248460" d="M36.329,51.7c-.741.741-3.565.877-3.565.877s.136-2.824.877-3.565A1.9,1.9,0,1,1,36.329,51.7Z" transform="translate(-22.264 -34.732)" fill="#fc5d3d"/>
      <path id="Trazado_1248461" data-name="Trazado 1248461" d="M47.5,35.761a1.909,1.909,0,0,0-1.336-1.336L49.8,30.99a.805.805,0,0,1,1.138,1.138Z" transform="translate(-32.947 -20.641)" fill="#f0c020"/>
      <path id="Trazado_1248462" data-name="Trazado 1248462" d="M182.155,180.9a2.5,2.5,0,0,1-1.191,2.131l-2.62,0a2.5,2.5,0,1,1,3.811-2.133Z" transform="translate(-137.347 -138.309)" fill="#f0c020"/>
      <path id="Trazado_1248463" data-name="Trazado 1248463" d="M185.651,201.24l-.391,5.1a.2.2,0,0,1-.2.188h-1.434a.2.2,0,0,1-.2-.188l-.389-5.1Z" transform="translate(-142.035 -156.514)" fill="#efefef"/>
      <g id="Grupo_1232295" data-name="Grupo 1232295" transform="translate(6.976 42.413)">
        <path id="Trazado_1248464" data-name="Trazado 1248464" d="M15.809,195.751a.507.507,0,0,1-.4-.6,6.53,6.53,0,0,1,.161-.64.507.507,0,0,1,.97.3,5.526,5.526,0,0,0-.136.541A.507.507,0,0,1,15.809,195.751Zm.851-2.485a.507.507,0,0,1-.111-.709,6.624,6.624,0,0,1,5.332-2.717h5.277a.507.507,0,0,1,0,1.015H21.881a5.606,5.606,0,0,0-4.512,2.3A.508.508,0,0,1,16.66,193.267Z" transform="translate(-15.4 -189.841)" fill="#76ffbb"/>
      </g>
      <g id="Grupo_1232296" data-name="Grupo 1232296" transform="translate(41.82 7.794)">
        <path id="Trazado_1248465" data-name="Trazado 1248465" d="M187.1,44.149a.507.507,0,0,1,.385-.606,12.222,12.222,0,0,0,4.073-22.13.507.507,0,0,1,.561-.846,13.236,13.236,0,0,1-4.413,23.966A.508.508,0,0,1,187.1,44.149Zm2.755-23.678c-.178-.08-.359-.157-.539-.229a.507.507,0,1,1,.374-.943c.195.077.391.161.583.248a.507.507,0,1,1-.419.924Z" transform="translate(-187.092 -19.264)" fill="#c5e5fe"/>
      </g>
      <g id="Grupo_1232297" data-name="Grupo 1232297" transform="translate(26.318 7.398)">
        <path id="Trazado_1248466" data-name="Trazado 1248466" d="M113.435,38.1c-.128-.167-.253-.339-.373-.51a.507.507,0,1,1,.833-.58c.111.159.227.318.346.473a.507.507,0,1,1-.805.617ZM112,35.773a13.07,13.07,0,0,1-1.294-5.717,13.3,13.3,0,0,1,9.578-12.724.507.507,0,0,1,.281.975,12.284,12.284,0,0,0-8.844,11.749,12.072,12.072,0,0,0,1.194,5.277.507.507,0,1,1-.914.44Z" transform="translate(-110.705 -17.312)" fill="#c5e5fe"/>
      </g>
      <g id="Grupo_1232298" data-name="Grupo 1232298" transform="translate(40.679 13.159)">
        <path id="Trazado_1248467" data-name="Trazado 1248467" d="M181.764,52.159a.507.507,0,0,1-.14-.7l.338-.506a.507.507,0,0,1,.843.564l-.338.506A.507.507,0,0,1,181.764,52.159Zm1.467-2.193a.507.507,0,0,1-.14-.7l.491-.734-1.964-1.964a.507.507,0,0,1,.718-.717l2.259,2.258a.507.507,0,0,1,.063.641l-.723,1.08A.508.508,0,0,1,183.231,49.966Z" transform="translate(-181.469 -45.698)" fill="#f8e5b0"/>
      </g>
      <path id="Trazado_1248468" data-name="Trazado 1248468" d="M54.225,161.985a.51.51,0,0,0-.3-.654.52.52,0,0,0-.653.3,1.174,1.174,0,0,1-1.094.757,1.157,1.157,0,0,1-1.094-.755.516.516,0,0,0-.651-.3.51.51,0,0,0-.3.654v0a2.185,2.185,0,0,0,4.089,0Z" transform="translate(-36.085 -124.681)"/>
      <path id="Trazado_1248469" data-name="Trazado 1248469" d="M46.489,144.7a.507.507,0,1,0-1.015,0v.317a.507.507,0,1,0,1.015,0Z" transform="translate(-32.395 -111.045)"/>
      <path id="Trazado_1248470" data-name="Trazado 1248470" d="M70.688,145.527a.507.507,0,0,0,.507-.507V144.7a.507.507,0,0,0-1.015,0v.317A.507.507,0,0,0,70.688,145.527Z" transform="translate(-52.088 -111.046)"/>
      <path id="Trazado_1248471" data-name="Trazado 1248471" d="M58.335,148.22a.507.507,0,0,0,.507-.507v-1.447a.507.507,0,1,0-1.015,0v1.447A.507.507,0,0,0,58.335,148.22Z" transform="translate(-42.242 -112.292)"/>
      <path id="Trazado_1248472" data-name="Trazado 1248472" d="M115.973,4.874A15.285,15.285,0,0,0,100.7,20.142a15.12,15.12,0,0,0,2.983,9.062l-1.413,3.988a.508.508,0,0,0,.676.637l3.729-1.577a15.093,15.093,0,0,0,9.293,3.158,15.268,15.268,0,1,0,0-30.536Zm0,29.522a14.1,14.1,0,0,1-8.9-3.123.508.508,0,0,0-.515-.071l-2.944,1.245,1.119-3.16a.507.507,0,0,0-.076-.478,14.119,14.119,0,0,1-2.94-8.666A14.253,14.253,0,1,1,115.973,34.4Z" transform="translate(-76.417)"/>
      <path id="Trazado_1248473" data-name="Trazado 1248473" d="M212.845,174.711a.507.507,0,0,0-.024-.716.52.52,0,0,0-.716.024.507.507,0,1,0,.741.692Z" transform="translate(-165.099 -134.693)"/>
      <path id="Trazado_1248474" data-name="Trazado 1248474" d="M151.485,165.544a.508.508,0,0,0-.217-.684h0a7.945,7.945,0,0,0-3.653-.891h-.007a7.936,7.936,0,0,0-7.742,6.219l-2.622,1.261a.508.508,0,0,0,0,.914l2.622,1.261a7.937,7.937,0,0,0,15.686-1.714s0,0,0-.005v0a7.911,7.911,0,0,0-1.155-4.12.5.5,0,0,0-.7-.17.509.509,0,0,0-.17.7,6.912,6.912,0,0,1,1.007,3.592s0,0,0,0a6.922,6.922,0,0,1-13.726,1.277.507.507,0,0,0-.279-.364l-1.9-.913,1.9-.913a.507.507,0,0,0,.279-.364,6.92,6.92,0,0,1,6.8-5.645h0a6.845,6.845,0,0,1,3.184.777A.508.508,0,0,0,151.485,165.544Z" transform="translate(-105.31 -126.807)"/>
      <path id="Trazado_1248475" data-name="Trazado 1248475" d="M4.831,203.129v5.331a.507.507,0,0,0,1.015,0v-3.818H8.961v3.818a.507.507,0,0,0,1.015,0v-6.818a.507.507,0,0,0-1.015,0v1.985H5.846v-.5s0,0,0,0a7.582,7.582,0,0,1,1.208-4.111.508.508,0,0,0-.152-.7.522.522,0,0,0-.7.152,8.6,8.6,0,0,0-1.368,4.664A.014.014,0,0,0,4.831,203.129Z" transform="translate(0 -154.117)"/>
      <path id="Trazado_1248476" data-name="Trazado 1248476" d="M18.426,191.466l0,0a.507.507,0,0,0,.024-.716.522.522,0,0,0-.716-.026,0,0,0,0,1,0,0,.508.508,0,0,0,.692.743Z" transform="translate(-10.158 -148.026)"/>
      <path id="Trazado_1248477" data-name="Trazado 1248477" d="M21.978,120.713a.507.507,0,0,0,.69.2,7.612,7.612,0,0,1,3.646-.93h5.278A7.619,7.619,0,0,1,39.2,127.6v.5h-3.1v-1.985a.507.507,0,0,0-1.015,0v6.818a.507.507,0,1,0,1.015,0v-3.818h3.1v3.818a.507.507,0,0,0,1.015,0V127.6a8.636,8.636,0,0,0-8.113-8.609,5.53,5.53,0,0,0,2.566-3.557,2.064,2.064,0,1,0,.178-4.116V109.7l.53-.538a3.231,3.231,0,0,0-.474-4.933l-.976-.668a.508.508,0,0,0-.785.324,1.344,1.344,0,0,1-1.319,1.092h-5.81a2.956,2.956,0,0,0-2.954,2.952c0,1.85,0,1.537,0,3.387a2.063,2.063,0,1,0,.183,4.114,5.561,5.561,0,0,0,2.554,3.557,8.648,8.648,0,0,0-3.613,1.037.508.508,0,0,0-.2.688Zm12.87-8.383a1.044,1.044,0,1,1-.015,2.087c0-.05.015-.348.015-.431Zm-10.774-4.4a1.94,1.94,0,0,1,1.939-1.937h5.81a2.36,2.36,0,0,0,2.068-1.226l.44.3a2.216,2.216,0,0,1,.325,3.382h0l-.524.533H24.074Zm-2.1,5.444a1.045,1.045,0,0,1,1.078-1.042v1.654c0,.137.008.308.017.43A1.046,1.046,0,0,1,21.979,113.374Zm2.094.611c0-3.473,0-.806,0-3.987h9.761v3.988a4.88,4.88,0,0,1-9.76,0Z" transform="translate(-12.859 -78.589)"/>
      <path id="Trazado_1248478" data-name="Trazado 1248478" d="M153.158,30.179l-6.5-6.5a.51.51,0,0,0-.718,0l-6.5,6.5a.512.512,0,0,0-.064.641h0l6.415,9.594v3.406a1.389,1.389,0,1,1-2.778,0V41.939a2.131,2.131,0,1,0-4.262,0v.913a.507.507,0,0,0,1.015,0v-.913a1.116,1.116,0,1,1,2.232,0v1.884a2.4,2.4,0,1,0,4.807,0V40.416l6.415-9.594h0A.512.512,0,0,0,153.158,30.179Zm-7.367-.148h-4.77l4.77-4.77Zm0,1.015V38.59l-5.045-7.545Zm1.015,0h5.045l-5.045,7.545Zm0-1.015v-4.77l4.77,4.77Z" transform="translate(-106.741 -14.87)"/>
      <path id="Trazado_1248479" data-name="Trazado 1248479" d="M38.605,28.645a1.306,1.306,0,0,0-1.829-.027l-3.444,3.256a2.415,2.415,0,0,0-2.043.68c-.838.838-1,3.4-1.025,3.9a.508.508,0,0,0,.531.531c.5-.024,3.062-.188,3.9-1.025a2.415,2.415,0,0,0,.681-2.043l3.257-3.445a1.307,1.307,0,0,0-.028-1.828Zm-4.627,6.6a5.978,5.978,0,0,1-2.658.687,5.969,5.969,0,0,1,.687-2.658,1.393,1.393,0,1,1,1.97,1.971Zm3.917-5.467-2.93,3.1a2.5,2.5,0,0,0-.59-.59l3.1-2.929a.3.3,0,0,1,.421.42Z" transform="translate(-20.272 -18.638)"/>
      <path id="Trazado_1248480" data-name="Trazado 1248480" d="M174.65,178.912a2.987,2.987,0,0,0,1.213,2.413l.371,4.859a.713.713,0,0,0,.708.657h1.434a.714.714,0,0,0,.708-.656l.373-4.862a3.01,3.01,0,1,0-4.808-2.411Zm3.445,6.915h-.87l-.326-4.275h1.525Zm1.56-6.915a1.982,1.982,0,0,1-.837,1.624l-2.316,0a2,2,0,1,1,3.152-1.625Z" transform="translate(-135.355 -136.317)"/>
      <path id="Trazado_1248481" data-name="Trazado 1248481" d="M13.645,15.076a.508.508,0,0,0-.684.215,7.96,7.96,0,0,0-.891,3.657s0,0,0,0a7.935,7.935,0,0,0,6.245,7.75l1.255,2.122a.508.508,0,0,0,.873,0L21.7,26.7a7.937,7.937,0,0,0-1.692-15.692h0a7.939,7.939,0,0,0-4.122,1.153.508.508,0,0,0,.528.869,6.9,6.9,0,0,1,3.6-1.007h0a6.922,6.922,0,0,1,1.277,13.725.507.507,0,0,0-.344.241l-.933,1.578-.933-1.578a.508.508,0,0,0-.344-.241,6.92,6.92,0,0,1-5.646-6.8v0a6.866,6.866,0,0,1,.775-3.186.5.5,0,0,0-.215-.684Z" transform="translate(-5.77 -4.892)"/>
      <path id="Trazado_1248482" data-name="Trazado 1248482" d="M22.813,23.5a.507.507,0,0,0-.024-.716.522.522,0,0,0-.716.022.508.508,0,1,0,.741.694Z" transform="translate(-13.633 -14.17)"/>
    </g>
  </g>
</svg>
