<svg xmlns="http://www.w3.org/2000/svg" xmlns:xlink="http://www.w3.org/1999/xlink" width="400" height="343" viewBox="0 0 400 343">
  <defs>
    <clipPath id="clip-path">
      <rect id="Rect치ngulo_424313" data-name="Rect치ngulo 424313" width="400" height="343" transform="translate(1020 813)" fill="#fff" stroke="#707070" stroke-width="1"/>
    </clipPath>
    <linearGradient id="linear-gradient" x1="0.614" y1="0.886" x2="0.248" y2="-0.139" gradientUnits="objectBoundingBox">
      <stop offset="0" stop-color="#fff"/>
      <stop offset="1" stop-color="#fff" stop-opacity="0"/>
    </linearGradient>
    <linearGradient id="linear-gradient-2" x1="0.092" y1="0.989" x2="0.718" y2="0.026" xlink:href="#linear-gradient"/>
  </defs>
  <g id="Grupo_1232217" data-name="Grupo 1232217" transform="translate(-1020 -813)">
    <rect id="Rect치ngulo_424315" data-name="Rect치ngulo 424315" width="222" height="279" rx="14" transform="translate(1109 853)" fill="#f3de50"/>
    <g id="Enmascarar_grupo_1098774" data-name="Enmascarar grupo 1098774" clip-path="url(#clip-path)">
      <g id="OBJECTS" transform="translate(987.324 763.42)">
        <g id="Grupo_1232216" data-name="Grupo 1232216" transform="translate(53.919 88.53)">
          <g id="Grupo_1232175" data-name="Grupo 1232175" transform="translate(3.714)">
            <path id="Trazado_1234662" data-name="Trazado 1234662" d="M147.864,288.72a43.933,43.933,0,0,1-7.375,38.357c-.375.479-1.168-.044-.994-.575a49.6,49.6,0,0,0-1.238-33.057c-5.919-10.261-15.543-18.368-24.845-25.525-6.407-4.934-12.919-9.781-18.734-15.43a76.15,76.15,0,0,1-22.805-61.8,77.158,77.158,0,0,1,16.258-39.97c7.61-9.607,22.456-23.843,35.611-15.343,5.544,3.583,7.122,10.635,5.841,16.79-1.621,7.732-7.035,14.3-11.777,20.373-10.269,13.12-22.823,27.033-23.093,44.7-.262,16.773,12.867,28.576,25.028,38.1C131.362,264.442,143.7,273.848,147.864,288.72Z" transform="translate(-59.89 -94.204)" fill="url(#linear-gradient)"/>
            <path id="Trazado_1234663" data-name="Trazado 1234663" d="M432.459,224.1c-10.366,11.632-23.6,20.261-34.257,31.642-5.362,5.739-10.919,11.463-15.124,18.1-4.972,7.853-9.309,19.209-9.333,21.977,0,.738-1.325.723-1.285,0,2.052-36.584,43.722-64.325,54.9-93.458a46,46,0,0,0,3.1-22.69,48.492,48.492,0,0,0-7.651-19.283,167.779,167.779,0,0,0-12.083-15.926c-4.167-5.078-9.3-10.341-11.583-16.624-1.994-5.469-1.011-11.934,4.343-15.026,5.726-3.3,13.055-2.716,18.931-.186,12.577,5.41,20.564,19.487,25.073,31.773A79.522,79.522,0,0,1,432.459,224.1Z" transform="translate(-98.484 -91.352)" fill="url(#linear-gradient-2)"/>
            <g id="Grupo_1232163" data-name="Grupo 1232163" transform="translate(277.395 12.616)">
              <path id="Trazado_1234664" data-name="Trazado 1234664" d="M424.722,119.451c-.237.449-.474.9-.725,1.365-2.93-5.53-10.056-10.856-17.021-11.224.574-.861,1.082-1.628,1.508-2.279C414.668,97.884,432.409,104.811,424.722,119.451Z" transform="translate(-380.305 -103.001)" fill="#c95a6e"/>
              <path id="Trazado_1234665" data-name="Trazado 1234665" d="M420.074,121.786c-.473.887-.982,1.8-1.517,2.752-.089.166-.187.33-.277.506-.492.873-1,1.766-1.526,2.677-7.768,13.448-18.89,30.357-21.251,33.181a1.462,1.462,0,0,1-.4.4c-.985.377-13.612,4.564-15.093,3.9s-4.069-13.947-3.563-15.536c0,0,14.05-20.479,22.826-33.489.613-.908,1.2-1.788,1.758-2.61.082-.125.163-.239.244-.353.642-.956,1.231-1.846,1.777-2.66C410.018,110.931,417.144,116.257,420.074,121.786Z" transform="translate(-376.382 -103.971)" fill="#ebcd43"/>
              <path id="Trazado_1234666" data-name="Trazado 1234666" d="M422.029,125.543c-3.009-6.513-12.085-13.02-20.137-11.789-.666.1-1.859,2.4.864,2.89a20.377,20.377,0,0,1,7.281,2.469,22.969,22.969,0,0,1,8.848,8.149A1.793,1.793,0,0,0,422.029,125.543Z" transform="translate(-379.545 -104.361)" fill="#7eb3ce"/>
              <path id="Trazado_1234667" data-name="Trazado 1234667" d="M422.231,125.105a1.459,1.459,0,0,1-.56-.065,1.768,1.768,0,0,1-1.01-.84,22.917,22.917,0,0,0-8.847-8.14,20.424,20.424,0,0,0-7.277-2.471l-.113-.017a2.853,2.853,0,0,1-.916-.35,1.449,1.449,0,0,1,.165-2.526,13.4,13.4,0,0,1,2.772-.135c6.965.368,14.091,5.694,17.021,11.224.123.229.234.468.345.706A1.824,1.824,0,0,1,422.231,125.105Z" transform="translate(-379.773 -103.968)" fill="#7eb3ce"/>
              <g id="Grupo_1232162" data-name="Grupo 1232162" transform="translate(0 44.34)">
                <path id="Trazado_1234668" data-name="Trazado 1234668" d="M395.5,166.455a1.462,1.462,0,0,1-.4.4c-.705.272-7.481,2.526-11.753,3.508a8.314,8.314,0,0,1-3.34.4c-.424-.191-.952-1.431-1.46-3.144-1.255-4.209-2.464-11.267-2.1-12.393a10.738,10.738,0,0,1,3.476-1.356c.6.092,1.409,4.032,1.666,4.071s3.918-1.837,4.311-1.513,1.354,3.7,1.544,3.9,3.729-.875,4.184-.679.228,3.682.384,3.833,2.968-.728,3.337-.587C395.648,163.018,395.619,165.344,395.5,166.455Z" transform="translate(-376.382 -153.864)" fill="#ffdab6"/>
                <path id="Trazado_1234669" data-name="Trazado 1234669" d="M383.669,172.378a8.315,8.315,0,0,1-3.34.4c-.424-.191-.952-1.431-1.46-3.144a4.348,4.348,0,0,1,4.8,2.747Z" transform="translate(-376.701 -155.877)" fill="#281608"/>
              </g>
              <path id="Trazado_1234670" data-name="Trazado 1234670" d="M405.107,120.124c-4,4.836-7.523,10.126-11.2,15.213-3.486,4.83-7.1,9.632-10.2,14.722-.042.068.069.131.117.072,3.88-4.725,7.327-9.829,10.893-14.793s7.391-9.817,10.7-14.958C405.563,120.165,405.278,119.917,405.107,120.124Z" transform="translate(-377.321 -105.187)" fill="#d29f5e"/>
              <path id="Trazado_1234671" data-name="Trazado 1234671" d="M414.316,126.378c-6.354,9.337-13.286,18.5-19.017,28.235-.052.089.09.172.152.093,6.947-8.888,12.912-18.686,19.258-28.011C414.89,126.429,414.5,126.109,414.316,126.378Z" transform="translate(-378.806 -105.986)" fill="#d29f5e"/>
            </g>
            <g id="Grupo_1232164" data-name="Grupo 1232164" transform="translate(10.991 118.644)">
              <path id="Trazado_1234672" data-name="Trazado 1234672" d="M126.149,273.662c-4.768,7.689-13.007,13.194-24.727,13.343-.159.01-.327.01-.494.01-.551,0-1.091-.01-1.624-.037-24.737-1.064-33.367-26.378-25.94-44.426,4.152-10.105,13.353-17.925,27.564-17.925.327,0,.644,0,.961.01a29.336,29.336,0,0,1,17.841,6.084C132.261,240.6,134.389,260.385,126.149,273.662Z" transform="translate(-70.787 -224.627)" fill="#7eb3ce"/>
              <path id="Trazado_1234673" data-name="Trazado 1234673" d="M101.306,283.161c-.234.738.438,2.678.494,3.844-.159.01-.327.01-.494.01-.551,0-1.091-.01-1.624-.037-2-1.847-3.331-5.524-3.126-6.541.234-1.166-3.966-3.033-7.39-4.2s-4.741-3.033-5.44-5.366,5.132-11.43,4.2-12.1-2.1-1.194-2.566-2.948.466-2.912-1.633-4.311-6.765-5.6-8.864-7a2.936,2.936,0,0,1-1.12-1.96c4.152-10.105,13.353-17.925,27.564-17.925.327,0,.644,0,.961.01a9.13,9.13,0,0,1-.961,2.146c-1.325,2.137-1.372,5.132-1.95,6.187s-.355,4.777.234,6.877-1.4,4.544-2.678,6.187c-1.288,1.623-6.774,3.611-7,4.89a8.171,8.171,0,0,0,.27,4.9c.774,1.745,1.866,1.829,3.107,2.948s12.111,2.165,11.953,3.882-3.658,5.963-2.8,7.987.644,3.807,1.111,5.832S101.689,281.911,101.306,283.161Z" transform="translate(-71.166 -224.627)" fill="#cdd14b"/>
              <path id="Trazado_1234674" data-name="Trazado 1234674" d="M131.976,274.559c-.149-.075-.3-.149-.448-.214-2.958-1.307-5.972-4.582-7.651-5.366s.01-5.9,0-7.6,2.1-4.712,3.219-5.291,5.515-6.42,4.18-6.886a28.226,28.226,0,0,1-4.041-2.221,6.206,6.206,0,0,0-2.65-1.055c-1.119,0-2.23,1.839-2.855,2.492s-3.144,2.491-4.395,1.567a2.717,2.717,0,0,1-.7-3.667c.7-1.307,2.65-5.235,3.91-7.586,1.111-2.1,1.017-5.029,5.011-7.12C138.088,241.5,140.215,261.281,131.976,274.559Z" transform="translate(-76.614 -225.523)" fill="#cdd14b"/>
            </g>
            <g id="Grupo_1232166" data-name="Grupo 1232166" transform="translate(48.411)">
              <g id="Grupo_1232165" data-name="Grupo 1232165" transform="translate(6.198)">
                <path id="Trazado_1234675" data-name="Trazado 1234675" d="M138.111,102.815a18.391,18.391,0,0,1-4.828,9.313c-.287.3-3.9-4.956-2.646-10.044a22.542,22.542,0,0,1,2.92-6.1,48.008,48.008,0,0,0,3.661-7.441C137.354,88.174,138.755,97.9,138.111,102.815Z" transform="translate(-122.047 -88.53)" fill="#cdd14b"/>
                <path id="Trazado_1234676" data-name="Trazado 1234676" d="M136.824,94.82c.047-.149-.189-.267-.258-.116-2.659,5.852-5.077,12.758-2.718,19.1a.061.061,0,0,0,.119-.03C133.135,107.092,134.83,101.122,136.824,94.82Z" transform="translate(-122.369 -89.312)" fill="#b2b238"/>
                <path id="Trazado_1234677" data-name="Trazado 1234677" d="M132.062,112.4l-.119-.073a.3.3,0,0,1-.382-.064c-.114-.135-.218-.269-.332-.4a23.6,23.6,0,0,1-9.261-10.979c-1.334-3.281-2.414-8.822,2.254-9.861a.316.316,0,0,1,.369.345,27.914,27.914,0,0,0,7.467,20.471.255.255,0,0,1,.072.268.905.905,0,0,1,.1.071C132.386,112.275,132.22,112.5,132.062,112.4Z" transform="translate(-120.822 -88.848)" fill="#cdd14b"/>
              </g>
              <path id="Trazado_1234678" data-name="Trazado 1234678" d="M130.332,112.573c-1.54.474-8.989-1.3-13.939,3.778s-3.637,16.664,8.93,24.314c5.992,3.647,15.952,6.04,18.037,4.087a48.386,48.386,0,0,1,3.647-3.257c1.3-1.042,3.518-.912,5.863-2.084s3.7-8.725,3.778-10.813c.156-4.429.651-23.841-12.4-24.666C134.217,103.3,132.026,112.052,130.332,112.573Z" transform="translate(-113.712 -90.5)" fill="#c95a6e"/>
            </g>
            <g id="Grupo_1232174" data-name="Grupo 1232174" transform="translate(289.62 113.461)">
              <path id="Trazado_1234679" data-name="Trazado 1234679" d="M438.94,301.982l-1.682-8.436-.078-.393-.46-2.268-.09-.444-.27-1.345-.083-.452-.269-1.33-.09-.444-.27-1.345-.083-.452-.218-1.084-.078-.393-.424-2.1-.09-.444-.262-1.338-.09-.444-.27-1.345-.09-.444-.27-1.345-.09-.444-.239-1.237-.086-.4.007-.008-.395-1.941-.09-.444-.27-1.345-.082-.437-.27-1.345-.09-.444-.262-1.338-.1-.451-.275-1.4-.078-.393-.36-1.789-.09-.444-.262-1.338-.09-.444-.27-1.345-.09-.444-.27-1.345-.09-.444-.3-1.55-.087-.414-.323-1.608-.091-.459-.269-1.33.007-.008-.09-.444-.277-1.337-.083-.452-.277-1.337.007-.008-.082-.437-.354-1.716-.071-.4-.347-1.723-.09-.444-.27-1.345-.082-.437-.27-1.345-.1-.436-.27-1.345-.083-.452-.323-1.621-.079-.407-.384-1.9-.09-.444-.262-1.338-.091-.459-.269-1.33-.09-.444-.27-1.345-.083-.452-.291-1.417-.079-.407-1.526-7.636L390.405,266.77ZM417.281,245.1l6.541,32.74L404.747,264Z" transform="translate(-390.405 -218.682)" fill="#cdd14b"/>
              <path id="Trazado_1234680" data-name="Trazado 1234680" d="M425.824,228.393a7.388,7.388,0,0,1,1.78-.722c.245-.08.489-.16.75-.227l.079.407c-.265.1-.531.194-.812.284a7.611,7.611,0,0,1-1.725.5A.13.13,0,0,1,425.824,228.393Z" transform="translate(-394.94 -219.806)" fill="#281608"/>
              <g id="Grupo_1232167" data-name="Grupo 1232167" transform="translate(32.094 9.465)">
                <path id="Trazado_1234681" data-name="Trazado 1234681" d="M427.273,230.189a6.74,6.74,0,0,1,1.638-.65l.083.452a6.53,6.53,0,0,1-1.642.429A.127.127,0,0,1,427.273,230.189Z" transform="translate(-427.22 -229.539)" fill="#281608"/>
                <path id="Trazado_1234682" data-name="Trazado 1234682" d="M427.694,232.235a6.436,6.436,0,0,1,1.625-.635l.09.444a6.728,6.728,0,0,1-1.635.421A.128.128,0,0,1,427.694,232.235Z" transform="translate(-427.275 -229.803)" fill="#281608"/>
                <path id="Trazado_1234683" data-name="Trazado 1234683" d="M428.122,234.283a6.548,6.548,0,0,1,1.609-.648l.091.459a7.341,7.341,0,0,1-1.635.421A.125.125,0,0,1,428.122,234.283Z" transform="translate(-427.328 -230.064)" fill="#281608"/>
                <path id="Trazado_1234684" data-name="Trazado 1234684" d="M428.536,236.336a6.129,6.129,0,0,1,1.6-.64l.09.444a7.1,7.1,0,0,1-1.613.426A.126.126,0,0,1,428.536,236.336Z" transform="translate(-427.382 -230.329)" fill="#281608"/>
              </g>
              <g id="Grupo_1232168" data-name="Grupo 1232168" transform="translate(33.779 19.21)">
                <path id="Trazado_1234685" data-name="Trazado 1234685" d="M429.2,241.449a8.027,8.027,0,0,1,1.789-.7l.108-.031.083.452-.173.059a7.494,7.494,0,0,1-1.729.451C429.159,241.7,429.106,241.517,429.2,241.449Z" transform="translate(-429.153 -240.718)" fill="#281608"/>
                <path id="Trazado_1234686" data-name="Trazado 1234686" d="M429.632,243.5a7.088,7.088,0,0,1,1.783-.692c.036-.01.058-.02.093-.031l.1.436-.173.059a7.935,7.935,0,0,1-1.736.459A.124.124,0,0,1,429.632,243.5Z" transform="translate(-429.207 -240.982)" fill="#281608"/>
                <path id="Trazado_1234687" data-name="Trazado 1234687" d="M430.046,245.552a6.972,6.972,0,0,1,1.789-.7c.036-.01.058-.02.093-.031l.082.437a1.019,1.019,0,0,1-.158.058,7.669,7.669,0,0,1-1.728.465A.125.125,0,0,1,430.046,245.552Z" transform="translate(-429.26 -241.244)" fill="#281608"/>
                <path id="Trazado_1234688" data-name="Trazado 1234688" d="M430.467,247.595a7.162,7.162,0,0,1,1.789-.7c.022-.01.058-.02.079-.029l.09.444a1.02,1.02,0,0,1-.158.058,7.979,7.979,0,0,1-1.721.458A.126.126,0,0,1,430.467,247.595Z" transform="translate(-429.315 -241.506)" fill="#281608"/>
              </g>
              <g id="Grupo_1232169" data-name="Grupo 1232169" transform="translate(35.873 28.852)">
                <path id="Trazado_1234689" data-name="Trazado 1234689" d="M431.612,252.459a6.565,6.565,0,0,1,1.732-.681l.082.437-.007.008a7.666,7.666,0,0,1-1.728.466A.125.125,0,0,1,431.612,252.459Z" transform="translate(-431.555 -251.778)" fill="#281608"/>
                <path id="Trazado_1234690" data-name="Trazado 1234690" d="M432.032,254.5a6.621,6.621,0,0,1,1.717-.679l.083.452a7.98,7.98,0,0,1-1.721.458A.126.126,0,0,1,432.032,254.5Z" transform="translate(-431.609 -252.04)" fill="#281608"/>
                <path id="Trazado_1234691" data-name="Trazado 1234691" d="M432.453,256.546a6.926,6.926,0,0,1,1.71-.671l.09.444-.007.008a7.807,7.807,0,0,1-1.721.458A.13.13,0,0,1,432.453,256.546Z" transform="translate(-431.663 -252.303)" fill="#281608"/>
                <path id="Trazado_1234692" data-name="Trazado 1234692" d="M432.866,258.6a7.309,7.309,0,0,1,1.7-.678l.091.459a7.563,7.563,0,0,1-1.715.45A.127.127,0,0,1,432.866,258.6Z" transform="translate(-431.716 -252.566)" fill="#281608"/>
              </g>
              <g id="Grupo_1232170" data-name="Grupo 1232170" transform="translate(37.693 38.234)">
                <path id="Trazado_1234693" data-name="Trazado 1234693" d="M433.7,263.239a7.671,7.671,0,0,1,1.775-.7l.09.444-.065.028a7.933,7.933,0,0,1-1.736.459A.124.124,0,0,1,433.7,263.239Z" transform="translate(-433.643 -262.54)" fill="#281608"/>
                <path id="Trazado_1234694" data-name="Trazado 1234694" d="M434.117,265.291a7.241,7.241,0,0,1,1.775-.7l.09.444c-.022.01-.036.01-.058.02a7.67,7.67,0,0,1-1.728.466A.126.126,0,0,1,434.117,265.291Z" transform="translate(-433.697 -262.803)" fill="#281608"/>
                <path id="Trazado_1234695" data-name="Trazado 1234695" d="M434.538,267.335a7.03,7.03,0,0,1,1.768-.691l.09.444c-.022.01-.036.01-.058.02a7.978,7.978,0,0,1-1.721.458A.126.126,0,0,1,434.538,267.335Z" transform="translate(-433.751 -263.066)" fill="#281608"/>
                <path id="Trazado_1234696" data-name="Trazado 1234696" d="M434.958,269.379a7.939,7.939,0,0,1,1.753-.69l.09.444a.078.078,0,0,1-.043.018,7.881,7.881,0,0,1-1.728.465A.129.129,0,0,1,434.958,269.379Z" transform="translate(-433.804 -263.329)" fill="#281608"/>
              </g>
              <g id="Grupo_1232171" data-name="Grupo 1232171" transform="translate(39.512 47.623)">
                <path id="Trazado_1234697" data-name="Trazado 1234697" d="M435.781,274.022a8.025,8.025,0,0,1,1.789-.7c.015,0,.037-.01.051-.011l.1.451c-.043.018-.087.022-.13.041a7.532,7.532,0,0,1-1.73.451C435.735,274.27,435.683,274.09,435.781,274.022Z" transform="translate(-435.73 -273.311)" fill="#281608"/>
                <path id="Trazado_1234698" data-name="Trazado 1234698" d="M436.209,276.073a7.362,7.362,0,0,1,1.789-.7c.015,0,.022-.009.036-.01l.09.444c-.036.01-.078.029-.115.039a7.986,7.986,0,0,1-1.736.459A.125.125,0,0,1,436.209,276.073Z" transform="translate(-435.783 -273.574)" fill="#281608"/>
                <path id="Trazado_1234699" data-name="Trazado 1234699" d="M436.623,278.124a6.966,6.966,0,0,1,1.79-.7c.015,0,.022-.01.036-.01l.082.437a.414.414,0,0,1-.1.038,7.665,7.665,0,0,1-1.728.465A.126.126,0,0,1,436.623,278.124Z" transform="translate(-435.837 -273.837)" fill="#281608"/>
                <path id="Trazado_1234700" data-name="Trazado 1234700" d="M437.043,280.168a7.163,7.163,0,0,1,1.789-.7c.007-.008.015,0,.022-.01l.09.444a.414.414,0,0,1-.1.038,7.974,7.974,0,0,1-1.722.458A.126.126,0,0,1,437.043,280.168Z" transform="translate(-435.891 -274.099)" fill="#281608"/>
              </g>
              <g id="Grupo_1232172" data-name="Grupo 1232172" transform="translate(41.329 57.011)">
                <path id="Trazado_1234701" data-name="Trazado 1234701" d="M437.872,284.8a7.957,7.957,0,0,1,1.783-.692l.108-.031.09.444-.173.059a7.259,7.259,0,0,1-1.736.459A.129.129,0,0,1,437.872,284.8Z" transform="translate(-437.814 -284.08)" fill="#281608"/>
                <path id="Trazado_1234702" data-name="Trazado 1234702" d="M438.286,286.856a8.028,8.028,0,0,1,1.789-.7.418.418,0,0,1,.1-.024l.09.444-.173.059a7.532,7.532,0,0,1-1.73.451C438.24,287.1,438.188,286.923,438.286,286.856Z" transform="translate(-437.868 -284.343)" fill="#281608"/>
                <path id="Trazado_1234703" data-name="Trazado 1234703" d="M438.715,288.906a7.358,7.358,0,0,1,1.79-.7.314.314,0,0,1,.087-.023l.09.444c-.058.02-.108.031-.166.051a7.937,7.937,0,0,1-1.736.459A.126.126,0,0,1,438.715,288.906Z" transform="translate(-437.922 -284.606)" fill="#281608"/>
                <path id="Trazado_1234704" data-name="Trazado 1234704" d="M439.135,290.949a7.09,7.09,0,0,1,1.783-.692c.022-.009.058-.02.078-.029l.09.444c-.051.011-.1.038-.151.05a7.667,7.667,0,0,1-1.728.466A.128.128,0,0,1,439.135,290.949Z" transform="translate(-437.976 -284.868)" fill="#281608"/>
              </g>
              <g id="Grupo_1232173" data-name="Grupo 1232173" transform="translate(43.151 66.391)">
                <path id="Trazado_1234705" data-name="Trazado 1234705" d="M439.957,295.591a7.8,7.8,0,0,1,1.789-.7c.058-.019.115-.039.166-.051l.083.452c-.079.029-.151.05-.23.078a7.986,7.986,0,0,1-1.736.459A.132.132,0,0,1,439.957,295.591Z" transform="translate(-439.904 -294.84)" fill="#281608"/>
                <path id="Trazado_1234706" data-name="Trazado 1234706" d="M440.377,297.637a7.49,7.49,0,0,1,1.783-.692c.051-.011.108-.031.159-.043l.09.444c-.072.021-.151.05-.223.071a7.262,7.262,0,0,1-1.736.459A.129.129,0,0,1,440.377,297.637Z" transform="translate(-439.957 -295.104)" fill="#281608"/>
                <path id="Trazado_1234707" data-name="Trazado 1234707" d="M440.792,299.687a8,8,0,0,1,1.789-.7.93.93,0,0,0,.151-.05l.083.452c-.072.021-.136.049-.208.07a7.262,7.262,0,0,1-1.736.459C440.746,299.934,440.694,299.754,440.792,299.687Z" transform="translate(-440.011 -295.365)" fill="#281608"/>
                <path id="Trazado_1234708" data-name="Trazado 1234708" d="M441.221,301.738a7.367,7.367,0,0,1,1.789-.7c.043-.018.087-.023.13-.041l.09.444c-.072.021-.136.049-.208.07a7.984,7.984,0,0,1-1.736.459A.126.126,0,0,1,441.221,301.738Z" transform="translate(-440.065 -295.63)" fill="#281608"/>
              </g>
              <path id="Trazado_1234709" data-name="Trazado 1234709" d="M427.975,239.349a7.494,7.494,0,0,1,1.773-.714c.266-.089.526-.171.792-.245l.079.407c-.279.105-.559.211-.846.309a7.943,7.943,0,0,1-1.727.48A.131.131,0,0,1,427.975,239.349Z" transform="translate(-395.216 -221.209)" fill="#281608"/>
              <path id="Trazado_1234710" data-name="Trazado 1234710" d="M430.126,250.32a6.99,6.99,0,0,1,1.78-.722,8.435,8.435,0,0,1,.822-.248l.071.4c-.286.113-.574.212-.867.318a8.079,8.079,0,0,1-1.727.48A.126.126,0,0,1,430.126,250.32Z" transform="translate(-395.492 -222.615)" fill="#281608"/>
              <path id="Trazado_1234711" data-name="Trazado 1234711" d="M432.277,261.275a7.345,7.345,0,0,1,1.78-.722c.288-.1.576-.182.85-.265l.087.414c-.309.108-.6.214-.912.322a7.137,7.137,0,0,1-1.727.48C432.231,261.522,432.179,261.342,432.277,261.275Z" transform="translate(-395.768 -224.018)" fill="#281608"/>
              <path id="Trazado_1234712" data-name="Trazado 1234712" d="M434.435,272.238a7.159,7.159,0,0,1,1.78-.722c.288-.1.582-.19.88-.268l.078.393c-.3.129-.623.238-.932.346a8.08,8.08,0,0,1-1.727.48A.127.127,0,0,1,434.435,272.238Z" transform="translate(-396.045 -225.423)" fill="#281608"/>
              <path id="Trazado_1234713" data-name="Trazado 1234713" d="M436.594,283.2a7.745,7.745,0,0,1,1.772-.728c.3-.1.612-.193.909-.27l.086.4c-.316.116-.646.233-.969.342a7.529,7.529,0,0,1-1.719.487A.126.126,0,0,1,436.594,283.2Z" transform="translate(-396.321 -226.828)" fill="#281608"/>
              <path id="Trazado_1234714" data-name="Trazado 1234714" d="M438.743,294.156a7.789,7.789,0,0,1,1.78-.722c.309-.108.619-.2.937-.287l.078.393c-.321.139-.659.248-.989.365a8.074,8.074,0,0,1-1.727.48A.126.126,0,0,1,438.743,294.156Z" transform="translate(-396.597 -228.232)" fill="#281608"/>
              <path id="Trazado_1234715" data-name="Trazado 1234715" d="M440.9,305.119a7.388,7.388,0,0,1,1.78-.722c.316-.1.64-.21.966-.289l.078.393c-.337.125-.682.243-1.027.362a7.245,7.245,0,0,1-1.719.487A.125.125,0,0,1,440.9,305.119Z" transform="translate(-396.873 -229.637)" fill="#281608"/>
            </g>
            <text id="_20_5_" data-name="20/5 =" transform="matrix(1, -0.028, 0.028, 1, 195.314, 32.26)" fill="#cb7f45" font-size="26" font-family="SegoeUI, Segoe UI"><tspan x="0" y="0">20/5 =</tspan></text>
            <text id="a_b_c_" data-name="a(b+c)" transform="translate(1.238 90.423) rotate(8.975)" fill="#cb7f45" font-size="26" font-family="SegoeUI, Segoe UI"><tspan x="0" y="0">a(b+c)</tspan></text>
            <text id="www" transform="translate(12.375 155.368) rotate(-0.447)" fill="#6a7f89" font-size="26" font-family="SegoeUI, Segoe UI"><tspan x="0" y="0">www</tspan></text>
          </g>
          <g id="Grupo_1232215" data-name="Grupo 1232215" transform="translate(0 30.19)">
            <path id="Trazado_1234716" data-name="Trazado 1234716" d="M395.788,407.937c0,8.181-41.109,14.81-91.833,14.81-33.674,0-63.124-2.921-79.1-7.281-15.973,4.36-45.423,7.281-79.107,7.281-50.724,0-91.833-6.63-91.833-14.81s41.109-14.81,91.833-14.81c33.685,0,63.133,2.921,79.107,7.281,15.973-4.36,45.423-7.281,79.1-7.281C354.679,393.127,395.788,399.758,395.788,407.937Z" transform="translate(-53.919 -157.783)" fill="#d29f5e" opacity="0.2"/>
            <g id="Grupo_1232214" data-name="Grupo 1232214" transform="translate(2.088)">
              <g id="Grupo_1232200" data-name="Grupo 1232200" transform="translate(156.822 32.481)">
                <g id="Grupo_1232176" data-name="Grupo 1232176">
                  <path id="Trazado_1234717" data-name="Trazado 1234717" d="M352.917,177.055c-5.607-7.385-17.974-12.9-33.644-15.607s-48.682-2.63-62.674,33.877c-12.655,33.02-19.607,69.433-16.654,74.669S270.215,296.4,298.83,299.6s52.583-11.673,54.571-18.135S369.693,199.148,352.917,177.055Z" transform="translate(-236.6 -160.421)" fill="#281608"/>
                  <path id="Trazado_1234718" data-name="Trazado 1234718" d="M302.883,163.065c-8.269-.436-17.08.347-24.516,4.221-7.121,3.71-12.75,9.707-17.122,16.354-4.808,7.31-8.412,15.428-11.668,23.525a197.605,197.605,0,0,0-8.519,26.433,177.7,177.7,0,0,0-4.851,30.275c-.01.147.207.139.225,0a231.871,231.871,0,0,1,12.314-51.116,168.74,168.74,0,0,1,10.637-23.587c4.025-7.186,9.1-13.936,15.9-18.711a34.691,34.691,0,0,1,12.505-5.511c4.989-1.106,10.039-1.044,15.1-1.5A.19.19,0,0,0,302.883,163.065Z" transform="translate(-236.207 -160.746)" fill="#281608"/>
                </g>
                <g id="Grupo_1232181" data-name="Grupo 1232181" transform="translate(64.947 119.933)">
                  <path id="Trazado_1234719" data-name="Trazado 1234719" d="M356.337,312.994c.7,2.127-4.742,7.366-5.876,8.116-.5.331-2.415,2.641-5.126,5.039-3.487,3.077-8.29,6.312-13.1,5.675-8.552-1.125-18.987-14.192-21.149-22.648s5.448-12.789,10.714-10.627,11.446,17.609,13.643,17.609c.628,0,2.546-1.055,4.751-2.362,3.191-1.883,6.965-4.272,8.3-4.716,2.258-.75,9.973-1.2,9.973-1.2S355.64,310.867,356.337,312.994Z" transform="translate(-310.707 -297.997)" fill="#d29f5e"/>
                  <g id="Grupo_1232180" data-name="Grupo 1232180" transform="translate(33.244 0.977)">
                    <g id="Grupo_1232179" data-name="Grupo 1232179">
                      <path id="Trazado_1234720" data-name="Trazado 1234720" d="M349.817,321.42l29.767,15.949a1.855,1.855,0,0,0,2.1-.234l22.041-19.156a1.856,1.856,0,0,0-.357-3.045l-29.93-15.605a1.857,1.857,0,0,0-2.07.237l-21.877,18.813A1.856,1.856,0,0,0,349.817,321.42Z" transform="translate(-348.841 -299.118)" fill="#6a7f89"/>
                      <path id="Trazado_1234721" data-name="Trazado 1234721" d="M399.814,318.272l-8.379,7.275-3.46,3-6.316,5.493a1.518,1.518,0,0,1-1.72.2l-7.379-3.9-3.012-1.615-9.275-5-.886-.469-2.627-1.417-1.7-.917a1.459,1.459,0,0,1-.719-.844,1.522,1.522,0,0,1,.448-1.657l5.931-5.1L370,305.339l2.8-2.408a1.517,1.517,0,0,1,1.71-.2l2.24,1.167,8.16,4.273,9.432,4.877,3.085,1.626,2.084,1.084a1.454,1.454,0,0,1,.438.344,1.392,1.392,0,0,1,.323.594A1.51,1.51,0,0,1,399.814,318.272Z" transform="translate(-349.536 -299.559)" fill="#281608"/>
                      <g id="Grupo_1232177" data-name="Grupo 1232177" transform="translate(17.985 6.402)">
                        <path id="Trazado_1234722" data-name="Trazado 1234722" d="M376.872,306.673c-.257.443-.534.946-.832,1.463a5.435,5.435,0,0,0-4.839.271,3.443,3.443,0,0,0-1.511,4.034c.693,1.513,2.582,1.093,3.684.37a8.135,8.135,0,0,0,1.13-.912,4.8,4.8,0,0,0,0,2.259c.417,1.561,2.094,2.709,3.559,1.685.381-.267.065-.827-.343-.785-4.283.445-.779-6.259.031-7.9C378,306.653,377.164,306.173,376.872,306.673Zm-4.146,5.225c-1.043.493-2.122.224-2.009-1.15a2.548,2.548,0,0,1,1.039-1.654,5.354,5.354,0,0,1,3.97-.426A8,8,0,0,1,372.726,311.9Z" transform="translate(-369.472 -306.462)" fill="#7eb3ce"/>
                        <path id="Trazado_1234723" data-name="Trazado 1234723" d="M390.683,320.914a3.545,3.545,0,0,0-3.824-.945c.264-.163.5-.3.656-.405,2.09-1.389,4.331-2.529,6.392-3.96a.27.27,0,0,0-.208-.491,23.949,23.949,0,0,0-6.149,2.757c-1.445.863-3.187,1.809-3.819,3.483-1.075,2.848,1.827,4.757,4.393,4.347C390.452,325.325,392.549,323.1,390.683,320.914Zm-3.36,3.762c-1.934-.225-2.442-1.4-2.064-2.308a2.867,2.867,0,0,1,2.558-1.4c1.293.005,2.44.8,2.3,2.026A2.89,2.89,0,0,1,387.324,324.676Z" transform="translate(-371.271 -307.57)" fill="#c95a6e"/>
                        <path id="Trazado_1234724" data-name="Trazado 1234724" d="M374.985,321.844c1.342-.017,1.932,1.569,1.929,2.669a.27.27,0,0,0,.527.071,2.9,2.9,0,0,0-1.54-3.892c-1.757-.663-3.172.58-3.94,2.07a3.761,3.761,0,0,0,5.3,5.187.308.308,0,0,0-.154-.569c-1.081,0-2.15.251-3.153-.318a2.384,2.384,0,0,1-1.125-2.8C373.075,323.319,373.849,321.859,374.985,321.844Z" transform="translate(-369.714 -308.263)" fill="#cdd14b"/>
                      </g>
                      <g id="Grupo_1232178" data-name="Grupo 1232178" transform="translate(4.806 4.342)" opacity="0.2">
                        <path id="Trazado_1234725" data-name="Trazado 1234725" d="M387.837,309.413l-27.009,4.737,10.01-8.615,6.754-1.438Z" transform="translate(-355.184 -304.098)" fill="#fff"/>
                        <path id="Trazado_1234726" data-name="Trazado 1234726" d="M397.44,316.22l-40.667,7.16-1.7-.917a1.459,1.459,0,0,1-.719-.844l40-7.025Z" transform="translate(-354.354 -305.444)" fill="#fff"/>
                        <path id="Trazado_1234727" data-name="Trazado 1234727" d="M393.683,328.929l-3.46,3-15.414,1.792-3.012-1.615Z" transform="translate(-356.591 -307.282)" fill="#fff"/>
                        <path id="Trazado_1234728" data-name="Trazado 1234728" d="M401.027,318.692l-40,7.025-.886-.469L400.7,318.1A1.391,1.391,0,0,1,401.027,318.692Z" transform="translate(-355.096 -305.893)" fill="#fff"/>
                      </g>
                    </g>
                  </g>
                  <path id="Trazado_1234729" data-name="Trazado 1234729" d="M354.449,310.877c2.045-.871,6.251-1.839,8.181-1.471s5.239,2.022,4.687,2.941-3.724.726-5.4.455-3.636,4.809-8.861,3.2C350.719,315.289,352.947,311.517,354.449,310.877Z" transform="translate(-316.008 -299.45)" fill="#d29f5e"/>
                  <path id="Trazado_1234730" data-name="Trazado 1234730" d="M345.336,326.149c-3.487,3.077-8.29,6.312-13.1,5.675-8.552-1.125-18.987-14.192-21.149-22.648s5.448-12.789,10.714-10.627,11.446,17.609,13.643,17.609c.628,0,2.546-1.055,4.751-2.362a38.54,38.54,0,0,1,2.99,5.736A40.442,40.442,0,0,1,345.336,326.149Z" transform="translate(-310.707 -297.997)" fill="#cb7f45"/>
                </g>
                <g id="Grupo_1232192" data-name="Grupo 1232192" transform="translate(31.285 113.325)">
                  <g id="Grupo_1232188" data-name="Grupo 1232188" transform="translate(43.778 47.922)">
                    <g id="Grupo_1232184" data-name="Grupo 1232184" transform="translate(2.17)">
                      <path id="Trazado_1234731" data-name="Trazado 1234731" d="M407.008,388.927a70.327,70.327,0,0,1-8.1-2.51c-1.245-.429-2.591-.887-3.979-1.356-1.091-.377-2.213-.765-3.346-1.152l-.979-.336c-7.457-2.551-15.108-5.111-17.434-5.356-4.764-.51-37.744,12.578-41.652,11.731s-12.925-21.086,0-32.817c4.1-3.723,31.114-12.068,39.438-11.731,6.233.255,24.952,13.456,34.531,20.6.122.082.245.173.367.265.347.255.683.51,1,.744,2.469,1.857,4.1,3.131,4.4,3.387.581.51,3.274-.948,6.407-2.7a.076.076,0,0,0,.031-.01c4.233-2.377,9.253-5.285,10.9-4.6C431.49,364.27,408.874,388.927,407.008,388.927Z" transform="translate(-324.801 -345.389)" fill="#d29f5e"/>
                      <g id="Grupo_1232182" data-name="Grupo 1232182" transform="translate(65.61 17.588)">
                        <path id="Trazado_1234732" data-name="Trazado 1234732" d="M416.66,391.514a70.329,70.329,0,0,1-8.1-2.51c-1.245-.429-2.591-.887-3.979-1.356-1.091-.377-2.213-.765-3.346-1.152l-.979-.337a2.737,2.737,0,0,1-.194-1.041,2.973,2.973,0,0,1,2.968-2.979,2.876,2.876,0,0,1,1.948.744,2.974,2.974,0,0,1,3.795-4.529,2.975,2.975,0,0,1,1.724-5.162,2.863,2.863,0,0,1,1.5.255,2.973,2.973,0,0,1,2.132-5.05,2.759,2.759,0,0,1,1.009.184,1.732,1.732,0,0,1,.4.173,3.052,3.052,0,0,1,.969.837c2.469,1.857,4.1,3.131,4.4,3.387.581.51,3.274-.948,6.407-2.7a.076.076,0,0,0,.031-.01c4.233-2.377,9.253-5.285,10.9-4.6C441.142,366.858,418.526,391.514,416.66,391.514Z" transform="translate(-400.063 -365.564)" fill="#fff"/>
                      </g>
                      <g id="Grupo_1232183" data-name="Grupo 1232183" transform="translate(74.096 17.586)">
                        <path id="Trazado_1234733" data-name="Trazado 1234733" d="M417.908,391.514a70.329,70.329,0,0,1-8.1-2.51l-.01-.01c2.785.939,21.368-15.251,22.85-18.719.774-1.812-3.642-.122-4.06-.01,4.233-2.377,9.253-5.285,10.9-4.6C442.39,366.857,419.774,391.514,417.908,391.514Z" transform="translate(-409.798 -365.562)" fill="#281608"/>
                        <path id="Trazado_1234734" data-name="Trazado 1234734" d="M428.395,371.562a8.566,8.566,0,0,0-4.878,4.639,9.323,9.323,0,0,0,.687,6.963.161.161,0,0,0,.3-.08c-.484-4.39.643-8.025,4.015-10.926C428.843,371.874,428.794,371.442,428.395,371.562Z" transform="translate(-411.505 -366.329)" fill="#281608"/>
                      </g>
                    </g>
                    <g id="Grupo_1232187" data-name="Grupo 1232187" transform="translate(0 6.76)">
                      <path id="Trazado_1234735" data-name="Trazado 1234735" d="M406.3,398.232a71.871,71.871,0,0,1-8.276-2.564c-1.271-.438-2.648-.907-4.065-1.386-1.115-.385-2.261-.782-3.418-1.178l-1-.344c-7.618-2.606-15.435-5.222-17.812-5.472-4.867-.521-38.562,12.851-42.553,11.986s-13.2-21.543,0-33.528c4.19-3.8,31.788-12.329,40.292-11.986,6.368.261,25.493,13.747,35.279,21.042.125.084.25.177.375.271.354.261.7.521,1.022.761,2.522,1.9,4.19,3.2,4.492,3.46.594.521,3.346-.969,6.545-2.762a.081.081,0,0,0,.031-.01c4.325-2.428,9.453-5.4,11.141-4.7C431.313,373.042,408.207,398.232,406.3,398.232Z" transform="translate(-322.312 -353.221)" fill="#d29f5e"/>
                      <g id="Grupo_1232185" data-name="Grupo 1232185" transform="translate(67.03 18.497)">
                        <path id="Trazado_1234736" data-name="Trazado 1234736" d="M416.16,400.876a71.88,71.88,0,0,1-8.276-2.564c-1.271-.438-2.648-.907-4.065-1.386-1.115-.385-2.261-.782-3.418-1.178l-1-.344a2.8,2.8,0,0,1-.2-1.064,3.038,3.038,0,0,1,3.033-3.043,2.935,2.935,0,0,1,1.99.761,3.039,3.039,0,0,1,3.878-4.627,3.039,3.039,0,0,1,1.761-5.273,2.93,2.93,0,0,1,1.532.261,3.037,3.037,0,0,1,2.178-5.159,2.846,2.846,0,0,1,1.032.187,1.808,1.808,0,0,1,.406.177,3.12,3.12,0,0,1,.99.854c2.522,1.9,4.19,3.2,4.492,3.46.594.521,3.346-.969,6.545-2.762a.081.081,0,0,0,.031-.01c4.325-2.428,9.453-5.4,11.141-4.7C441.174,375.685,418.068,400.876,416.16,400.876Z" transform="translate(-399.203 -374.361)" fill="#fff"/>
                      </g>
                      <g id="Grupo_1232186" data-name="Grupo 1232186" transform="translate(75.701 18.498)">
                        <path id="Trazado_1234737" data-name="Trazado 1234737" d="M417.436,400.876a71.872,71.872,0,0,1-8.276-2.564l-.01-.01c2.845.959,21.831-15.581,23.346-19.125.792-1.851-3.721-.125-4.148-.01,4.325-2.428,9.453-5.4,11.141-4.7C442.449,375.685,419.343,400.876,417.436,400.876Z" transform="translate(-409.15 -374.362)" fill="#281608"/>
                        <path id="Trazado_1234738" data-name="Trazado 1234738" d="M428.15,380.491a8.744,8.744,0,0,0-4.984,4.739,9.521,9.521,0,0,0,.7,7.114.164.164,0,0,0,.3-.082c-.494-4.485.657-8.2,4.1-11.163C428.608,380.811,428.558,380.369,428.15,380.491Z" transform="translate(-410.894 -375.146)" fill="#281608"/>
                      </g>
                      <path id="Trazado_1234739" data-name="Trazado 1234739" d="M412.723,378.978c-11.069-8.885-22.292-17.89-35.126-24.144-5.925-2.888-11.788-1.492-17.97-.115a96.873,96.873,0,0,0-20.529,6.867.045.045,0,0,0,.035.082,157.95,157.95,0,0,1,19.3-5.873,76.86,76.86,0,0,1,10.628-1.827c3.711-.291,6.788,1.036,10,2.743a214.367,214.367,0,0,1,33.449,22.441C413.008,379.555,413.23,379.385,412.723,378.978Z" transform="translate(-324.462 -353.143)" fill="#cb7f45"/>
                    </g>
                  </g>
                  <g id="Grupo_1232191" data-name="Grupo 1232191">
                    <path id="Trazado_1234740" data-name="Trazado 1234740" d="M298.247,294.571c-16.334,11.117-31.363,72.629-24.411,87.806,6.167,13.462,33.013,14.006,45.771,10.683,13.505-3.518,25.491-6.9,28.1-8.729,1.872-1.31-5.992-30.473,7.575-44.966,0,0-9.79,1.323-14.591,3.474-1.154.517-6.363-27.33-12.222-40.626C322.867,289.51,309.022,287.237,298.247,294.571Z" transform="translate(-272.094 -290.416)" fill="#c95a6e"/>
                    <g id="Grupo_1232190" data-name="Grupo 1232190" transform="translate(6.356 3.295)">
                      <path id="Trazado_1234741" data-name="Trazado 1234741" d="M301.559,305.007c-4.846,0-4.853,7.53,0,7.53S306.412,305.007,301.559,305.007Z" transform="translate(-281.762 -295.582)" fill="#af4b61"/>
                      <path id="Trazado_1234742" data-name="Trazado 1234742" d="M325.95,350.666c-4.845,0-4.853,7.53,0,7.53S330.8,350.666,325.95,350.666Z" transform="translate(-284.89 -301.438)" fill="#af4b61"/>
                      <path id="Trazado_1234743" data-name="Trazado 1234743" d="M345.365,363.874c-4.845,0-4.853,7.53,0,7.53S350.219,363.874,345.365,363.874Z" transform="translate(-287.38 -303.132)" fill="#af4b61"/>
                      <path id="Trazado_1234744" data-name="Trazado 1234744" d="M308.72,396.076c-4.845,0-4.853,7.53,0,7.53S313.573,396.076,308.72,396.076Z" transform="translate(-282.681 -307.262)" fill="#af4b61"/>
                      <path id="Trazado_1234745" data-name="Trazado 1234745" d="M345.255,384.36c-4.846,0-4.854,7.53,0,7.53S350.108,384.36,345.255,384.36Z" transform="translate(-287.366 -305.759)" fill="#af4b61"/>
                      <path id="Trazado_1234746" data-name="Trazado 1234746" d="M320.094,374.6c-4.846,0-4.854,7.53,0,7.53S324.947,374.6,320.094,374.6Z" transform="translate(-284.139 -304.508)" fill="#af4b61"/>
                      <path id="Trazado_1234747" data-name="Trazado 1234747" d="M284.086,385.812c-4.845,0-4.853,7.53,0,7.53S288.94,385.812,284.086,385.812Z" transform="translate(-279.522 -305.945)" fill="#af4b61"/>
                      <path id="Trazado_1234748" data-name="Trazado 1234748" d="M288.258,323.239c-4.845,0-4.853,7.53,0,7.53S293.112,323.239,288.258,323.239Z" transform="translate(-280.057 -297.921)" fill="#af4b61"/>
                      <path id="Trazado_1234749" data-name="Trazado 1234749" d="M319.269,321.767c-4.845,0-4.853,7.53,0,7.53S324.122,321.767,319.269,321.767Z" transform="translate(-284.034 -297.732)" fill="#af4b61"/>
                      <path id="Trazado_1234750" data-name="Trazado 1234750" d="M283.022,347.448c-4.845,0-4.853,7.53,0,7.53S287.875,347.448,283.022,347.448Z" transform="translate(-279.385 -301.025)" fill="#af4b61"/>
                      <path id="Trazado_1234751" data-name="Trazado 1234751" d="M337.563,331c-4.846,0-4.854,7.53,0,7.53S342.416,331,337.563,331Z" transform="translate(-286.38 -298.916)" fill="#af4b61"/>
                      <path id="Trazado_1234752" data-name="Trazado 1234752" d="M320.094,294.2c-4.846,0-4.854,7.53,0,7.53S324.947,294.2,320.094,294.2Z" transform="translate(-284.139 -294.196)" fill="#af4b61"/>
                      <path id="Trazado_1234753" data-name="Trazado 1234753" d="M306.356,337.736c-4.845,0-4.853,7.53,0,7.53S311.209,337.736,306.356,337.736Z" transform="translate(-282.378 -299.78)" fill="#af4b61"/>
                      <path id="Trazado_1234754" data-name="Trazado 1234754" d="M297.387,364.785c-4.846,0-4.854,7.53,0,7.53S302.24,364.785,297.387,364.785Z" transform="translate(-281.227 -303.249)" fill="#af4b61"/>
                      <path id="Trazado_1234755" data-name="Trazado 1234755" d="M333.973,306.462c-4.846,0-4.854,7.53,0,7.53S338.827,306.462,333.973,306.462Z" transform="translate(-285.919 -295.769)" fill="#af4b61"/>
                      <g id="Grupo_1232189" data-name="Grupo 1232189" transform="translate(44.28 50.543)">
                        <path id="Trazado_1234756" data-name="Trazado 1234756" d="M351.988,355a54.468,54.468,0,0,0-21.763,14.106c-.145.158.083.389.236.236,6.23-6.2,14.408-9.288,21.746-13.821C352.471,355.361,352.3,354.89,351.988,355Z" transform="translate(-330.179 -352.535)" fill="#af4b61"/>
                        <path id="Trazado_1234757" data-name="Trazado 1234757" d="M348.326,352.206c-2.719,1.4-4.739,4.125-6.227,6.712-.083.144.125.256.218.127,1.809-2.5,4.134-4.307,6.339-6.411C348.888,352.414,348.595,352.069,348.326,352.206Z" transform="translate(-331.705 -352.175)" fill="#af4b61"/>
                      </g>
                    </g>
                  </g>
                  <path id="Trazado_1234758" data-name="Trazado 1234758" d="M307.037,300.388c-6.636,3.991-6.4,23.427,15.94,33.714,16.368,7.539,42.672,5.5,45.035,4.932.919-.219,6.332,2.151,7.346,1.841s1.144-1.04,1.524-1.378,1.933-.529,2.323-1.053.438-1.43.635-1.737,1.053-.172,1.855-.765.85-1.5,1.092-1.8,1.506-.148,2.063-1.254-5.593-5.012-5.838-5.523,3.508-1.133,4.164-3.277-.8-1.994-3.44-1.042-7.681,1.959-8.758,2.584-29.437-4.667-33.921-7.443S316.032,294.978,307.037,300.388Z" transform="translate(-276.089 -291.579)" fill="#d29f5e"/>
                </g>
                <g id="Grupo_1232199" data-name="Grupo 1232199" transform="translate(19.592 4.819)">
                  <path id="Trazado_1234759" data-name="Trazado 1234759" d="M278.182,227.478s-12.526-26.511,6.58-47.091c16.552-17.829,48.766-18.751,70.074-4.952,0,0-39.709-8.874-58.119,7.98C274.429,203.819,278.182,227.478,278.182,227.478Z" transform="translate(-260.665 -165.949)" fill="#c95a6e"/>
                  <g id="Grupo_1232193" data-name="Grupo 1232193" transform="translate(47.348 105.352)">
                    <path id="Trazado_1234760" data-name="Trazado 1234760" d="M312.995,286.8c.439,2.135,2.465,6.741,4.972,10.766,2.6,4.17,5.727,7.709,8.15,7.21,2.342-.473,2.921-4.012,2.9-7.48a45.493,45.493,0,0,0-.66-7.057Z" transform="translate(-312.995 -286.799)" fill="#d29f5e"/>
                    <path id="Trazado_1234761" data-name="Trazado 1234761" d="M312.995,286.8c.439,2.135,2.465,6.741,4.972,10.766a21.317,21.317,0,0,0,11.044-.269,45.493,45.493,0,0,0-.66-7.057Z" transform="translate(-312.995 -286.799)" fill="#cb7f45"/>
                  </g>
                  <path id="Trazado_1234762" data-name="Trazado 1234762" d="M300.418,179.767c-25.427,17.3-28.522,64.365-16.914,81.146s60.486,32.171,80.454,11.6c5.626-5.8,3.682-20.151,5.239-24.372s21.047-41.949-2.059-61.333C344.756,168.029,313.546,170.836,300.418,179.767Z" transform="translate(-261.036 -166.832)" fill="#d29f5e"/>
                  <g id="Grupo_1232196" data-name="Grupo 1232196" transform="translate(39.009 46.354)">
                    <path id="Trazado_1234763" data-name="Trazado 1234763" d="M356.551,260.031c-2.782-.731-3.529-3.547-2.963-6.808.687-3.959,3.613-7.515,6.053-10.576.158-.2.32.024.18.234-2.461,3.682-2.35,7.992-.936,10.429.785,1.343,1.891,2.477,1.719,4.149A3.046,3.046,0,0,1,356.551,260.031Z" transform="translate(-309.839 -222.129)" fill="#cb7f45"/>
                    <path id="Trazado_1234764" data-name="Trazado 1234764" d="M332.509,266.3c-4.025.529-8.276-.1-11.349-3s-3.518-6.953-3.183-10.948c.01-.119-.181-.156-.209-.037-.972,4.19-.944,9.282,2.334,12.512,3.354,3.3,9.227,3.392,12.475,1.821C332.89,266.493,332.859,266.254,332.509,266.3Z" transform="translate(-305.197 -223.369)" fill="#281608"/>
                    <path id="Trazado_1234765" data-name="Trazado 1234765" d="M314.812,245.923c-.422,2.715-3.3,4.522-6.43,4.034s-5.324-3.083-4.9-5.8,3.3-4.521,6.43-4.034S315.234,243.208,314.812,245.923Z" transform="translate(-303.429 -221.805)" fill="#cb7f45"/>
                    <path id="Trazado_1234766" data-name="Trazado 1234766" d="M381.158,268.2a5.486,5.486,0,0,1-1.111-.51c-2.415-1.451-3.347-4.313-2.093-6.412a4.32,4.32,0,0,1,4.088-1.961C381.423,261.066,381.375,264.425,381.158,268.2Z" transform="translate(-312.915 -224.275)" fill="#cb7f45"/>
                    <path id="Trazado_1234767" data-name="Trazado 1234767" d="M338.721,220.118a11.324,11.324,0,0,0-14.193,4.381c-.523,1.007.115,1.348.548,1.108,2.152-1.187,5.63-2.894,12.853-1.5C340.027,224.517,341.326,221.26,338.721,220.118Z" transform="translate(-306.11 -219.122)" fill="#281608"/>
                    <path id="Trazado_1234768" data-name="Trazado 1234768" d="M374.269,228.1c7.642,1.072,9.664,7.511,9.451,9.7-.109,1.118-.8,1.071-1.042.643-1.186-2.124-2.9-4.8-9.836-6.575C370.793,231.342,371.481,227.706,374.269,228.1Z" transform="translate(-312.179 -220.269)" fill="#281608"/>
                    <g id="Grupo_1232194" data-name="Grupo 1232194" transform="translate(19.744 16.406)">
                      <path id="Trazado_1234769" data-name="Trazado 1234769" d="M339.778,248.471c-.473,3.435-3.045,5.917-5.744,5.545s-4.5-3.458-4.029-6.893,3.046-5.917,5.744-5.545S340.252,245.037,339.778,248.471Z" transform="translate(-326.571 -238.403)" fill="#281608"/>
                      <path id="Trazado_1234770" data-name="Trazado 1234770" d="M332.867,241.589c-2.6.608-5.54-1.372-6.685-3.6-.044-.085-.112-.043-.1.043.405,4.171,5.081,5.781,7.087,4.681Z" transform="translate(-326.077 -237.942)" fill="#281608"/>
                      <path id="Trazado_1234771" data-name="Trazado 1234771" d="M332.775,243.356c-1.774,1.407-4.747.952-6.432-.343-.064-.05-.1.008-.064.071,1.821,3.053,5.99,2.6,7.131,1.026Z" transform="translate(-326.101 -238.59)" fill="#281608"/>
                    </g>
                    <g id="Grupo_1232195" data-name="Grupo 1232195" transform="translate(55.153 25.417)">
                      <path id="Trazado_1234772" data-name="Trazado 1234772" d="M366.916,253.145c-.761,3.185.52,6.209,2.863,6.754s4.858-1.6,5.619-4.782-.52-6.209-2.863-6.753S367.678,249.96,366.916,253.145Z" transform="translate(-366.696 -248.278)" fill="#281608"/>
                      <path id="Trazado_1234773" data-name="Trazado 1234773" d="M375.373,249.587c1.933,1.377,5.013.581,6.7-1.016.065-.061.106,0,.071.071-1.73,3.552-6.112,3.46-7.392,1.84Z" transform="translate(-367.729 -248.312)" fill="#281608"/>
                      <path id="Trazado_1234774" data-name="Trazado 1234774" d="M375.029,250.916c.987,1.816,3.581,2.376,5.4,1.778.07-.024.08.04.03.083-2.518,2.106-5.792.354-6.2-1.4Z" transform="translate(-367.666 -248.616)" fill="#281608"/>
                    </g>
                  </g>
                  <g id="Grupo_1232197" data-name="Grupo 1232197" transform="translate(16.654 4.184)">
                    <path id="Trazado_1234775" data-name="Trazado 1234775" d="M282.071,230.065c6.814,3,12.585-14.841,12.585-14.841s18.056,6.9,29-16.489c0,0,16.637,20.947,55.4,21.106,4.736.02,5.435-18.774-3.542-31.346-8.358-11.7-26.8-19.746-51.39-17.311s-36.126,15.131-40.966,24.24S274.5,226.727,282.071,230.065Z" transform="translate(-277.785 -170.748)" fill="#281608"/>
                    <path id="Trazado_1234776" data-name="Trazado 1234776" d="M325.731,201.114a22.65,22.65,0,0,1-10.655,16.927,20.917,20.917,0,0,1-10.428,2.789c-3.911.017-7.112-1.2-10.656-2.668-.266-.11-.375.285-.181.43,6.1,4.531,15.778,3.923,22.034.132a20.885,20.885,0,0,0,10.07-17.607C325.917,200.994,325.743,201,325.731,201.114Z" transform="translate(-279.827 -174.631)" fill="#281608"/>
                    <path id="Trazado_1234777" data-name="Trazado 1234777" d="M370.466,223.6c-8.895-1.468-17.348-3.763-25.131-8.48a55.583,55.583,0,0,1-18.042-17.328.164.164,0,0,0-.282.165c9.051,15.128,25.828,24.794,43.412,25.957C370.6,223.924,370.644,223.627,370.466,223.6Z" transform="translate(-284.095 -174.206)" fill="#281608"/>
                  </g>
                  <g id="Grupo_1232198" data-name="Grupo 1232198" transform="translate(0 53.227)">
                    <path id="Trazado_1234778" data-name="Trazado 1234778" d="M282.176,237.7s-10.139-13.845-17.944-10.026-8.071,19.857,3.673,27.625c6.955,4.6,11.993,1.853,11.993,1.853Z" transform="translate(-258.681 -227.006)" fill="#d29f5e"/>
                    <path id="Trazado_1234779" data-name="Trazado 1234779" d="M264.818,234.007a.119.119,0,0,0-.1.218c8.283,3.826,10,12.933,12.048,20.857.064.25.477.193.5-.056C277.956,246.118,273.419,237.14,264.818,234.007Z" transform="translate(-259.447 -227.902)" fill="#cb7f45"/>
                  </g>
                </g>
              </g>
              <g id="Grupo_1232213" data-name="Grupo 1232213">
                <path id="Trazado_1234780" data-name="Trazado 1234780" d="M223.823,335.724c-3.5-1.342-69.952,3.993-71.313,3.323s-8.517-15.841-11.2-14.7,1.686,31.626,3.692,32.75,95.843,20.753,100.024,20.709S233.932,339.6,223.823,335.724Z" transform="translate(-67.105 -148.954)" fill="#7eb3ce"/>
                <path id="Trazado_1234781" data-name="Trazado 1234781" d="M150.492,312.225s-6.955-1.528-9.632-1.118-13.534,6.418-13.486,8.53S136.4,317.4,136.4,317.4s-8.277,5.242-7.668,7.07,9.509-3.342,9.509-3.342-7.134,5.027-6.04,6.567,7.988-4.163,7.988-4.163-5.568,5.726-3.846,7.2,6.971-4.895,6.971-4.895,5.074,3.151,9.051-1.256c0,0,19.7,1.109,31.5-.319s24.712-9.832,31.069-20.3c2.725-4.486,6.359-20.815-7.085-18.578-6.015,1-23.393,17.427-27.86,19.23S150.492,312.225,150.492,312.225Z" transform="translate(-65.427 -143.94)" fill="#ffdab6"/>
                <path id="Trazado_1234782" data-name="Trazado 1234782" d="M157.865,309.153c-2.04,1-1.3,14.247,2.518,17.43,2.483,2.068,27.1,0,31.885-1.6,7.538-2.513,20.758-8.7,28.613-22.742s.4-24.679-11.079-16.867c-8.116,5.522-24.951,16.893-26.546,17.761S159.776,308.219,157.865,309.153Z" transform="translate(-69.195 -143.625)" fill="#cdd14b"/>
                <g id="Grupo_1232202" data-name="Grupo 1232202" transform="translate(0 160.687)">
                  <path id="Trazado_1234783" data-name="Trazado 1234783" d="M83.494,384.814c3.455.925,46.552,4.677,48.636,3.9s46.445-31.4,47.247-33.432-44.882-5.9-44.675-6.6-11.258-40.3-13.689-41.17S58.132,326.45,56.4,328.882,81.446,384.266,83.494,384.814Z" transform="translate(-56.314 -307.486)" fill="#6a7f89"/>
                  <path id="Trazado_1234784" data-name="Trazado 1234784" d="M130.36,350.231c-.1.084-1.918,1.209-4.753,2.949-3.033,1.876-7.233,4.461-11.757,7.212-.646.4-1.292.792-1.949,1.2-4.127,2.512-8.411,5.117-12.236,7.42-2.459,1.48-4.732,2.835-6.638,3.971a60.448,60.448,0,0,1-5.92,3.3,41.127,41.127,0,0,1-3.043-5.378c-.928-1.782-2.022-3.908-3.21-6.232-1.8-3.575-3.825-7.618-5.774-11.579-.313-.625-.615-1.251-.917-1.866-2.011-4.1-3.9-8.015-5.367-11.151-1.313-2.824-2.293-5.013-2.709-6.128a2.21,2.21,0,0,1-.219-.782c.063-.24,1.6-.938,4.127-1.928,4.951-1.96,13.715-5.054,22.512-8.045,4.45-1.522,8.911-3.012,12.892-4.314,3.95-1.3,7.441-2.418,9.974-3.2a25.216,25.216,0,0,1,4.3-1.146,19.973,19.973,0,0,1,.865,2.345c.479,1.47,1.146,3.533,1.9,5.93.751,2.376,1.584,5.086,2.429,7.848,1.563,5.107,3.137,10.411,4.2,14.205.448,1.594.8,2.929,1.032,3.857A4.565,4.565,0,0,1,130.36,350.231Z" transform="translate(-57.539 -308.389)" fill="#fff"/>
                  <path id="Trazado_1234785" data-name="Trazado 1234785" d="M98.151,387.147c.644.131,24.334,2.095,25.065,2.095s41.637-25.925,41.637-26.316-23.776-3.518-24.786-3.257S97.457,387.006,98.151,387.147Z" transform="translate(-61.678 -314.176)" fill="#556970"/>
                  <path id="Trazado_1234786" data-name="Trazado 1234786" d="M148.556,383.153c.221.354,8.5,1.723,8.886,1.658s8.859-5.992,9.119-6.253-8.208-1.759-8.6-1.628S148.23,382.633,148.556,383.153Z" transform="translate(-68.143 -316.391)" fill="#556970"/>
                  <g id="Grupo_1232201" data-name="Grupo 1232201" transform="translate(8.548 7.294)" opacity="0.1">
                    <path id="Trazado_1234787" data-name="Trazado 1234787" d="M129.675,346.139,70.6,332.517c4.951-1.96,13.715-5.054,22.512-8.045l32.36,7.462C127.039,337.041,128.612,342.346,129.675,346.139Z" transform="translate(-66.695 -316.958)" fill="#6a7f89"/>
                    <path id="Trazado_1234788" data-name="Trazado 1234788" d="M130.393,353.089c-.1.084-1.918,1.209-4.753,2.949l-56.811-13.1c-1.313-2.824-2.293-5.013-2.709-6.128l64.012,14.768A4.554,4.554,0,0,1,130.393,353.089Z" transform="translate(-66.12 -318.541)" fill="#6a7f89"/>
                    <path id="Trazado_1234789" data-name="Trazado 1234789" d="M128.255,322.981l-17.04-3.929c3.95-1.3,7.441-2.418,9.974-3.2l5.17,1.2C126.838,318.521,127.5,320.584,128.255,322.981Z" transform="translate(-71.903 -315.853)" fill="#6a7f89"/>
                    <path id="Trazado_1234790" data-name="Trazado 1234790" d="M101.872,376.389c-2.459,1.48-4.732,2.835-6.638,3.971l-8.963-2.074c-.928-1.782-2.022-3.908-3.21-6.232Z" transform="translate(-68.292 -323.061)" fill="#6a7f89"/>
                    <path id="Trazado_1234791" data-name="Trazado 1234791" d="M115.073,365.793c-.646.4-1.292.792-1.949,1.2L76.3,358.5c-.313-.625-.615-1.251-.917-1.866Z" transform="translate(-67.308 -321.083)" fill="#6a7f89"/>
                  </g>
                  <g id="Grupo" transform="translate(17.067 6.27)">
                    <text id="English" transform="translate(5.769 32.033) rotate(-22.619)" fill="#7eb3ce" font-size="14" font-family="SegoeUI, Segoe UI"><tspan x="0" y="0">English</tspan></text>
                    <text id="Class" transform="translate(15.685 43.011) rotate(-22.619)" fill="#c95a6e" font-size="13" font-family="SegoeUI, Segoe UI"><tspan x="0" y="0">Class</tspan></text>
                  </g>
                </g>
                <path id="Trazado_1234792" data-name="Trazado 1234792" d="M191.343,366.592c-3.911-.221-68.332,26.258-69.9,26.025s-13.521-13.048-15.831-11.055,11.753,30.932,14.107,31.411,101.978-9.883,106.123-11.26S202.636,367.229,191.343,366.592Z" transform="translate(-62.604 -154.379)" fill="#7eb3ce"/>
                <g id="Grupo_1232203" data-name="Grupo 1232203" transform="translate(116.306 135.803)">
                  <path id="Trazado_1234793" data-name="Trazado 1234793" d="M221.092,280.691c-8.746,4.013-23.312,26.548-28.524,47.4s-3.992,27.262,10,38.012c18.45,14.177,18.861,21.61,29.023,23.818,12.73,2.766,21.033-.3,26.327-4.684,10.075-8.337,1.771-75.213-9.032-93.958C242.18,279.645,230.124,276.547,221.092,280.691Z" transform="translate(-189.731 -278.942)" fill="#cdd14b"/>
                  <path id="Trazado_1234794" data-name="Trazado 1234794" d="M208.431,296.05a54.583,54.583,0,0,0-6.219,8.33c.416-1.238.776-2.492,1.073-3.7a.09.09,0,0,0-.166-.063,38.869,38.869,0,0,0-2.934,7.343c-6.033,11.423-8.927,24.888-9.921,37.14-.012.149.23.168.265.028,2.151-8.826,3.589-17.772,6.516-26.412a82.673,82.673,0,0,1,11.679-22.452C208.846,296.093,208.568,295.9,208.431,296.05Z" transform="translate(-189.799 -281.129)" fill="#b2b238"/>
                </g>
                <g id="Grupo_1232208" data-name="Grupo 1232208" transform="translate(78.128)">
                  <g id="Grupo_1232204" data-name="Grupo 1232204" transform="translate(65.18 130.659)">
                    <path id="Trazado_1234795" data-name="Trazado 1234795" d="M241.283,273.041c-.55,2.757-3.13,8.712-6.332,13.921-3.327,5.4-7.328,9.983-10.457,9.358-3.023-.593-3.8-5.153-3.789-9.625a58.625,58.625,0,0,1,.8-9.106Z" transform="translate(-220.705 -273.041)" fill="#ffdab6"/>
                    <path id="Trazado_1234796" data-name="Trazado 1234796" d="M241.283,273.041c-.55,2.757-3.13,8.712-6.332,13.921A27.475,27.475,0,0,1,220.7,286.7a58.624,58.624,0,0,1,.8-9.106Z" transform="translate(-220.705 -273.041)" fill="#d29f5e"/>
                  </g>
                  <path id="Trazado_1234797" data-name="Trazado 1234797" d="M238.2,166.519c24.312,20.634,22.323,69.5,8.507,85.527s-65.906,26.513-84.23,3.1c-5.163-6.6-1.579-21.182-2.72-25.7s-17.083-45.568,8.874-63.011C193.78,149.535,225.651,155.865,238.2,166.519Z" transform="translate(-146.954 -127.373)" fill="#ffdab6"/>
                  <g id="Grupo_1232205" data-name="Grupo 1232205">
                    <path id="Trazado_1234798" data-name="Trazado 1234798" d="M245.887,208.645c-14.911.162-20.615-19.492-19.526-28.531,0,0-17.5,12.6-21.286-10.19,0,0-1.885,14.177-8.381,15.08s-11.253-11.662-11.253-11.662-2.68,20.294-11.267,20.162c-10.458-.16-12.021-20.248-12.021-20.248s-2.247,17.19-10.418,17.028-6.483-24.569-2.41-31.053,13.33-7.714,13.33-7.714a84.93,84.93,0,0,1,35.756-16.193,94.114,94.114,0,0,1,38.282,1.025s-2.17-10.008,3.58-12.837,2.156,12.391,2.156,12.391,8.577-4.861,10.816-1.652-8.167,5.012-8.167,5.012,16.223,6.9,20.475,15.325-3.721,58.746-8.965,61.187S245.887,208.645,245.887,208.645Z" transform="translate(-145.936 -123.161)" fill="#cb7f45"/>
                    <path id="Trazado_1234799" data-name="Trazado 1234799" d="M259.426,216.106c-3.791.488-7.386.556-10.922-1.157a17.62,17.62,0,0,1-7.382-7.106c-4-6.848-3.469-14.6-2.9-22.191.012-.158-.237-.188-.275-.037-1.925,7.831-1.757,17.033,2.912,23.906,3.893,5.732,11.777,9.539,18.622,7.014C259.7,216.456,259.687,216.073,259.426,216.106Z" transform="translate(-157.588 -131.158)" fill="#cb7f45"/>
                    <path id="Trazado_1234800" data-name="Trazado 1234800" d="M244.005,139.28a60.739,60.739,0,0,0-20.691-6.452,65.959,65.959,0,0,0-23.088,1.3c-12.9,2.867-26.712,8.383-35.12,19.04-.066.084.045.2.12.12,9.072-10.023,21.961-15.081,34.889-17.992a66.458,66.458,0,0,1,22.409-1.455c7.5.891,14.21,3.475,21.294,5.878A.243.243,0,0,0,244.005,139.28Z" transform="translate(-148.392 -124.337)" fill="#cb7f45"/>
                  </g>
                  <g id="Grupo_1232206" data-name="Grupo 1232206" transform="translate(99.839 76.876)">
                    <path id="Trazado_1234801" data-name="Trazado 1234801" d="M260.462,221.723s11.615-14.012,19.635-9.472,7.28,21.535-5.647,29.011c-7.656,4.428-12.813,1.2-12.813,1.2Z" transform="translate(-260.462 -211.346)" fill="#ffdab6"/>
                    <path id="Trazado_1234802" data-name="Trazado 1234802" d="M280.669,219a.126.126,0,0,1,.088.236c-9.011,3.524-11.415,13.055-14.081,21.313-.085.261-.518.173-.522-.091C265.99,230.986,271.364,221.77,280.669,219Z" transform="translate(-261.191 -212.327)" fill="#d29f5e"/>
                  </g>
                  <g id="Grupo_1232207" data-name="Grupo 1232207" transform="translate(13.709 71.482)">
                    <path id="Trazado_1234803" data-name="Trazado 1234803" d="M187.911,246.232c3.05.019,4.592-2.66,4.911-6.155.388-4.244-1.628-8.692-3.284-12.5-.105-.251-.334-.064-.248.19,1.5,4.449.2,8.833-1.916,10.938-1.173,1.159-2.62,2.015-2.9,3.775A3.231,3.231,0,0,0,187.911,246.232Z" transform="translate(-164.58 -208.019)" fill="#d29f5e"/>
                    <path id="Trazado_1234804" data-name="Trazado 1234804" d="M208.623,250.28c4.147,1.155,8.7,1.134,12.364-1.461s4.731-6.776,4.975-11.022c.007-.126.214-.137.225-.008.4,4.544-.393,9.887-4.316,12.79-4.015,2.97-10.194,2.186-13.37.051C208.194,250.425,208.262,250.18,208.623,250.28Z" transform="translate(-167.643 -209.332)" fill="#281608"/>
                    <path id="Trazado_1234805" data-name="Trazado 1234805" d="M207.459,205.88a12.008,12.008,0,0,1,14.661,5.762c.473,1.107-.228,1.416-.669,1.128-2.182-1.427-5.724-3.509-13.474-2.6C205.728,210.428,204.614,206.881,207.459,205.88Z" transform="translate(-167.317 -205.159)" fill="#cb7f45"/>
                    <path id="Trazado_1234806" data-name="Trazado 1234806" d="M172.976,209.107c-8.183.04-11.225,6.519-11.312,8.848-.044,1.191.6,1.154,1,.825,2.168-1.774,4.856-4.737,11.273-5.51C176.165,213,175.961,209.092,172.976,209.107Z" transform="translate(-161.662 -205.666)" fill="#cb7f45"/>
                    <path id="Trazado_1234807" data-name="Trazado 1234807" d="M177.583,236.142c.047,3.467-1.9,6.3-4.36,6.338s-4.484-2.75-4.531-6.216,1.9-6.3,4.36-6.338S177.535,232.675,177.583,236.142Z" transform="translate(-162.563 -208.335)" fill="#281608"/>
                    <path id="Trazado_1234808" data-name="Trazado 1234808" d="M218.2,232.17c.188,3.462-1.864,6.388-4.585,6.536s-5.078-2.539-5.266-6,1.864-6.388,4.585-6.536S218.013,228.709,218.2,232.17Z" transform="translate(-167.648 -207.853)" fill="#281608"/>
                  </g>
                </g>
                <g id="Grupo_1232211" data-name="Grupo 1232211" transform="translate(89.437 148.109)">
                  <g id="Grupo_1232209" data-name="Grupo 1232209" transform="translate(0 1.502)">
                    <path id="Trazado_1234809" data-name="Trazado 1234809" d="M246.614,310.073c-3.07,18.093-15.351,33.042-24.408,40.083-7.63,5.924-20.444,7.662-29.216,8.125,1.938-3.6-4.46-8.195-6.8-9.717,5.965-3.106,19.8-12.767,23.822-16.544,5.686-5.345,11.342-21.878,18.657-31.6C236.914,289.452,249.094,295.461,246.614,310.073Z" transform="translate(-162.408 -294.782)" fill="#ffdab6"/>
                    <path id="Trazado_1234810" data-name="Trazado 1234810" d="M196.942,365.057C190.361,366.07,183.2,367,183.2,367s-2.365,1.414-4.137,2.273-8.2-.713-9.058-.647-7.593,2.233-8.06,1.03c-.167-.432.354-1.022,1.087-1.579-1.192.362-2.325.606-2.54.151s.016-.937.5-1.433c-1.029.255-1.871.286-2.051-.24-.2-.6.527-1.4,1.539-2.18-.54-.065-.858-.343-.8-.894.185-1.629,5.337-4.356,6.715-4.825,1.366-.493,7.045-.612,7.044-.706-.094-.093-5.272-1.547-4.753-2.5,1.234-2.26,8.642-.158,11.291.147.773.087,4.8-.894,8.448-2.8C191.86,355.041,199.8,359.762,196.942,365.057Z" transform="translate(-158.909 -302.222)" fill="#ffdab6"/>
                    <path id="Trazado_1234811" data-name="Trazado 1234811" d="M171.949,364.138a19.7,19.7,0,0,0-10.681,4.114c-.027.023.008.064.037.048a29.485,29.485,0,0,1,10.667-3.988C172.071,364.3,172.049,364.128,171.949,364.138Z" transform="translate(-159.21 -303.676)" fill="#d29f5e"/>
                    <path id="Trazado_1234812" data-name="Trazado 1234812" d="M172.007,366.77a17.544,17.544,0,0,0-8.428,3.063.058.058,0,0,0,.058.1,36.635,36.635,0,0,1,8.384-3.055C172.081,366.864,172.069,366.763,172.007,366.77Z" transform="translate(-159.504 -304.014)" fill="#d29f5e"/>
                    <path id="Trazado_1234813" data-name="Trazado 1234813" d="M170.043,361.731a12.6,12.6,0,0,0-9.174,3.624c-.02.022.006.06.033.043a20.012,20.012,0,0,1,9.141-3.517C170.137,361.871,170.142,361.73,170.043,361.731Z" transform="translate(-159.159 -303.368)" fill="#d29f5e"/>
                  </g>
                  <path id="Trazado_1234814" data-name="Trazado 1234814" d="M187.283,343.812c-1.067,2.5,4.714,20.383,10.3,18.852,5.553-1.522,26.14-6.837,31.118-11.4s18.222-27.382,19.846-36.652c2.316-13.222-2.993-24.407-13.211-20.906-11.112,3.806-20.413,29.73-23.762,34.06S188.994,339.8,187.283,343.812Z" transform="translate(-162.531 -293.059)" fill="#cdd14b"/>
                  <g id="Grupo_1232210" data-name="Grupo 1232210" transform="translate(29.584 5.909)">
                    <path id="Trazado_1234815" data-name="Trazado 1234815" d="M224.132,308.251a.2.2,0,0,0-.337-.2,90.448,90.448,0,0,0-5.681,10.354c-1.764,3.478-3.777,6.895-5.357,10.458a4.488,4.488,0,0,0-1.656,2.062,21.391,21.391,0,0,0-4.442,1.99,154.712,154.712,0,0,0-13.781,8.677c-.086.063.016.185.1.145,4.361-2.023,8.518-4.594,12.7-6.971a30.909,30.909,0,0,1,6.106-2.953c2.421-.74,4.837-.58,7.32-.7.267-.013.39-.436.086-.5a15.668,15.668,0,0,0-6.919.016,6.3,6.3,0,0,1,2.461-1.814c1.455-.557,3.042-.71,4.507-1.25.225-.083.214-.466-.061-.448a15.5,15.5,0,0,0-5.4,1.161,50.263,50.263,0,0,0,5.051-8.907C220.613,315.684,222.452,311.985,224.132,308.251Z" transform="translate(-192.845 -300.878)" fill="#b2b238"/>
                    <path id="Trazado_1234816" data-name="Trazado 1234816" d="M249.2,330.356c-2.814,3.166-4.875,7-7.086,10.593-2.618,4.254-9.583,12.464-14,15.081-8.63,5.119-21.285,7.843-30.563,11.41a.094.094,0,0,0,.05.18,97.937,97.937,0,0,0,17.855-4.824c4.542-1.715,9.473-3.467,13.6-6.048,3.615-2.262,10.2-9.5,12.4-13.032.5-.807,1-1.618,1.5-2.426,1.893-1.424,3.616-3.185,5.366-4.778.134-.122-.045-.364-.2-.255a48.661,48.661,0,0,0-3.919,3.014q2.666-4.322,5.343-8.636C249.7,330.416,249.375,330.16,249.2,330.356Z" transform="translate(-193.441 -303.741)" fill="#b2b238"/>
                    <path id="Trazado_1234817" data-name="Trazado 1234817" d="M249.722,304c-4.325-3.783-12.408-6.3-17.011-1.636-.055.056.021.145.08.092,5.2-4.652,13.5-1.464,17.738,2.956,4.406,4.594,5.581,11.252,4.564,17.367-.013.076.116.1.134.027C256.842,316.049,255.076,308.687,249.722,304Z" transform="translate(-197.955 -299.836)" fill="#b2b238"/>
                  </g>
                </g>
                <g id="Grupo_1232212" data-name="Grupo 1232212" transform="translate(65.02 166.548)">
                  <path id="Trazado_1234818" data-name="Trazado 1234818" d="M145,315.729c-3.122-.816-6.526-1.709-8.912-1.484s-5.788,1.619-5.1,2.957,6.647,1.843,7.136,2.2,3.819,7.955,9.376,7.642S147.655,316.422,145,315.729Z" transform="translate(-130.899 -314.21)" fill="#ffdab6"/>
                  <path id="Trazado_1234819" data-name="Trazado 1234819" d="M150.435,326.292c-5.105.932-8.549-1.293-10.5-5.872a.149.149,0,0,0-.06-.135c-.01-.023-.02-.044-.03-.066a37.031,37.031,0,0,0-3.909-.687c-.031,0-.035.044-.007.053,1.241.4,2.5.7,3.763,1,.79,4.783,6.4,7.72,10.861,6.128A.217.217,0,0,0,150.435,326.292Z" transform="translate(-131.541 -314.892)" fill="#d29f5e"/>
                </g>
              </g>
            </g>
          </g>
        </g>
      </g>
    </g>
  </g>
</svg>
