<svg xmlns="http://www.w3.org/2000/svg" xmlns:xlink="http://www.w3.org/1999/xlink" width="108" height="108" viewBox="0 0 108 108">
  <defs>
    <filter id="Trazado_904820" x="0" y="0" width="108" height="108" filterUnits="userSpaceOnUse">
      <feOffset dy="3" input="SourceAlpha"/>
      <feGaussianBlur stdDeviation="3" result="blur"/>
      <feFlood flood-opacity="0.161"/>
      <feComposite operator="in" in2="blur"/>
      <feComposite in="SourceGraphic"/>
    </filter>
  </defs>
  <g id="Grupo_1232230" data-name="Grupo 1232230" transform="translate(-619.477 -6262)">
    <g id="Grupo_1231663" data-name="Grupo 1231663" transform="translate(0 5728)">
      <g id="Grupo_1229404" data-name="Grupo 1229404" transform="translate(0 61.321)">
        <g id="Grupo_1208347" data-name="Grupo 1208347" transform="translate(628.477 478.679)">
          <g id="Grupo_1207936" data-name="Grupo 1207936" transform="translate(0 0)">
            <g id="Grupo_1201662" data-name="Grupo 1201662">
              <g id="Grupo_1173585" data-name="Grupo 1173585">
                <g id="Grupo_1173428" data-name="Grupo 1173428">
                  <g id="Grupo_1171958" data-name="Grupo 1171958">
                    <g id="Grupo_1167341" data-name="Grupo 1167341">
                      <g id="Grupo_1166792" data-name="Grupo 1166792">
                        <g transform="matrix(1, 0, 0, 1, -9, -6)" filter="url(#Trazado_904820)">
                          <g id="Trazado_904820-2" data-name="Trazado 904820" transform="translate(9 6)" fill="#edf3fc">
                            <path d="M 44.99999618530273 88.49999237060547 C 39.12687301635742 88.49999237060547 33.43022155761719 87.35006713867188 28.06829643249512 85.08216857910156 C 22.88852119445801 82.89130401611328 18.23629570007324 79.75457763671875 14.24084663391113 75.75914001464844 C 10.24540901184082 71.76369476318359 7.108683586120605 67.11146545410156 4.917821407318115 61.93169403076172 C 2.649921178817749 56.56976699829102 1.499996185302734 50.87311553955078 1.499996185302734 44.99999237060547 C 1.499996185302734 39.12686920166016 2.649921178817749 33.43021774291992 4.917821407318115 28.06829261779785 C 7.108683586120605 22.88851737976074 10.24540901184082 18.23630523681641 14.24084663391113 14.24085521697998 C 18.23629570007324 10.24540519714355 22.88852119445801 7.108692169189453 28.06829643249512 4.917829990386963 C 33.43022155761719 2.649929761886597 39.12687301635742 1.500004887580872 44.99999618530273 1.500004887580872 C 50.87311935424805 1.500004887580872 56.56977081298828 2.649929761886597 61.93169784545898 4.917829990386963 C 67.11147308349609 7.108692169189453 71.76369476318359 10.24540519714355 75.75914764404297 14.24085521697998 C 79.75458526611328 18.23630523681641 82.89131164550781 22.88851737976074 85.08216857910156 28.06829261779785 C 87.35007476806641 33.43021774291992 88.5 39.12686920166016 88.5 44.99999237060547 C 88.5 50.87311553955078 87.35007476806641 56.56976699829102 85.08216857910156 61.93169403076172 C 82.89131164550781 67.11146545410156 79.75458526611328 71.76369476318359 75.75914764404297 75.75914001464844 C 71.76369476318359 79.75457763671875 67.11147308349609 82.89130401611328 61.93169784545898 85.08216857910156 C 56.56977081298828 87.35006713867188 50.87311935424805 88.49999237060547 44.99999618530273 88.49999237060547 Z" stroke="none"/>
                            <path d="M 44.99999618530273 2.999992370605469 C 39.32870864868164 2.999992370605469 33.82865142822266 4.11004638671875 28.65262603759766 6.299331665039062 C 23.65165710449219 8.414566040039062 19.15968322753906 11.44333648681641 15.301513671875 15.30150604248047 C 11.44333648681641 19.15967559814453 8.414566040039062 23.65164947509766 6.299339294433594 28.65262222290039 C 4.110054016113281 33.82864761352539 2.999992370605469 39.32870483398438 2.999992370605469 44.99999237060547 C 2.999992370605469 50.67127990722656 4.110054016113281 56.17132186889648 6.299339294433594 61.34736633300781 C 8.414566040039062 66.34833526611328 11.44333648681641 70.84029388427734 15.301513671875 74.69846343994141 C 19.15968322753906 78.55663299560547 23.65165710449219 81.58540344238281 28.65262603759766 83.70063781738281 C 33.82865142822266 85.88992309570312 39.32870864868164 86.99997711181641 44.99999618530273 86.99997711181641 C 50.67128372192383 86.99997711181641 56.17134094238281 85.88992309570312 61.34736633300781 83.70063781738281 C 66.34834289550781 81.58540344238281 70.84030914306641 78.55663299560547 74.69847869873047 74.69846343994141 C 78.55665588378906 70.84029388427734 81.58542633056641 66.34833526611328 83.70065307617188 61.34736633300781 C 85.88993835449219 56.17132186889648 87 50.67127990722656 87 44.99999237060547 C 87 39.32870483398438 85.88993835449219 33.82864761352539 83.70065307617188 28.65262222290039 C 81.58542633056641 23.65164947509766 78.55665588378906 19.15967559814453 74.69847869873047 15.30150604248047 C 70.84030914306641 11.44333648681641 66.34834289550781 8.414566040039062 61.34736633300781 6.299331665039062 C 56.17134094238281 4.11004638671875 50.67128372192383 2.999992370605469 44.99999618530273 2.999992370605469 M 44.99999618530273 -7.62939453125e-06 C 69.85281372070312 -7.62939453125e-06 90 20.14717864990234 90 44.99999237060547 C 90 69.85279083251953 69.85281372070312 89.99997711181641 44.99999618530273 89.99997711181641 C 20.14717864990234 89.99997711181641 -7.62939453125e-06 69.85279083251953 -7.62939453125e-06 44.99999237060547 C -7.62939453125e-06 20.14717864990234 20.14717864990234 -7.62939453125e-06 44.99999618530273 -7.62939453125e-06 Z" stroke="none" fill="#5692e8"/>
                          </g>
                        </g>
                      </g>
                    </g>
                  </g>
                </g>
              </g>
            </g>
          </g>
        </g>
      </g>
    </g>
    <g id="repetitivo_2_" data-name="repetitivo (2)" transform="translate(647.436 6286.813)">
      <g id="Grupo_1232228" data-name="Grupo 1232228" transform="translate(0.763 0.926)">
        <path id="Trazado_1234855" data-name="Trazado 1234855" d="M122.282,332.392c0-8.894,5.647-12.311,5.647-12.311l15.909-1.017a17.428,17.428,0,0,1,5.647,13.328Z" transform="translate(-110.606 -287.388)" fill="#ffb4bf"/>
        <path id="Trazado_1234856" data-name="Trazado 1234856" d="M352.319,9.277a5.324,5.324,0,1,1,7.53,7.53c-2.079,2.079-6.152,2.781-8.232.7s-1.378-6.152.7-8.232Z" transform="translate(-315.488 -7.712)" fill="#4c5698"/>
        <path id="Trazado_1234857" data-name="Trazado 1234857" d="M65.465,27.045a19.382,19.382,0,1,1,38.763,0Z" transform="translate(-59.569 -7.663)" fill="#696eb1"/>
        <path id="Trazado_1234858" data-name="Trazado 1234858" d="M63.258,10.782a6.328,6.328,0,0,0-1.1-1.505,5.324,5.324,0,0,0-7.53,7.53,6.51,6.51,0,0,0,1.916,1.3,19.259,19.259,0,0,0-2.214,8.988h6.881a24.39,24.39,0,0,1,9.709-19.18A19.26,19.26,0,0,0,63.258,10.782Z" transform="translate(-48.437 -7.712)" fill="#4c5698"/>
        <circle id="Elipse_11570" data-name="Elipse 11570" cx="4.029" cy="4.029" r="4.029" transform="translate(37.355 17.138)" fill="#c7856a"/>
        <path id="Trazado_1234859" data-name="Trazado 1234859" d="M177.612,319.064,161.7,320.081a9.468,9.468,0,0,0-1.823,1.589,19.587,19.587,0,0,0,9.758,2.533h.182a19.615,19.615,0,0,0,9.991-2.726A13.17,13.17,0,0,0,177.612,319.064Z" transform="translate(-144.38 -287.388)" fill="#ff8d9d"/>
        <path id="Trazado_1234860" data-name="Trazado 1234860" d="M129.768,115.352a1.217,1.217,0,0,0-1.816-.44,5.118,5.118,0,0,1-6.855-.671,1.21,1.21,0,0,0-1.785,0,5.118,5.118,0,0,1-7.593,0,1.21,1.21,0,0,0-1.785,0,5.118,5.118,0,0,1-6.854.671,1.213,1.213,0,0,0-1.81.428,15.838,15.838,0,0,0-1.663,7.088c0,8.78,7.27,14.967,16.049,14.891,8.721-.076,15.768-6.152,15.768-14.891A15.84,15.84,0,0,0,129.768,115.352Z" transform="translate(-90.239 -103.046)" fill="#da9d81"/>
        <path id="Trazado_1234861" data-name="Trazado 1234861" d="M68.692,141.78a24.5,24.5,0,0,1-1.923-19.008,5.114,5.114,0,0,1-1.023-.593,1.213,1.213,0,0,0-1.81.428,15.8,15.8,0,0,0-1.508,4.862c-.115-.01-.233-.017-.354-.017a4.029,4.029,0,1,0,0,8.059,3.446,3.446,0,0,0,1.277-.232A14.455,14.455,0,0,0,68.692,141.78Z" transform="translate(-52.903 -110.314)" fill="#c7856a"/>
        <g id="Grupo_1232227" data-name="Grupo 1232227" transform="translate(12.708 23.231)">
          <g id="Grupo_1232226" data-name="Grupo 1232226">
            <g id="Grupo_1232224" data-name="Grupo 1232224">
              <ellipse id="Elipse_11571" data-name="Elipse 11571" cx="3.388" cy="2.698" rx="3.388" ry="2.698" fill="#eeedff"/>
            </g>
            <g id="Grupo_1232225" data-name="Grupo 1232225" transform="translate(18.364)">
              <ellipse id="Elipse_11572" data-name="Elipse 11572" cx="3.388" cy="2.698" rx="3.388" ry="2.698" fill="#eeedff"/>
            </g>
          </g>
        </g>
        <path id="Trazado_1234862" data-name="Trazado 1234862" d="M7.5,438.69H58.056v6.678H7.5Z" transform="translate(-7.5 -394.845)" fill="#71dbba"/>
        <path id="Trazado_1234863" data-name="Trazado 1234863" d="M104.3,305.64a4.7,4.7,0,0,0-4.7,4.7,2.824,2.824,0,0,0,2.824,2.824h3.744A2.824,2.824,0,0,0,109,310.337,4.7,4.7,0,0,0,104.3,305.64Z" transform="translate(-90.238 -275.329)" fill="#c7856a"/>
        <path id="Trazado_1234864" data-name="Trazado 1234864" d="M191.331,386.748H179.046l-1.876-3.586,1.876-3.586h12.285l1.864,3.586Z" transform="translate(-159.911 -341.744)" fill="#fce29f"/>
        <path id="Trazado_1234865" data-name="Trazado 1234865" d="M77.261,379.576a2.41,2.41,0,0,0-2.41,2.41v2.353a2.41,2.41,0,0,0,2.41,2.41h9.875v-7.172Z" transform="translate(-68 -341.744)" fill="#ff8d9d"/>
        <path id="Trazado_1234866" data-name="Trazado 1234866" d="M326.258,379.576h-9.875v7.172h9.875a2.41,2.41,0,0,0,2.41-2.41v-2.353A2.41,2.41,0,0,0,326.258,379.576Z" transform="translate(-284.963 -341.744)" fill="#c8a9f1"/>
        <path id="Trazado_1234867" data-name="Trazado 1234867" d="M78.29,381.35a7.823,7.823,0,0,1,.2-1.774H77.261a2.41,2.41,0,0,0-2.41,2.41v2.353a2.41,2.41,0,0,0,2.41,2.41h3.2a7.781,7.781,0,0,1-2.169-5.4Z" transform="translate(-68 -341.744)" fill="#e95b70"/>
        <path id="Trazado_1234868" data-name="Trazado 1234868" d="M201.225,386.749a7.8,7.8,0,0,1-1.964-7.173h-3.644v7.173Z" transform="translate(-176.481 -341.744)" fill="#ffcd71"/>
        <path id="Trazado_1234869" data-name="Trazado 1234869" d="M321.991,386.749a7.8,7.8,0,0,1-1.964-7.173h-3.644v7.173Z" transform="translate(-284.963 -341.744)" fill="#b18ae3"/>
      </g>
      <g id="Grupo_1232229" data-name="Grupo 1232229" transform="translate(0 0.163)">
        <path id="Trazado_1234870" data-name="Trazado 1234870" d="M178.407,215.918a.763.763,0,0,0-.763.763v1.385a.763.763,0,1,0,1.526,0v-1.385A.763.763,0,0,0,178.407,215.918Z" transform="translate(-159.574 -193.971)"/>
        <path id="Trazado_1234871" data-name="Trazado 1234871" d="M320.119,215.918a.763.763,0,0,0-.763.763v1.385a.763.763,0,0,0,1.526,0v-1.385A.763.763,0,0,0,320.119,215.918Z" transform="translate(-286.871 -193.971)"/>
        <path id="Trazado_1234872" data-name="Trazado 1234872" d="M234.884,229.315a.763.763,0,0,0-1.076.074,1.755,1.755,0,0,1-2.65,0,.763.763,0,1,0-1.15,1,3.281,3.281,0,0,0,4.951,0A.763.763,0,0,0,234.884,229.315Z" transform="translate(-206.442 -205.836)"/>
        <path id="Trazado_1234873" data-name="Trazado 1234873" d="M51.319,44.008H45.193a3.186,3.186,0,0,0,.038-.488V41.167a3.176,3.176,0,0,0-3.173-3.173H38.781a17.884,17.884,0,0,0-3.067-4.782,15.085,15.085,0,0,0,5.6-6.4,4.788,4.788,0,0,0,4.85-7.324,20.022,20.022,0,0,0-1.936-7.84,7.009,7.009,0,0,0,1.432-1.088,6.094,6.094,0,0,0,0-8.609A6.027,6.027,0,0,0,43.293.484a.763.763,0,1,0-.484,1.447,4.512,4.512,0,0,1,1.775,1.1,4.567,4.567,0,0,1,0,6.451,5.43,5.43,0,0,1-1.063.816,20.368,20.368,0,0,0-5.994-6.533,5.166,5.166,0,0,1,.606-.735A4.555,4.555,0,0,1,40.2,1.845.763.763,0,0,0,39.809.37a6.084,6.084,0,0,0-2.755,1.582,6.717,6.717,0,0,0-.811.988,20.136,20.136,0,0,0-20.4,0,6.717,6.717,0,0,0-.811-.988A6.087,6.087,0,0,0,6.419,10.56a7.01,7.01,0,0,0,1.432,1.088,20.022,20.022,0,0,0-1.936,7.84A4.788,4.788,0,0,0,10.78,26.81a14.922,14.922,0,0,0,2.595,3.862A5.468,5.468,0,0,0,9.37,35.933a3.566,3.566,0,0,0,.654,2.061,3.176,3.176,0,0,0-3.172,3.173V43.52a3.187,3.187,0,0,0,.038.488H.763A.763.763,0,0,0,0,44.771v6.678a.763.763,0,0,0,.763.763H10.9a.763.763,0,0,0,0-1.526H1.526V45.534H7.571a3.154,3.154,0,0,0,2.442,1.159H42.069a3.153,3.153,0,0,0,2.442-1.159h6.045v5.152H13.949a.763.763,0,1,0,0,1.526h37.37a.763.763,0,0,0,.763-.763V44.771a.763.763,0,0,0-.763-.763ZM43.7,41.167V43.52a1.649,1.649,0,0,1-1.647,1.647H32.946V39.52h9.112A1.649,1.649,0,0,1,43.7,41.167Zm-6.6-3.173H19.635a3.836,3.836,0,0,0,.578-2.962A18.648,18.648,0,0,0,34.36,34a16.014,16.014,0,0,1,2.741,4ZM26.175,34.435a16.546,16.546,0,0,1-6.659-1.3A5.477,5.477,0,0,0,15.37,30.5a13.485,13.485,0,0,1-4.431-9.063c0-.01,0-.021,0-.031a15.151,15.151,0,0,1,1.542-7.847.45.45,0,0,1,.67-.157,5.882,5.882,0,0,0,7.877-.77.447.447,0,0,1,.653,0,5.884,5.884,0,0,0,8.724,0,.447.447,0,0,1,.653,0,5.882,5.882,0,0,0,7.877.77.454.454,0,0,1,.676.169,15.187,15.187,0,0,1,1.577,6.736c0,8.262-6.65,14.053-15.011,14.128ZM42.148,25.36q-.123,0-.245-.009a15.766,15.766,0,0,0,.81-5.043c0-.465-.026-1.027-.061-1.439a3.265,3.265,0,0,1-.5,6.492Zm2.36-7.435a4.8,4.8,0,0,0-2.063-.614,16.588,16.588,0,0,0-1.469-4.419,1.98,1.98,0,0,0-2.955-.711,4.357,4.357,0,0,1-5.832-.572,1.974,1.974,0,0,0-2.916,0,4.358,4.358,0,0,1-6.461,0,1.973,1.973,0,0,0-2.916,0,4.357,4.357,0,0,1-5.832.572,1.972,1.972,0,0,0-1.64-.339c-1.092.259-1.411,1.171-1.813,2.152a16.392,16.392,0,0,0-.972,3.318,4.786,4.786,0,0,0-2.063.614,18.62,18.62,0,0,1,36.933,0ZM7.5,9.481A4.562,4.562,0,1,1,13.948,3.03a5.172,5.172,0,0,1,.606.735A20.368,20.368,0,0,0,8.561,10.3,5.433,5.433,0,0,1,7.5,9.481ZM10.192,25.35a3.265,3.265,0,0,1-.762-6.482,16.816,16.816,0,0,0-.013,2.679c0,.006,0,.012,0,.019a15.4,15.4,0,0,0,.774,3.784ZM14.829,32c.064,0,.127,0,.191,0h0a3.942,3.942,0,0,1,3.743,3.929A2.064,2.064,0,0,1,16.7,37.995H12.956A2.064,2.064,0,0,1,10.9,35.933,3.938,3.938,0,0,1,14.829,32ZM8.377,41.167a1.649,1.649,0,0,1,1.647-1.647h9.112v5.647H10.024A1.649,1.649,0,0,1,8.377,43.52ZM20.661,39.52H31.42v5.647H20.661Z" transform="translate(0 -0.163)"/>
      </g>
    </g>
  </g>
</svg>
