<svg xmlns="http://www.w3.org/2000/svg" xmlns:xlink="http://www.w3.org/1999/xlink" width="98" height="98" viewBox="0 0 98 98">
  <defs>
    <filter id="Trazado_982547" x="0" y="0" width="98" height="98" filterUnits="userSpaceOnUse">
      <feOffset dy="3" input="SourceAlpha"/>
      <feGaussianBlur stdDeviation="3" result="blur"/>
      <feFlood flood-opacity="0.161"/>
      <feComposite operator="in" in2="blur"/>
      <feComposite in="SourceGraphic"/>
    </filter>
    <clipPath id="clip-path">
      <path id="path8121" d="M0-682.665H48.414v48.414H0Z" transform="translate(0 682.665)"/>
    </clipPath>
  </defs>
  <g id="Grupo_1232238" data-name="Grupo 1232238" transform="translate(-195.151 -6660)">
    <g id="Grupo_1231667" data-name="Grupo 1231667" transform="translate(0 4368)">
      <g id="Grupo_1229590" data-name="Grupo 1229590" transform="translate(204.151 2298)">
        <g id="Grupo_1208936" data-name="Grupo 1208936" transform="translate(0)">
          <g id="Grupo_1208171" data-name="Grupo 1208171">
            <g id="Grupo_1207739" data-name="Grupo 1207739">
              <g id="Grupo_1207712" data-name="Grupo 1207712">
                <g id="Grupo_1207285" data-name="Grupo 1207285">
                  <g id="Grupo_1206883" data-name="Grupo 1206883">
                    <g id="Grupo_1204569" data-name="Grupo 1204569">
                      <g id="Grupo_1203962" data-name="Grupo 1203962">
                        <g id="Grupo_1203498" data-name="Grupo 1203498">
                          <g id="Grupo_1202589" data-name="Grupo 1202589">
                            <g id="Grupo_1172010" data-name="Grupo 1172010">
                              <g id="Grupo_1171046" data-name="Grupo 1171046">
                                <g id="Grupo_1148525" data-name="Grupo 1148525">
                                  <g transform="matrix(1, 0, 0, 1, -9, -6)" filter="url(#Trazado_982547)">
                                    <g id="Trazado_982547-2" data-name="Trazado 982547" transform="translate(9 6)" fill="#fdfbec">
                                      <path d="M 39.99999237060547 78.49998474121094 C 34.8018684387207 78.49998474121094 29.76002502441406 77.48226165771484 25.0145263671875 75.47508239746094 C 20.43014717102051 73.53604888916016 16.31264877319336 70.75984954833984 12.77639198303223 67.22359466552734 C 9.240137100219727 63.68733596801758 6.463936805725098 59.5698356628418 4.524903297424316 54.98546981811523 C 2.517725706100464 50.23995971679688 1.500003457069397 45.19811630249023 1.500003457069397 39.99999237060547 C 1.500003457069397 34.8018684387207 2.517725706100464 29.76002502441406 4.524903297424316 25.0145263671875 C 6.463936805725098 20.43014717102051 9.240137100219727 16.31264877319336 12.77639198303223 12.77639198303223 C 16.31264877319336 9.240137100219727 20.43014717102051 6.463936805725098 25.0145263671875 4.524903297424316 C 29.76002502441406 2.517725706100464 34.8018684387207 1.500003457069397 39.99999237060547 1.500003457069397 C 45.19811630249023 1.500003457069397 50.23995971679688 2.517725706100464 54.98546981811523 4.524903297424316 C 59.5698356628418 6.463936805725098 63.68733596801758 9.240137100219727 67.22359466552734 12.77639198303223 C 70.75984954833984 16.31264877319336 73.53604888916016 20.43014717102051 75.47508239746094 25.0145263671875 C 77.48226165771484 29.76002502441406 78.49998474121094 34.8018684387207 78.49998474121094 39.99999237060547 C 78.49998474121094 45.19812393188477 77.48226165771484 50.23995971679688 75.47508239746094 54.98546981811523 C 73.53604888916016 59.5698356628418 70.75984954833984 63.68733596801758 67.22359466552734 67.22359466552734 C 63.68733596801758 70.75984954833984 59.5698356628418 73.53604888916016 54.98546981811523 75.47508239746094 C 50.23995971679688 77.48226165771484 45.19812393188477 78.49998474121094 39.99999237060547 78.49998474121094 Z" stroke="none"/>
                                      <path d="M 39.99999237060547 2.999992370605469 C 35.00370025634766 2.999992370605469 30.1584587097168 3.97784423828125 25.59884643554688 5.906402587890625 C 21.19327163696289 7.769805908203125 17.23603057861328 10.43805694580078 13.83704376220703 13.83704376220703 C 10.43805694580078 17.23603057861328 7.769805908203125 21.19327163696289 5.906402587890625 25.59884643554688 C 3.97784423828125 30.1584587097168 2.999992370605469 35.00370025634766 2.999992370605469 39.99999237060547 C 2.999992370605469 44.99628448486328 3.97784423828125 49.84152603149414 5.906402587890625 54.40113830566406 C 7.769805908203125 58.80671310424805 10.43805694580078 62.76395416259766 13.83704376220703 66.16294097900391 C 17.23603057861328 69.56191253662109 21.19327163696289 72.23016357421875 25.59884643554688 74.09356689453125 C 30.1584587097168 76.02212524414062 35.00370025634766 76.99997711181641 39.99999237060547 76.99997711181641 C 44.99628448486328 76.99997711181641 49.84152603149414 76.02212524414062 54.40113830566406 74.09356689453125 C 58.80671310424805 72.23016357421875 62.76395416259766 69.56191253662109 66.16294097900391 66.16294097900391 C 69.56191253662109 62.76395416259766 72.23016357421875 58.80671310424805 74.09356689453125 54.40113830566406 C 76.02212524414062 49.84152603149414 76.99997711181641 44.99628448486328 76.99997711181641 39.99999237060547 C 76.99997711181641 35.00370025634766 76.02212524414062 30.1584587097168 74.09356689453125 25.59884643554688 C 72.23016357421875 21.19327163696289 69.56191253662109 17.23603057861328 66.16294097900391 13.83704376220703 C 62.76395416259766 10.43805694580078 58.80671310424805 7.769805908203125 54.40113830566406 5.906402587890625 C 49.84152603149414 3.97784423828125 44.99628448486328 2.999992370605469 39.99999237060547 2.999992370605469 M 39.99999237060547 -7.62939453125e-06 C 62.09137725830078 -7.62939453125e-06 79.99997711181641 17.90860748291016 79.99997711181641 39.99999237060547 C 79.99997711181641 62.09137725830078 62.09137725830078 79.99997711181641 39.99999237060547 79.99997711181641 C 17.90860748291016 79.99997711181641 -7.62939453125e-06 62.09137725830078 -7.62939453125e-06 39.99999237060547 C -7.62939453125e-06 17.90860748291016 17.90860748291016 -7.62939453125e-06 39.99999237060547 -7.62939453125e-06 Z" stroke="none" fill="#83793c"/>
                                    </g>
                                  </g>
                                </g>
                              </g>
                            </g>
                          </g>
                        </g>
                      </g>
                    </g>
                  </g>
                </g>
                <g id="g8115" transform="translate(15.793 15.793)">
                  <g id="g8117">
                    <g id="g8119" clip-path="url(#clip-path)">
                      <g id="g8125" transform="translate(-33.259 0.709)">
                        <path id="path8127" d="M-338.457-377.826h-25.835v-25.108c5.31-7.679,37.755-5.416,25.835,25.108" transform="translate(364.292 406.667)" fill="#fbdf63"/>
                      </g>
                      <g id="g8129" transform="translate(-33.259 0.709)">
                        <path id="path8131" d="M-338.457-377.826h-.619c6.164-24.728-15.887-30.6-25.216-24.374v-.734c5.31-7.679,37.755-5.416,25.835,25.108" transform="translate(364.292 406.667)" fill="#f9d11f"/>
                      </g>
                    </g>
                  </g>
                  <g id="g8265">
                    <g id="g8267" clip-path="url(#clip-path)">
                      <g id="g8273" transform="translate(-33.259 51.036)">
                        <path id="path8275" d="M-338.457-377.654h-25.835v-25.1c5.31-7.676,37.755-5.413,25.835,25.1" transform="translate(364.292 406.481)" fill="#003343"/>
                      </g>
                      <g id="g8277" transform="translate(-33.259 51.036)">
                        <path id="path8279" d="M-338.457-377.654h-.619c6.164-24.717-15.887-30.585-25.216-24.362v-.734c5.31-7.676,37.755-5.413,25.835,25.1" transform="translate(364.292 406.481)" fill="#002439"/>
                      </g>
                    </g>
                  </g>
                  <g id="g8281">
                    <g id="g8283" clip-path="url(#clip-path)">
                      <g id="g8289" transform="translate(17.066 51.014)">
                        <path id="path8291" d="M-338.457-377.826h-25.835v-25.108c5.31-7.679,37.755-5.416,25.835,25.108" transform="translate(364.292 406.667)" fill="#ff7e50"/>
                      </g>
                      <g id="g8293" transform="translate(17.066 51.014)">
                        <path id="path8295" d="M-338.457-377.826h-.619c6.164-24.728-15.887-30.6-25.216-24.374v-.734c5.31-7.679,37.755-5.416,25.835,25.108" transform="translate(364.292 406.667)" fill="#ff6247"/>
                      </g>
                      <g id="g8297" transform="translate(2.941 54.225)">
                        <path id="path8299" d="M-233.028-131.751v15.573h-14.6c-12.2-25.649,14.6-34.273,14.6-15.573" transform="translate(250.816 141.808)" fill="#ffa68a"/>
                      </g>
                      <g id="g8301" transform="translate(2.941 54.225)">
                        <path id="path8303" d="M-233.028-131.751c-.9-16.1-20.23-9.82-14.176,15.573h-.427c-12.2-25.649,14.6-34.273,14.6-15.573" transform="translate(250.816 141.808)" fill="#ff7e50"/>
                      </g>
                    </g>
                  </g>
                </g>
              </g>
            </g>
          </g>
        </g>
      </g>
    </g>
    <g id="educacion-ambiental_3_" data-name="educacion-ambiental (3)" transform="translate(218.21 6679.818)">
      <g id="Grupo_1232233" data-name="Grupo 1232233" transform="translate(0.915 1.029)">
        <circle id="Elipse_11573" data-name="Elipse 11573" cx="18.737" cy="18.737" r="18.737" transform="translate(6.381 0)" fill="#b6e6fa"/>
        <path id="Trazado_1234874" data-name="Trazado 1234874" d="M74.571,26.5A18.737,18.737,0,0,1,92.042,7.812c-.418-.028-.84-.044-1.266-.044a18.737,18.737,0,0,0,0,37.474c.426,0,.848-.016,1.266-.044A18.737,18.737,0,0,1,74.571,26.5Z" transform="translate(-65.658 -7.768)" fill="#54c9f3"/>
        <g id="Grupo_1232231" data-name="Grupo 1232231" transform="translate(6.381 0)">
          <path id="Trazado_1234875" data-name="Trazado 1234875" d="M227.647,12.663l2.307,4.747h3.864l3.275-3.267a18.762,18.762,0,0,0-17.914-5.982l3.834,4.5Z" transform="translate(-204.277 -7.768)" fill="#b6efbb"/>
          <path id="Trazado_1234876" data-name="Trazado 1234876" d="M77.651,83.014l4.931-3.833-1.415-4.8H76.379a18.773,18.773,0,0,0-3.863,16.207L77.651,87.1Z" transform="translate(-72.039 -67.631)" fill="#b6efbb"/>
          <path id="Trazado_1234877" data-name="Trazado 1234877" d="M387.923,129.612l-4.852,1.832v2.194l2.348,2.37-1.033,3.885,3.38,2.927a18.806,18.806,0,0,0,.157-13.209Z" transform="translate(-351.569 -117.272)" fill="#b6efbb"/>
        </g>
        <path id="Trazado_1234878" data-name="Trazado 1234878" d="M59.089,414.024l-.847-3.546-24.085,5.773L9.886,410.478l-.847,3.546,25.118,5.953Z" transform="translate(-9.039 -369.691)" fill="#ffaa81"/>
        <path id="Trazado_1234879" data-name="Trazado 1234879" d="M68.333,378.09a6.679,6.679,0,0,0-5.157-6.415l-15.143-3.615-.966,4.976,21.266,5.055,21.258-5.1-.966-4.976L73.3,371.675A6.514,6.514,0,0,0,68.333,378.09Z" transform="translate(-43.215 -331.531)" fill="#fff"/>
        <g id="Grupo_1232232" data-name="Grupo 1232232" transform="translate(20.054 14.808)">
          <path id="Trazado_1234880" data-name="Trazado 1234880" d="M212.1,157.5a4.134,4.134,0,0,1,1.027-2.5c1.368-1.369,3.984-.973,3.984-.973s.4,2.615-.973,3.984-4.038.973-4.038.973-2.669.4-4.037-.973-.973-3.984-.973-3.984,2.615-.4,3.984.973a4.127,4.127,0,0,1,1.026,2.5" transform="translate(-207.039 -153.973)" fill="#feef8f"/>
        </g>
        <path id="Trazado_1234881" data-name="Trazado 1234881" d="M170.8,221.087s-5.65-.855-8.607,2.1a8.63,8.63,0,0,0-2.146,5.408,9.238,9.238,0,0,0-2.287-5.408c-2.957-2.957-8.607-2.1-8.607-2.1s-.855,5.65,2.1,8.607,8.863,2.1,8.863,2.1,5.623.855,8.58-2.1S170.8,221.087,170.8,221.087Z" transform="translate(-134.859 -199.379)" fill="#feef8f"/>
        <path id="Trazado_1234882" data-name="Trazado 1234882" d="M74.571,86.368a18.66,18.66,0,0,1,4.34-11.991H76.379a18.773,18.773,0,0,0-3.863,16.207l2.248-1.525A18.889,18.889,0,0,1,74.571,86.368Z" transform="translate(-65.658 -67.631)" fill="#54e072"/>
        <path id="Trazado_1234883" data-name="Trazado 1234883" d="M153.788,229.7c-2.957-2.957-2.1-8.607-2.1-8.607s.219-.033.592-.064a14.974,14.974,0,0,0-3.124.064s-.855,5.65,2.1,8.607c2.351,2.351,6.566,2.292,8.195,2.17A8.977,8.977,0,0,1,153.788,229.7Z" transform="translate(-134.86 -199.382)" fill="#f7d700"/>
        <path id="Trazado_1234884" data-name="Trazado 1234884" d="M260.338,231.8l-.071-3.2a8.629,8.629,0,0,1,2.146-5.408,8.736,8.736,0,0,1,5.483-2.166c-1.525-.125-5.639-.21-8.015,2.166a8.631,8.631,0,0,0-2.146,5.408l.071,3.2a14.843,14.843,0,0,0,3.116.063C260.554,231.828,260.338,231.8,260.338,231.8Z" transform="translate(-232.547 -199.379)" fill="#f7d700"/>
        <path id="Trazado_1234885" data-name="Trazado 1234885" d="M50.477,369.018l-2.443-.583-.966,4.976,2.627.624Z" transform="translate(-43.216 -331.906)" fill="#dededf"/>
        <path id="Trazado_1234886" data-name="Trazado 1234886" d="M12.531,411.107l-2.646-.629-.847,3.546,2.653.629Z" transform="translate(-9.039 -369.691)" fill="#fe7732"/>
      </g>
      <g id="Grupo_1232234" data-name="Grupo 1232234" transform="translate(23.754 10.73)">
        <path id="Trazado_1234887" data-name="Trazado 1234887" d="M234.539,103.555h1.519v1.519h-1.519Z" transform="translate(-234.539 -103.555)"/>
        <path id="Trazado_1234888" data-name="Trazado 1234888" d="M264.539,103.555h1.519v1.519h-1.519Z" transform="translate(-261.501 -103.555)"/>
      </g>
      <g id="Grupo_1232235" data-name="Grupo 1232235" transform="translate(0 0.269)">
        <path id="Trazado_1234889" data-name="Trazado 1234889" d="M50.681,40.9l-2.8.67-.967-4.977L30.828,40.434a7.16,7.16,0,0,0-4.035,2.626V39.246a19.5,19.5,0,1,0-1.519,0v3.941a7.537,7.537,0,0,0-4.221-2.753l-9.641-2.3-.353,1.478,9.641,2.3a5.986,5.986,0,0,1,4.486,4.695L5.652,41.96l.676-3.479,3.25.776.353-1.478L5.139,36.635l-.966,4.973L1.2,40.9,0,45.926,26.034,52.1l19.359-4.622L45.04,46,26.793,50.352V48.187l22.764-5.456L50.05,44.8l-3.531.843.353,1.478,5.009-1.2ZM25.273,50.354,1.831,44.8l.494-2.069,22.949,5.459ZM44.01,19.765a17.908,17.908,0,0,1-.864,5.507l-2.178-1.886,1.023-3.847-2.435-2.457V15.726l3.622-1.368a17.915,17.915,0,0,1,.831,5.407ZM26.033,1.788a17.929,17.929,0,0,1,13.023,5.6L36.524,9.911H33.449L31.142,5.164H26.384l-2.74-3.217a18.056,18.056,0,0,1,2.389-.159ZM8.056,19.765A17.89,17.89,0,0,1,12.007,8.534h3.849L16.965,12.3,12.148,16.04v4.054L8.3,22.707a18.032,18.032,0,0,1-.242-2.942ZM25.273,31.539l-8.318-8.155c1.78-.013,4.6.272,6.324,1.992a8.168,8.168,0,0,1,1.994,4.438v1.725ZM24.388,32.8c-1.855.017-4.808-.261-6.539-1.992s-2.01-4.593-1.991-6.37Zm.886-12.657a3.983,3.983,0,0,1-2.741-.8,3.947,3.947,0,0,1-.8-2.741,3.949,3.949,0,0,1,2.741.8,3.41,3.41,0,0,1,.8,2.013Zm1.249-3.815a3.678,3.678,0,0,0-.491.611,3.618,3.618,0,0,0-.488-.611c-1.622-1.622-4.513-1.206-4.635-1.187l-.553.084-.084.553c-.019.122-.435,3.013,1.187,4.635a5.369,5.369,0,0,0,3.815,1.248v3.779a7.208,7.208,0,0,0-.92-1.135c-3.192-3.192-9.011-2.353-9.257-2.316l-.554.084-.084.554c-.037.246-.876,6.066,2.316,9.257,2.45,2.45,6.592,2.525,8.5,2.411v3.434A18.013,18.013,0,0,1,8.639,24.312L13.668,20.9V16.783l5.047-3.922L16.992,7.015h-3.62a17.97,17.97,0,0,1,8.546-4.751l3.764,4.419h4.509L32.5,11.431h4.653l2.906-2.9a17.994,17.994,0,0,1,2.6,4.4l-4.621,1.745v3.032L40.3,19.991l-1.043,3.923,3.323,2.878A18.01,18.01,0,0,1,26.793,37.726v-3.45c1.7.133,5.937.168,8.5-2.394,3.192-3.192,2.353-9.011,2.316-9.257l-.084-.554-.554-.084c-.246-.037-6.066-.876-9.257,2.316a6.744,6.744,0,0,0-.92,1.157v-3.8a5.371,5.371,0,0,0,3.815-1.248c1.622-1.622,1.206-4.513,1.187-4.635l-.084-.554-.554-.084c-.122-.019-3.014-.435-4.635,1.187Zm.27,15.424v-.634l.068-.805a7.991,7.991,0,0,1,1.927-4.934c1.729-1.729,4.572-2.008,6.351-1.991Zm9.418-7.29c.018,1.777-.261,4.614-1.994,6.347s-4.553,2.007-6.324,1.991Zm-9.418-4.319V19.4a3.412,3.412,0,0,1,.8-2,3.947,3.947,0,0,1,2.741-.8,3.946,3.946,0,0,1-.8,2.741,3.982,3.982,0,0,1-2.741.8Zm.08,26.465a5.736,5.736,0,0,1,4.308-4.695L45.73,38.438l.677,3.486Z" transform="translate(0 -0.269)"/>
      </g>
    </g>
  </g>
</svg>
