<svg xmlns="http://www.w3.org/2000/svg" xmlns:xlink="http://www.w3.org/1999/xlink" width="98" height="98" viewBox="0 0 98 98">
  <defs>
    <filter id="Trazado_982547" x="0" y="0" width="98" height="98" filterUnits="userSpaceOnUse">
      <feOffset dy="3" input="SourceAlpha"/>
      <feGaussianBlur stdDeviation="3" result="blur"/>
      <feFlood flood-opacity="0.161"/>
      <feComposite operator="in" in2="blur"/>
      <feComposite in="SourceGraphic"/>
    </filter>
    <clipPath id="clip-path">
      <path id="path8121" d="M0-682.665H48.414v48.414H0Z" transform="translate(0 682.665)"/>
    </clipPath>
  </defs>
  <g id="Grupo_1232236" data-name="Grupo 1232236" transform="translate(-1025.151 -6660)">
    <g id="Grupo_1231665" data-name="Grupo 1231665" transform="translate(830 4368)">
      <g id="Grupo_1229590" data-name="Grupo 1229590" transform="translate(204.151 2298)">
        <g id="Grupo_1208936" data-name="Grupo 1208936" transform="translate(0)">
          <g id="Grupo_1208171" data-name="Grupo 1208171">
            <g id="Grupo_1207739" data-name="Grupo 1207739">
              <g id="Grupo_1207712" data-name="Grupo 1207712">
                <g id="Grupo_1207285" data-name="Grupo 1207285">
                  <g id="Grupo_1206883" data-name="Grupo 1206883">
                    <g id="Grupo_1204569" data-name="Grupo 1204569">
                      <g id="Grupo_1203962" data-name="Grupo 1203962">
                        <g id="Grupo_1203498" data-name="Grupo 1203498">
                          <g id="Grupo_1202589" data-name="Grupo 1202589">
                            <g id="Grupo_1172010" data-name="Grupo 1172010">
                              <g id="Grupo_1171046" data-name="Grupo 1171046">
                                <g id="Grupo_1148525" data-name="Grupo 1148525">
                                  <g transform="matrix(1, 0, 0, 1, -9, -6)" filter="url(#Trazado_982547)">
                                    <g id="Trazado_982547-2" data-name="Trazado 982547" transform="translate(9 6)" fill="#fdfbec">
                                      <path d="M 39.99999237060547 78.49998474121094 C 34.8018684387207 78.49998474121094 29.76002502441406 77.48226165771484 25.0145263671875 75.47508239746094 C 20.43014717102051 73.53604888916016 16.31264877319336 70.75984954833984 12.77639198303223 67.22359466552734 C 9.240137100219727 63.68733596801758 6.463936805725098 59.5698356628418 4.524903297424316 54.98546981811523 C 2.517725706100464 50.23995971679688 1.500003457069397 45.19811630249023 1.500003457069397 39.99999237060547 C 1.500003457069397 34.8018684387207 2.517725706100464 29.76002502441406 4.524903297424316 25.0145263671875 C 6.463936805725098 20.43014717102051 9.240137100219727 16.31264877319336 12.77639198303223 12.77639198303223 C 16.31264877319336 9.240137100219727 20.43014717102051 6.463936805725098 25.0145263671875 4.524903297424316 C 29.76002502441406 2.517725706100464 34.8018684387207 1.500003457069397 39.99999237060547 1.500003457069397 C 45.19811630249023 1.500003457069397 50.23995971679688 2.517725706100464 54.98546981811523 4.524903297424316 C 59.5698356628418 6.463936805725098 63.68733596801758 9.240137100219727 67.22359466552734 12.77639198303223 C 70.75984954833984 16.31264877319336 73.53604888916016 20.43014717102051 75.47508239746094 25.0145263671875 C 77.48226165771484 29.76002502441406 78.49998474121094 34.8018684387207 78.49998474121094 39.99999237060547 C 78.49998474121094 45.19812393188477 77.48226165771484 50.23995971679688 75.47508239746094 54.98546981811523 C 73.53604888916016 59.5698356628418 70.75984954833984 63.68733596801758 67.22359466552734 67.22359466552734 C 63.68733596801758 70.75984954833984 59.5698356628418 73.53604888916016 54.98546981811523 75.47508239746094 C 50.23995971679688 77.48226165771484 45.19812393188477 78.49998474121094 39.99999237060547 78.49998474121094 Z" stroke="none"/>
                                      <path d="M 39.99999237060547 2.999992370605469 C 35.00370025634766 2.999992370605469 30.1584587097168 3.97784423828125 25.59884643554688 5.906402587890625 C 21.19327163696289 7.769805908203125 17.23603057861328 10.43805694580078 13.83704376220703 13.83704376220703 C 10.43805694580078 17.23603057861328 7.769805908203125 21.19327163696289 5.906402587890625 25.59884643554688 C 3.97784423828125 30.1584587097168 2.999992370605469 35.00370025634766 2.999992370605469 39.99999237060547 C 2.999992370605469 44.99628448486328 3.97784423828125 49.84152603149414 5.906402587890625 54.40113830566406 C 7.769805908203125 58.80671310424805 10.43805694580078 62.76395416259766 13.83704376220703 66.16294097900391 C 17.23603057861328 69.56191253662109 21.19327163696289 72.23016357421875 25.59884643554688 74.09356689453125 C 30.1584587097168 76.02212524414062 35.00370025634766 76.99997711181641 39.99999237060547 76.99997711181641 C 44.99628448486328 76.99997711181641 49.84152603149414 76.02212524414062 54.40113830566406 74.09356689453125 C 58.80671310424805 72.23016357421875 62.76395416259766 69.56191253662109 66.16294097900391 66.16294097900391 C 69.56191253662109 62.76395416259766 72.23016357421875 58.80671310424805 74.09356689453125 54.40113830566406 C 76.02212524414062 49.84152603149414 76.99997711181641 44.99628448486328 76.99997711181641 39.99999237060547 C 76.99997711181641 35.00370025634766 76.02212524414062 30.1584587097168 74.09356689453125 25.59884643554688 C 72.23016357421875 21.19327163696289 69.56191253662109 17.23603057861328 66.16294097900391 13.83704376220703 C 62.76395416259766 10.43805694580078 58.80671310424805 7.769805908203125 54.40113830566406 5.906402587890625 C 49.84152603149414 3.97784423828125 44.99628448486328 2.999992370605469 39.99999237060547 2.999992370605469 M 39.99999237060547 -7.62939453125e-06 C 62.09137725830078 -7.62939453125e-06 79.99997711181641 17.90860748291016 79.99997711181641 39.99999237060547 C 79.99997711181641 62.09137725830078 62.09137725830078 79.99997711181641 39.99999237060547 79.99997711181641 C 17.90860748291016 79.99997711181641 -7.62939453125e-06 62.09137725830078 -7.62939453125e-06 39.99999237060547 C -7.62939453125e-06 17.90860748291016 17.90860748291016 -7.62939453125e-06 39.99999237060547 -7.62939453125e-06 Z" stroke="none" fill="#83793c"/>
                                    </g>
                                  </g>
                                </g>
                              </g>
                            </g>
                          </g>
                        </g>
                      </g>
                    </g>
                  </g>
                </g>
                <g id="g8115" transform="translate(15.793 15.793)">
                  <g id="g8117">
                    <g id="g8119" clip-path="url(#clip-path)">
                      <g id="g8125" transform="translate(-33.259 0.709)">
                        <path id="path8127" d="M-338.457-377.826h-25.835v-25.108c5.31-7.679,37.755-5.416,25.835,25.108" transform="translate(364.292 406.667)" fill="#fbdf63"/>
                      </g>
                      <g id="g8129" transform="translate(-33.259 0.709)">
                        <path id="path8131" d="M-338.457-377.826h-.619c6.164-24.728-15.887-30.6-25.216-24.374v-.734c5.31-7.679,37.755-5.416,25.835,25.108" transform="translate(364.292 406.667)" fill="#f9d11f"/>
                      </g>
                    </g>
                  </g>
                  <g id="g8265">
                    <g id="g8267" clip-path="url(#clip-path)">
                      <g id="g8273" transform="translate(-33.259 51.036)">
                        <path id="path8275" d="M-338.457-377.654h-25.835v-25.1c5.31-7.676,37.755-5.413,25.835,25.1" transform="translate(364.292 406.481)" fill="#003343"/>
                      </g>
                      <g id="g8277" transform="translate(-33.259 51.036)">
                        <path id="path8279" d="M-338.457-377.654h-.619c6.164-24.717-15.887-30.585-25.216-24.362v-.734c5.31-7.676,37.755-5.413,25.835,25.1" transform="translate(364.292 406.481)" fill="#002439"/>
                      </g>
                    </g>
                  </g>
                  <g id="g8281">
                    <g id="g8283" clip-path="url(#clip-path)">
                      <g id="g8289" transform="translate(17.066 51.014)">
                        <path id="path8291" d="M-338.457-377.826h-25.835v-25.108c5.31-7.679,37.755-5.416,25.835,25.108" transform="translate(364.292 406.667)" fill="#ff7e50"/>
                      </g>
                      <g id="g8293" transform="translate(17.066 51.014)">
                        <path id="path8295" d="M-338.457-377.826h-.619c6.164-24.728-15.887-30.6-25.216-24.374v-.734c5.31-7.679,37.755-5.416,25.835,25.108" transform="translate(364.292 406.667)" fill="#ff6247"/>
                      </g>
                      <g id="g8297" transform="translate(2.941 54.225)">
                        <path id="path8299" d="M-233.028-131.751v15.573h-14.6c-12.2-25.649,14.6-34.273,14.6-15.573" transform="translate(250.816 141.808)" fill="#ffa68a"/>
                      </g>
                      <g id="g8301" transform="translate(2.941 54.225)">
                        <path id="path8303" d="M-233.028-131.751c-.9-16.1-20.23-9.82-14.176,15.573h-.427c-12.2-25.649,14.6-34.273,14.6-15.573" transform="translate(250.816 141.808)" fill="#ff7e50"/>
                      </g>
                    </g>
                  </g>
                </g>
              </g>
            </g>
          </g>
        </g>
      </g>
    </g>
    <g id="book_14122600_1_" data-name="book_14122600 (1)" transform="translate(1043.352 6677.659)">
      <path id="Trazado_1248612" data-name="Trazado 1248612" d="M18,4H50.055V41.712H18Z" transform="translate(-0.4 -0.057)" fill="#fce895"/>
      <path id="Trazado_1248613" data-name="Trazado 1248613" d="M49.712,44H15.771a3.771,3.771,0,1,0,0,7.542H49.712" transform="translate(-0.057 -2.345)" fill="#71c967"/>
      <path id="Trazado_1248614" data-name="Trazado 1248614" d="M37,48V59.314l3.771-2.828,3.771,2.828V48" transform="translate(-1.487 -2.574)" fill="#fce895"/>
      <path id="Trazado_1248615" data-name="Trazado 1248615" d="M12,45.483a3.771,3.771,0,0,1,3.771-3.771h1.886V4H15.771A3.771,3.771,0,0,0,12,7.771Z" transform="translate(-0.057 -0.057)" fill="#a06ad3"/>
      <path id="Trazado_1248616" data-name="Trazado 1248616" d="M30,25h9.428v7.542H30Z" transform="translate(-1.087 -1.258)" fill="#9a9a9b"/>
      <path id="Trazado_1248617" data-name="Trazado 1248617" d="M30.1,37a4.714,4.714,0,0,0,9.239,0" transform="translate(-1.092 -1.945)" fill="#9a9a9b"/>
      <path id="Trazado_1248618" data-name="Trazado 1248618" d="M27,33H42.085v3.771H27Z" transform="translate(-0.915 -1.716)" fill="#db3131"/>
      <ellipse id="Elipse_11583" data-name="Elipse 11583" cx="10.5" cy="10" rx="10.5" ry="10" transform="translate(22.799 7.341)" fill="#ef7c26"/>
      <path id="Trazado_1248619" data-name="Trazado 1248619" d="M44.742,17.371A10.371,10.371,0,0,0,34.371,7v3.818H36.03a1.989,1.989,0,0,1,2.112,2.036,1.886,1.886,0,0,1-1.886,1.688H34.371V20.2H32.485a1.886,1.886,0,1,0,0,3.771h1.886v3.771A10.371,10.371,0,0,1,24,17.371h3.771V15.664A1.989,1.989,0,0,1,29.855,13.6a1.886,1.886,0,0,1,1.688,1.886v1.933H37.2V19.3a1.886,1.886,0,1,0,3.771,0V17.418Z" transform="translate(-0.744 -0.229)" fill="#f2f2f2"/>
      <path id="Trazado_1248620" data-name="Trazado 1248620" d="M35.089,57.579a.943.943,0,0,0,.99-.085l3.206-2.4,3.206,2.4a.943.943,0,0,0,.566.189.858.858,0,0,0,.424-.1A.943.943,0,0,0,44,56.74v-6.6h5.657A.943.943,0,0,0,50.6,49.2V3.943A.943.943,0,0,0,49.655,3H15.714A4.714,4.714,0,0,0,11,7.714V45.426a4.714,4.714,0,0,0,4.714,4.714H34.57v6.6A.943.943,0,0,0,35.089,57.579Zm4.761-4.422a.943.943,0,0,0-1.131,0l-2.263,1.7V46.369h5.657v8.485Zm8.862-12.445H18.542V4.886h30.17Zm-35.006-35a2.828,2.828,0,0,1,2.008-.83h.943V40.712h-.943a4.639,4.639,0,0,0-2.828.943V7.714A2.828,2.828,0,0,1,13.706,5.715Zm2.008,42.539a2.828,2.828,0,0,1,0-5.657h33v5.657H44V46.369h2.828V44.483H14.771v1.886h19.8v1.886Z" transform="translate(0 0)"/>
      <path id="Trazado_1248621" data-name="Trazado 1248621" d="M28.657,27.1v3.413H26.771a.943.943,0,0,0-.943.943v3.771a.943.943,0,0,0,.943.943H29a5.657,5.657,0,0,0,10.635,0h2.225a.943.943,0,0,0,.943-.943V31.455a.943.943,0,0,0-.943-.943H39.97V27.1a11.314,11.314,0,1,0-11.314,0Zm-3.724-8.843h2.781a.943.943,0,0,0,.7-.311,1.009,1.009,0,0,0,.245-.632.877.877,0,0,0-.047-.273l.047-1.612a.943.943,0,1,1,1.886,0v1.886a.943.943,0,0,0,.943.943h1.886V19.2h-.943a2.828,2.828,0,1,0,0,5.657h.943v1.886a9.428,9.428,0,0,1-8.438-8.485Zm9.381,19.8a3.771,3.771,0,0,1-3.262-1.886h6.524A3.771,3.771,0,0,1,34.314,38.055Zm6.6-3.771h-13.2V32.4h13.2Zm-2.828-3.771H30.542V27.967a11.106,11.106,0,0,0,7.542,0Zm-2.828-3.771V24.007a.943.943,0,0,0-.311-.7A1,1,0,0,0,34,23.083l-1.574-.113a.943.943,0,1,1,0-1.886h1.886a.943.943,0,0,0,.943-.943V18.256H36.2V19.2a2.828,2.828,0,0,0,2.527,2.828h.283a2.744,2.744,0,0,0,1.829-.717,3.074,3.074,0,0,0,1.018-2.291v-.764h1.886a9.428,9.428,0,0,1-8.485,8.485ZM43.742,16.37H41.007a1.028,1.028,0,0,0-.943.99v1.659a1.226,1.226,0,0,1-.387.886.83.83,0,0,1-.66.226.943.943,0,0,1-.933-.933V17.36a1.028,1.028,0,0,0-.943-.99H35.256v-.943H36.2A2.828,2.828,0,0,0,39.028,12.9a2.706,2.706,0,0,0-.7-2.112,3.074,3.074,0,0,0-2.31-1.018h-.764V7.932a9.428,9.428,0,0,1,8.485,8.438ZM33.371,7.932v2.781a1.028,1.028,0,0,0,.943.99h1.659a1.2,1.2,0,0,1,.886.4.83.83,0,0,1,.236.651.943.943,0,0,1-.292.566.877.877,0,0,1-.6.226H34.314a1.028,1.028,0,0,0-.943.99V16.37h-.943v-.943a2.828,2.828,0,1,0-5.657,0v.943H24.933A9.428,9.428,0,0,1,33.371,7.932Z" transform="translate(-0.686 -0.171)"/>
    </g>
  </g>
</svg>
