<svg xmlns="http://www.w3.org/2000/svg" width="108.59" height="132.036" viewBox="0 0 108.59 132.036">
  <g id="Grupo_1231996" data-name="Grupo 1231996" transform="translate(-178.645 -7184)">
    <rect id="Rectángulo_423959" data-name="Rectángulo 423959" width="85" height="131" rx="9" transform="translate(180 7184)" fill="#6ae2f6"/>
    <g id="inspire-idea_14781822_1_" data-name="inspire-idea_14781822 (1)" transform="translate(172.25 7200.915)">
      <g id="Grupo_1173811" data-name="Grupo 1173811" transform="translate(7.75 7.5)">
        <path id="Trazado_1030754" data-name="Trazado 1030754" d="M118.589,358.921V351.14a4.731,4.731,0,0,0,3.845-4.648V333.114h24.437v13.379a4.732,4.732,0,0,0,3.845,4.648l.665,6.7Z" transform="translate(-94.873 -263.443)" fill="#ca6e59"/>
        <path id="Trazado_1030755" data-name="Trazado 1030755" d="M86.145,28.559c0,15.395-8.285,33.683-29.376,27.634l-17.6-8a6.949,6.949,0,0,1-.458-10.277l1.776-.49L41.716,36.2a7.343,7.343,0,0,1,1.471-12.6.648.648,0,0,0,.379-.754,6.97,6.97,0,0,1-.195-1.641,6.785,6.785,0,0,1,6.71-6.856,6.717,6.717,0,0,1,1.305.131,3.185,3.185,0,0,1,.507-.514,2.71,2.71,0,0,0,1.125-2.364,7.563,7.563,0,0,1,10.595-.748.638.638,0,0,0,.957-.154,6.639,6.639,0,0,1,11.362,0,.639.639,0,0,0,.959.153,7.536,7.536,0,0,1,1.508-1C86.145,12.2,86.145,23,86.145,28.559Z" transform="translate(-30.474 -7.5)" fill="#73788c"/>
        <path id="Trazado_1030756" data-name="Trazado 1030756" d="M177.719,48.5a6.9,6.9,0,0,1-2.51,5.345L155.082,64.786H137.089l-6.449-2.934a31.616,31.616,0,0,0,21.632-46.337,7.489,7.489,0,0,1,3.406-.815,7.593,7.593,0,0,1,5.681,2.565l.353,1.727,1.28,1.151a6.712,6.712,0,0,1,1.3-.131,6.785,6.785,0,0,1,6.712,6.856,7.008,7.008,0,0,1-.353,2.193,7.335,7.335,0,0,1,2.009,12.8A6.833,6.833,0,0,1,177.719,48.5Z" transform="translate(-104.345 -13.159)" fill="#5e6577"/>
        <path id="Trazado_1030757" data-name="Trazado 1030757" d="M97.224,208.584a11.714,11.714,0,0,0,8.924-11.377h0a4.658,4.658,0,0,0-4.658-4.658H97.224l-46.925.006H46.033a4.658,4.658,0,0,0-4.658,4.659h0A11.714,11.714,0,0,0,50.3,208.59Z" transform="translate(-34.18 -152.954)" fill="#ca6e59"/>
        <path id="Trazado_1030758" data-name="Trazado 1030758" d="M118.569,131.182a4.635,4.635,0,0,1,6.052,1.994,18.609,18.609,0,0,0,1.552,2.358l1.011,1.346c.428,1.25,1.381,7.086,2.7,7.086v17.772a14.826,14.826,0,0,1-5.063,11.159l-9.206,8.058a9.882,9.882,0,0,1-6.507,2.444h-5.46a9.882,9.882,0,0,1-6.507-2.444L87.938,172.9a14.825,14.825,0,0,1-5.063-11.159V143.966a3.147,3.147,0,0,0,2.924-2.15l2.028-7.91a4.634,4.634,0,0,1,6.383-2.679l.3.142,2.385.914a26.408,26.408,0,0,0,18.9,0l2.385-.914Z" transform="translate(-66.801 -104.37)" fill="#d78878"/>
        <path id="Trazado_1030759" data-name="Trazado 1030759" d="M173.391,303.752c-5.076,0-5.3-4.685-5.217-6.385a.64.64,0,0,1,.641-.607h9.136a.64.64,0,0,1,.642.622C178.636,299.1,178.3,303.752,173.391,303.752Z" transform="translate(-133.839 -234.868)" fill="#eaf6ff"/>
        <path id="Trazado_1030760" data-name="Trazado 1030760" d="M21.822,447.765l-13.43-.031a.641.641,0,0,1-.642-.642V435.167a.643.643,0,0,1,.344-.571,20.752,20.752,0,0,1,5.6-1.926l1.547-.31,13.648,5.062Z" transform="translate(-7.75 -341.454)" fill="#9be69d"/>
        <path id="Trazado_1030761" data-name="Trazado 1030761" d="M313.308,438.9l-5.181,8.454-17.884.013-6.471-11.331c.071-.073,13.082-4.158,13.082-4.158l.884.169a20.756,20.756,0,0,1,5.848,2.058Z" transform="translate(-224.712 -341.076)" fill="#9be69d"/>
        <path id="Trazado_1030762" data-name="Trazado 1030762" d="M140.3,418.39l1.954,9.818-7.064,8.551-21.45.025-8.136-8.969,3.035-9.376A21.97,21.97,0,0,0,140.3,418.39Z" transform="translate(-84.669 -330.473)" fill="#eaf6ff"/>
        <path id="Trazado_1030763" data-name="Trazado 1030763" d="M60.96,420.854l-5.843-21.009a2.352,2.352,0,0,0-2.949-1.619L39.18,402.184a1.018,1.018,0,0,0-.636,1.388l2.74,6.2a.642.642,0,0,0,.444.366l6.675,1.532a.642.642,0,0,1,.383.993l-3.622,5.192a.642.642,0,0,0-.078.584l.873,2.411Z" transform="translate(-31.885 -314.543)" fill="#bbf49b"/>
        <path id="Trazado_1030764" data-name="Trazado 1030764" d="M243.879,420.649l5.85-21.033A2.35,2.35,0,0,1,252.678,398l12.988,3.956a1.02,1.02,0,0,1,.636,1.388l-2.74,6.2a.641.641,0,0,1-.444.366l-6.676,1.531a.642.642,0,0,0-.383.993l3.623,5.193a.641.641,0,0,1,.078.584l-.876,2.442Z" transform="translate(-193.355 -314.363)" fill="#bbf49b"/>
        <g id="Grupo_1173808" data-name="Grupo 1173808" transform="translate(79.207 58.043)">
          <path id="Trazado_1030765" data-name="Trazado 1030765" d="M403.357,387.922v8.229a25.062,25.062,0,0,1-.564,4.988,17.516,17.516,0,0,1-2.027,3.646c-1.3,2.183-.729,4.429-.72,6.967L398.4,412.8H382.185v-3.522a8.849,8.849,0,0,0-2.328-5.98,7.325,7.325,0,0,1-1.923-4.943v-3.546a4.34,4.34,0,0,1,1.853-3.556Z" transform="translate(-377.933 -364.567)" fill="#d78878"/>
          <g id="Grupo_1173807" data-name="Grupo 1173807" transform="translate(19.79 13.816)">
            <path id="Trazado_1030766" data-name="Trazado 1030766" d="M476.059,344.729v8.158a1.711,1.711,0,0,1-.687,1.532c-.514.514-2.318-.272-3.1-.265l-1.4-1.491-.451-5.3,1.48-1.143a2.869,2.869,0,0,1,2.794-2.865C475.642,343.7,476.059,344.184,476.059,344.729Z" transform="translate(-470.425 -343.349)" fill="#d78878"/>
            <path id="Trazado_1030767" data-name="Trazado 1030767" d="M484.431,346.207v6.447a2.872,2.872,0,0,1-5.193,1.686l-.184-.195a2.871,2.871,0,0,0,2.846-2.871v-6.44a2.853,2.853,0,0,0-.417-1.491c.026,0,.051,0,.077,0A2.87,2.87,0,0,1,484.431,346.207Z" transform="translate(-477.208 -343.34)" fill="#ca6e59"/>
          </g>
          <path id="Trazado_1030768" data-name="Trazado 1030768" d="M480.108,386.87v8.582a13.993,13.993,0,0,1-1.969,7.157,14,14,0,0,0-1.966,7.211l.006,1.512a.642.642,0,0,1-.642.645h-1.975l-.009-2.157a14.024,14.024,0,0,1,1.969-7.211,13.992,13.992,0,0,0,1.969-7.157V387.24Z" transform="translate(-453.094 -363.74)" fill="#ca6e59"/>
          <path id="Trazado_1030769" data-name="Trazado 1030769" d="M393.982,282.786v23.177c0,1.665-2.724,3.026-4.388,3.026l1.415-3.781-1.956-1.861V282.786a3.029,3.029,0,0,1,1.785-2.756A2.8,2.8,0,0,1,393.982,282.786Z" transform="translate(-386.673 -279.76)" fill="#d78878"/>
          <path id="Trazado_1030770" data-name="Trazado 1030770" d="M420.584,333.608v7.6c0,1.226-1.991,2.287-3.044,2.76a3.033,3.033,0,0,1-1.791-2.76l-.739-.164V333.87l.739-.261a3.032,3.032,0,0,1,1.791-2.758C420.079,331.174,420.584,332.384,420.584,333.608Z" transform="translate(-407.078 -319.707)" fill="#d78878"/>
          <path id="Trazado_1030771" data-name="Trazado 1030771" d="M450.292,333.608v8.064c0,1.224-2.214,2.285-3.266,2.758a3.03,3.03,0,0,1-1.791-2.758l-.721-.46v-7.278l.721-.327a3.032,3.032,0,0,1,1.791-2.758C449.895,331.24,450.292,332.384,450.292,333.608Z" transform="translate(-430.268 -319.707)" fill="#d78878"/>
          <path id="Trazado_1030772" data-name="Trazado 1030772" d="M401.9,281.8v21.943a1.368,1.368,0,0,1-2.726,0V281.8a3.033,3.033,0,0,0-1.782-2.756,2.978,2.978,0,0,1,1.241-.27h.242A3.034,3.034,0,0,1,401.9,281.8Z" transform="translate(-393.23 -278.77)" fill="#ca6e59"/>
          <path id="Trazado_1030773" data-name="Trazado 1030773" d="M431.338,332.625v7.6a3.035,3.035,0,0,1-3.025,3.028h-.244a2.955,2.955,0,0,1-1.234-.267,3.033,3.033,0,0,0,1.791-2.76v-7.6a3.032,3.032,0,0,0-1.791-2.758,2.956,2.956,0,0,1,1.234-.267h.244A3.035,3.035,0,0,1,431.338,332.625Z" transform="translate(-416.371 -318.724)" fill="#ca6e59"/>
          <path id="Trazado_1030774" data-name="Trazado 1030774" d="M460.758,332.625v8.064a3.035,3.035,0,0,1-3.028,3.026h-.242a2.947,2.947,0,0,1-1.235-.268,3.03,3.03,0,0,0,1.789-2.758v-8.064a3.033,3.033,0,0,0-1.789-2.758,2.949,2.949,0,0,1,1.235-.267h.242A3.037,3.037,0,0,1,460.758,332.625Z" transform="translate(-439.496 -318.724)" fill="#ca6e59"/>
          <path id="Trazado_1030775" data-name="Trazado 1030775" d="M410.3,368.912a6.5,6.5,0,0,1-.138,1.332c-.562,2.691-4.566,3.025-7.4,3.32,0,0-3.082-1.436-5.363-.73-1.7.525-2.762,3.249-2.787,3.231l-5.555-2.906v-2.736l5.363-3.856a6.009,6.009,0,0,1,3.434-1.118l8.9-.084A3.55,3.55,0,0,1,410.3,368.912Z" transform="translate(-386.671 -346.837)" fill="#ca6e59"/>
          <path id="Trazado_1030776" data-name="Trazado 1030776" d="M394.752,386.1l2.533-3.409a.642.642,0,0,1,.438-.254l5.475-.664a4.345,4.345,0,0,0,2.995-4.167,1.462,1.462,0,0,0-1.471-1.43h-8.055a5.438,5.438,0,0,0-3.119.982l-6.952,4.865Z" transform="translate(-384.742 -355.337)" fill="#d78878"/>
        </g>
        <g id="Grupo_1173810" data-name="Grupo 1173810" transform="translate(58.791 3.024)">
          <path id="Trazado_1030777" data-name="Trazado 1030777" d="M325.434,38.779c0,13.908-10.841,25.31-24.749,25.31-4.515,0-14.427-3.313-15.717-6.912l.244-.984a.635.635,0,0,0-.056-.447,23.364,23.364,0,0,1,36.178-28.284C324.335,32.155,325.434,36.057,325.434,38.779Z" transform="translate(-282.516 -21.635)" fill="#eaf6ff"/>
          <path id="Trazado_1030778" data-name="Trazado 1030778" d="M329.8,71.338a23.4,23.4,0,0,1-35.069,14.941.638.638,0,0,0-.454-.083l-9.635,1.836a.643.643,0,0,1-.745-.785l2.142-8.666A25.2,25.2,0,0,0,322.4,48.865,23.307,23.307,0,0,1,329.8,71.338Z" transform="translate(-283.586 -43.039)" fill="#d8ecfe"/>
          <g id="Grupo_1173809" data-name="Grupo 1173809" transform="translate(11.307 5.82)">
            <path id="Trazado_1030779" data-name="Trazado 1030779" d="M356.713,61.354c0,6.26-6.575,12.316-12.964,12.316-.969,0-2.017.659-3.709-1.841a13.611,13.611,0,0,0-1.674-2.945,11.6,11.6,0,0,1,6.544-19.2C353.688,49.682,356.713,55.785,356.713,61.354Z" transform="translate(-335.361 -49.501)" fill="#ffe177"/>
            <path id="Trazado_1030780" data-name="Trazado 1030780" d="M374.438,60.434a11.556,11.556,0,0,1-2.951,7.727,14,14,0,0,0-2.808,8.349v.725L357,77.272v-.64a19.6,19.6,0,0,0-1.435-6.379,11.743,11.743,0,0,0,2.81.338c6.389,0,11.923-4.16,11.923-10.42a11.4,11.4,0,0,0-9.508-11.152,11.605,11.605,0,0,1,13.645,11.416Z" transform="translate(-351.244 -48.837)" fill="#ffd15b"/>
            <path id="Trazado_1030781" data-name="Trazado 1030781" d="M370.823,179.51l1.815,3.545c0,1.924-1.152,3.545-5.3,3.545h-.909a3.482,3.482,0,0,1-3.482-3.482V179.51h7.871Z" transform="translate(-357.048 -151.55)" fill="#5e6577"/>
            <path id="Trazado_1030782" data-name="Trazado 1030782" d="M390.469,179.511v3.607a3.482,3.482,0,0,1-3.482,3.482h-3.513a3.48,3.48,0,0,0,3.48-3.482v-3.607Z" transform="translate(-373.179 -151.551)" fill="#4d5263"/>
            <path id="Trazado_1030783" data-name="Trazado 1030783" d="M362.307,161.767c0,.771.467,1.644,0,2.15s-3.939,1.1-4.654,1.1h-8.564a2.694,2.694,0,0,1-2.585-2.791,2.908,2.908,0,0,1,.756-1.975,2.492,2.492,0,0,1,1.829-.817h8.564C359.082,159.439,362.307,160.225,362.307,161.767Z" transform="translate(-344.12 -135.774)" fill="#73788c"/>
            <path id="Trazado_1030784" data-name="Trazado 1030784" d="M405.886,162.232a2.9,2.9,0,0,1-.756,1.974,2.492,2.492,0,0,1-1.829.817h-4.69a2.488,2.488,0,0,0,1.829-.817,2.9,2.9,0,0,0,.756-1.974,2.7,2.7,0,0,0-2.586-2.793h4.69A2.694,2.694,0,0,1,405.886,162.232Z" transform="translate(-385.077 -135.774)" fill="#5e6577"/>
          </g>
        </g>
      </g>
      <g id="Grupo_1173820" data-name="Grupo 1173820" transform="translate(7.75 7.5)">
        <g id="Grupo_1173812" data-name="Grupo 1173812" transform="translate(7.195 39.601)">
          <path id="Trazado_1030785" data-name="Trazado 1030785" d="M50.192,208.585a11.714,11.714,0,0,1-8.816-11.35h0a4.658,4.658,0,0,1,4.658-4.658H50.3" transform="translate(-41.376 -192.577)" fill="none" stroke="#000" stroke-linecap="round" stroke-linejoin="round" stroke-miterlimit="10" stroke-width="2"/>
          <path id="Trazado_1030786" data-name="Trazado 1030786" d="M311.211,232.041a11.734,11.734,0,0,1-8.154,7.549" transform="translate(-247.066 -223.597)" fill="none" stroke="#000" stroke-linecap="round" stroke-linejoin="round" stroke-miterlimit="10" stroke-width="2"/>
        </g>
        <path id="Trazado_1030787" data-name="Trazado 1030787" d="M209.872,133.769a26.4,26.4,0,0,0,5.74-1.487l2.385-.914.4-.186a4.634,4.634,0,0,1,6.356,2.691" transform="translate(-166.624 -104.37)" fill="none" stroke="#000" stroke-linecap="round" stroke-linejoin="round" stroke-miterlimit="10" stroke-width="2"/>
        <path id="Trazado_1030788" data-name="Trazado 1030788" d="M129.889,152.717v9.137a14.826,14.826,0,0,1-5.063,11.159l-9.206,8.058a9.882,9.882,0,0,1-6.507,2.444h-5.46a9.882,9.882,0,0,1-6.507-2.444l-9.206-8.058a14.825,14.825,0,0,1-5.063-11.159V144.082a3.147,3.147,0,0,0,2.924-2.15l2.028-7.91a4.634,4.634,0,0,1,6.383-2.679l.3.142,2.385.914a26.389,26.389,0,0,0,5.7,1.482" transform="translate(-66.801 -104.486)" fill="none" stroke="#000" stroke-linecap="round" stroke-linejoin="round" stroke-miterlimit="10" stroke-width="2"/>
        <g id="Grupo_1173814" data-name="Grupo 1173814" transform="translate(26.001 37.567)">
          <g id="Grupo_1173813" data-name="Grupo 1173813">
            <path id="Trazado_1030789" data-name="Trazado 1030789" d="M186.587,262.089a4.96,4.96,0,0,1-4.5,0" transform="translate(-170.787 -245.182)" fill="none" stroke="#000" stroke-linecap="round" stroke-linejoin="round" stroke-miterlimit="10" stroke-width="2"/>
            <path id="Trazado_1030790" data-name="Trazado 1030790" d="M137.493,184.127a8.557,8.557,0,0,0-8.227,0" transform="translate(-129.266 -183.073)" fill="none" stroke="#000" stroke-linecap="round" stroke-linejoin="round" stroke-miterlimit="10" stroke-width="2"/>
            <path id="Trazado_1030791" data-name="Trazado 1030791" d="M225.713,184.127a8.557,8.557,0,0,0-8.227,0" transform="translate(-198.61 -183.073)" fill="none" stroke="#000" stroke-linecap="round" stroke-linejoin="round" stroke-miterlimit="10" stroke-width="2"/>
            <line id="Línea_813" data-name="Línea 813" y1="3.645" transform="translate(22.99 6.178)" fill="none" stroke="#000" stroke-linecap="round" stroke-linejoin="round" stroke-miterlimit="10" stroke-width="2"/>
            <line id="Línea_814" data-name="Línea 814" y1="3.645" transform="translate(4.114 6.178)" fill="none" stroke="#000" stroke-linecap="round" stroke-linejoin="round" stroke-miterlimit="10" stroke-width="2"/>
          </g>
          <path id="Trazado_1030792" data-name="Trazado 1030792" d="M173.391,303.752c-6.2,0-5.164-6.992-5.164-6.992h10.328S179.407,303.752,173.391,303.752Z" transform="translate(-159.84 -272.435)" fill="none" stroke="#000" stroke-linecap="round" stroke-linejoin="round" stroke-miterlimit="10" stroke-width="2"/>
        </g>
        <path id="Trazado_1030793" data-name="Trazado 1030793" d="M95.528,16.754a6.616,6.616,0,0,0-6.406-2.269A7.7,7.7,0,0,0,81.81,9.041a7.578,7.578,0,0,0-5.494,2.365,6.653,6.653,0,0,0-12.119,0A7.578,7.578,0,0,0,58.7,9.041a7.7,7.7,0,0,0-7.313,5.444,6.612,6.612,0,0,0-1.305-.131,6.784,6.784,0,0,0-6.711,6.854,6.976,6.976,0,0,0,.353,2.193,7.337,7.337,0,0,0-2.009,12.8,6.914,6.914,0,0,0-2.546,11.988" transform="translate(-30.477 -7.5)" fill="none" stroke="#000" stroke-linecap="round" stroke-linejoin="round" stroke-miterlimit="10" stroke-width="2"/>
        <path id="Trazado_1030794" data-name="Trazado 1030794" d="M63.355,142.868a6.717,6.717,0,0,1-3.028-1.227" transform="translate(-49.077 -112.939)" fill="none" stroke="#000" stroke-linecap="round" stroke-linejoin="round" stroke-miterlimit="10" stroke-width="2"/>
        <path id="Trazado_1030795" data-name="Trazado 1030795" d="M105.6,40.2a6.368,6.368,0,0,1,4.036,2.681" transform="translate(-84.663 -33.202)" fill="none" stroke="#000" stroke-linecap="round" stroke-linejoin="round" stroke-miterlimit="10" stroke-width="2"/>
        <path id="Trazado_1030796" data-name="Trazado 1030796" d="M269.788,40.183a6.378,6.378,0,0,0-3.242,2.47" transform="translate(-211.172 -33.19)" fill="none" stroke="#000" stroke-linecap="round" stroke-linejoin="round" stroke-miterlimit="10" stroke-width="2"/>
        <path id="Trazado_1030797" data-name="Trazado 1030797" d="M327.125,47.44q-.107.678-.255,1.357a24.087,24.087,0,0,1-36.32,15.247l-11.182,2.131L282.128,55A24.026,24.026,0,0,1,299.32,20" transform="translate(-221.193 -17.327)" fill="none" stroke="#000" stroke-linecap="round" stroke-linejoin="round" stroke-miterlimit="10" stroke-width="2"/>
        <path id="Trazado_1030798" data-name="Trazado 1030798" d="M407.545,19.544q.863.123,1.729.311a24.053,24.053,0,0,1,18.665,19.737" transform="translate(-322.002 -16.967)" fill="none" stroke="#000" stroke-linecap="round" stroke-linejoin="round" stroke-miterlimit="10" stroke-width="2"/>
        <g id="Grupo_1173815" data-name="Grupo 1173815" transform="translate(70.097 8.85)">
          <path id="Trazado_1030799" data-name="Trazado 1030799" d="M340.4,72.128a13.677,13.677,0,0,0-2.041-3.927,11.584,11.584,0,1,1,17.221-.059,14.287,14.287,0,0,0-2.076,3.939" transform="translate(-335.355 -48.863)" fill="none" stroke="#000" stroke-linecap="round" stroke-linejoin="round" stroke-miterlimit="10" stroke-width="2"/>
          <line id="Línea_815" data-name="Línea 815" y1="8.517" transform="translate(11.584 14.702)" fill="none" stroke="#000" stroke-linecap="round" stroke-linejoin="round" stroke-miterlimit="10" stroke-width="2"/>
          <path id="Trazado_1030800" data-name="Trazado 1030800" d="M374.291,186.134v1.318a4.279,4.279,0,0,1-4.279,4.279H367.2a4.279,4.279,0,0,1-4.279-4.279v-1.318" transform="translate(-357.02 -156.762)" fill="none" stroke="#000" stroke-linecap="round" stroke-linejoin="round" stroke-miterlimit="10" stroke-width="2"/>
          <path id="Trazado_1030801" data-name="Trazado 1030801" d="M363.324,163.625H351.8a2.929,2.929,0,0,1-2.929-2.929v-.173A2.929,2.929,0,0,1,351.8,157.6h11.529a2.929,2.929,0,0,1,2.929,2.929v.173A2.929,2.929,0,0,1,363.324,163.625Z" transform="translate(-345.976 -134.33)" fill="none" stroke="#000" stroke-linecap="round" stroke-linejoin="round" stroke-miterlimit="10" stroke-width="2"/>
          <line id="Línea_816" data-name="Línea 816" x2="7.416" transform="translate(8.03 14.684)" fill="none" stroke="#000" stroke-linecap="round" stroke-linejoin="round" stroke-miterlimit="10" stroke-width="2"/>
        </g>
        <path id="Trazado_1030802" data-name="Trazado 1030802" d="M346.53,432.2l.538.1a20.718,20.718,0,0,1,5.846,2.059" transform="translate(-274.042 -341.324)" fill="none" stroke="#000" stroke-linecap="round" stroke-linejoin="round" stroke-miterlimit="10" stroke-width="2"/>
        <path id="Trazado_1030803" data-name="Trazado 1030803" d="M250.768,358.351v7.979a4.732,4.732,0,0,0,3.845,4.648" transform="translate(-198.77 -283.28)" fill="none" stroke="#000" stroke-linecap="round" stroke-linejoin="round" stroke-miterlimit="10" stroke-width="2"/>
        <path id="Trazado_1030804" data-name="Trazado 1030804" d="M118.589,417.362h0a21.975,21.975,0,0,0,32.127,0h0" transform="translate(-94.873 -329.665)" fill="none" stroke="#000" stroke-linecap="round" stroke-linejoin="round" stroke-miterlimit="10" stroke-width="2"/>
        <path id="Trazado_1030805" data-name="Trazado 1030805" d="M14.532,374.327l-.842.169A20.717,20.717,0,0,0,7.75,376.6m27.561-18.254v7.979a4.732,4.732,0,0,1-3.845,4.648l-.246.047" transform="translate(-7.75 -283.28)" fill="none" stroke="#000" stroke-linecap="round" stroke-linejoin="round" stroke-miterlimit="10" stroke-width="2"/>
        <g id="Grupo_1173816" data-name="Grupo 1173816" transform="translate(5.981 83.581)">
          <path id="Trazado_1030806" data-name="Trazado 1030806" d="M55.723,411.918l-3.358-12.073a2.352,2.352,0,0,0-2.949-1.619l-12.989,3.958a1.018,1.018,0,0,0-.636,1.388l2.87,6.5,7.916,1.816-4.357,6.244.987,2.754" transform="translate(-35.703 -398.124)" fill="none" stroke="#000" stroke-linecap="round" stroke-linejoin="round" stroke-miterlimit="10" stroke-width="2"/>
          <line id="Línea_817" data-name="Línea 817" x1="0.487" y1="1.752" transform="translate(22.026 21.009)" fill="none" stroke="#000" stroke-linecap="round" stroke-linejoin="round" stroke-miterlimit="10" stroke-width="2"/>
          <path id="Trazado_1030807" data-name="Trazado 1030807" d="M244.868,420.886l5.852-21.04a2.35,2.35,0,0,1,2.949-1.618l12.988,3.957a1.02,1.02,0,0,1,.636,1.388l-2.87,6.5-7.917,1.816,4.357,6.245-.988,2.754" transform="translate(-200.114 -398.125)" fill="none" stroke="#000" stroke-linecap="round" stroke-linejoin="round" stroke-miterlimit="10" stroke-width="2"/>
        </g>
        <g id="Grupo_1173819" data-name="Grupo 1173819" transform="translate(79.221 58.104)">
          <g id="Grupo_1173817" data-name="Grupo 1173817" transform="translate(21.271 13.816)">
            <path id="Trazado_1030808" data-name="Trazado 1030808" d="M483.154,346.494a2.867,2.867,0,0,0-2.867-2.868h0a2.871,2.871,0,0,0-2.871,2.871v6.44a2.871,2.871,0,0,0,2.871,2.871h0a2.871,2.871,0,0,0,2.871-2.871Z" transform="translate(-477.412 -343.626)" fill="none" stroke="#000" stroke-linecap="round" stroke-linejoin="round" stroke-miterlimit="10" stroke-width="2"/>
            <path id="Trazado_1030809" data-name="Trazado 1030809" d="M490.831,400.563" transform="translate(-487.96 -388.38)" fill="none" stroke="#000" stroke-linecap="round" stroke-linejoin="round" stroke-miterlimit="10" stroke-width="2"/>
          </g>
          <g id="Grupo_1173818" data-name="Grupo 1173818" transform="translate(23.078 23.21)">
            <path id="Trazado_1030810" data-name="Trazado 1030810" d="M489.793,387.53v8.581a13.938,13.938,0,0,1-1.968,7.079h0a14.006,14.006,0,0,0-1.968,7.21l.008,2.157" transform="translate(-485.858 -387.53)" fill="none" stroke="#000" stroke-linecap="round" stroke-linejoin="round" stroke-miterlimit="10" stroke-width="2"/>
          </g>
          <path id="Trazado_1030811" data-name="Trazado 1030811" d="M433.859,414.75a11.739,11.739,0,0,1,2.507,10.733l-.089.343" transform="translate(-421.907 -385.716)" fill="none" stroke="#000" stroke-linecap="round" stroke-linejoin="round" stroke-miterlimit="10" stroke-width="2"/>
          <path id="Trazado_1030812" data-name="Trazado 1030812" d="M389.115,305.244V282.083a3.035,3.035,0,0,1,3.026-3.026h.243a3.035,3.035,0,0,1,3.026,3.026V300.9" transform="translate(-386.737 -279.057)" fill="none" stroke="#000" stroke-linecap="round" stroke-linejoin="round" stroke-miterlimit="10" stroke-width="2"/>
          <path id="Trazado_1030813" data-name="Trazado 1030813" d="M418.532,332.919a3.035,3.035,0,0,1,3.026-3.026h.243a3.035,3.035,0,0,1,3.026,3.026v6.887" transform="translate(-409.859 -319.016)" fill="none" stroke="#000" stroke-linecap="round" stroke-linejoin="round" stroke-miterlimit="10" stroke-width="2"/>
          <path id="Trazado_1030814" data-name="Trazado 1030814" d="M447.947,339.732v-6.814a3.035,3.035,0,0,1,3.026-3.026h.243a3.035,3.035,0,0,1,3.026,3.026v2.889" transform="translate(-432.98 -319.016)" fill="none" stroke="#000" stroke-linecap="round" stroke-linejoin="round" stroke-miterlimit="10" stroke-width="2"/>
          <path id="Trazado_1030815" data-name="Trazado 1030815" d="M388.009,386.392l2.7-3.63,5.406-.7a4.345,4.345,0,0,0,3-4.128,1.471,1.471,0,0,0-1.471-1.47h-7.713a5.437,5.437,0,0,0-3.119.982l-6.952,4.865A4.343,4.343,0,0,0,378,385.873v3.545a7.316,7.316,0,0,0,1.924,4.942,8.851,8.851,0,0,1,2.328,5.982v3.521" transform="translate(-377.999 -355.625)" fill="none" stroke="#000" stroke-linecap="round" stroke-linejoin="round" stroke-miterlimit="10" stroke-width="2"/>
        </g>
      </g>
    </g>
  </g>
</svg>
