<svg xmlns="http://www.w3.org/2000/svg" xmlns:xlink="http://www.w3.org/1999/xlink" width="113" height="113" viewBox="0 0 113 113">
  <defs>
    <filter id="Trazado_982547" x="0" y="0" width="113" height="113" filterUnits="userSpaceOnUse">
      <feOffset dy="3" input="SourceAlpha"/>
      <feGaussianBlur stdDeviation="3" result="blur"/>
      <feFlood flood-opacity="0.161"/>
      <feComposite operator="in" in2="blur"/>
      <feComposite in="SourceGraphic"/>
    </filter>
  </defs>
  <g id="Grupo_1231997" data-name="Grupo 1231997" transform="translate(-796 -8172.411)">
    <g id="Grupo_1231432" data-name="Grupo 1231432" transform="translate(805 8178.411)">
      <g id="Grupo_1230841" data-name="Grupo 1230841">
        <g id="Grupo_1208492" data-name="Grupo 1208492">
          <g id="Grupo_1177675" data-name="Grupo 1177675" transform="translate(0 0)">
            <g id="Grupo_1176928" data-name="Grupo 1176928" transform="translate(0)">
              <g id="Grupo_1172322" data-name="Grupo 1172322" transform="translate(0 0)">
                <g id="Grupo_1164700" data-name="Grupo 1164700">
                  <g id="Grupo_1160931" data-name="Grupo 1160931">
                    <g id="Grupo_1160749" data-name="Grupo 1160749">
                      <g id="Grupo_1158891" data-name="Grupo 1158891">
                        <g id="Grupo_1157406" data-name="Grupo 1157406">
                          <g id="Grupo_1155793" data-name="Grupo 1155793">
                            <g id="Grupo_1154704" data-name="Grupo 1154704">
                              <g id="Grupo_1150790" data-name="Grupo 1150790">
                                <g id="Grupo_1154214" data-name="Grupo 1154214">
                                  <g id="Grupo_1152583" data-name="Grupo 1152583">
                                    <g id="Grupo_1146973" data-name="Grupo 1146973">
                                      <g id="Grupo_1146954" data-name="Grupo 1146954">
                                        <g transform="matrix(1, 0, 0, 1, -9, -6)" filter="url(#Trazado_982547)">
                                          <g id="Trazado_982547-2" data-name="Trazado 982547" transform="translate(9 6)" fill="#fcf8db">
                                            <path d="M 47.5000114440918 93.49987030029297 C 41.28938293457031 93.49987030029297 35.26534652709961 92.28384399414062 29.5951976776123 89.88558959960938 C 24.11773109436035 87.56881713867188 19.19814491271973 84.25183868408203 14.97310447692871 80.02680206298828 C 10.74805164337158 75.80176544189453 7.43107795715332 70.88218688964844 5.114304542541504 65.40472412109375 C 2.716038227081299 59.73458862304688 1.500011444091797 53.71054840087891 1.500011444091797 47.49993515014648 C 1.500011444091797 41.28932189941406 2.716038227081299 35.26528167724609 5.114304542541504 29.59514808654785 C 7.43107795715332 24.1176815032959 10.74805164337158 19.1981086730957 14.97310447692871 14.97306823730469 C 19.19814491271973 10.74802875518799 24.11773109436035 7.431055068969727 29.5951976776123 5.11428165435791 C 35.26534652709961 2.716028451919556 41.28938293457031 1.500001788139343 47.5000114440918 1.500001788139343 C 53.71063995361328 1.500001788139343 59.73467636108398 2.716028451919556 65.40482330322266 5.11428165435791 C 70.88229370117188 7.431055068969727 75.8018798828125 10.74802875518799 80.02691650390625 14.97306823730469 C 84.25196838378906 19.1981086730957 87.56894683837891 24.1176815032959 89.88571929931641 29.59514808654785 C 92.28398132324219 35.26528167724609 93.50001525878906 41.28932189941406 93.50001525878906 47.49993515014648 C 93.50001525878906 53.71054840087891 92.28398132324219 59.73458862304688 89.88571929931641 65.40472412109375 C 87.56894683837891 70.88218688964844 84.25196838378906 75.80176544189453 80.02691650390625 80.02680206298828 C 75.8018798828125 84.25183868408203 70.88229370117188 87.56881713867188 65.40482330322266 89.88558959960938 C 59.73467636108398 92.28384399414062 53.71063995361328 93.49987030029297 47.5000114440918 93.49987030029297 Z" stroke="none"/>
                                            <path d="M 47.5000114440918 3 C 41.49122619628906 3 35.66378021240234 4.1761474609375 30.17951965332031 6.495796203613281 C 24.880859375 8.7369384765625 20.12153625488281 11.94596862792969 16.03376770019531 16.03373718261719 C 11.94598388671875 20.12149047851562 8.736968994140625 24.88081359863281 6.495811462402344 30.17947387695312 C 4.176162719726562 35.66371917724609 3.000007629394531 41.49116516113281 3.000007629394531 47.49993515014648 C 3.000007629394531 53.50870513916016 4.176162719726562 59.33615112304688 6.495811462402344 64.82039642333984 C 8.736968994140625 70.11905670166016 11.94598388671875 74.87837982177734 16.03376770019531 78.96613311767578 C 20.12153625488281 83.05390167236328 24.880859375 86.26293182373047 30.17951965332031 88.50407409667969 C 35.66378021240234 90.82372283935547 41.49122619628906 91.99987030029297 47.5000114440918 91.99987030029297 C 53.50879669189453 91.99987030029297 59.33624267578125 90.82372283935547 64.82050323486328 88.50407409667969 C 70.11916351318359 86.26293182373047 74.87848663330078 83.05390167236328 78.96625518798828 78.96613311767578 C 83.05403900146484 74.87837982177734 86.2630615234375 70.11905670166016 88.50421142578125 64.82039642333984 C 90.82386016845703 59.33615112304688 92.00001525878906 53.50870513916016 92.00001525878906 47.49993515014648 C 92.00001525878906 41.49116516113281 90.82386016845703 35.66371917724609 88.50421142578125 30.17947387695312 C 86.2630615234375 24.88081359863281 83.05403900146484 20.12149047851562 78.96625518798828 16.03373718261719 C 74.87848663330078 11.94596862792969 70.11916351318359 8.7369384765625 64.82050323486328 6.495796203613281 C 59.33624267578125 4.1761474609375 53.50879669189453 3 47.5000114440918 3 M 47.5000114440918 0 C 73.73353576660156 0 95.00001525878906 21.26644134521484 95.00001525878906 47.49993515014648 C 95.00001525878906 73.73342895507812 73.73353576660156 94.99987030029297 47.5000114440918 94.99987030029297 C 21.26648712158203 94.99987030029297 7.62939453125e-06 73.73342895507812 7.62939453125e-06 47.49993515014648 C 7.62939453125e-06 21.26644134521484 21.26648712158203 0 47.5000114440918 0 Z" stroke="none" fill="#83793c"/>
                                          </g>
                                        </g>
                                      </g>
                                    </g>
                                  </g>
                                </g>
                              </g>
                            </g>
                          </g>
                        </g>
                      </g>
                    </g>
                  </g>
                </g>
              </g>
            </g>
          </g>
        </g>
      </g>
    </g>
    <g id="desafio" transform="translate(811.518 8176.951)">
      <path id="Trazado_1234158" data-name="Trazado 1234158" d="M68.044,37.045H60.8l.093-.225,2.473-1.048a.921.921,0,0,0,.562-.848V31.35a.921.921,0,0,0-.562-.848l-2.473-1.047-.847-2.048,1.008-2.49a.921.921,0,0,0-.2-1l-2.53-2.526a.921.921,0,0,0-1-.2L54.834,22.2l-2.048-.847-1.047-2.473a.921.921,0,0,0-.848-.562H47.317a.921.921,0,0,0-.848.562l-1.048,2.473-2.045.847-2.49-1.007a.921.921,0,0,0-1,.2l-2.526,2.526a.921.921,0,0,0-.2,1l1.008,2.49-.847,2.048L34.847,30.5a.92.92,0,0,0-.51.55l-2.318.311a5.272,5.272,0,0,0,.943-3.042,4.636,4.636,0,0,0-4.322-4.887,4.634,4.634,0,0,0-4.319,4.887,5.131,5.131,0,0,0,1.666,3.852l-.1.014a3.035,3.035,0,0,0-2.5,2.093L15.763,57.959H13.921A.921.921,0,0,0,13,58.88V72.136a.921.921,0,0,0,1.842,0V59.8h11.58V72.136a.921.921,0,0,0,1.842,0V58.88a.921.921,0,0,0-.921-.921H25.02V54.993H36.6V72.136a.921.921,0,0,0,1.842,0V54.072a.921.921,0,0,0-.921-.921H35.194V50.505H46.771V72.136a.921.921,0,0,0,1.842,0V49.584a.921.921,0,0,0-.921-.921H45.369v-1.68h.926l.174.411a.921.921,0,0,0,.848.562h3.574a.921.921,0,0,0,.848-.562l.174-.411h5.035V72.136a.921.921,0,0,0,1.842,0V46.062a.921.921,0,0,0-.921-.921h-.1a.918.918,0,0,0,.548-.261l2.53-2.526a.921.921,0,0,0,.2-1l-1-2.467h7.07V72.136a.921.921,0,0,0,1.842,0V37.967a.921.921,0,0,0-.921-.921Zm-39.4-11.769a2.809,2.809,0,0,1,2.48,3.045,2.809,2.809,0,0,1-2.48,3.045,2.807,2.807,0,0,1-2.477-3.045A2.808,2.808,0,0,1,28.639,25.277Zm-3.5,9.567a1.176,1.176,0,0,1,.992-.831l10.4-1.4c.172-.023.237.176.26.3,0,0,.07.37-.137.424l-8.174,2.118-2.344,7.28L22.93,41.714l2.209-6.87Zm5.68,13.075-1.654,5.232H27.534L29.1,48.28a.921.921,0,0,0-.6-1.16l-4.366-1.391a2.383,2.383,0,0,1-1.654-2.222L29.8,45.836a1.535,1.535,0,0,1,.947.811,1.609,1.609,0,0,1,.068,1.272Zm-9.287-1.863a4.162,4.162,0,0,0,1.54,1.23L19.129,57.959H17.7Zm2.566,7.1a.921.921,0,0,0-.921.921v3.887H21.093l3.725-10.08,2.247.716L25.6,53.151H24.1Zm20.349-8.01a.921.921,0,0,0-.921.921v2.6H34.273a.921.921,0,0,0-.921.921v3.567H31.1l1.478-4.674a3.434,3.434,0,0,0-.174-2.65,3.383,3.383,0,0,0-2.036-1.745l-2.471-.786,2.032-6.309,4.84-1.254a.879.879,0,0,0,.082.042L37.32,36.82l.847,2.045-1.007,2.49a.921.921,0,0,0,.2,1l2.526,2.526a.921.921,0,0,0,1,.2l2.49-1.007,2.045.847.093.219H44.447Zm9.256,0h-1.01l.093-.219.917-.38v.6Zm1.842,0v-.778l1.775.719a.919.919,0,0,0,.237.059Zm1.9-2-2.271-.92a.921.921,0,0,0-.7,0l-2.745,1.136a.921.921,0,0,0-.5.492L50.5,45.589a.916.916,0,0,0-.1.235l-.123.289H47.927l-.957-2.258a.921.921,0,0,0-.5-.492l-2.742-1.136a.921.921,0,0,0-.7,0l-2.274.92L39.1,41.481l.92-2.274a.922.922,0,0,0,0-.7l-1.136-2.742a.921.921,0,0,0-.492-.5l-.8-.338A2.156,2.156,0,0,0,38.6,32.559a2.274,2.274,0,0,0-.76-1.324L38.386,31a.921.921,0,0,0,.492-.5l1.136-2.745a.921.921,0,0,0,0-.7l-.92-2.274,1.664-1.664,2.274.92a.921.921,0,0,0,.7,0l2.742-1.136a.921.921,0,0,0,.5-.492l.957-2.258h2.354l.957,2.258a.921.921,0,0,0,.5.492l2.745,1.136a.921.921,0,0,0,.7,0l2.271-.92,1.666,1.664-.92,2.274a.921.921,0,0,0,0,.7l1.136,2.745a.921.921,0,0,0,.492.5l2.258.957v2.354l-2.258.957a.922.922,0,0,0-.492.5l-.751,1.813c-.01.022-.019.044-.028.067l-.357.861a.921.921,0,0,0,0,.7l.92,2.274-1.666,1.664Zm-8.342-17.4A7.394,7.394,0,1,0,56.5,33.136,7.4,7.4,0,0,0,49.105,25.742Zm0,12.945a5.551,5.551,0,1,1,5.552-5.551A5.558,5.558,0,0,1,49.105,38.687Zm0-8.976a3.426,3.426,0,1,0,3.425,3.425A3.43,3.43,0,0,0,49.105,29.711Zm0,5.01a1.584,1.584,0,1,1,1.582-1.586A1.587,1.587,0,0,1,49.105,34.721Z"/>
      <path id="Trazado_1234159" data-name="Trazado 1234159" d="M100.418,246.712h1.632l1.654-5.232a1.608,1.608,0,0,0-.068-1.272,1.535,1.535,0,0,0-.947-.811l-7.319-2.329a2.383,2.383,0,0,0,1.654,2.222l4.366,1.391a.921.921,0,0,1,.6,1.16l-1.568,4.871Z" transform="translate(-72.884 -193.562)" fill="#4f7693"/>
      <path id="Trazado_1234160" data-name="Trazado 1234160" d="M57.64,259.2l-3.833,11.9h1.43l3.944-10.673A4.161,4.161,0,0,1,57.64,259.2Z" transform="translate(-36.108 -213.149)" fill="#4f7693"/>
      <path id="Trazado_1234161" data-name="Trazado 1234161" d="M283.88,98.8a5.551,5.551,0,1,0,5.552,5.551A5.558,5.558,0,0,0,283.88,98.8Zm0,8.98a3.426,3.426,0,1,1,3.425-3.428A3.432,3.432,0,0,1,283.88,107.782Z" transform="translate(-234.775 -71.218)" fill="#a7c7d3"/>
      <path id="Trazado_1234162" data-name="Trazado 1234162" d="M314.355,133.27a1.584,1.584,0,1,0,1.582,1.582A1.586,1.586,0,0,0,314.355,133.27Z" transform="translate(-265.249 -101.717)" fill="#fff"/>
      <path id="Trazado_1234163" data-name="Trazado 1234163" d="M248.055,38.949l-1.666-1.664-2.271.92a.921.921,0,0,1-.7,0l-2.745-1.136a.922.922,0,0,1-.5-.492l-.957-2.258h-2.354l-.957,2.258a.922.922,0,0,1-.5.492L232.674,38.2a.921.921,0,0,1-.7,0l-2.274-.92-1.664,1.664.92,2.274a.921.921,0,0,1,0,.7l-1.136,2.745a.921.921,0,0,1-.492.5l-.545.231a2.275,2.275,0,0,1,.76,1.324,2.156,2.156,0,0,1-1.013,2.375l.8.338a.921.921,0,0,1,.492.5l1.136,2.742a.921.921,0,0,1,0,.7l-.92,2.274L229.7,57.3l2.274-.92a.921.921,0,0,1,.7,0l2.742,1.136a.921.921,0,0,1,.5.492l.957,2.258h2.354l.123-.289a.914.914,0,0,1,.1-.235l.735-1.734a.921.921,0,0,1,.5-.492l2.745-1.136a.921.921,0,0,1,.7,0l2.271.92,1.666-1.664-.92-2.274a.921.921,0,0,1,0-.7l.357-.861c.008-.023.018-.045.028-.067l.751-1.813a.921.921,0,0,1,.492-.5l2.258-.957V46.118l-2.258-.957a.921.921,0,0,1-.492-.5l-1.136-2.745a.921.921,0,0,1,0-.7l.92-2.274ZM238.046,54.687a7.394,7.394,0,1,1,7.394-7.394,7.4,7.4,0,0,1-7.394,7.394Z" transform="translate(-188.941 -14.158)" fill="#89b4c9"/>
      <path id="Trazado_1234164" data-name="Trazado 1234164" d="M101.441,144.711l-2.209,6.87,3.208,1.021,2.344-7.28,8.174-2.118c.207-.054.138-.421.137-.424-.024-.121-.088-.32-.26-.3l-10.4,1.4a1.176,1.176,0,0,0-.992.831Z" transform="translate(-76.302 -109.867)" fill="#83d9ff"/>
      <path id="Trazado_1234165" data-name="Trazado 1234165" d="M384.246,203.155a.919.919,0,0,0,.237.059h-2.012v-.778Zm.548,27.976h10.174a.921.921,0,0,1-.921-.921V196.962h-7.07l1,2.467a.921.921,0,0,1-.2,1l-2.53,2.526a.919.919,0,0,1-.548.261h.1a.921.921,0,0,1,.921.921V230.21a.921.921,0,0,1-.921.921Z" transform="translate(-326.925 -158.074)" fill="#43a3f9"/>
      <path id="Trazado_1234166" data-name="Trazado 1234166" d="M217.312,319.476V297.845H205.736v2.646h2.323a.921.921,0,0,1,.921.921v18.064a.921.921,0,0,1-.921.921h10.174a.921.921,0,0,1-.921-.921Z" transform="translate(-170.542 -247.34)" fill="#ff8812"/>
      <path id="Trazado_1234167" data-name="Trazado 1234167" d="M305.67,292.413V267.26h-5.035l-.174.411a.921.921,0,0,1-.848.562h-3.574a.921.921,0,0,1-.848-.562l-.174-.411h-.926v1.68h2.323a.921.921,0,0,1,.921.921v22.552a.921.921,0,0,1-.921.921h10.178a.921.921,0,0,1-.921-.921Z" transform="translate(-248.721 -220.277)" fill="#69d998"/>
      <path id="Trazado_1234168" data-name="Trazado 1234168" d="M132.26,81.806a2.531,2.531,0,1,0-2.48,3.045A2.809,2.809,0,0,0,132.26,81.806Z" transform="translate(-101.141 -53.484)" fill="#fedfc5"/>
      <path id="Trazado_1234169" data-name="Trazado 1234169" d="M33.5,390.907V378.573H21.921v12.334a.921.921,0,0,1-.921.921H34.422A.921.921,0,0,1,33.5,390.907Z" transform="translate(-7.079 -318.772)" fill="#ff84a7"/>
      <path id="Trazado_1234170" data-name="Trazado 1234170" d="M128.958,353.962V336.82H117.382v2.966h2.323a.921.921,0,0,1,.921.921v13.256a.921.921,0,0,1-.921.921H129.88a.921.921,0,0,1-.921-.921Z" transform="translate(-92.362 -281.827)" fill="#ffb14c"/>
    </g>
  </g>
</svg>
