<svg xmlns="http://www.w3.org/2000/svg" xmlns:xlink="http://www.w3.org/1999/xlink" width="113" height="113" viewBox="0 0 113 113">
  <defs>
    <filter id="Trazado_982547" x="0" y="0" width="113" height="113" filterUnits="userSpaceOnUse">
      <feOffset dy="3" input="SourceAlpha"/>
      <feGaussianBlur stdDeviation="3" result="blur"/>
      <feFlood flood-opacity="0.161"/>
      <feComposite operator="in" in2="blur"/>
      <feComposite in="SourceGraphic"/>
    </filter>
  </defs>
  <g id="Grupo_1232015" data-name="Grupo 1232015" transform="translate(-1111 -8172.411)">
    <g id="Grupo_1231433" data-name="Grupo 1231433" transform="translate(1120 8178.411)">
      <g id="Grupo_1230842" data-name="Grupo 1230842">
        <g id="Grupo_1209049" data-name="Grupo 1209049">
          <g id="Grupo_1208493" data-name="Grupo 1208493">
            <g id="Grupo_1202104" data-name="Grupo 1202104">
              <g id="Grupo_1201923" data-name="Grupo 1201923" transform="translate(0 0)">
                <g id="Grupo_1176928" data-name="Grupo 1176928" transform="translate(0)">
                  <g id="Grupo_1172322" data-name="Grupo 1172322" transform="translate(0 0)">
                    <g id="Grupo_1164700" data-name="Grupo 1164700">
                      <g id="Grupo_1160931" data-name="Grupo 1160931">
                        <g id="Grupo_1160749" data-name="Grupo 1160749">
                          <g id="Grupo_1158891" data-name="Grupo 1158891">
                            <g id="Grupo_1157406" data-name="Grupo 1157406">
                              <g id="Grupo_1155793" data-name="Grupo 1155793">
                                <g id="Grupo_1154704" data-name="Grupo 1154704">
                                  <g id="Grupo_1150790" data-name="Grupo 1150790">
                                    <g id="Grupo_1154214" data-name="Grupo 1154214">
                                      <g id="Grupo_1152583" data-name="Grupo 1152583">
                                        <g id="Grupo_1146973" data-name="Grupo 1146973">
                                          <g id="Grupo_1146954" data-name="Grupo 1146954">
                                            <g transform="matrix(1, 0, 0, 1, -9, -6)" filter="url(#Trazado_982547)">
                                              <g id="Trazado_982547-2" data-name="Trazado 982547" transform="translate(9 6)" fill="#fcf8db">
                                                <path d="M 47.5000114440918 93.49987030029297 C 41.28938293457031 93.49987030029297 35.26534652709961 92.28384399414062 29.5951976776123 89.88558959960938 C 24.11773109436035 87.56881713867188 19.19814491271973 84.25183868408203 14.97310447692871 80.02680206298828 C 10.74805164337158 75.80176544189453 7.43107795715332 70.88218688964844 5.114304542541504 65.40472412109375 C 2.716038227081299 59.73458862304688 1.500011444091797 53.71054840087891 1.500011444091797 47.49993515014648 C 1.500011444091797 41.28932189941406 2.716038227081299 35.26528167724609 5.114304542541504 29.59514808654785 C 7.43107795715332 24.1176815032959 10.74805164337158 19.1981086730957 14.97310447692871 14.97306823730469 C 19.19814491271973 10.74802875518799 24.11773109436035 7.431055068969727 29.5951976776123 5.11428165435791 C 35.26534652709961 2.716028451919556 41.28938293457031 1.500001788139343 47.5000114440918 1.500001788139343 C 53.71063995361328 1.500001788139343 59.73467636108398 2.716028451919556 65.40482330322266 5.11428165435791 C 70.88229370117188 7.431055068969727 75.8018798828125 10.74802875518799 80.02691650390625 14.97306823730469 C 84.25196838378906 19.1981086730957 87.56894683837891 24.1176815032959 89.88571929931641 29.59514808654785 C 92.28398132324219 35.26528167724609 93.50001525878906 41.28932189941406 93.50001525878906 47.49993515014648 C 93.50001525878906 53.71054840087891 92.28398132324219 59.73458862304688 89.88571929931641 65.40472412109375 C 87.56894683837891 70.88218688964844 84.25196838378906 75.80176544189453 80.02691650390625 80.02680206298828 C 75.8018798828125 84.25183868408203 70.88229370117188 87.56881713867188 65.40482330322266 89.88558959960938 C 59.73467636108398 92.28384399414062 53.71063995361328 93.49987030029297 47.5000114440918 93.49987030029297 Z" stroke="none"/>
                                                <path d="M 47.5000114440918 3 C 41.49122619628906 3 35.66378021240234 4.1761474609375 30.17951965332031 6.495796203613281 C 24.880859375 8.7369384765625 20.12153625488281 11.94596862792969 16.03376770019531 16.03373718261719 C 11.94598388671875 20.12149047851562 8.736968994140625 24.88081359863281 6.495811462402344 30.17947387695312 C 4.176162719726562 35.66371917724609 3.000007629394531 41.49116516113281 3.000007629394531 47.49993515014648 C 3.000007629394531 53.50870513916016 4.176162719726562 59.33615112304688 6.495811462402344 64.82039642333984 C 8.736968994140625 70.11905670166016 11.94598388671875 74.87837982177734 16.03376770019531 78.96613311767578 C 20.12153625488281 83.05390167236328 24.880859375 86.26293182373047 30.17951965332031 88.50407409667969 C 35.66378021240234 90.82372283935547 41.49122619628906 91.99987030029297 47.5000114440918 91.99987030029297 C 53.50879669189453 91.99987030029297 59.33624267578125 90.82372283935547 64.82050323486328 88.50407409667969 C 70.11916351318359 86.26293182373047 74.87848663330078 83.05390167236328 78.96625518798828 78.96613311767578 C 83.05403900146484 74.87837982177734 86.2630615234375 70.11905670166016 88.50421142578125 64.82039642333984 C 90.82386016845703 59.33615112304688 92.00001525878906 53.50870513916016 92.00001525878906 47.49993515014648 C 92.00001525878906 41.49116516113281 90.82386016845703 35.66371917724609 88.50421142578125 30.17947387695312 C 86.2630615234375 24.88081359863281 83.05403900146484 20.12149047851562 78.96625518798828 16.03373718261719 C 74.87848663330078 11.94596862792969 70.11916351318359 8.7369384765625 64.82050323486328 6.495796203613281 C 59.33624267578125 4.1761474609375 53.50879669189453 3 47.5000114440918 3 M 47.5000114440918 0 C 73.73353576660156 0 95.00001525878906 21.26644134521484 95.00001525878906 47.49993515014648 C 95.00001525878906 73.73342895507812 73.73353576660156 94.99987030029297 47.5000114440918 94.99987030029297 C 21.26648712158203 94.99987030029297 7.62939453125e-06 73.73342895507812 7.62939453125e-06 47.49993515014648 C 7.62939453125e-06 21.26644134521484 21.26648712158203 0 47.5000114440918 0 Z" stroke="none" fill="#83793c"/>
                                              </g>
                                            </g>
                                          </g>
                                        </g>
                                      </g>
                                    </g>
                                  </g>
                                </g>
                              </g>
                            </g>
                          </g>
                        </g>
                      </g>
                    </g>
                  </g>
                </g>
              </g>
            </g>
          </g>
        </g>
      </g>
    </g>
    <g id="papeleria_1_" data-name="papeleria (1)" transform="translate(1128.355 8197.863)">
      <g id="Grupo_1232014" data-name="Grupo 1232014" transform="translate(12.145 0.854)">
        <g id="Grupo_1232003" data-name="Grupo 1232003" transform="translate(0)">
          <g id="Grupo_1232002" data-name="Grupo 1232002">
            <g id="Grupo_1232000" data-name="Grupo 1232000" transform="translate(3.709)">
              <g id="Grupo_1231999" data-name="Grupo 1231999">
                <g id="Grupo_1231998" data-name="Grupo 1231998" transform="translate(0 0)">
                  <path id="Trazado_1234171" data-name="Trazado 1234171" d="M92.817,64.071H54.282a2.91,2.91,0,0,1-2.91-2.91V10.41a2.909,2.909,0,0,1,2.91-2.91H92.817a2.909,2.909,0,0,1,2.91,2.91V61.162A2.909,2.909,0,0,1,92.817,64.071Z" transform="translate(-51.372 -7.5)" fill="#89c6fc"/>
                </g>
                <path id="Trazado_1234172" data-name="Trazado 1234172" d="M357.614,7.5h-7.433a2.909,2.909,0,0,1,2.91,2.91V61.162a2.909,2.909,0,0,1-2.91,2.91h7.433a2.91,2.91,0,0,0,2.91-2.91V10.41a2.909,2.909,0,0,0-2.91-2.91Z" transform="translate(-316.169 -7.5)" fill="#62b4fd"/>
                <path id="Trazado_1234173" data-name="Trazado 1234173" d="M59.285,7.5h-5a2.909,2.909,0,0,0-2.91,2.91V61.162a2.91,2.91,0,0,0,2.91,2.91h5Z" transform="translate(-51.372 -7.5)" fill="#688b96"/>
              </g>
            </g>
            <g id="Grupo_1232001" data-name="Grupo 1232001" transform="translate(0 4.721)">
              <path id="Trazado_1234174" data-name="Trazado 1234174" d="M23.941,53.513H21.058a2.267,2.267,0,1,1,0-4.534h2.883a2.267,2.267,0,1,1,0,4.534Z" transform="translate(-18.791 -48.979)" fill="#c9e2e7"/>
              <path id="Trazado_1234175" data-name="Trazado 1234175" d="M23.941,147.065H21.058a2.267,2.267,0,0,1,0-4.534h2.883a2.267,2.267,0,1,1,0,4.534Z" transform="translate(-18.791 -131.882)" fill="#c9e2e7"/>
              <path id="Trazado_1234176" data-name="Trazado 1234176" d="M23.941,240.617H21.058a2.267,2.267,0,1,1,0-4.534h2.883a2.267,2.267,0,1,1,0,4.534Z" transform="translate(-18.791 -214.786)" fill="#c9e2e7"/>
              <path id="Trazado_1234177" data-name="Trazado 1234177" d="M23.941,334.169H21.058a2.267,2.267,0,0,1,0-4.534h2.883a2.267,2.267,0,1,1,0,4.534Z" transform="translate(-18.791 -297.689)" fill="#c9e2e7"/>
              <path id="Trazado_1234178" data-name="Trazado 1234178" d="M23.941,427.721H21.058a2.267,2.267,0,0,1,0-4.534h2.883a2.267,2.267,0,1,1,0,4.534Z" transform="translate(-18.791 -380.592)" fill="#c9e2e7"/>
            </g>
          </g>
        </g>
        <g id="Grupo_1232013" data-name="Grupo 1232013" transform="translate(21.194 7.578)">
          <g id="Grupo_1232004" data-name="Grupo 1232004" transform="translate(11.659)">
            <path id="Trazado_1234179" data-name="Trazado 1234179" d="M315.534,113.809V75.635a1.564,1.564,0,0,0-1.564-1.564h-4.994a1.564,1.564,0,0,0-1.564,1.564v38.175Z" transform="translate(-307.413 -74.071)" fill="#eff3f5"/>
          </g>
          <g id="Grupo_1232008" data-name="Grupo 1232008" transform="translate(21.63 8.422)">
            <path id="Trazado_1234180" data-name="Trazado 1234180" d="M438.289,149.9c-.746.86-.348,1.5-.046,2.209a2.261,2.261,0,0,1-.118,2.011,4.787,4.787,0,0,1-3.411,2.2,4.614,4.614,0,0,1-1.939-4.822,4.443,4.443,0,0,1,3.842-3.419,5.308,5.308,0,0,1,2.805.6.21.21,0,0,1,0,.376,3.878,3.878,0,0,0-1.136.842Z" transform="translate(-428.361 -148.061)" fill="#688b96"/>
            <g id="Grupo_1232007" data-name="Grupo 1232007" transform="translate(0 6.956)">
              <g id="Grupo_1232006" data-name="Grupo 1232006">
                <path id="Trazado_1234181" data-name="Trazado 1234181" d="M396.334,231.726a1.722,1.722,0,0,1-1.306-1.938l2.086-13.551a15.058,15.058,0,0,1,1.863-5.274l.947-1.63a.331.331,0,0,1,.362-.156l2.617.619a.331.331,0,0,1,.254.3l.116,1.882a15.058,15.058,0,0,1-.7,5.549l-4.207,13.049A1.722,1.722,0,0,1,396.334,231.726Z" transform="translate(-395.008 -209.169)" fill="#df9874"/>
                <g id="Grupo_1232005" data-name="Grupo 1232005" transform="translate(2.607 0)">
                  <path id="Trazado_1234182" data-name="Trazado 1234182" d="M417.913,214.072a15.058,15.058,0,0,1,1.362-3.107l.947-1.63a.331.331,0,0,1,.362-.156l2.617.619a.331.331,0,0,1,.254.3l.116,1.882a15.058,15.058,0,0,1-.174,3.388Z" transform="translate(-417.913 -209.17)" fill="#fbbe66"/>
                </g>
              </g>
            </g>
          </g>
          <g id="Grupo_1232012" data-name="Grupo 1232012" transform="translate(0 8.022)">
            <g id="Grupo_1232010" data-name="Grupo 1232010" transform="translate(0)">
              <g id="Grupo_1232009" data-name="Grupo 1232009">
                <path id="Trazado_1234183" data-name="Trazado 1234183" d="M215.8,178.712l-1,4.252a.476.476,0,0,1-.856.161l-2.478-3.6a5.177,5.177,0,0,1-.825-1.982l-5.6-29.851a2.653,2.653,0,0,1,5.214-.979l5.6,29.851a5.182,5.182,0,0,1-.05,2.147Z" transform="translate(-204.985 -144.55)" fill="#fb636f"/>
              </g>
            </g>
            <path id="Trazado_1234184" data-name="Trazado 1234184" d="M207.148,144.6a2.653,2.653,0,0,0-2.118,3.1l.6,3.177,5.214-.979-.6-3.177A2.653,2.653,0,0,0,207.148,144.6Z" transform="translate(-204.984 -144.551)" fill="#3590bb"/>
            <g id="Grupo_1232011" data-name="Grupo 1232011" transform="translate(0.658 5.329)">
              <path id="Trazado_1234185" data-name="Trazado 1234185" d="M0,0H5.305V4.156H0Z" transform="translate(0 0.981) rotate(-10.658)" fill="#fcee56"/>
            </g>
          </g>
          <path id="Trazado_1234186" data-name="Trazado 1234186" d="M239.16,330.2H223.1a5.983,5.983,0,0,1-5.983-5.983V308.757a.945.945,0,0,1,.945-.945H244.2a.945.945,0,0,1,.945.945v15.461A5.983,5.983,0,0,1,239.16,330.2Z" transform="translate(-215.735 -281.206)" fill="#fcee56"/>
          <path id="Trazado_1234187" data-name="Trazado 1234187" d="M357.929,307.812h-7.436a.945.945,0,0,1,.945.945v15.461a5.983,5.983,0,0,1-5.983,5.983h7.436a5.983,5.983,0,0,0,5.983-5.983V308.757A.945.945,0,0,0,357.929,307.812Z" transform="translate(-329.466 -281.206)" fill="#f3d802"/>
        </g>
      </g>
      <path id="Trazado_1234188" data-name="Trazado 1234188" d="M66.406,16.71a6.152,6.152,0,0,0-3.285-.681,5.413,5.413,0,0,0-2.06.681V3.763A3.767,3.767,0,0,0,57.3,0H18.763A3.767,3.767,0,0,0,15,3.763v.958h-.588a3.121,3.121,0,0,0,0,6.241H15V15.37h-.588a3.121,3.121,0,0,0,0,6.241H15v4.407h-.588a3.121,3.121,0,0,0,0,6.241H15v4.407h-.588a3.121,3.121,0,0,0,0,6.241H15v4.407h-.588a3.121,3.121,0,0,0,0,6.241H15v.958a3.767,3.767,0,0,0,3.763,3.763h38A6.844,6.844,0,0,0,63.6,51.443V35.982a1.8,1.8,0,0,0-.895-1.552l.644-2a18.251,18.251,0,0,0,.638-7.477,5.044,5.044,0,0,0,1.484-1.615,3.154,3.154,0,0,0,.072-2.983c-.273-.618-.314-.745,0-1.1a2.992,2.992,0,0,1,.879-.641,1.064,1.064,0,0,0-.014-1.9ZM62.29,25.179a22.057,22.057,0,0,1,.05,3.783L58.688,28.1a21.922,21.922,0,0,1,1.74-3.36Zm-1.3,9H57.429l.489-3.176q.1-.647.257-1.277l3.892.921q-.142.634-.343,1.257ZM13,7.842a1.415,1.415,0,0,1,1.413-1.413h2.883a1.413,1.413,0,1,1,0,2.827H14.412A1.415,1.415,0,0,1,13,7.842Zm0,10.649a1.415,1.415,0,0,1,1.413-1.413h2.883a1.413,1.413,0,1,1,0,2.827H14.412A1.415,1.415,0,0,1,13,18.491Zm0,10.649a1.415,1.415,0,0,1,1.413-1.413h2.883a1.413,1.413,0,1,1,0,2.827H14.412A1.415,1.415,0,0,1,13,29.139Zm0,10.649a1.415,1.415,0,0,1,1.413-1.413h2.883a1.413,1.413,0,1,1,0,2.827H14.412A1.415,1.415,0,0,1,13,39.788Zm0,10.649a1.415,1.415,0,0,1,1.413-1.413h2.883a1.413,1.413,0,1,1,0,2.827H14.412A1.415,1.415,0,0,1,13,50.437ZM24.62,56.572v-4.14a.854.854,0,1,0-1.707,0v4.14h-4.15a2.058,2.058,0,0,1-2.056-2.056v-.958h.588a3.121,3.121,0,1,0,0-6.241h-.588V42.909h.588a3.121,3.121,0,1,0,0-6.241h-.588V32.26h.588a3.121,3.121,0,1,0,0-6.241h-.588V21.611h.588a3.121,3.121,0,1,0,0-6.241h-.588V10.963h.588a3.121,3.121,0,1,0,0-6.241h-.588V3.763a2.058,2.058,0,0,1,2.056-2.056h4.15V48.441a.854.854,0,1,0,1.707,0V1.707H57.3a2.058,2.058,0,0,1,2.056,2.056V18.284a5.373,5.373,0,0,0-.8,1.816,5.134,5.134,0,0,0,.46,3.679,18.249,18.249,0,0,0-2.78,6.969L55.7,34.183h-1.73V10a2.42,2.42,0,0,0-2.417-2.417H46.561A2.42,2.42,0,0,0,44.144,10v2.49a.854.854,0,1,0,1.707,0V10a.711.711,0,0,1,.71-.71h4.994a.711.711,0,0,1,.71.71v3.632h-1.47a.854.854,0,1,0,0,1.707h1.47v3.44h-1.47a.854.854,0,1,0,0,1.707h1.47v3.44h-1.47a.854.854,0,1,0,0,1.707h1.47v3.44h-1.47a.854.854,0,0,0,0,1.707h1.47v3.408H45.851V16.476a.854.854,0,1,0-1.707,0V34.183H42.389L39.437,18.46a3.506,3.506,0,0,0-6.892,1.294L35.263,34.23a1.8,1.8,0,0,0-1.4,1.752V51.442a6.82,6.82,0,0,0,2.324,5.129Zm9.6-37.133a1.8,1.8,0,1,1,3.536-.664l.439,2.338-3.536.664Zm.754,4.016,3.536-.664.452,2.407-3.536.664Zm2.014,10.729-1.247-6.644,3.536-.664,1.372,7.308Zm24.9,17.259a5.135,5.135,0,0,1-5.129,5.129H40.7a5.135,5.135,0,0,1-5.129-5.129V35.982a.092.092,0,0,1,.091-.091H61.8a.092.092,0,0,1,.091.091V51.442Zm2.089-30.4a1.464,1.464,0,0,1,.01,1.441,3.371,3.371,0,0,1-1.024,1.1l-2.435-.576a3.424,3.424,0,0,1-.322-2.516,3.605,3.605,0,0,1,3.113-2.768,3.407,3.407,0,0,1,1.224.106A2.427,2.427,0,0,0,63.982,21.047Z"/>
    </g>
  </g>
</svg>
