<svg xmlns="http://www.w3.org/2000/svg" xmlns:xlink="http://www.w3.org/1999/xlink" width="113" height="113" viewBox="0 0 113 113">
  <defs>
    <filter id="Trazado_982547" x="0" y="0" width="113" height="113" filterUnits="userSpaceOnUse">
      <feOffset dy="3" input="SourceAlpha"/>
      <feGaussianBlur stdDeviation="3" result="blur"/>
      <feFlood flood-opacity="0.161"/>
      <feComposite operator="in" in2="blur"/>
      <feComposite in="SourceGraphic"/>
    </filter>
  </defs>
  <g id="Grupo_1232022" data-name="Grupo 1232022" transform="translate(-442 -8121.411)">
    <g id="Grupo_1231436" data-name="Grupo 1231436" transform="translate(451 8127.411)">
      <g id="Grupo_1230842" data-name="Grupo 1230842">
        <g id="Grupo_1209049" data-name="Grupo 1209049">
          <g id="Grupo_1208493" data-name="Grupo 1208493">
            <g id="Grupo_1202104" data-name="Grupo 1202104">
              <g id="Grupo_1201923" data-name="Grupo 1201923" transform="translate(0 0)">
                <g id="Grupo_1176928" data-name="Grupo 1176928" transform="translate(0)">
                  <g id="Grupo_1172322" data-name="Grupo 1172322" transform="translate(0 0)">
                    <g id="Grupo_1164700" data-name="Grupo 1164700">
                      <g id="Grupo_1160931" data-name="Grupo 1160931">
                        <g id="Grupo_1160749" data-name="Grupo 1160749">
                          <g id="Grupo_1158891" data-name="Grupo 1158891">
                            <g id="Grupo_1157406" data-name="Grupo 1157406">
                              <g id="Grupo_1155793" data-name="Grupo 1155793">
                                <g id="Grupo_1154704" data-name="Grupo 1154704">
                                  <g id="Grupo_1150790" data-name="Grupo 1150790">
                                    <g id="Grupo_1154214" data-name="Grupo 1154214">
                                      <g id="Grupo_1152583" data-name="Grupo 1152583">
                                        <g id="Grupo_1146973" data-name="Grupo 1146973">
                                          <g id="Grupo_1146954" data-name="Grupo 1146954">
                                            <g transform="matrix(1, 0, 0, 1, -9, -6)" filter="url(#Trazado_982547)">
                                              <g id="Trazado_982547-2" data-name="Trazado 982547" transform="translate(9 6)" fill="#fcf8db">
                                                <path d="M 47.5000114440918 93.49987030029297 C 41.28938293457031 93.49987030029297 35.26534652709961 92.28384399414062 29.5951976776123 89.88558959960938 C 24.11773109436035 87.56881713867188 19.19814491271973 84.25183868408203 14.97310447692871 80.02680206298828 C 10.74805164337158 75.80176544189453 7.43107795715332 70.88218688964844 5.114304542541504 65.40472412109375 C 2.716038227081299 59.73458862304688 1.500011444091797 53.71054840087891 1.500011444091797 47.49993515014648 C 1.500011444091797 41.28932189941406 2.716038227081299 35.26528167724609 5.114304542541504 29.59514808654785 C 7.43107795715332 24.1176815032959 10.74805164337158 19.1981086730957 14.97310447692871 14.97306823730469 C 19.19814491271973 10.74802875518799 24.11773109436035 7.431055068969727 29.5951976776123 5.11428165435791 C 35.26534652709961 2.716028451919556 41.28938293457031 1.500001788139343 47.5000114440918 1.500001788139343 C 53.71063995361328 1.500001788139343 59.73467636108398 2.716028451919556 65.40482330322266 5.11428165435791 C 70.88229370117188 7.431055068969727 75.8018798828125 10.74802875518799 80.02691650390625 14.97306823730469 C 84.25196838378906 19.1981086730957 87.56894683837891 24.1176815032959 89.88571929931641 29.59514808654785 C 92.28398132324219 35.26528167724609 93.50001525878906 41.28932189941406 93.50001525878906 47.49993515014648 C 93.50001525878906 53.71054840087891 92.28398132324219 59.73458862304688 89.88571929931641 65.40472412109375 C 87.56894683837891 70.88218688964844 84.25196838378906 75.80176544189453 80.02691650390625 80.02680206298828 C 75.8018798828125 84.25183868408203 70.88229370117188 87.56881713867188 65.40482330322266 89.88558959960938 C 59.73467636108398 92.28384399414062 53.71063995361328 93.49987030029297 47.5000114440918 93.49987030029297 Z" stroke="none"/>
                                                <path d="M 47.5000114440918 3 C 41.49122619628906 3 35.66378021240234 4.1761474609375 30.17951965332031 6.495796203613281 C 24.880859375 8.7369384765625 20.12153625488281 11.94596862792969 16.03376770019531 16.03373718261719 C 11.94598388671875 20.12149047851562 8.736968994140625 24.88081359863281 6.495811462402344 30.17947387695312 C 4.176162719726562 35.66371917724609 3.000007629394531 41.49116516113281 3.000007629394531 47.49993515014648 C 3.000007629394531 53.50870513916016 4.176162719726562 59.33615112304688 6.495811462402344 64.82039642333984 C 8.736968994140625 70.11905670166016 11.94598388671875 74.87837982177734 16.03376770019531 78.96613311767578 C 20.12153625488281 83.05390167236328 24.880859375 86.26293182373047 30.17951965332031 88.50407409667969 C 35.66378021240234 90.82372283935547 41.49122619628906 91.99987030029297 47.5000114440918 91.99987030029297 C 53.50879669189453 91.99987030029297 59.33624267578125 90.82372283935547 64.82050323486328 88.50407409667969 C 70.11916351318359 86.26293182373047 74.87848663330078 83.05390167236328 78.96625518798828 78.96613311767578 C 83.05403900146484 74.87837982177734 86.2630615234375 70.11905670166016 88.50421142578125 64.82039642333984 C 90.82386016845703 59.33615112304688 92.00001525878906 53.50870513916016 92.00001525878906 47.49993515014648 C 92.00001525878906 41.49116516113281 90.82386016845703 35.66371917724609 88.50421142578125 30.17947387695312 C 86.2630615234375 24.88081359863281 83.05403900146484 20.12149047851562 78.96625518798828 16.03373718261719 C 74.87848663330078 11.94596862792969 70.11916351318359 8.7369384765625 64.82050323486328 6.495796203613281 C 59.33624267578125 4.1761474609375 53.50879669189453 3 47.5000114440918 3 M 47.5000114440918 0 C 73.73353576660156 0 95.00001525878906 21.26644134521484 95.00001525878906 47.49993515014648 C 95.00001525878906 73.73342895507812 73.73353576660156 94.99987030029297 47.5000114440918 94.99987030029297 C 21.26648712158203 94.99987030029297 7.62939453125e-06 73.73342895507812 7.62939453125e-06 47.49993515014648 C 7.62939453125e-06 21.26644134521484 21.26648712158203 0 47.5000114440918 0 Z" stroke="none" fill="#83793c"/>
                                              </g>
                                            </g>
                                          </g>
                                        </g>
                                      </g>
                                    </g>
                                  </g>
                                </g>
                              </g>
                            </g>
                          </g>
                        </g>
                      </g>
                    </g>
                  </g>
                </g>
              </g>
            </g>
          </g>
        </g>
      </g>
    </g>
    <g id="arte" transform="translate(448.816 8143.096)">
      <path id="Trazado_1234189" data-name="Trazado 1234189" d="M238.706,421.017l-1.661,4.1a2.372,2.372,0,0,0,1.292,3.075A2.444,2.444,0,0,0,241.5,427l3.424-7.234c-.337.112-.677-2.282-1.019-2.183a25.611,25.611,0,0,1-4.529.872C239.153,418.481,238.93,421,238.706,421.017Z" transform="translate(-189.565 -365.687)" fill="#756e78"/>
      <path id="Trazado_1234190" data-name="Trazado 1234190" d="M252.371,435.173a25.91,25.91,0,0,1-6.217,1.247l-.778,1.917q.622-.027,1.237-.085a1.288,1.288,0,0,1,1.279,1.835l-1.1,2.319a2.4,2.4,0,0,1-1.121,1.13c.037.018.073.038.111.054a2.444,2.444,0,0,0,3.162-1.184l2.387-5.043Z" transform="translate(-197.013 -381.091)" fill="#665e66"/>
      <path id="Trazado_1234191" data-name="Trazado 1234191" d="M404.044,17.606a5.579,5.579,0,0,1-7.286,2.843,5.416,5.416,0,0,1-2.892-7.164A11.678,11.678,0,0,1,397,9.4c1.74-1.44,3.8-2.38,5.36-1.72,2.81,1.193,2.894,7.159,1.68,9.922Z" transform="translate(-326.651 -6.54)" fill="#f9f6f9"/>
      <path id="Trazado_1234192" data-name="Trazado 1234192" d="M431.017,7.686a3.342,3.342,0,0,0-2.225-.05c2.659,1.342,2.719,7.136,1.529,9.848a5.523,5.523,0,0,1-4.19,3.217,5.571,5.571,0,0,0,6.567-3.092C433.911,14.845,433.828,8.879,431.017,7.686Z" transform="translate(-355.304 -6.543)" fill="#e2dfe2"/>
      <path id="Trazado_1234193" data-name="Trazado 1234193" d="M65.45,50.257a9.85,9.85,0,0,1-2.188-6.513,7.2,7.2,0,0,0-6.375-7.4,26.543,26.543,0,0,0-2.985-.18,25.462,25.462,0,1,0,.318,50.9c14.058-.223,25.613-11.914,25.457-25.737q0-.163-.006-.326a7.251,7.251,0,0,0-6.908-6.99A10.179,10.179,0,0,1,65.45,50.257Z" transform="translate(-6.569 -31.674)" fill="#d8aa8b"/>
      <path id="Trazado_1234194" data-name="Trazado 1234194" d="M222.336,61.008a7.251,7.251,0,0,0-6.908-6.99,10.179,10.179,0,0,1-7.314-3.761,9.85,9.85,0,0,1-2.188-6.513,7.2,7.2,0,0,0-6.375-7.4,26.544,26.544,0,0,0-2.985-.18,26.232,26.232,0,0,0-5.751.611c.374-.014.749-.022,1.127-.021a26.541,26.541,0,0,1,2.985.18,7.2,7.2,0,0,1,6.375,7.4,9.849,9.849,0,0,0,2.188,6.513,10.179,10.179,0,0,0,7.314,3.761,7.251,7.251,0,0,1,6.908,6.99q0,.163.006.326c.136,12.092-8.688,22.552-20.311,25.132,13.82-.5,25.088-12.071,24.934-25.722Q222.341,61.171,222.336,61.008Z" transform="translate(-149.234 -31.674)" fill="#ce9875"/>
      <path id="Trazado_1234195" data-name="Trazado 1234195" d="M324.427,97.3l-7.2,17.758-2.493,6.147a6.261,6.261,0,0,0,2.706,2.063,6.348,6.348,0,0,0,3.039.455l2.894-6.114,8.182-17.285Z" transform="translate(-257.748 -85.211)" fill="#756e78"/>
      <path id="Trazado_1234196" data-name="Trazado 1234196" d="M324.427,97.3l-1.32,3.254,2.8,1.188a2.08,2.08,0,0,1,1.067,2.8l-7.224,15.261a2.162,2.162,0,0,1-3.179.867,6.28,6.28,0,0,1-1.19-1.07l-.65,1.6a6.261,6.261,0,0,0,2.706,2.063,6.422,6.422,0,0,0,3.039.455l2.894-6.114,8.182-17.285Z" transform="translate(-257.748 -85.211)" fill="#665e66"/>
      <g id="Grupo_1232017" data-name="Grupo 1232017" transform="translate(41.767 8.239)">
        <circle id="Elipse_11557" data-name="Elipse 11557" cx="4.51" cy="4.51" r="4.51" transform="translate(0)" fill="#e28086"/>
        <path id="Trazado_1234197" data-name="Trazado 1234197" d="M222.079,66.3a4.526,4.526,0,0,0-.925.1,4.511,4.511,0,0,1,0,8.83,4.511,4.511,0,1,0,.925-8.925Z" transform="translate(-217.569 -66.297)" fill="#dd636e"/>
      </g>
      <g id="Grupo_1232018" data-name="Grupo 1232018" transform="translate(28.929 15.119)">
        <circle id="Elipse_11558" data-name="Elipse 11558" cx="4.51" cy="4.51" r="4.51" transform="translate(0)" fill="#9bd069"/>
        <path id="Trazado_1234198" data-name="Trazado 1234198" d="M118.783,121.656a4.527,4.527,0,0,0-.925.1,4.511,4.511,0,0,1,0,8.83,4.511,4.511,0,1,0,.925-8.925Z" transform="translate(-114.273 -121.656)" fill="#7dbe3b"/>
      </g>
      <g id="Grupo_1232019" data-name="Grupo 1232019" transform="translate(25.719 28.624)">
        <circle id="Elipse_11559" data-name="Elipse 11559" cx="4.51" cy="4.51" r="4.51" transform="translate(0)" fill="#8993da"/>
        <path id="Trazado_1234199" data-name="Trazado 1234199" d="M92.95,230.325a4.525,4.525,0,0,0-.925.1,4.511,4.511,0,0,1,0,8.83,4.511,4.511,0,1,0,.925-8.925Z" transform="translate(-88.44 -230.325)" fill="#707dd3"/>
      </g>
      <circle id="Elipse_11560" data-name="Elipse 11560" cx="4.51" cy="4.51" r="4.51" transform="translate(34.865 39.048)" fill="#90d8f9"/>
      <path id="Trazado_1234200" data-name="Trazado 1234200" d="M166.54,314.2a4.524,4.524,0,0,0-.925.1,4.511,4.511,0,0,1,0,8.83,4.511,4.511,0,1,0,.925-8.925Z" transform="translate(-127.165 -275.15)" fill="#75cef9"/>
      <g id="Grupo_1232020" data-name="Grupo 1232020" transform="translate(48.695 39.878)">
        <circle id="Elipse_11561" data-name="Elipse 11561" cx="4.51" cy="4.51" r="4.51" fill="#f9f6f9"/>
        <path id="Trazado_1234201" data-name="Trazado 1234201" d="M277.825,320.878a4.526,4.526,0,0,0-.925.1,4.511,4.511,0,0,1,0,8.83,4.511,4.511,0,1,0,.925-8.925Z" transform="translate(-273.315 -320.878)" fill="#e2dfe2"/>
      </g>
      <path id="Trazado_1234202" data-name="Trazado 1234202" d="M383.035,84.709l-9.36-3.973a1.032,1.032,0,0,1-.551-1.365l.714-1.626a1.063,1.063,0,0,1,1.388-.542l9.36,3.973a1.032,1.032,0,0,1,.551,1.365l-.714,1.626A1.063,1.063,0,0,1,383.035,84.709Z" transform="translate(-308.81 -67.535)" fill="#ecbe6b"/>
      <path id="Trazado_1234203" data-name="Trazado 1234203" d="M447.962,106.44l-1.115-.473a1.693,1.693,0,0,1-.14.871l-.958,2.19a1.8,1.8,0,0,1-.342.517l1,.426a1.063,1.063,0,0,0,1.388-.542l.714-1.626A1.032,1.032,0,0,0,447.962,106.44Z" transform="translate(-372.185 -92.798)" fill="#eab14d"/>
      <g id="Grupo_1232021" data-name="Grupo 1232021" transform="translate(20.403 0)">
        <path id="Trazado_1234204" data-name="Trazado 1234204" d="M190.246,58.8a5.442,5.442,0,1,0,5.442,5.442A5.449,5.449,0,0,0,190.246,58.8Zm0,9.021a3.578,3.578,0,1,1,3.578-3.578A3.582,3.582,0,0,1,190.246,67.818Z" transform="translate(-164.373 -51.49)"/>
        <path id="Trazado_1234205" data-name="Trazado 1234205" d="M86.95,114.156a5.442,5.442,0,1,0,5.442,5.442A5.449,5.449,0,0,0,86.95,114.156Zm0,9.021a3.578,3.578,0,1,1,3.578-3.578A3.582,3.582,0,0,1,86.95,123.177Z" transform="translate(-73.914 -99.969)"/>
        <path id="Trazado_1234206" data-name="Trazado 1234206" d="M61.117,222.825a5.442,5.442,0,1,0,5.442,5.442A5.449,5.449,0,0,0,61.117,222.825Zm0,9.021a3.578,3.578,0,1,1,3.578-3.578A3.582,3.582,0,0,1,61.117,231.846Z" transform="translate(-51.292 -195.133)"/>
        <path id="Trazado_1234207" data-name="Trazado 1234207" d="M240.549,318.819a5.442,5.442,0,1,0,5.442-5.442A5.449,5.449,0,0,0,240.549,318.819Zm5.442-3.578a3.578,3.578,0,1,1-3.578,3.578A3.582,3.582,0,0,1,245.991,315.241Z" transform="translate(-213.19 -274.431)"/>
        <path id="Trazado_1234208" data-name="Trazado 1234208" d="M78.149,7.637a.932.932,0,0,0-1.042.808,8.465,8.465,0,0,1-.567,2.246A4.506,4.506,0,0,1,75.226,12.4L67.707,9.2a4.416,4.416,0,0,1,.362-2.084C69.142,4.676,73.189,1.084,75.349,2c1.068.453,1.508,2,1.675,2.876a.932.932,0,0,0,1.831-.348C78.441,2.348,77.48.881,76.077.285,72.659-1.166,67.741,3.23,66.362,6.37a6.289,6.289,0,0,0-.528,2.29,1.991,1.991,0,0,0-1.659,1.176l-.714,1.625a1.942,1.942,0,0,0-.027,1.507,1.964,1.964,0,0,0,1.067,1.09l.319.135-2.472,6.094A9.013,9.013,0,0,1,57.624,12.1a8.127,8.127,0,0,0-1.955-5.566c-2.219-2.588-4.949-2.958-8.333-2.972A27,27,0,0,0,38.1,5.142.932.932,0,0,0,38.725,6.9a25.213,25.213,0,0,1,8.6-1.471,25.744,25.744,0,0,1,2.88.174,6.245,6.245,0,0,1,5.552,6.439,10.888,10.888,0,0,0,5.882,9.987L57.014,33.439c0-.028,0-.057,0-.085a.932.932,0,1,0-1.863-.062c-.15,4.52,6.019,7.775,10.027,5.392a.932.932,0,0,0-.691-1.708l5.682-12a6.119,6.119,0,0,1,2.008,4.7,24.117,24.117,0,0,1-7.129,17.3,25.054,25.054,0,0,1-27.558,5.56A24.334,24.334,0,0,1,35.4,8.37a.932.932,0,0,0-.875-1.646A26.365,26.365,0,0,0,20.417,29.1a26.593,26.593,0,0,0,27.312,27.23l-1.114,2.747a3.285,3.285,0,0,0,1.792,4.283,3.361,3.361,0,0,0,4.369-1.643l3.25-6.866a27.084,27.084,0,0,0,10.347-6.565,25.958,25.958,0,0,0,7.662-18.973,8.059,8.059,0,0,0-3.04-6.084l2.528-5.341.339.144a2,2,0,0,0,2.606-1.025l.714-1.626a1.941,1.941,0,0,0,.027-1.507,1.975,1.975,0,0,0-.286-.5,6.362,6.362,0,0,0,1.324-1.939,10.2,10.2,0,0,0,.71-2.762.932.932,0,0,0-.808-1.042ZM51.091,60.918a1.52,1.52,0,0,1-1.955.725,1.435,1.435,0,0,1-.793-1.866l1.446-3.565a26.633,26.633,0,0,0,3.838-.651ZM62.123,37.612a5.646,5.646,0,0,1-4.07-1.774l8.484-20.915L71.8,17.159Zm13.351-22.98-.714,1.626a.132.132,0,0,1-.17.058l-9.36-3.973a.1.1,0,0,1-.062-.132l.714-1.625a.132.132,0,0,1,.17-.058l9.36,3.973a.112.112,0,0,1,.063.062A.087.087,0,0,1,75.474,14.632Z" transform="translate(-20.403 0)"/>
        <path id="Trazado_1234209" data-name="Trazado 1234209" d="M129.265,312.14a5.444,5.444,0,0,0,2.371,4.493.932.932,0,1,0,1.053-1.538,3.578,3.578,0,1,1,2.93.506.932.932,0,0,0,.473,1.8,5.443,5.443,0,1,0-6.828-5.264Z" transform="translate(-115.736 -268.582)"/>
      </g>
    </g>
  </g>
</svg>
