<svg xmlns="http://www.w3.org/2000/svg" xmlns:xlink="http://www.w3.org/1999/xlink" width="113" height="113" viewBox="0 0 113 113">
  <defs>
    <filter id="Trazado_982547" x="0" y="0" width="113" height="113" filterUnits="userSpaceOnUse">
      <feOffset dy="3" input="SourceAlpha"/>
      <feGaussianBlur stdDeviation="3" result="blur"/>
      <feFlood flood-opacity="0.161"/>
      <feComposite operator="in" in2="blur"/>
      <feComposite in="SourceGraphic"/>
    </filter>
  </defs>
  <g id="Grupo_1231948" data-name="Grupo 1231948" transform="translate(-273 -1005.215)">
    <g id="Grupo_1231308" data-name="Grupo 1231308" transform="translate(-0.727 -1603)">
      <g id="Grupo_1230629" data-name="Grupo 1230629" transform="translate(-838.273 1377.999)">
        <g id="Grupo_1209049" data-name="Grupo 1209049">
          <g id="Grupo_1208493" data-name="Grupo 1208493" transform="translate(0 -4397.209)">
            <g id="Grupo_1202104" data-name="Grupo 1202104" transform="translate(0 -1149.226)">
              <g id="Grupo_1201923" data-name="Grupo 1201923" transform="translate(-4174.49 4856.378)">
                <g id="Grupo_1176928" data-name="Grupo 1176928" transform="translate(5295.49 1926.273)">
                  <g id="Grupo_1172322" data-name="Grupo 1172322" transform="translate(0 0)">
                    <g id="Grupo_1164700" data-name="Grupo 1164700">
                      <g id="Grupo_1160931" data-name="Grupo 1160931">
                        <g id="Grupo_1160749" data-name="Grupo 1160749">
                          <g id="Grupo_1158891" data-name="Grupo 1158891">
                            <g id="Grupo_1157406" data-name="Grupo 1157406">
                              <g id="Grupo_1155793" data-name="Grupo 1155793">
                                <g id="Grupo_1154704" data-name="Grupo 1154704">
                                  <g id="Grupo_1150790" data-name="Grupo 1150790">
                                    <g id="Grupo_1154214" data-name="Grupo 1154214">
                                      <g id="Grupo_1152583" data-name="Grupo 1152583">
                                        <g id="Grupo_1146973" data-name="Grupo 1146973">
                                          <g id="Grupo_1146954" data-name="Grupo 1146954">
                                            <g transform="matrix(1, 0, 0, 1, -9, -6)" filter="url(#Trazado_982547)">
                                              <g id="Trazado_982547-2" data-name="Trazado 982547" transform="translate(9 6)" fill="#dce8fa">
                                                <path d="M 47.5000114440918 93.49987030029297 C 41.28938293457031 93.49987030029297 35.26534652709961 92.28384399414062 29.5951976776123 89.88558959960938 C 24.11773109436035 87.56881713867188 19.19814491271973 84.25183868408203 14.97310447692871 80.02680206298828 C 10.74805164337158 75.80176544189453 7.43107795715332 70.88218688964844 5.114304542541504 65.40472412109375 C 2.716038227081299 59.73458862304688 1.500011444091797 53.71054840087891 1.500011444091797 47.49993515014648 C 1.500011444091797 41.28932189941406 2.716038227081299 35.26528167724609 5.114304542541504 29.59514808654785 C 7.43107795715332 24.1176815032959 10.74805164337158 19.1981086730957 14.97310447692871 14.97306823730469 C 19.19814491271973 10.74802875518799 24.11773109436035 7.431055068969727 29.5951976776123 5.11428165435791 C 35.26534652709961 2.716028451919556 41.28938293457031 1.500001788139343 47.5000114440918 1.500001788139343 C 53.71063995361328 1.500001788139343 59.73467636108398 2.716028451919556 65.40482330322266 5.11428165435791 C 70.88229370117188 7.431055068969727 75.8018798828125 10.74802875518799 80.02691650390625 14.97306823730469 C 84.25196838378906 19.1981086730957 87.56894683837891 24.1176815032959 89.88571929931641 29.59514808654785 C 92.28398132324219 35.26528167724609 93.50001525878906 41.28932189941406 93.50001525878906 47.49993515014648 C 93.50001525878906 53.71054840087891 92.28398132324219 59.73458862304688 89.88571929931641 65.40472412109375 C 87.56894683837891 70.88218688964844 84.25196838378906 75.80176544189453 80.02691650390625 80.02680206298828 C 75.8018798828125 84.25183868408203 70.88229370117188 87.56881713867188 65.40482330322266 89.88558959960938 C 59.73467636108398 92.28384399414062 53.71063995361328 93.49987030029297 47.5000114440918 93.49987030029297 Z" stroke="none"/>
                                                <path d="M 47.5000114440918 3 C 41.49122619628906 3 35.66378021240234 4.1761474609375 30.17951965332031 6.495796203613281 C 24.880859375 8.7369384765625 20.12153625488281 11.94596862792969 16.03376770019531 16.03373718261719 C 11.94598388671875 20.12149047851562 8.736968994140625 24.88081359863281 6.495811462402344 30.17947387695312 C 4.176162719726562 35.66371917724609 3.000007629394531 41.49116516113281 3.000007629394531 47.49993515014648 C 3.000007629394531 53.50870513916016 4.176162719726562 59.33615112304688 6.495811462402344 64.82039642333984 C 8.736968994140625 70.11905670166016 11.94598388671875 74.87837982177734 16.03376770019531 78.96613311767578 C 20.12153625488281 83.05390167236328 24.880859375 86.26293182373047 30.17951965332031 88.50407409667969 C 35.66378021240234 90.82372283935547 41.49122619628906 91.99987030029297 47.5000114440918 91.99987030029297 C 53.50879669189453 91.99987030029297 59.33624267578125 90.82372283935547 64.82050323486328 88.50407409667969 C 70.11916351318359 86.26293182373047 74.87848663330078 83.05390167236328 78.96625518798828 78.96613311767578 C 83.05403900146484 74.87837982177734 86.2630615234375 70.11905670166016 88.50421142578125 64.82039642333984 C 90.82386016845703 59.33615112304688 92.00001525878906 53.50870513916016 92.00001525878906 47.49993515014648 C 92.00001525878906 41.49116516113281 90.82386016845703 35.66371917724609 88.50421142578125 30.17947387695312 C 86.2630615234375 24.88081359863281 83.05403900146484 20.12149047851562 78.96625518798828 16.03373718261719 C 74.87848663330078 11.94596862792969 70.11916351318359 8.7369384765625 64.82050323486328 6.495796203613281 C 59.33624267578125 4.1761474609375 53.50879669189453 3 47.5000114440918 3 M 47.5000114440918 0 C 73.73353576660156 0 95.00001525878906 21.26644134521484 95.00001525878906 47.49993515014648 C 95.00001525878906 73.73342895507812 73.73353576660156 94.99987030029297 47.5000114440918 94.99987030029297 C 21.26648712158203 94.99987030029297 7.62939453125e-06 73.73342895507812 7.62939453125e-06 47.49993515014648 C 7.62939453125e-06 21.26644134521484 21.26648712158203 0 47.5000114440918 0 Z" stroke="none" fill="#5692e8"/>
                                              </g>
                                            </g>
                                          </g>
                                        </g>
                                      </g>
                                    </g>
                                  </g>
                                </g>
                              </g>
                            </g>
                          </g>
                        </g>
                      </g>
                    </g>
                  </g>
                </g>
              </g>
            </g>
          </g>
        </g>
      </g>
    </g>
    <g id="pensamiento-critico" transform="translate(286.188 970.262)">
      <g id="Grupo_1231947" data-name="Grupo 1231947" transform="translate(14.836 63.649)">
        <path id="Trazado_1232671" data-name="Trazado 1232671" d="M297.235,144.531l2.877-1.651,1.079,1.878a8.579,8.579,0,0,1,3.556-.466l.559-2.091,3.209.852-.559,2.091a8.816,8.816,0,0,1,2.837,2.184l1.878-1.079,1.651,2.877-1.864,1.079a8.8,8.8,0,0,1,.466,3.556l2.091.559-.866,3.21-2.091-.559a9.013,9.013,0,0,1-2.184,2.85l1.079,1.864-2.863,1.638-1.079-1.878a8.579,8.579,0,0,1-3.556.466L302.9,164l-3.21-.866.559-2.078a8.817,8.817,0,0,1-2.837-2.184l-1.878,1.079-1.651-2.877L295.744,156a8.806,8.806,0,0,1-.466-3.556l-2.078-.559.852-3.2,2.091.559a9.012,9.012,0,0,1,2.184-2.85Z" transform="translate(-256.96 -132.552)" fill="#d71b5a" fill-rule="evenodd"/>
        <path id="Trazado_1232672" data-name="Trazado 1232672" d="M342.086,189.268a4.7,4.7,0,1,1-1.718,6.419A4.687,4.687,0,0,1,342.086,189.268Z" transform="translate(-297.296 -172.801)" fill="#ffcd05" fill-rule="evenodd"/>
        <path id="Trazado_1232673" data-name="Trazado 1232673" d="M56.893,119.368c-.639-9.668.613-13.464,2.4-16.434a15.461,15.461,0,0,1,1.864-26.409,16.715,16.715,0,0,0-3.183-3.036,19.22,19.22,0,0,0-8.6-3.463,27.065,27.065,0,0,0-13.81,1.7,17.563,17.563,0,0,0-9.109,9.549,14.491,14.491,0,0,0-.919,7.964c.306,1.691.533,2.038-.559,3.6-1.039,1.532-2.237,3.036-3.156,4.634-3.063,5.367,4.421,2.41,4.634,7.724.093,2.584-.666,4.728.626,6.419,1.092,1.438,3.143,1.278,4.874,1.345.972.04,1.958.08,2.917.186,3.649.373,3.942,3.915,4.248,6.233H56.893Z" transform="translate(-21.079 -69.755)" fill="#f79d79" fill-rule="evenodd"/>
        <path id="Trazado_1232674" data-name="Trazado 1232674" d="M100.8,105h3.1v2.024a8.2,8.2,0,0,1,3.1,1.278l1.425-1.425,2.2,2.2-1.425,1.425a8.219,8.219,0,0,1,1.292,3.1h2.024v3.1H110.5a8.219,8.219,0,0,1-1.292,3.1l1.425,1.425-2.2,2.2-1.425-1.425a8.219,8.219,0,0,1-3.1,1.292v2.024h-3.1V123.3a8.219,8.219,0,0,1-3.1-1.292l-1.425,1.425-2.2-2.2,1.425-1.425a7.989,7.989,0,0,1-1.278-3.1H92.2v-3.1h2.024a8.2,8.2,0,0,1,1.278-3.1l-1.425-1.425,2.2-2.2L97.7,108.3a7.989,7.989,0,0,1,3.1-1.278Z" transform="translate(-82.729 -100.306)" fill="#fff" fill-rule="evenodd"/>
        <path id="Trazado_1232675" data-name="Trazado 1232675" d="M139.894,148.2a4.395,4.395,0,1,1-4.395,4.395A4.4,4.4,0,0,1,139.894,148.2Z" transform="translate(-120.262 -137.753)" fill="#cc3737" fill-rule="evenodd"/>
      </g>
      <path id="Trazado_1232676" data-name="Trazado 1232676" d="M34.469,73.163a5.327,5.327,0,1,1-5.327,5.327A5.326,5.326,0,0,1,34.469,73.163Zm2.45,2.877a3.464,3.464,0,1,0,0,4.9A3.465,3.465,0,0,0,36.919,76.04Zm-4.009-8.63h3.1a.926.926,0,0,1,.932.932v1.278a9.277,9.277,0,0,1,2.024.839l.906-.906a.941.941,0,0,1,1.318,0l2.2,2.2a.941.941,0,0,1,0,1.318l-.906.906A9.277,9.277,0,0,1,43.325,76H44.6a.926.926,0,0,1,.932.932v3.1a.926.926,0,0,1-.932.932H43.325l-.36,1.039c-.146.346-.306.666-.479.985l.906.906a.941.941,0,0,1,0,1.318l-2.2,2.2a.941.941,0,0,1-1.318,0l-.906-.906a9.277,9.277,0,0,1-2.024.839v1.278a.926.926,0,0,1-.932.932h-3.1a.926.926,0,0,1-.932-.932V87.346a9.276,9.276,0,0,1-2.024-.839l-.906.906a.941.941,0,0,1-1.318,0l-2.2-2.2a.941.941,0,0,1,0-1.318l.906-.906a9.277,9.277,0,0,1-.839-2.024H24.321a.926.926,0,0,1-.932-.932v-3.1A.926.926,0,0,1,24.321,76H25.6a9.277,9.277,0,0,1,.839-2.024l-.906-.906a.941.941,0,0,1,0-1.318l2.2-2.2a.941.941,0,0,1,1.318,0l.906.906a9.116,9.116,0,0,1,2.038-.839V68.342A.915.915,0,0,1,32.911,67.41Zm2.171,1.864H33.843v1.039a.914.914,0,0,1-.759.959,7.535,7.535,0,0,0-2.7,1.105.935.935,0,0,1-1.225-.08l-.772-.772L27.5,72.4l.772.772a.944.944,0,0,1,.107,1.185,7.36,7.36,0,0,0-1.119,2.69.934.934,0,0,1-.919.826H25.253v1.239h1.092a.938.938,0,0,1,.919.759,7.3,7.3,0,0,0,1.105,2.7.935.935,0,0,1-.08,1.225l-.772.772.879.866.772-.772a.942.942,0,0,1,1.185-.107,7.36,7.36,0,0,0,2.69,1.119.934.934,0,0,1,.826.919v1.092h1.239V86.6a.951.951,0,0,1,.759-.919,7.212,7.212,0,0,0,2.7-1.105.935.935,0,0,1,1.225.08l.772.772.879-.866-.772-.772a.942.942,0,0,1-.107-1.185,6.966,6.966,0,0,0,.706-1.318,6.806,6.806,0,0,0,.413-1.372.924.924,0,0,1,.919-.826H43.7V77.851H42.606a.951.951,0,0,1-.919-.759,7.438,7.438,0,0,0-1.105-2.7.935.935,0,0,1,.08-1.225l.772-.772-.879-.879-.772.772a.944.944,0,0,1-1.185.107,7.386,7.386,0,0,0-2.69-1.132.924.924,0,0,1-.826-.919ZM49.664,112.33a44.189,44.189,0,0,1,.36-9.961,17.456,17.456,0,0,1,1.8-5.287A16.388,16.388,0,0,1,53.46,70.167c-4.328-4.674-10.8-6.179-17.033-5.407a27.954,27.954,0,0,0-6.752,1.718,16.551,16.551,0,0,0-8.563,8.989,13.638,13.638,0,0,0-.879,7.5c.346,1.878.626,2.357-.706,4.275-1,1.465-2.237,3.036-3.116,4.581-1.159,2.024-.439,2.157.866,2.663,1.731.666,3.742,1.452,3.875,4.581a18.886,18.886,0,0,1-.067,2.344c-.093,1.425-.173,2.637.506,3.529.812,1.065,2.73.919,4.168.985,1.039.04,1.958.08,2.97.186,3.955.413,4.621,3.662,4.967,6.219Zm2.2-9.629a44.031,44.031,0,0,0-.28,10.441.927.927,0,0,1-.919,1.052H32.857a.922.922,0,0,1-.919-.812c-.266-2.078-.546-5.127-3.423-5.42-1.025-.107-2.5-.186-3.516-.2-1.771-.04-3.689-.093-4.914-1.691-1.558-2.038-.719-4.435-.812-6.952s-2.464-2.61-3.982-3.489c-1.425-.826-2.078-1.984-.493-4.728.946-1.651,2.1-3.1,3.2-4.7.866-1.265.666-1.492.413-2.9a15.493,15.493,0,0,1,.959-8.443,18.437,18.437,0,0,1,9.642-10.108c7.524-2.93,16.62-3.023,23.292,1.878a17.985,17.985,0,0,1,2.877,2.637,16.941,16.941,0,0,1,4.515-1.318L59.2,67.65a.932.932,0,1,1,.959-1.6l3.1,1.878a.92.92,0,0,1-.04,1.6l-3.183,1.745A.932.932,0,0,1,58.8,69.967a14.546,14.546,0,0,0-2.65,27.527.944.944,0,0,1,.479,1.225A.923.923,0,0,1,55.4,99.2a15.553,15.553,0,0,1-2.038-1.065,15.811,15.811,0,0,0-1.5,4.568ZM67.789,70.859a.93.93,0,1,1,.746-1.7,15.876,15.876,0,0,1,2.051,1.079.93.93,0,1,1-.972,1.585A14.025,14.025,0,0,0,67.789,70.859ZM72.144,73.8a.941.941,0,0,1-.013-1.318.928.928,0,0,1,1.318-.013A16.339,16.339,0,0,1,75.7,75.214a.942.942,0,0,1-.266,1.292.928.928,0,0,1-1.292-.266,14.639,14.639,0,0,0-2-2.437Zm3.516,5.487a.927.927,0,0,1,1.745-.626,16.408,16.408,0,0,1-13.158,21.761l.493.293a.933.933,0,0,1,.32,1.278.945.945,0,0,1-1.278.32l-3.1-1.878a.931.931,0,0,1,.04-1.611L63.9,97.082a.932.932,0,0,1,1.239,1.305,14.554,14.554,0,0,0,10.521-19.1ZM50.73,96.123c-.04-.04-.08-.067-.12-.107Zm8.43-16.807a5.63,5.63,0,1,1-2.064,7.7A5.636,5.636,0,0,1,59.159,79.316Zm3.782,1.239a3.772,3.772,0,1,0,2.663,4.621A3.779,3.779,0,0,0,62.942,80.555Zm-8.3-5.74,2.877-1.651a.918.918,0,0,1,1.265.333l.719,1.239a9.219,9.219,0,0,1,2.41-.32l.36-1.372a.94.94,0,0,1,1.145-.666l3.21.866a.932.932,0,0,1,.653,1.145l-.36,1.372a9.906,9.906,0,0,1,1.931,1.478l1.239-.706a.922.922,0,0,1,1.265.346l1.665,2.877a.94.94,0,0,1-.386,1.305l-1.185.679a9.218,9.218,0,0,1,.32,2.41l1.372.373a.94.94,0,0,1,.666,1.145l-.852,3.21a.932.932,0,0,1-1.145.653l-1.372-.36A9.906,9.906,0,0,1,68.961,91.1l.719,1.225a.94.94,0,0,1-.386,1.305l-2.823,1.625a.922.922,0,0,1-1.265-.346L64.5,93.672a9.218,9.218,0,0,1-2.41.32l-.36,1.372a.94.94,0,0,1-1.145.666l-3.21-.866a.94.94,0,0,1-.666-1.145l.373-1.372a9.906,9.906,0,0,1-1.931-1.478l-1.225.706a.937.937,0,0,1-1.278-.333L51,88.665a.949.949,0,0,1,.333-1.278l1.239-.719a9.218,9.218,0,0,1-.32-2.41l-1.372-.373a.94.94,0,0,1-.666-1.145l.866-3.2a.94.94,0,0,1,1.145-.666l1.372.373a9.907,9.907,0,0,1,1.478-1.931l-.706-1.225a.877.877,0,0,1,.28-1.278Zm3,.413-1.265.732.613,1.065a.923.923,0,0,1-.2,1.172,7.853,7.853,0,0,0-1.931,2.5.938.938,0,0,1-1.092.533l-1.185-.32-.373,1.412,1.185.32a.95.95,0,0,1,.693.972,7.841,7.841,0,0,0,.4,3.143.942.942,0,0,1-.4,1.145l-1.065.613.732,1.265,1.065-.613a.94.94,0,0,1,1.172.2A7.905,7.905,0,0,0,58.507,91.3a.931.931,0,0,1,.533,1.092l-.32,1.185,1.412.373.32-1.185a.95.95,0,0,1,.972-.693,7.849,7.849,0,0,0,3.143-.413.937.937,0,0,1,1.145.4l.613,1.065,1.265-.732-.613-1.065a.943.943,0,0,1,.2-1.172,7.853,7.853,0,0,0,1.931-2.5A.931.931,0,0,1,70.2,87.12l1.185.32.373-1.412-1.185-.32a.945.945,0,0,1-.693-.959,7.84,7.84,0,0,0-.413-3.183.913.913,0,0,1,.413-1.105l1.065-.613-.732-1.265-1.025.6a.924.924,0,0,1-1.212-.173,7.854,7.854,0,0,0-2.5-1.931.938.938,0,0,1-.533-1.092l.32-1.185-1.4-.373-.32,1.185a.925.925,0,0,1-.959.693,7.945,7.945,0,0,0-3.156.413.948.948,0,0,1-1.145-.4Z"/>
    </g>
  </g>
</svg>
