<svg xmlns="http://www.w3.org/2000/svg" xmlns:xlink="http://www.w3.org/1999/xlink" width="108" height="108" viewBox="0 0 108 108">
  <defs>
    <filter id="Trazado_904820" x="0" y="0" width="108" height="108" filterUnits="userSpaceOnUse">
      <feOffset dy="3" input="SourceAlpha"/>
      <feGaussianBlur stdDeviation="3" result="blur"/>
      <feFlood flood-opacity="0.161"/>
      <feComposite operator="in" in2="blur"/>
      <feComposite in="SourceGraphic"/>
    </filter>
  </defs>
  <g id="Grupo_1232253" data-name="Grupo 1232253" transform="translate(-619.477 -807.828)">
    <g id="Grupo_1231669" data-name="Grupo 1231669" transform="translate(0 273.828)">
      <g id="Grupo_1229404" data-name="Grupo 1229404" transform="translate(0 61.321)">
        <g id="Grupo_1208347" data-name="Grupo 1208347" transform="translate(628.477 478.679)">
          <g id="Grupo_1207936" data-name="Grupo 1207936" transform="translate(0 0)">
            <g id="Grupo_1201662" data-name="Grupo 1201662">
              <g id="Grupo_1173585" data-name="Grupo 1173585">
                <g id="Grupo_1173428" data-name="Grupo 1173428">
                  <g id="Grupo_1171958" data-name="Grupo 1171958">
                    <g id="Grupo_1167341" data-name="Grupo 1167341">
                      <g id="Grupo_1166792" data-name="Grupo 1166792">
                        <g transform="matrix(1, 0, 0, 1, -9, -6)" filter="url(#Trazado_904820)">
                          <g id="Trazado_904820-2" data-name="Trazado 904820" transform="translate(9 6)" fill="#effbfe">
                            <path d="M 44.99999618530273 88.49999237060547 C 39.12687301635742 88.49999237060547 33.43022155761719 87.35006713867188 28.06829643249512 85.08216857910156 C 22.88852119445801 82.89130401611328 18.23629570007324 79.75457763671875 14.24084663391113 75.75914001464844 C 10.24540901184082 71.76369476318359 7.108683586120605 67.11146545410156 4.917821407318115 61.93169403076172 C 2.649921178817749 56.56976699829102 1.499996185302734 50.87311553955078 1.499996185302734 44.99999237060547 C 1.499996185302734 39.12686920166016 2.649921178817749 33.43021774291992 4.917821407318115 28.06829261779785 C 7.108683586120605 22.88851737976074 10.24540901184082 18.23630523681641 14.24084663391113 14.24085521697998 C 18.23629570007324 10.24540519714355 22.88852119445801 7.108692169189453 28.06829643249512 4.917829990386963 C 33.43022155761719 2.649929761886597 39.12687301635742 1.500004887580872 44.99999618530273 1.500004887580872 C 50.87311935424805 1.500004887580872 56.56977081298828 2.649929761886597 61.93169784545898 4.917829990386963 C 67.11147308349609 7.108692169189453 71.76369476318359 10.24540519714355 75.75914764404297 14.24085521697998 C 79.75458526611328 18.23630523681641 82.89131164550781 22.88851737976074 85.08216857910156 28.06829261779785 C 87.35007476806641 33.43021774291992 88.5 39.12686920166016 88.5 44.99999237060547 C 88.5 50.87311553955078 87.35007476806641 56.56976699829102 85.08216857910156 61.93169403076172 C 82.89131164550781 67.11146545410156 79.75458526611328 71.76369476318359 75.75914764404297 75.75914001464844 C 71.76369476318359 79.75457763671875 67.11147308349609 82.89130401611328 61.93169784545898 85.08216857910156 C 56.56977081298828 87.35006713867188 50.87311935424805 88.49999237060547 44.99999618530273 88.49999237060547 Z" stroke="none"/>
                            <path d="M 44.99999618530273 2.999992370605469 C 39.32870864868164 2.999992370605469 33.82865142822266 4.11004638671875 28.65262603759766 6.299331665039062 C 23.65165710449219 8.414566040039062 19.15968322753906 11.44333648681641 15.301513671875 15.30150604248047 C 11.44333648681641 19.15967559814453 8.414566040039062 23.65164947509766 6.299339294433594 28.65262222290039 C 4.110054016113281 33.82864761352539 2.999992370605469 39.32870483398438 2.999992370605469 44.99999237060547 C 2.999992370605469 50.67127990722656 4.110054016113281 56.17132186889648 6.299339294433594 61.34736633300781 C 8.414566040039062 66.34833526611328 11.44333648681641 70.84029388427734 15.301513671875 74.69846343994141 C 19.15968322753906 78.55663299560547 23.65165710449219 81.58540344238281 28.65262603759766 83.70063781738281 C 33.82865142822266 85.88992309570312 39.32870864868164 86.99997711181641 44.99999618530273 86.99997711181641 C 50.67128372192383 86.99997711181641 56.17134094238281 85.88992309570312 61.34736633300781 83.70063781738281 C 66.34834289550781 81.58540344238281 70.84030914306641 78.55663299560547 74.69847869873047 74.69846343994141 C 78.55665588378906 70.84029388427734 81.58542633056641 66.34833526611328 83.70065307617188 61.34736633300781 C 85.88993835449219 56.17132186889648 87 50.67127990722656 87 44.99999237060547 C 87 39.32870483398438 85.88993835449219 33.82864761352539 83.70065307617188 28.65262222290039 C 81.58542633056641 23.65164947509766 78.55665588378906 19.15967559814453 74.69847869873047 15.30150604248047 C 70.84030914306641 11.44333648681641 66.34834289550781 8.414566040039062 61.34736633300781 6.299331665039062 C 56.17134094238281 4.11004638671875 50.67128372192383 2.999992370605469 44.99999618530273 2.999992370605469 M 44.99999618530273 -7.62939453125e-06 C 69.85281372070312 -7.62939453125e-06 90 20.14717864990234 90 44.99999237060547 C 90 69.85279083251953 69.85281372070312 89.99997711181641 44.99999618530273 89.99997711181641 C 20.14717864990234 89.99997711181641 -7.62939453125e-06 69.85279083251953 -7.62939453125e-06 44.99999237060547 C -7.62939453125e-06 20.14717864990234 20.14717864990234 -7.62939453125e-06 44.99999618530273 -7.62939453125e-06 Z" stroke="none" fill="#497f88"/>
                          </g>
                        </g>
                      </g>
                    </g>
                  </g>
                </g>
              </g>
            </g>
          </g>
        </g>
      </g>
    </g>
    <g id="tecnologia_6_" data-name="tecnologia (6)" transform="translate(646.211 831.562)">
      <g id="Grupo_1232251" data-name="Grupo 1232251" transform="translate(0.88 0.88)">
        <g id="Grupo_1232240" data-name="Grupo 1232240" transform="translate(36.061)">
          <path id="Trazado_1234890" data-name="Trazado 1234890" d="M50.8,1V8.036H42V1Z" transform="translate(-42 -1)" fill="#f0d0b4"/>
        </g>
        <g id="Grupo_1232241" data-name="Grupo 1232241" transform="translate(7.916)">
          <path id="Trazado_1234891" data-name="Trazado 1234891" d="M18.8,1V8.036H10V1Z" transform="translate(-10 -1)" fill="#f0d0b4"/>
        </g>
        <g id="Grupo_1232242" data-name="Grupo 1232242" transform="translate(21.988)">
          <path id="Trazado_1234892" data-name="Trazado 1234892" d="M34.8,1V8.036H26V1Z" transform="translate(-26 -1)" fill="#f0d0b4"/>
        </g>
        <g id="Grupo_1232243" data-name="Grupo 1232243" transform="translate(3.518 12.313)">
          <path id="Trazado_1234893" data-name="Trazado 1234893" d="M50.736,48.422H5v-29.9A3.518,3.518,0,0,1,8.518,15h38.7a3.518,3.518,0,0,1,3.518,3.518Z" transform="translate(-5 -15)" fill="#ccd1d9"/>
        </g>
        <g id="Grupo_1232244" data-name="Grupo 1232244" transform="translate(7.036 15.832)">
          <path id="Trazado_1234894" data-name="Trazado 1234894" d="M46.82,45.386H9.88a.88.88,0,0,1-.88-.88V19.88A.88.88,0,0,1,9.88,19H46.82a.88.88,0,0,1,.88.88V44.506A.88.88,0,0,1,46.82,45.386Z" transform="translate(-9 -19)" fill="#69d6f4"/>
        </g>
        <g id="Grupo_1232245" data-name="Grupo 1232245" transform="translate(0 45.736)">
          <path id="Trazado_1234895" data-name="Trazado 1234895" d="M52.013,53H2.759a1.72,1.72,0,0,0-1.24.519A1.72,1.72,0,0,0,1,54.759a5.281,5.281,0,0,0,5.277,5.277H48.495a5.285,5.285,0,0,0,5.277-5.277A1.764,1.764,0,0,0,52.013,53Z" transform="translate(-1 -53)" fill="#969faa"/>
        </g>
        <g id="Grupo_1232246" data-name="Grupo 1232246" transform="translate(43.977 49.254)">
          <path id="Trazado_1234896" data-name="Trazado 1234896" d="M51,57h3.518v3.518H51Z" transform="translate(-51 -57)" fill="#ff826e"/>
        </g>
        <g id="Grupo_1232247" data-name="Grupo 1232247" transform="translate(36.94 49.254)">
          <path id="Trazado_1234897" data-name="Trazado 1234897" d="M43,57h3.518v3.518H43Z" transform="translate(-43 -57)" fill="#ff826e"/>
        </g>
        <g id="Grupo_1232248" data-name="Grupo 1232248" transform="translate(20.229 45.736)">
          <path id="Trazado_1234898" data-name="Trazado 1234898" d="M36.313,53v1.759a1.764,1.764,0,0,1-1.759,1.759h-8.8A1.764,1.764,0,0,1,24,54.759V53Z" transform="translate(-24 -53)" fill="#ff826e"/>
        </g>
        <g id="Grupo_1232249" data-name="Grupo 1232249" transform="translate(12.313 25.506)">
          <path id="Trazado_1234899" data-name="Trazado 1234899" d="M43.145,41.434v5.277H37.472v-.026a8.8,8.8,0,1,0-17.195-2.612,8.714,8.714,0,0,0,.4,2.639H15V41.434l2.234-.712a12.779,12.779,0,0,1,1.091-2.656L17.252,35.99l3.738-3.738,2.076,1.073a12.779,12.779,0,0,1,2.656-1.091L26.434,30h5.277l.712,2.234a12.779,12.779,0,0,1,2.656,1.091l2.076-1.073,3.738,3.738L39.82,38.065a12.779,12.779,0,0,1,1.091,2.656Z" transform="translate(-15 -30)" fill="#ffc729"/>
        </g>
        <g id="Grupo_1232250" data-name="Grupo 1232250" transform="translate(17.591 30.784)">
          <path id="Trazado_1234900" data-name="Trazado 1234900" d="M38.591,44.8a8.816,8.816,0,0,1-.4,2.612v.026H32.117a3.474,3.474,0,0,0,1.2-2.639,3.518,3.518,0,0,0-7.036,0,3.474,3.474,0,0,0,1.2,2.639H21.4A8.8,8.8,0,1,1,38.591,44.8Z" transform="translate(-21 -36)" fill="#fcd770"/>
        </g>
      </g>
      <g id="Grupo_1232252" data-name="Grupo 1232252">
        <path id="Trazado_1234901" data-name="Trazado 1234901" d="M51.893,47.422h-.88V18.4a4.4,4.4,0,0,0-4.4-4.4H43.977v1.759h2.639A2.642,2.642,0,0,1,49.254,18.4V47.422H5.277V18.4a2.642,2.642,0,0,1,2.639-2.639h2.639V14H7.916a4.4,4.4,0,0,0-4.4,4.4V47.422h-.88A2.642,2.642,0,0,0,0,50.061a6.165,6.165,0,0,0,6.157,6.157H48.374a6.165,6.165,0,0,0,6.157-6.157A2.642,2.642,0,0,0,51.893,47.422Zm-29.9,1.759H32.543v.88a.88.88,0,0,1-.88.88h-8.8a.88.88,0,0,1-.88-.88Zm18.47,5.277H38.7V52.7h1.759Zm7.036,0H45.736V52.7h1.759Zm1.759-.089V50.94H43.977v3.518H42.218V50.94H36.94v3.518H6.157a4.4,4.4,0,0,1-4.4-4.4.88.88,0,0,1,.88-.88H20.229v.88A2.642,2.642,0,0,0,22.868,52.7h8.8A2.642,2.642,0,0,0,34.3,50.061v-.88H51.893a.88.88,0,0,1,.88.88,4.406,4.406,0,0,1-3.518,4.309Z" transform="translate(0 -1.687)"/>
        <path id="Trazado_1234902" data-name="Trazado 1234902" d="M20.313,19.759V18H9.759A1.761,1.761,0,0,0,8,19.759V44.386a1.761,1.761,0,0,0,1.759,1.759H46.7a1.761,1.761,0,0,0,1.759-1.759V19.759A1.761,1.761,0,0,0,46.7,18H36.145v1.759H46.7V44.386H43.181V39.347l-2.4-.77a13.246,13.246,0,0,0-.808-1.96l1.154-2.242-4.639-4.639L34.242,30.89a13.285,13.285,0,0,0-1.96-.808l-.772-2.406h-6.56l-.77,2.4a13.246,13.246,0,0,0-1.96.808l-2.242-1.154-4.639,4.639,1.154,2.242a13.285,13.285,0,0,0-.808,1.96l-2.406.772v5.039H9.759V19.759Zm0,22.868a7.916,7.916,0,1,1,15.613,1.759H32.257a4.4,4.4,0,1,0-8.055,0H20.533A7.922,7.922,0,0,1,20.313,42.627Zm5.277,0a2.639,2.639,0,1,1,4.584,1.759H26.283a2.63,2.63,0,0,1-.692-1.759Zm-10.554-2,2.072-.663.128-.455a11.337,11.337,0,0,1,1.014-2.46l.23-.413-.994-1.93,2.825-2.825,1.93.994.413-.23a11.337,11.337,0,0,1,2.46-1.014l.455-.128.662-2.071h3.994l.663,2.072.455.128a11.337,11.337,0,0,1,2.46,1.014l.413.23,1.93-.994,2.825,2.825-.994,1.93.23.413a11.337,11.337,0,0,1,1.014,2.46l.128.455,2.072.662v3.756H37.738a9.675,9.675,0,1,0-19.017,0H15.036Z" transform="translate(-0.964 -2.168)"/>
        <path id="Trazado_1234903" data-name="Trazado 1234903" d="M13,4h3.518V5.759H13Z" transform="translate(-1.566 -0.482)"/>
        <path id="Trazado_1234904" data-name="Trazado 1234904" d="M29,4h3.518V5.759H29Z" transform="translate(-3.494 -0.482)"/>
        <path id="Trazado_1234905" data-name="Trazado 1234905" d="M45,4h3.518V5.759H45Z" transform="translate(-5.421 -0.482)"/>
        <path id="Trazado_1234906" data-name="Trazado 1234906" d="M29.4,23.747h1.759V8.8h4.4V0H25V8.8h4.4ZM26.759,1.759H33.8V7.036H26.759Z" transform="translate(-3.012)"/>
        <path id="Trazado_1234907" data-name="Trazado 1234907" d="M44.8,12.313H36V23.747h1.759V14.073h8.8V8.8h4.4V0H40.4V8.8h4.4ZM42.157,1.759h7.036V7.036H42.157Z" transform="translate(-4.337)"/>
        <path id="Trazado_1234908" data-name="Trazado 1234908" d="M13.4,14.073h8.8v9.675h1.759V12.313h-8.8V8.8h4.4V0H9V8.8h4.4ZM10.759,1.759H17.8V7.036H10.759Z" transform="translate(-1.084)"/>
      </g>
    </g>
  </g>
</svg>
