<svg xmlns="http://www.w3.org/2000/svg" xmlns:xlink="http://www.w3.org/1999/xlink" width="108" height="108" viewBox="0 0 108 108">
  <defs>
    <filter id="Trazado_904820" x="0" y="0" width="108" height="108" filterUnits="userSpaceOnUse">
      <feOffset dy="3" input="SourceAlpha"/>
      <feGaussianBlur stdDeviation="3" result="blur"/>
      <feFlood flood-opacity="0.161"/>
      <feComposite operator="in" in2="blur"/>
      <feComposite in="SourceGraphic"/>
    </filter>
  </defs>
  <g id="Grupo_1232148" data-name="Grupo 1232148" transform="translate(-619.477 -827)">
    <g id="Grupo_1231443" data-name="Grupo 1231443" transform="translate(0 293)">
      <g id="Grupo_1229404" data-name="Grupo 1229404" transform="translate(0 61.321)">
        <g id="Grupo_1208347" data-name="Grupo 1208347" transform="translate(628.477 478.679)">
          <g id="Grupo_1207936" data-name="Grupo 1207936" transform="translate(0 0)">
            <g id="Grupo_1201662" data-name="Grupo 1201662">
              <g id="Grupo_1173585" data-name="Grupo 1173585">
                <g id="Grupo_1173428" data-name="Grupo 1173428">
                  <g id="Grupo_1171958" data-name="Grupo 1171958">
                    <g id="Grupo_1167341" data-name="Grupo 1167341">
                      <g id="Grupo_1166792" data-name="Grupo 1166792">
                        <g transform="matrix(1, 0, 0, 1, -9, -6)" filter="url(#Trazado_904820)">
                          <g id="Trazado_904820-2" data-name="Trazado 904820" transform="translate(9 6)" fill="#effbfe">
                            <path d="M 44.99999618530273 88.49999237060547 C 39.12687301635742 88.49999237060547 33.43022155761719 87.35006713867188 28.06829643249512 85.08216857910156 C 22.88852119445801 82.89130401611328 18.23629570007324 79.75457763671875 14.24084663391113 75.75914001464844 C 10.24540901184082 71.76369476318359 7.108683586120605 67.11146545410156 4.917821407318115 61.93169403076172 C 2.649921178817749 56.56976699829102 1.499996185302734 50.87311553955078 1.499996185302734 44.99999237060547 C 1.499996185302734 39.12686920166016 2.649921178817749 33.43021774291992 4.917821407318115 28.06829261779785 C 7.108683586120605 22.88851737976074 10.24540901184082 18.23630523681641 14.24084663391113 14.24085521697998 C 18.23629570007324 10.24540519714355 22.88852119445801 7.108692169189453 28.06829643249512 4.917829990386963 C 33.43022155761719 2.649929761886597 39.12687301635742 1.500004887580872 44.99999618530273 1.500004887580872 C 50.87311935424805 1.500004887580872 56.56977081298828 2.649929761886597 61.93169784545898 4.917829990386963 C 67.11147308349609 7.108692169189453 71.76369476318359 10.24540519714355 75.75914764404297 14.24085521697998 C 79.75458526611328 18.23630523681641 82.89131164550781 22.88851737976074 85.08216857910156 28.06829261779785 C 87.35007476806641 33.43021774291992 88.5 39.12686920166016 88.5 44.99999237060547 C 88.5 50.87311553955078 87.35007476806641 56.56976699829102 85.08216857910156 61.93169403076172 C 82.89131164550781 67.11146545410156 79.75458526611328 71.76369476318359 75.75914764404297 75.75914001464844 C 71.76369476318359 79.75457763671875 67.11147308349609 82.89130401611328 61.93169784545898 85.08216857910156 C 56.56977081298828 87.35006713867188 50.87311935424805 88.49999237060547 44.99999618530273 88.49999237060547 Z" stroke="none"/>
                            <path d="M 44.99999618530273 2.999992370605469 C 39.32870864868164 2.999992370605469 33.82865142822266 4.11004638671875 28.65262603759766 6.299331665039062 C 23.65165710449219 8.414566040039062 19.15968322753906 11.44333648681641 15.301513671875 15.30150604248047 C 11.44333648681641 19.15967559814453 8.414566040039062 23.65164947509766 6.299339294433594 28.65262222290039 C 4.110054016113281 33.82864761352539 2.999992370605469 39.32870483398438 2.999992370605469 44.99999237060547 C 2.999992370605469 50.67127990722656 4.110054016113281 56.17132186889648 6.299339294433594 61.34736633300781 C 8.414566040039062 66.34833526611328 11.44333648681641 70.84029388427734 15.301513671875 74.69846343994141 C 19.15968322753906 78.55663299560547 23.65165710449219 81.58540344238281 28.65262603759766 83.70063781738281 C 33.82865142822266 85.88992309570312 39.32870864868164 86.99997711181641 44.99999618530273 86.99997711181641 C 50.67128372192383 86.99997711181641 56.17134094238281 85.88992309570312 61.34736633300781 83.70063781738281 C 66.34834289550781 81.58540344238281 70.84030914306641 78.55663299560547 74.69847869873047 74.69846343994141 C 78.55665588378906 70.84029388427734 81.58542633056641 66.34833526611328 83.70065307617188 61.34736633300781 C 85.88993835449219 56.17132186889648 87 50.67127990722656 87 44.99999237060547 C 87 39.32870483398438 85.88993835449219 33.82864761352539 83.70065307617188 28.65262222290039 C 81.58542633056641 23.65164947509766 78.55665588378906 19.15967559814453 74.69847869873047 15.30150604248047 C 70.84030914306641 11.44333648681641 66.34834289550781 8.414566040039062 61.34736633300781 6.299331665039062 C 56.17134094238281 4.11004638671875 50.67128372192383 2.999992370605469 44.99999618530273 2.999992370605469 M 44.99999618530273 -7.62939453125e-06 C 69.85281372070312 -7.62939453125e-06 90 20.14717864990234 90 44.99999237060547 C 90 69.85279083251953 69.85281372070312 89.99997711181641 44.99999618530273 89.99997711181641 C 20.14717864990234 89.99997711181641 -7.62939453125e-06 69.85279083251953 -7.62939453125e-06 44.99999237060547 C -7.62939453125e-06 20.14717864990234 20.14717864990234 -7.62939453125e-06 44.99999618530273 -7.62939453125e-06 Z" stroke="none" fill="#497f88"/>
                          </g>
                        </g>
                      </g>
                    </g>
                  </g>
                </g>
              </g>
            </g>
          </g>
        </g>
      </g>
    </g>
    <g id="layer1" transform="translate(641.968 566.422)">
      <path id="path13551" d="M21.523,284.035a17.548,17.548,0,0,0-8.261,33.034v4.141H29.784v-4.141a17.548,17.548,0,0,0-8.261-33.034Z" transform="translate(9.983 9.992)" fill="#fde74c"/>
      <path id="path13543" d="M6.634,294.883H20.9l-1.945,5.163H8.625Z" transform="translate(17.719 41.482)" fill="#e8ab3c"/>
      <path id="path13547" d="M14.485,285.623l-.718,3.588a8.258,8.258,0,0,0-2.553,1.476l-3.467-1.174-2.065,3.578,2.747,2.414a7.967,7.967,0,0,0,0,2.955l-2.745,2.412,2.065,3.578,3.459-1.17a8.26,8.26,0,0,0,2.561,1.468l.718,3.592h4.131l.718-3.588a8.258,8.258,0,0,0,2.553-1.476l3.467,1.174,2.065-3.578-2.747-2.414a7.967,7.967,0,0,0,0-2.955l2.745-2.412-2.065-3.578-3.459,1.17a8.262,8.262,0,0,0-2.561-1.468l-.718-3.592Zm2.065,8.261a3.1,3.1,0,1,1-3.1,3.1A3.1,3.1,0,0,1,16.551,293.884Z" transform="translate(14.956 14.601)" fill="#33658a"/>
      <path id="path21899" d="M22.872,293.56H6.35v5.163H22.872Z" transform="translate(16.896 37.642)" fill="#ffbc42"/>
      <path id="path7367-1" d="M31.489,280.593a1.031,1.031,0,0,0-1.012,1.043v6.2a1.033,1.033,0,1,0,2.065,0v-6.2A1.031,1.031,0,0,0,31.489,280.593Zm-15,4.01a1.033,1.033,0,0,0-.845,1.563l3.094,5.365a1.033,1.033,0,1,0,1.791-1.029l-3.1-5.367a1.032,1.032,0,0,0-.938-.533Zm30.011,0a1.03,1.03,0,0,0-.914.533l-3.1,5.367a1.033,1.033,0,1,0,1.785,1.029l3.1-5.365A1.033,1.033,0,0,0,46.5,284.6ZM22.213,331.208v5.161A1.032,1.032,0,0,0,23.25,337.4h.393l1.736,4.5a1.033,1.033,0,0,0,.964.662H36.67a1.033,1.033,0,0,0,.958-.649l.413-1.033a1.033,1.033,0,1,0-1.918-.767l-.153.383H27.051l-1.194-3.1h13.91a1.032,1.032,0,0,0,1.029-1.029v-8.7a18.582,18.582,0,1,0-18.035.309,1.033,1.033,0,1,0,.968-1.821,16.526,16.526,0,1,1,15.55,0,1.033,1.033,0,0,0-.541.908v3.11l-15.489,0a1,1,0,0,0-1.037,1.035ZM5.5,295.57a1.033,1.033,0,0,0-.442,1.936l5.367,3.1a1.035,1.035,0,1,0,1.037-1.791l-5.367-3.1A1.035,1.035,0,0,0,5.5,295.57Zm51.888,0a1.028,1.028,0,0,0-.456.145l-5.367,3.1a1.033,1.033,0,1,0,1.029,1.791l5.367-3.1A1.033,1.033,0,0,0,57.383,295.57Zm-27.944,3.622a1.033,1.033,0,1,0,0,2.065h3.285l.557,2.759a1.031,1.031,0,0,0,.662.77,7.25,7.25,0,0,1,2.243,1.289,1.033,1.033,0,0,0,1,.19l2.652-.9,1.22,2.112-2.1,1.854a1.032,1.032,0,0,0-.337.96,7.786,7.786,0,0,1,0,2.583,1.032,1.032,0,0,0,.329.96l2.112,1.853-1.22,2.112-2.66-.9a1.031,1.031,0,0,0-1,.19,7.239,7.239,0,0,1-2.233,1.3,1.031,1.031,0,0,0-.664.768l-.557,2.753h-2.44l-.549-2.759a1.032,1.032,0,0,0-.67-.77,7.244,7.244,0,0,1-2.243-1.289,1.032,1.032,0,0,0-.99-.183l-2.66.9-1.22-2.112,2.112-1.86a1.033,1.033,0,0,0,.337-.96,6.879,6.879,0,0,1,0-2.576,1.034,1.034,0,0,0-.337-.968l-2.112-1.854,1.22-2.112,2.668.9a1.031,1.031,0,0,0,1-.19,7.192,7.192,0,0,1,1.448-.954,1.034,1.034,0,1,0-.922-1.851,9.689,9.689,0,0,0-1.392.863l-2.939-.992a1.032,1.032,0,0,0-1.226.456l-2.067,3.584a1.031,1.031,0,0,0,.214,1.287l2.327,2.045a7.226,7.226,0,0,0,0,2.142L19.956,314.7a1.034,1.034,0,0,0-.214,1.3l2.067,3.576a1.031,1.031,0,0,0,1.226.464l2.932-1a9.006,9.006,0,0,0,1.845,1.063l.611,3.043a1.034,1.034,0,0,0,1.015.831H33.57a1.033,1.033,0,0,0,1.014-.831l.605-3.035a8.97,8.97,0,0,0,1.843-1.071l2.949,1a1.033,1.033,0,0,0,1.22-.464l2.065-3.576a1.034,1.034,0,0,0-.206-1.3l-2.329-2.047a7.863,7.863,0,0,0,0-2.126l2.333-2.055a1.031,1.031,0,0,0,.206-1.287L41.208,303.6a1.031,1.031,0,0,0-1.226-.456l-2.937.988a8.728,8.728,0,0,0-1.843-1.059l-.617-3.047a1.034,1.034,0,0,0-1.015-.831Zm2.065,8.263a4.131,4.131,0,1,0,4.133,4.13A4.148,4.148,0,0,0,31.5,307.456Zm0,2.065a2.066,2.066,0,1,1-2.065,2.065,2.05,2.05,0,0,1,2.065-2.065ZM1.562,310.55a1.033,1.033,0,1,0,0,2.065h6.2a1.033,1.033,0,1,0,0-2.065Zm53.695,0a1.033,1.033,0,1,0,0,2.065h6.2a1.033,1.033,0,1,0,0-2.065ZM10.878,322.419a1.036,1.036,0,0,0-.458.145l-5.367,3.1a1.032,1.032,0,1,0,1.037,1.783l5.367-3.094A1.033,1.033,0,0,0,10.878,322.419Zm41.115,0a1.033,1.033,0,0,0-.434,1.936l5.367,3.094a1.032,1.032,0,1,0,1.029-1.783l-5.367-3.1a1.035,1.035,0,0,0-.595-.145Zm-27.716,9.818H38.739v3.094H24.278Z" transform="translate(0 0)"/>
    </g>
  </g>
</svg>
