<svg xmlns="http://www.w3.org/2000/svg" xmlns:xlink="http://www.w3.org/1999/xlink" width="113" height="113" viewBox="0 0 113 113">
  <defs>
    <filter id="Trazado_982547" x="0" y="0" width="113" height="113" filterUnits="userSpaceOnUse">
      <feOffset dy="3" input="SourceAlpha"/>
      <feGaussianBlur stdDeviation="3" result="blur"/>
      <feFlood flood-opacity="0.161"/>
      <feComposite operator="in" in2="blur"/>
      <feComposite in="SourceGraphic"/>
    </filter>
  </defs>
  <g id="Grupo_1232031" data-name="Grupo 1232031" transform="translate(-127 -8538.411)">
    <g id="Grupo_1231437" data-name="Grupo 1231437" transform="translate(136 8544.411)">
      <g id="Grupo_1230841" data-name="Grupo 1230841">
        <g id="Grupo_1208492" data-name="Grupo 1208492">
          <g id="Grupo_1177675" data-name="Grupo 1177675" transform="translate(0 0)">
            <g id="Grupo_1176928" data-name="Grupo 1176928" transform="translate(0)">
              <g id="Grupo_1172322" data-name="Grupo 1172322" transform="translate(0 0)">
                <g id="Grupo_1164700" data-name="Grupo 1164700">
                  <g id="Grupo_1160931" data-name="Grupo 1160931">
                    <g id="Grupo_1160749" data-name="Grupo 1160749">
                      <g id="Grupo_1158891" data-name="Grupo 1158891">
                        <g id="Grupo_1157406" data-name="Grupo 1157406">
                          <g id="Grupo_1155793" data-name="Grupo 1155793">
                            <g id="Grupo_1154704" data-name="Grupo 1154704">
                              <g id="Grupo_1150790" data-name="Grupo 1150790">
                                <g id="Grupo_1154214" data-name="Grupo 1154214">
                                  <g id="Grupo_1152583" data-name="Grupo 1152583">
                                    <g id="Grupo_1146973" data-name="Grupo 1146973">
                                      <g id="Grupo_1146954" data-name="Grupo 1146954">
                                        <g transform="matrix(1, 0, 0, 1, -9, -6)" filter="url(#Trazado_982547)">
                                          <g id="Trazado_982547-2" data-name="Trazado 982547" transform="translate(9 6)" fill="#fcf8db">
                                            <path d="M 47.5000114440918 93.49987030029297 C 41.28938293457031 93.49987030029297 35.26534652709961 92.28384399414062 29.5951976776123 89.88558959960938 C 24.11773109436035 87.56881713867188 19.19814491271973 84.25183868408203 14.97310447692871 80.02680206298828 C 10.74805164337158 75.80176544189453 7.43107795715332 70.88218688964844 5.114304542541504 65.40472412109375 C 2.716038227081299 59.73458862304688 1.500011444091797 53.71054840087891 1.500011444091797 47.49993515014648 C 1.500011444091797 41.28932189941406 2.716038227081299 35.26528167724609 5.114304542541504 29.59514808654785 C 7.43107795715332 24.1176815032959 10.74805164337158 19.1981086730957 14.97310447692871 14.97306823730469 C 19.19814491271973 10.74802875518799 24.11773109436035 7.431055068969727 29.5951976776123 5.11428165435791 C 35.26534652709961 2.716028451919556 41.28938293457031 1.500001788139343 47.5000114440918 1.500001788139343 C 53.71063995361328 1.500001788139343 59.73467636108398 2.716028451919556 65.40482330322266 5.11428165435791 C 70.88229370117188 7.431055068969727 75.8018798828125 10.74802875518799 80.02691650390625 14.97306823730469 C 84.25196838378906 19.1981086730957 87.56894683837891 24.1176815032959 89.88571929931641 29.59514808654785 C 92.28398132324219 35.26528167724609 93.50001525878906 41.28932189941406 93.50001525878906 47.49993515014648 C 93.50001525878906 53.71054840087891 92.28398132324219 59.73458862304688 89.88571929931641 65.40472412109375 C 87.56894683837891 70.88218688964844 84.25196838378906 75.80176544189453 80.02691650390625 80.02680206298828 C 75.8018798828125 84.25183868408203 70.88229370117188 87.56881713867188 65.40482330322266 89.88558959960938 C 59.73467636108398 92.28384399414062 53.71063995361328 93.49987030029297 47.5000114440918 93.49987030029297 Z" stroke="none"/>
                                            <path d="M 47.5000114440918 3 C 41.49122619628906 3 35.66378021240234 4.1761474609375 30.17951965332031 6.495796203613281 C 24.880859375 8.7369384765625 20.12153625488281 11.94596862792969 16.03376770019531 16.03373718261719 C 11.94598388671875 20.12149047851562 8.736968994140625 24.88081359863281 6.495811462402344 30.17947387695312 C 4.176162719726562 35.66371917724609 3.000007629394531 41.49116516113281 3.000007629394531 47.49993515014648 C 3.000007629394531 53.50870513916016 4.176162719726562 59.33615112304688 6.495811462402344 64.82039642333984 C 8.736968994140625 70.11905670166016 11.94598388671875 74.87837982177734 16.03376770019531 78.96613311767578 C 20.12153625488281 83.05390167236328 24.880859375 86.26293182373047 30.17951965332031 88.50407409667969 C 35.66378021240234 90.82372283935547 41.49122619628906 91.99987030029297 47.5000114440918 91.99987030029297 C 53.50879669189453 91.99987030029297 59.33624267578125 90.82372283935547 64.82050323486328 88.50407409667969 C 70.11916351318359 86.26293182373047 74.87848663330078 83.05390167236328 78.96625518798828 78.96613311767578 C 83.05403900146484 74.87837982177734 86.2630615234375 70.11905670166016 88.50421142578125 64.82039642333984 C 90.82386016845703 59.33615112304688 92.00001525878906 53.50870513916016 92.00001525878906 47.49993515014648 C 92.00001525878906 41.49116516113281 90.82386016845703 35.66371917724609 88.50421142578125 30.17947387695312 C 86.2630615234375 24.88081359863281 83.05403900146484 20.12149047851562 78.96625518798828 16.03373718261719 C 74.87848663330078 11.94596862792969 70.11916351318359 8.7369384765625 64.82050323486328 6.495796203613281 C 59.33624267578125 4.1761474609375 53.50879669189453 3 47.5000114440918 3 M 47.5000114440918 0 C 73.73353576660156 0 95.00001525878906 21.26644134521484 95.00001525878906 47.49993515014648 C 95.00001525878906 73.73342895507812 73.73353576660156 94.99987030029297 47.5000114440918 94.99987030029297 C 21.26648712158203 94.99987030029297 7.62939453125e-06 73.73342895507812 7.62939453125e-06 47.49993515014648 C 7.62939453125e-06 21.26644134521484 21.26648712158203 0 47.5000114440918 0 Z" stroke="none" fill="#83793c"/>
                                          </g>
                                        </g>
                                      </g>
                                    </g>
                                  </g>
                                </g>
                              </g>
                            </g>
                          </g>
                        </g>
                      </g>
                    </g>
                  </g>
                </g>
              </g>
            </g>
          </g>
        </g>
      </g>
    </g>
    <g id="imaginacion_1_" data-name="imaginacion (1)" transform="translate(155.608 8563.494)">
      <g id="Grupo_1232030" data-name="Grupo 1232030" transform="translate(0.839 0.861)">
        <path id="Trazado_1234210" data-name="Trazado 1234210" d="M411.949,16.264a.393.393,0,0,1-.353,0,12.623,12.623,0,0,1-4.339-3.252,3.519,3.519,0,0,1-.243-4.44,2.959,2.959,0,0,1,3.733-.657,2.748,2.748,0,0,1,.725.606.4.4,0,0,0,.6,0,2.75,2.75,0,0,1,.725-.606,2.959,2.959,0,0,1,3.733.657,3.519,3.519,0,0,1-.243,4.44A12.623,12.623,0,0,1,411.949,16.264Z" transform="translate(-362.107 -7.522)" fill="#f58a97"/>
        <g id="Grupo_1232023" data-name="Grupo 1232023" transform="translate(48.002 0)">
          <path id="Trazado_1234211" data-name="Trazado 1234211" d="M446.86,8.571a2.959,2.959,0,0,0-3.733-.657c-.067.038-.13.079-.19.121a2.97,2.97,0,0,1,.6.536,3.519,3.519,0,0,1-.243,4.44,10.453,10.453,0,0,1-2.852,2.429c.495.3,1,.578,1.487.823a.393.393,0,0,0,.353,0,12.623,12.623,0,0,0,4.339-3.252A3.519,3.519,0,0,0,446.86,8.571Z" transform="translate(-440.438 -7.522)" fill="#f07281"/>
        </g>
        <circle id="Elipse_11562" data-name="Elipse 11562" cx="4.751" cy="4.751" r="4.751" transform="translate(0 45.609)" fill="#c9f6b0"/>
        <path id="Trazado_1234212" data-name="Trazado 1234212" d="M37.06,418.832a4.74,4.74,0,0,0-1.663.3,4.752,4.752,0,0,1,0,8.9,4.751,4.751,0,1,0,1.663-9.2Z" transform="translate(-32.309 -373.223)" fill="#ade194"/>
        <g id="Grupo_1232028" data-name="Grupo 1232028" transform="translate(11.204 11.204)">
          <circle id="Elipse_11563" data-name="Elipse 11563" cx="16.351" cy="16.351" r="16.351" transform="translate(0 0)" fill="#eaf6ff"/>
          <path id="Trazado_1234213" data-name="Trazado 1234213" d="M242.715,108.565a16.519,16.519,0,0,0-1.663.084,16.352,16.352,0,0,1,0,32.535,16.553,16.553,0,0,0,1.663.084,16.351,16.351,0,1,0,0-32.7Z" transform="translate(-226.364 -108.565)" fill="#d8ecfe"/>
          <g id="Grupo_1232027" data-name="Grupo 1232027" transform="translate(4.007 6.708)">
            <g id="Grupo_1232026" data-name="Grupo 1232026">
              <g id="Grupo_1232024" data-name="Grupo 1232024" transform="translate(12.344)">
                <path id="Trazado_1234214" data-name="Trazado 1234214" d="M256.052,172.729a3.913,3.913,0,0,1,4.115-3.674,4.092,4.092,0,0,1,3.875,2.475.45.45,0,0,0,.406.292,3.89,3.89,0,0,1,3.948,3.662,3.359,3.359,0,0,1-.549,1.834.444.444,0,0,0-.024.446,4.989,4.989,0,0,1,.573,2.312,5.566,5.566,0,0,1-3.959,5.14.437.437,0,0,0-.278.3,4.037,4.037,0,0,1-3.992,2.824,3.913,3.913,0,0,1-4.115-3.674Z" transform="translate(-256.052 -169.055)" fill="#fdd1d5"/>
                <path id="Trazado_1234215" data-name="Trazado 1234215" d="M287.465,177.318a3.36,3.36,0,0,0,.549-1.834,3.89,3.89,0,0,0-3.948-3.662.451.451,0,0,1-.406-.292,4.092,4.092,0,0,0-3.875-2.475,4.519,4.519,0,0,0-1.668.315,3.879,3.879,0,0,1,2.217,2.16.45.45,0,0,0,.406.292,3.89,3.89,0,0,1,3.948,3.662,3.359,3.359,0,0,1-.549,1.834.444.444,0,0,0-.024.446,4.989,4.989,0,0,1,.573,2.312,5.566,5.566,0,0,1-3.959,5.14.437.437,0,0,0-.278.3,3.815,3.815,0,0,1-2.33,2.509,4.521,4.521,0,0,0,1.665.314,4.037,4.037,0,0,0,3.992-2.824.437.437,0,0,1,.278-.3,5.566,5.566,0,0,0,3.959-5.14,4.991,4.991,0,0,0-.573-2.312.443.443,0,0,1,.024-.446Z" transform="translate(-275.67 -169.055)" fill="#f6b2bb"/>
              </g>
              <g id="Grupo_1232025" data-name="Grupo 1232025">
                <path id="Trazado_1234216" data-name="Trazado 1234216" d="M157.078,172.729a3.913,3.913,0,0,0-4.115-3.674,4.092,4.092,0,0,0-3.875,2.475.45.45,0,0,1-.406.292,3.89,3.89,0,0,0-3.948,3.662,3.36,3.36,0,0,0,.549,1.834.444.444,0,0,1,.024.446,4.989,4.989,0,0,0-.573,2.312,5.566,5.566,0,0,0,3.959,5.14.437.437,0,0,1,.278.3,4.037,4.037,0,0,0,3.992,2.824,3.913,3.913,0,0,0,4.115-3.674Z" transform="translate(-144.734 -169.055)" fill="#fdd1d5"/>
                <path id="Trazado_1234217" data-name="Trazado 1234217" d="M205.62,169.055a4.48,4.48,0,0,0-1.659.315,3.684,3.684,0,0,1,2.447,3.358v11.94a3.684,3.684,0,0,1-2.45,3.36,4.5,4.5,0,0,0,1.662.314,3.913,3.913,0,0,0,4.115-3.674v-11.94A3.913,3.913,0,0,0,205.62,169.055Z" transform="translate(-197.391 -169.055)" fill="#f6b2bb"/>
              </g>
            </g>
          </g>
        </g>
        <path id="Trazado_1234218" data-name="Trazado 1234218" d="M90.365,53.593l1.592.809a.877.877,0,0,0,.816-.011l1.569-.853a.877.877,0,0,1,1.286.907l-.277,1.764a.877.877,0,0,0,.263.773l1.3,1.229a.877.877,0,0,1-.465,1.5l-1.764.282a.877.877,0,0,0-.654.489l-.768,1.612a.877.877,0,0,1-1.573.022l-.813-1.59a.877.877,0,0,0-.667-.47l-1.771-.232a.877.877,0,0,1-.507-1.489l1.261-1.264a.877.877,0,0,0,.241-.78l-.327-1.756A.877.877,0,0,1,90.365,53.593Z" transform="translate(-78.788 -48.338)" fill="#fff0ad"/>
        <g id="Grupo_1232029" data-name="Grupo 1232029" transform="translate(11.734 5.09)">
          <path id="Trazado_1234219" data-name="Trazado 1234219" d="M119.757,58.209l-1.3-1.229a.877.877,0,0,1-.263-.773l.277-1.764a.877.877,0,0,0-1.286-.907l-1.569.853a.876.876,0,0,1-.587.089l-.1.667a1.577,1.577,0,0,0,.473,1.389,1.577,1.577,0,0,1-.836,2.7,1.577,1.577,0,0,0-1.175.879l-.021.045a.877.877,0,0,1,.353.365l.813,1.59a.877.877,0,0,0,1.573-.022l.768-1.612a.877.877,0,0,1,.654-.489l1.764-.282A.877.877,0,0,0,119.757,58.209Z" transform="translate(-113.369 -53.428)" fill="#ffe177"/>
        </g>
        <path id="Trazado_1234220" data-name="Trazado 1234220" d="M448.595,252.847h-5.33a.776.776,0,0,1-.776-.776v-5.33a.776.776,0,0,1,.776-.776h5.33a.776.776,0,0,1,.776.776v5.33A.776.776,0,0,1,448.595,252.847Z" transform="translate(-394.26 -219.525)" fill="#b3dafe"/>
        <path id="Trazado_1234221" data-name="Trazado 1234221" d="M470.879,245.966h-3.327a.776.776,0,0,1,.776.776v5.33a.776.776,0,0,1-.776.776h3.327a.776.776,0,0,0,.776-.776v-5.33A.776.776,0,0,0,470.879,245.966Z" transform="translate(-416.544 -219.526)" fill="#8ac9fe"/>
      </g>
      <path id="Trazado_1234222" data-name="Trazado 1234222" d="M51.053,10.347h0Zm-5.593,1a6.661,6.661,0,0,1,1.692,3.9.832.832,0,0,0,1.649-.217,8.287,8.287,0,0,0-2.165-4.857C44.461,8,40.522,7.344,35.83,8.377a29.6,29.6,0,0,0-7.519,2.857,17.2,17.2,0,0,0-17.1,17.1,29.6,29.6,0,0,0-2.857,7.519c-1.034,4.693-.379,8.631,1.8,10.807a9.246,9.246,0,0,0,6.679,2.276,19.3,19.3,0,0,0,4.128-.479A29.6,29.6,0,0,0,28.478,45.6a17.2,17.2,0,0,0,17.1-17.1,29.6,29.6,0,0,0,2.857-7.519c.135-.611.243-1.219.321-1.807a.832.832,0,1,0-1.649-.22c-.072.542-.172,1.1-.3,1.669a25.861,25.861,0,0,1-1.521,4.648A17.229,17.229,0,0,0,31.54,11.523,25.856,25.856,0,0,1,36.188,10c4.127-.909,7.507-.417,9.273,1.348ZM20.6,46.831c-4.127.909-7.507.418-9.273-1.348S9.071,40.337,9.98,36.21A25.861,25.861,0,0,1,11.5,31.562,17.229,17.229,0,0,0,25.249,45.31,25.859,25.859,0,0,1,20.6,46.831ZM43.914,28.416A15.519,15.519,0,1,1,28.394,12.9,15.537,15.537,0,0,1,43.914,28.416ZM32.383,27.55a.834.834,0,0,0,1.123-.35,3.849,3.849,0,0,0,.217-3.035.832.832,0,0,0-1.577.527,2.2,2.2,0,0,1-.112,1.735A.832.832,0,0,0,32.383,27.55Zm-8.1-9.609a4.968,4.968,0,0,0-4.556,2.781,4.661,4.661,0,0,0-4.5,4.48,4.19,4.19,0,0,0,.567,2.1,5.77,5.77,0,0,0-.567,2.5,6.4,6.4,0,0,0,4.323,5.856,4.881,4.881,0,0,0,4.738,3.242,5.087,5.087,0,0,0,4.114-2.008,5.087,5.087,0,0,0,4.114,2.008,4.882,4.882,0,0,0,4.738-3.242,6.4,6.4,0,0,0,4.323-5.856A5.771,5.771,0,0,0,41,27.3a4.188,4.188,0,0,0,.567-2.1,4.661,4.661,0,0,0-4.5-4.48,4.968,4.968,0,0,0-4.556-2.781,5.087,5.087,0,0,0-4.114,2.008,5.087,5.087,0,0,0-4.114-2.008Zm3.283,16.445a3.09,3.09,0,0,1-3.283,2.842,3.209,3.209,0,0,1-3.206-2.259,2.267,2.267,0,0,1,.992-1.805.832.832,0,0,0-.974-1.348,4.029,4.029,0,0,0-1.508,2.042,4.582,4.582,0,0,1-2.7-4.064,2.976,2.976,0,0,1,1.967-3.132.832.832,0,0,0-.539-1.574,4.546,4.546,0,0,0-1.347.733,2.471,2.471,0,0,1-.081-.619,3.01,3.01,0,0,1,2.7-2.789,3.91,3.91,0,0,0,.853,1.631.832.832,0,0,0,1.254-1.093,2.161,2.161,0,0,1-.548-1.316A3.293,3.293,0,0,1,24.28,19.6a3.09,3.09,0,0,1,3.283,2.842Zm1.663-11.94A3.09,3.09,0,0,1,32.509,19.6a3.3,3.3,0,0,1,3.136,2.029A2.161,2.161,0,0,1,35.1,22.95a.832.832,0,1,0,1.254,1.093,3.91,3.91,0,0,0,.853-1.631,3.01,3.01,0,0,1,2.7,2.789,2.472,2.472,0,0,1-.081.619,4.547,4.547,0,0,0-1.347-.733.832.832,0,0,0-.539,1.574,3.138,3.138,0,0,1,1.967,3.132,4.582,4.582,0,0,1-2.7,4.064A4.03,4.03,0,0,0,35.7,31.816a.832.832,0,1,0-.974,1.348,2.267,2.267,0,0,1,.992,1.806,3.228,3.228,0,0,1-3.206,2.258,3.09,3.09,0,0,1-3.283-2.842ZM55.174,26.47h-.139a29.428,29.428,0,0,0,1.746-9.8,18.184,18.184,0,0,0-2.1-8.733,8.493,8.493,0,0,0,1-1.084A4.358,4.358,0,0,0,55.9,1.373,3.8,3.8,0,0,0,51.116.532,3.516,3.516,0,0,0,50.5.977a3.52,3.52,0,0,0-.612-.445A3.8,3.8,0,0,0,45.7.814a24.31,24.31,0,0,0-13.4.344A42.8,42.8,0,0,0,18.306,8.331L18.5,7.1A1.723,1.723,0,0,0,16,5.329l-1.569.853a.047.047,0,0,1-.042,0l-1.592-.809h0A1.719,1.719,0,0,0,10.339,7.21l.326,1.756a.046.046,0,0,1-.012.041L9.391,10.271a1.719,1.719,0,0,0,.988,2.9l1.77.232a.046.046,0,0,1,.035.024l.122.238A47.1,47.1,0,0,0,2.26,28.982a.832.832,0,1,0,1.549.605A45.224,45.224,0,0,1,13.12,15.223a1.727,1.727,0,0,0,2.942-.247l.768-1.612a.046.046,0,0,1,.034-.025l1.763-.282a1.727,1.727,0,0,0,.906-2.928l-.375-.355A41.213,41.213,0,0,1,32.753,2.759a23.191,23.191,0,0,1,11.811-.53,4.631,4.631,0,0,0,.763,4.626,13.132,13.132,0,0,0,4.628,3.492,1.231,1.231,0,0,0,1.1,0,18.8,18.8,0,0,0,2.306-1.354c2.359,4.546,2.333,10.828-.09,17.477H49.844a1.61,1.61,0,0,0-1.608,1.608v5.33a1.608,1.608,0,0,0,.816,1.4,49.036,49.036,0,0,1-6.408,7.862A44.937,44.937,0,0,1,25.155,53.737c-5.5,1.761-10.682,1.857-14.745.295A5.579,5.579,0,0,0,2.778,46.4c-1.428-3.693-1.487-8.233-.156-13.209a.832.832,0,0,0-1.607-.43C-.467,38.305-.32,43.386,1.431,47.5A5.579,5.579,0,0,0,9.309,55.38c4.921,2.057,10.954,1.671,16.354-.059A45.975,45.975,0,0,0,43.82,43.842a50.443,50.443,0,0,0,7.071-8.827h4.282a1.61,1.61,0,0,0,1.608-1.608v-5.33a1.61,1.61,0,0,0-1.608-1.608ZM18.365,11.413,16.6,11.7a1.708,1.708,0,0,0-1.273.953L14.56,14.26a.047.047,0,0,1-.081,0c-.223-.443-.593-1.16-.813-1.59a1.709,1.709,0,0,0-1.3-.917L10.6,11.522a.047.047,0,0,1-.026-.077l1.261-1.264a1.709,1.709,0,0,0,.47-1.519l-.326-1.756a.051.051,0,0,1,.044-.056.047.047,0,0,1,.021.007l1.592.809a1.709,1.709,0,0,0,1.59-.022l1.569-.853a.047.047,0,0,1,.067.047L16.58,8.6a1.708,1.708,0,0,0,.513,1.506l1.3,1.228a.047.047,0,0,1-.024.078ZM50.5,8.76A11.27,11.27,0,0,1,46.65,5.847c-1.133-1.489-1.066-4.154,1.358-4.154a2.122,2.122,0,0,1,1.057.281,1.918,1.918,0,0,1,.506.424,1.228,1.228,0,0,0,1.867,0,1.915,1.915,0,0,1,.506-.424,2.132,2.132,0,0,1,2.685.473,2.727,2.727,0,0,1-.271,3.4A11.274,11.274,0,0,1,50.5,8.76ZM5.59,55.14a3.919,3.919,0,1,1,3.919-3.919A3.924,3.924,0,0,1,5.59,55.14ZM55.118,33.352H49.9V28.133h5.219ZM33.352,34.687a.832.832,0,0,0,.341-1.126,2.2,2.2,0,0,1-.182-1.729.832.832,0,1,0-1.582-.515,3.849,3.849,0,0,0,.3,3.029.833.833,0,0,0,1.126.341Zm-9.542-3.9a.832.832,0,0,0-.534,1.048,2.2,2.2,0,0,1-.182,1.729.832.832,0,1,0,1.467.785,3.849,3.849,0,0,0,.3-3.029.832.832,0,0,0-1.048-.534Zm.6-3.233a.832.832,0,0,0,.35-1.123,2.2,2.2,0,0,1-.112-1.735.832.832,0,0,0-1.577-.527,3.849,3.849,0,0,0,.217,3.035.833.833,0,0,0,1.123.35Z" transform="translate(0 0)"/>
    </g>
  </g>
</svg>
