<svg xmlns="http://www.w3.org/2000/svg" xmlns:xlink="http://www.w3.org/1999/xlink" width="113" height="113" viewBox="0 0 113 113">
  <defs>
    <filter id="Trazado_982547" x="0" y="0" width="113" height="113" filterUnits="userSpaceOnUse">
      <feOffset dy="3" input="SourceAlpha"/>
      <feGaussianBlur stdDeviation="3" result="blur"/>
      <feFlood flood-opacity="0.161"/>
      <feComposite operator="in" in2="blur"/>
      <feComposite in="SourceGraphic"/>
    </filter>
  </defs>
  <g id="Grupo_1232032" data-name="Grupo 1232032" transform="translate(-442 -8538.411)">
    <g id="Grupo_1231438" data-name="Grupo 1231438" transform="translate(451 8544.411)">
      <g id="Grupo_1230842" data-name="Grupo 1230842">
        <g id="Grupo_1209049" data-name="Grupo 1209049">
          <g id="Grupo_1208493" data-name="Grupo 1208493">
            <g id="Grupo_1202104" data-name="Grupo 1202104">
              <g id="Grupo_1201923" data-name="Grupo 1201923" transform="translate(0 0)">
                <g id="Grupo_1176928" data-name="Grupo 1176928" transform="translate(0)">
                  <g id="Grupo_1172322" data-name="Grupo 1172322" transform="translate(0 0)">
                    <g id="Grupo_1164700" data-name="Grupo 1164700">
                      <g id="Grupo_1160931" data-name="Grupo 1160931">
                        <g id="Grupo_1160749" data-name="Grupo 1160749">
                          <g id="Grupo_1158891" data-name="Grupo 1158891">
                            <g id="Grupo_1157406" data-name="Grupo 1157406">
                              <g id="Grupo_1155793" data-name="Grupo 1155793">
                                <g id="Grupo_1154704" data-name="Grupo 1154704">
                                  <g id="Grupo_1150790" data-name="Grupo 1150790">
                                    <g id="Grupo_1154214" data-name="Grupo 1154214">
                                      <g id="Grupo_1152583" data-name="Grupo 1152583">
                                        <g id="Grupo_1146973" data-name="Grupo 1146973">
                                          <g id="Grupo_1146954" data-name="Grupo 1146954">
                                            <g transform="matrix(1, 0, 0, 1, -9, -6)" filter="url(#Trazado_982547)">
                                              <g id="Trazado_982547-2" data-name="Trazado 982547" transform="translate(9 6)" fill="#fcf8db">
                                                <path d="M 47.5000114440918 93.49987030029297 C 41.28938293457031 93.49987030029297 35.26534652709961 92.28384399414062 29.5951976776123 89.88558959960938 C 24.11773109436035 87.56881713867188 19.19814491271973 84.25183868408203 14.97310447692871 80.02680206298828 C 10.74805164337158 75.80176544189453 7.43107795715332 70.88218688964844 5.114304542541504 65.40472412109375 C 2.716038227081299 59.73458862304688 1.500011444091797 53.71054840087891 1.500011444091797 47.49993515014648 C 1.500011444091797 41.28932189941406 2.716038227081299 35.26528167724609 5.114304542541504 29.59514808654785 C 7.43107795715332 24.1176815032959 10.74805164337158 19.1981086730957 14.97310447692871 14.97306823730469 C 19.19814491271973 10.74802875518799 24.11773109436035 7.431055068969727 29.5951976776123 5.11428165435791 C 35.26534652709961 2.716028451919556 41.28938293457031 1.500001788139343 47.5000114440918 1.500001788139343 C 53.71063995361328 1.500001788139343 59.73467636108398 2.716028451919556 65.40482330322266 5.11428165435791 C 70.88229370117188 7.431055068969727 75.8018798828125 10.74802875518799 80.02691650390625 14.97306823730469 C 84.25196838378906 19.1981086730957 87.56894683837891 24.1176815032959 89.88571929931641 29.59514808654785 C 92.28398132324219 35.26528167724609 93.50001525878906 41.28932189941406 93.50001525878906 47.49993515014648 C 93.50001525878906 53.71054840087891 92.28398132324219 59.73458862304688 89.88571929931641 65.40472412109375 C 87.56894683837891 70.88218688964844 84.25196838378906 75.80176544189453 80.02691650390625 80.02680206298828 C 75.8018798828125 84.25183868408203 70.88229370117188 87.56881713867188 65.40482330322266 89.88558959960938 C 59.73467636108398 92.28384399414062 53.71063995361328 93.49987030029297 47.5000114440918 93.49987030029297 Z" stroke="none"/>
                                                <path d="M 47.5000114440918 3 C 41.49122619628906 3 35.66378021240234 4.1761474609375 30.17951965332031 6.495796203613281 C 24.880859375 8.7369384765625 20.12153625488281 11.94596862792969 16.03376770019531 16.03373718261719 C 11.94598388671875 20.12149047851562 8.736968994140625 24.88081359863281 6.495811462402344 30.17947387695312 C 4.176162719726562 35.66371917724609 3.000007629394531 41.49116516113281 3.000007629394531 47.49993515014648 C 3.000007629394531 53.50870513916016 4.176162719726562 59.33615112304688 6.495811462402344 64.82039642333984 C 8.736968994140625 70.11905670166016 11.94598388671875 74.87837982177734 16.03376770019531 78.96613311767578 C 20.12153625488281 83.05390167236328 24.880859375 86.26293182373047 30.17951965332031 88.50407409667969 C 35.66378021240234 90.82372283935547 41.49122619628906 91.99987030029297 47.5000114440918 91.99987030029297 C 53.50879669189453 91.99987030029297 59.33624267578125 90.82372283935547 64.82050323486328 88.50407409667969 C 70.11916351318359 86.26293182373047 74.87848663330078 83.05390167236328 78.96625518798828 78.96613311767578 C 83.05403900146484 74.87837982177734 86.2630615234375 70.11905670166016 88.50421142578125 64.82039642333984 C 90.82386016845703 59.33615112304688 92.00001525878906 53.50870513916016 92.00001525878906 47.49993515014648 C 92.00001525878906 41.49116516113281 90.82386016845703 35.66371917724609 88.50421142578125 30.17947387695312 C 86.2630615234375 24.88081359863281 83.05403900146484 20.12149047851562 78.96625518798828 16.03373718261719 C 74.87848663330078 11.94596862792969 70.11916351318359 8.7369384765625 64.82050323486328 6.495796203613281 C 59.33624267578125 4.1761474609375 53.50879669189453 3 47.5000114440918 3 M 47.5000114440918 0 C 73.73353576660156 0 95.00001525878906 21.26644134521484 95.00001525878906 47.49993515014648 C 95.00001525878906 73.73342895507812 73.73353576660156 94.99987030029297 47.5000114440918 94.99987030029297 C 21.26648712158203 94.99987030029297 7.62939453125e-06 73.73342895507812 7.62939453125e-06 47.49993515014648 C 7.62939453125e-06 21.26644134521484 21.26648712158203 0 47.5000114440918 0 Z" stroke="none" fill="#83793c"/>
                                              </g>
                                            </g>
                                          </g>
                                        </g>
                                      </g>
                                    </g>
                                  </g>
                                </g>
                              </g>
                            </g>
                          </g>
                        </g>
                      </g>
                    </g>
                  </g>
                </g>
              </g>
            </g>
          </g>
        </g>
      </g>
    </g>
    <g id="construccion_1_" data-name="construccion (1)" transform="translate(468.563 8558)">
      <path id="Trazado_1234223" data-name="Trazado 1234223" d="M116.056,181.241v-3.185a.521.521,0,0,1,.472-.557h5.606a.525.525,0,0,1,.472.557v3.185" transform="translate(-100.152 -153.174)" fill="#2a8ee6"/>
      <path id="Trazado_1234224" data-name="Trazado 1234224" d="M116.712,176.285a.936.936,0,0,1-.936-.936v-2.807H111.1v2.807a.936.936,0,0,1-1.871,0v-3.185a1.453,1.453,0,0,1,1.407-1.493h5.606a1.453,1.453,0,0,1,1.407,1.493v3.185A.935.935,0,0,1,116.712,176.285Z" transform="translate(-94.259 -147.283)"/>
      <path id="Trazado_1234225" data-name="Trazado 1234225" d="M40.962,181.241v-3.185a.521.521,0,0,1,.472-.557h5.606a.525.525,0,0,1,.472.557v3.185" transform="translate(-35.349 -153.174)" fill="#2a8ee6"/>
      <path id="Trazado_1234226" data-name="Trazado 1234226" d="M41.619,176.285a.936.936,0,0,1-.936-.936v-2.807H36.006v2.807a.936.936,0,0,1-1.871,0v-3.185a1.453,1.453,0,0,1,1.407-1.493h5.606a1.453,1.453,0,0,1,1.407,1.493v3.185A.936.936,0,0,1,41.619,176.285Z" transform="translate(-29.457 -147.283)"/>
      <path id="Trazado_1234227" data-name="Trazado 1234227" d="M197.975,181.241v-3.185a.521.521,0,0,1,.472-.557h5.606a.525.525,0,0,1,.472.557v3.185" transform="translate(-170.844 -153.174)" fill="#2a8ee6"/>
      <path id="Trazado_1234228" data-name="Trazado 1234228" d="M198.632,176.285a.936.936,0,0,1-.936-.936v-2.807h-4.678v2.807a.936.936,0,0,1-1.871,0v-3.185a1.453,1.453,0,0,1,1.407-1.493h5.606a1.453,1.453,0,0,1,1.407,1.493v3.185A.936.936,0,0,1,198.632,176.285Z" transform="translate(-164.953 -147.283)"/>
      <path id="Trazado_1234229" data-name="Trazado 1234229" d="M354.989,304.121v-3.185a.521.521,0,0,1,.472-.557h5.606a.525.525,0,0,1,.472.557v3.185" transform="translate(-306.341 -259.214)" fill="#fbad4a"/>
      <path id="Trazado_1234230" data-name="Trazado 1234230" d="M355.645,299.165a.936.936,0,0,1-.936-.936v-2.807h-4.678v2.807a.936.936,0,1,1-1.871,0v-3.185a1.453,1.453,0,0,1,1.407-1.493h5.606a1.454,1.454,0,0,1,1.407,1.493v3.185A.936.936,0,0,1,355.645,299.165Z" transform="translate(-300.449 -253.323)"/>
      <path id="Trazado_1234231" data-name="Trazado 1234231" d="M164.693,327.685h34.785a.854.854,0,0,1,.85.856v12.321a.855.855,0,0,1-.85.856H164.693a.855.855,0,0,1-.85-.856V328.541a.854.854,0,0,1,.85-.856Z" transform="translate(-141.39 -282.778)" fill="#feda4f"/>
      <path id="Trazado_1234232" data-name="Trazado 1234232" d="M193.585,336.763H158.8a1.791,1.791,0,0,1-1.786-1.792V322.651a1.791,1.791,0,0,1,1.786-1.792h34.785a1.791,1.791,0,0,1,1.786,1.792v12.321A1.791,1.791,0,0,1,193.585,336.763Zm-34.7-1.871H193.5V322.73H158.885v12.162Zm34.7-12.162h0Z" transform="translate(-135.497 -276.888)"/>
      <path id="Trazado_1234233" data-name="Trazado 1234233" d="M7.679,204.8H42.465a.855.855,0,0,1,.85.856v12.321a.855.855,0,0,1-.85.856H7.679a.855.855,0,0,1-.85-.856V205.661a.855.855,0,0,1,.85-.856Z" transform="translate(-5.893 -176.738)" fill="#2bbbe9"/>
      <path id="Trazado_1234234" data-name="Trazado 1234234" d="M36.571,213.883H1.786A1.791,1.791,0,0,1,0,212.092V199.771a1.791,1.791,0,0,1,1.786-1.792H36.571a1.791,1.791,0,0,1,1.786,1.792v12.321A1.79,1.79,0,0,1,36.571,213.883Zm-34.7-1.871H36.486V199.85H1.871v12.162Zm34.7-12.162h0Z" transform="translate(0 -170.847)"/>
      <path id="Trazado_1234235" data-name="Trazado 1234235" d="M7.655,327.685H23.774a.845.845,0,0,1,.828.856v12.321a.847.847,0,0,1-.828.856H7.655a.846.846,0,0,1-.828-.856V328.541a.844.844,0,0,1,.828-.856Z" transform="translate(-5.891 -282.778)" fill="#fbad4a"/>
      <path id="Trazado_1234236" data-name="Trazado 1234236" d="M17.884,336.763H1.766A1.78,1.78,0,0,1,0,334.971V322.651a1.78,1.78,0,0,1,1.764-1.792H17.884a1.78,1.78,0,0,1,1.764,1.792v12.321A1.78,1.78,0,0,1,17.884,336.763ZM1.873,334.892h15.9V322.73H1.873ZM17.884,322.73h0Z" transform="translate(-0.002 -276.888)"/>
      <path id="Trazado_1234237" data-name="Trazado 1234237" d="M299.509,50.841l1.54-2.757a.509.509,0,0,1,.692-.231l5.024,3a.55.55,0,0,1,.153.734l-1.541,2.756" transform="translate(-258.464 -41.242)" fill="#ed5481"/>
      <path id="Trazado_1234238" data-name="Trazado 1234238" d="M299.481,49.381a.936.936,0,0,1-.816-1.392l1.367-2.445L295.772,43l-1.34,2.4a.935.935,0,1,1-1.634-.912l1.54-2.757a1.506,1.506,0,0,1,.916-.722,1.375,1.375,0,0,1,1.07.144l5.025,3a1.488,1.488,0,0,1,.491,1.992L300.3,48.9A.935.935,0,0,1,299.481,49.381Z" transform="translate(-252.57 -35.347)"/>
      <path id="Trazado_1234239" data-name="Trazado 1234239" d="M231.24,9.879l1.541-2.756a.508.508,0,0,1,.692-.23l5.023,3a.548.548,0,0,1,.153.733l-1.54,2.757" transform="translate(-199.551 -5.894)" fill="#ed5481"/>
      <path id="Trazado_1234240" data-name="Trazado 1234240" d="M231.216,8.421a.936.936,0,0,1-.816-1.392l1.366-2.445-4.259-2.542-1.34,2.4a.935.935,0,1,1-1.633-.913l1.54-2.756a1.511,1.511,0,0,1,.918-.723,1.375,1.375,0,0,1,1.069.145l5.023,3a1.483,1.483,0,0,1,.49,1.992l-1.541,2.758A.936.936,0,0,1,231.216,8.421Zm.91-3.622h0Z" transform="translate(-193.66 0)"/>
      <path id="Trazado_1234241" data-name="Trazado 1234241" d="M367.775,91.8l1.539-2.757a.509.509,0,0,1,.692-.23l5.023,3a.548.548,0,0,1,.153.735l-1.54,2.756" transform="translate(-317.375 -76.588)" fill="#ed5481"/>
      <path id="Trazado_1234242" data-name="Trazado 1234242" d="M367.749,90.344a.936.936,0,0,1-.816-1.392l1.366-2.445-4.26-2.542-1.34,2.4a.935.935,0,1,1-1.634-.912l1.54-2.757a1.51,1.51,0,0,1,.917-.722,1.377,1.377,0,0,1,1.07.144l5.024,3a1.484,1.484,0,0,1,.49,1.995l-1.539,2.755A.934.934,0,0,1,367.749,90.344Z" transform="translate(-311.482 -70.696)"/>
      <path id="Trazado_1234243" data-name="Trazado 1234243" d="M164.307,20.6l29.711,16.989a.828.828,0,0,1,.306,1.135l-6.034,10.351a.846.846,0,0,1-1.145.3l-29.711-16.99a.827.827,0,0,1-.307-1.134L163.162,20.9a.844.844,0,0,1,1.145-.3Z" transform="translate(-135.498 -17.678)" fill="#f87ea1"/>
      <path id="Trazado_1234244" data-name="Trazado 1234244" d="M181.664,44.532a1.765,1.765,0,0,1-.877-.233L151.074,27.309a1.762,1.762,0,0,1-.649-2.42l6.032-10.349a1.781,1.781,0,0,1,2.419-.644l29.71,16.989a1.764,1.764,0,0,1,.65,2.419L183.2,43.653A1.779,1.779,0,0,1,181.664,44.532ZM152.1,25.738l29.538,16.892,5.931-10.174L158.026,15.564Zm35.562,6.77h0ZM152.04,25.833Zm5.906-10.315h0Z" transform="translate(-129.602 -11.788)"/>
    </g>
  </g>
</svg>
