<svg xmlns="http://www.w3.org/2000/svg" xmlns:xlink="http://www.w3.org/1999/xlink" width="98" height="98" viewBox="0 0 98 98">
  <defs>
    <filter id="Trazado_982547" x="0" y="0" width="98" height="98" filterUnits="userSpaceOnUse">
      <feOffset dy="3" input="SourceAlpha"/>
      <feGaussianBlur stdDeviation="3" result="blur"/>
      <feFlood flood-opacity="0.161"/>
      <feComposite operator="in" in2="blur"/>
      <feComposite in="SourceGraphic"/>
    </filter>
    <clipPath id="clip-path">
      <path id="path8121" d="M0-682.665H48.414v48.414H0Z" transform="translate(0 682.665)"/>
    </clipPath>
  </defs>
  <g id="Grupo_1232034" data-name="Grupo 1232034" transform="translate(-195.151 -9238)">
    <g id="Grupo_1231440" data-name="Grupo 1231440" transform="translate(0 6946)">
      <g id="Grupo_1229590" data-name="Grupo 1229590" transform="translate(204.151 2298)">
        <g id="Grupo_1208936" data-name="Grupo 1208936" transform="translate(0)">
          <g id="Grupo_1208171" data-name="Grupo 1208171">
            <g id="Grupo_1207739" data-name="Grupo 1207739">
              <g id="Grupo_1207712" data-name="Grupo 1207712">
                <g id="Grupo_1207285" data-name="Grupo 1207285">
                  <g id="Grupo_1206883" data-name="Grupo 1206883">
                    <g id="Grupo_1204569" data-name="Grupo 1204569">
                      <g id="Grupo_1203962" data-name="Grupo 1203962">
                        <g id="Grupo_1203498" data-name="Grupo 1203498">
                          <g id="Grupo_1202589" data-name="Grupo 1202589">
                            <g id="Grupo_1172010" data-name="Grupo 1172010">
                              <g id="Grupo_1171046" data-name="Grupo 1171046">
                                <g id="Grupo_1148525" data-name="Grupo 1148525">
                                  <g transform="matrix(1, 0, 0, 1, -9, -6)" filter="url(#Trazado_982547)">
                                    <g id="Trazado_982547-2" data-name="Trazado 982547" transform="translate(9 6)" fill="#fdfbec">
                                      <path d="M 39.99999237060547 78.49998474121094 C 34.8018684387207 78.49998474121094 29.76002502441406 77.48226165771484 25.0145263671875 75.47508239746094 C 20.43014717102051 73.53604888916016 16.31264877319336 70.75984954833984 12.77639198303223 67.22359466552734 C 9.240137100219727 63.68733596801758 6.463936805725098 59.5698356628418 4.524903297424316 54.98546981811523 C 2.517725706100464 50.23995971679688 1.500003457069397 45.19811630249023 1.500003457069397 39.99999237060547 C 1.500003457069397 34.8018684387207 2.517725706100464 29.76002502441406 4.524903297424316 25.0145263671875 C 6.463936805725098 20.43014717102051 9.240137100219727 16.31264877319336 12.77639198303223 12.77639198303223 C 16.31264877319336 9.240137100219727 20.43014717102051 6.463936805725098 25.0145263671875 4.524903297424316 C 29.76002502441406 2.517725706100464 34.8018684387207 1.500003457069397 39.99999237060547 1.500003457069397 C 45.19811630249023 1.500003457069397 50.23995971679688 2.517725706100464 54.98546981811523 4.524903297424316 C 59.5698356628418 6.463936805725098 63.68733596801758 9.240137100219727 67.22359466552734 12.77639198303223 C 70.75984954833984 16.31264877319336 73.53604888916016 20.43014717102051 75.47508239746094 25.0145263671875 C 77.48226165771484 29.76002502441406 78.49998474121094 34.8018684387207 78.49998474121094 39.99999237060547 C 78.49998474121094 45.19812393188477 77.48226165771484 50.23995971679688 75.47508239746094 54.98546981811523 C 73.53604888916016 59.5698356628418 70.75984954833984 63.68733596801758 67.22359466552734 67.22359466552734 C 63.68733596801758 70.75984954833984 59.5698356628418 73.53604888916016 54.98546981811523 75.47508239746094 C 50.23995971679688 77.48226165771484 45.19812393188477 78.49998474121094 39.99999237060547 78.49998474121094 Z" stroke="none"/>
                                      <path d="M 39.99999237060547 2.999992370605469 C 35.00370025634766 2.999992370605469 30.1584587097168 3.97784423828125 25.59884643554688 5.906402587890625 C 21.19327163696289 7.769805908203125 17.23603057861328 10.43805694580078 13.83704376220703 13.83704376220703 C 10.43805694580078 17.23603057861328 7.769805908203125 21.19327163696289 5.906402587890625 25.59884643554688 C 3.97784423828125 30.1584587097168 2.999992370605469 35.00370025634766 2.999992370605469 39.99999237060547 C 2.999992370605469 44.99628448486328 3.97784423828125 49.84152603149414 5.906402587890625 54.40113830566406 C 7.769805908203125 58.80671310424805 10.43805694580078 62.76395416259766 13.83704376220703 66.16294097900391 C 17.23603057861328 69.56191253662109 21.19327163696289 72.23016357421875 25.59884643554688 74.09356689453125 C 30.1584587097168 76.02212524414062 35.00370025634766 76.99997711181641 39.99999237060547 76.99997711181641 C 44.99628448486328 76.99997711181641 49.84152603149414 76.02212524414062 54.40113830566406 74.09356689453125 C 58.80671310424805 72.23016357421875 62.76395416259766 69.56191253662109 66.16294097900391 66.16294097900391 C 69.56191253662109 62.76395416259766 72.23016357421875 58.80671310424805 74.09356689453125 54.40113830566406 C 76.02212524414062 49.84152603149414 76.99997711181641 44.99628448486328 76.99997711181641 39.99999237060547 C 76.99997711181641 35.00370025634766 76.02212524414062 30.1584587097168 74.09356689453125 25.59884643554688 C 72.23016357421875 21.19327163696289 69.56191253662109 17.23603057861328 66.16294097900391 13.83704376220703 C 62.76395416259766 10.43805694580078 58.80671310424805 7.769805908203125 54.40113830566406 5.906402587890625 C 49.84152603149414 3.97784423828125 44.99628448486328 2.999992370605469 39.99999237060547 2.999992370605469 M 39.99999237060547 -7.62939453125e-06 C 62.09137725830078 -7.62939453125e-06 79.99997711181641 17.90860748291016 79.99997711181641 39.99999237060547 C 79.99997711181641 62.09137725830078 62.09137725830078 79.99997711181641 39.99999237060547 79.99997711181641 C 17.90860748291016 79.99997711181641 -7.62939453125e-06 62.09137725830078 -7.62939453125e-06 39.99999237060547 C -7.62939453125e-06 17.90860748291016 17.90860748291016 -7.62939453125e-06 39.99999237060547 -7.62939453125e-06 Z" stroke="none" fill="#83793c"/>
                                    </g>
                                  </g>
                                </g>
                              </g>
                            </g>
                          </g>
                        </g>
                      </g>
                    </g>
                  </g>
                </g>
                <g id="g8115" transform="translate(15.793 15.793)">
                  <g id="g8117">
                    <g id="g8119" clip-path="url(#clip-path)">
                      <g id="g8125" transform="translate(-33.259 0.709)">
                        <path id="path8127" d="M-338.457-377.826h-25.835v-25.108c5.31-7.679,37.755-5.416,25.835,25.108" transform="translate(364.292 406.667)" fill="#fbdf63"/>
                      </g>
                      <g id="g8129" transform="translate(-33.259 0.709)">
                        <path id="path8131" d="M-338.457-377.826h-.619c6.164-24.728-15.887-30.6-25.216-24.374v-.734c5.31-7.679,37.755-5.416,25.835,25.108" transform="translate(364.292 406.667)" fill="#f9d11f"/>
                      </g>
                    </g>
                  </g>
                  <g id="g8265">
                    <g id="g8267" clip-path="url(#clip-path)">
                      <g id="g8273" transform="translate(-33.259 51.036)">
                        <path id="path8275" d="M-338.457-377.654h-25.835v-25.1c5.31-7.676,37.755-5.413,25.835,25.1" transform="translate(364.292 406.481)" fill="#003343"/>
                      </g>
                      <g id="g8277" transform="translate(-33.259 51.036)">
                        <path id="path8279" d="M-338.457-377.654h-.619c6.164-24.717-15.887-30.585-25.216-24.362v-.734c5.31-7.676,37.755-5.413,25.835,25.1" transform="translate(364.292 406.481)" fill="#002439"/>
                      </g>
                    </g>
                  </g>
                  <g id="g8281">
                    <g id="g8283" clip-path="url(#clip-path)">
                      <g id="g8289" transform="translate(17.066 51.014)">
                        <path id="path8291" d="M-338.457-377.826h-25.835v-25.108c5.31-7.679,37.755-5.416,25.835,25.108" transform="translate(364.292 406.667)" fill="#ff7e50"/>
                      </g>
                      <g id="g8293" transform="translate(17.066 51.014)">
                        <path id="path8295" d="M-338.457-377.826h-.619c6.164-24.728-15.887-30.6-25.216-24.374v-.734c5.31-7.679,37.755-5.416,25.835,25.108" transform="translate(364.292 406.667)" fill="#ff6247"/>
                      </g>
                      <g id="g8297" transform="translate(2.941 54.225)">
                        <path id="path8299" d="M-233.028-131.751v15.573h-14.6c-12.2-25.649,14.6-34.273,14.6-15.573" transform="translate(250.816 141.808)" fill="#ffa68a"/>
                      </g>
                      <g id="g8301" transform="translate(2.941 54.225)">
                        <path id="path8303" d="M-233.028-131.751c-.9-16.1-20.23-9.82-14.176,15.573h-.427c-12.2-25.649,14.6-34.273,14.6-15.573" transform="translate(250.816 141.808)" fill="#ff7e50"/>
                      </g>
                    </g>
                  </g>
                </g>
              </g>
            </g>
          </g>
        </g>
      </g>
    </g>
    <g id="creative_8790197" transform="translate(215.616 9259.379)">
      <path id="Trazado_1248634" data-name="Trazado 1248634" d="M30.3,18.915A11.407,11.407,0,1,0,13.191,28.8V34.47H24.6V28.8A11.407,11.407,0,0,0,30.3,18.915Z" transform="translate(-6.722 -6.739)" fill="#ee9e2c"/>
      <path id="Trazado_1248635" data-name="Trazado 1248635" d="M232.87,266.7v14.962a2.2,2.2,0,0,0,2.2,2.2h7.482v4.112a1.409,1.409,0,0,0,2.289,1.1l6.515-5.212h7.482a2.2,2.2,0,0,0,2.2-2.2V266.7a2.2,2.2,0,0,0-2.2-2.2H235.071A2.2,2.2,0,0,0,232.87,266.7Z" transform="translate(-208.733 -237.08)" fill="#9ad63c"/>
      <circle id="Elipse_11586" data-name="Elipse 11586" cx="7.259" cy="7.259" r="7.259" transform="translate(4.914 4.917)" fill="#f5eeec"/>
      <path id="Trazado_1248636" data-name="Trazado 1248636" d="M82.5,267.5h7.259v4.148H82.5Z" transform="translate(-73.957 -239.769)" fill="#838fff"/>
      <ellipse id="Elipse_11587" data-name="Elipse 11587" cx="3.889" cy="4.667" rx="3.889" ry="4.667" transform="translate(29.536 3.361)" fill="#838fff"/>
      <ellipse id="Elipse_11588" data-name="Elipse 11588" cx="5.185" cy="6.222" rx="5.185" ry="6.222" transform="translate(36.536 8.546)" fill="#838fff"/>
      <ellipse id="Elipse_11589" data-name="Elipse 11589" cx="4.407" cy="5.185" rx="4.407" ry="5.185" transform="translate(7.766 36.753)" fill="#f5eeec"/>
      <g id="Grupo_1232363" data-name="Grupo 1232363" transform="translate(-0.013 -0.01)">
        <path id="Trazado_1248637" data-name="Trazado 1248637" d="M252.116,257H228.348a2.981,2.981,0,0,0-2.978,2.978V274.94a2.981,2.981,0,0,0,2.978,2.978h6.7v3.334a2.188,2.188,0,0,0,3.553,1.709l6.3-5.041h7.209a2.981,2.981,0,0,0,2.978-2.98V259.978A2.981,2.981,0,0,0,252.116,257Zm1.423,17.94a1.425,1.425,0,0,1-1.423,1.423H240.552a.778.778,0,0,0,0,1.556h1.867l-4.784,3.827a.63.63,0,0,1-1.025-.493v-4.11a.778.778,0,0,0-.778-.778h-7.484a1.425,1.425,0,0,1-1.423-1.425V259.978a1.425,1.425,0,0,1,1.423-1.423h23.767a1.425,1.425,0,0,1,1.423,1.423Z" transform="translate(-201.997 -230.348)" fill="#0b0a0a"/>
        <path id="Trazado_1248638" data-name="Trazado 1248638" d="M290.634,395.37H271.968a.778.778,0,0,0,0,1.556h18.666a.778.778,0,1,0,0-1.556Z" transform="translate(-243.066 -354.368)" fill="#0b0a0a"/>
        <path id="Trazado_1248639" data-name="Trazado 1248639" d="M335.449,305.37H321.968a.778.778,0,1,0,0,1.556h13.481a.778.778,0,1,0,0-1.556Z" transform="translate(-287.881 -273.702)" fill="#0b0a0a"/>
        <path id="Trazado_1248640" data-name="Trazado 1248640" d="M271.968,306.926h2.074a.778.778,0,1,0,0-1.556h-2.074a.778.778,0,0,0,0,1.556Z" transform="translate(-243.066 -273.702)" fill="#0b0a0a"/>
        <path id="Trazado_1248641" data-name="Trazado 1248641" d="M290.634,350.37H271.968a.778.778,0,0,0,0,1.556h18.666a.778.778,0,1,0,0-1.556Z" transform="translate(-243.066 -314.035)" fill="#0b0a0a"/>
        <path id="Trazado_1248642" data-name="Trazado 1248642" d="M56.074,48.037a8.037,8.037,0,1,0-8.037,8.037,8.037,8.037,0,0,0,8.037-8.037Zm-8.037,6.481a6.481,6.481,0,1,1,6.481-6.481A6.481,6.481,0,0,1,48.037,54.518Z" transform="translate(-35.851 -35.851)" fill="#0b0a0a"/>
        <path id="Trazado_1248643" data-name="Trazado 1248643" d="M24.358,12.176A12.185,12.185,0,1,0,5.692,22.494v4.459H4.914a.778.778,0,1,0,0,1.556H7.766v3.37a.778.778,0,0,0,.778.778H15.8a.778.778,0,0,0,.778-.778v-3.37h2.852a.778.778,0,1,0,0-1.556h-.778V22.494A12.237,12.237,0,0,0,24.358,12.176ZM15.025,31.1h-5.7V28.509h5.7ZM7.247,26.953v-4.9a.778.778,0,0,0-.388-.673,10.629,10.629,0,1,1,10.627,0,.778.778,0,0,0-.388.673v4.9Z" transform="translate(0.013 0.01)" fill="#0b0a0a"/>
        <path id="Trazado_1248644" data-name="Trazado 1248644" d="M86.024,87.75l-3.685,4.037-1.4-1.52A.778.778,0,1,0,79.8,91.316l1.963,2.151a.779.779,0,0,0,1.149,0L87.173,88.8a.778.778,0,1,0-1.149-1.049Z" transform="translate(-71.297 -78.422)" fill="#0b0a0a"/>
        <path id="Trazado_1248645" data-name="Trazado 1248645" d="M278.208,31.222c1.716,0,3.111,1.744,3.111,3.889a.778.778,0,0,0,1.556,0c0-2.145,1.4-3.889,3.111-3.889a.778.778,0,0,0,0-1.556c-1.715,0-3.111-1.744-3.111-3.889a.778.778,0,1,0-1.556,0c0,2.145-1.395,3.889-3.111,3.889a.778.778,0,0,0,0,1.556Zm3.889-2.438a5.115,5.115,0,0,0,1.488,1.659A5.115,5.115,0,0,0,282.1,32.1a5.112,5.112,0,0,0-1.487-1.659A5.112,5.112,0,0,0,282.1,28.784Z" transform="translate(-248.659 -22.406)" fill="#0b0a0a"/>
        <path id="Trazado_1248646" data-name="Trazado 1248646" d="M344.94,82a.778.778,0,0,0,.778.778c2.43,0,4.407,2.442,4.407,5.444a.778.778,0,1,0,1.556,0c0-3,1.977-5.444,4.407-5.444a.778.778,0,0,0,0-1.556c-2.431,0-4.407-2.442-4.407-5.444a.778.778,0,1,0-1.556,0c0,3.007-1.978,5.444-4.407,5.444a.778.778,0,0,0-.778.778Zm5.963-2.768A6.559,6.559,0,0,0,353.357,82a6.559,6.559,0,0,0-2.455,2.768A6.573,6.573,0,0,0,348.448,82,6.573,6.573,0,0,0,350.9,79.232Z" transform="translate(-309.168 -67.221)" fill="#0b0a0a"/>
        <path id="Trazado_1248647" data-name="Trazado 1248647" d="M77.092,352.185c-2,0-3.63-1.978-3.63-4.407a.778.778,0,1,0-1.556,0c0,2.43-1.628,4.407-3.63,4.407a.778.778,0,1,0,0,1.556c2,0,3.63,1.978,3.63,4.407a.778.778,0,0,0,1.556,0c0-2.43,1.628-4.407,3.63-4.407a.778.778,0,1,0,0-1.556Zm-4.407,2.825a5.632,5.632,0,0,0-1.849-2.047,5.632,5.632,0,0,0,1.849-2.047,5.632,5.632,0,0,0,1.849,2.047A5.632,5.632,0,0,0,72.685,355.01Z" transform="translate(-60.499 -311.015)" fill="#0b0a0a"/>
      </g>
    </g>
  </g>
</svg>
