<svg xmlns="http://www.w3.org/2000/svg" xmlns:xlink="http://www.w3.org/1999/xlink" width="98" height="98" viewBox="0 0 98 98">
  <defs>
    <filter id="Trazado_982547" x="0" y="0" width="98" height="98" filterUnits="userSpaceOnUse">
      <feOffset dy="3" input="SourceAlpha"/>
      <feGaussianBlur stdDeviation="3" result="blur"/>
      <feFlood flood-opacity="0.161"/>
      <feComposite operator="in" in2="blur"/>
      <feComposite in="SourceGraphic"/>
    </filter>
    <clipPath id="clip-path">
      <path id="path8121" d="M0-682.665H48.414v48.414H0Z" transform="translate(0 682.665)"/>
    </clipPath>
  </defs>
  <g id="Grupo_1232035" data-name="Grupo 1232035" transform="translate(-825.151 -9238)">
    <g id="Grupo_1231441" data-name="Grupo 1231441" transform="translate(0 6946)">
      <g id="Grupo_1229591" data-name="Grupo 1229591" transform="translate(834.151 2298)">
        <g id="Grupo_1208936" data-name="Grupo 1208936" transform="translate(0)">
          <g id="Grupo_1208171" data-name="Grupo 1208171">
            <g id="Grupo_1207739" data-name="Grupo 1207739">
              <g id="Grupo_1207712" data-name="Grupo 1207712">
                <g id="Grupo_1207285" data-name="Grupo 1207285">
                  <g id="Grupo_1206883" data-name="Grupo 1206883">
                    <g id="Grupo_1204569" data-name="Grupo 1204569">
                      <g id="Grupo_1203962" data-name="Grupo 1203962">
                        <g id="Grupo_1203498" data-name="Grupo 1203498">
                          <g id="Grupo_1202589" data-name="Grupo 1202589">
                            <g id="Grupo_1172010" data-name="Grupo 1172010">
                              <g id="Grupo_1171046" data-name="Grupo 1171046">
                                <g id="Grupo_1148525" data-name="Grupo 1148525">
                                  <g transform="matrix(1, 0, 0, 1, -9, -6)" filter="url(#Trazado_982547)">
                                    <g id="Trazado_982547-2" data-name="Trazado 982547" transform="translate(9 6)" fill="#fdfbec">
                                      <path d="M 39.99999237060547 78.49998474121094 C 34.8018684387207 78.49998474121094 29.76002502441406 77.48226165771484 25.0145263671875 75.47508239746094 C 20.43014717102051 73.53604888916016 16.31264877319336 70.75984954833984 12.77639198303223 67.22359466552734 C 9.240137100219727 63.68733596801758 6.463936805725098 59.5698356628418 4.524903297424316 54.98546981811523 C 2.517725706100464 50.23995971679688 1.500003457069397 45.19811630249023 1.500003457069397 39.99999237060547 C 1.500003457069397 34.8018684387207 2.517725706100464 29.76002502441406 4.524903297424316 25.0145263671875 C 6.463936805725098 20.43014717102051 9.240137100219727 16.31264877319336 12.77639198303223 12.77639198303223 C 16.31264877319336 9.240137100219727 20.43014717102051 6.463936805725098 25.0145263671875 4.524903297424316 C 29.76002502441406 2.517725706100464 34.8018684387207 1.500003457069397 39.99999237060547 1.500003457069397 C 45.19811630249023 1.500003457069397 50.23995971679688 2.517725706100464 54.98546981811523 4.524903297424316 C 59.5698356628418 6.463936805725098 63.68733596801758 9.240137100219727 67.22359466552734 12.77639198303223 C 70.75984954833984 16.31264877319336 73.53604888916016 20.43014717102051 75.47508239746094 25.0145263671875 C 77.48226165771484 29.76002502441406 78.49998474121094 34.8018684387207 78.49998474121094 39.99999237060547 C 78.49998474121094 45.19812393188477 77.48226165771484 50.23995971679688 75.47508239746094 54.98546981811523 C 73.53604888916016 59.5698356628418 70.75984954833984 63.68733596801758 67.22359466552734 67.22359466552734 C 63.68733596801758 70.75984954833984 59.5698356628418 73.53604888916016 54.98546981811523 75.47508239746094 C 50.23995971679688 77.48226165771484 45.19812393188477 78.49998474121094 39.99999237060547 78.49998474121094 Z" stroke="none"/>
                                      <path d="M 39.99999237060547 2.999992370605469 C 35.00370025634766 2.999992370605469 30.1584587097168 3.97784423828125 25.59884643554688 5.906402587890625 C 21.19327163696289 7.769805908203125 17.23603057861328 10.43805694580078 13.83704376220703 13.83704376220703 C 10.43805694580078 17.23603057861328 7.769805908203125 21.19327163696289 5.906402587890625 25.59884643554688 C 3.97784423828125 30.1584587097168 2.999992370605469 35.00370025634766 2.999992370605469 39.99999237060547 C 2.999992370605469 44.99628448486328 3.97784423828125 49.84152603149414 5.906402587890625 54.40113830566406 C 7.769805908203125 58.80671310424805 10.43805694580078 62.76395416259766 13.83704376220703 66.16294097900391 C 17.23603057861328 69.56191253662109 21.19327163696289 72.23016357421875 25.59884643554688 74.09356689453125 C 30.1584587097168 76.02212524414062 35.00370025634766 76.99997711181641 39.99999237060547 76.99997711181641 C 44.99628448486328 76.99997711181641 49.84152603149414 76.02212524414062 54.40113830566406 74.09356689453125 C 58.80671310424805 72.23016357421875 62.76395416259766 69.56191253662109 66.16294097900391 66.16294097900391 C 69.56191253662109 62.76395416259766 72.23016357421875 58.80671310424805 74.09356689453125 54.40113830566406 C 76.02212524414062 49.84152603149414 76.99997711181641 44.99628448486328 76.99997711181641 39.99999237060547 C 76.99997711181641 35.00370025634766 76.02212524414062 30.1584587097168 74.09356689453125 25.59884643554688 C 72.23016357421875 21.19327163696289 69.56191253662109 17.23603057861328 66.16294097900391 13.83704376220703 C 62.76395416259766 10.43805694580078 58.80671310424805 7.769805908203125 54.40113830566406 5.906402587890625 C 49.84152603149414 3.97784423828125 44.99628448486328 2.999992370605469 39.99999237060547 2.999992370605469 M 39.99999237060547 -7.62939453125e-06 C 62.09137725830078 -7.62939453125e-06 79.99997711181641 17.90860748291016 79.99997711181641 39.99999237060547 C 79.99997711181641 62.09137725830078 62.09137725830078 79.99997711181641 39.99999237060547 79.99997711181641 C 17.90860748291016 79.99997711181641 -7.62939453125e-06 62.09137725830078 -7.62939453125e-06 39.99999237060547 C -7.62939453125e-06 17.90860748291016 17.90860748291016 -7.62939453125e-06 39.99999237060547 -7.62939453125e-06 Z" stroke="none" fill="#83793c"/>
                                    </g>
                                  </g>
                                </g>
                              </g>
                            </g>
                          </g>
                        </g>
                      </g>
                    </g>
                  </g>
                </g>
                <g id="g8115" transform="translate(15.793 15.793)">
                  <g id="g8117">
                    <g id="g8119" clip-path="url(#clip-path)">
                      <g id="g8125" transform="translate(-33.259 0.709)">
                        <path id="path8127" d="M-338.457-377.826h-25.835v-25.108c5.31-7.679,37.755-5.416,25.835,25.108" transform="translate(364.292 406.667)" fill="#fbdf63"/>
                      </g>
                      <g id="g8129" transform="translate(-33.259 0.709)">
                        <path id="path8131" d="M-338.457-377.826h-.619c6.164-24.728-15.887-30.6-25.216-24.374v-.734c5.31-7.679,37.755-5.416,25.835,25.108" transform="translate(364.292 406.667)" fill="#f9d11f"/>
                      </g>
                    </g>
                  </g>
                  <g id="g8265">
                    <g id="g8267" clip-path="url(#clip-path)">
                      <g id="g8273" transform="translate(-33.259 51.036)">
                        <path id="path8275" d="M-338.457-377.654h-25.835v-25.1c5.31-7.676,37.755-5.413,25.835,25.1" transform="translate(364.292 406.481)" fill="#003343"/>
                      </g>
                      <g id="g8277" transform="translate(-33.259 51.036)">
                        <path id="path8279" d="M-338.457-377.654h-.619c6.164-24.717-15.887-30.585-25.216-24.362v-.734c5.31-7.676,37.755-5.413,25.835,25.1" transform="translate(364.292 406.481)" fill="#002439"/>
                      </g>
                    </g>
                  </g>
                  <g id="g8281">
                    <g id="g8283" clip-path="url(#clip-path)">
                      <g id="g8289" transform="translate(17.066 51.014)">
                        <path id="path8291" d="M-338.457-377.826h-25.835v-25.108c5.31-7.679,37.755-5.416,25.835,25.108" transform="translate(364.292 406.667)" fill="#ff7e50"/>
                      </g>
                      <g id="g8293" transform="translate(17.066 51.014)">
                        <path id="path8295" d="M-338.457-377.826h-.619c6.164-24.728-15.887-30.6-25.216-24.374v-.734c5.31-7.679,37.755-5.416,25.835,25.108" transform="translate(364.292 406.667)" fill="#ff6247"/>
                      </g>
                      <g id="g8297" transform="translate(2.941 54.225)">
                        <path id="path8299" d="M-233.028-131.751v15.573h-14.6c-12.2-25.649,14.6-34.273,14.6-15.573" transform="translate(250.816 141.808)" fill="#ffa68a"/>
                      </g>
                      <g id="g8301" transform="translate(2.941 54.225)">
                        <path id="path8303" d="M-233.028-131.751c-.9-16.1-20.23-9.82-14.176,15.573h-.427c-12.2-25.649,14.6-34.273,14.6-15.573" transform="translate(250.816 141.808)" fill="#ff7e50"/>
                      </g>
                    </g>
                  </g>
                </g>
              </g>
            </g>
          </g>
        </g>
      </g>
    </g>
    <g id="verification_3890344" transform="translate(849.219 9259.219)">
      <g id="Grupo_1232378" data-name="Grupo 1232378" transform="translate(0.832 0.832)">
        <g id="Grupo_1232364" data-name="Grupo 1232364" transform="translate(1.663 26.613)">
          <path id="Trazado_1248648" data-name="Trazado 1248648" d="M21.3,33H4.663A1.668,1.668,0,0,0,3,34.663V46.306A1.668,1.668,0,0,0,4.663,47.97h5.822l2.986,2.986a1.176,1.176,0,0,0,2-.832V47.97H21.3a1.668,1.668,0,0,0,1.663-1.663V34.663A1.668,1.668,0,0,0,21.3,33Z" transform="translate(-3 -33)" fill="#b4dd7f"/>
        </g>
        <g id="Grupo_1232365" data-name="Grupo 1232365" transform="translate(6.653 28.276)">
          <path id="Trazado_1248649" data-name="Trazado 1248649" d="M18.98,36.663a4.994,4.994,0,0,1-4.99,4.99A5,5,0,0,1,9,36.663V35h9.98Z" transform="translate(-9 -35)" fill="#aab2bd"/>
        </g>
        <g id="Grupo_1232366" data-name="Grupo 1232366" transform="translate(4.99 24.95)">
          <path id="Trazado_1248650" data-name="Trazado 1248650" d="M14.485,31h4.158a1.668,1.668,0,0,1,1.663,1.663,1.675,1.675,0,0,1-1.663,1.663H8.663A1.668,1.668,0,0,1,7,32.663,1.675,1.675,0,0,1,8.663,31h5.822Z" transform="translate(-7 -31)" fill="#ccd1d9"/>
        </g>
        <g id="Grupo_1232367" data-name="Grupo 1232367" transform="translate(46.573 33.266)">
          <path id="Trazado_1248651" data-name="Trazado 1248651" d="M60.327,41V52.643H58.663A1.668,1.668,0,0,1,57,50.98V42.663A1.668,1.668,0,0,1,58.663,41Z" transform="translate(-57 -41)" fill="#e6e9ed"/>
        </g>
        <g id="Grupo_1232368" data-name="Grupo 1232368" transform="translate(31.603 34.929)">
          <path id="Trazado_1248652" data-name="Trazado 1248652" d="M45.653,54.643v1.663A1.668,1.668,0,0,1,43.99,57.97H40.663A1.668,1.668,0,0,1,39,56.306V54.643h1.663a1.668,1.668,0,0,0,1.663-1.663,1.675,1.675,0,0,0-1.663-1.663,1.668,1.668,0,0,0,1.663-1.663,1.675,1.675,0,0,0-1.663-1.663,1.668,1.668,0,0,0,1.663-1.663,1.675,1.675,0,0,0-1.663-1.663A1.668,1.668,0,0,0,42.327,43h3.327Z" transform="translate(-39 -43)" fill="#969faa"/>
        </g>
        <g id="Grupo_1232369" data-name="Grupo 1232369" transform="translate(28.276 36.593)">
          <path id="Trazado_1248653" data-name="Trazado 1248653" d="M41.163,45.491a1.626,1.626,0,0,1,.491,1.173,1.668,1.668,0,0,1-1.663,1.663H36.663A1.675,1.675,0,0,1,35,46.663,1.668,1.668,0,0,1,36.663,45H39.99A1.626,1.626,0,0,1,41.163,45.491Z" transform="translate(-35 -45)" fill="#f0d0b4"/>
        </g>
        <g id="Grupo_1232370" data-name="Grupo 1232370" transform="translate(28.276 39.919)">
          <path id="Trazado_1248654" data-name="Trazado 1248654" d="M41.163,49.491a1.626,1.626,0,0,1,.491,1.173,1.668,1.668,0,0,1-1.663,1.663H36.663A1.675,1.675,0,0,1,35,50.663,1.668,1.668,0,0,1,36.663,49H39.99A1.626,1.626,0,0,1,41.163,49.491Z" transform="translate(-35 -49)" fill="#f0d0b4"/>
        </g>
        <g id="Grupo_1232371" data-name="Grupo 1232371" transform="translate(28.276 33.266)">
          <path id="Trazado_1248655" data-name="Trazado 1248655" d="M38.227,41.931a2.489,2.489,0,0,0,1.763.732h1.663a1.668,1.668,0,0,1-1.663,1.663H36.663A1.675,1.675,0,0,1,35,42.663,1.668,1.668,0,0,1,36.663,41h.981Z" transform="translate(-35 -41)" fill="#f0d0b4"/>
        </g>
        <g id="Grupo_1232372" data-name="Grupo 1232372" transform="translate(28.276 43.246)">
          <path id="Trazado_1248656" data-name="Trazado 1248656" d="M41.163,53.491a1.626,1.626,0,0,1,.491,1.173,1.668,1.668,0,0,1-1.663,1.663H36.663A1.675,1.675,0,0,1,35,54.663,1.668,1.668,0,0,1,36.663,53H39.99A1.626,1.626,0,0,1,41.163,53.491Z" transform="translate(-35 -53)" fill="#f0d0b4"/>
        </g>
        <g id="Grupo_1232373" data-name="Grupo 1232373" transform="translate(30.771 31.603)">
          <path id="Trazado_1248657" data-name="Trazado 1248657" d="M45.485,42.327h-4.99a2.489,2.489,0,0,1-1.763-.732l-.582-.931a2.305,2.305,0,0,1-.15-.832A.834.834,0,0,1,38.832,39H47.9a4.97,4.97,0,0,1,3.11,1.089L53.8,42.327v8.317L51.007,52.88A4.97,4.97,0,0,1,47.9,53.97H45.485Z" transform="translate(-38 -39)" fill="#f0d0b4"/>
        </g>
        <g id="Grupo_1232374" data-name="Grupo 1232374" transform="translate(21.623 4.99)">
          <path id="Trazado_1248658" data-name="Trazado 1248658" d="M40.306,7A13.306,13.306,0,1,1,27,20.306c0-.457.025-.915.067-1.364v-.008A13.308,13.308,0,0,1,40.306,7Z" transform="translate(-27 -7)" fill="#ccd1d9"/>
        </g>
        <g id="Grupo_1232375" data-name="Grupo 1232375" transform="translate(24.95 8.317)">
          <circle id="Elipse_11590" data-name="Elipse 11590" cx="10" cy="10" r="10" transform="translate(0 -0.367)" fill="#69d6f4"/>
        </g>
        <g id="Grupo_1232376" data-name="Grupo 1232376">
          <path id="Trazado_1248659" data-name="Trazado 1248659" d="M21.01,4.277A11.11,11.11,0,0,0,13.109,1h-.931A11.18,11.18,0,0,0,1,12.177a11.173,11.173,0,0,0,3.268,7.9L5.89,21.692A6.017,6.017,0,0,1,7.653,25.95h9.98A6.017,6.017,0,0,1,19.4,21.692l1.613-1.613a11.172,11.172,0,0,0,1.68-2.146v-.008a13.3,13.3,0,0,1,1.572-5.032c.017-.241.025-.482.025-.715A11.11,11.11,0,0,0,21.01,4.277Z" transform="translate(-1 -1)" fill="#ffeaa7"/>
        </g>
        <g id="Grupo_1232377" data-name="Grupo 1232377" transform="translate(4.99 4.99)">
          <path id="Trazado_1248660" data-name="Trazado 1248660" d="M20.306,11.99v3.327l-1.231.449c-.033.075-.058.158-.091.233l.549,1.181-2.354,2.354L16,18.984c-.075.033-.158.058-.233.091l-.449,1.231H11.99l-.449-1.231c-.075-.033-.158-.058-.233-.091l-1.181.549L7.773,17.179,8.322,16c-.033-.075-.058-.158-.091-.233L7,15.317V11.99l1.231-.449c.033-.075.058-.158.091-.233l-.549-1.181,2.354-2.354,1.181.549c.075-.033.158-.058.233-.091L11.99,7h3.327l.449,1.231c.075.033.158.058.233.091l1.181-.549,2.354,2.354-.549,1.181c.033.075.058.158.091.233ZM16.98,13.653a3.327,3.327,0,1,0-3.327,3.327A3.326,3.326,0,0,0,16.98,13.653Z" transform="translate(-7 -7)" fill="#fcd770"/>
        </g>
      </g>
      <g id="Grupo_1232379" data-name="Grupo 1232379" transform="translate(0 0)">
        <path id="Trazado_1248661" data-name="Trazado 1248661" d="M51.623,20.811A10.811,10.811,0,1,0,40.811,31.623,10.824,10.824,0,0,0,51.623,20.811Zm-19.96,0a9.148,9.148,0,1,1,9.148,9.148A9.159,9.159,0,0,1,31.663,20.811Z" transform="translate(-5.05 -1.683)"/>
        <path id="Trazado_1248662" data-name="Trazado 1248662" d="M49.068,33.266a2.494,2.494,0,0,0-2.07,1.1l-1.865-1.492a5.837,5.837,0,0,0-2.868-1.21A14.13,14.13,0,1,0,24.8,10.213,12.013,12.013,0,0,0,12.945,0H12A12,12,0,0,0,3.516,20.494L5.133,22.11a5.157,5.157,0,0,1,1.474,3.007,2.492,2.492,0,0,0-1.464,1.5H4.158a2.5,2.5,0,0,0-2.495,2.495V40.751a2.5,2.5,0,0,0,2.495,2.495H9.636l2.739,2.739a2.008,2.008,0,0,0,3.427-1.42V43.246h4.99a2.5,2.5,0,0,0,2.495-2.495V29.108a2.5,2.5,0,0,0-2.495-2.495h-.985a2.491,2.491,0,0,0-1.463-1.5,5.147,5.147,0,0,1,1.474-3.007l1.617-1.617c.087-.087.161-.187.245-.277a14.149,14.149,0,0,0,9.329,12.209,1.644,1.644,0,0,0-.236.84,2.484,2.484,0,0,0-1.846,4.158,2.457,2.457,0,0,0,0,3.327,2.457,2.457,0,0,0,0,3.327,2.484,2.484,0,0,0,1.846,4.158H31.6v.832A2.5,2.5,0,0,0,34.1,51.562h3.327a2.5,2.5,0,0,0,2.495-2.495v-.832H41.5a5.846,5.846,0,0,0,3.637-1.276L47,45.468a2.491,2.491,0,0,0,2.069,1.1h2.495V33.266ZM7.689,13.932l-1.036-.377V11.394l.684-.248.371-.173.352-.852-.467-1L9.122,7.594l1,.467.9-.369.378-1.039h2.161l.249.684.163.368.861.355,1-.467,1.528,1.528-.467,1,.371.9,1.036.378v2.161l-.684.249-.373.178-.351.847.467,1-1.528,1.528-1-.467-.9.369L13.555,18.3H11.394L11,17.25l-.876-.361-1,.467L7.593,15.828l.467-1ZM13.2,19.96l-.624,4.99h-.2l-.624-4.99Zm4.269,6.653a.832.832,0,0,1,0,1.663H7.485a.832.832,0,0,1,0-1.663ZM8.317,29.94h8.317v.832a4.158,4.158,0,0,1-8.317,0Zm13.306-.832V40.751a.833.833,0,0,1-.832.832H14.138v2.982a.358.358,0,0,1-.588.244l-3.226-3.226H4.158a.833.833,0,0,1-.832-.832V29.108a.833.833,0,0,1,.832-.832h.985a2.492,2.492,0,0,0,1.51,1.51v.985a5.822,5.822,0,1,0,11.643,0v-.985a2.492,2.492,0,0,0,1.51-1.51h.985a.833.833,0,0,1,.832.832Zm-1.366-9.79-1.617,1.617a6.8,6.8,0,0,0-1.952,4.015h-2.44l.7-5.625.169-.463,1.059.495,3.177-3.177-.495-1.059,1.1-.4V10.229l-1.1-.4.495-1.059L16.179,5.595l-1.059.495-.4-1.1H10.229l-.4,1.1L8.771,5.594,5.595,8.771l.495,1.059-1.1.4V14.72l1.1.4-.495,1.059,3.177,3.177,1.059-.495.169.463.7,5.626H8.261a6.8,6.8,0,0,0-1.952-4.015L4.692,19.318A10.342,10.342,0,0,1,12,1.663h.94A10.353,10.353,0,0,1,23.286,12c0,.174-.008.346-.017.519a14.035,14.035,0,0,0-1.536,4.918A10.37,10.37,0,0,1,20.257,19.318Zm3.029-.19A12.475,12.475,0,1,1,35.761,31.6,12.489,12.489,0,0,1,23.286,19.128Zm7.485,15.8h.462A3.316,3.316,0,0,0,34.1,36.593H30.771a.832.832,0,0,1,0-1.663Zm-.832,7.485a.833.833,0,0,1,.832-.832H34.1a.832.832,0,0,1,0,1.663H30.771A.833.833,0,0,1,29.94,42.414Zm0-3.327a.833.833,0,0,1,.832-.832H34.1a.832.832,0,0,1,0,1.663H30.771A.833.833,0,0,1,29.94,39.088Zm0,6.653a.833.833,0,0,1,.832-.832H34.1a.832.832,0,0,1,0,1.663H30.771A.833.833,0,0,1,29.94,45.741ZM37.424,49.9H34.1a.833.833,0,0,1-.832-.832v-.832H34.1a2.484,2.484,0,0,0,1.846-4.158,2.457,2.457,0,0,0,0-3.327,2.457,2.457,0,0,0,0-3.327,2.485,2.485,0,0,0,.5-.832h1.816V49.068A.833.833,0,0,1,37.424,49.9Zm6.669-4.238a4.173,4.173,0,0,1-2.6.911H39.919v-8.76a6.413,6.413,0,0,0,3.83,1.275h.329V37.424h-.329A4.761,4.761,0,0,1,39.78,35.3l-.247-.37H34.1a1.665,1.665,0,0,1-1.663-1.663H41.5a4.174,4.174,0,0,1,2.6.911l2.478,1.983v7.517Zm5.806-.752h-.832a.833.833,0,0,1-.832-.832V35.761a.833.833,0,0,1,.832-.832H49.9Z" transform="translate(0 0)"/>
        <path id="Trazado_1248663" data-name="Trazado 1248663" d="M14.158,18.317A4.158,4.158,0,1,0,10,14.158,4.163,4.163,0,0,0,14.158,18.317Zm0-6.653a2.495,2.495,0,1,1-2.495,2.495A2.5,2.5,0,0,1,14.158,11.663Z" transform="translate(-1.683 -1.683)"/>
        <path id="Trazado_1248664" data-name="Trazado 1248664" d="M22,46h1.663v1.663H22Z" transform="translate(-3.704 -7.744)"/>
        <path id="Trazado_1248665" data-name="Trazado 1248665" d="M6,46H7.663v1.663H6Z" transform="translate(-1.01 -7.744)"/>
        <path id="Trazado_1248666" data-name="Trazado 1248666" d="M18,46h1.663v1.663H18Z" transform="translate(-3.03 -7.744)"/>
        <path id="Trazado_1248667" data-name="Trazado 1248667" d="M10,46h1.663v1.663H10Z" transform="translate(-1.683 -7.744)"/>
        <path id="Trazado_1248668" data-name="Trazado 1248668" d="M14,46h1.663v1.663H14Z" transform="translate(-2.357 -7.744)"/>
        <path id="Trazado_1248669" data-name="Trazado 1248669" d="M46.936,17.293l-7.729,7.729-2.739-2.739-1.176,1.176,3.915,3.915,8.9-8.9Z" transform="translate(-5.941 -2.911)"/>
      </g>
    </g>
  </g>
</svg>
