<svg xmlns="http://www.w3.org/2000/svg" xmlns:xlink="http://www.w3.org/1999/xlink" width="108" height="108" viewBox="0 0 108 108">
  <defs>
    <filter id="Trazado_904820" x="0" y="0" width="108" height="108" filterUnits="userSpaceOnUse">
      <feOffset dy="3" input="SourceAlpha"/>
      <feGaussianBlur stdDeviation="3" result="blur"/>
      <feFlood flood-opacity="0.161"/>
      <feComposite operator="in" in2="blur"/>
      <feComposite in="SourceGraphic"/>
    </filter>
  </defs>
  <g id="Grupo_1232147" data-name="Grupo 1232147" transform="translate(-166 -9889.492)">
    <g id="Grupo_1230139" data-name="Grupo 1230139" transform="translate(0 6799.277)">
      <g id="Grupo_1229775" data-name="Grupo 1229775" transform="translate(0 1440.215)">
        <g id="Grupo_1208498" data-name="Grupo 1208498" transform="translate(175 1656)">
          <g id="Grupo_1207936" data-name="Grupo 1207936" transform="translate(0 0)">
            <g id="Grupo_1201662" data-name="Grupo 1201662">
              <g id="Grupo_1173585" data-name="Grupo 1173585">
                <g id="Grupo_1173428" data-name="Grupo 1173428">
                  <g id="Grupo_1171958" data-name="Grupo 1171958">
                    <g id="Grupo_1167341" data-name="Grupo 1167341">
                      <g id="Grupo_1166792" data-name="Grupo 1166792">
                        <g transform="matrix(1, 0, 0, 1, -9, -6)" filter="url(#Trazado_904820)">
                          <g id="Trazado_904820-2" data-name="Trazado 904820" transform="translate(9 6)" fill="#ebe9f0">
                            <path d="M 44.99999618530273 88.49999237060547 C 39.12687301635742 88.49999237060547 33.43022155761719 87.35006713867188 28.06829643249512 85.08216857910156 C 22.88852119445801 82.89130401611328 18.23629570007324 79.75457763671875 14.24084663391113 75.75914001464844 C 10.24540901184082 71.76369476318359 7.108683586120605 67.11146545410156 4.917821407318115 61.93169403076172 C 2.649921178817749 56.56976699829102 1.499996185302734 50.87311553955078 1.499996185302734 44.99999237060547 C 1.499996185302734 39.12686920166016 2.649921178817749 33.43021774291992 4.917821407318115 28.06829261779785 C 7.108683586120605 22.88851737976074 10.24540901184082 18.23630523681641 14.24084663391113 14.24085521697998 C 18.23629570007324 10.24540519714355 22.88852119445801 7.108692169189453 28.06829643249512 4.917829990386963 C 33.43022155761719 2.649929761886597 39.12687301635742 1.500004887580872 44.99999618530273 1.500004887580872 C 50.87311935424805 1.500004887580872 56.56977081298828 2.649929761886597 61.93169784545898 4.917829990386963 C 67.11147308349609 7.108692169189453 71.76369476318359 10.24540519714355 75.75914764404297 14.24085521697998 C 79.75458526611328 18.23630523681641 82.89131164550781 22.88851737976074 85.08216857910156 28.06829261779785 C 87.35007476806641 33.43021774291992 88.5 39.12686920166016 88.5 44.99999237060547 C 88.5 50.87311553955078 87.35007476806641 56.56976699829102 85.08216857910156 61.93169403076172 C 82.89131164550781 67.11146545410156 79.75458526611328 71.76369476318359 75.75914764404297 75.75914001464844 C 71.76369476318359 79.75457763671875 67.11147308349609 82.89130401611328 61.93169784545898 85.08216857910156 C 56.56977081298828 87.35006713867188 50.87311935424805 88.49999237060547 44.99999618530273 88.49999237060547 Z" stroke="none"/>
                            <path d="M 44.99999618530273 2.999992370605469 C 39.32870864868164 2.999992370605469 33.82865142822266 4.11004638671875 28.65262603759766 6.299331665039062 C 23.65165710449219 8.414566040039062 19.15968322753906 11.44333648681641 15.301513671875 15.30150604248047 C 11.44333648681641 19.15967559814453 8.414566040039062 23.65164947509766 6.299339294433594 28.65262222290039 C 4.110054016113281 33.82864761352539 2.999992370605469 39.32870483398438 2.999992370605469 44.99999237060547 C 2.999992370605469 50.67127990722656 4.110054016113281 56.17132186889648 6.299339294433594 61.34736633300781 C 8.414566040039062 66.34833526611328 11.44333648681641 70.84029388427734 15.301513671875 74.69846343994141 C 19.15968322753906 78.55663299560547 23.65165710449219 81.58540344238281 28.65262603759766 83.70063781738281 C 33.82865142822266 85.88992309570312 39.32870864868164 86.99997711181641 44.99999618530273 86.99997711181641 C 50.67128372192383 86.99997711181641 56.17134094238281 85.88992309570312 61.34736633300781 83.70063781738281 C 66.34834289550781 81.58540344238281 70.84030914306641 78.55663299560547 74.69847869873047 74.69846343994141 C 78.55665588378906 70.84029388427734 81.58542633056641 66.34833526611328 83.70065307617188 61.34736633300781 C 85.88993835449219 56.17132186889648 87 50.67127990722656 87 44.99999237060547 C 87 39.32870483398438 85.88993835449219 33.82864761352539 83.70065307617188 28.65262222290039 C 81.58542633056641 23.65164947509766 78.55665588378906 19.15967559814453 74.69847869873047 15.30150604248047 C 70.84030914306641 11.44333648681641 66.34834289550781 8.414566040039062 61.34736633300781 6.299331665039062 C 56.17134094238281 4.11004638671875 50.67128372192383 2.999992370605469 44.99999618530273 2.999992370605469 M 44.99999618530273 -7.62939453125e-06 C 69.85281372070312 -7.62939453125e-06 90 20.14717864990234 90 44.99999237060547 C 90 69.85279083251953 69.85281372070312 89.99997711181641 44.99999618530273 89.99997711181641 C 20.14717864990234 89.99997711181641 -7.62939453125e-06 69.85279083251953 -7.62939453125e-06 44.99999237060547 C -7.62939453125e-06 20.14717864990234 20.14717864990234 -7.62939453125e-06 44.99999618530273 -7.62939453125e-06 Z" stroke="none" fill="#c6c0d6"/>
                          </g>
                        </g>
                      </g>
                    </g>
                  </g>
                </g>
              </g>
            </g>
          </g>
        </g>
      </g>
    </g>
    <g id="estudio_5_" data-name="estudio (5)" transform="translate(191.354 9886.148)">
      <g id="Grupo_1232146" data-name="Grupo 1232146" transform="translate(0.839 29.775)">
        <g id="Grupo_1232145" data-name="Grupo 1232145" transform="translate(0 0)">
          <path id="Trazado_1234567" data-name="Trazado 1234567" d="M201.212,236.57h12.556v23.2H201.212Z" transform="translate(-179.536 -214.175)" fill="#88a8d8"/>
          <g id="Grupo_1232144" data-name="Grupo 1232144">
            <g id="Grupo_1232136" data-name="Grupo 1232136">
              <g id="Grupo_1232121" data-name="Grupo 1232121" transform="translate(0 4.195)">
                <g id="Grupo_1232120" data-name="Grupo 1232120">
                  <g id="Grupo_1232119" data-name="Grupo 1232119">
                    <g id="Grupo_1232118" data-name="Grupo 1232118">
                      <g id="Grupo_1232117" data-name="Grupo 1232117">
                        <g id="Grupo_1232116" data-name="Grupo 1232116">
                          <path id="Trazado_1234568" data-name="Trazado 1234568" d="M14.842,73.926a5.962,5.962,0,0,0-2.418.512l-4.6,2.04a.549.549,0,0,0,0,1l4.6,2.04a5.962,5.962,0,0,0,2.418.512H55.458V73.926Z" transform="translate(-7.5 -73.926)" fill="#e07f84"/>
                          <path id="Trazado_1234569" data-name="Trazado 1234569" d="M451.748,73.926H448.54v6.107h3.208a3.054,3.054,0,0,0,0-6.107Z" transform="translate(-399.188 -73.926)" fill="#eac12e"/>
                        </g>
                        <path id="Trazado_1234570" data-name="Trazado 1234570" d="M14.105,80.363V74.351a5.955,5.955,0,0,0-1.681.465l-4.6,2.04a.548.548,0,0,0,0,1l4.6,2.04A5.963,5.963,0,0,0,14.105,80.363Z" transform="translate(-7.5 -74.303)" fill="#a87f7f"/>
                        <path id="Trazado_1234571" data-name="Trazado 1234571" d="M426.667,73.926h3.563v6.107h-3.563Z" transform="translate(-379.762 -73.926)" fill="#edeaed"/>
                      </g>
                    </g>
                  </g>
                </g>
              </g>
              <g id="Grupo_1232135" data-name="Grupo 1232135" transform="translate(16.687)">
                <g id="Grupo_1232134" data-name="Grupo 1232134">
                  <g id="Grupo_1232133" data-name="Grupo 1232133">
                    <g id="Grupo_1232132" data-name="Grupo 1232132">
                      <g id="Grupo_1232131" data-name="Grupo 1232131">
                        <g id="Grupo_1232130" data-name="Grupo 1232130">
                          <g id="Grupo_1232129" data-name="Grupo 1232129">
                            <g id="Grupo_1232128" data-name="Grupo 1232128">
                              <g id="Grupo_1232127" data-name="Grupo 1232127">
                                <g id="Grupo_1232126" data-name="Grupo 1232126">
                                  <g id="Grupo_1232125" data-name="Grupo 1232125">
                                    <g id="Grupo_1232124" data-name="Grupo 1232124">
                                      <g id="Grupo_1232122" data-name="Grupo 1232122">
                                        <path id="Trazado_1234572" data-name="Trazado 1234572" d="M174.85,38.778h-1a1.562,1.562,0,0,0-1.562,1.562v-1a1.562,1.562,0,0,0-1.562-1.562h-1a1.562,1.562,0,0,0-1.562,1.562v-.8a1.562,1.562,0,0,0-1.562-1.562h-1a1.562,1.562,0,0,0-1.562,1.562V38a1.562,1.562,0,0,0-1.562-1.562h-1A1.562,1.562,0,0,0,159.925,38v6.04a2.7,2.7,0,0,1-2.7,2.7h-.594a6.049,6.049,0,0,0,2.2,4.677l1.418,1.117a3.584,3.584,0,0,1,1.367,2.816v1.1h12.556V53.879a3.585,3.585,0,0,1,.254-1.326l1.178-2.958a15.056,15.056,0,0,0,.805-4.858v-4.4a1.562,1.562,0,0,0-1.562-1.562Z" transform="translate(-156.628 -36.437)" fill="#ffece4"/>
                                      </g>
                                      <g id="Grupo_1232123" data-name="Grupo 1232123" transform="translate(10.258 1.34)">
                                        <path id="Trazado_1234573" data-name="Trazado 1234573" d="M256.262,49.415h-1a1.562,1.562,0,0,0-1.562,1.562v-1a1.562,1.562,0,0,0-1.562-1.562h-1a1.555,1.555,0,0,0-1.082.437,1.556,1.556,0,0,1,.476,1.122v4.4a15.056,15.056,0,0,1-.805,4.858l-1.178,2.958a3.585,3.585,0,0,0-.254,1.326v3.575h7.287V64.516a3.584,3.584,0,0,1,.254-1.326l1.178-2.958a15.055,15.055,0,0,0,.805-4.858v-4.4A1.562,1.562,0,0,0,256.262,49.415Z" transform="translate(-248.298 -48.414)" fill="#ffddce"/>
                                      </g>
                                      <path id="Trazado_1234574" data-name="Trazado 1234574" d="M248.3,236.57h7.287v23.2H248.3Z" transform="translate(-238.039 -214.175)" fill="#7296d1"/>
                                    </g>
                                  </g>
                                </g>
                              </g>
                            </g>
                          </g>
                        </g>
                      </g>
                    </g>
                  </g>
                </g>
              </g>
            </g>
            <g id="Grupo_1232143" data-name="Grupo 1232143" transform="translate(0.122 37.17)">
              <g id="Grupo_1232142" data-name="Grupo 1232142">
                <g id="Grupo_1232141" data-name="Grupo 1232141">
                  <g id="Grupo_1232138" data-name="Grupo 1232138" transform="translate(3.685)">
                    <path id="Trazado_1234575" data-name="Trazado 1234575" d="M65.552,373.3c-8.1-7.1-20.386-4.251-23.365-3.418a.913.913,0,0,0-.668.879v6.279H65.552Z" transform="translate(-41.519 -368.61)" fill="#f7f4f7"/>
                    <path id="Trazado_1234576" data-name="Trazado 1234576" d="M256.291,373.3c8.1-7.1,20.386-4.251,23.365-3.418a.913.913,0,0,1,.668.879v6.279H256.291Z" transform="translate(-232.258 -368.61)" fill="#edeaed"/>
                    <g id="Grupo_1232137" data-name="Grupo 1232137" transform="translate(39.931 0.051)">
                      <path id="Trazado_1234577" data-name="Trazado 1234577" d="M405.83,370.284a36.123,36.123,0,0,0-7.468-1.217l.18.05a.913.913,0,0,1,.668.879v7.447H406.5v-6.279A.913.913,0,0,0,405.83,370.284Z" transform="translate(-398.362 -369.067)" fill="#e0dde0"/>
                    </g>
                  </g>
                  <g id="Grupo_1232140" data-name="Grupo 1232140" transform="translate(0 3.775)">
                    <path id="Trazado_1234578" data-name="Trazado 1234578" d="M53.719,407.318c-8.642-7.572-21.777-4.485-24.86-3.617a.911.911,0,0,0-.664.878v5.306H53.719Z" transform="translate(-26.001 -402.342)" fill="#edeaed"/>
                    <path id="Trazado_1234579" data-name="Trazado 1234579" d="M256.291,407.318c8.642-7.572,21.777-4.485,24.86-3.617a.911.911,0,0,1,.664.878v5.306H256.291Z" transform="translate(-228.573 -402.342)" fill="#e0dde0"/>
                    <g id="Grupo_1232139" data-name="Grupo 1232139" transform="translate(45.385 0.106)">
                      <path id="Trazado_1234580" data-name="Trazado 1234580" d="M421.372,404.546a38.258,38.258,0,0,0-7.192-1.253.911.911,0,0,1,.577.848v6.589h7.279v-5.306A.911.911,0,0,0,421.372,404.546Z" transform="translate(-414.18 -403.293)" fill="#d1ccd3"/>
                    </g>
                    <path id="Trazado_1234581" data-name="Trazado 1234581" d="M62.256,447.455H10.363a1.771,1.771,0,1,1,0-3.542H62.256a1.771,1.771,0,1,1,0,3.542Z" transform="translate(-8.592 -439.261)" fill="#eab14d"/>
                    <path id="Trazado_1234582" data-name="Trazado 1234582" d="M430.429,443.913h-7.275a1.771,1.771,0,0,1,1.771,1.771v1.771h5.5a1.771,1.771,0,0,0,0-3.542Z" transform="translate(-376.764 -439.261)" fill="#e8ae4d"/>
                  </g>
                </g>
              </g>
            </g>
          </g>
          <path id="Trazado_1234583" data-name="Trazado 1234583" d="M190.139,206.652v2.388a1.188,1.188,0,0,0,1.188,1.188h12.99a1.188,1.188,0,0,0,1.188-1.188v-2.388a1.188,1.188,0,0,0-1.188-1.188h-12.99A1.188,1.188,0,0,0,190.139,206.652Z" transform="translate(-169.702 -186.55)" fill="#5884c9"/>
          <path id="Trazado_1234584" data-name="Trazado 1234584" d="M248.3,210.228h7.669a1.188,1.188,0,0,0,1.188-1.188v-2.388a1.188,1.188,0,0,0-1.188-1.188H248.3Z" transform="translate(-221.352 -186.55)" fill="#4478c1"/>
        </g>
      </g>
      <path id="Trazado_1234585" data-name="Trazado 1234585" d="M55.042,74.566V72.958a1.757,1.757,0,0,0-1.276-1.686l-.215-.06v-2.12a1.758,1.758,0,0,0-1.281-1.687,32.656,32.656,0,0,0-16.359-.463V62.716a.839.839,0,0,0-1.679,0V67.46a18.7,18.7,0,0,0-5.553,3.077,18.643,18.643,0,0,0-5.324-2.995V54.292H34.233v4.513a.839.839,0,0,0,1.679,0V54.239a2.029,2.029,0,0,0,1.57-1.973V49.877a2.029,2.029,0,0,0-1.57-1.973v-.687c0-1.367,1.374-2.954,1.982-6.3H53.4a3.893,3.893,0,1,0,0-7.786H38.084a2.4,2.4,0,0,0-2.336-1.854h-1a2.387,2.387,0,0,0-1.027.231,2.4,2.4,0,0,0-2.1-1.232h-1a2.386,2.386,0,0,0-1.123.279,2.4,2.4,0,0,0-2-1.075h-1a2.386,2.386,0,0,0-1.252.353,2.4,2.4,0,0,0-1.871-.9h-1a2.4,2.4,0,0,0-2.4,2.4v1.794H8.181a6.758,6.758,0,0,0-2.758.584l-4.6,2.04a1.388,1.388,0,0,0,0,2.537l4.6,2.04a6.76,6.76,0,0,0,2.758.584h8.561a6.866,6.866,0,0,0,2.47,4.5c.972.881,2.062,1.258,2.389,2.632a2.028,2.028,0,0,0-1.164,1.831v2.388a2.03,2.03,0,0,0,1.239,1.868V67a32.481,32.481,0,0,0-16.589.4,1.758,1.758,0,0,0-1.281,1.687v2.119l-.215.06a1.757,1.757,0,0,0-1.276,1.686v1.609a2.61,2.61,0,0,0,.416,5.187H54.625a2.61,2.61,0,0,0,.416-5.187Zm-2.9-39.757H53.4a2.214,2.214,0,1,1,0,4.429H52.146Zm-3.563,0h1.885v4.429H48.583Zm-10.434,0H46.9v1.375H38.149Zm0,3.266v-.212H46.9v1.375h-8.8q.042-.579.043-1.163ZM6.6,38.991c-.445-.144-.357-.138-4.5-1.966C6.247,35.2,6.159,35.2,6.6,35.058Zm46.707,33.9a.072.072,0,0,1,.052.07v1.575H31.687C37.856,70.8,46.5,70.971,53.311,72.887Zm-23.793-.87c5.95-4.974,15-5.036,22.3-3a.073.073,0,0,1,.054.071V70.8c-7.5-1.651-16.083-1.376-22.355,3.158ZM35.8,52.265a.349.349,0,0,1-.348.348H22.464a.349.349,0,0,1-.348-.348V49.877a.349.349,0,0,1,.348-.348h12.99a.349.349,0,0,1,.348.348v2.388ZM17.526,39.238H8.283V37.863h3.532a.839.839,0,1,0,0-1.679H8.283V34.81h11.7v1.375H15.726a.839.839,0,1,0,0,1.679h4.19a1.864,1.864,0,0,1-1.8,1.375Zm2.724,4.856A5.128,5.128,0,0,1,18.432,40.9a3.546,3.546,0,0,0,3.229-3.527c0-1.264,0-4.78,0-6.04a.723.723,0,0,1,.722-.722h1a.723.723,0,0,1,.722.722v.545a.839.839,0,1,0,1.679,0,.723.723,0,0,1,.722-.722h1a.723.723,0,0,1,.722.722v.8a.839.839,0,0,0,1.678,0,.723.723,0,0,1,.722-.722h1a.723.723,0,0,1,.722.722v1a.839.839,0,0,0,1.679,0,.723.723,0,0,1,.722-.722h1a.723.723,0,0,1,.722.722v4.4c0,4.779-2.238,6.89-2.238,9.142v.633H23.275c-.428-2.249-2.21-2.973-3.024-3.756Zm-14.765,25a.073.073,0,0,1,.054-.071c7.3-2.043,16.4-1.937,22.3,3v1.941c-6.286-4.545-14.879-4.8-22.354-3.158V69.093ZM3.994,72.958a.072.072,0,0,1,.052-.07c6.828-1.922,15.467-2.085,21.625,1.645H3.994Zm50.631,5.117H2.732a.932.932,0,1,1,0-1.863H54.626a.932.932,0,0,1,0,1.863Z"/>
    </g>
  </g>
</svg>
