<svg xmlns="http://www.w3.org/2000/svg" xmlns:xlink="http://www.w3.org/1999/xlink" width="108" height="108" viewBox="0 0 108 108">
  <defs>
    <filter id="Trazado_904820" x="0" y="0" width="108" height="108" filterUnits="userSpaceOnUse">
      <feOffset dy="3" input="SourceAlpha"/>
      <feGaussianBlur stdDeviation="3" result="blur"/>
      <feFlood flood-opacity="0.161"/>
      <feComposite operator="in" in2="blur"/>
      <feComposite in="SourceGraphic"/>
    </filter>
  </defs>
  <g id="Grupo_1232255" data-name="Grupo 1232255" transform="translate(-166 -1586.375)">
    <g id="Grupo_1231670" data-name="Grupo 1231670" transform="translate(-453.477 1052.375)">
      <g id="Grupo_1229404" data-name="Grupo 1229404" transform="translate(0 61.321)">
        <g id="Grupo_1208347" data-name="Grupo 1208347" transform="translate(628.477 478.679)">
          <g id="Grupo_1207936" data-name="Grupo 1207936" transform="translate(0 0)">
            <g id="Grupo_1201662" data-name="Grupo 1201662">
              <g id="Grupo_1173585" data-name="Grupo 1173585">
                <g id="Grupo_1173428" data-name="Grupo 1173428">
                  <g id="Grupo_1171958" data-name="Grupo 1171958">
                    <g id="Grupo_1167341" data-name="Grupo 1167341">
                      <g id="Grupo_1166792" data-name="Grupo 1166792">
                        <g transform="matrix(1, 0, 0, 1, -9, -6)" filter="url(#Trazado_904820)">
                          <g id="Trazado_904820-2" data-name="Trazado 904820" transform="translate(9 6)" fill="#effbfe">
                            <path d="M 44.99999618530273 88.49999237060547 C 39.12687301635742 88.49999237060547 33.43022155761719 87.35006713867188 28.06829643249512 85.08216857910156 C 22.88852119445801 82.89130401611328 18.23629570007324 79.75457763671875 14.24084663391113 75.75914001464844 C 10.24540901184082 71.76369476318359 7.108683586120605 67.11146545410156 4.917821407318115 61.93169403076172 C 2.649921178817749 56.56976699829102 1.499996185302734 50.87311553955078 1.499996185302734 44.99999237060547 C 1.499996185302734 39.12686920166016 2.649921178817749 33.43021774291992 4.917821407318115 28.06829261779785 C 7.108683586120605 22.88851737976074 10.24540901184082 18.23630523681641 14.24084663391113 14.24085521697998 C 18.23629570007324 10.24540519714355 22.88852119445801 7.108692169189453 28.06829643249512 4.917829990386963 C 33.43022155761719 2.649929761886597 39.12687301635742 1.500004887580872 44.99999618530273 1.500004887580872 C 50.87311935424805 1.500004887580872 56.56977081298828 2.649929761886597 61.93169784545898 4.917829990386963 C 67.11147308349609 7.108692169189453 71.76369476318359 10.24540519714355 75.75914764404297 14.24085521697998 C 79.75458526611328 18.23630523681641 82.89131164550781 22.88851737976074 85.08216857910156 28.06829261779785 C 87.35007476806641 33.43021774291992 88.5 39.12686920166016 88.5 44.99999237060547 C 88.5 50.87311553955078 87.35007476806641 56.56976699829102 85.08216857910156 61.93169403076172 C 82.89131164550781 67.11146545410156 79.75458526611328 71.76369476318359 75.75914764404297 75.75914001464844 C 71.76369476318359 79.75457763671875 67.11147308349609 82.89130401611328 61.93169784545898 85.08216857910156 C 56.56977081298828 87.35006713867188 50.87311935424805 88.49999237060547 44.99999618530273 88.49999237060547 Z" stroke="none"/>
                            <path d="M 44.99999618530273 2.999992370605469 C 39.32870864868164 2.999992370605469 33.82865142822266 4.11004638671875 28.65262603759766 6.299331665039062 C 23.65165710449219 8.414566040039062 19.15968322753906 11.44333648681641 15.301513671875 15.30150604248047 C 11.44333648681641 19.15967559814453 8.414566040039062 23.65164947509766 6.299339294433594 28.65262222290039 C 4.110054016113281 33.82864761352539 2.999992370605469 39.32870483398438 2.999992370605469 44.99999237060547 C 2.999992370605469 50.67127990722656 4.110054016113281 56.17132186889648 6.299339294433594 61.34736633300781 C 8.414566040039062 66.34833526611328 11.44333648681641 70.84029388427734 15.301513671875 74.69846343994141 C 19.15968322753906 78.55663299560547 23.65165710449219 81.58540344238281 28.65262603759766 83.70063781738281 C 33.82865142822266 85.88992309570312 39.32870864868164 86.99997711181641 44.99999618530273 86.99997711181641 C 50.67128372192383 86.99997711181641 56.17134094238281 85.88992309570312 61.34736633300781 83.70063781738281 C 66.34834289550781 81.58540344238281 70.84030914306641 78.55663299560547 74.69847869873047 74.69846343994141 C 78.55665588378906 70.84029388427734 81.58542633056641 66.34833526611328 83.70065307617188 61.34736633300781 C 85.88993835449219 56.17132186889648 87 50.67127990722656 87 44.99999237060547 C 87 39.32870483398438 85.88993835449219 33.82864761352539 83.70065307617188 28.65262222290039 C 81.58542633056641 23.65164947509766 78.55665588378906 19.15967559814453 74.69847869873047 15.30150604248047 C 70.84030914306641 11.44333648681641 66.34834289550781 8.414566040039062 61.34736633300781 6.299331665039062 C 56.17134094238281 4.11004638671875 50.67128372192383 2.999992370605469 44.99999618530273 2.999992370605469 M 44.99999618530273 -7.62939453125e-06 C 69.85281372070312 -7.62939453125e-06 90 20.14717864990234 90 44.99999237060547 C 90 69.85279083251953 69.85281372070312 89.99997711181641 44.99999618530273 89.99997711181641 C 20.14717864990234 89.99997711181641 -7.62939453125e-06 69.85279083251953 -7.62939453125e-06 44.99999237060547 C -7.62939453125e-06 20.14717864990234 20.14717864990234 -7.62939453125e-06 44.99999618530273 -7.62939453125e-06 Z" stroke="none" fill="#6ae2f6"/>
                          </g>
                        </g>
                      </g>
                    </g>
                  </g>
                </g>
              </g>
            </g>
          </g>
        </g>
      </g>
    </g>
    <g id="aprender-en-linea_8_" data-name="aprender-en-linea (8)" transform="translate(190.776 1575.375)">
      <path id="Trazado_1234909" data-name="Trazado 1234909" d="M62.637,423.208H9.1a1.6,1.6,0,0,1-1.6-1.6V419.1a1.6,1.6,0,0,1,1.6-1.6H62.637a1.6,1.6,0,0,1,1.6,1.6v2.511A1.6,1.6,0,0,1,62.637,423.208Z" transform="translate(-6.644 -337.064)" fill="#a9dbf5"/>
      <path id="Trazado_1234910" data-name="Trazado 1234910" d="M463.925,417.5H460.5a1.6,1.6,0,0,1,1.6,1.6v2.511a1.6,1.6,0,0,1-1.6,1.6h3.425a1.6,1.6,0,0,0,1.6-1.6V419.1A1.6,1.6,0,0,0,463.925,417.5Z" transform="translate(-407.932 -337.064)" fill="#88c3e0"/>
      <path id="Trazado_1234911" data-name="Trazado 1234911" d="M87.8,151.745H43.284A2.283,2.283,0,0,1,41,149.464V119.784a2.283,2.283,0,0,1,2.283-2.283H87.8a2.283,2.283,0,0,1,2.283,2.283v29.679A2.283,2.283,0,0,1,87.8,151.745Z" transform="translate(-36.32 -71.311)" fill="#4380a0"/>
      <path id="Trazado_1234912" data-name="Trazado 1234912" d="M426.708,149.462a2.283,2.283,0,0,1-2.283,2.283H421a2.283,2.283,0,0,0,2.283-2.283V119.783A2.283,2.283,0,0,0,421,117.5h3.419a2.282,2.282,0,0,1,2.283,2.283Z" transform="translate(-372.941 -71.311)" fill="#3b7191"/>
      <path id="Trazado_1234913" data-name="Trazado 1234913" d="M113.237,174.9H71V147.5h42.236Z" transform="translate(-62.895 -97.886)" fill="#bbf7ff"/>
      <path id="Trazado_1234914" data-name="Trazado 1234914" d="M410.995,147.5h3.425v27.4h-3.425Z" transform="translate(-364.078 -97.886)" fill="#8bf0ff"/>
      <path id="Trazado_1234915" data-name="Trazado 1234915" d="M125.781,116.386H109.639a.639.639,0,0,1-.639-.639V95.877a.639.639,0,0,1,.639-.639h16.141Z" transform="translate(-96.557 -51.589)" fill="#f75632"/>
      <path id="Trazado_1234916" data-name="Trazado 1234916" d="M272.141,116.386H256V95.237h16.141a.639.639,0,0,1,.639.639v19.87A.639.639,0,0,1,272.141,116.386Z" transform="translate(-226.776 -51.589)" fill="#e33629"/>
      <path id="Trazado_1234917" data-name="Trazado 1234917" d="M148.381,71.441l-13.438-4.647a.639.639,0,0,1-.43-.6V45.14a.64.64,0,0,1,.849-.6l13.02,4.5Z" transform="translate(-119.158 -6.644)" fill="#f3f3f3"/>
      <path id="Trazado_1234918" data-name="Trazado 1234918" d="M256,71.441l13.438-4.647a.64.64,0,0,0,.43-.6V45.14a.64.64,0,0,0-.849-.6L256,49.038Z" transform="translate(-226.776 -6.644)" fill="#e4e4e4"/>
      <path id="Trazado_1234919" data-name="Trazado 1234919" d="M221.535,420.24h-7.253A1.282,1.282,0,0,1,213,418.958V417.5h9.817v1.458A1.282,1.282,0,0,1,221.535,420.24Z" transform="translate(-188.685 -337.064)" fill="#88c3e0"/>
      <g id="Grupo_1232254" data-name="Grupo 1232254" transform="translate(0 37)">
        <path id="Trazado_1234920" data-name="Trazado 1234920" d="M55.993,79.58H54.278a3.119,3.119,0,0,0,.345-1.428V48.472a3.143,3.143,0,0,0-3.139-3.139H46.861V44.287a1.5,1.5,0,0,0-1.5-1.5H43.948V38.5a1.5,1.5,0,0,0-1.985-1.413l-2.7.933a.856.856,0,0,0,.56,1.618l2.409-.833V59.391l-12.156,4.2V43l6.294-2.177a.856.856,0,1,0-.56-1.618l-6.591,2.279-12.74-4.406A1.5,1.5,0,0,0,14.5,38.5v4.3H13.082a1.5,1.5,0,0,0-1.5,1.5v1.047H6.963a3.143,3.143,0,0,0-3.139,3.139v3.045a.856.856,0,1,0,1.712,0V48.473a1.428,1.428,0,0,1,1.427-1.427h4.623v1.712H8.105a.856.856,0,0,0-.856.856v27.4a.856.856,0,0,0,.856.856H50.342a.856.856,0,0,0,.856-.856v-27.4a.856.856,0,0,0-.856-.856H46.861V47.045h4.622a1.428,1.428,0,0,1,1.427,1.427v29.68a1.428,1.428,0,0,1-1.427,1.427H6.965a1.428,1.428,0,0,1-1.427-1.427V55.181a.856.856,0,0,0-1.712,0V78.153A3.118,3.118,0,0,0,4.17,79.58H2.454A2.457,2.457,0,0,0,0,82.034v2.511A2.457,2.457,0,0,0,2.454,87H36.493a.856.856,0,1,0,0-1.712H2.454a.743.743,0,0,1-.742-.742V82.034a.743.743,0,0,1,.742-.742h21v.6A2.141,2.141,0,0,0,25.6,84.032H32.85a2.141,2.141,0,0,0,2.138-2.138v-.6h21a.743.743,0,0,1,.742.742v2.511a.743.743,0,0,1-.742.742H40.231a.856.856,0,1,0,0,1.712H55.993a2.457,2.457,0,0,0,2.454-2.454V82.034a2.457,2.457,0,0,0-2.454-2.454ZM42.942,60.958a1.5,1.5,0,0,0,1.007-1.413V44.5h1.2V63.94H34.319ZM16.212,38.8,28.368,43V63.594l-12.156-4.2ZM13.3,44.5h1.2V59.545a1.5,1.5,0,0,0,1.007,1.413l8.622,2.982H13.3ZM49.485,50.47V76.154H8.962V50.471h2.626V64.157a1.5,1.5,0,0,0,1.5,1.5H45.365a1.5,1.5,0,0,0,1.5-1.5V50.47ZM33.276,81.894a.426.426,0,0,1-.426.426H25.6a.426.426,0,0,1-.426-.426v-.6h8.105Z" transform="translate(0 -37)"/>
        <path id="Trazado_1234921" data-name="Trazado 1234921" d="M173.336,309.387H150.845a.856.856,0,0,0,0,1.712h22.491a.856.856,0,0,0,0-1.712Z" transform="translate(-132.867 -278.293)"/>
        <path id="Trazado_1234922" data-name="Trazado 1234922" d="M165.431,341.2H150.845a.856.856,0,0,0,0,1.712h14.586a.856.856,0,1,0,0-1.712Z" transform="translate(-132.867 -306.476)"/>
      </g>
    </g>
  </g>
</svg>
