<svg xmlns="http://www.w3.org/2000/svg" xmlns:xlink="http://www.w3.org/1999/xlink" width="98" height="98" viewBox="0 0 98 98">
  <defs>
    <filter id="Trazado_982547" x="0" y="0" width="98" height="98" filterUnits="userSpaceOnUse">
      <feOffset dy="3" input="SourceAlpha"/>
      <feGaussianBlur stdDeviation="3" result="blur"/>
      <feFlood flood-opacity="0.161"/>
      <feComposite operator="in" in2="blur"/>
      <feComposite in="SourceGraphic"/>
    </filter>
    <clipPath id="clip-path">
      <path id="path8121" d="M0-682.665H48.414v48.414H0Z" transform="translate(0 682.665)"/>
    </clipPath>
  </defs>
  <g id="Grupo_1232149" data-name="Grupo 1232149" transform="translate(-195.15 -1888.615)">
    <g id="Grupo_1231444" data-name="Grupo 1231444" transform="translate(204.15 1894.615)">
      <g id="Grupo_1229777" data-name="Grupo 1229777" transform="translate(0)">
        <g id="Grupo_1208936" data-name="Grupo 1208936">
          <g id="Grupo_1208171" data-name="Grupo 1208171">
            <g id="Grupo_1207739" data-name="Grupo 1207739">
              <g id="Grupo_1207712" data-name="Grupo 1207712">
                <g id="Grupo_1207285" data-name="Grupo 1207285">
                  <g id="Grupo_1206883" data-name="Grupo 1206883">
                    <g id="Grupo_1204569" data-name="Grupo 1204569">
                      <g id="Grupo_1203962" data-name="Grupo 1203962">
                        <g id="Grupo_1203498" data-name="Grupo 1203498">
                          <g id="Grupo_1202589" data-name="Grupo 1202589">
                            <g id="Grupo_1172010" data-name="Grupo 1172010">
                              <g id="Grupo_1171046" data-name="Grupo 1171046">
                                <g id="Grupo_1148525" data-name="Grupo 1148525">
                                  <g transform="matrix(1, 0, 0, 1, -9, -6)" filter="url(#Trazado_982547)">
                                    <g id="Trazado_982547-2" data-name="Trazado 982547" transform="translate(9 6)" fill="#fdfbec">
                                      <path d="M 39.99999237060547 78.49998474121094 C 34.80186080932617 78.49998474121094 29.76002502441406 77.48226165771484 25.0145149230957 75.47508239746094 C 20.43014717102051 73.53604888916016 16.31264877319336 70.75984954833984 12.77639198303223 67.22359466552734 C 9.240137100219727 63.68733596801758 6.463936805725098 59.5698356628418 4.524903297424316 54.98546981811523 C 2.517725706100464 50.23995971679688 1.500003457069397 45.19812393188477 1.500003457069397 39.99999237060547 C 1.500003457069397 34.8018684387207 2.517725706100464 29.76002502441406 4.524903297424316 25.0145263671875 C 6.463936805725098 20.43014717102051 9.240137100219727 16.31264877319336 12.77639198303223 12.77639198303223 C 16.31264877319336 9.240137100219727 20.43014717102051 6.463936805725098 25.0145149230957 4.524903297424316 C 29.76002502441406 2.517725706100464 34.8018684387207 1.500003457069397 39.99999237060547 1.500003457069397 C 45.19811630249023 1.500003457069397 50.23995971679688 2.517725706100464 54.98546981811523 4.524903297424316 C 59.5698356628418 6.463936805725098 63.68733596801758 9.240137100219727 67.22359466552734 12.77639198303223 C 70.75984954833984 16.31264877319336 73.53604888916016 20.43014717102051 75.47508239746094 25.0145263671875 C 77.48226165771484 29.76002502441406 78.49998474121094 34.8018684387207 78.49998474121094 39.99999237060547 C 78.49998474121094 45.19812393188477 77.48226165771484 50.23995971679688 75.47508239746094 54.98546981811523 C 73.53604888916016 59.5698356628418 70.75984954833984 63.68733596801758 67.22359466552734 67.22359466552734 C 63.68733596801758 70.75984954833984 59.5698356628418 73.53604888916016 54.98546981811523 75.47508239746094 C 50.23995971679688 77.48226165771484 45.19812393188477 78.49998474121094 39.99999237060547 78.49998474121094 Z" stroke="none"/>
                                      <path d="M 39.99999237060547 2.999992370605469 C 35.00370025634766 2.999992370605469 30.1584587097168 3.97784423828125 25.59884643554688 5.906402587890625 C 21.19327163696289 7.769805908203125 17.23603057861328 10.43805694580078 13.83704376220703 13.83704376220703 C 10.43805694580078 17.23603057861328 7.769805908203125 21.19327163696289 5.906402587890625 25.59884643554688 C 3.97784423828125 30.1584587097168 2.999992370605469 35.00370025634766 2.999992370605469 39.99999237060547 C 2.999992370605469 44.99628448486328 3.97784423828125 49.84152603149414 5.906402587890625 54.40113830566406 C 7.769805908203125 58.80671310424805 10.43805694580078 62.76395416259766 13.83704376220703 66.16294097900391 C 17.23603057861328 69.56191253662109 21.19327163696289 72.23016357421875 25.59884643554688 74.09356689453125 C 30.1584587097168 76.02212524414062 35.00370025634766 76.99997711181641 39.99999237060547 76.99997711181641 C 44.99628448486328 76.99997711181641 49.84152603149414 76.02212524414062 54.40113830566406 74.09356689453125 C 58.80671310424805 72.23016357421875 62.76395416259766 69.56191253662109 66.16294097900391 66.16294097900391 C 69.56191253662109 62.76395416259766 72.23016357421875 58.80671310424805 74.09356689453125 54.40113830566406 C 76.02212524414062 49.84152603149414 76.99997711181641 44.99628448486328 76.99997711181641 39.99999237060547 C 76.99997711181641 35.00370025634766 76.02212524414062 30.1584587097168 74.09356689453125 25.59884643554688 C 72.23016357421875 21.19327163696289 69.56191253662109 17.23603057861328 66.16294097900391 13.83704376220703 C 62.76395416259766 10.43805694580078 58.80671310424805 7.769805908203125 54.40113830566406 5.906402587890625 C 49.84152603149414 3.97784423828125 44.99628448486328 2.999992370605469 39.99999237060547 2.999992370605469 M 39.99999237060547 -7.62939453125e-06 C 62.09137725830078 -7.62939453125e-06 79.99997711181641 17.90860748291016 79.99997711181641 39.99999237060547 C 79.99997711181641 62.09137725830078 62.09137725830078 79.99997711181641 39.99999237060547 79.99997711181641 C 17.90860748291016 79.99997711181641 -7.62939453125e-06 62.09137725830078 -7.62939453125e-06 39.99999237060547 C -7.62939453125e-06 17.90860748291016 17.90860748291016 -7.62939453125e-06 39.99999237060547 -7.62939453125e-06 Z" stroke="none" fill="#83793c"/>
                                    </g>
                                  </g>
                                </g>
                              </g>
                            </g>
                          </g>
                        </g>
                      </g>
                    </g>
                  </g>
                </g>
                <g id="g8115" transform="translate(15.793 15.793)">
                  <g id="g8117">
                    <g id="g8119" clip-path="url(#clip-path)">
                      <g id="g8125" transform="translate(-33.259 0.709)">
                        <path id="path8127" d="M-338.457-377.826h-25.835v-25.108c5.31-7.679,37.755-5.416,25.835,25.108" transform="translate(364.292 406.667)" fill="#fbdf63"/>
                      </g>
                      <g id="g8129" transform="translate(-33.259 0.709)">
                        <path id="path8131" d="M-338.457-377.826h-.619c6.164-24.728-15.887-30.6-25.216-24.374v-.734c5.31-7.679,37.755-5.416,25.835,25.108" transform="translate(364.292 406.667)" fill="#f9d11f"/>
                      </g>
                    </g>
                  </g>
                  <g id="g8265">
                    <g id="g8267" clip-path="url(#clip-path)">
                      <g id="g8273" transform="translate(-33.259 51.036)">
                        <path id="path8275" d="M-338.457-377.654h-25.835v-25.1c5.31-7.676,37.755-5.413,25.835,25.1" transform="translate(364.292 406.481)" fill="#003343"/>
                      </g>
                      <g id="g8277" transform="translate(-33.259 51.036)">
                        <path id="path8279" d="M-338.457-377.654h-.619c6.164-24.717-15.887-30.585-25.216-24.362v-.734c5.31-7.676,37.755-5.413,25.835,25.1" transform="translate(364.292 406.481)" fill="#002439"/>
                      </g>
                    </g>
                  </g>
                  <g id="g8281">
                    <g id="g8283" clip-path="url(#clip-path)">
                      <g id="g8289" transform="translate(17.066 51.014)">
                        <path id="path8291" d="M-338.457-377.826h-25.835v-25.108c5.31-7.679,37.755-5.416,25.835,25.108" transform="translate(364.292 406.667)" fill="#ff7e50"/>
                      </g>
                      <g id="g8293" transform="translate(17.066 51.014)">
                        <path id="path8295" d="M-338.457-377.826h-.619c6.164-24.728-15.887-30.6-25.216-24.374v-.734c5.31-7.679,37.755-5.416,25.835,25.108" transform="translate(364.292 406.667)" fill="#ff6247"/>
                      </g>
                      <g id="g8297" transform="translate(2.941 54.225)">
                        <path id="path8299" d="M-233.028-131.751v15.573h-14.6c-12.2-25.649,14.6-34.273,14.6-15.573" transform="translate(250.816 141.808)" fill="#ffa68a"/>
                      </g>
                      <g id="g8301" transform="translate(2.941 54.225)">
                        <path id="path8303" d="M-233.028-131.751c-.9-16.1-20.23-9.82-14.176,15.573h-.427c-12.2-25.649,14.6-34.273,14.6-15.573" transform="translate(250.816 141.808)" fill="#ff7e50"/>
                      </g>
                    </g>
                  </g>
                </g>
              </g>
            </g>
          </g>
        </g>
      </g>
    </g>
    <g id="recreo_3_" data-name="recreo (3)" transform="translate(221.019 1906.835)">
      <path id="Trazado_1234586" data-name="Trazado 1234586" d="M188.813,297.681v4.166a12.567,12.567,0,0,0,3.294-.1v-.328a7.493,7.493,0,0,1,1.313-4.342,8.292,8.292,0,0,1-4.608.6Zm0,0" transform="translate(-170.11 -268.361)" fill="#a2f9f9"/>
      <path id="Trazado_1234587" data-name="Trazado 1234587" d="M225.538,285.39a2.6,2.6,0,0,1-.2,3.26v4.621h1.479a2.061,2.061,0,0,1,3.869-.7,2.061,2.061,0,0,1,3.87.7h5.99V282.855a7.245,7.245,0,0,0-3.285-6.222,9.852,9.852,0,0,1-4.295.979H230.06a11.252,11.252,0,0,1-4.148-.755,7.374,7.374,0,0,0-3.022,6.094v1.226l.246.025h0l-.072-.19a.8.8,0,0,1,.465-1.029l.2-.077a.8.8,0,0,1,1.029.465Zm0,0" transform="translate(-200.893 -249.892)" fill="#48e5e1"/>
      <path id="Trazado_1234588" data-name="Trazado 1234588" d="M223.137,286.3h0l-.072-.19a.8.8,0,0,1,.465-1.029l.2-.077a.8.8,0,0,1,1.029.465l.772,2.018a2.679,2.679,0,0,1,.233.4l.089.021v-2.861a7.377,7.377,0,0,1,2.3-5.486,10.586,10.586,0,0,1-2.247-.608,7.374,7.374,0,0,0-3.022,6.094v1.226Zm0,0" transform="translate(-200.894 -251.991)" fill="#41ceca"/>
      <path id="Trazado_1234589" data-name="Trazado 1234589" d="M247.507,435.219V432.1a2.014,2.014,0,0,1,.231-.937,2.061,2.061,0,0,0-3.869.705H242.39v4.77a.623.623,0,0,1-.624.619h4.287v-.007a2.06,2.06,0,0,0,1.686-1.093,2.013,2.013,0,0,1-.231-.939Zm0,0" transform="translate(-217.944 -388.49)" fill="#a2f9f9"/>
      <path id="Trazado_1234590" data-name="Trazado 1234590" d="M303.074,437.252v.007h8.339a2.695,2.695,0,1,0,0-5.389h-6.156a2.058,2.058,0,0,0-4.1.232v3.118A2.046,2.046,0,0,0,303.074,437.252Zm0,0" transform="translate(-271.593 -388.491)" fill="#a2f9f9"/>
      <path id="Trazado_1234591" data-name="Trazado 1234591" d="M304.1,435.219V432.1a2.022,2.022,0,0,1,.585-1.422,2.059,2.059,0,0,0-3.529,1.422v3.118a2.045,2.045,0,0,0,1.917,2.032v.007h2.945v-.007A2.046,2.046,0,0,1,304.1,435.219Zm0,0" transform="translate(-271.597 -388.49)" fill="#91e0e0"/>
      <path id="Trazado_1234592" data-name="Trazado 1234592" d="M287.493,286.1h-2.908a12.414,12.414,0,0,1-1.335-.071,2.352,2.352,0,0,0,4.7.06C287.8,286.095,287.647,286.1,287.493,286.1Zm0,0" transform="translate(-255.418 -258.379)" fill="#ffd5b3"/>
      <path id="Trazado_1234593" data-name="Trazado 1234593" d="M217.689,90.259h-.039V88.885c0-.106,0-.212-.006-.317a2.455,2.455,0,0,1-.714.394,5.128,5.128,0,0,1-1.7.313c-2.953,0-4.289-3.107-4.3-3.139l-.091-.218-.088.22c-.016.04-1.636,4.029-4.34,4.029a3.005,3.005,0,0,1-.9-.143c-1.282-.4-1.705-1.379-1.259-2.9l-.176-.077c-.831,1.388-2.107,3.042-3.46,3.042a1.667,1.667,0,0,1-.469-.068,1.633,1.633,0,0,1-1.071-.872,3.8,3.8,0,0,1,.225-2.94l-.177-.079c-1.12,2.349-2.312,3.491-3.644,3.491a2.362,2.362,0,0,1-.458-.046V95.5c0,6.383,4.416,9.829,9.865,9.829h2.908a9.862,9.862,0,0,0,9.537-7.31,2.42,2.42,0,0,0,.368.029c1.689,0,3.059-1.745,3.059-3.9s-1.37-3.9-3.059-3.9Zm0,0" transform="translate(-175.71 -77.613)" fill="#ffd5b3"/>
      <path id="Trazado_1234594" data-name="Trazado 1234594" d="M197.97,116.835v-6.619c0-.23.009-.458.024-.685a3.086,3.086,0,0,1-2.983,1.474v5.829c0,6.383,4.416,9.829,9.865,9.829H207.8c-5.432-.015-9.83-3.459-9.83-9.829Zm0,0" transform="translate(-175.709 -98.944)" fill="#e5bfa1"/>
      <path id="Trazado_1234595" data-name="Trazado 1234595" d="M265.437,217.978a3.308,3.308,0,0,1-3.319-3.289.621.621,0,0,1,.624-.619h5.391a.621.621,0,0,1,.624.619A3.308,3.308,0,0,1,265.437,217.978Zm0,0" transform="translate(-236.328 -193.377)" fill="#fb8276"/>
      <path id="Trazado_1234596" data-name="Trazado 1234596" d="M265.1,214.689a.621.621,0,0,1,.624-.619h-2.979a.621.621,0,0,0-.624.619,3.323,3.323,0,0,0,4.81,2.938,3.289,3.289,0,0,1-1.83-2.938Zm0,0" transform="translate(-236.329 -193.378)" fill="#e1756a"/>
      <path id="Trazado_1234597" data-name="Trazado 1234597" d="M196.035,7.5h-3.145a10.652,10.652,0,0,0-10.671,10.632v.159a2.885,2.885,0,0,0,.7.39c2.261.9,3.789-1.379,4.727-3.346-.7,1.691-.675,3.479.909,3.942,1.528.446,2.995-1.274,4.039-3.017-.358,1.219-.279,2.512,1.323,3.017,3.37,1.063,5.362-3.942,5.362-3.942s1.839,4.4,6.128,2.879a2.484,2.484,0,0,0,1.262-.971A10.655,10.655,0,0,0,196.035,7.5Zm0,0" transform="translate(-164.152 -6.775)" fill="#f7931e"/>
      <path id="Trazado_1234598" data-name="Trazado 1234598" d="M185.17,18.292v-.159A10.652,10.652,0,0,1,195.841,7.5h-2.947a10.652,10.652,0,0,0-10.671,10.632v.159a2.875,2.875,0,0,0,.7.39,2.49,2.49,0,0,0,2.43-.264C185.288,18.378,185.227,18.336,185.17,18.292Zm0,0" transform="translate(-164.157 -6.776)" fill="#de841b"/>
      <path id="Trazado_1234599" data-name="Trazado 1234599" d="M100.629,247.161v-.706a1.367,1.367,0,0,0-1.373-1.361h-4a1.367,1.367,0,0,0-1.373,1.361v.706Zm0,0" transform="translate(-84.36 -221.402)" fill="#89c947"/>
      <path id="Trazado_1234600" data-name="Trazado 1234600" d="M96.883,247.161v-.706a1.367,1.367,0,0,1,1.373-1.361h-3a1.367,1.367,0,0,0-1.373,1.361v.706Zm0,0" transform="translate(-84.36 -221.402)" fill="#7bb540"/>
      <path id="Trazado_1234601" data-name="Trazado 1234601" d="M80.314,277.359a.623.623,0,0,1-.624.618H69.328a.623.623,0,0,1-.624-.618V267.091a.623.623,0,0,1,.624-.619H79.69a.623.623,0,0,1,.624.619Zm0,0" transform="translate(-61.611 -240.714)" fill="#d5e962"/>
      <path id="Trazado_1234602" data-name="Trazado 1234602" d="M71.692,277.359v-4.385l-.584-.561a1.074,1.074,0,0,1,.584-1.836v-3.485a.623.623,0,0,1,.624-.619H69.327a.623.623,0,0,0-.624.619v10.268a.623.623,0,0,0,.624.618h2.989A.623.623,0,0,1,71.692,277.359Zm0,0" transform="translate(-61.611 -240.714)" fill="#bfd158"/>
      <path id="Trazado_1234603" data-name="Trazado 1234603" d="M102.305,302.326a.357.357,0,0,1-.165-.04l-1.473-.763-1.473.763a.358.358,0,0,1-.374-.027.347.347,0,0,1-.141-.342l.281-1.617-1.191-1.145a.347.347,0,0,1-.09-.359.356.356,0,0,1,.287-.239l1.647-.236.736-1.47a.358.358,0,0,1,.637,0l.737,1.47,1.646.236a.354.354,0,0,1,.287.239.346.346,0,0,1-.09.359l-1.191,1.145.281,1.617a.348.348,0,0,1-.141.342A.359.359,0,0,1,102.305,302.326Zm0,0" transform="translate(-87.769 -267.98)" fill="#89c947"/>
      <path id="Trazado_1234604" data-name="Trazado 1234604" d="M19.611,396.374a.623.623,0,0,1-.625.619H8.624A.623.623,0,0,1,8,396.374V386.107a.623.623,0,0,1,.624-.619H18.986a.623.623,0,0,1,.625.619Zm0,0" transform="translate(-6.776 -348.225)" fill="#fb8276"/>
      <path id="Trazado_1234605" data-name="Trazado 1234605" d="M10.96,396.375v-4.126l-.464-.454a2.28,2.28,0,0,1,0-3.267,2.369,2.369,0,0,1,.464-.353v-2.067a.623.623,0,0,1,.624-.618H8.624a.623.623,0,0,0-.624.618v10.267a.623.623,0,0,0,.624.618h2.96a.623.623,0,0,1-.624-.618Zm0,0" transform="translate(-6.775 -348.225)" fill="#e1756a"/>
      <path id="Trazado_1234606" data-name="Trazado 1234606" d="M37.46,422.818a.3.3,0,0,1-.207-.084L34.657,420.2a1.554,1.554,0,0,1,0-2.231,1.638,1.638,0,0,1,2.28,0l.522.51.522-.51a1.638,1.638,0,0,1,2.28,0,1.554,1.554,0,0,1,0,2.231l-2.595,2.538a.3.3,0,0,1-.207.084Zm0,0" transform="translate(-30.43 -377.145)" fill="#ef5050"/>
      <path id="Trazado_1234607" data-name="Trazado 1234607" d="M137.421,387.857l-2.4-.242a.74.74,0,0,1-.662-.81l.02-.2a.74.74,0,0,1,.81-.662l1.735.175.013-.129-2.118-.213a.737.737,0,0,1-.512-.286h-5.572a.623.623,0,0,0-.624.618v10.267a.623.623,0,0,0,.624.618H139.1a.623.623,0,0,0,.624-.618v-9.392a2.728,2.728,0,0,1-2.3.875Zm0,0" transform="translate(-115.274 -348.225)" fill="#ffc502"/>
      <path id="Trazado_1234608" data-name="Trazado 1234608" d="M131.062,396.375v-3.347l-.516-.885a1.891,1.891,0,0,1,0-1.8l.516-.885v-3.347a.623.623,0,0,1,.624-.619h-2.949a.623.623,0,0,0-.624.619v10.267a.623.623,0,0,0,.624.618h2.949a.623.623,0,0,1-.624-.618Zm0,0" transform="translate(-115.278 -348.225)" fill="#e5b102"/>
      <path id="Trazado_1234609" data-name="Trazado 1234609" d="M160.4,423.1a1.2,1.2,0,0,1-.936-.535l-.9-1.553a1.178,1.178,0,0,1,0-1.071l.9-1.553a1.2,1.2,0,0,1,.936-.535h1.809a1.2,1.2,0,0,1,.936.535l.9,1.553a1.178,1.178,0,0,1,0,1.071l-.9,1.553a1.2,1.2,0,0,1-.936.535Zm0,0" transform="translate(-142.667 -377.46)" fill="#fcdb67"/>
      <path id="Trazado_1234610" data-name="Trazado 1234610" d="M259.931,318.31a1.975,1.975,0,0,0-2.626.9,7.75,7.75,0,0,1-8.819,4.055,2.6,2.6,0,0,1-.451,2.877l.018-.019v1.037a11.7,11.7,0,0,0,12.774-6.247,1.933,1.933,0,0,0-.9-2.6Zm0,0" transform="translate(-223.607 -287.363)" fill="#a2f9f9"/>
      <path id="Trazado_1234611" data-name="Trazado 1234611" d="M190.826,346.615l.02-.2a.741.741,0,0,1,.811-.662l1.735.175.013-.129-2.118-.213a.74.74,0,0,1-.662-.81l.02-.2a.74.74,0,0,1,.81-.662l2.118.213.013-.129-1.735-.174a.74.74,0,0,1-.662-.81l.02-.2a.74.74,0,0,1,.81-.662l1.967.2h0l-.072-.19a.8.8,0,0,1,.465-1.029l.2-.077a.8.8,0,0,1,1.029.465l.772,2.018a2.613,2.613,0,0,1,.467,1.768,2.683,2.683,0,0,1-2.965,2.367l-2.4-.242a.739.739,0,0,1-.662-.81Zm0,0" transform="translate(-171.743 -308.035)" fill="#ffd5b3"/>
      <path id="Trazado_1234612" data-name="Trazado 1234612" d="M42.146,21.16c2.01-.106,3.617-2.137,3.617-4.617A4.478,4.478,0,0,0,42.665,12v-.59a3.294,3.294,0,0,0,.449-.531.726.726,0,0,0,.122-.466A11.38,11.38,0,0,0,31.882,0H28.737a11.39,11.39,0,0,0-11.4,11.357v.159a.725.725,0,0,0,.284.575,3.625,3.625,0,0,0,.873.489c.026.011.053.019.079.028v5.283A10.363,10.363,0,0,0,21.7,25.731a9.473,9.473,0,0,0,2,1.417,8.156,8.156,0,0,0-.848.98,7.5,7.5,0,0,1-2.875.567c-.183,0-.365-.008-.546-.022v-2.3a1.348,1.348,0,0,0-1.349-1.344H16.993a2.094,2.094,0,0,0-2.1-2.067h-4a2.094,2.094,0,0,0-2.1,2.067H7.717a1.348,1.348,0,0,0-1.349,1.344V36.538H1.849A1.348,1.348,0,0,0,.5,37.882V48.149a1.348,1.348,0,0,0,1.349,1.344h26.26a.713.713,0,0,0,.161-.019,2.775,2.775,0,0,0,1.524-.666,2.777,2.777,0,0,0,1.522.665.71.71,0,0,0,.164.018h8.34a3.417,3.417,0,0,0,.559-6.793V41.276a.725.725,0,1,0-1.45,0v1.378h-4.7a2.79,2.79,0,0,0-4.437-1.125,2.789,2.789,0,0,0-4.436,1.125H25.17V40.647a12.286,12.286,0,0,0,1.563.1,12.414,12.414,0,0,0,11.135-6.88,2.658,2.658,0,0,0-1.231-3.574,2.7,2.7,0,0,0-3.591,1.23A6.919,6.919,0,0,1,30.219,34.5a.725.725,0,1,0,.71,1.265,8.364,8.364,0,0,0,3.418-3.6,1.25,1.25,0,0,1,1.66-.567,1.208,1.208,0,0,1,.562,1.626,10.97,10.97,0,0,1-11.4,5.954v-.156a3.333,3.333,0,0,0,.662-1.686,3.256,3.256,0,0,0,.01-.532,8.44,8.44,0,0,0,1.495.032.725.725,0,1,0-.1-1.447,6.947,6.947,0,0,1-1.881-.129c-.021-.034-.043-.069-.065-.1l-.74-1.936a1.517,1.517,0,0,0-1.79-.939,6.638,6.638,0,0,1,2.371-4.506,11.548,11.548,0,0,0,2.047.514,3.082,3.082,0,0,0,5.986.1,10.583,10.583,0,0,0,3.125-.817,6.586,6.586,0,0,1,2.639,5.392v4.93a.725.725,0,1,0,1.45,0v-4.93a7.914,7.914,0,0,0-2.693-6.124,10.546,10.546,0,0,0,4.46-5.68ZM30.288,43.611a1.333,1.333,0,0,1,2.656-.15.725.725,0,0,0,.72.642H39.82a1.97,1.97,0,1,1,0,3.939H31.58l-.051-.005a1.323,1.323,0,0,1-1.241-1.308Zm-5.117.493h.754a.724.724,0,0,0,.72-.642,1.336,1.336,0,0,1,2.331-.708,2.73,2.73,0,0,0-.138.857v3.118a2.719,2.719,0,0,0,.138.855,1.335,1.335,0,0,1-.916.454l-.051.005H25.171ZM19.428,30.127c.181.011.363.018.546.018a9.038,9.038,0,0,0,1.873-.2,8.433,8.433,0,0,0-.569,2.808,11.938,11.938,0,0,1-1.3.071c-.183,0-.365-.005-.546-.014Zm.117,10.989a.521.521,0,0,1,.31.175l.9,1.553a.5.5,0,0,1,0,.342l-.9,1.552a.522.522,0,0,1-.31.176H17.736a.522.522,0,0,1-.31-.176l-.9-1.553a.5.5,0,0,1,0-.341l.9-1.553a.522.522,0,0,1,.31-.176h1.809ZM10.9,24.417h4a.643.643,0,0,1,.647.617H10.253a.642.642,0,0,1,.647-.617ZM7.817,26.484h10.16V36.538H7.817ZM12.11,48.043H1.95V37.988H12.11Zm11.61,0H13.56V37.988h4.891a1.452,1.452,0,0,0-.069.318l-.02.2a1.461,1.461,0,0,0,.4,1.158H17.736a1.916,1.916,0,0,0-1.563.9l-.9,1.553a1.891,1.891,0,0,0,0,1.8l.9,1.553a1.917,1.917,0,0,0,1.563.9h1.809a1.915,1.915,0,0,0,1.563-.9l.9-1.552a1.894,1.894,0,0,0,0-1.8l-.9-1.553a1.656,1.656,0,0,0-.261-.332l1.227.123c.117.012.236.018.354.018a3.479,3.479,0,0,0,1.293-.247Zm-.894-13.3a.725.725,0,0,0,.1-.692l-.072-.19a.071.071,0,0,1,0-.056.072.072,0,0,1,.042-.039l.2-.077a.075.075,0,0,1,.026-.005.076.076,0,0,1,.07.051l.772,2.018a.714.714,0,0,0,.084.158,1.9,1.9,0,0,1,.339,1.278,1.944,1.944,0,0,1-1.962,1.729c-.069,0-.139,0-.208-.011l-2.4-.242a.015.015,0,0,1-.014-.016l.02-.2a.016.016,0,0,1,.016-.014h0l1.735.174a.725.725,0,0,0,.794-.648l.013-.129a.725.725,0,0,0-.649-.794l-2.118-.213a.017.017,0,0,1-.013-.016l.02-.2c0-.011.012-.012.017-.014l2.118.213a.725.725,0,0,0,.794-.649l.013-.129a.725.725,0,0,0-.649-.794l-1.735-.174a.017.017,0,0,1-.014-.017l.02-.2c0-.011.012-.012.016-.013l1.967.2.019,0A.723.723,0,0,0,22.827,34.747Zm7.356-5.508a1.629,1.629,0,0,1-1.405-.8c.129,0,.258.006.389.006h2.418a1.628,1.628,0,0,1-1.4.794ZM32.075,27H29.167c-5.552,0-9.139-3.573-9.139-9.1V12.818a3.575,3.575,0,0,0,2.082-.972q.18-.161.355-.349a2.711,2.711,0,0,0,.152.4A2.455,2.455,0,0,0,24.2,13.2c1.18.345,2.372-.162,3.557-1.508a2.705,2.705,0,0,0,1.79,1.5,3.835,3.835,0,0,0,1.159.184,4.678,4.678,0,0,0,3.564-1.987,10.067,10.067,0,0,0,.908-1.318,6.647,6.647,0,0,0,1.232,1.3.725.725,0,1,0,.9-1.136,5.649,5.649,0,0,1-1.515-1.957.725.725,0,0,0-.669-.446h-.006a.726.726,0,0,0-.668.457c-.017.044-1.774,4.369-4.47,3.518-.665-.21-1.284-.625-.845-2.121a.725.725,0,0,0-1.318-.577c-1.177,1.964-2.347,2.947-3.214,2.694a1.008,1.008,0,0,1-.68-.541,3.259,3.259,0,0,1,.239-2.428.725.725,0,0,0-1.325-.589c-1.8,3.778-3.31,3.18-3.805,2.983a2.473,2.473,0,0,1-.239-.11A9.94,9.94,0,0,1,28.737,1.45h3.145a9.985,9.985,0,0,1,9.882,8.806,1.762,1.762,0,0,1-.754.5,4.957,4.957,0,0,1-.882.228.725.725,0,1,0,.226,1.432,6.311,6.311,0,0,0,.861-.2v.432a.725.725,0,0,0,.725.725h.047c1.283.006,2.326,1.426,2.326,3.172s-1.047,3.171-2.334,3.171a1.7,1.7,0,0,1-.259-.02.725.725,0,0,0-.81.531A9.138,9.138,0,0,1,32.075,27Zm0,0" transform="translate(0 0)"/>
      <path id="Trazado_1234613" data-name="Trazado 1234613" d="M343.4,156.6a.725.725,0,0,0-.725.725v1.189a.725.725,0,1,0,1.45,0v-1.189A.725.725,0,0,0,343.4,156.6Zm0,0" transform="translate(-309.1 -141.461)"/>
      <path id="Trazado_1234614" data-name="Trazado 1234614" d="M232.584,156.6a.725.725,0,0,0-.725.725v1.189a.725.725,0,1,0,1.45,0v-1.189A.725.725,0,0,0,232.584,156.6Zm0,0" transform="translate(-208.995 -141.461)"/>
      <path id="Trazado_1234615" data-name="Trazado 1234615" d="M283.6,168.085h.47a.725.725,0,1,0,0-1.45h-.215v-.673a.725.725,0,1,0-1.45,0v.914A1.2,1.2,0,0,0,283.6,168.085Zm0,0" transform="translate(-254.653 -149.265)"/>
      <path id="Trazado_1234616" data-name="Trazado 1234616" d="M261.358,206.566h-5.391a1.348,1.348,0,0,0-1.349,1.344,4.045,4.045,0,0,0,8.089,0A1.348,1.348,0,0,0,261.358,206.566Zm-2.7,3.908a2.585,2.585,0,0,1-2.593-2.458h5.186A2.585,2.585,0,0,1,258.662,210.474Zm0,0" transform="translate(-229.553 -186.598)"/>
      <path id="Trazado_1234617" data-name="Trazado 1234617" d="M96.7,291.064l-1.271-.182-.566-1.131a1.083,1.083,0,0,0-1.934,0l-.566,1.131-1.272.182a1.074,1.074,0,0,0-.6,1.838l.913.877-.215,1.236a1.08,1.08,0,0,0,1.563,1.137l1.139-.59,1.135.588a1.086,1.086,0,0,0,.5.123,1.078,1.078,0,0,0,1.064-1.259l-.215-1.236.913-.877a1.075,1.075,0,0,0-.6-1.839ZM95.1,293a.723.723,0,0,0-.212.647l.152.875-.812-.421a.725.725,0,0,0-.667,0l-.811.421.152-.875a.726.726,0,0,0-.212-.647l-.635-.61.888-.127a.726.726,0,0,0,.545-.393l.407-.813.407.813a.725.725,0,0,0,.546.393l.888.127Zm0,0" transform="translate(-80.999 -261.205)"/>
      <path id="Trazado_1234618" data-name="Trazado 1234618" d="M29.972,416.481a1.024,1.024,0,0,0,1.429,0L34,413.944a2.279,2.279,0,0,0,0-3.267,2.364,2.364,0,0,0-3.294,0l-.015.015-.015-.015a2.364,2.364,0,0,0-3.294,0,2.279,2.279,0,0,0,0,3.267Zm-1.581-4.768a.914.914,0,0,1,1.267,0l.521.51a.726.726,0,0,0,1.014,0l.522-.51a.913.913,0,0,1,1.267,0,.83.83,0,0,1,0,1.194l-2.3,2.245-2.3-2.245a.83.83,0,0,1,0-1.194Zm0,0" transform="translate(-23.656 -370.375)"/>
      <path id="Trazado_1234619" data-name="Trazado 1234619" d="M422.182,157.961a.721.721,0,0,0,.344-.087,2.6,2.6,0,0,0,.945-3.4.725.725,0,0,0-1.331.575c.02.046.477,1.127-.3,1.549a.725.725,0,0,0,.346,1.363Zm0,0" transform="translate(-380.264 -139.147)"/>
    </g>
  </g>
</svg>
