<svg xmlns="http://www.w3.org/2000/svg" xmlns:xlink="http://www.w3.org/1999/xlink" width="113" height="113" viewBox="0 0 113 113">
  <defs>
    <filter id="Trazado_982547" x="0" y="0" width="113" height="113" filterUnits="userSpaceOnUse">
      <feOffset dy="3" input="SourceAlpha"/>
      <feGaussianBlur stdDeviation="3" result="blur"/>
      <feFlood flood-opacity="0.161"/>
      <feComposite operator="in" in2="blur"/>
      <feComposite in="SourceGraphic"/>
    </filter>
  </defs>
  <g id="Grupo_1231961" data-name="Grupo 1231961" transform="translate(-1216 -1005.215)">
    <g id="Grupo_1231337" data-name="Grupo 1231337" transform="translate(-0.574 -1603)">
      <g id="Grupo_1230628" data-name="Grupo 1230628" transform="translate(104.574 1377.999)">
        <g id="Grupo_1209049" data-name="Grupo 1209049">
          <g id="Grupo_1208493" data-name="Grupo 1208493" transform="translate(0 -4397.209)">
            <g id="Grupo_1202104" data-name="Grupo 1202104" transform="translate(0 -1149.226)">
              <g id="Grupo_1201923" data-name="Grupo 1201923" transform="translate(-4174.49 4856.378)">
                <g id="Grupo_1176928" data-name="Grupo 1176928" transform="translate(5295.49 1926.273)">
                  <g id="Grupo_1172322" data-name="Grupo 1172322" transform="translate(0 0)">
                    <g id="Grupo_1164700" data-name="Grupo 1164700">
                      <g id="Grupo_1160931" data-name="Grupo 1160931">
                        <g id="Grupo_1160749" data-name="Grupo 1160749">
                          <g id="Grupo_1158891" data-name="Grupo 1158891">
                            <g id="Grupo_1157406" data-name="Grupo 1157406">
                              <g id="Grupo_1155793" data-name="Grupo 1155793">
                                <g id="Grupo_1154704" data-name="Grupo 1154704">
                                  <g id="Grupo_1150790" data-name="Grupo 1150790">
                                    <g id="Grupo_1154214" data-name="Grupo 1154214">
                                      <g id="Grupo_1152583" data-name="Grupo 1152583">
                                        <g id="Grupo_1146973" data-name="Grupo 1146973">
                                          <g id="Grupo_1146954" data-name="Grupo 1146954">
                                            <g transform="matrix(1, 0, 0, 1, -9, -6)" filter="url(#Trazado_982547)">
                                              <g id="Trazado_982547-2" data-name="Trazado 982547" transform="translate(9 6)" fill="#dce8fa">
                                                <path d="M 47.5000114440918 93.49987030029297 C 41.28938293457031 93.49987030029297 35.26534652709961 92.28384399414062 29.5951976776123 89.88558959960938 C 24.11773109436035 87.56881713867188 19.19814491271973 84.25183868408203 14.97310447692871 80.02680206298828 C 10.74805164337158 75.80176544189453 7.43107795715332 70.88218688964844 5.114304542541504 65.40472412109375 C 2.716038227081299 59.73458862304688 1.500011444091797 53.71054840087891 1.500011444091797 47.49993515014648 C 1.500011444091797 41.28932189941406 2.716038227081299 35.26528167724609 5.114304542541504 29.59514808654785 C 7.43107795715332 24.1176815032959 10.74805164337158 19.1981086730957 14.97310447692871 14.97306823730469 C 19.19814491271973 10.74802875518799 24.11773109436035 7.431055068969727 29.5951976776123 5.11428165435791 C 35.26534652709961 2.716028451919556 41.28938293457031 1.500001788139343 47.5000114440918 1.500001788139343 C 53.71063995361328 1.500001788139343 59.73467636108398 2.716028451919556 65.40482330322266 5.11428165435791 C 70.88229370117188 7.431055068969727 75.8018798828125 10.74802875518799 80.02691650390625 14.97306823730469 C 84.25196838378906 19.1981086730957 87.56894683837891 24.1176815032959 89.88571929931641 29.59514808654785 C 92.28398132324219 35.26528167724609 93.50001525878906 41.28932189941406 93.50001525878906 47.49993515014648 C 93.50001525878906 53.71054840087891 92.28398132324219 59.73458862304688 89.88571929931641 65.40472412109375 C 87.56894683837891 70.88218688964844 84.25196838378906 75.80176544189453 80.02691650390625 80.02680206298828 C 75.8018798828125 84.25183868408203 70.88229370117188 87.56881713867188 65.40482330322266 89.88558959960938 C 59.73467636108398 92.28384399414062 53.71063995361328 93.49987030029297 47.5000114440918 93.49987030029297 Z" stroke="none"/>
                                                <path d="M 47.5000114440918 3 C 41.49122619628906 3 35.66378021240234 4.1761474609375 30.17951965332031 6.495796203613281 C 24.880859375 8.7369384765625 20.12153625488281 11.94596862792969 16.03376770019531 16.03373718261719 C 11.94598388671875 20.12149047851562 8.736968994140625 24.88081359863281 6.495811462402344 30.17947387695312 C 4.176162719726562 35.66371917724609 3.000007629394531 41.49116516113281 3.000007629394531 47.49993515014648 C 3.000007629394531 53.50870513916016 4.176162719726562 59.33615112304688 6.495811462402344 64.82039642333984 C 8.736968994140625 70.11905670166016 11.94598388671875 74.87837982177734 16.03376770019531 78.96613311767578 C 20.12153625488281 83.05390167236328 24.880859375 86.26293182373047 30.17951965332031 88.50407409667969 C 35.66378021240234 90.82372283935547 41.49122619628906 91.99987030029297 47.5000114440918 91.99987030029297 C 53.50879669189453 91.99987030029297 59.33624267578125 90.82372283935547 64.82050323486328 88.50407409667969 C 70.11916351318359 86.26293182373047 74.87848663330078 83.05390167236328 78.96625518798828 78.96613311767578 C 83.05403900146484 74.87837982177734 86.2630615234375 70.11905670166016 88.50421142578125 64.82039642333984 C 90.82386016845703 59.33615112304688 92.00001525878906 53.50870513916016 92.00001525878906 47.49993515014648 C 92.00001525878906 41.49116516113281 90.82386016845703 35.66371917724609 88.50421142578125 30.17947387695312 C 86.2630615234375 24.88081359863281 83.05403900146484 20.12149047851562 78.96625518798828 16.03373718261719 C 74.87848663330078 11.94596862792969 70.11916351318359 8.7369384765625 64.82050323486328 6.495796203613281 C 59.33624267578125 4.1761474609375 53.50879669189453 3 47.5000114440918 3 M 47.5000114440918 0 C 73.73353576660156 0 95.00001525878906 21.26644134521484 95.00001525878906 47.49993515014648 C 95.00001525878906 73.73342895507812 73.73353576660156 94.99987030029297 47.5000114440918 94.99987030029297 C 21.26648712158203 94.99987030029297 7.62939453125e-06 73.73342895507812 7.62939453125e-06 47.49993515014648 C 7.62939453125e-06 21.26644134521484 21.26648712158203 0 47.5000114440918 0 Z" stroke="none" fill="#5692e8"/>
                                              </g>
                                            </g>
                                          </g>
                                        </g>
                                      </g>
                                    </g>
                                  </g>
                                </g>
                              </g>
                            </g>
                          </g>
                        </g>
                      </g>
                    </g>
                  </g>
                </g>
              </g>
            </g>
          </g>
        </g>
      </g>
    </g>
    <g id="diseno-grafico" transform="translate(1246.224 1032.438)">
      <path id="Trazado_1232708" data-name="Trazado 1232708" d="M55.439,53.6H10.6A3.085,3.085,0,0,0,7.514,56.69V80.344h51.01V56.69A3.085,3.085,0,0,0,55.439,53.6Z" transform="translate(-6.743 -48.103)" fill="#80d8ff"/>
      <path id="Trazado_1232709" data-name="Trazado 1232709" d="M31.58,78.286V56.531L29.824,53.6H23.052L21.3,56.531V53.6H10.6a3.1,3.1,0,0,0-.617.062v24.62H7.515v2.057h51.01V78.286Z" transform="translate(-6.744 -48.102)" fill="#40c4ff"/>
      <g id="Grupo_1231955" data-name="Grupo 1231955" transform="translate(0.771 32.241)">
        <path id="Trazado_1232710" data-name="Trazado 1232710" d="M158.39,464.407H137.822a2.057,2.057,0,0,0-2.057,2.057v2.057h24.682v-2.057A2.057,2.057,0,0,0,158.39,464.407Z" transform="translate(-122.601 -448.981)" fill="#d8d7da"/>
        <rect id="Rectángulo_424291" data-name="Rectángulo 424291" width="14.398" height="7.199" transform="translate(18.306 8.227)" fill="#d8d7da"/>
        <path id="Trazado_1232711" data-name="Trazado 1232711" d="M7.515,319.255A3.085,3.085,0,0,0,10.6,322.34H55.44a3.085,3.085,0,0,0,3.085-3.085v-5.142H7.515Z" transform="translate(-7.515 -314.113)" fill="#d8d7da"/>
      </g>
      <g id="Grupo_1231956" data-name="Grupo 1231956" transform="translate(0.771 35.326)">
        <rect id="Rectángulo_424292" data-name="Rectángulo 424292" width="14.398" height="2.057" transform="translate(18.306 5.142)" fill="#acabb1"/>
        <rect id="Rectángulo_424293" data-name="Rectángulo 424293" width="14.398" height="2.057" transform="translate(18.306 10.284)" fill="#acabb1"/>
        <rect id="Rectángulo_424294" data-name="Rectángulo 424294" width="24.682" height="2.057" transform="translate(13.164 14.398)" fill="#acabb1"/>
        <path id="Trazado_1232712" data-name="Trazado 1232712" d="M55.439,347.257H10.6a3.085,3.085,0,0,1-3.085-3.085v2.057a3.085,3.085,0,0,0,3.085,3.085H55.439a3.085,3.085,0,0,0,3.085-3.085v-2.057A3.085,3.085,0,0,1,55.439,347.257Z" transform="translate(-7.514 -344.172)" fill="#acabb1"/>
      </g>
      <g id="Grupo_1231957" data-name="Grupo 1231957" transform="translate(5.296 0.771)">
        <rect id="Rectángulo_424295" data-name="Rectángulo 424295" width="7.199" height="31.47" fill="#fdd835"/>
        <rect id="Rectángulo_424296" data-name="Rectángulo 424296" width="6.171" height="4.114" transform="translate(11.313 27.356)" fill="#fdd835"/>
      </g>
      <path id="Trazado_1232713" data-name="Trazado 1232713" d="M164.9,89.522l-3.085-1.851V106.8h6.171V87.671Z" transform="translate(-145.207 -78.672)" fill="#ed593b"/>
      <path id="Trazado_1232714" data-name="Trazado 1232714" d="M167.987,42.715,164.9,37.573l-3.085,5.142,3.085,1.851Z" transform="translate(-145.207 -33.716)" fill="#fdd8a8"/>
      <rect id="Rectángulo_424297" data-name="Rectángulo 424297" width="16.455" height="7.199" transform="translate(32.241 8.587)" fill="#b0ef60"/>
      <g id="Grupo_1231958" data-name="Grupo 1231958" transform="translate(32.241 18.872)">
        <rect id="Rectángulo_424298" data-name="Rectángulo 424298" width="6.685" height="4.114" fill="#fdd835"/>
        <rect id="Rectángulo_424299" data-name="Rectángulo 424299" width="6.685" height="4.114" transform="translate(9.77)" fill="#fdd835"/>
      </g>
      <g id="Grupo_1231959" data-name="Grupo 1231959" transform="translate(32.241 20.928)">
        <rect id="Rectángulo_424300" data-name="Rectángulo 424300" width="6.685" height="2.057" fill="#fbc02d"/>
        <rect id="Rectángulo_424301" data-name="Rectángulo 424301" width="6.685" height="2.057" transform="translate(9.77)" fill="#fbc02d"/>
      </g>
      <rect id="Rectángulo_424302" data-name="Rectángulo 424302" width="16.455" height="2.057" transform="translate(32.241 13.729)" fill="#64dd17"/>
      <rect id="Rectángulo_424303" data-name="Rectángulo 424303" width="6.171" height="2.057" transform="translate(16.609 30.184)" fill="#fbc02d"/>
      <rect id="Rectángulo_424304" data-name="Rectángulo 424304" width="6.171" height="2.057" transform="translate(16.609 26.071)" fill="#e23423"/>
      <rect id="Rectángulo_424305" data-name="Rectángulo 424305" width="7.199" height="2.057" transform="translate(5.296 30.184)" fill="#fbc02d"/>
      <path id="Trazado_1232715" data-name="Trazado 1232715" d="M162.874,70.488l-1.058,1.764L164.9,74.1l3.085-1.851-1.058-1.764L164.9,71.7Z" transform="translate(-145.207 -63.253)" fill="#ffc477"/>
      <path id="Trazado_1232716" data-name="Trazado 1232716" d="M48.7,4.731H23.705V6.273H48.7A2.317,2.317,0,0,1,51.01,8.587V31.47H23.551V8.785L19.694,2.357,15.838,8.785V31.47H13.267V0H4.525V31.47H1.543V8.587a2.329,2.329,0,0,1,1.482-2.16L2.469,4.988A3.881,3.881,0,0,0,0,8.587v28.8A3.861,3.861,0,0,0,3.857,41.24H18.306V46.9H15.992a2.831,2.831,0,0,0-2.828,2.828v2.828H39.389V49.724A2.831,2.831,0,0,0,36.561,46.9H34.247V41.24H48.7a3.861,3.861,0,0,0,3.857-3.857V8.587A3.861,3.861,0,0,0,48.7,4.731Zm-29,.625,2.027,3.378L19.694,9.95,17.667,8.734ZM17.38,10.361l2.314,1.388,2.314-1.388v17H17.38v-17Zm0,18.538h4.628V31.47H17.38Zm-11.313.72H9.821V28.076H6.068V26.534H8.176V24.991H6.068V23.448H9.821V21.906H6.068V20.363H8.176V18.821H6.068V17.278H9.821V15.735H6.068V14.192H8.176V12.65H6.068V11.107H9.821V9.564H6.068V8.022H8.176V6.479H6.068V4.936H9.821V3.394H6.068V1.543h5.656V31.47H6.068Zm30.493,18.82a1.287,1.287,0,0,1,1.285,1.285V51.01H14.707V49.724a1.287,1.287,0,0,1,1.285-1.285ZM19.849,46.9V41.24H32.7V46.9ZM51.01,37.383A2.317,2.317,0,0,1,48.7,39.7H3.857a2.317,2.317,0,0,1-2.314-2.314V33.012H51.01v4.371Z"/>
      <path id="Trazado_1232717" data-name="Trazado 1232717" d="M324.6,76.149h-18v8.742h18Zm-1.543,7.2H308.142V77.692h14.912Z" transform="translate(-275.129 -68.333)"/>
      <path id="Trazado_1232718" data-name="Trazado 1232718" d="M306.6,182h8.227v-5.656H306.6Zm1.543-4.114h5.142v2.571h-5.142Z" transform="translate(-275.129 -158.244)"/>
      <path id="Trazado_1232719" data-name="Trazado 1232719" d="M410.011,182v-5.656h-8.227V182Zm-6.685-4.114h5.142v2.571h-5.142Z" transform="translate(-360.544 -158.244)"/>
      <path id="Trazado_1232720" data-name="Trazado 1232720" d="M244.978,96.717V98.26h4.628V96.717h-1.543V77.692h1.543V76.149h-4.628v1.543h1.543V96.717Z" transform="translate(-219.833 -68.333)"/>
      <g id="Grupo_1231960" data-name="Grupo 1231960" transform="translate(18.923 13.421)">
        <path id="Trazado_1232721" data-name="Trazado 1232721" d="M226.14,348.22H224.6v-1.543h1.543Zm-3.085,0h-1.543v-1.543h1.543Zm-3.085,0h-1.543v-1.543h1.543Z" transform="translate(-214.93 -324.514)" fill="#fff"/>
        <path id="Trazado_1232722" data-name="Trazado 1232722" d="M185.9,143.1H184.36v-2.571H185.9Zm0-4.114H184.36V137.44H185.9Zm0-3.085H184.36v-5.142H185.9Z" transform="translate(-184.36 -130.755)" fill="#fff"/>
        <path id="Trazado_1232723" data-name="Trazado 1232723" d="M320.8,253.035h-1.543v-1.543H320.8Zm-3.085,0h-3.6v-1.543h3.6Z" transform="translate(-300.795 -239.099)" fill="#fff"/>
        <path id="Trazado_1232724" data-name="Trazado 1232724" d="M415.985,253.035h-1.543v-1.543h1.543Zm-3.085,0h-3.6v-1.543h3.6Z" transform="translate(-386.212 -239.099)" fill="#fff"/>
      </g>
    </g>
  </g>
</svg>
